<svg width="24" height="23" viewBox="0 0 24 23" fill="none" xmlns="http://www.w3.org/2000/svg">
<path d="M12.3622 22.844C10.6343 22.8263 8.90641 22.4461 7.28596 21.6237C7.03528 21.4911 6.8025 21.4734 6.52497 21.553C4.75231 22.0216 2.97966 22.4726 1.19805 22.9324C0.813084 23.0296 0.804131 23.0208 0.911565 22.6317C1.38606 20.9163 1.85161 19.201 2.33506 17.4944C2.40668 17.2468 2.38878 17.0435 2.26344 16.8136C-1.24606 10.2615 2.26344 2.32118 9.5152 0.38474C15.7643 -1.28644 22.3446 2.65719 23.7233 8.90863C25.111 15.1954 21.1449 21.2789 14.7884 22.6141C14.0185 22.7732 13.2396 22.844 12.3622 22.844ZM3.62426 20.262C3.75855 20.3151 3.88389 20.2532 4.00923 20.2178C4.95823 19.9702 5.90723 19.7315 6.84727 19.4751C7.09795 19.4043 7.29491 19.4309 7.52768 19.5635C9.48834 20.713 11.6102 21.1462 13.8663 20.8102C19.1216 20.0321 22.7206 15.2308 21.9775 10.0404C21.2255 4.82353 16.2567 1.22475 10.9477 2.04708C4.43897 3.06393 0.848895 10.1819 4.00923 15.894C4.41211 16.619 4.50164 17.2291 4.23305 17.9896C3.97342 18.7323 3.75855 19.4928 3.62426 20.262C3.62426 20.2709 3.62426 20.2797 3.61531 20.2797C3.61531 20.2797 3.61531 20.2709 3.62426 20.262Z" fill="#FAFBFA"/>
<path d="M3.6345 20.271C3.75983 19.4929 3.98365 18.7324 4.24329 17.9985C4.51187 17.2381 4.42234 16.628 4.01947 15.9029C0.850178 10.182 4.44025 3.06405 10.94 2.05604C16.24 1.23371 21.2088 4.83249 21.9698 10.0494C22.7218 15.2309 19.1139 20.0411 13.8586 20.8192C11.6025 21.1552 9.48067 20.7219 7.52001 19.5725C7.28723 19.4398 7.09027 19.4133 6.83959 19.484C5.89955 19.7405 4.95056 19.9792 4.00156 20.2268C3.88517 20.2533 3.75983 20.3152 3.6345 20.271ZM15.4701 16.8933C15.5865 16.8933 15.7118 16.9021 15.8282 16.8933C16.9831 16.7606 18.3529 16.0267 18.3081 14.4528C18.2992 14.2671 18.2992 14.0903 18.0933 14.0019C17.2965 13.6305 16.4997 13.2503 15.7118 12.8789C15.4522 12.7551 15.2552 12.8259 15.0851 13.0469C14.8076 13.4094 14.5121 13.7543 14.2256 14.108C14.0735 14.2937 13.8944 14.3467 13.6527 14.2583C11.9427 13.5863 10.6266 12.4545 9.67763 10.8982C9.53439 10.6595 9.54334 10.465 9.7403 10.2528C9.99993 9.96982 10.2685 9.69571 10.4386 9.34202C10.5192 9.17402 10.555 9.00602 10.4834 8.82917C10.1611 8.06874 9.83878 7.30831 9.51648 6.55673C9.45381 6.39757 9.35533 6.22956 9.18523 6.20304C8.64806 6.12346 8.10194 6.03503 7.64535 6.4683C6.77693 7.28179 6.44567 8.2898 6.64263 9.45697C6.83064 10.5269 7.41257 11.4023 8.05717 12.2423C9.28371 13.8427 10.6893 15.2398 12.5694 16.0798C13.4915 16.4865 14.4226 16.9021 15.4701 16.8933Z" fill="#00D35B"/>
<path d="M3.62655 20.2622C3.62655 20.2717 3.62655 20.2812 3.61719 20.2812C3.61719 20.2812 3.62655 20.2717 3.62655 20.2622C3.62655 20.2622 3.63591 20.2717 3.62655 20.2622Z" fill="#00D35B"/>
<path d="M15.4674 16.8933C14.42 16.9022 13.4889 16.4778 12.5667 16.071C10.6866 15.231 9.28106 13.8339 8.05453 12.2335C7.40993 11.3935 6.81904 10.5181 6.63999 9.4482C6.44302 8.28987 6.77428 7.28186 7.6427 6.45953C8.09929 6.03511 8.64541 6.12353 9.18258 6.20311C9.35268 6.22964 9.45116 6.39764 9.51383 6.5568C9.83613 7.31723 10.1584 8.07766 10.4807 8.82924C10.5613 9.00609 10.5255 9.17409 10.436 9.34209C10.2659 9.68694 9.99728 9.96989 9.73765 10.2528C9.54069 10.4651 9.53174 10.6596 9.67498 10.8983C10.624 12.4546 11.9311 13.5864 13.65 14.2584C13.8918 14.3556 14.0708 14.3026 14.223 14.108C14.5095 13.7544 14.8049 13.4095 15.0825 13.047C15.2526 12.8171 15.4495 12.7552 15.7092 12.879C16.506 13.2504 17.3028 13.6306 18.0906 14.0019C18.2965 14.0992 18.2965 14.2672 18.3055 14.4529C18.3592 16.0268 16.9894 16.7696 15.8256 16.8933C15.7092 16.911 15.5838 16.8933 15.4674 16.8933Z" fill="#FAFBFA"/>
</svg>
