<svg width="36" height="36" viewBox="0 0 36 36" fill="none" xmlns="http://www.w3.org/2000/svg">
<path fill-rule="evenodd" clip-rule="evenodd" d="M17.8722 0C27.7427 0 35.7444 8.00165 35.7444 17.8722C35.7444 27.7427 27.7427 35.7444 17.8722 35.7444C8.00165 35.7444 0 27.7427 0 17.8722C0 8.00165 8.00165 0 17.8722 0ZM19.6619 8.93652C16.9949 8.93652 15.2517 10.4857 15.2517 13.2901V15.7552H12.2871V18.9896H15.2517V26.8087H18.9003V18.9896H21.6208L22.1388 15.7552H18.9003V13.6562C18.9003 12.7714 19.3527 11.9088 20.8031 11.9088H22.2754V9.15504C22.2754 9.15504 20.9393 8.93652 19.6619 8.93652Z" fill="#00506E"/>
</svg>
