<svg width="20" height="20" viewBox="0 0 20 20" fill="none" xmlns="http://www.w3.org/2000/svg">
<path d="M9.50703 0C6.97557 0 4.57069 0.99852 2.7846 2.7846C0.99852 4.57069 0 6.97557 0 9.50703C0 12.0385 0.99852 14.4434 2.7846 16.2295C4.57069 18.0155 6.98964 19.0141 9.50703 19.0141C12.0244 19.0141 14.4434 18.0155 16.2295 16.2295C18.0155 14.4434 19.0141 12.0244 19.0141 9.50703C19.0141 7.83346 18.5781 6.20207 17.7343 4.75352C16.9045 3.30496 15.695 2.10955 14.2605 1.27979C12.8261 0.450037 11.1665 0 9.50703 0ZM16.9045 6.10363H13.6699C13.1917 4.43005 12.376 2.88305 11.265 1.547C12.4885 1.81421 13.6417 2.37676 14.6262 3.16432C15.5966 3.96595 16.3701 4.96447 16.9045 6.10363ZM9.46484 17.3264C8.22724 16.0888 7.28497 14.5699 6.75056 12.8964H12.2494C11.715 14.5699 10.7868 16.0888 9.53516 17.3264C9.50703 17.3405 9.4789 17.3405 9.46484 17.3264ZM6.41303 11.5322C6.15988 10.1821 6.15988 8.80385 6.41303 7.45374H12.601C12.8542 8.80385 12.8542 10.1821 12.601 11.5322H6.41303ZM1.36417 9.50703C1.36417 8.81791 1.44856 8.14286 1.61732 7.4678H5.03479C4.80977 8.81791 4.80977 10.1962 5.03479 11.5463H1.61732C1.44856 10.8712 1.35011 10.1821 1.36417 9.50703ZM9.50703 1.65951C9.5211 1.65951 9.53516 1.65951 9.54922 1.65951C10.8009 2.89711 11.7291 4.43005 12.2635 6.10363H6.75056C7.28497 4.43005 8.21318 2.91118 9.46484 1.67358C9.4789 1.67358 9.49297 1.65951 9.50703 1.65951ZM13.9652 7.4678H17.3827C17.7202 8.80385 17.7202 10.2102 17.3827 11.5463H13.9652C14.1902 10.1821 14.1902 8.81791 13.9652 7.4678ZM7.74907 1.547C6.63805 2.88305 5.80829 4.43005 5.34419 6.10363H2.10955C2.6299 4.96447 3.41747 3.95189 4.40192 3.16432C5.37232 2.37676 6.51147 1.82828 7.74907 1.547ZM2.09548 12.8964H5.33013C5.80829 14.5699 6.62398 16.1169 7.73501 17.453C6.51147 17.1858 5.35825 16.6232 4.3738 15.8357C3.4034 15.0481 2.6299 14.0355 2.09548 12.8964ZM11.265 17.453C12.376 16.1169 13.1917 14.5699 13.6699 12.8964H16.9045C16.3842 14.0355 15.5966 15.0481 14.6121 15.8357C13.6417 16.6232 12.4885 17.1717 11.265 17.453Z" fill="#E0E0E0"/>
</svg>
