<svg width="22" height="21" viewBox="0 0 22 21" fill="none" xmlns="http://www.w3.org/2000/svg">
<path d="M11.0078 20.72C10.4211 20.72 9.96781 20.56 9.64781 20.24C9.32781 19.8933 9.16781 19.4267 9.16781 18.84V12.28H2.72781C2.16781 12.28 1.72781 12.1333 1.40781 11.84C1.08781 11.52 0.927813 11.08 0.927813 10.52C0.927813 9.96 1.08781 9.53333 1.40781 9.24C1.72781 8.92 2.16781 8.76 2.72781 8.76H9.16781V2.4C9.16781 1.81333 9.32781 1.36 9.64781 1.04C9.96781 0.719999 10.4345 0.559999 11.0478 0.559999C11.6345 0.559999 12.0745 0.719999 12.3678 1.04C12.6878 1.36 12.8478 1.81333 12.8478 2.4V8.76H19.2878C19.8745 8.76 20.3145 8.92 20.6078 9.24C20.9278 9.53333 21.0878 9.96 21.0878 10.52C21.0878 11.08 20.9278 11.52 20.6078 11.84C20.3145 12.1333 19.8745 12.28 19.2878 12.28H12.8478V18.84C12.8478 19.4267 12.6878 19.8933 12.3678 20.24C12.0745 20.56 11.6211 20.72 11.0078 20.72Z" fill="#36768A"/>
</svg>
