<svg width="21" height="21" viewBox="0 0 21 21" fill="none" xmlns="http://www.w3.org/2000/svg">
<path fill-rule="evenodd" clip-rule="evenodd" d="M14.3637 20.1072C17.784 20.1072 20.563 17.5404 20.563 14.1178V5.98939C20.563 2.78079 17.784 0 14.3637 0H6.24047C3.31173 0 0.853213 1.88208 0.207031 4.57184V15.4678C0.853213 18.0683 3.31173 20.1072 6.24047 20.1072H14.3637ZM14.3637 1.92516H6.24047C3.88901 1.92516 1.96509 3.85032 1.96509 5.98939V13.9039C1.96509 16.2569 3.88901 17.9682 6.24047 17.9682H14.3637C16.7151 17.9682 18.6391 16.043 18.6391 13.9039V5.98939C18.6391 3.85032 16.7151 1.92516 14.3637 1.92516ZM10.3021 14.9735C7.52309 14.9735 5.17163 12.8344 5.17163 10.0536C5.17163 7.27283 7.52309 5.13376 10.3021 5.13376C13.0811 5.13376 15.4325 7.27283 15.4325 10.0536C15.4325 12.8344 13.0811 14.9735 10.3021 14.9735ZM15.6463 5.98939C15.005 5.98939 14.3637 5.56158 14.3637 4.70595C14.3637 4.06423 15.005 3.42251 15.6463 3.42251C16.2876 3.42251 16.9289 3.85032 16.9289 4.70595C16.9289 5.56158 16.2876 5.98939 15.6463 5.98939ZM7.09675 10.054C7.09675 8.34273 8.59313 6.84538 10.3033 6.84538C12.2272 6.84538 13.5098 8.34273 13.5098 10.054C13.5098 11.7652 12.0134 13.2626 10.3033 13.2626C8.59313 13.2626 7.09675 11.7652 7.09675 10.054Z" fill="#36768A"/>
</svg>
