<svg width="19" height="19" viewBox="0 0 19 19" fill="none" xmlns="http://www.w3.org/2000/svg">
<path d="M9.49284 18.9857C14.7356 18.9857 18.9857 14.7356 18.9857 9.49284C18.9857 4.25009 14.7356 0 9.49284 0C4.25009 0 0 4.25009 0 9.49284C0 14.7356 4.25009 18.9857 9.49284 18.9857Z" fill="#F0F0F0"/>
<path d="M9.49369 9.95125C11.7989 9.95125 13.6602 8.08991 13.6602 5.78471C13.6602 3.47951 11.7989 1.61816 9.49369 1.61816C7.18849 1.61816 5.32715 3.47951 5.32715 5.78471C5.32715 8.08991 7.18849 9.95125 9.49369 9.95125Z" fill="#C4C4C4"/>
<path d="M16.7096 15.6786C15.2635 13.2016 12.586 11.5264 9.50762 11.5264C6.42925 11.5264 3.75178 13.2016 2.30566 15.6786C4.05246 17.7117 6.6297 19.0004 9.50762 19.0004C12.3855 19.0004 14.9628 17.6974 16.7096 15.6786Z" fill="#C4C4C4"/>
</svg>
