<svg width="37" height="36" viewBox="0 0 37 36" fill="none" xmlns="http://www.w3.org/2000/svg">
<path fill-rule="evenodd" clip-rule="evenodd" d="M18.5265 0C28.397 0 36.3987 8.00165 36.3987 17.8722C36.3987 27.7427 28.397 35.7444 18.5265 35.7444C8.65594 35.7444 0.654297 27.7427 0.654297 17.8722C0.654297 8.00165 8.65594 0 18.5265 0ZM13.592 14.876H9.88672V26.8081H13.592V14.876ZM23.0233 14.5771C21.2205 14.5771 20.0121 15.5665 19.5175 16.504H19.4656V14.8763H15.9119V26.8084H19.6132V20.9002C19.6132 19.3444 19.9084 17.8404 21.8349 17.8404C23.7334 17.8404 23.7613 19.6157 23.7613 20.9999V26.8084H27.4626V20.2539C27.4626 17.0465 26.7732 14.5771 23.0233 14.5771ZM11.7357 8.9375C10.5506 8.9375 9.58984 9.89823 9.58984 11.0834C9.58984 12.2682 10.5509 13.2496 11.7357 13.2496C12.9201 13.2496 13.8816 12.2682 13.8816 11.0834C13.8816 9.89823 12.9208 8.9375 11.7357 8.9375Z" fill="#00506E"/>
</svg>
