<svg width="37" height="36" viewBox="0 0 37 36" fill="none" xmlns="http://www.w3.org/2000/svg">
<path fill-rule="evenodd" clip-rule="evenodd" d="M18.7003 0C28.5708 0 36.5725 8.00165 36.5725 17.8722C36.5725 27.7427 28.5708 35.7444 18.7003 35.7444C8.82977 35.7444 0.828125 27.7427 0.828125 17.8722C0.828125 8.00165 8.82977 0 18.7003 0ZM22.1377 11.1719C20.1079 11.1719 18.4749 12.8162 18.4749 14.8348C18.4749 15.1183 18.5089 15.4018 18.5656 15.6739C15.5264 15.5151 12.8161 14.0636 11.013 11.8409C10.6955 12.3853 10.5141 13.009 10.5141 13.6894C10.5141 14.9595 11.1604 16.0822 12.147 16.7399C11.546 16.7172 10.979 16.5471 10.4914 16.275V16.3203C10.4914 18.1007 11.7502 19.5749 13.4285 19.9152C13.1223 19.9945 12.7935 20.0399 12.4646 20.0399C12.2264 20.0399 11.9996 20.0172 11.7728 19.9832C12.2378 21.4348 13.5873 22.4894 15.1976 22.5234C13.9388 23.51 12.3625 24.0884 10.6502 24.0884C10.344 24.0884 10.0605 24.077 9.76562 24.043C11.3873 25.0863 13.3151 25.6873 15.3904 25.6873C22.1265 25.6873 25.812 20.1079 25.812 15.2657C25.812 15.1069 25.812 14.9481 25.8007 14.7894C26.5151 14.2677 27.1389 13.6213 27.6377 12.8956C26.98 13.1791 26.2656 13.3832 25.5285 13.4626C26.2882 13.009 26.8666 12.2946 27.1388 11.444C26.4357 11.8636 25.6418 12.1698 24.814 12.3286C24.1449 11.6141 23.1924 11.1719 22.1377 11.1719Z" fill="#00506E"/>
</svg>
