<svg width="24" height="24" viewBox="0 0 24 24" fill="none" xmlns="http://www.w3.org/2000/svg">
<path fill-rule="evenodd" clip-rule="evenodd" d="M6.64108 22.3073C8.31384 23.1556 10.0975 23.5479 11.8812 23.5661C12.7869 23.5661 13.5909 23.4931 14.3857 23.3289C20.9474 21.9516 25.0415 15.6758 23.609 9.19026C22.1858 2.74119 15.393 -1.32711 8.94228 0.396903C1.45644 2.39456 -2.16634 10.5859 1.45644 17.3451C1.58582 17.5823 1.60431 17.7921 1.53037 18.0475C1.18386 19.2699 0.846251 20.4966 0.508275 21.7248C0.359496 22.2654 0.210645 22.8063 0.0609311 23.3472C-0.0499703 23.7485 -0.0407285 23.7577 0.356668 23.6573C0.853097 23.5293 1.34885 23.4019 1.84412 23.2747C3.18365 22.9305 4.51959 22.5873 5.85553 22.2343C6.14202 22.1522 6.38231 22.1705 6.64108 22.3073ZM2.87159 20.9065C2.86813 20.9052 2.86466 20.9039 2.86119 20.9026C2.99982 20.109 3.22162 19.3245 3.48963 18.5583C3.76688 17.7738 3.67447 17.1444 3.25859 16.3964C-0.00376144 10.5038 3.70219 3.16079 10.421 2.11179C15.9013 1.26347 21.0305 4.97601 21.8068 10.3578C22.2565 13.4969 21.1657 16.4981 19.093 18.6058C17.6283 20.0979 15.6725 21.1445 13.4249 21.4771C11.0959 21.8237 8.90565 21.3768 6.8817 20.1909C6.64141 20.0541 6.43809 20.0268 6.17932 20.0997C5.50653 20.2831 4.8293 20.4578 4.15071 20.6327C3.85054 20.7101 3.55011 20.7876 3.24968 20.8659C3.22135 20.8724 3.19251 20.8809 3.16328 20.8895C3.06853 20.9173 2.96965 20.9464 2.87077 20.9116C2.87104 20.9099 2.87132 20.9082 2.87159 20.9065Z" fill="white"/>
<path d="M15.0872 17.4287C14.0059 17.4378 13.0447 17 12.0928 16.5804C10.1521 15.7138 8.70109 14.2726 7.43497 12.6215C6.76956 11.755 6.15961 10.8519 5.97477 9.7482C5.77145 8.55325 6.1134 7.51337 7.00985 6.66505C7.48118 6.22721 8.04493 6.31842 8.59943 6.40052C8.77503 6.42788 8.87669 6.6012 8.94138 6.76539C9.27408 7.54986 9.60679 8.33433 9.93949 9.10968C10.0227 9.29211 9.9857 9.46542 9.89328 9.63874C9.71769 9.99448 9.44044 10.2864 9.17243 10.5783C8.96911 10.7972 8.95986 10.9979 9.10773 11.2442C10.0874 12.8496 11.4367 14.0172 13.2111 14.7104C13.4606 14.8108 13.6454 14.756 13.8026 14.5554C14.0983 14.1905 14.4033 13.8347 14.6898 13.4607C14.8654 13.2236 15.0687 13.1597 15.3367 13.2874C16.1592 13.6705 16.9817 14.0628 17.795 14.4459C18.0076 14.5462 18.0076 14.7195 18.0168 14.9111C18.0723 16.5348 16.6583 17.301 15.4568 17.4287C15.3367 17.4469 15.2073 17.4287 15.0872 17.4287Z" fill="white"/>
</svg>
