<svg width="22" height="22" viewBox="0 0 22 22" fill="none" xmlns="http://www.w3.org/2000/svg">
<path d="M10.9392 21.8658C9.29691 21.8489 7.65467 21.4849 6.11453 20.6978C5.87628 20.5708 5.65505 20.5539 5.39126 20.6301C3.70648 21.0787 2.02169 21.5103 0.328389 21.9504C-0.0374993 22.0435 -0.0460083 22.035 0.0561001 21.6627C0.507079 20.0207 0.949549 18.3788 1.40904 16.7453C1.47711 16.5083 1.46009 16.3137 1.34096 16.0936C-1.99458 9.82209 1.34096 2.22179 8.23328 0.368266C14.1726 -1.23135 20.4267 2.54341 21.7371 8.52716C23.056 14.5448 19.2865 20.3677 13.2451 21.6457C12.5133 21.7981 11.773 21.8658 10.9392 21.8658ZM2.63434 19.3944C2.76197 19.4452 2.8811 19.3859 3.00023 19.3521C3.90218 19.1151 4.80414 18.8866 5.69759 18.6412C5.93584 18.5734 6.12304 18.5988 6.34428 18.7258C8.20776 19.8261 10.2244 20.2408 12.3687 19.9192C17.3635 19.1744 20.7841 14.5786 20.0779 9.6105C19.3631 4.61699 14.6406 1.17231 9.59473 1.95942C3.40866 2.93273 -0.00346321 9.74592 3.00023 15.2134C3.38313 15.9074 3.46822 16.4914 3.21295 17.2193C2.96619 17.9302 2.76197 18.6581 2.63434 19.3944C2.63434 19.4029 2.63434 19.4113 2.62583 19.4113C2.62583 19.4113 2.62583 19.4029 2.63434 19.3944Z" fill="#00D35B"/>
<path d="M14.3353 15.9927C13.3524 16.0009 12.4786 15.6066 11.6133 15.2288C9.84903 14.4484 8.53003 13.1506 7.37904 11.6638C6.77415 10.8834 6.21966 10.0702 6.05164 9.0763C5.86681 8.00024 6.17765 7.06381 6.99258 6.29989C7.42105 5.9056 7.93353 5.98775 8.43761 6.06167C8.59724 6.08632 8.68965 6.24239 8.74846 6.39024C9.05091 7.09667 9.35336 7.80309 9.6558 8.50131C9.73142 8.66559 9.69781 8.82166 9.6138 8.97773C9.45417 9.29809 9.20213 9.56094 8.95849 9.8238C8.77366 10.0209 8.76526 10.2017 8.89968 10.4234C9.79023 11.8691 11.0168 12.9206 12.6299 13.5449C12.8567 13.6352 13.0247 13.5859 13.1676 13.4052C13.4364 13.0766 13.7136 12.7563 13.9741 12.4195C14.1337 12.2059 14.3185 12.1484 14.5622 12.2634C15.3099 12.6084 16.0576 12.9616 16.7969 13.3066C16.9902 13.397 16.9902 13.5531 16.9986 13.7256C17.049 15.1877 15.7636 15.8777 14.6714 15.9927C14.5622 16.0091 14.4446 15.9927 14.3353 15.9927Z" fill="#00D35B"/>
</svg>
