<svg width="30" height="31" viewBox="0 0 30 31" fill="none" xmlns="http://www.w3.org/2000/svg">
<circle cx="15" cy="15.7803" r="15" fill="#F34F36"/>
<path d="M12.1439 22.3447C11.7172 22.3447 11.3906 22.2314 11.1639 22.0047C10.9372 21.7781 10.8239 21.4647 10.8239 21.0647C10.8239 20.6514 10.9372 20.3381 11.1639 20.1247C11.3906 19.9114 11.7172 19.8047 12.1439 19.8047H14.1639V10.7847H15.6239L12.7039 12.5647C12.3972 12.7514 12.1106 12.8247 11.8439 12.7847C11.5906 12.7447 11.3706 12.6314 11.1839 12.4447C10.9972 12.2581 10.8706 12.0381 10.8039 11.7847C10.7506 11.5181 10.7772 11.2581 10.8839 11.0047C10.9906 10.7381 11.1906 10.5114 11.4839 10.3247L14.2639 8.64473C14.5439 8.47139 14.8239 8.33139 15.1039 8.22473C15.3972 8.11806 15.6839 8.06473 15.9639 8.06473C16.3639 8.06473 16.6772 8.17139 16.9039 8.38473C17.1439 8.58473 17.2639 8.89806 17.2639 9.32473V19.8047H19.0839C19.4972 19.8047 19.8172 19.9114 20.0439 20.1247C20.2706 20.3381 20.3839 20.6514 20.3839 21.0647C20.3839 21.4781 20.2706 21.7981 20.0439 22.0247C19.8172 22.2381 19.4972 22.3447 19.0839 22.3447H12.1439Z" fill="white"/>
</svg>
