<svg width="30" height="31" viewBox="0 0 30 31" fill="none" xmlns="http://www.w3.org/2000/svg">
<circle cx="15" cy="15.7803" r="15" fill="#F34F36"/>
<path d="M11.7639 22.3447C11.2706 22.3447 10.9039 22.2314 10.6639 22.0047C10.4372 21.7647 10.3239 21.4181 10.3239 20.9647C10.3239 20.6714 10.3972 20.3981 10.5439 20.1447C10.6906 19.8914 10.8906 19.6314 11.1439 19.3647L14.9039 15.4047C15.4639 14.8047 15.8639 14.2714 16.1039 13.8047C16.3572 13.3381 16.4839 12.8714 16.4839 12.4047C16.4839 11.8181 16.2906 11.3714 15.9039 11.0647C15.5306 10.7581 14.9839 10.6047 14.2639 10.6047C13.8772 10.6047 13.4772 10.6647 13.0639 10.7847C12.6639 10.8914 12.2439 11.0714 11.8039 11.3247C11.5106 11.4847 11.2372 11.5447 10.9839 11.5047C10.7439 11.4514 10.5372 11.3381 10.3639 11.1647C10.1906 10.9781 10.0772 10.7581 10.0239 10.5047C9.97057 10.2514 9.99724 9.99806 10.1039 9.74473C10.2106 9.49139 10.4106 9.27806 10.7039 9.10473C11.2906 8.74473 11.9306 8.47806 12.6239 8.30473C13.3172 8.11806 14.0039 8.02473 14.6839 8.02473C15.7372 8.02473 16.6239 8.18473 17.3439 8.50473C18.0639 8.81139 18.6106 9.26473 18.9839 9.86473C19.3572 10.4647 19.5439 11.1981 19.5439 12.0647C19.5439 12.6247 19.4572 13.1714 19.2839 13.7047C19.1106 14.2381 18.8372 14.7781 18.4639 15.3247C18.1039 15.8581 17.6239 16.4314 17.0239 17.0447L13.5239 20.6047V19.8047H18.9439C19.3706 19.8047 19.6906 19.9114 19.9039 20.1247C20.1306 20.3381 20.2439 20.6514 20.2439 21.0647C20.2439 21.4781 20.1306 21.7981 19.9039 22.0247C19.6906 22.2381 19.3706 22.3447 18.9439 22.3447H11.7639Z" fill="white"/>
</svg>
