<svg width="30" height="31" viewBox="0 0 30 31" fill="none" xmlns="http://www.w3.org/2000/svg">
<circle cx="15" cy="15.7803" r="15" fill="#F34F36"/>
<path d="M14.6639 22.5647C13.9572 22.5647 13.2372 22.4847 12.5039 22.3247C11.7839 22.1514 11.1572 21.9114 10.6239 21.6047C10.2772 21.4181 10.0372 21.1981 9.90391 20.9447C9.78391 20.6781 9.73724 20.4181 9.76391 20.1647C9.80391 19.9114 9.91057 19.6914 10.0839 19.5047C10.2572 19.3047 10.4772 19.1781 10.7439 19.1247C11.0239 19.0714 11.3306 19.1247 11.6639 19.2847C12.1839 19.5381 12.6772 19.7181 13.1439 19.8247C13.6106 19.9314 14.0772 19.9847 14.5439 19.9847C15.0772 19.9847 15.5239 19.9181 15.8839 19.7847C16.2439 19.6381 16.5172 19.4314 16.7039 19.1647C16.8906 18.8981 16.9839 18.5647 16.9839 18.1647C16.9839 17.6047 16.7906 17.1847 16.4039 16.9047C16.0172 16.6247 15.4506 16.4847 14.7039 16.4847H13.5239C13.0839 16.4847 12.7439 16.3781 12.5039 16.1647C12.2772 15.9381 12.1639 15.6314 12.1639 15.2447C12.1639 14.8447 12.2772 14.5381 12.5039 14.3247C12.7439 14.0981 13.0839 13.9847 13.5239 13.9847H14.4039C14.8572 13.9847 15.2372 13.9181 15.5439 13.7847C15.8639 13.6381 16.1106 13.4381 16.2839 13.1847C16.4706 12.9314 16.5639 12.6181 16.5639 12.2447C16.5639 11.7114 16.3772 11.3047 16.0039 11.0247C15.6439 10.7447 15.1172 10.6047 14.4239 10.6047C13.9972 10.6047 13.5772 10.6581 13.1639 10.7647C12.7506 10.8581 12.3039 11.0314 11.8239 11.2847C11.5306 11.4314 11.2572 11.4781 11.0039 11.4247C10.7506 11.3714 10.5372 11.2514 10.3639 11.0647C10.2039 10.8781 10.0972 10.6647 10.0439 10.4247C10.0039 10.1714 10.0372 9.91806 10.1439 9.66473C10.2639 9.41139 10.4772 9.20473 10.7839 9.04473C11.3572 8.71139 11.9772 8.45806 12.6439 8.28473C13.3239 8.11139 14.0106 8.02473 14.7039 8.02473C15.7172 8.02473 16.5839 8.17806 17.3039 8.48473C18.0239 8.79139 18.5772 9.23139 18.9639 9.80473C19.3506 10.3647 19.5439 11.0447 19.5439 11.8447C19.5439 12.3914 19.4372 12.8914 19.2239 13.3447C19.0106 13.7981 18.7106 14.1847 18.3239 14.5047C17.9506 14.8114 17.4906 15.0314 16.9439 15.1647V14.9047C17.8906 15.0647 18.6306 15.4581 19.1639 16.0847C19.6972 16.7114 19.9639 17.4981 19.9639 18.4447C19.9639 19.2847 19.7506 20.0181 19.3239 20.6447C18.8972 21.2581 18.2839 21.7314 17.4839 22.0647C16.6972 22.3981 15.7572 22.5647 14.6639 22.5647Z" fill="white"/>
</svg>
