<svg width="30" height="31" viewBox="0 0 30 31" fill="none" xmlns="http://www.w3.org/2000/svg">
<circle cx="15" cy="15.7803" r="15" fill="#F34F36"/>
<path d="M17.2039 22.5247C16.7239 22.5247 16.3439 22.3914 16.0639 22.1247C15.7972 21.8581 15.6639 21.4714 15.6639 20.9647V19.8247H11.1839C10.6906 19.8247 10.2972 19.7181 10.0039 19.5047C9.71057 19.2781 9.56391 18.9381 9.56391 18.4847C9.56391 18.2181 9.62391 17.9447 9.74391 17.6647C9.86391 17.3847 10.0772 17.0381 10.3839 16.6247L15.5639 9.08473C15.7906 8.75139 16.0439 8.49806 16.3239 8.32473C16.6039 8.15139 16.9239 8.06473 17.2839 8.06473C17.7106 8.06473 18.0506 8.19806 18.3039 8.46473C18.5706 8.71806 18.7039 9.10473 18.7039 9.62473V17.3847H19.4439C19.8839 17.3847 20.2172 17.4914 20.4439 17.7047C20.6706 17.9047 20.7839 18.2047 20.7839 18.6047C20.7839 18.9914 20.6706 19.2914 20.4439 19.5047C20.2306 19.7181 19.8972 19.8247 19.4439 19.8247H18.7039V20.9647C18.7039 21.4714 18.5706 21.8581 18.3039 22.1247C18.0506 22.3914 17.6839 22.5247 17.2039 22.5247ZM15.6639 17.3847V11.8847H16.2439L11.9839 18.1447V17.3847H15.6639Z" fill="white"/>
</svg>
