<svg width="30" height="31" viewBox="0 0 30 31" fill="none" xmlns="http://www.w3.org/2000/svg">
<circle cx="15" cy="15.7803" r="15" fill="#F34F36"/>
<path d="M15.0239 22.5647C14.3439 22.5647 13.6439 22.4781 12.9239 22.3047C12.2039 22.1314 11.5439 21.8714 10.9439 21.5247C10.6372 21.3514 10.4239 21.1381 10.3039 20.8847C10.1972 20.6314 10.1639 20.3714 10.2039 20.1047C10.2572 19.8381 10.3639 19.6114 10.5239 19.4247C10.6972 19.2247 10.9106 19.0981 11.1639 19.0447C11.4306 18.9914 11.7239 19.0514 12.0439 19.2247C12.5106 19.4647 12.9839 19.6514 13.4639 19.7847C13.9572 19.9181 14.4572 19.9847 14.9639 19.9847C15.4706 19.9847 15.9039 19.8981 16.2639 19.7247C16.6239 19.5514 16.8972 19.3114 17.0839 19.0047C17.2706 18.6981 17.3639 18.3381 17.3639 17.9247C17.3639 17.2847 17.1572 16.7714 16.7439 16.3847C16.3439 15.9981 15.7972 15.8047 15.1039 15.8047C14.7572 15.8047 14.4039 15.8647 14.0439 15.9847C13.6972 16.0914 13.3372 16.2847 12.9639 16.5647C12.8306 16.6714 12.6572 16.7714 12.4439 16.8647C12.2306 16.9581 12.0039 17.0047 11.7639 17.0047C11.3506 17.0047 11.0439 16.9114 10.8439 16.7247C10.6439 16.5247 10.5439 16.2381 10.5439 15.8647V9.58473C10.5439 9.14473 10.6572 8.81139 10.8839 8.58473C11.1239 8.35806 11.4572 8.24473 11.8839 8.24473H18.3039C18.7439 8.24473 19.0772 8.35806 19.3039 8.58473C19.5306 8.79806 19.6439 9.11139 19.6439 9.52473C19.6439 9.92473 19.5306 10.2381 19.3039 10.4647C19.0772 10.6781 18.7439 10.7847 18.3039 10.7847H13.5239V14.6047H12.7639C13.0972 14.1914 13.5372 13.8714 14.0839 13.6447C14.6306 13.4181 15.2306 13.3047 15.8839 13.3047C16.7772 13.3047 17.5572 13.4981 18.2239 13.8847C18.8906 14.2581 19.4106 14.7847 19.7839 15.4647C20.1572 16.1447 20.3439 16.9314 20.3439 17.8247C20.3439 18.7581 20.1306 19.5847 19.7039 20.3047C19.2772 21.0114 18.6639 21.5647 17.8639 21.9647C17.0639 22.3647 16.1172 22.5647 15.0239 22.5647Z" fill="white"/>
</svg>
