<svg width="30" height="31" viewBox="0 0 30 31" fill="none" xmlns="http://www.w3.org/2000/svg">
<circle cx="15" cy="15.7803" r="15" fill="#F34F36"/>
<path d="M15.5439 22.5647C14.3439 22.5647 13.3239 22.2847 12.4839 21.7247C11.6439 21.1647 11.0039 20.3581 10.5639 19.3047C10.1239 18.2514 9.90391 16.9781 9.90391 15.4847C9.90391 14.2981 10.0439 13.2447 10.3239 12.3247C10.6172 11.4047 11.0306 10.6247 11.5639 9.98473C12.0972 9.34473 12.7506 8.85806 13.5239 8.52473C14.3106 8.19139 15.1906 8.02473 16.1639 8.02473C16.7372 8.02473 17.3172 8.10473 17.9039 8.26473C18.4906 8.42473 19.0372 8.66473 19.5439 8.98473C19.8106 9.11806 19.9906 9.31139 20.0839 9.56473C20.1906 9.80473 20.2239 10.0514 20.1839 10.3047C20.1439 10.5581 20.0439 10.7847 19.8839 10.9847C19.7239 11.1714 19.5172 11.2981 19.2639 11.3647C19.0239 11.4181 18.7439 11.3714 18.4239 11.2247C18.0106 10.9981 17.6106 10.8381 17.2239 10.7447C16.8506 10.6514 16.4839 10.6047 16.1239 10.6047C15.4172 10.6047 14.8172 10.7647 14.3239 11.0847C13.8306 11.4047 13.4572 11.8847 13.2039 12.5247C12.9639 13.1647 12.8439 13.9581 12.8439 14.9047V16.2047H12.5639C12.6839 15.5647 12.9039 15.0247 13.2239 14.5847C13.5572 14.1314 13.9772 13.7847 14.4839 13.5447C14.9906 13.3047 15.5506 13.1847 16.1639 13.1847C16.9639 13.1847 17.6706 13.3847 18.2839 13.7847C18.9106 14.1714 19.4039 14.7114 19.7639 15.4047C20.1239 16.0847 20.3039 16.8647 20.3039 17.7447C20.3039 18.6781 20.1039 19.5114 19.7039 20.2447C19.3039 20.9647 18.7439 21.5314 18.0239 21.9447C17.3172 22.3581 16.4906 22.5647 15.5439 22.5647ZM15.3839 20.1447C15.7972 20.1447 16.1572 20.0514 16.4639 19.8647C16.7839 19.6781 17.0239 19.4114 17.1839 19.0647C17.3572 18.7181 17.4439 18.3181 17.4439 17.8647C17.4439 17.4114 17.3572 17.0181 17.1839 16.6847C17.0239 16.3381 16.7839 16.0714 16.4639 15.8847C16.1572 15.6847 15.7972 15.5847 15.3839 15.5847C14.9706 15.5847 14.6039 15.6847 14.2839 15.8847C13.9772 16.0714 13.7372 16.3381 13.5639 16.6847C13.3906 17.0181 13.3039 17.4114 13.3039 17.8647C13.3039 18.3181 13.3906 18.7181 13.5639 19.0647C13.7372 19.4114 13.9772 19.6781 14.2839 19.8647C14.6039 20.0514 14.9706 20.1447 15.3839 20.1447Z" fill="white"/>
</svg>
