<svg width="30" height="31" viewBox="0 0 30 31" fill="none" xmlns="http://www.w3.org/2000/svg">
<circle cx="15" cy="15.7803" r="15" fill="#F34F36"/>
<path d="M12.5039 22.5247C12.1172 22.5247 11.8039 22.4381 11.5639 22.2647C11.3239 22.0781 11.1839 21.8381 11.1439 21.5447C11.1039 21.2514 11.1839 20.9247 11.3839 20.5647L17.1639 9.84473V10.8047H11.1239C10.6839 10.8047 10.3506 10.6981 10.1239 10.4847C9.89724 10.2581 9.78391 9.93806 9.78391 9.52473C9.78391 9.11139 9.89724 8.79806 10.1239 8.58473C10.3506 8.35806 10.6839 8.24473 11.1239 8.24473H18.7439C19.1706 8.24473 19.5172 8.35806 19.7839 8.58473C20.0639 8.81139 20.2039 9.13139 20.2039 9.54473C20.2039 9.90473 20.1506 10.2181 20.0439 10.4847C19.9506 10.7514 19.8239 11.0381 19.6639 11.3447L14.2639 21.5247C14.0772 21.8714 13.8439 22.1247 13.5639 22.2847C13.2839 22.4447 12.9306 22.5247 12.5039 22.5247Z" fill="white"/>
</svg>
