<svg width="82" height="143" viewBox="0 0 82 143" fill="none" xmlns="http://www.w3.org/2000/svg">
<path d="M34.7419 123.069L29.0068 124.69C29.0068 124.69 21.2952 115.998 16.9894 104.421C12.6836 92.8439 19.6717 74.3916 30.9656 69.6895C42.2594 64.9873 61.9707 64.0789 65.2001 78.0073C68.4294 91.9356 53.2003 117.993 34.7419 123.069Z" fill="#FAC9AC"/>
<g opacity="0.38">
<path opacity="0.38" d="M34.7419 123.069L29.0068 124.69C29.0068 124.69 21.2952 115.998 16.9894 104.421C12.6836 92.8439 19.6717 74.3916 30.9656 69.6895C42.2594 64.9873 61.9707 64.0789 65.2001 78.0073C68.4294 91.9356 53.2003 117.993 34.7419 123.069Z" fill="#EB462F"/>
</g>
<path d="M61.3001 104.599L25.9891 107.663C21.7363 108.037 17.9952 104.866 17.6423 100.592L10.0013 11.5003C9.64833 7.22567 12.7894 3.46752 17.0423 3.09349L52.3532 0.0299718C56.6061 -0.344062 60.3472 2.82632 60.7001 7.10099L68.3235 96.1923C68.694 100.467 65.5529 104.243 61.3001 104.599Z" fill="#E3DEE0"/>
<path d="M52.5828 3.09354L45.7359 3.68131C44.8183 3.75255 44.1477 4.60748 44.2183 5.56929L44.3241 6.81607C44.4124 7.77787 43.7242 8.6328 42.8065 8.70405L29.4657 9.86177C28.548 9.93302 27.7363 9.22057 27.6481 8.25877L27.5422 7.01199C27.4539 6.05019 26.6422 5.31993 25.7246 5.40899L23.3246 5.62272L17.3248 6.13924C14.3601 6.42422 12.1543 9.06027 12.4013 12.0525L19.8482 99.0243C20.1129 102.017 22.7246 104.243 25.6893 103.976L60.9297 100.912C63.9119 100.645 66.1178 98.0091 65.8531 95.0168L58.4238 8.04503C58.1591 5.05276 55.5474 2.84418 52.5828 3.09354Z" fill="#36768A"/>
<path d="M16.8128 90.9025C16.8128 90.9025 8.9424 94.1263 10.0188 100.271C11.0953 106.416 14.854 109.141 18.8069 110.032C22.7421 110.94 25.795 107.128 25.0891 104.777C24.3832 102.426 20.2539 98.4366 19.001 97.7241C17.7481 96.9939 17.5716 96.6911 17.5716 96.6911L16.8128 90.9025Z" fill="#FAC9AC"/>
<g opacity="0.38">
<path opacity="0.38" d="M14.5717 97.9201C16.1069 97.3145 17.6069 97.3323 19.001 97.7598C18.9833 97.7598 18.9657 97.7419 18.9657 97.7419C17.7128 97.0117 17.5363 96.7089 17.5363 96.7089L16.8128 90.9025C16.8128 90.9025 8.9424 94.1263 10.0188 100.271C10.16 101.108 10.3541 101.874 10.6012 102.587C11.0423 100.485 12.4717 98.7572 14.5717 97.9201Z" fill="#EB462F"/>
</g>
<path d="M19.6892 108.945C19.6892 108.945 18.9657 106.95 21.295 104.599C21.295 104.599 16.9892 101.162 15.3834 103.513C13.7776 105.864 16.9892 108.411 19.6892 108.945Z" fill="white"/>
<path d="M14.0071 57.1325C14.0071 57.1325 2.55438 54.639 0.772071 61.2825C-1.01024 67.9261 15.1364 70.4196 15.1364 70.4196L14.0071 57.1325Z" fill="#FAC9AC"/>
<g opacity="0.38">
<path opacity="0.38" d="M14.007 57.1327C14.007 57.1327 13.4776 57.0258 12.6482 56.9011C13.7423 59.9468 13.3365 63.6337 12.2424 66.626C11.8189 67.6947 11.1483 68.5852 10.3365 69.3333C12.9835 70.0814 15.1364 70.402 15.1364 70.402L14.007 57.1327Z" fill="#EB462F"/>
</g>
<path d="M13.4953 53.214C13.4953 53.214 3.73665 47.1938 4.44252 41.0134C5.14838 34.8329 12.2953 39.072 12.2953 39.072L13.4953 53.214Z" fill="#FAC9AC"/>
<g opacity="0.38">
<path opacity="0.38" d="M12.9482 46.713C12.4541 48.2982 11.713 49.7765 10.5836 51.0767C12.2071 52.3948 13.5129 53.1963 13.5129 53.1963L12.9482 46.713Z" fill="#EB462F"/>
</g>
<path d="M15.2247 72.5212C15.2247 72.5212 6.41898 75.1217 6.77191 81.8186C7.12485 88.5156 13.4071 92.1313 15.1894 92.6656C16.9893 93.2 19.1246 93.2 21.2775 89.7624C23.4304 86.3249 21.3128 82.9942 19.4952 81.409C17.6952 79.8238 15.6835 78.1674 15.6835 78.1674L15.2247 72.5212Z" fill="#FAC9AC"/>
<g opacity="0.38">
<path opacity="0.38" d="M8.48358 78.9156C10.5482 77.1879 13.2658 76.7782 15.6658 77.6153L15.2246 72.5035C15.2246 72.5035 6.82479 74.9971 6.77185 81.3379C7.14243 80.4117 7.74242 79.5746 8.48358 78.9156Z" fill="#EB462F"/>
</g>
<path d="M20.3952 85.6126C20.3952 85.6126 16.6364 86.1469 15.7365 90.1366C15.7365 90.1366 11.2542 87.7856 11.2542 85.6126C11.2542 83.4396 13.0542 78.5594 20.3952 85.6126Z" fill="white"/>
<path d="M79.1056 104.332C80.7115 97.4569 79.1056 74.4805 74.4469 62.9033C69.7882 51.326 65.3059 52.4125 62.8001 54.9417C60.2943 57.4709 61.1943 63.6335 62.8001 69.9565C64.406 76.2972 64.053 85.7015 62.6236 87.3223C61.1943 88.9431 46.8475 95.2839 45.2417 110.655C45.2417 110.655 30.0126 108.838 28.9362 124.583C28.9362 124.583 39.7006 135.127 44.5711 143C57.7002 138.957 70.247 133.222 81.5056 125.242C80.2174 123.105 79.3527 121.68 79.1233 121.324C77.6762 119.169 77.4821 111.207 79.1056 104.332Z" fill="#FAC9AC"/>
<path d="M71.6587 62.6362C71.6587 62.6362 72.4351 61.0867 73.688 61.1401C71.6057 56.5626 69.594 54.3897 67.7941 53.6238C67.2294 53.7663 66.6647 54.2115 67.1764 55.583C68.0764 57.9341 71.6587 62.6362 71.6587 62.6362Z" fill="white"/>
<path opacity="0.3" d="M51.8591 136.82C55.4414 134.112 60.2766 123.8 60.2766 123.8C49.3356 135.555 35.3595 129.41 35.3595 129.41C35.3595 129.41 39.1182 133.578 42.524 136.642C43.5299 137.55 44.8534 139.794 46.2298 142.501C47.6768 142.038 49.1062 141.557 50.5356 141.059C50.6238 139.028 50.9944 137.461 51.8591 136.82Z" fill="#EB462F"/>
<path d="M38.6946 86.0043L25.2126 71.8267L30.6478 66.5546L37.6711 73.9462L50.9061 54.2292L57.153 58.5039L38.6946 86.0043Z" fill="#B8E6EA"/>
<path d="M37.9889 51.0055C46.5264 51.0055 53.4474 44.02 53.4474 35.403C53.4474 26.7859 46.5264 19.8004 37.9889 19.8004C29.4514 19.8004 22.5304 26.7859 22.5304 35.403C22.5304 44.02 29.4514 51.0055 37.9889 51.0055Z" fill="#B8E6EA"/>
<path d="M51.065 43.7386C48.4533 42.6521 44.6946 41.8862 39.3477 42.3137C32.9066 42.8124 29.2891 44.7182 27.2773 46.6418C30.3832 49.6519 34.7066 51.3617 39.3477 50.9521C44.324 50.5068 48.5592 47.7104 51.065 43.7386Z" fill="#100523"/>
<path d="M30.895 27.8509C30.895 27.8509 28.5303 27.0851 28.548 29.2402C28.5656 31.3954 31.1244 30.5404 31.1244 30.5404L30.895 27.8509Z" fill="#F57B6B"/>
<path d="M35.7124 43.0795L35.4301 39.8201C35.4301 39.8201 30.8773 40.3901 30.489 34.3521C30.1008 28.3141 29.5714 20.8512 30.0832 19.8894C30.5773 18.9098 42.3299 16.1669 42.6299 20.6375C42.9299 25.1259 43.4593 30.2199 43.4593 30.2199C43.4593 30.2199 43.6887 34.8864 42.1535 36.8635L42.5417 42.8124C42.5417 42.8124 41.9947 45.7334 38.8888 45.9115C35.7654 46.1074 35.7124 43.0795 35.7124 43.0795Z" fill="#FAC9AC"/>
<path d="M41.6946 36.7567C38.43 37.4513 35.1301 37.9679 31.7772 38.2707C33.2419 40.0874 35.4124 39.8202 35.4124 39.8202L35.6595 42.6344C38.2359 41.9398 40.2652 39.3037 41.6946 36.7567Z" fill="#F57B6B"/>
<path d="M42.7358 26.7288C42.8946 26.6754 45.8593 25.5711 46.1769 26.9247C46.4946 28.2784 46.1416 30.4692 42.9829 29.6498C39.8241 28.8483 42.7358 26.7288 42.7358 26.7288Z" fill="#FAC9AC"/>
<path d="M30.0303 26.9605C30.0303 26.8358 30.1714 21.9377 30.7714 20.5663C30.7714 20.5663 35.2007 21.4925 39.8418 19.7648C39.8418 19.7648 40.3535 22.8817 41.6594 23.8613C42.9653 24.841 43.3535 29.2225 43.3535 29.2225C43.3535 29.2225 44.324 25.7315 44.0241 23.3092C43.7241 20.8869 44.1299 15.882 38.2359 16.1491C38.2359 16.1491 35.1478 14.1899 33.1361 15.0448C31.1243 15.8998 32.2008 16.7369 32.2008 16.7369C32.2008 16.7369 30.5773 15.4901 29.1479 16.63C27.7362 17.7699 29.1832 19.4086 29.3773 19.2304C29.5538 19.0523 28.4244 19.9429 28.8479 21.3856C29.2362 22.8105 30.0303 26.9605 30.0303 26.9605Z" fill="#EB462F"/>
<path d="M37.2301 24.3437C37.2301 24.3437 38.3242 24.0376 39.2771 24.3257L37.2301 24.3437Z" fill="#FAC9AC"/>
<path d="M31.5833 24.7699C31.5833 24.7699 32.6421 24.3424 33.6126 24.5383L31.5833 24.7699Z" fill="#FAC9AC"/>
<path d="M43.1946 27.5482C43.177 27.6373 43.1593 27.7441 43.177 27.8688C43.2652 29.454 40.5652 33.9602 38.6771 32.9094C36.7889 31.8585 33.6125 32.8025 32.3419 32.9984C31.2831 33.1587 30.542 32.0544 30.3125 31.6626C30.3655 32.571 30.4361 33.4615 30.489 34.3343C30.8419 39.7845 34.6007 39.8557 35.3065 39.8201C35.3418 39.8201 35.3771 39.8201 35.4301 39.8023C39.9123 39.4461 42.1534 36.8456 42.1534 36.8456C43.6887 34.8508 43.4593 30.2021 43.4593 30.2021C43.4593 30.2021 43.3358 29.1334 43.1946 27.5482Z" fill="#A3969A"/>
<path d="M38.3419 30.8612C36.8595 30.9859 35.5537 29.8816 35.4125 28.3854C35.289 26.8893 36.3831 25.5713 37.8654 25.4288C39.3477 25.3041 40.6536 26.4084 40.7947 27.9045C40.9359 29.4007 39.8242 30.7365 38.3419 30.8612ZM37.9007 25.7316C36.5772 25.8563 35.589 27.0318 35.7125 28.3676C35.836 29.7035 37.0007 30.7009 38.3242 30.5762C39.6477 30.4515 40.6359 29.276 40.5124 27.9402C40.3889 26.6043 39.2242 25.6069 37.9007 25.7316Z" fill="#100523"/>
<path d="M32.5186 31.3778C31.0362 31.5025 29.7304 30.3982 29.5892 28.902C29.4657 27.4059 30.5598 26.0879 32.0421 25.9454C33.5244 25.8207 34.8303 26.925 34.9715 28.4211C35.095 29.9173 34.0009 31.2353 32.5186 31.3778ZM32.0774 26.2304C30.7539 26.355 29.7657 27.5306 29.8892 28.8664C30.0127 30.2022 31.1774 31.1997 32.5009 31.075C33.8244 30.9503 34.8126 29.7748 34.6891 28.4389C34.5656 27.1209 33.4009 26.1235 32.0774 26.2304Z" fill="#100523"/>
<path d="M35.589 27.5306C35.1126 27.21 34.6538 27.6019 34.6538 27.6019L34.4597 27.3882C34.6714 27.1922 35.2185 26.9429 35.7479 27.2991L35.589 27.5306Z" fill="#100523"/>
<path d="M38.0008 28.51C38.3309 28.4808 38.5695 28.1155 38.5337 27.694C38.4979 27.2726 38.2012 26.9546 37.8711 26.9838C37.541 27.013 37.3024 27.3783 37.3383 27.7998C37.3741 28.2212 37.6707 28.5392 38.0008 28.51Z" fill="#100523"/>
<path d="M33.1851 28.9902C33.5153 28.9613 33.7535 28.5962 33.7173 28.1748C33.6811 27.7534 33.3841 27.4352 33.054 27.4641C32.7239 27.493 32.4856 27.858 32.5218 28.2795C32.558 28.7009 32.855 29.0191 33.1851 28.9902Z" fill="#100523"/>
<path d="M36.2771 34.8865C34.5478 35.029 33.2596 34.3343 33.2419 34.3165C33.1713 34.2809 33.1537 34.1918 33.189 34.1206C33.2243 34.0493 33.3125 34.0315 33.3831 34.0672C33.4007 34.085 35.8007 35.3852 38.4124 33.9247C38.483 33.889 38.5712 33.9069 38.6065 33.9781C38.6418 34.0493 38.6241 34.1384 38.5536 34.174C37.7595 34.6371 36.983 34.833 36.2771 34.8865Z" fill="#100523"/>
<path d="M34.9889 28.7772L33.3477 31.9832L35.4653 31.8051L34.9889 28.7772Z" fill="#FAC9AC"/>
<path d="M35.3949 28.7415L34.4596 31.894L35.8537 31.7693L35.3949 28.7415Z" fill="#F57B6B"/>
</svg>
