<svg width="67" height="47" viewBox="0 0 67 47" fill="none" xmlns="http://www.w3.org/2000/svg">
<g filter="url(#filter0_d_5421_14474)">
<path d="M20.0049 42.6268H49.1249V17.3375L34.8925 4.75488L20.0049 18.7241V42.6268Z" fill="#BFD3E8"/>
<g style="mix-blend-mode:multiply" opacity="0.82">
<path d="M28.9993 35.0056H23.0711L22.0894 34.3528L23.0711 33.6165V23.8955H28.215L28.9993 24.733V35.0056Z" fill="#BDBBF1"/>
</g>
<path d="M31.9746 42.6268H61.0946V18.9164L46.8623 4.75488L31.9746 17.3375V42.6268Z" fill="#EAF0F7"/>
<path d="M48.2207 42.5938H57.8152V23.6907H48.2207V42.5938Z" fill="white"/>
<path d="M35.4018 33.2812H44.9963V23.6868H35.4018V33.2812Z" fill="white"/>
<path d="M40.6613 32.498H44.2112V24.4697H40.6613V32.498Z" fill="#507588"/>
<path d="M23.072 33.4912H28.2134V23.8967H23.072V33.4912Z" fill="white"/>
<path d="M23.8818 32.709H27.4316V24.6807H23.8818V32.709Z" fill="#507588"/>
<path d="M36.1379 32.498H39.832V24.4697H36.1379V32.498Z" fill="#507588"/>
<path d="M63.1984 23.6126H61.0933V21.5176L63.1984 23.6126Z" fill="#F25138"/>
<path d="M34.7553 34.1426H45.8198V33.2823H34.7553V34.1426Z" fill="white"/>
<path d="M22.0903 34.3506H28.2134V33.4903H22.0903V34.3506Z" fill="white"/>
<path d="M23.1587 27.3213H28.1255V26.461H23.1587V27.3213Z" fill="white"/>
<path d="M34.7553 35.0068H45.8198V34.1466H34.7553V35.0068Z" fill="#BFD3E8"/>
<path d="M48.2207 42.5938H57.8152V23.6907H48.2207V42.5938Z" fill="white"/>
<path d="M32.0151 45.1729L62.7747 45.1729V39.6596H32.0151V45.1729Z" fill="#BFD3E8"/>
<path d="M18.4139 45.1729H32.0137V39.6596H18.4139V45.1729Z" fill="#9EBFDD"/>
<path d="M48.216 45.1748H56.1709V41.0481H48.216V45.1748Z" fill="#BFD3E8"/>
<path d="M51.4841 42.4336H59.9856V41.047H51.4841V42.4336Z" fill="#DEE8F3"/>
<path d="M48.2154 41.0469H53.4731V39.6603H48.2154V41.0469Z" fill="#BFD3E8"/>
<path d="M49.9324 41.0469H58.4338V39.6603H49.9324V41.0469Z" fill="#DEE8F3"/>
<path d="M54.2732 45.1748H62.7747V43.7883H54.2732V45.1748Z" fill="#DEE8F3"/>
<path d="M52.72 43.7881H61.2214V42.4015H52.72V43.7881Z" fill="#DEE8F3"/>
<path d="M46.6726 39.6621L44.7041 45.1754H48.216V39.6621H46.6726Z" fill="#9EBFDD"/>
<path d="M49.009 39.6592H56.9968V24.4704H49.009V39.6592Z" fill="#DEE8F3"/>
<path d="M47.4207 39.662H48.2126V23.6914L47.4207 24.6934V39.662Z" fill="#BFD3E8"/>
<path d="M53.451 31.6328H56.1836V25.2314H53.451V31.6328Z" fill="#BFD3E8"/>
<path d="M53.4793 38.8623H56.2119V32.4609H53.4793V38.8623Z" fill="#BFD3E8"/>
<path d="M49.8323 31.6328H52.5649V25.2314H49.8323V31.6328Z" fill="#BFD3E8"/>
<path d="M49.8589 38.8623H52.5916V32.4609H49.8589V38.8623Z" fill="#BFD3E8"/>
<path d="M54.8304 32.2676H55.9867C56.1111 32.2676 56.2119 32.1668 56.2119 32.0424V32.0399C56.2119 31.9155 56.1111 31.8147 55.9867 31.8147H54.8304C54.7061 31.8147 54.6052 31.9155 54.6052 32.0399V32.0424C54.6052 32.1668 54.7061 32.2676 54.8304 32.2676Z" fill="#507588"/>
<path d="M46.5341 13.8906C47.7641 13.8906 48.9438 14.3793 49.8136 15.249C50.6833 16.1188 51.172 17.2984 51.172 18.5285H41.8887C41.8887 17.9188 42.0089 17.3151 42.2424 16.7519C42.476 16.1887 42.8183 15.6771 43.2497 15.2463C43.6812 14.8156 44.1934 14.4741 44.757 14.2415C45.3205 14.0089 45.9244 13.8896 46.5341 13.8906Z" fill="white"/>
<path d="M46.6011 14.5391C48.6835 14.5391 50.3737 16.08 50.3737 17.9776H42.8286C42.8286 16.08 44.5188 14.5391 46.6011 14.5391Z" fill="#507588"/>
<path d="M46.2547 18.0303H46.948V14.488H46.2547V18.0303Z" fill="white"/>
<path d="M41.8962 19.209H51.1719V18.5182H41.8962V19.209Z" fill="#BFD3E8"/>
<g style="mix-blend-mode:multiply" opacity="0.82">
<path d="M31.9752 21.3825V21.337L46.5441 7.03125L61.0952 21.5166V23.0196L46.5289 8.91372L31.9752 23.1537L30.4065 24.7325H20.0049V21.3825H31.9752Z" fill="#BDBBF1"/>
</g>
<path d="M27.8914 21.6256L46.5743 4.07617L64.8221 21.9824L63.2002 23.6118L46.544 7.03144L29.7738 23.4979L27.8914 21.6256Z" fill="#F25138"/>
<path d="M16.7195 21.6163L35.7491 3.9707L46.5758 4.07697L27.8928 21.6163H16.7195Z" fill="#F25138"/>
<path opacity="0.36" d="M16.7195 21.6163L35.7491 3.9707L46.5758 4.07697L27.8928 21.6163H16.7195Z" fill="#150D27"/>
<path d="M29.7753 23.4987L18.4552 23.4708L16.7195 21.6162H27.8928L29.7753 23.4987Z" fill="#F25138"/>
<g style="mix-blend-mode:multiply" opacity="0.39">
<path d="M31.8316 13.2234H29.056H25.7693L28.7321 10.4756H34.797L31.8316 13.2234Z" fill="#F25138"/>
</g>
<path d="M29.1922 3.21484L31.5225 3.21484V2.00035H29.1922V3.21484Z" fill="#F25138"/>
<path opacity="0.36" d="M29.1922 3.21484L31.5225 3.21484V2.00035H29.1922V3.21484Z" fill="#150D27"/>
<path d="M31.8313 13.2235L34.7967 10.4757V2.36133H31.8313V13.2235Z" fill="#EAF0F7"/>
<path d="M29.8035 3.21484V6.16505V8.10318V13.2243H31.8302V3.21484H29.8035Z" fill="#BFD3E8"/>
<path d="M31.5215 3.21484L35.375 3.21484V2.00035L31.5215 2.00035V3.21484Z" fill="#F25138"/>
<path d="M31.8307 3.70215L34.7986 3.70215V3.21129L31.8307 3.21129V3.70215Z" fill="#BFD3E8"/>
<g style="mix-blend-mode:multiply" opacity="0.82">
<path d="M29.8021 3.70215L31.8313 3.70215V3.21129H29.8021V3.70215Z" fill="#BDBBF1"/>
</g>
<g style="mix-blend-mode:multiply" opacity="0.39">
<path d="M29.7753 23.4987L18.4552 23.4708L16.7195 21.6162H27.8928L29.7753 23.4987Z" fill="#F25138"/>
</g>
<path opacity="0.53" d="M29.7753 23.4987L18.4552 23.4708L16.7195 21.6162H27.8928L29.7753 23.4987Z" fill="#150D27"/>
<g style="mix-blend-mode:multiply" opacity="0.39">
<path d="M63.1984 23.6126H61.0933V21.5176L63.1984 23.6126Z" fill="#F25138"/>
</g>
<path opacity="0.53" d="M63.1984 23.6126H61.0933V21.5176L63.1984 23.6126Z" fill="#150D27"/>
<path d="M10.7134 31.0232V31.0359L25.9781 20.2775L28.3337 13.9697L25.9983 10.6577L25.7908 10.349L25.5378 10.01L25.3177 9.69621L22.9975 6.38672L16.2647 6.4854L1 17.2438L6.46775 24.9938L10.7134 31.0232ZM22.8584 11.2877C22.9559 11.2182 23.0692 11.1741 23.1881 11.1595C23.3069 11.145 23.4276 11.1603 23.539 11.2042C23.3442 11.3586 23.539 11.6369 23.7718 11.4749L23.8426 11.4269C23.8525 11.4382 23.8618 11.45 23.8704 11.4623C23.8799 11.4746 23.8876 11.4883 23.8932 11.5028L23.8097 11.5635C23.5795 11.733 23.792 11.9936 24.002 11.8621C24.0061 11.9819 23.9803 12.1009 23.9268 12.2083C23.8734 12.3156 23.794 12.408 23.6958 12.4769C23.5382 12.588 23.3428 12.6318 23.1528 12.5988C22.9627 12.5659 22.7936 12.4587 22.6825 12.301C22.5714 12.1434 22.5276 11.948 22.5606 11.758C22.5935 11.5679 22.7007 11.3988 22.8584 11.2877Z" fill="#F34F36"/>
<path d="M22.1534 12.6574C22.3279 12.9054 22.5804 13.0879 22.8706 13.1758C23.1608 13.2638 23.4721 13.2522 23.7549 13.1428C24.0377 13.0334 24.2758 12.8325 24.4313 12.5721C24.5867 12.3118 24.6506 12.0069 24.6128 11.706C24.6047 11.6251 24.5877 11.5453 24.5622 11.4682C24.5243 11.3481 24.4698 11.234 24.4003 11.1291L24.3775 11.0937C24.369 11.0813 24.3597 11.0694 24.3496 11.0583C24.2739 10.9615 24.1844 10.8762 24.084 10.8053C24.0212 10.7552 23.9534 10.712 23.8816 10.6762C23.6125 10.5448 23.3077 10.5058 23.0142 10.5651C22.7208 10.6245 22.4551 10.7789 22.2583 11.0045C22.0615 11.2301 21.9445 11.5144 21.9256 11.8132C21.9066 12.112 21.9867 12.4087 22.1534 12.6574ZM22.8467 11.2809C22.9442 11.2114 23.0576 11.1673 23.1764 11.1528C23.2953 11.1382 23.4159 11.1535 23.5273 11.1974C23.3325 11.3518 23.5273 11.6301 23.7601 11.4682L23.831 11.4201C23.8408 11.4314 23.8501 11.4432 23.8588 11.4555C23.8683 11.4679 23.8759 11.4815 23.8816 11.496L23.7981 11.5567C23.5678 11.7262 23.7804 11.9869 23.9904 11.8553C23.9945 11.9751 23.9686 12.0941 23.9152 12.2015C23.8617 12.3088 23.7823 12.4012 23.6842 12.4701C23.5265 12.5812 23.3312 12.625 23.1411 12.5921C22.9511 12.5591 22.7819 12.452 22.6709 12.2943C22.5598 12.1366 22.5159 11.9412 22.5489 11.7512C22.5819 11.5611 22.689 11.392 22.8467 11.2809Z" fill="white"/>
<path d="M23.8011 11.5578C23.571 11.7272 23.7834 11.9878 23.9934 11.8562C23.9932 11.7284 23.9554 11.6035 23.8846 11.4971L23.8011 11.5578Z" fill="white"/>
<path d="M23.7601 11.4669L23.8309 11.4189C23.7519 11.3185 23.6469 11.2415 23.5274 11.1963C23.3327 11.3607 23.5224 11.6288 23.7601 11.4669Z" fill="white"/>
<path d="M29.8048 6.16406V6.5942C29.3843 6.79586 28.9837 7.03644 28.608 7.31277C27.4795 8.10725 26.4827 9.11933 25.5515 10.0175L25.2251 10.3338C25.1492 10.4097 25.0733 10.4806 24.9974 10.5514L24.9595 10.5868L24.9215 10.6197C24.8608 10.6754 24.7748 10.7437 24.6685 10.8171L24.4737 10.9664L24.4155 11.0069H24.3978L24.3446 11.0448C24.1321 11.1992 23.9272 11.3383 23.8259 11.4092L23.7551 11.4572C23.5173 11.6192 23.3275 11.3408 23.5223 11.1865C23.5223 11.1865 23.5223 11.1865 23.54 11.1713L23.7931 10.9866L23.8538 10.9461L23.9094 10.9031L23.9626 10.8652L24.0435 10.8019L24.0714 10.7817L24.0967 10.7614C24.1397 10.7285 24.1827 10.6956 24.2232 10.6602L24.4256 10.4932C24.4939 10.4376 24.5597 10.3794 24.6255 10.3212C24.6913 10.263 24.7697 10.1972 24.8406 10.1339C25 9.98972 25.1518 9.8455 25.3061 9.69621C26.0652 8.97511 26.761 8.21858 27.5833 7.53796C28.245 6.96343 28.9952 6.49949 29.8048 6.16406Z" fill="#29272B"/>
<path d="M31.305 6.72219C31.2985 6.81391 31.2789 6.90422 31.2468 6.99039C31.0596 7.49643 30.4878 8.0809 29.8046 8.58694C29.4807 8.82775 29.1427 9.04911 28.7926 9.24985C27.8766 9.78625 26.9303 10.1911 25.9942 10.6592C25.8019 10.7553 25.6121 10.854 25.4198 10.9552L25.2123 11.0741H25.1971H25.182C25.1212 11.107 25.0605 11.1399 25.0023 11.1779C24.9441 11.2158 24.8227 11.2841 24.7316 11.3373L24.595 11.4182L24.5671 11.4334L24.476 11.4941L24.2787 11.6282C24.1901 11.6864 24.1041 11.7472 24.0257 11.8104L24.0054 11.8231C23.7954 11.9546 23.5829 11.694 23.8131 11.5245L23.8966 11.4638C24.0054 11.3828 24.2053 11.2386 24.4027 11.0944L24.4533 11.0615L24.7392 10.8717L24.8783 10.7857C24.9214 10.7578 24.9593 10.7376 24.9922 10.7199L25.0377 10.6971L25.1035 10.6642L25.1744 10.6288L25.3591 10.5352L25.7917 10.3227C26.9607 9.75589 28.2637 9.17395 29.3846 8.38453C29.5187 8.29091 29.6629 8.18464 29.8046 8.07331C30.2056 7.78838 30.5419 7.42193 30.7914 6.99798C30.8245 6.93038 30.8459 6.85766 30.8547 6.78291C30.8547 6.78291 31.0419 6.45905 31.305 6.72219Z" fill="#29272B"/>
<path d="M24.8784 10.1636C24.9149 10.2201 24.9664 10.2654 25.0272 10.2944C25.0879 10.3235 25.1555 10.3351 25.2225 10.328L24.9163 10.6165C24.8024 10.7202 24.6026 10.8695 24.4103 11.0188C24.3923 10.9498 24.3509 10.8891 24.2933 10.8472C24.2356 10.8052 24.1652 10.7845 24.094 10.7885C24.3647 10.5785 24.6228 10.3584 24.8708 10.1357L24.8784 10.1636Z" fill="#161516"/>
<path d="M25.3575 10.5645C25.3336 10.6232 25.3252 10.6871 25.3332 10.7501C25.3412 10.813 25.3652 10.8728 25.403 10.9237C25.4118 10.9366 25.422 10.9485 25.4334 10.9592C25.1525 11.111 24.8767 11.2704 24.6009 11.445C24.6096 11.3784 24.6004 11.3106 24.5742 11.2488C24.5479 11.187 24.5056 11.1333 24.4517 11.0933C24.6541 10.9566 24.8565 10.8251 24.9906 10.7542L25.3575 10.5645Z" fill="#161516"/>
<path d="M24.3046 10.3337C24.4455 10.2924 24.5961 10.2985 24.7333 10.3511C24.8704 10.4036 24.9865 10.4998 25.0637 10.6247C25.1483 10.7389 25.194 10.8773 25.194 11.0194C25.194 11.1616 25.1483 11.2999 25.0637 11.4141C24.6639 11.8898 24.2717 11.6671 24.2717 11.6671C24.4412 11.5482 24.5905 11.4571 24.5905 11.4571C24.6993 11.4571 24.9498 11.2244 24.7145 10.8752C24.4792 10.526 24.1452 10.6728 24.1098 10.7765C24.1098 10.7765 23.9731 10.8853 23.8062 11.0068C23.8062 10.9992 23.7227 10.5513 24.3046 10.3337Z" fill="#29272B"/>
<path d="M24.6321 11.6996C24.5113 11.7278 24.3844 11.7135 24.2729 11.6591C24.4424 11.5402 24.5916 11.4492 24.5916 11.4492C24.6418 11.4437 24.688 11.4193 24.7206 11.3809C24.6825 11.4237 24.6546 11.4746 24.6393 11.5299C24.6239 11.5852 24.6215 11.6432 24.6321 11.6996Z" fill="#161516"/>
<path d="M24.1879 10.687C24.1536 10.7058 24.1262 10.735 24.1095 10.7704C24.1095 10.7704 23.9729 10.8792 23.806 11.0006C23.7907 10.8767 23.8194 10.7514 23.8869 10.6465C23.926 10.6849 23.9764 10.7096 24.0307 10.7169C24.085 10.7242 24.1401 10.7137 24.1879 10.687Z" fill="#161516"/>
</g>
<defs>
<filter id="filter0_d_5421_14474" x="0.112683" y="0.571637" width="66.6787" height="46.0325" filterUnits="userSpaceOnUse" color-interpolation-filters="sRGB">
<feFlood flood-opacity="0" result="BackgroundImageFix"/>
<feColorMatrix in="SourceAlpha" type="matrix" values="0 0 0 0 0 0 0 0 0 0 0 0 0 0 0 0 0 0 127 0" result="hardAlpha"/>
<feOffset dx="0.541047"/>
<feGaussianBlur stdDeviation="0.714182"/>
<feComposite in2="hardAlpha" operator="out"/>
<feColorMatrix type="matrix" values="0 0 0 0 0 0 0 0 0 0 0 0 0 0 0 0 0 0 0.25 0"/>
<feBlend mode="normal" in2="BackgroundImageFix" result="effect1_dropShadow_5421_14474"/>
<feBlend mode="normal" in="SourceGraphic" in2="effect1_dropShadow_5421_14474" result="shape"/>
</filter>
</defs>
</svg>
