<svg width="106" height="17" viewBox="0 0 106 17" fill="none" xmlns="http://www.w3.org/2000/svg">
<path d="M8.36842 0L10.2472 5.78244H16.3273L11.4084 9.35618L13.2873 15.1386L8.36842 11.5649L3.44959 15.1386L5.32841 9.35618L0.40958 5.78244H6.48959L8.36842 0Z" fill="#36768A"/>
<path d="M30.6848 0L32.5637 5.78244H38.6437L33.7248 9.35618L35.6037 15.1386L30.6848 11.5649L25.766 15.1386L27.6448 9.35618L22.726 5.78244H28.806L30.6848 0Z" fill="#36768A"/>
<path d="M53.0012 0L54.8801 5.78244H60.9601L56.0412 9.35618L57.9201 15.1386L53.0012 11.5649L48.0824 15.1386L49.9612 9.35618L45.0424 5.78244H51.1224L53.0012 0Z" fill="#36768A"/>
<path d="M75.3157 0L77.1945 5.78244H83.2745L78.3557 9.35618L80.2345 15.1386L75.3157 11.5649L70.3969 15.1386L72.2757 9.35618L67.3568 5.78244H73.4369L75.3157 0Z" fill="#36768A"/>
<path d="M97.6301 0L99.509 5.78244H105.589L100.67 9.35618L102.549 15.1386L97.6301 11.5649L92.7113 15.1386L94.5901 9.35618L89.6713 5.78244H95.7513L97.6301 0Z" fill="#36768A"/>
</svg>
