<svg width="138" height="145" viewBox="0 0 138 145" fill="none" xmlns="http://www.w3.org/2000/svg">
<path d="M131.526 68.2288H5.85636C2.77648 68.2288 0.301575 65.7594 0.301575 62.6864V5.54245C0.301575 2.46941 2.77648 0 5.85636 0H131.526C134.588 0 137.081 2.46941 137.081 5.54245V62.7047C137.063 65.7594 134.588 68.2288 131.526 68.2288Z" fill="#F9F9F9"/>
<path d="M131.526 145H5.85636C2.77648 145 0.301575 142.512 0.301575 139.457V82.2953C0.301575 79.2405 2.77648 76.7528 5.85636 76.7528H131.526C134.588 76.7528 137.081 79.2222 137.081 82.2953V139.457C137.063 142.512 134.588 145 131.526 145Z" fill="#F9F9F9"/>
<path d="M123.02 92.5937H66.849C65.8407 92.5937 65.0157 91.7705 65.0157 90.7645C65.0157 89.7584 65.8407 88.9353 66.849 88.9353H123.02C124.028 88.9353 124.853 89.7584 124.853 90.7645C124.853 91.7888 124.028 92.5937 123.02 92.5937Z" fill="#7593A3"/>
<path d="M96.1629 109.66H66.849C65.8407 109.66 65.0157 108.837 65.0157 107.831C65.0157 106.825 65.8407 106.002 66.849 106.002H96.1629C97.1712 106.002 97.9961 106.825 97.9961 107.831C97.9961 108.837 97.1712 109.66 96.1629 109.66Z" fill="#7593A3"/>
<path d="M118.144 131.592H71.7438C68.0406 131.592 65.0341 128.592 65.0341 124.897C65.0341 121.202 68.0406 118.202 71.7438 118.202H118.144C121.847 118.202 124.853 121.202 124.853 124.897C124.853 128.592 121.847 131.592 118.144 131.592Z" fill="#FF4E33"/>
<path d="M30.7703 134.903C44.3375 134.903 55.336 123.929 55.336 110.392C55.336 96.8545 44.3375 85.8805 30.7703 85.8805C17.203 85.8805 6.20456 96.8545 6.20456 110.392C6.20456 123.929 17.203 134.903 30.7703 134.903Z" fill="#4F94A3"/>
<path d="M38.7815 100.514C38.8915 100.258 40.7248 95.5204 42.7047 96.563C44.6846 97.6056 46.9395 100.349 42.558 103.313C38.1765 106.276 38.7815 100.514 38.7815 100.514Z" fill="#FF7C6E"/>
<path d="M34.9867 121.312V116.08C34.9867 116.08 42.3931 116.355 42.1915 106.678C42.0081 97.0019 41.8065 85.0573 40.8715 83.5757C39.9366 82.094 20.614 79.3319 20.7423 86.5024C20.8706 93.6728 20.724 101.886 20.724 101.886C20.724 101.886 20.9806 109.331 23.7489 112.294L23.9322 121.824C23.9322 121.824 25.1971 126.397 30.2569 126.269C35.3167 126.141 34.9867 121.312 34.9867 121.312Z" fill="#FFC9AD"/>
<path d="M22.8873 100.788C22.7773 100.532 20.9624 95.7948 18.9641 96.8374C16.9659 97.88 14.7293 100.606 19.0924 103.569C23.4556 106.532 22.8873 100.788 22.8873 100.788Z" fill="#FFC9AD"/>
<path d="M20.7606 86.5207C20.8523 91.7522 20.7973 97.5324 20.7606 100.276C20.779 99.5262 20.9256 93.1972 22.7589 91.5509C24.7205 89.8132 25.1238 84.7646 25.1238 84.7646C32.8602 86.8499 39.8632 84.7829 39.8632 84.7829C40.9999 86.8682 41.9165 94.6606 41.9165 94.8618C41.7332 89.1547 41.4398 84.472 40.8715 83.5757C39.9366 82.1123 20.6323 79.3319 20.7606 86.5207Z" fill="#0A011D"/>
<path d="M26.6822 92.1728C26.5905 92.1728 26.4989 92.1179 26.4622 92.0264C26.4072 91.8984 26.4622 91.7703 26.5905 91.7155C28.1121 91.0935 29.9454 91.4228 30.0187 91.4411C30.147 91.4594 30.2204 91.5874 30.202 91.7155C30.1837 91.8435 30.0554 91.935 29.9271 91.8984C29.9087 91.8984 28.1488 91.5874 26.7555 92.1545C26.7372 92.1728 26.7005 92.1728 26.6822 92.1728Z" fill="#0A011D"/>
<path d="M39.1299 91.8254C39.1115 91.8254 39.0932 91.8254 39.0565 91.8071C39.0382 91.8071 37.3333 91.295 35.885 91.7157C35.7567 91.7522 35.6283 91.6791 35.5917 91.551C35.555 91.423 35.6283 91.295 35.7567 91.2584C37.3333 90.8011 39.1299 91.3315 39.2032 91.3498C39.3315 91.3864 39.4049 91.5145 39.3682 91.6425C39.3132 91.7522 39.2215 91.8254 39.1299 91.8254Z" fill="#0A011D"/>
<path d="M33.5201 98.447L35.4634 103.313H33.1902L33.5201 98.447Z" fill="#FF7C6E"/>
<path d="M29.2854 98.4472C29.822 98.4472 30.257 97.8903 30.257 97.2033C30.257 96.5164 29.822 95.9595 29.2854 95.9595C28.7488 95.9595 28.3138 96.5164 28.3138 97.2033C28.3138 97.8903 28.7488 98.4472 29.2854 98.4472Z" fill="#0A011D"/>
<path d="M37.1134 98.5384C37.65 98.5384 38.085 97.9815 38.085 97.2945C38.085 96.6076 37.65 96.0507 37.1134 96.0507C36.5768 96.0507 36.1418 96.6076 36.1418 97.2945C36.1418 97.9815 36.5768 98.5384 37.1134 98.5384Z" fill="#0A011D"/>
<path d="M29.0655 102.215C26.6639 102.215 24.7023 100.258 24.7023 97.8617C24.7023 95.4654 26.6639 93.5082 29.0655 93.5082C31.467 93.5082 33.4286 95.4654 33.4286 97.8617C33.4286 100.276 31.467 102.215 29.0655 102.215ZM29.0655 93.9838C26.9205 93.9838 25.1606 95.7215 25.1606 97.8617C25.1606 100.002 26.9022 101.758 29.0471 101.758C31.192 101.758 32.952 100.02 32.952 97.8799C32.952 95.7215 31.2104 93.9838 29.0655 93.9838Z" fill="#0A011D"/>
<path d="M38.525 102.233C36.1235 102.233 34.1619 100.276 34.1619 97.88C34.1619 95.4837 36.1235 93.5265 38.525 93.5265C40.9266 93.5265 42.8882 95.4837 42.8882 97.88C42.8882 100.276 40.9266 102.233 38.525 102.233ZM38.525 93.9838C36.3801 93.9838 34.6202 95.7215 34.6202 97.8617C34.6202 100.002 36.3618 101.758 38.5067 101.758C40.6516 101.758 42.4115 100.02 42.4115 97.88C42.4115 95.7398 40.6699 93.9838 38.525 93.9838Z" fill="#0A011D"/>
<path d="M33.0436 96.5263L32.7503 96.1604C33.5569 95.5202 34.4552 95.8677 34.8402 96.1238L34.5652 96.508L34.6935 96.325L34.5652 96.508C34.5285 96.4897 33.7586 95.9592 33.0436 96.5263Z" fill="#0A011D"/>
<path d="M32.9519 108.361C35.7568 108.361 37.7367 107.063 37.755 107.044C37.865 106.971 37.8834 106.825 37.81 106.715C37.7367 106.605 37.59 106.587 37.48 106.66C37.4434 106.678 33.7585 109.093 29.377 107.117C29.267 107.063 29.1204 107.117 29.0654 107.227C29.0104 107.337 29.0654 107.483 29.1754 107.538C30.532 108.142 31.7969 108.361 32.9519 108.361Z" fill="#0A011D"/>
<path d="M27.0488 113.611C27.0488 113.611 29.872 120.964 34.9685 120.653V116.062C34.9868 116.08 29.8537 116.684 27.0488 113.611Z" fill="#FF7C6E"/>
<path d="M50.4413 125.08C46.4448 123.05 40.5783 121.385 32.0537 121.367C21.7874 121.348 15.811 123.873 12.4011 126.635C16.9476 131.756 23.584 134.958 30.972 134.903C38.9284 134.83 45.9865 130.988 50.4413 125.08Z" fill="#FAFBFD"/>
<path d="M38.8184 121.769C36.7651 121.513 34.5286 121.367 32.0353 121.367C21.7691 121.348 15.7926 123.873 12.3828 126.635C13.9594 128.409 15.7743 129.946 17.7909 131.208C24.9039 129.726 31.797 126.671 37.8834 122.519C38.2134 122.318 38.5434 122.062 38.8184 121.769Z" fill="#DBF3F4"/>
<path d="M38.9649 126.507C33.7034 127.458 28.3136 127.495 23.0338 126.635C20.5589 126.232 18.2857 124.55 18.2674 122.08C18.249 119.611 20.4856 117.288 22.9605 117.69C28.2403 118.55 33.6301 118.513 38.8915 117.562C41.3665 117.123 43.3464 119.409 43.3647 121.879C43.383 124.33 41.4215 126.049 38.9649 126.507Z" fill="#FF4634"/>
<path d="M31.1556 56.028C44.1559 56.028 54.6947 45.5125 54.6947 32.5411C54.6947 19.5697 44.1559 9.05432 31.1556 9.05432C18.1553 9.05432 7.61652 19.5697 7.61652 32.5411C7.61652 45.5125 18.1553 56.028 31.1556 56.028Z" fill="#4F94A3"/>
<path d="M51.9448 43.5896C52.4581 33.1266 46.5183 35.2485 44.8867 32.3218C45.0151 31.645 45.1801 30.895 45.3451 30.1085C46.2067 26.2123 47.4166 20.6516 45.565 15.9505C43.7684 8.65206 37.352 5.43268 31.9806 5.74364C26.4441 6.0546 23.0709 7.4265 20.9443 9.32886C20.5594 9.53007 20.156 9.80444 19.7344 10.1703C16.5445 13.0238 15.7195 19.1699 15.5912 23.8709C15.0412 25.0782 14.2346 26.0842 13.0063 26.8159C7.2682 30.1999 8.84481 32.8888 8.9548 35.4497C8.71648 36.0899 8.42316 36.6204 8.09317 37.0594C8.1115 37.1874 8.14817 37.3338 8.1665 37.4618C8.45982 37.1143 8.69815 36.7301 8.93647 36.2728C8.86314 36.8399 8.67981 37.3886 8.29483 37.9557C10.7514 48.3821 20.1744 56.1196 31.3573 56.0281C40.2669 55.9549 48.0033 50.943 51.9448 43.5896ZM15.9029 23.0661C16.2329 15.4384 18.1944 12.0178 19.826 10.4995C16.8745 14.1945 17.2595 19.3162 15.9029 23.0661ZM44.9784 27.2915C45.9317 23.8892 46.2067 20.9259 45.95 18.3651C46.72 22.3344 45.785 26.633 45.0334 30.0353C44.8867 30.6755 44.7584 31.2974 44.6484 31.8645C44.3368 30.895 44.3734 29.5048 44.9784 27.2915Z" fill="#150C28"/>
<path d="M50.0016 46.6261C46.1701 44.6689 40.542 43.0775 32.3657 43.0592C22.5394 43.0409 16.8013 45.4554 13.5381 48.1077C17.8829 53.01 24.2626 56.083 31.339 56.0281C38.9837 55.9733 45.7485 52.2783 50.0016 46.6261Z" fill="#FAFBFD"/>
<path d="M38.8737 43.4433C36.9121 43.2055 34.7489 43.0592 32.384 43.0592C22.5394 43.0409 16.8013 45.4554 13.5381 48.1077C15.0413 49.8089 16.7829 51.2722 18.7262 52.4795C25.5459 51.0527 32.164 48.1443 37.9754 44.1384C38.3054 43.9738 38.5988 43.736 38.8737 43.4433Z" fill="#DBF3F4"/>
<path d="M26.2058 43.7908C26.1691 39.7117 26.2791 35.7057 26.7374 31.6449C26.8291 30.8218 26.9391 29.9621 27.4524 29.3036C28.0024 28.6085 28.9007 28.2975 29.7623 28.0963C30.6606 27.8951 31.5772 27.7671 32.4939 27.7488C33.5938 27.7122 34.8404 27.9134 35.7387 28.5536C36.9487 29.4316 36.582 30.456 36.582 31.773C36.582 35.468 36.1971 39.4007 36.637 43.0774C36.692 43.553 36.6737 43.9554 36.527 44.3944C35.7021 46.9187 33.2638 48.4918 30.6606 48.4369C25.9308 48.3455 26.2058 43.7908 26.2058 43.7908Z" fill="#FFC9AD"/>
<path d="M36.4905 36.6021C36.5272 34.9741 36.6005 33.3461 36.6005 31.773C36.6005 30.456 36.9671 29.4317 35.7572 28.5537C34.8406 27.8952 33.5939 27.7122 32.5123 27.7488C31.5957 27.7854 30.679 27.8952 29.7807 28.0964C28.9191 28.2976 28.0208 28.6085 27.4708 29.3036C26.9575 29.9438 26.8475 30.8219 26.7559 31.645C26.4259 34.6449 26.2792 37.6082 26.2426 40.5897C30.0741 40.6812 33.7223 39.1447 36.4905 36.6021Z" fill="#FF7C6E"/>
<path d="M39.0019 47.9796C33.9604 48.8942 28.7906 48.9308 23.7308 48.1077C21.3659 47.7235 19.1843 46.1139 19.166 43.7359C19.1477 41.358 21.2926 39.1446 23.6575 39.5288C28.7173 40.3519 33.8871 40.3153 38.9286 39.4007C41.2935 38.98 43.2001 41.1567 43.2184 43.5347C43.2367 45.9126 41.3668 47.5589 39.0019 47.9796Z" fill="#FF4634"/>
<path d="M26.041 12.969C26.041 12.969 36.1423 8.72524 40.7437 16.2066C44.4836 22.2795 42.4304 40.041 29.5059 36.6387C18.5796 33.7669 20.3212 13.4811 26.041 12.969Z" fill="#FBCAAD"/>
<path d="M20.7426 20.5052C20.651 21.1271 21.9343 27.3646 21.9343 27.3646C21.9343 27.3646 25.1791 20.871 24.9591 20.1942C24.7391 19.5174 21.4393 18.0358 21.4393 18.0358L20.7426 20.5052Z" fill="#150C28"/>
<path opacity="0.38" d="M32.5857 28.4623H35.4456C35.5006 28.4623 35.5556 28.4257 35.5739 28.3891C35.6106 28.3342 35.6106 28.2794 35.5739 28.2245C34.8223 26.8709 34.0156 25.3527 34.0156 25.1332C34.0156 25.0417 33.9423 24.9868 33.8506 24.9868C33.759 24.9868 33.704 25.06 33.704 25.1332C33.704 25.4624 34.7123 27.2916 35.1706 28.133H32.5857C32.494 28.133 32.4207 28.2062 32.4207 28.2976C32.4207 28.3891 32.5123 28.4623 32.5857 28.4623Z" fill="#F78970"/>
<path d="M22.2644 25.6269C22.2644 25.6269 21.9344 22.4258 19.9362 22.9197C17.9379 23.4319 18.2312 29.1755 20.9444 29.267C21.9161 29.3036 23.071 27.9134 22.2644 25.6269Z" fill="#FBCAAD"/>
<path opacity="0.38" d="M26.6824 29.7426C27.5937 29.7426 28.3324 29.0056 28.3324 28.0963C28.3324 27.1871 27.5937 26.4501 26.6824 26.4501C25.7712 26.4501 25.0325 27.1871 25.0325 28.0963C25.0325 29.0056 25.7712 29.7426 26.6824 29.7426Z" fill="#F78970"/>
<path opacity="0.38" d="M38.3055 29.9073C39.2167 29.9073 39.9554 29.1702 39.9554 28.261C39.9554 27.3518 39.2167 26.6147 38.3055 26.6147C37.3942 26.6147 36.6555 27.3518 36.6555 28.261C36.6555 29.1702 37.3942 29.9073 38.3055 29.9073Z" fill="#F78970"/>
<path d="M37.2846 25.5902C37.8111 25.5814 38.228 24.9847 38.2158 24.2574C38.2036 23.5301 37.767 22.9476 37.2406 22.9564C36.7141 22.9652 36.2972 23.5619 36.3094 24.2892C36.3216 25.0165 36.7582 25.599 37.2846 25.5902Z" fill="#150C28"/>
<path d="M28.7382 24.4445C28.8185 23.7216 28.4594 23.0886 27.9361 23.0307C27.4129 22.9728 26.9235 23.512 26.8432 24.2349C26.7629 24.9578 27.122 25.5908 27.6452 25.6487C28.1685 25.7066 28.6578 25.1675 28.7382 24.4445Z" fill="#150C28"/>
<path d="M38.6904 20.5236C38.6538 21.1272 37.9755 20.487 37.0772 20.4504C36.1789 20.4138 35.4456 20.9809 35.4639 20.3772C35.5006 19.7736 36.2339 19.3163 37.1322 19.3529C38.0305 19.3895 38.7088 19.9016 38.6904 20.5236Z" fill="#150C28"/>
<path d="M30.3673 20.6881C30.4406 21.2918 29.6523 20.7613 28.7723 20.871C27.8924 20.9625 27.2324 21.6393 27.1774 21.054C27.1041 20.4503 27.7824 19.8833 28.6623 19.7918C29.524 19.6638 30.2939 20.0845 30.3673 20.6881Z" fill="#150C28"/>
<path d="M20.7977 21.8039C20.7977 21.8039 31.174 19.3894 33.7956 11.6153C33.7956 11.597 19.4228 6.018 20.7977 21.8039Z" fill="#150C28"/>
<path d="M32.9523 10.4446C32.9523 10.4446 34.5656 18.7125 43.6219 21.5661C43.6219 21.5661 43.7502 11.9079 32.9523 10.4446Z" fill="#150C28"/>
<path d="M27.3242 28.0779C25.2159 27.6389 23.841 25.5902 24.281 23.4683C24.721 21.3465 26.7742 19.9929 28.9008 20.4319C31.0091 20.8709 32.384 22.9196 31.944 25.0414C31.504 27.1633 29.4324 28.5169 27.3242 28.0779ZM28.8275 20.7428C26.8842 20.3404 24.9776 21.6025 24.5926 23.5415C24.1893 25.4804 25.4543 27.3828 27.3975 27.7669C29.3408 28.1693 31.2474 26.9072 31.6324 24.9683C32.0173 23.0293 30.7707 21.1452 28.8275 20.7428Z" fill="#150C28"/>
<path d="M37.8655 28.0779C35.7572 27.6389 34.3823 25.5902 34.8223 23.4683C35.2623 21.3465 37.3155 19.9929 39.4421 20.4319C41.5687 20.8709 42.9253 22.9196 42.4853 25.0414C42.0453 27.1633 39.9737 28.5169 37.8655 28.0779ZM39.3688 20.7428C37.4255 20.3404 35.5189 21.6025 35.1339 23.5415C34.7306 25.4804 35.9956 27.3828 37.9388 27.7669C39.8821 28.1511 41.7887 26.9072 42.1737 24.9683C42.5586 23.0476 41.312 21.1452 39.3688 20.7428Z" fill="#150C28"/>
<path d="M31.9348 24.1074L31.9292 24.4183L34.8985 24.4719L34.9041 24.1611L31.9348 24.1074Z" fill="#150C28"/>
<path d="M21.1368 21.9048L21.0423 22.2011L24.4841 23.2933L24.5786 22.997L21.1368 21.9048Z" fill="#150C28"/>
<path opacity="0.38" d="M21.036 28.3524C20.9994 28.3524 20.9811 28.3341 20.9444 28.3341C20.2661 28.1146 19.5144 26.6696 19.6611 25.3526C19.7344 24.6575 19.9361 24.2185 20.2477 24.0721C20.5594 23.9258 20.8527 24.1087 20.8711 24.1087L20.7061 24.3831C20.7061 24.3831 20.5411 24.2916 20.3944 24.3648C20.2844 24.4197 20.0644 24.6392 19.9911 25.3891C19.8628 26.5781 20.5594 27.8768 21.0544 28.0415C21.146 28.0781 21.2744 28.0781 21.4027 27.8586L21.6777 28.0049C21.5127 28.261 21.2927 28.389 21.036 28.3524Z" fill="#F78970"/>
<path d="M21.6044 21.4929L21.5677 21.182C31.9073 20.1027 32.6039 11.7616 32.6039 11.6702L32.9156 11.6885C32.9156 11.7982 32.2006 20.3954 21.6044 21.4929Z" fill="#150C28"/>
<path d="M40.7376 24.0245C41.1212 23.6647 40.8981 22.8061 40.2393 22.1069C39.5805 21.4076 38.7355 21.1324 38.3519 21.4922C37.9683 21.852 38.1914 22.7105 38.8502 23.4098C39.509 24.1091 40.354 24.3843 40.7376 24.0245Z" fill="white"/>
<path d="M37.1688 22.6087C37.4321 22.6087 37.6455 22.3957 37.6455 22.1331C37.6455 21.8704 37.4321 21.6575 37.1688 21.6575C36.9056 21.6575 36.6922 21.8704 36.6922 22.1331C36.6922 22.3957 36.9056 22.6087 37.1688 22.6087Z" fill="white"/>
<path d="M30.2699 24.0246C30.6535 23.6648 30.4305 22.8063 29.7717 22.107C29.1129 21.4078 28.2679 21.1326 27.8842 21.4924C27.5006 21.8522 27.7237 22.7107 28.3825 23.41C29.0413 24.1092 29.8863 24.3844 30.2699 24.0246Z" fill="white"/>
<path d="M26.7009 22.6087C26.9642 22.6087 27.1776 22.3957 27.1776 22.1331C27.1776 21.8704 26.9642 21.6575 26.7009 21.6575C26.4377 21.6575 26.2243 21.8704 26.2243 22.1331C26.2243 22.3957 26.4377 22.6087 26.7009 22.6087Z" fill="white"/>
<path d="M33.6488 31.462C31.2473 31.462 29.414 30.1633 29.3773 30.145C29.2123 30.0352 29.1757 29.7974 29.304 29.6511C29.414 29.4865 29.634 29.4499 29.799 29.5779C29.9823 29.706 34.1805 32.6693 38.0853 28.7914C38.232 28.6451 38.452 28.6451 38.5986 28.7914C38.7453 28.9377 38.7453 29.1572 38.5986 29.3036C36.912 30.9498 35.1704 31.462 33.6488 31.462Z" fill="#FF5034"/>
<path d="M123.02 101.136H66.849C65.8407 101.136 65.0157 100.313 65.0157 99.3067C65.0157 98.3007 65.8407 97.4775 66.849 97.4775H123.02C124.028 97.4775 124.853 98.3007 124.853 99.3067C124.853 100.313 124.028 101.136 123.02 101.136Z" fill="#7593A3"/>
<path d="M118.565 50.4856C102.598 50.9246 86.6298 50.7783 70.6804 50.0832C69.1038 50.01 67.7289 48.6747 67.6189 47.1016C66.9589 37.3337 67.0322 27.5658 67.8205 17.798C67.9489 16.2249 69.3605 14.9078 70.9371 14.8713C86.9231 14.4505 102.928 14.5969 118.914 15.2737C120.49 15.3469 121.883 16.6822 121.975 18.2553C122.598 28.0231 122.507 37.791 121.682 47.5406C121.553 49.1137 120.142 50.4307 118.565 50.4856Z" fill="#B8E6EA"/>
<path d="M118.602 49.9536C102.597 50.3743 86.6115 50.228 70.6254 49.5512C69.0488 49.478 67.6555 48.1427 67.5638 46.5696C66.9405 36.8017 67.0322 27.0338 67.8572 17.2843C67.9855 15.7111 69.3971 14.3941 70.9737 14.3575C86.9414 13.9185 102.909 14.0649 118.877 14.76C120.453 14.8331 121.828 16.1684 121.938 17.7416C122.598 27.5094 122.525 37.2773 121.718 47.0452C121.59 48.5817 120.197 49.8987 118.602 49.9536Z" fill="#EDF9FA"/>
<path d="M97.4277 30.7669C95.9794 29.6877 93.6145 29.6694 92.1296 30.7303C83.8616 36.602 75.5936 42.4554 67.9672 47.8881C68.5172 48.821 69.5255 49.4978 70.6254 49.5527C86.6115 50.2478 102.598 50.3758 118.602 49.9551C119.702 49.9185 120.728 49.26 121.278 48.3454C113.78 42.7664 105.586 36.7667 97.4277 30.7669Z" fill="#DCF3F4"/>
<path d="M118.858 14.7066C102.909 14.0115 86.9414 13.8652 70.9737 14.3042C69.6354 14.3408 68.4255 15.292 68.0038 16.5358C75.5385 22.9197 83.8615 29.7792 92.0929 36.6569C93.5412 37.8642 95.9061 37.8825 97.3727 36.6935C105.714 29.9621 114.165 23.2489 121.792 16.9931C121.407 15.731 120.197 14.7615 118.858 14.7066Z" fill="#B8E6EA"/>
<path d="M118.858 14.7066C102.909 14.0115 86.9414 13.8652 70.9737 14.3042C69.6354 14.3408 68.4255 15.292 68.0038 16.5358C75.5385 22.9197 84.0265 29.3402 92.2579 36.1996C93.7061 37.4069 96.0711 37.4252 97.5377 36.2362C105.879 29.5048 114.165 23.2307 121.792 16.9931C121.407 15.731 120.197 14.7615 118.858 14.7066Z" fill="white"/>
</svg>
