<svg width="262" height="275" viewBox="0 0 262 275" fill="none" xmlns="http://www.w3.org/2000/svg">
<path d="M109.292 77.1894C109.292 77.1894 116.698 -4.3081 180.871 0.184252C245.044 4.6766 247.289 54.0648 241.455 87.7391L109.292 77.1894Z" fill="white"/>
<path d="M202.013 83.2467C219.586 84.646 239.192 86.211 239.192 86.211C240.508 78.5887 241.299 70.856 241.225 63.114C241.143 54.3687 239.937 45.5312 236.883 37.3014C234.969 32.137 230.811 20.3262 223.874 21.1731C214.287 22.3423 211.186 38.7467 208.647 46.1388C204.543 58.0693 202.105 70.6074 202.013 83.2467Z" fill="#CAE8EE"/>
<path d="M121.004 47.5565C121.97 36.6386 129.496 25.9785 137.114 18.8165C151.926 4.89756 186.925 10.7339 197.248 23.3088C207.57 35.8837 205.325 56.9831 195.003 62.3776C184.68 67.7721 170.318 66.8699 162.24 59.2384C157.971 55.1972 152.064 53.1443 146.213 53.3468C142.882 53.4665 139.515 54.3042 136.626 55.9704C134.114 57.4157 131.63 59.1832 128.603 59.1924C125.99 59.1924 123.285 58.3363 122.08 55.9336C121.151 54.0925 120.958 52.5828 120.912 50.5575C120.884 49.5357 120.921 48.5415 121.004 47.5565Z" fill="#100523"/>
<path d="M121.004 47.5565C121.97 36.6386 129.496 25.9785 137.114 18.8165C151.926 4.89756 186.925 10.7339 197.248 23.3088C199.354 25.868 200.928 28.7954 202.023 31.8609C201.011 29.6147 199.732 27.4882 198.14 25.555C187.817 12.9801 152.819 7.14373 138.006 21.0627C130.388 28.2246 122.862 38.8848 121.896 49.8027C121.804 50.7969 121.777 51.7911 121.795 52.7761C121.823 54.0188 121.915 55.0683 122.191 56.1177C122.154 56.0441 122.108 55.9796 122.071 55.906C121.142 54.0649 120.949 52.5551 120.903 50.5299C120.884 49.5357 120.921 48.5415 121.004 47.5565Z" fill="#92BEDC"/>
<path d="M194.193 1.99786C189.952 1.14173 185.37 0.524955 180.42 0.184346C178.092 0.018645 175.847 -0.0273832 173.667 0.0278506C169.619 1.0865 163.675 3.17618 158.661 7.14381C158.661 7.14381 164.945 7.14381 175.268 8.48783C175.259 8.48783 182.242 3.33267 194.193 1.99786Z" fill="#FF4F38"/>
<path d="M187.118 54.0648C191.579 54.0648 195.196 48.6368 195.196 41.941C195.196 35.2452 191.579 29.8171 187.118 29.8171C182.657 29.8171 179.04 35.2452 179.04 41.941C179.04 48.6368 182.657 54.0648 187.118 54.0648Z" fill="#CAE8EE"/>
<path d="M145.253 40.3574C146.527 34.2042 144.377 28.5561 140.452 27.7422C136.526 26.9283 132.311 31.2567 131.036 37.41C129.762 43.5633 131.911 49.2113 135.837 50.0252C139.763 50.8391 143.978 46.5107 145.253 40.3574Z" fill="#CAE8EE"/>
<path d="M139.197 61.9609C139.565 61.3816 139.443 60.6445 138.924 60.3147C138.405 59.9848 137.686 60.1871 137.318 60.7664C136.95 61.3458 137.073 62.0828 137.592 62.4127C138.111 62.7426 138.83 62.5403 139.197 61.9609Z" fill="#FF4F38"/>
<path d="M141.138 66.1561C141.628 65.3836 141.466 64.4016 140.775 63.9627C140.085 63.5238 139.127 63.7942 138.637 64.5667C138.147 65.3391 138.309 66.3211 138.999 66.76C139.69 67.1989 140.647 66.9285 141.138 66.1561Z" fill="#FF4F38"/>
<path d="M155.433 62.3936C155.839 61.7542 155.703 60.9396 155.128 60.5743C154.553 60.209 153.758 60.4313 153.352 61.0707C152.946 61.7102 153.083 62.5246 153.658 62.8899C154.233 63.2552 155.028 63.033 155.433 62.3936Z" fill="#FF4F38"/>
<path d="M152.97 67.1562C153.512 66.3022 153.332 65.2165 152.569 64.7313C151.805 64.246 150.747 64.545 150.205 65.399C149.663 66.253 149.842 67.3387 150.606 67.8239C151.369 68.3092 152.427 68.0102 152.97 67.1562Z" fill="#FF4F38"/>
<path d="M147.235 69.7322C147.982 68.5563 147.735 67.0616 146.684 66.3937C145.634 65.7258 144.177 66.1376 143.43 67.3135C142.683 68.4894 142.93 69.9841 143.981 70.652C145.032 71.3199 146.489 70.9081 147.235 69.7322Z" fill="#FF4F38"/>
<path d="M225.07 59.6711C225.07 59.6711 225.07 84.3699 234.114 84.8117C243.158 85.2628 240.692 59.6711 240.692 59.6711H225.07Z" fill="#A4E7EA"/>
<path d="M228.667 43.957L243.48 46.6543C243.48 46.6543 246.617 50.2445 247.519 61.0243C248.42 71.8041 243.572 75.5047 243.572 75.5047L231.363 78.9845C231.353 78.9845 219.236 67.3025 228.667 43.957Z" fill="#CAE8EE"/>
<path d="M231.353 78.9844L243.562 75.5047C243.562 75.5047 248.411 71.804 247.509 61.0242C247.335 58.9069 247.068 57.075 246.764 55.4824C244.372 55.7126 241.879 56.6331 239.763 58.9069C233.589 65.535 225.649 59.7446 225.106 59.3304C224.554 72.43 231.353 78.9844 231.353 78.9844Z" fill="#CAE8EE"/>
<path d="M239.882 61.4661C240.719 72.743 244.234 74.8235 244.234 74.8235C245.531 73.3414 248.19 69.2449 247.509 61.015C246.608 50.2352 243.47 46.645 243.47 46.645C243.47 46.645 238.981 49.3423 239.882 61.4661Z" fill="#CAE8EE"/>
<path d="M239.882 61.4661C240.719 72.743 244.234 74.8235 244.234 74.8235C245.531 73.3414 248.19 69.2449 247.509 61.015C246.608 50.2352 243.47 46.645 243.47 46.645C243.47 46.645 238.981 49.3423 239.882 61.4661Z" fill="#A4E7EA"/>
<path d="M242.836 60.5456C243.121 64.4212 244.335 65.1392 244.335 65.1392C244.777 64.6329 245.697 63.2245 245.458 60.3983C245.145 56.6977 244.068 55.4641 244.068 55.4641C244.068 55.4641 242.523 56.3755 242.836 60.5456Z" fill="white"/>
<path d="M109.292 77.1895C109.292 77.1895 166.288 71.8042 241.676 87.5182C241.676 87.509 165.387 92.0013 109.292 77.1895Z" fill="#36768A"/>
<path d="M114.278 159.267C101.204 161.356 92.8413 156.063 92.2801 155.695L100.901 142.559C100.901 142.559 100.855 142.522 100.754 142.466C101.278 142.779 113.809 149.813 133.47 131.613L144.134 143.148C132.808 153.624 122.595 157.941 114.278 159.267Z" fill="#100523"/>
<path d="M102.373 134.108V134.09L59.4346 126.209C57.9166 125.933 55.4325 132.58 53.8776 141.049C52.3227 149.518 52.2951 156.616 53.804 156.892L96.7423 164.772V164.753C99.3552 164.836 102.612 158.494 104.121 150.264C105.639 142.043 104.848 134.955 102.373 134.108Z" fill="white"/>
<path d="M55.8005 139.604C55.6993 140.11 55.5981 140.625 55.4969 141.15C54.0432 149.085 54.0156 155.723 55.4416 155.99L95.8866 163.409V163.391C98.3432 163.474 101.407 157.536 102.824 149.831C103.008 148.818 103.155 147.824 103.265 146.858C87.3119 150.577 70.1991 147.686 55.8005 139.604Z" fill="#DEEBF5"/>
<path d="M59.3713 142.049C60.9242 133.578 60.9553 126.485 59.441 126.208C57.9266 125.93 55.4402 132.572 53.8873 141.043C52.3345 149.514 52.3034 156.607 53.8177 156.885C55.3321 157.163 57.8185 150.521 59.3713 142.049Z" fill="#CAE8EE"/>
<path d="M57.2265 133.141C57.2265 133.141 49.0198 124.451 45.1188 122.803C45.1188 122.803 41.7331 121.524 39.7274 123.208C37.7217 124.893 39.2489 128.741 44.5484 130.619C44.5484 130.619 40.8406 133.031 36.5532 134.623C32.2658 136.216 31.5206 137.247 31.5206 137.247C31.5206 137.247 16.6159 137.808 13.4234 140.598C10.2309 143.378 12.5678 146.646 16.4687 148.294C20.3697 149.941 39.4606 152.804 46.7105 149.822C53.9604 146.839 53.4268 149.205 53.4268 149.205C53.4268 149.205 53.9236 152.307 54.6688 151.276C55.4141 150.245 58.5146 138.379 57.2909 133.574" fill="#100523"/>
<path d="M115.576 89.3132C115.576 89.3132 194.561 74.0503 251.999 104.134C251.999 104.134 230.01 155.318 222.834 186.755C215.658 218.192 218.795 246.923 193.218 255.908C167.641 264.892 143.858 240.645 130.839 196.191C117.82 151.718 115.576 89.3132 115.576 89.3132Z" fill="white"/>
<path d="M119.394 91.0806C119.394 91.0806 193.963 76.1398 248.19 105.579C248.19 105.579 227.434 155.667 220.653 186.423C213.873 217.179 216.844 245.293 192.693 254.085C168.542 262.876 146.093 239.144 133.802 195.647C121.51 152.151 119.394 91.0806 119.394 91.0806Z" fill="white"/>
<path d="M211.628 92.2222C214.277 97.7179 215.667 103.591 216.329 110.192C219.917 147.456 218.574 187.418 192.095 217.06C182.278 228.281 170.033 236.576 156.619 242.145C167.282 254.159 179.739 258.798 192.693 254.085C216.844 245.294 213.873 217.18 220.653 186.423C227.434 155.667 248.19 105.58 248.19 105.58C236.616 99.3013 224.122 95.0391 211.628 92.2222Z" fill="#CAE8EE"/>
<path d="M176.114 176.62C174.661 165.932 171.707 156.956 180.613 154.158C180.613 154.158 181 149.141 185.324 146.526C189.639 143.903 191.378 145.136 195.656 143.01C199.934 140.892 203.752 144.786 203.439 148.791C203.357 149.877 203.357 151.212 203.439 152.602C204.507 151.994 205.611 151.553 206.733 151.304V151.276L226.146 148.404C225.493 146.793 224.757 145.053 223.91 143.157C219.77 133.905 215.299 126.081 215.253 126.007L229.569 114.426C229.789 114.822 235.052 124.028 239.689 134.725C233.396 151.249 226.339 171.354 222.825 186.727C222.687 187.344 222.549 187.961 222.411 188.587L203.596 191.376V191.349C199.483 191.652 196.079 189.185 194.064 185.015C192.04 185.457 189.731 185.503 187.854 184.288C187.863 184.297 177.568 187.307 176.114 176.62Z" fill="#CAE8EE"/>
<path d="M234.027 122.481C237.035 113.554 235.344 104.923 230.25 103.205C225.156 101.486 218.587 107.33 215.579 116.257C212.571 125.184 214.262 133.815 219.356 135.533C224.45 137.252 231.019 131.408 234.027 122.481Z" fill="#100523"/>
<path d="M247.151 166.199L234.417 156.993C233.902 157.702 233.828 158.254 233.828 158.263C233.856 158.079 234.307 153.532 225.603 137.238C220.828 128.299 215.851 120.612 215.796 120.539L228.961 111.968C229.219 112.364 235.3 121.735 240.747 132.294C249.892 150.006 251.742 159.828 247.151 166.199Z" fill="#100523"/>
<path d="M241.456 142.292C241.382 142.292 241.308 142.301 241.235 142.301V142.292H209.374V142.319C202.372 142.798 196.806 150.641 196.806 160.261C196.806 169.872 202.372 177.724 209.374 178.203V178.231H241.235V178.221C241.308 178.221 241.382 178.231 241.456 178.231C248.77 178.231 254.695 170.185 254.695 160.27C254.695 150.337 248.761 142.292 241.456 142.292Z" fill="white"/>
<path d="M245.494 155.539C237.416 159.58 228.446 161.375 219.466 161.375C211.987 161.697 205.684 157.785 198.858 155.603C198.545 157.085 198.379 158.641 198.379 160.252C198.379 169.347 203.642 176.767 210.266 177.218V177.236H240.397V177.227C240.471 177.227 240.535 177.236 240.609 177.236C247.528 177.236 253.131 169.632 253.131 160.252C253.131 156.892 252.413 153.762 251.171 151.129C249.607 152.906 247.739 154.416 245.494 155.539Z" fill="#CAE8EE"/>
<path d="M210.036 177.54C216.728 177.54 222.153 169.8 222.153 160.252C222.153 150.704 216.728 142.964 210.036 142.964C203.344 142.964 197.919 150.704 197.919 160.252C197.919 169.8 203.344 177.54 210.036 177.54Z" fill="#CAE8EE"/>
<path d="M208.914 172.155C213.995 172.155 218.114 166.224 218.114 158.908C218.114 151.592 213.995 145.661 208.914 145.661C203.832 145.661 199.713 151.592 199.713 158.908C199.713 166.224 203.832 172.155 208.914 172.155Z" fill="#CAE8EE"/>
<path d="M188.728 136.004C188.728 136.004 188.728 131.512 192.767 129.717C196.806 127.922 198.6 129.266 202.639 127.922C206.678 126.578 210.717 130.619 210.717 134.209C210.717 137.799 212.06 144.538 214.305 145.882C216.55 147.226 219.687 152.169 218.795 155.76C217.893 159.35 217.001 165.637 208.923 164.744C208.923 164.744 202.639 167.442 198.149 164.293C198.149 164.293 188.277 165.637 186.032 155.76C183.787 145.882 180.199 137.357 188.728 136.004Z" fill="#100523"/>
<path d="M168.211 98.1691C165.433 96.3187 162.019 97.1657 160.474 100.047L147.427 126.872C147.437 126.881 147.455 126.891 147.464 126.9C150.243 128.75 153.656 127.903 155.202 125.022L155.303 124.81L168.248 98.1967C168.248 98.1967 168.22 98.1783 168.211 98.1691Z" fill="#EF503E"/>
<path d="M153.27 108.028C150.491 106.178 147.078 107.025 145.532 109.906L145.431 110.118L137.426 126.504C137.436 126.513 137.454 126.522 137.463 126.532C140.242 128.382 143.655 127.535 145.201 124.654L153.306 108.056C153.316 108.056 153.288 108.037 153.27 108.028Z" fill="#EF503E"/>
<path d="M138.365 117.915C138.347 117.906 138.337 117.897 138.328 117.888C135.55 116.037 132.136 116.884 130.591 119.766L127.472 126.136C127.481 126.145 127.499 126.154 127.508 126.163C130.287 128.014 133.7 127.167 135.246 124.285L138.365 117.915Z" fill="#EF503E"/>
<path opacity="0.49" d="M183.015 275C226.637 275 262 273.492 262 271.631C262 269.77 226.637 268.262 183.015 268.262C139.392 268.262 104.029 269.77 104.029 271.631C104.029 273.492 139.392 275 183.015 275Z" fill="#100523"/>
<path d="M31.7414 116.912C49.2717 116.912 63.4828 102.693 63.4828 85.1523C63.4828 67.612 49.2717 53.3928 31.7414 53.3928C14.2111 53.3928 0 67.612 0 85.1523C0 102.693 14.2111 116.912 31.7414 116.912Z" fill="#F8AB92"/>
<path d="M29.1561 106.279L7.58113 80.4299L19.6705 70.3313L29.6069 82.225L61.3299 46.949L73.042 57.4894L29.1561 106.279Z" fill="#0097A7"/>
</svg>
