<?xml version="1.0" encoding="utf-8"?>
<!-- Generator: Adobe Illustrator 24.0.0, SVG Export Plug-In . SVG Version: 6.00 Build 0)  -->
<svg version="1.1" id="Capa_1" xmlns="http://www.w3.org/2000/svg" xmlns:xlink="http://www.w3.org/1999/xlink" x="0px" y="0px"
	 viewBox="0 0 306.28 305.93" style="enable-background:new 0 0 306.28 305.93;" xml:space="preserve">
<style type="text/css">
	.st0{fill:#FF4D27;}
	.st1{fill:#D83C0F;}
	.st2{fill:#FBFCFB;}
	.st3{fill:url(#SVGID_1_);}
	.st4{fill:url(#SVGID_2_);}
	.st5{fill:url(#SVGID_3_);}
	.st6{fill:#00D45B;}
	.st7{fill-rule:evenodd;clip-rule:evenodd;fill:#B6E6EA;}
</style>
<g>
	<path class="st0" d="M289,9.52l-54.09,42.07c-3.2,2.49-2.72,7.47,0.9,9.3l10.42,5.26c-27.57,47.95-69.28,86.17-124.66,114.06
		c-41.74,21.02-80.75,30.37-100.74,34.13c-3.85,0.72-7.32,2.93-9.61,6.11c-3.77,5.24-3.87,11.46,0,16.64
		c3.46,4.63,9.38,6.95,15.06,5.89c21.8-4.06,62.79-13.96,107.44-36.29c60.78-30.4,107.61-73.78,138.35-127.49l16.11,8.13
		c3.62,1.83,7.92-0.74,8.02-4.8l1.72-68.5C298.04,9.36,292.68,6.65,289,9.52z"/>
	<g>
		<path class="st1" d="M65.34,233.53c5.92-1.75,12.17-3.73,18.69-5.98c0.12-0.34,0.22-0.68,0.34-1.02
			c2.25-6.5,1.48-11.64-1.91-17.85c-1.77-3.24-3.27-6.54-4.55-9.87c-5.38,1.91-10.59,3.63-15.57,5.17c1.54,4.21,3.36,8.39,5.53,12.5
			c1.03,1.96,1.17,3.65,0.58,5.77C67.4,226,66.37,229.77,65.34,233.53z"/>
		<path class="st1" d="M221.89,101.5c-3.44,4.22-7.02,8.35-10.74,12.38c6.9,6.97,12.56,15.21,16.57,24.44
			c4.09-4.26,8.07-8.61,11.89-13.08C234.93,116.37,228.91,108.4,221.89,101.5z"/>
	</g>
	<path class="st2" d="M161.84,256.97c-14.54-0.18-29.09-3.42-42.73-10.39c-2.15-1.1-4.06-1.26-6.37-0.64
		c-14.91,3.99-29.85,7.86-44.78,11.75c-3.24,0.85-3.32,0.76-2.4-2.59c3.97-14.6,7.91-29.2,11.98-43.78
		c0.59-2.12,0.45-3.81-0.58-5.77c-29.5-55.83-0.02-123.42,60.99-139.94C190.52,51.37,245.86,85,257.43,138.23
		c11.64,53.53-21.71,105.35-75.17,116.71C175.79,256.32,169.21,256.96,161.84,256.97z M88.29,234.96c1.15,0.45,2.18-0.09,3.24-0.37
		c7.96-2.08,15.93-4.12,23.86-6.3c2.1-0.58,3.78-0.4,5.71,0.74c16.51,9.79,34.38,13.47,53.34,10.64c44.17-6.61,74.5-47.55,68.2-91.7
		c-6.35-44.43-48.15-75.11-92.76-68.1c-54.73,8.61-84.91,69.24-58.33,117.89c3.39,6.21,4.17,11.34,1.91,17.85
		c-2.18,6.29-4.04,12.76-5.09,19.39c-0.04,0.05-0.08,0.09-0.12,0.14C88.26,235.08,88.28,235.02,88.29,234.96z"/>
	
		<linearGradient id="SVGID_1_" gradientUnits="userSpaceOnUse" x1="162.3994" y1="66.3199" x2="162.3994" y2="152.5841" gradientTransform="matrix(1 0 0 -1 0 308)">
		<stop  offset="0.2077" style="stop-color:#C4C7C7;stop-opacity:0.7"/>
		<stop  offset="1" style="stop-color:#C4C7C7;stop-opacity:0"/>
	</linearGradient>
	<path class="st3" d="M161.84,256.97c-14.54-0.18-29.09-3.42-42.73-10.39c-2.15-1.1-4.06-1.26-6.37-0.64
		c-14.91,3.99-29.85,7.86-44.78,11.75c-3.24,0.85-3.32,0.76-2.4-2.59c3.97-14.6,7.91-29.2,11.98-43.78
		c0.59-2.12,0.45-3.81-0.58-5.77c-29.5-55.83-0.02-123.42,60.99-139.94C190.52,51.37,245.86,85,257.43,138.23
		c11.64,53.53-21.71,105.35-75.17,116.71C175.79,256.32,169.21,256.96,161.84,256.97z M88.29,234.96c1.15,0.45,2.18-0.09,3.24-0.37
		c7.96-2.08,15.93-4.12,23.86-6.3c2.1-0.58,3.78-0.4,5.71,0.74c16.51,9.79,34.38,13.47,53.34,10.64c44.17-6.61,74.5-47.55,68.2-91.7
		c-6.35-44.43-48.15-75.11-92.76-68.1c-54.73,8.61-84.91,69.24-58.33,117.89c3.39,6.21,4.17,11.34,1.91,17.85
		c-2.18,6.29-4.04,12.76-5.09,19.39c-0.04,0.05-0.08,0.09-0.12,0.14C88.26,235.08,88.28,235.02,88.29,234.96z"/>
	
		<linearGradient id="SVGID_2_" gradientUnits="userSpaceOnUse" x1="162.6126" y1="205.4476" x2="162.6126" y2="41.2664" gradientTransform="matrix(1 0 0 -1 0 308)">
		<stop  offset="0.1221" style="stop-color:#00D45B"/>
		<stop  offset="1" style="stop-color:#00A356;stop-opacity:0.84"/>
	</linearGradient>
	<path class="st4" d="M88.36,235c1.06-6.63,2.92-13.1,5.1-19.39c2.25-6.5,1.48-11.64-1.91-17.85
		c-26.58-48.65,3.61-109.28,58.33-117.89c44.61-7.02,86.41,23.67,92.76,68.1c6.31,44.15-24.02,85.09-68.2,91.7
		c-18.96,2.84-36.82-0.85-53.34-10.64c-1.93-1.14-3.6-1.32-5.71-0.74c-7.93,2.19-15.9,4.22-23.86,6.3c-1.06,0.28-2.1,0.82-3.24,0.37
		L88.36,235z M187.94,206.28c1.02,0,2.04,0.1,3.05-0.02c9.75-1.1,21.26-7.38,20.85-20.8c-0.05-1.58-0.08-3.05-1.78-3.86
		c-6.69-3.18-13.37-6.38-20.06-9.56c-2.17-1.03-3.83-0.46-5.28,1.47c-2.33,3.08-4.82,6.03-7.25,9.03c-1.3,1.61-2.82,2.06-4.85,1.26
		c-14.42-5.71-25.44-15.36-33.41-28.6c-1.22-2.03-1.12-3.71,0.54-5.49c2.21-2.37,4.43-4.76,5.9-7.72c0.71-1.44,1.01-2.86,0.36-4.39
		c-2.7-6.46-5.39-12.93-8.11-19.38c-0.56-1.34-1.34-2.81-2.8-3.03c-4.52-0.66-9.14-1.42-12.95,2.23
		c-7.31,7.01-10.11,15.56-8.43,25.48c1.54,9.08,6.48,16.55,11.9,23.73c10.29,13.62,22.12,25.53,37.94,32.66
		C171.31,202.77,179.15,206.32,187.94,206.28z"/>
	
		<linearGradient id="SVGID_3_" gradientUnits="userSpaceOnUse" x1="162.6126" y1="205.4476" x2="162.6126" y2="41.2664" gradientTransform="matrix(1 0 0 -1 0 308)">
		<stop  offset="0.1221" style="stop-color:#00D45B"/>
		<stop  offset="1" style="stop-color:#00A356;stop-opacity:0.84"/>
	</linearGradient>
	<path class="st5" d="M88.36,235c1.06-6.63,2.92-13.1,5.1-19.39c2.25-6.5,1.48-11.64-1.91-17.85
		c-26.58-48.65,3.61-109.28,58.33-117.89c44.61-7.02,86.41,23.67,92.76,68.1c6.31,44.15-24.02,85.09-68.2,91.7
		c-18.96,2.84-36.82-0.85-53.34-10.64c-1.93-1.14-3.6-1.32-5.71-0.74c-7.93,2.19-15.9,4.22-23.86,6.3c-1.06,0.28-2.1,0.82-3.24,0.37
		L88.36,235z M187.94,206.28c1.02,0,2.04,0.1,3.05-0.02c9.75-1.1,21.26-7.38,20.85-20.8c-0.05-1.58-0.08-3.05-1.78-3.86
		c-6.69-3.18-13.37-6.38-20.06-9.56c-2.17-1.03-3.83-0.46-5.28,1.47c-2.33,3.08-4.82,6.03-7.25,9.03c-1.3,1.61-2.82,2.06-4.85,1.26
		c-14.42-5.71-25.44-15.36-33.41-28.6c-1.22-2.03-1.12-3.71,0.54-5.49c2.21-2.37,4.43-4.76,5.9-7.72c0.71-1.44,1.01-2.86,0.36-4.39
		c-2.7-6.46-5.39-12.93-8.11-19.38c-0.56-1.34-1.34-2.81-2.8-3.03c-4.52-0.66-9.14-1.42-12.95,2.23
		c-7.31,7.01-10.11,15.56-8.43,25.48c1.54,9.08,6.48,16.55,11.9,23.73c10.29,13.62,22.12,25.53,37.94,32.66
		C171.31,202.77,179.15,206.32,187.94,206.28z"/>
	<path class="st6" d="M88.29,234.96c-0.02,0.06-0.03,0.12-0.05,0.18c0.04-0.05,0.08-0.09,0.12-0.14L88.29,234.96z"/>
	<path class="st2" d="M187.94,206.28c-8.8,0.04-16.63-3.51-24.38-7c-15.82-7.12-27.65-19.03-37.94-32.66
		c-5.42-7.18-10.36-14.64-11.9-23.73c-1.69-9.92,1.12-18.48,8.43-25.48c3.81-3.65,8.43-2.88,12.95-2.23
		c1.46,0.21,2.24,1.69,2.8,3.03c2.72,6.46,5.41,12.92,8.11,19.38c0.64,1.53,0.35,2.95-0.36,4.39c-1.47,2.96-3.69,5.35-5.9,7.72
		c-1.66,1.78-1.76,3.46-0.54,5.49c7.97,13.24,18.99,22.89,33.41,28.6c2.03,0.8,3.54,0.36,4.85-1.26c2.43-3,4.93-5.95,7.25-9.03
		c1.46-1.93,3.12-2.5,5.28-1.47c6.69,3.18,13.37,6.39,20.06,9.56c1.7,0.81,1.73,2.28,1.78,3.86c0.42,13.42-11.1,19.7-20.85,20.8
		C189.99,206.37,188.96,206.28,187.94,206.28z"/>
	<g>
		<polygon class="st7" points="79.39,87.13 73,94.7 55.35,60.34 72.34,80.24 78.73,72.67 96.38,107.03 		"/>
	</g>
	<g>
		<polygon class="st7" points="268.97,158.1 274.44,168.51 232.77,170.49 259.34,162.21 253.87,151.81 295.54,149.82 		"/>
	</g>
	<g>
		<polygon class="st7" points="146.52,263.1 156.13,263.25 141.18,297.59 145.69,272.62 136.08,272.47 151.03,238.14 		"/>
	</g>
</g>
</svg>
