<svg width="140" height="133" viewBox="0 0 140 133" fill="none" xmlns="http://www.w3.org/2000/svg">
<path d="M102.009 0H4.45573C2.18459 0 0.337952 1.84663 0.337952 4.11778V68.8773H106.127V4.11778C106.127 1.84663 104.28 0 102.009 0Z" fill="#B8E6EA"/>
<path d="M0.338013 58.3068V128.627C0.338013 131.047 2.29078 133 4.7105 133H101.754C104.174 133 106.127 131.047 106.127 128.627V58.3068H0.338013Z" fill="#EEF0F2"/>
<path d="M94.8348 11.6742H71.7625C70.595 11.6742 69.6399 12.6293 69.6399 13.7968V47.5668C69.6399 48.7342 70.595 49.6894 71.7625 49.6894H94.8348C96.0022 49.6894 96.9573 48.7342 96.9573 47.5668V13.7968C96.9786 12.6293 96.0234 11.6742 94.8348 11.6742Z" fill="white"/>
<path d="M74.7978 21.1405H91.7996" stroke="#BCBCC5" stroke-width="0.5" stroke-miterlimit="10"/>
<path d="M74.7978 27.1689H91.7996" stroke="#BCBCC5" stroke-width="0.5" stroke-miterlimit="10"/>
<path d="M74.7978 33.197H91.7996" stroke="#BCBCC5" stroke-width="0.5" stroke-miterlimit="10"/>
<path d="M88.0001 39.3098H78.6184C77.5571 39.3098 76.7081 40.1588 76.7081 41.2201V42.9182C76.7081 43.9795 77.5571 44.8285 78.6184 44.8285H88.0001C89.0614 44.8285 89.9104 43.9795 89.9104 42.9182V41.2201C89.9104 40.1588 89.0614 39.3098 88.0001 39.3098Z" fill="#FF4E33"/>
<path d="M51.0887 81.2943H15.663C14.814 81.2943 14.1135 81.9735 14.1135 82.8438V122.345C14.1135 123.194 14.7927 123.894 15.663 123.894H51.0887C51.9377 123.894 52.6381 123.215 52.6381 122.345V82.8438C52.6381 81.9948 51.9377 81.2943 51.0887 81.2943Z" fill="white"/>
<path d="M33.3867 77.9407C37.1145 77.9407 40.1364 74.9187 40.1364 71.1909C40.1364 67.4631 37.1145 64.4412 33.3867 64.4412C29.6589 64.4412 26.6369 67.4631 26.6369 71.1909C26.6369 74.9187 29.6589 77.9407 33.3867 77.9407Z" fill="white"/>
<path d="M95.4292 81.2943H60.0035C59.1545 81.2943 58.454 81.9735 58.454 82.8438V122.345C58.454 123.194 59.1333 123.894 60.0035 123.894H95.4292C96.2782 123.894 96.9786 123.215 96.9786 122.345V82.8438C96.9786 81.9948 96.2782 81.2943 95.4292 81.2943Z" fill="white"/>
<path d="M77.727 77.9407C81.4548 77.9407 84.4768 74.9187 84.4768 71.1909C84.4768 67.4631 81.4548 64.4412 77.727 64.4412C73.9992 64.4412 70.9772 67.4631 70.9772 71.1909C70.9772 74.9187 73.9992 77.9407 77.727 77.9407Z" fill="white"/>
<path d="M10.0807 12.9686C11.4991 12.9686 12.649 11.8188 12.649 10.4003C12.649 8.9819 11.4991 7.83203 10.0807 7.83203C8.66226 7.83203 7.51239 8.9819 7.51239 10.4003C7.51239 11.8188 8.66226 12.9686 10.0807 12.9686Z" fill="#36768A"/>
<path d="M17.2337 12.9686C18.6521 12.9686 19.802 11.8188 19.802 10.4003C19.802 8.9819 18.6521 7.83203 17.2337 7.83203C15.8153 7.83203 14.6654 8.9819 14.6654 10.4003C14.6654 11.8188 15.8153 12.9686 17.2337 12.9686Z" fill="#FF4E33"/>
<path d="M24.408 12.9686C25.8265 12.9686 26.9763 11.8188 26.9763 10.4003C26.9763 8.9819 25.8265 7.83203 24.408 7.83203C22.9896 7.83203 21.8397 8.9819 21.8397 10.4003C21.8397 11.8188 22.9896 12.9686 24.408 12.9686Z" fill="white"/>
<path d="M34.363 13.9877C32.4527 13.9877 30.9033 12.4382 30.9033 10.5279C30.9033 8.61759 32.4527 7.06812 34.363 7.06812C36.2734 7.06812 37.8228 8.61759 37.8228 10.5279C37.8228 12.4382 36.2734 13.9877 34.363 13.9877Z" fill="#BABFC2"/>
<path d="M41.8557 13.9877C39.9453 13.9877 38.3959 12.4382 38.3959 10.5279C38.3959 8.61759 39.9453 7.06812 41.8557 7.06812C43.766 7.06812 45.3154 8.61759 45.3154 10.5279C45.3154 12.4382 43.766 13.9877 41.8557 13.9877Z" fill="#BABFC2"/>
<path d="M34.7873 12.8202C34.7448 12.8202 34.7024 12.7989 34.6599 12.7777L32.8769 10.9947C32.6222 10.74 32.6222 10.3155 32.8769 10.0608L34.6599 8.27786C34.7236 8.21418 34.8297 8.21418 34.8934 8.27786C34.9571 8.34154 34.9571 8.44767 34.8934 8.51134L33.1104 10.2943C32.9831 10.4217 32.9831 10.6339 33.1104 10.7613L34.8934 12.5442C34.9571 12.6079 34.9571 12.714 34.8934 12.7777C34.8722 12.7989 34.8297 12.8202 34.7873 12.8202Z" fill="white"/>
<path d="M40.9851 12.8202C40.9427 12.8202 40.9002 12.7989 40.8578 12.7777C40.7941 12.714 40.7941 12.6079 40.8578 12.5442L42.6407 10.7613C42.7681 10.6339 42.7681 10.4217 42.6407 10.2943L40.8578 8.51134C40.7941 8.44767 40.7941 8.34154 40.8578 8.27786C40.9214 8.21418 41.0276 8.21418 41.0912 8.27786L42.8742 10.0608C43.1289 10.3155 43.1289 10.74 42.8742 10.9947L41.0912 12.7565C41.07 12.7989 41.0276 12.8202 40.9851 12.8202Z" fill="white"/>
<path d="M25.7026 27.2963L21.3089 24.7704C20.7782 24.452 20.099 24.452 19.5684 24.7704L15.1746 27.2963C14.644 27.6146 14.3044 28.1877 14.3044 28.8033V33.8762C14.3044 34.4918 14.644 35.0649 15.1746 35.3832L19.5684 37.9091C20.099 38.2275 20.7782 38.2275 21.3089 37.9091L25.7026 35.3832C26.2332 35.0649 26.5728 34.4918 26.5728 33.8762V28.8033C26.5728 28.1877 26.2332 27.6146 25.7026 27.2963Z" fill="#FF4E33"/>
<path d="M54.9942 28.8031H31.9643C30.903 28.8031 30.0328 29.6734 30.0328 30.7346V32.4327C30.0328 33.494 30.903 34.3642 31.9643 34.3642H54.9942C56.0555 34.3642 56.9257 33.494 56.9257 32.4327V30.7346C56.9257 29.6734 56.0555 28.8031 54.9942 28.8031Z" fill="white"/>
<path d="M47.2467 90.8245H19.5259C18.8255 90.8245 18.2736 90.2514 18.2736 89.5721C18.2736 88.8717 18.8467 88.3198 19.5259 88.3198H47.2467C47.9471 88.3198 48.499 88.8929 48.499 89.5721C48.499 90.2726 47.9471 90.8245 47.2467 90.8245Z" fill="#C1C1C9"/>
<path d="M92.1814 88.2987H63.2508C62.89 88.2987 62.5928 88.5959 62.5928 88.9567V90.1453C62.5928 90.5062 62.89 90.8033 63.2508 90.8033H92.1814C92.5423 90.8033 92.8394 90.5062 92.8394 90.1453V88.9567C92.8394 88.5959 92.5423 88.2987 92.1814 88.2987Z" fill="#C1C1C9"/>
<path d="M92.1814 92.9683H63.2508C62.89 92.9683 62.5928 93.2654 62.5928 93.6263V94.8149C62.5928 95.1757 62.89 95.4729 63.2508 95.4729H92.1814C92.5423 95.4729 92.8394 95.1757 92.8394 94.8149V93.6263C92.8394 93.2654 92.5423 92.9683 92.1814 92.9683Z" fill="#C1C1C9"/>
<path d="M92.1814 97.6382H63.2508C62.89 97.6382 62.5928 97.9353 62.5928 98.2962V99.4848C62.5928 99.8457 62.89 100.143 63.2508 100.143H92.1814C92.5423 100.143 92.8394 99.8457 92.8394 99.4848V98.2962C92.8394 97.9353 92.5423 97.6382 92.1814 97.6382Z" fill="#C1C1C9"/>
<path d="M92.1814 102.308H63.2508C62.89 102.308 62.5928 102.605 62.5928 102.966V104.154C62.5928 104.515 62.89 104.812 63.2508 104.812H92.1814C92.5423 104.812 92.8394 104.515 92.8394 104.154V102.966C92.8394 102.605 92.5423 102.308 92.1814 102.308Z" fill="#C1C1C9"/>
<path d="M92.1814 106.978H63.2508C62.89 106.978 62.5928 107.275 62.5928 107.636V108.824C62.5928 109.185 62.89 109.482 63.2508 109.482H92.1814C92.5423 109.482 92.8394 109.185 92.8394 108.824V107.636C92.8394 107.275 92.5423 106.978 92.1814 106.978Z" fill="#C1C1C9"/>
<path d="M85.941 111.647H69.4911C69.1303 111.647 68.8331 111.944 68.8331 112.305V113.494C68.8331 113.855 69.1303 114.152 69.4911 114.152H85.941C86.3019 114.152 86.599 113.855 86.599 113.494V112.305C86.599 111.944 86.3019 111.647 85.941 111.647Z" fill="#C1C1C9"/>
<path d="M47.841 92.9683H18.9316C18.5708 92.9683 18.2736 93.2654 18.2736 93.6263V94.8149C18.2736 95.1757 18.5708 95.4729 18.9316 95.4729H47.8622C48.223 95.4729 48.5202 95.1757 48.5202 94.8149V93.6263C48.499 93.2654 48.2018 92.9683 47.841 92.9683Z" fill="#C1C1C9"/>
<path d="M47.2467 100.164H19.5259C18.8255 100.164 18.2736 99.5911 18.2736 98.9119C18.2736 98.2114 18.8467 97.6595 19.5259 97.6595H47.2467C47.9471 97.6595 48.499 98.2326 48.499 98.9119C48.499 99.5911 47.9471 100.164 47.2467 100.164Z" fill="#C1C1C9"/>
<path d="M47.2467 104.833H19.5259C18.8255 104.833 18.2736 104.26 18.2736 103.581C18.2736 102.881 18.8467 102.329 19.5259 102.329H47.2467C47.9471 102.329 48.499 102.902 48.499 103.581C48.499 104.26 47.9471 104.833 47.2467 104.833Z" fill="#C1C1C9"/>
<path d="M47.2467 109.503H19.5259C18.8255 109.503 18.2736 108.93 18.2736 108.251C18.2736 107.551 18.8467 106.999 19.5259 106.999H47.2467C47.9471 106.999 48.499 107.572 48.499 108.251C48.499 108.93 47.9471 109.503 47.2467 109.503Z" fill="#C1C1C9"/>
<path d="M41.0064 114.173H25.7664C25.0659 114.173 24.514 113.6 24.514 112.921C24.514 112.22 25.0871 111.668 25.7664 111.668H41.0064C41.7068 111.668 42.2587 112.241 42.2587 112.921C42.2799 113.6 41.7068 114.173 41.0064 114.173Z" fill="#C1C1C9"/>
<path d="M106.127 87.747V28.1453C103.346 28.0604 100.523 28.3575 97.7215 29.1004C79.0004 34.1734 69.9795 54.8896 79.0216 72.0188C79.34 72.6131 79.3825 73.1437 79.1915 73.7805C77.9391 78.2591 76.7293 82.7377 75.5194 87.2163C75.2435 88.2352 75.2647 88.2776 76.2623 88.0017C80.8471 86.813 85.4318 85.6244 89.9953 84.3933C90.6958 84.2023 91.2901 84.2447 91.9481 84.5844C96.1295 86.7281 100.587 87.7045 105.044 87.7682C105.426 87.7894 105.745 87.747 106.127 87.747Z" fill="#C1C1C9"/>
<path d="M109.289 81.4217C104.832 81.358 100.375 80.3816 96.1931 78.2378C95.5351 77.8982 94.9408 77.8557 94.2404 78.0468C89.6769 79.2779 85.0921 80.4665 80.5074 81.6551C79.5098 81.9098 79.4885 81.8886 79.7645 80.8698C80.9743 76.3912 82.1842 71.9126 83.4365 67.4339C83.6275 66.7759 83.5851 66.2665 83.2667 65.6722C74.2246 48.5431 83.2667 27.8268 101.967 22.7539C118.098 18.3814 135.057 28.6971 138.602 45.0196C142.168 61.4271 131.937 77.3251 115.551 80.8061C113.556 81.2306 111.539 81.4217 109.289 81.4217ZM86.7265 74.6719C87.0873 74.7992 87.4057 74.6507 87.7241 74.5658C90.165 73.929 92.606 73.3134 95.047 72.6342C95.6837 72.4644 96.2144 72.5069 96.7875 72.8677C101.86 75.8605 107.337 77.0067 113.152 76.1365C126.694 74.12 135.991 61.5544 134.06 48.0124C132.107 34.3856 119.287 24.9826 105.617 27.1264C88.8278 29.7584 79.5734 48.352 87.7241 63.2737C88.7641 65.184 88.9976 66.7547 88.3184 68.7499C87.6604 70.6815 87.0873 72.6554 86.7477 74.6931C86.7265 74.7143 86.7265 74.7143 86.7053 74.7356C86.7265 74.7143 86.7265 74.6931 86.7265 74.6719Z" fill="#FCFDFC"/>
<path d="M86.7478 74.6932C87.0662 72.6555 87.6393 70.6815 88.3185 68.75C89.019 66.7548 88.7643 65.1841 87.7242 63.2738C79.5735 48.3521 88.8279 29.7584 105.617 27.1264C119.308 24.9826 132.128 34.3856 134.06 48.0125C135.991 61.5545 126.695 74.0989 113.153 76.1365C107.337 77.0068 101.86 75.8818 96.7876 72.8678C96.1932 72.5069 95.6838 72.4645 95.0471 72.6343C92.6061 73.3135 90.1651 73.9291 87.7242 74.5658C87.4058 74.6507 87.0874 74.8205 86.7478 74.6932ZM117.292 65.8845C117.61 65.8845 117.928 65.9057 118.225 65.8845C121.218 65.5449 124.742 63.6134 124.614 59.4956C124.593 59.0074 124.593 58.5617 124.063 58.3069C122.004 57.3306 119.966 56.3542 117.907 55.3778C117.249 55.0594 116.74 55.2292 116.294 55.8235C115.572 56.7575 114.808 57.6702 114.065 58.5829C113.662 59.0711 113.195 59.2197 112.579 58.9649C108.165 57.2032 104.768 54.2528 102.327 50.1987C101.945 49.5832 101.988 49.0526 102.497 48.5219C103.176 47.8002 103.856 47.0573 104.301 46.1446C104.514 45.6989 104.62 45.2744 104.408 44.8074C103.58 42.8334 102.752 40.8382 101.924 38.8642C101.754 38.4609 101.521 37.994 101.075 37.9303C99.6955 37.7393 98.2734 37.4846 97.1059 38.6095C94.856 40.7533 94.007 43.3853 94.5164 46.4206C94.9834 49.2011 96.5116 51.4935 98.1672 53.701C101.33 57.8824 104.959 61.5333 109.799 63.7195C112.197 64.802 114.596 65.8845 117.292 65.8845Z" fill="#0CD361"/>
<path d="M86.7266 74.6721C86.7266 74.6935 86.7266 74.7149 86.7052 74.7363C86.7266 74.7149 86.7266 74.7149 86.748 74.6935L86.7266 74.6721Z" fill="#0CD361"/>
<path d="M117.291 65.8845C114.596 65.9057 112.197 64.802 109.82 63.7407C104.959 61.5544 101.351 57.9036 98.1883 53.7222C96.5327 51.5147 95.0044 49.2223 94.5375 46.4417C94.028 43.4065 94.8771 40.7745 97.127 38.6307C98.2944 37.5057 99.7165 37.7392 101.096 37.9515C101.542 38.0152 101.775 38.4609 101.945 38.8854C102.773 40.8594 103.601 42.8546 104.429 44.8286C104.62 45.2956 104.535 45.7413 104.323 46.1658C103.877 47.0785 103.198 47.8002 102.518 48.5431C102.009 49.095 101.988 49.6044 102.349 50.2199C104.789 54.274 108.164 57.2456 112.601 58.9861C113.216 59.2408 113.683 59.0923 114.086 58.6041C114.829 57.6914 115.593 56.7787 116.315 55.8447C116.761 55.2504 117.27 55.0806 117.928 55.399C119.987 56.3754 122.025 57.3517 124.084 58.3281C124.614 58.5828 124.614 59.0286 124.635 59.5168C124.763 63.6346 121.239 65.5661 118.247 65.9057C117.907 65.9057 117.61 65.8845 117.291 65.8845Z" fill="#FCFDFC"/>
</svg>
