<svg width="814" height="285" viewBox="0 0 814 285" fill="none" xmlns="http://www.w3.org/2000/svg">
<mask id="mask0_2501_98" style="mask-type:alpha" maskUnits="userSpaceOnUse" x="0" y="0" width="814" height="285">
<rect width="814" height="285" rx="16" fill="#F6F3FF"/>
</mask>
<g mask="url(#mask0_2501_98)">
<rect width="814" height="285" rx="16" fill="url(#paint0_linear_2501_98)"/>
<mask id="mask1_2501_98" style="mask-type:alpha" maskUnits="userSpaceOnUse" x="388" y="221" width="114" height="24">
<rect width="113.87" height="23.7123" transform="matrix(-1 -8.74228e-08 -8.74228e-08 1 501.869 221)" fill="#D9D9D9"/>
</mask>
<g mask="url(#mask1_2501_98)">
<path fill-rule="evenodd" clip-rule="evenodd" d="M443.097 246.296C445.975 247.664 449.397 248.456 453.068 248.456C456.873 248.456 460.41 247.605 463.352 246.145C465.648 247.585 468.617 248.454 471.86 248.454C474.203 248.454 476.404 248 478.311 247.205C479.818 247.993 481.655 248.456 483.639 248.456C486.028 248.456 488.206 247.784 489.848 246.682C491.03 247.763 492.835 248.453 494.858 248.453C498.42 248.453 501.309 246.311 501.309 243.669C501.309 241.027 498.42 238.885 494.858 238.885C493.967 238.885 493.119 239.019 492.347 239.261C491.091 236.68 487.808 234.818 483.924 234.731C481.878 231.297 477.246 228.901 471.86 228.901C471.194 228.901 470.54 228.938 469.901 229.009C466.976 224.282 460.539 221 453.068 221C445.624 221 439.206 224.259 436.267 228.958C435.797 228.921 435.32 228.901 434.837 228.901C433.049 228.901 431.345 229.165 429.791 229.643C427.2 227.892 423.755 226.825 419.973 226.825C413.279 226.825 407.637 230.171 405.923 234.73C405.839 234.728 405.754 234.728 405.669 234.728C401.661 234.728 398.248 236.617 396.961 239.261C396.189 239.019 395.34 238.885 394.449 238.885C390.886 238.885 387.998 241.027 387.998 243.669C387.998 246.311 390.886 248.453 394.449 248.453C396.472 248.453 398.277 247.762 399.46 246.682C401.102 247.784 403.28 248.456 405.669 248.456C408.076 248.456 410.268 247.774 411.914 246.658C414.223 247.795 416.994 248.457 419.973 248.457C422.774 248.457 425.391 247.872 427.613 246.856C429.688 247.866 432.17 248.454 434.837 248.454C437.964 248.454 440.837 247.646 443.097 246.296Z" fill="white"/>
</g>
<mask id="mask2_2501_98" style="mask-type:alpha" maskUnits="userSpaceOnUse" x="-66" y="28" width="133" height="29">
<rect width="132.259" height="27.5416" transform="matrix(-1 -8.74228e-08 -8.74228e-08 1 66.2578 28.709)" fill="#D9D9D9"/>
</mask>
<g mask="url(#mask2_2501_98)">
<path fill-rule="evenodd" clip-rule="evenodd" d="M-2.00643 58.0913C1.33597 59.6788 5.30978 60.5993 9.57348 60.5993C13.9929 60.5993 18.1009 59.6104 21.5171 57.9146C24.184 59.5877 27.633 60.5965 31.3996 60.5965C34.1219 60.5965 36.6781 60.0696 38.8932 59.1458C40.643 60.061 42.7776 60.5985 45.0815 60.5985C47.8564 60.5985 50.3857 59.8188 52.2928 58.5386C53.6666 59.7937 55.7635 60.5957 58.113 60.5957C62.251 60.5957 65.6055 58.1079 65.6055 55.0391C65.6055 51.9702 62.251 49.4824 58.113 49.4824C57.0784 49.4824 56.0927 49.6379 55.1962 49.9192C53.7373 46.9211 49.9237 44.7578 45.4111 44.657C43.0354 40.6695 37.6557 37.8867 31.3996 37.8867C30.6266 37.8867 29.8669 37.9292 29.1247 38.0112C25.7279 32.5215 18.251 28.709 9.57348 28.709C0.926834 28.709 -6.52766 32.4944 -9.94128 37.9526C-10.4863 37.9091 -11.0398 37.8867 -11.6004 37.8867C-13.6773 37.8867 -15.6576 38.1934 -17.4635 38.7491C-20.4734 36.7155 -24.4754 35.4756 -28.8678 35.4756C-36.6433 35.4756 -43.1951 39.3607 -45.1864 44.6562C-45.2837 44.6543 -45.3813 44.6533 -45.4792 44.6533C-50.1353 44.6533 -54.1 46.8486 -55.5941 49.9197C-56.4911 49.6381 -57.4773 49.4824 -58.5126 49.4824C-62.6506 49.4824 -66.0051 51.9702 -66.0051 55.0391C-66.0051 58.1079 -62.6506 60.5957 -58.5126 60.5957C-56.1626 60.5957 -54.0653 59.7933 -52.6916 58.5379C-50.7844 59.8184 -48.2546 60.5985 -45.4792 60.5985C-42.6846 60.5985 -40.139 59.8076 -38.2272 58.5112C-35.5458 59.8319 -32.328 60.6013 -28.8678 60.6013C-25.6132 60.6013 -22.573 59.9206 -19.9919 58.7406C-17.5819 59.914 -14.6986 60.5965 -11.6004 60.5965C-7.96818 60.5965 -4.63141 59.6585 -2.00643 58.0913Z" fill="white"/>
</g>
<mask id="mask3_2501_98" style="mask-type:alpha" maskUnits="userSpaceOnUse" x="454" y="37" width="47" height="11">
<rect width="45.8224" height="9.5421" transform="matrix(-1 -8.74228e-08 -8.74228e-08 1 500.781 37.709)" fill="#D9D9D9"/>
</mask>
<g mask="url(#mask3_2501_98)">
<path fill-rule="evenodd" clip-rule="evenodd" d="M477.13 47.8893C478.287 48.439 479.664 48.7577 481.141 48.7577C482.672 48.7577 484.095 48.4151 485.279 47.8275C486.203 48.4072 487.398 48.7567 488.703 48.7567C489.646 48.7567 490.532 48.5741 491.3 48.2539C491.906 48.5713 492.646 48.7578 493.445 48.7578C494.406 48.7578 495.283 48.4876 495.944 48.044C496.42 48.4782 497.145 48.7556 497.959 48.7556C499.392 48.7556 500.555 47.8937 500.555 46.8304C500.555 45.7672 499.392 44.9053 497.959 44.9053C497.6 44.9053 497.259 44.9591 496.949 45.0565C496.442 44.0181 495.121 43.2691 493.558 43.2346C492.735 41.8529 490.871 40.8887 488.703 40.8887C488.435 40.8887 488.172 40.9034 487.914 40.9319C486.737 39.0299 484.147 37.709 481.141 37.709C478.145 37.709 475.562 39.0204 474.38 40.9114C474.191 40.8964 474 40.8887 473.806 40.8887C473.087 40.8887 472.401 40.995 471.775 41.1875C470.732 40.4831 469.346 40.0537 467.824 40.0537C465.13 40.0537 462.86 41.3998 462.17 43.2344C462.136 43.2337 462.102 43.2334 462.068 43.2334C460.456 43.2334 459.082 43.9935 458.564 45.057C458.253 44.9593 457.911 44.9053 457.552 44.9053C456.119 44.9053 454.956 45.7672 454.956 46.8304C454.956 47.8937 456.119 48.7556 457.552 48.7556C458.366 48.7556 459.092 48.4779 459.568 48.0432C460.229 48.4873 461.106 48.7578 462.068 48.7578C463.037 48.7578 463.919 48.4837 464.581 48.0344C465.51 48.4921 466.625 48.7588 467.824 48.7588C468.952 48.7588 470.005 48.5229 470.9 48.114C471.735 48.5204 472.733 48.7567 473.806 48.7567C475.064 48.7567 476.22 48.4319 477.13 47.8893Z" fill="white"/>
</g>
<mask id="mask4_2501_98" style="mask-type:alpha" maskUnits="userSpaceOnUse" x="702" y="132" width="180" height="38">
<rect width="179.058" height="37.2872" transform="matrix(-1 -8.74228e-08 -8.74228e-08 1 881.059 132.709)" fill="#D9D9D9"/>
</mask>
<g mask="url(#mask4_2501_98)">
<path fill-rule="evenodd" clip-rule="evenodd" d="M788.638 172.488C793.163 174.637 798.543 175.884 804.316 175.884C810.3 175.884 815.862 174.544 820.487 172.248C824.098 174.514 828.767 175.879 833.867 175.879C837.552 175.879 841.013 175.166 844.012 173.916C846.381 175.155 849.271 175.882 852.39 175.882C856.146 175.882 859.569 174.827 862.151 173.094C864.011 174.793 866.85 175.879 870.03 175.879C875.632 175.879 880.174 172.511 880.174 168.356C880.174 164.201 875.632 160.833 870.03 160.833C868.63 160.833 867.296 161.043 866.083 161.424C864.108 157.365 858.945 154.437 852.837 154.3C849.62 148.901 842.337 145.134 833.867 145.134C832.82 145.134 831.79 145.191 830.785 145.303C826.186 137.87 816.064 132.709 804.316 132.709C792.61 132.709 782.518 137.834 777.896 145.223C777.158 145.164 776.409 145.134 775.65 145.134C772.838 145.134 770.157 145.549 767.712 146.301C763.637 143.548 758.22 141.87 752.273 141.87C741.747 141.87 732.877 147.13 730.181 154.299C730.049 154.296 729.916 154.295 729.784 154.295C723.48 154.295 718.112 157.267 716.089 161.425C714.875 161.044 713.539 160.833 712.137 160.833C706.535 160.833 701.994 164.201 701.994 168.356C701.994 172.511 706.535 175.879 712.137 175.879C715.319 175.879 718.159 174.792 720.019 173.092C722.601 174.826 726.026 175.882 729.784 175.882C733.567 175.882 737.013 174.812 739.601 173.057C743.232 174.845 747.588 175.887 752.273 175.887C756.68 175.887 760.796 174.965 764.29 173.367C767.553 174.956 771.456 175.879 775.65 175.879C780.567 175.879 785.084 174.61 788.638 172.488Z" fill="white"/>
</g>
<path opacity="0.4" fill-rule="evenodd" clip-rule="evenodd" d="M635.62 80.8086C626.79 80.8086 619.631 87.9674 619.631 96.7982C619.631 105.629 626.79 112.788 635.62 112.788H834.891V80.8086H635.62ZM468.729 185.443C468.729 169.986 481.259 157.455 496.717 157.455H650.7V157.372L829.344 157.372V189.55H799.328V189.562L775.358 189.562C769.79 189.562 765.276 194.076 765.276 199.644C765.276 204.514 768.729 208.578 773.32 209.52L658.951 209.52V209.521L836.002 209.521V265L650.701 265V264.819H485.347C476.516 264.819 469.357 257.66 469.357 248.829C469.357 239.999 476.516 232.84 485.347 232.84H534.477C539.748 232.735 543.988 228.43 543.988 223.134C543.988 217.882 539.819 213.605 534.61 213.431H496.717C481.259 213.431 468.729 200.901 468.729 185.443Z" fill="white"/>
</g>
<defs>
<linearGradient id="paint0_linear_2501_98" x1="0" y1="142.5" x2="814" y2="142.5" gradientUnits="userSpaceOnUse">
<stop stop-color="#DEF3F5"/>
<stop offset="1" stop-color="#7DDBEA"/>
</linearGradient>
</defs>
</svg>
