<svg width="4010" height="609" viewBox="0 0 4010 609" fill="none" xmlns="http://www.w3.org/2000/svg">
<mask id="mask0_605_101" style="mask-type:alpha" maskUnits="userSpaceOnUse" x="0" y="0" width="4010" height="609">
<rect width="4010" height="609" fill="#D9D9D9"/>
</mask>
<g mask="url(#mask0_605_101)">
<path fill-rule="evenodd" clip-rule="evenodd" d="M0 0H2780V139C2780 178.212 2748.21 210 2709 210H2647.54C2629.88 215.432 2617.04 231.879 2617.04 251.324C2617.04 271.21 2630.47 287.959 2648.75 293H2696C2728.58 293 2755 319.415 2755 352C2755 384.585 2728.58 411 2696 411H2597.49C2592.05 411.902 2587.91 416.627 2587.91 422.321C2587.91 428.659 2593.04 433.797 2599.38 433.797H2622.66C2621.96 433.93 2621.24 434 2620.5 434H2622C2657.35 434 2686 462.654 2686 498C2686 533.346 2657.35 562 2622 562H1463.5C1464.01 562 1464.51 562.045 1465 562.132H1447.16C1442.54 562.132 1438.79 565.879 1438.79 570.502C1438.79 573.787 1440.69 576.63 1443.44 578H1524.5C1533.06 578 1540 584.94 1540 593.5C1540 602.06 1533.06 609 1524.5 609H0V579V578V562V434V411V295V293V210V208V0Z" fill="url(#paint0_linear_605_101)"/>
<mask id="mask1_605_101" style="mask-type:alpha" maskUnits="userSpaceOnUse" x="1229" y="446" width="166" height="61">
<rect x="1229" y="446.805" width="165.106" height="59.9627" fill="#D9D9D9"/>
</mask>
<g mask="url(#mask1_605_101)">
<path fill-rule="evenodd" clip-rule="evenodd" d="M1258.95 510.778C1251.89 514.233 1243.5 516.236 1234.5 516.236C1225.17 516.236 1216.5 514.084 1209.29 510.394C1203.65 514.039 1196.37 516.236 1188.41 516.236C1182.66 516.236 1177.26 515.088 1172.58 513.076C1168.89 515.066 1164.38 516.235 1159.52 516.235C1153.66 516.235 1148.32 514.539 1144.29 511.754C1141.39 514.488 1136.96 516.235 1132 516.235C1123.26 516.235 1116.18 510.819 1116.18 504.137C1116.18 497.456 1123.26 492.04 1132 492.04C1134.18 492.04 1136.26 492.378 1138.15 492.989C1141.23 486.459 1149.29 481.747 1158.82 481.528C1163.84 472.849 1175.2 466.793 1188.41 466.793C1190.04 466.793 1191.64 466.886 1193.21 467.064C1200.38 455.109 1216.17 446.805 1234.5 446.805C1252.77 446.805 1268.51 455.05 1275.72 466.937C1276.87 466.842 1278.04 466.793 1279.22 466.793C1283.6 466.793 1287.77 467.459 1291.58 468.666C1297.94 464.234 1306.4 461.532 1315.68 461.532C1332.1 461.532 1345.94 469.994 1350.14 481.526C1350.35 481.522 1350.56 481.52 1350.76 481.52C1360.6 481.52 1368.97 486.301 1372.13 492.989C1374.02 492.378 1376.1 492.04 1378.28 492.04C1387.02 492.04 1394.11 497.456 1394.11 504.137C1394.11 510.819 1387.02 516.235 1378.28 516.235C1373.32 516.235 1368.89 514.488 1365.99 511.754C1361.96 514.539 1356.62 516.235 1350.76 516.235C1344.86 516.235 1339.48 514.511 1335.44 511.685C1329.78 514.56 1322.99 516.235 1315.68 516.235C1308.81 516.235 1302.4 514.755 1296.95 512.191C1291.86 514.748 1285.77 516.236 1279.22 516.236C1271.54 516.236 1264.5 514.193 1258.95 510.778Z" fill="white"/>
</g>
<mask id="mask2_605_101" style="mask-type:alpha" maskUnits="userSpaceOnUse" x="1075" y="446" width="166" height="61">
<rect width="165.106" height="59.9627" transform="matrix(-1 0 0 1 1240.11 446.805)" fill="#D9D9D9"/>
</mask>
<g mask="url(#mask2_605_101)">
<path fill-rule="evenodd" clip-rule="evenodd" d="M1210.15 510.778C1217.21 514.233 1225.6 516.236 1234.6 516.236C1243.93 516.236 1252.61 514.084 1259.82 510.394C1265.45 514.039 1272.74 516.236 1280.7 516.236C1286.45 516.236 1291.85 515.088 1296.53 513.076C1300.22 515.066 1304.73 516.235 1309.59 516.235C1315.45 516.235 1320.79 514.539 1324.81 511.754C1327.71 514.488 1332.14 516.235 1337.11 516.235C1345.85 516.235 1352.93 510.819 1352.93 504.137C1352.93 497.456 1345.85 492.04 1337.11 492.04C1334.92 492.04 1332.84 492.378 1330.95 492.989C1327.87 486.459 1319.82 481.747 1310.28 481.528C1305.26 472.849 1293.9 466.793 1280.7 466.793C1279.06 466.793 1277.46 466.886 1275.9 467.064C1268.72 455.109 1252.93 446.805 1234.6 446.805C1216.34 446.805 1200.6 455.05 1193.39 466.937C1192.24 466.842 1191.07 466.793 1189.89 466.793C1185.51 466.793 1181.33 467.459 1177.52 468.666C1171.16 464.234 1162.71 461.532 1153.43 461.532C1137 461.532 1123.16 469.994 1118.96 481.526C1118.76 481.522 1118.55 481.52 1118.34 481.52C1108.51 481.52 1100.13 486.301 1096.98 492.989C1095.09 492.378 1093.01 492.04 1090.82 492.04C1082.08 492.04 1075 497.456 1075 504.137C1075 510.819 1082.08 516.235 1090.82 516.235C1095.79 516.235 1100.22 514.488 1103.12 511.754C1107.14 514.539 1112.48 516.235 1118.34 516.235C1124.25 516.235 1129.63 514.511 1133.66 511.685C1139.33 514.56 1146.12 516.235 1153.43 516.235C1160.29 516.235 1166.71 514.755 1172.16 512.191C1177.25 514.748 1183.34 516.236 1189.89 516.236C1197.56 516.236 1204.61 514.193 1210.15 510.778Z" fill="white"/>
</g>
<mask id="mask3_605_101" style="mask-type:alpha" maskUnits="userSpaceOnUse" x="1454" y="259" width="88" height="20">
<rect width="87.0561" height="18.6897" transform="matrix(-1 0 0 1 1541.2 259.363)" fill="#D9D9D9"/>
</mask>
<g mask="url(#mask3_605_101)">
<path fill-rule="evenodd" clip-rule="evenodd" d="M1496.26 279.302C1498.47 280.379 1501.08 281.004 1503.89 281.004C1506.8 281.004 1509.5 280.332 1511.75 279.181C1513.51 280.316 1515.78 281.001 1518.26 281.001C1520.05 281.001 1521.73 280.644 1523.18 280.019C1524.33 280.642 1525.74 281.008 1527.26 281.008C1529.09 281.008 1530.75 280.479 1532.01 279.61C1532.91 280.462 1534.29 281.006 1535.84 281.006C1538.56 281.006 1540.77 279.318 1540.77 277.236C1540.77 275.153 1538.56 273.465 1535.84 273.465C1535.16 273.465 1534.51 273.57 1533.92 273.761C1532.96 271.728 1530.45 270.26 1527.48 270.19C1525.92 267.481 1522.38 265.59 1518.26 265.59C1517.75 265.59 1517.25 265.619 1516.76 265.675C1514.52 261.95 1509.6 259.363 1503.89 259.363C1498.2 259.363 1493.29 261.931 1491.04 265.635C1490.68 265.605 1490.32 265.59 1489.95 265.59C1488.58 265.59 1487.28 265.798 1486.09 266.174C1484.11 264.794 1481.48 263.953 1478.59 263.953C1473.47 263.953 1469.15 266.593 1467.84 270.189C1467.78 270.188 1467.72 270.188 1467.65 270.188C1464.59 270.188 1461.98 271.677 1460.99 273.761C1460.4 273.57 1459.76 273.465 1459.07 273.465C1456.35 273.465 1454.14 275.153 1454.14 277.236C1454.14 279.318 1456.35 281.006 1459.07 281.006C1460.62 281.006 1462 280.462 1462.91 279.61C1464.16 280.479 1465.83 281.008 1467.65 281.008C1469.49 281.008 1471.17 280.469 1472.43 279.587C1474.2 280.482 1476.31 281.003 1478.59 281.003C1480.73 281.003 1482.73 280.542 1484.43 279.741C1486.01 280.538 1487.91 281.001 1489.95 281.001C1492.34 281.001 1494.54 280.364 1496.26 279.302Z" fill="white"/>
</g>
<mask id="mask4_605_101" style="mask-type:alpha" maskUnits="userSpaceOnUse" x="186" y="458" width="88" height="19">
<rect width="87.0561" height="18.6897" transform="matrix(-1 0 0 1 273.057 458)" fill="#D9D9D9"/>
</mask>
<g mask="url(#mask4_605_101)">
<path fill-rule="evenodd" clip-rule="evenodd" d="M228.12 477.938C230.321 479.016 232.937 479.641 235.744 479.641C238.653 479.641 241.358 478.969 243.607 477.818C245.363 478.953 247.632 479.637 250.112 479.637C251.901 479.637 253.581 479.281 255.037 478.656C256.19 479.279 257.597 479.645 259.116 479.645C260.942 479.645 262.607 479.116 263.862 478.247C264.766 479.099 266.147 479.643 267.693 479.643C270.417 479.643 272.625 477.955 272.625 475.872C272.625 473.79 270.417 472.102 267.693 472.102C267.012 472.102 266.364 472.207 265.774 472.398C264.814 470.364 262.306 468.897 259.338 468.827C257.776 466.118 254.232 464.227 250.112 464.227C249.602 464.227 249.101 464.255 248.612 464.311C246.376 460.587 241.455 458 235.744 458C230.053 458 225.147 460.568 222.899 464.271C222.54 464.242 222.176 464.227 221.807 464.227C220.44 464.227 219.138 464.434 217.949 464.811C215.968 463.431 213.334 462.59 210.443 462.59C205.322 462.59 201.007 465.229 199.699 468.826C199.635 468.825 199.571 468.824 199.507 468.824C196.442 468.824 193.833 470.314 192.849 472.398C192.259 472.207 191.61 472.102 190.93 472.102C188.206 472.102 185.998 473.79 185.998 475.872C185.998 477.955 188.206 479.643 190.93 479.643C192.476 479.643 193.856 479.099 194.761 478.247C196.016 479.116 197.681 479.645 199.507 479.645C201.349 479.645 203.027 479.106 204.286 478.224C206.051 479.119 208.167 479.64 210.443 479.64C212.584 479.64 214.585 479.178 216.284 478.378C217.87 479.174 219.768 479.637 221.807 479.637C224.197 479.637 226.393 479.001 228.12 477.938Z" fill="white"/>
</g>
<mask id="mask5_605_101" style="mask-type:alpha" maskUnits="userSpaceOnUse" x="2456" y="97" width="270" height="58">
<rect x="2456.79" y="97.168" width="269.174" height="57.7876" fill="#D9D9D9"/>
</mask>
<g mask="url(#mask5_605_101)">
<path fill-rule="evenodd" clip-rule="evenodd" d="M2595.72 158.818C2588.91 162.149 2580.83 164.08 2572.15 164.08C2563.16 164.08 2554.8 162.005 2547.84 158.448C2542.42 161.959 2535.4 164.075 2527.73 164.075C2522.19 164.075 2516.99 162.971 2512.48 161.034C2508.92 162.956 2504.57 164.085 2499.88 164.085C2494.24 164.085 2489.09 162.45 2485.21 159.767C2482.42 162.4 2478.15 164.083 2473.37 164.083C2464.94 164.083 2458.12 158.864 2458.12 152.425C2458.12 145.985 2464.94 140.766 2473.37 140.766C2475.47 140.766 2477.47 141.091 2479.3 141.68C2482.26 135.389 2490.03 130.849 2499.21 130.637C2504.04 122.267 2514.99 116.426 2527.73 116.426C2529.3 116.426 2530.85 116.515 2532.36 116.687C2539.27 105.168 2554.49 97.168 2572.15 97.168C2589.75 97.168 2604.92 105.111 2611.87 116.564C2612.98 116.473 2614.1 116.426 2615.24 116.426C2619.47 116.426 2623.49 117.068 2627.17 118.232C2633.29 113.963 2641.44 111.359 2650.38 111.359C2666.21 111.359 2679.55 119.517 2683.6 130.635C2683.8 130.631 2684 130.629 2684.19 130.629C2693.67 130.629 2701.74 135.236 2704.78 141.681C2706.61 141.092 2708.61 140.766 2710.71 140.766C2719.14 140.766 2725.96 145.985 2725.96 152.425C2725.96 158.864 2719.14 164.083 2710.71 164.083C2705.93 164.083 2701.66 162.4 2698.87 159.766C2694.99 162.45 2689.84 164.085 2684.19 164.085C2678.5 164.085 2673.31 162.422 2669.42 159.697C2663.97 162.465 2657.42 164.078 2650.38 164.078C2643.76 164.078 2637.58 162.651 2632.33 160.179C2627.42 162.642 2621.55 164.075 2615.24 164.075C2607.85 164.075 2601.06 162.107 2595.72 158.818Z" fill="white"/>
</g>
<mask id="mask6_605_101" style="mask-type:alpha" maskUnits="userSpaceOnUse" x="2506" y="338" width="130" height="28">
<rect width="129.083" height="27.7123" transform="matrix(-1 0 0 1 2635.91 338.164)" fill="#D9D9D9"/>
</mask>
<g mask="url(#mask6_605_101)">
<path fill-rule="evenodd" clip-rule="evenodd" d="M2569.28 367.728C2572.54 369.326 2576.42 370.252 2580.58 370.252C2584.9 370.252 2588.91 369.257 2592.24 367.551C2594.84 369.234 2598.21 370.249 2601.89 370.249C2604.54 370.249 2607.04 369.719 2609.2 368.789C2610.91 369.71 2612.99 370.251 2615.24 370.251C2617.95 370.251 2620.42 369.467 2622.28 368.179C2623.62 369.442 2625.66 370.248 2627.96 370.248C2632 370.248 2635.27 367.745 2635.27 364.657C2635.27 361.57 2632 359.066 2627.96 359.066C2626.95 359.066 2625.99 359.223 2625.11 359.506C2623.69 356.489 2619.97 354.312 2615.56 354.211C2613.24 350.198 2607.99 347.398 2601.89 347.398C2601.13 347.398 2600.39 347.441 2599.67 347.524C2596.35 342 2589.05 338.164 2580.58 338.164C2572.15 338.164 2564.87 341.973 2561.54 347.465C2561.01 347.421 2560.47 347.398 2559.92 347.398C2557.89 347.398 2555.96 347.707 2554.2 348.266C2551.26 346.22 2547.35 344.973 2543.07 344.973C2535.48 344.973 2529.08 348.882 2527.14 354.21C2527.05 354.208 2526.95 354.207 2526.85 354.207C2522.31 354.207 2518.44 356.416 2516.98 359.506C2516.11 359.223 2515.14 359.066 2514.13 359.066C2510.1 359.066 2506.82 361.57 2506.82 364.657C2506.82 367.745 2510.1 370.249 2514.13 370.249C2516.43 370.249 2518.47 369.442 2519.82 368.179C2521.68 369.467 2524.14 370.251 2526.85 370.251C2529.58 370.251 2532.07 369.455 2533.93 368.15C2536.55 369.48 2539.69 370.254 2543.07 370.254C2546.24 370.254 2549.21 369.569 2551.73 368.382C2554.08 369.562 2556.9 370.249 2559.92 370.249C2563.46 370.249 2566.72 369.305 2569.28 367.728Z" fill="white"/>
</g>
<mask id="mask7_605_101" style="mask-type:alpha" maskUnits="userSpaceOnUse" x="568" y="127" width="130" height="28">
<rect width="129.083" height="27.7123" transform="matrix(-1 0 0 1 697.084 127)" fill="#D9D9D9"/>
</mask>
<g mask="url(#mask7_605_101)">
<path fill-rule="evenodd" clip-rule="evenodd" d="M630.46 156.564C633.722 158.162 637.601 159.088 641.762 159.088C646.075 159.088 650.085 158.093 653.419 156.387C656.022 158.07 659.388 159.085 663.064 159.085C665.72 159.085 668.215 158.555 670.377 157.625C672.085 158.546 674.168 159.087 676.417 159.087C679.125 159.087 681.593 158.303 683.454 157.015C684.795 158.277 686.842 159.084 689.135 159.084C693.173 159.084 696.447 156.581 696.447 153.493C696.447 150.405 693.173 147.902 689.135 147.902C688.125 147.902 687.163 148.059 686.289 148.342C684.865 145.325 681.143 143.148 676.739 143.047C674.42 139.034 669.17 136.234 663.064 136.234C662.309 136.234 661.568 136.277 660.844 136.36C657.528 130.836 650.231 127 641.762 127C633.323 127 626.048 130.809 622.716 136.301C622.184 136.257 621.644 136.234 621.097 136.234C619.07 136.234 617.138 136.543 615.375 137.102C612.438 135.056 608.532 133.809 604.245 133.809C596.657 133.809 590.262 137.718 588.319 143.046C588.223 143.044 588.127 143.043 588.03 143.043C583.486 143.043 579.617 145.252 578.159 148.342C577.284 148.059 576.322 147.902 575.312 147.902C571.274 147.902 568 150.406 568 153.493C568 156.581 571.274 159.084 575.312 159.084C577.605 159.084 579.652 158.277 580.993 157.015C582.854 158.303 585.322 159.087 588.03 159.087C590.758 159.087 593.243 158.291 595.109 156.986C597.727 158.315 600.868 159.09 604.245 159.09C607.422 159.09 610.389 158.405 612.908 157.218C615.26 158.398 618.073 159.085 621.097 159.085C624.642 159.085 627.898 158.141 630.46 156.564Z" fill="white"/>
</g>
</g>
<defs>
<linearGradient id="paint0_linear_605_101" x1="2004.5" y1="0" x2="2004.5" y2="556.207" gradientUnits="userSpaceOnUse">
<stop stop-color="#CAF1F3"/>
<stop offset="1" stop-color="#DEF3F5"/>
</linearGradient>
</defs>
</svg>
