<svg width="1551" height="609" viewBox="0 0 1551 609" fill="none" xmlns="http://www.w3.org/2000/svg">
<path fill-rule="evenodd" clip-rule="evenodd" d="M0 0H1551V138.63C1551 177.843 1519.21 209.63 1480 209.63H1419.82C1401.5 214.649 1388.04 231.415 1388.04 251.324C1388.04 271.241 1401.51 288.011 1419.84 293.023H1467.07C1499.61 293.023 1525.98 319.399 1525.98 351.934C1525.98 384.47 1499.61 410.845 1467.07 410.845H1370.3C1364 410.888 1358.91 416.009 1358.91 422.321C1358.91 428.61 1363.97 433.718 1370.24 433.796H0V410.845V410.844V294.551V293.023V209.63V208.098V0ZM1392.67 433.797H0V543.211V560.211V562.129V562.329V578.395V578.868V608.997H295.899C304.35 608.997 311.201 602.147 311.201 593.696C311.201 585.245 304.35 578.395 295.899 578.395H215.371C212.121 577.245 209.793 574.145 209.793 570.502C209.793 566.502 212.598 563.158 216.347 562.329H1392.67C1428.17 562.329 1456.94 533.556 1456.94 498.063C1456.94 462.57 1428.17 433.797 1392.67 433.797Z" fill="url(#paint0_linear_2420_60)"/>
<mask id="mask0_2420_60" style="mask-type:alpha" maskUnits="userSpaceOnUse" x="0" y="446" width="166" height="61">
<rect y="446.805" width="165.106" height="59.9627" fill="#D9D9D9"/>
</mask>
<g mask="url(#mask0_2420_60)">
<path fill-rule="evenodd" clip-rule="evenodd" d="M29.951 510.778C22.8937 514.232 14.5038 516.235 5.50207 516.235C-3.82837 516.235 -12.5015 514.083 -19.7146 510.393C-25.3475 514.038 -32.6333 516.236 -40.5905 516.236C-46.3415 516.236 -51.7417 515.088 -56.4208 513.075C-60.1149 515.066 -64.6206 516.235 -69.4834 516.235C-75.3411 516.235 -80.6807 514.539 -84.7077 511.753C-87.6086 514.487 -92.0382 516.235 -97.0014 516.235C-105.74 516.235 -112.824 510.818 -112.824 504.137C-112.824 497.455 -105.74 492.039 -97.0014 492.039C-94.818 492.039 -92.7379 492.377 -90.8458 492.989C-87.7661 486.458 -79.71 481.746 -70.1769 481.527C-65.1583 472.849 -53.7994 466.793 -40.5905 466.793C-38.9594 466.793 -37.3565 466.885 -35.7902 467.064C-28.6186 455.108 -12.8265 446.805 5.50207 446.805C23.7655 446.805 39.5104 455.049 46.7175 466.936C47.8674 466.842 49.0353 466.793 50.2181 466.793C54.5983 466.793 58.7751 467.459 62.5847 468.666C68.9423 464.234 77.398 461.531 86.6793 461.531C103.103 461.531 116.941 469.993 121.144 481.526C121.35 481.522 121.557 481.52 121.765 481.52C131.599 481.52 139.973 486.301 143.127 492.989C145.019 492.377 147.099 492.039 149.283 492.039C158.021 492.039 165.105 497.455 165.105 504.137C165.105 510.818 158.021 516.235 149.283 516.235C144.319 516.235 139.89 514.487 136.989 511.753C132.962 514.539 127.622 516.235 121.765 516.235C115.859 516.235 110.48 514.511 106.442 511.685C100.78 514.559 93.9853 516.234 86.6793 516.234C79.8125 516.234 73.3975 514.755 67.9498 512.19C62.8584 514.748 56.7655 516.236 50.2181 516.236C42.5446 516.236 35.4954 514.192 29.951 510.778Z" fill="white"/>
</g>
<mask id="mask1_2420_60" style="mask-type:alpha" maskUnits="userSpaceOnUse" x="225" y="259" width="88" height="20">
<rect width="87.0561" height="18.6897" transform="matrix(-1 0 0 1 312.201 259.363)" fill="#D9D9D9"/>
</mask>
<g mask="url(#mask1_2420_60)">
<path fill-rule="evenodd" clip-rule="evenodd" d="M267.265 279.302C269.465 280.379 272.081 281.004 274.888 281.004C277.798 281.004 280.503 280.332 282.752 279.181C284.507 280.316 286.777 281.001 289.256 281.001C291.045 281.001 292.725 280.644 294.182 280.019C295.335 280.642 296.742 281.008 298.261 281.008C300.087 281.008 301.751 280.479 303.007 279.61C303.911 280.462 305.291 281.006 306.838 281.006C309.562 281.006 311.77 279.318 311.77 277.236C311.77 275.153 309.562 273.465 306.838 273.465C306.157 273.465 305.508 273.57 304.918 273.761C303.959 271.728 301.451 270.26 298.482 270.19C296.92 267.481 293.377 265.59 289.256 265.59C288.746 265.59 288.246 265.619 287.756 265.675C285.52 261.95 280.599 259.363 274.888 259.363C269.197 259.363 264.291 261.931 262.044 265.635C261.685 265.605 261.32 265.59 260.951 265.59C259.585 265.59 258.282 265.798 257.094 266.174C255.113 264.794 252.478 263.953 249.587 263.953C244.466 263.953 240.152 266.593 238.844 270.189C238.78 270.188 238.716 270.188 238.652 270.188C235.587 270.188 232.977 271.677 231.994 273.761C231.404 273.57 230.755 273.465 230.074 273.465C227.35 273.465 225.142 275.153 225.142 277.236C225.142 279.318 227.35 281.006 230.074 281.006C231.621 281.006 233.001 280.462 233.905 279.61C235.16 280.479 236.825 281.008 238.652 281.008C240.494 281.008 242.172 280.469 243.431 279.587C245.195 280.482 247.312 281.003 249.587 281.003C251.729 281.003 253.73 280.542 255.428 279.741C257.014 280.538 258.912 281.001 260.951 281.001C263.341 281.001 265.537 280.364 267.265 279.302Z" fill="white"/>
</g>
<mask id="mask2_2420_60" style="mask-type:alpha" maskUnits="userSpaceOnUse" x="1227" y="97" width="270" height="58">
<rect x="1227.79" y="97.168" width="269.174" height="57.7876" fill="#D9D9D9"/>
</mask>
<g mask="url(#mask2_2420_60)">
<path fill-rule="evenodd" clip-rule="evenodd" d="M1366.72 158.818C1359.91 162.149 1351.83 164.08 1343.15 164.08C1334.16 164.08 1325.8 162.005 1318.84 158.448C1313.42 161.959 1306.4 164.075 1298.73 164.075C1293.19 164.075 1287.99 162.971 1283.48 161.034C1279.92 162.956 1275.57 164.085 1270.88 164.085C1265.24 164.085 1260.09 162.45 1256.21 159.767C1253.42 162.4 1249.15 164.083 1244.37 164.083C1235.94 164.083 1229.12 158.864 1229.12 152.425C1229.12 145.985 1235.94 140.766 1244.37 140.766C1246.47 140.766 1248.47 141.091 1250.3 141.68C1253.26 135.389 1261.03 130.849 1270.21 130.637C1275.04 122.267 1285.99 116.426 1298.73 116.426C1300.3 116.426 1301.85 116.515 1303.36 116.687C1310.27 105.168 1325.49 97.168 1343.15 97.168C1360.75 97.168 1375.92 105.111 1382.87 116.564C1383.98 116.473 1385.1 116.426 1386.24 116.426C1390.47 116.426 1394.49 117.068 1398.17 118.232C1404.29 113.963 1412.44 111.359 1421.38 111.359C1437.21 111.359 1450.55 119.517 1454.6 130.635C1454.8 130.631 1455 130.629 1455.19 130.629C1464.67 130.629 1472.74 135.236 1475.78 141.681C1477.61 141.092 1479.61 140.766 1481.71 140.766C1490.14 140.766 1496.96 145.985 1496.96 152.425C1496.96 158.864 1490.14 164.083 1481.71 164.083C1476.93 164.083 1472.66 162.4 1469.87 159.766C1465.99 162.45 1460.84 164.085 1455.19 164.085C1449.5 164.085 1444.31 162.422 1440.42 159.697C1434.97 162.465 1428.42 164.078 1421.38 164.078C1414.76 164.078 1408.58 162.651 1403.33 160.179C1398.42 162.642 1392.55 164.075 1386.24 164.075C1378.85 164.075 1372.06 162.107 1366.72 158.818Z" fill="white"/>
</g>
<mask id="mask3_2420_60" style="mask-type:alpha" maskUnits="userSpaceOnUse" x="1277" y="338" width="130" height="28">
<rect width="129.083" height="27.7123" transform="matrix(-1 0 0 1 1406.91 338.164)" fill="#D9D9D9"/>
</mask>
<g mask="url(#mask3_2420_60)">
<path fill-rule="evenodd" clip-rule="evenodd" d="M1340.28 367.728C1343.54 369.326 1347.42 370.252 1351.58 370.252C1355.9 370.252 1359.91 369.257 1363.24 367.551C1365.84 369.234 1369.21 370.249 1372.89 370.249C1375.54 370.249 1378.04 369.719 1380.2 368.789C1381.91 369.71 1383.99 370.251 1386.24 370.251C1388.95 370.251 1391.42 369.467 1393.28 368.179C1394.62 369.442 1396.66 370.248 1398.96 370.248C1403 370.248 1406.27 367.745 1406.27 364.657C1406.27 361.57 1403 359.066 1398.96 359.066C1397.95 359.066 1396.99 359.223 1396.11 359.506C1394.69 356.489 1390.97 354.312 1386.56 354.211C1384.24 350.198 1378.99 347.398 1372.89 347.398C1372.13 347.398 1371.39 347.441 1370.67 347.524C1367.35 342 1360.05 338.164 1351.58 338.164C1343.15 338.164 1335.87 341.973 1332.54 347.465C1332.01 347.421 1331.47 347.398 1330.92 347.398C1328.89 347.398 1326.96 347.707 1325.2 348.266C1322.26 346.22 1318.35 344.973 1314.07 344.973C1306.48 344.973 1300.08 348.882 1298.14 354.21C1298.05 354.208 1297.95 354.207 1297.85 354.207C1293.31 354.207 1289.44 356.416 1287.98 359.506C1287.11 359.223 1286.14 359.066 1285.13 359.066C1281.1 359.066 1277.82 361.57 1277.82 364.657C1277.82 367.745 1281.1 370.249 1285.13 370.249C1287.43 370.249 1289.47 369.442 1290.82 368.179C1292.68 369.467 1295.14 370.251 1297.85 370.251C1300.58 370.251 1303.07 369.455 1304.93 368.15C1307.55 369.48 1310.69 370.254 1314.07 370.254C1317.24 370.254 1320.21 369.569 1322.73 368.382C1325.08 369.562 1327.9 370.249 1330.92 370.249C1334.46 370.249 1337.72 369.305 1340.28 367.728Z" fill="white"/>
</g>
<defs>
<linearGradient id="paint0_linear_2420_60" x1="775.5" y1="0" x2="775.5" y2="556.207" gradientUnits="userSpaceOnUse">
<stop stop-color="#CAF1F3"/>
<stop offset="1" stop-color="#DEF3F5"/>
</linearGradient>
</defs>
</svg>
