<svg width="754" height="636" viewBox="0 0 754 636" fill="none" xmlns="http://www.w3.org/2000/svg">
<path fill-rule="evenodd" clip-rule="evenodd" d="M733.002 524.5C733.002 586.08 683.082 636 621.502 636L177.502 636C115.922 636 66.0019 586.08 66.0019 524.5C66.0019 462.92 115.922 413 177.502 413L112.502 413C94.5527 413 80.0019 398.449 80.0019 380.5C80.0019 362.551 94.5526 348 112.502 348L124.002 348C99.7014 348 80.0019 328.301 80.0019 304C80.0019 279.7 99.7014 260 124.002 260L112.002 260C97.6425 260 86.0019 248.359 86.0019 234C86.0019 219.641 97.6425 208 112.002 208L130.002 208C105.701 208 86.0019 188.301 86.0019 164C86.0019 139.7 105.701 120 130.002 120L16.0019 120C7.16536 120 0.00190739 112.837 0.00190662 104C0.00190584 95.1635 7.16536 88.0001 16.0019 88.0001L44.0019 88.0001C19.7014 88.0001 0.0019035 68.3006 0.00190137 44.0001C0.00189925 19.6995 19.7014 6.41072e-05 44.0019 6.19827e-05L623.002 1.1365e-05C647.302 9.24054e-06 667.002 19.6995 667.002 44C667.002 68.3005 647.302 88 623.002 88L651.002 88C659.838 88 667.002 95.1635 667.002 104C667.002 112.837 659.838 120 651.002 120L709.002 120C733.302 120 753.002 139.699 753.002 164C753.002 188.301 733.302 208 709.002 208L727.002 208C741.361 208 753.002 219.641 753.002 234C753.002 248.359 741.361 260 727.002 260L703.002 260C727.302 260 747.002 279.699 747.002 304C747.002 328.301 727.302 348 703.002 348L539.502 348C557.451 348 572.002 362.551 572.002 380.5C572.002 398.449 557.451 413 539.502 413L621.502 413C683.082 413 733.002 462.92 733.002 524.5Z" fill="#DEF3F5"/>
</svg>
