<svg width="754" height="636" viewBox="0 0 754 636" fill="none" xmlns="http://www.w3.org/2000/svg">
<path fill-rule="evenodd" clip-rule="evenodd" d="M20.002 111.5C20.002 49.9203 69.9222 0 131.502 0H575.502C637.082 0 687.002 49.9203 687.002 111.5C687.002 173.08 637.082 223 575.502 223H640.502C658.451 223 673.002 237.551 673.002 255.5C673.002 273.449 658.451 288 640.502 288H629.002C653.302 288 673.002 307.699 673.002 332C673.002 356.301 653.302 376 629.002 376H641.002C655.361 376 667.002 387.641 667.002 402C667.002 416.359 655.361 428 641.002 428H623.002C647.302 428 667.002 447.699 667.002 472C667.002 496.301 647.302 516 623.002 516H737.002C745.839 516 753.002 523.163 753.002 532C753.002 540.837 745.839 548 737.002 548H709.002C733.302 548 753.002 567.699 753.002 592C753.002 616.301 733.302 636 709.002 636H130.002C105.701 636 86.002 616.301 86.002 592C86.002 567.699 105.701 548 130.002 548H102.002C93.1654 548 86.002 540.837 86.002 532C86.002 523.163 93.1654 516 102.002 516H44.002C19.7014 516 0.00195312 496.301 0.00195312 472C0.00195312 447.699 19.7014 428 44.002 428H26.0019C11.6425 428 0.00195312 416.359 0.00195312 402C0.00195312 387.641 11.6426 376 26.002 376H50.002C25.7014 376 6.00195 356.301 6.00195 332C6.00195 307.699 25.7014 288 50.002 288H213.502C195.553 288 181.002 273.449 181.002 255.5C181.002 237.551 195.553 223 213.502 223H131.502C69.9222 223 20.002 173.08 20.002 111.5Z" fill="#DEF3F5"/>
</svg>
