<svg width="1255" height="227" viewBox="0 0 1255 227" fill="none" xmlns="http://www.w3.org/2000/svg">
<path d="M163.965 202.144C161.897 202.144 160.218 203.82 160.218 205.884C160.218 207.947 161.897 209.623 163.965 209.623C166.032 209.623 167.711 207.947 167.711 205.884C167.711 203.82 166.032 202.144 163.965 202.144Z" fill="white" fill-opacity="0.2"/>
<path d="M168.354 205.888C168.354 205.54 168.07 205.257 167.721 205.257H160.208C159.859 205.257 159.575 205.54 159.575 205.888C159.575 206.237 159.859 206.52 160.208 206.52H167.721C168.075 206.52 168.354 206.237 168.354 205.888Z" fill="white" fill-opacity="0.3"/>
<path d="M163.965 210.27C164.313 210.27 164.597 209.986 164.597 209.638V202.139C164.597 201.791 164.313 201.507 163.965 201.507C163.616 201.507 163.332 201.791 163.332 202.139V209.638C163.332 209.986 163.616 210.27 163.965 210.27Z" fill="white" fill-opacity="0.3"/>
<path d="M163.965 208.539C164.313 208.539 164.597 208.256 164.597 207.908V203.864C164.597 203.516 164.313 203.233 163.965 203.233C163.616 203.233 163.332 203.516 163.332 203.864V207.908C163.332 208.256 163.616 208.539 163.965 208.539Z" fill="white"/>
<path d="M166.625 205.888C166.625 205.54 166.341 205.257 165.992 205.257H161.942C161.593 205.257 161.309 205.54 161.309 205.888C161.309 206.237 161.593 206.52 161.942 206.52H165.992C166.341 206.52 166.625 206.237 166.625 205.888Z" fill="white"/>
<path d="M1039.63 154.833C1035.98 154.833 1033.01 157.787 1033.01 161.437C1033.01 165.083 1035.97 168.042 1039.63 168.042C1043.28 168.042 1046.25 165.088 1046.25 161.437C1046.24 157.792 1043.28 154.833 1039.63 154.833Z" fill="white" fill-opacity="0.2"/>
<path d="M1047.38 161.437C1047.38 160.821 1046.88 160.323 1046.26 160.323H1032.99C1032.38 160.323 1031.88 160.826 1031.88 161.437C1031.88 162.054 1032.38 162.551 1032.99 162.551H1046.26C1046.88 162.551 1047.38 162.054 1047.38 161.437Z" fill="white" fill-opacity="0.3"/>
<path d="M1039.63 169.176C1040.25 169.176 1040.75 168.673 1040.75 168.062V154.818C1040.75 154.201 1040.24 153.704 1039.63 153.704C1039.01 153.704 1038.51 154.201 1038.51 154.818V168.062C1038.51 168.673 1039.01 169.176 1039.63 169.176Z" fill="white" fill-opacity="0.3"/>
<path d="M1039.63 166.122C1040.25 166.122 1040.75 165.62 1040.75 165.008V157.876C1040.75 157.26 1040.24 156.762 1039.63 156.762C1039.01 156.762 1038.51 157.26 1038.51 157.876V165.008C1038.51 165.62 1039.01 166.122 1039.63 166.122Z" fill="white"/>
<path d="M1044.32 161.437C1044.32 160.821 1043.82 160.323 1043.2 160.323H1036.05C1035.44 160.323 1034.93 160.826 1034.93 161.437C1034.93 162.054 1035.44 162.551 1036.05 162.551H1043.2C1043.82 162.551 1044.32 162.054 1044.32 161.437Z" fill="white"/>
<path d="M7.75264 97.1429C4.10046 97.1429 1.13586 100.097 1.13586 103.747C1.13586 107.398 4.09548 110.352 7.75264 110.352C11.4048 110.352 14.3694 107.398 14.3694 103.747C14.3694 100.097 11.4048 97.1429 7.75264 97.1429Z" fill="white" fill-opacity="0.2"/>
<path d="M15.5006 103.747C15.5006 103.131 15.0023 102.633 14.3845 102.633H1.11608C0.498251 102.633 0 103.136 0 103.747C0 104.364 0.503234 104.861 1.11608 104.861H14.3845C15.0023 104.861 15.5006 104.364 15.5006 103.747Z" fill="white" fill-opacity="0.3"/>
<path d="M7.75259 111.486C8.37043 111.486 8.86868 110.983 8.86868 110.372V97.128C8.86868 96.5113 8.36544 96.0139 7.75259 96.0139C7.13476 96.0139 6.63651 96.5113 6.63651 97.128V110.372C6.63153 110.983 7.13476 111.486 7.75259 111.486Z" fill="white" fill-opacity="0.3"/>
<path d="M7.75259 108.432C8.37043 108.432 8.86868 107.93 8.86868 107.318V100.187C8.86868 99.5698 8.36544 99.0725 7.75259 99.0725C7.13476 99.0725 6.63651 99.5698 6.63651 100.187V107.318C6.63153 107.93 7.13476 108.432 7.75259 108.432Z" fill="white"/>
<path d="M12.4412 103.747C12.4412 103.131 11.9379 102.633 11.3251 102.633H4.18017C3.56234 102.633 3.06409 103.136 3.06409 103.747C3.06409 104.364 3.56732 104.861 4.18017 104.861H11.3251C11.9429 104.861 12.4412 104.364 12.4412 103.747Z" fill="white"/>
<path d="M535.465 37.5133C531.813 37.5133 528.849 40.4675 528.849 44.1178C528.849 47.7632 531.808 50.7223 535.465 50.7223C539.118 50.7223 542.082 47.7682 542.082 44.1178C542.082 40.4724 539.118 37.5133 535.465 37.5133Z" fill="white" fill-opacity="0.2"/>
<path d="M543.218 44.1179C543.218 43.5012 542.72 43.0039 542.102 43.0039H528.834C528.216 43.0039 527.718 43.5062 527.718 44.1179C527.718 44.7346 528.221 45.2319 528.834 45.2319H542.102C542.72 45.2319 543.218 44.7346 543.218 44.1179Z" fill="white" fill-opacity="0.3"/>
<path d="M535.465 51.8563C536.083 51.8563 536.582 51.354 536.582 50.7423V37.4984C536.582 36.8818 536.078 36.3844 535.465 36.3844C534.848 36.3844 534.349 36.8818 534.349 37.4984V50.7423C534.349 51.354 534.848 51.8563 535.465 51.8563Z" fill="white" fill-opacity="0.3"/>
<path d="M535.465 48.8027C536.083 48.8027 536.582 48.3004 536.582 47.6887V40.552C536.582 39.9353 536.078 39.438 535.465 39.438C534.848 39.438 534.349 39.9353 534.349 40.552V47.6837C534.349 48.3004 534.848 48.8027 535.465 48.8027Z" fill="white"/>
<path d="M540.159 44.1179C540.159 43.5012 539.656 43.0039 539.043 43.0039H531.898C531.28 43.0039 530.782 43.5062 530.782 44.1179C530.782 44.7346 531.285 45.2319 531.898 45.2319H539.043C539.656 45.2319 540.159 44.7346 540.159 44.1179Z" fill="white"/>
<path d="M550.388 213.632C546.98 213.632 544.22 216.387 544.22 219.789C544.22 223.19 546.98 225.946 550.388 225.946C553.796 225.946 556.556 223.19 556.556 219.789C556.556 216.387 553.791 213.632 550.388 213.632Z" fill="white" fill-opacity="0.2"/>
<path d="M557.613 219.789C557.613 219.212 557.144 218.749 556.571 218.749H544.205C543.627 218.749 543.163 219.217 543.163 219.789C543.163 220.366 543.632 220.828 544.205 220.828H556.571C557.149 220.828 557.613 220.361 557.613 219.789Z" fill="white" fill-opacity="0.3"/>
<path d="M550.388 227C550.966 227 551.429 226.533 551.429 225.961V213.617C551.429 213.04 550.961 212.578 550.388 212.578C549.81 212.578 549.347 213.045 549.347 213.617V225.961C549.347 226.533 549.81 227 550.388 227Z" fill="white" fill-opacity="0.3"/>
<path d="M550.388 224.155C550.966 224.155 551.429 223.688 551.429 223.116V216.467C551.429 215.89 550.961 215.427 550.388 215.427C549.81 215.427 549.347 215.895 549.347 216.467V223.116C549.347 223.688 549.81 224.155 550.388 224.155Z" fill="white"/>
<path d="M554.763 219.789C554.763 219.212 554.294 218.749 553.721 218.749H547.06C546.482 218.749 546.018 219.217 546.018 219.789C546.018 220.366 546.487 220.828 547.06 220.828H553.721C554.294 220.828 554.763 220.361 554.763 219.789Z" fill="white"/>
<path d="M303.325 49.0912C300.824 49.0912 298.801 51.1153 298.801 53.6069C298.801 56.0985 300.829 58.1226 303.325 58.1226C305.826 58.1226 307.849 56.0985 307.849 53.6069C307.849 51.1153 305.826 49.0912 303.325 49.0912Z" fill="white" fill-opacity="0.2"/>
<path d="M308.632 53.6119C308.632 53.1891 308.288 52.846 307.864 52.846H298.786C298.363 52.846 298.019 53.1891 298.019 53.6119C298.019 54.0346 298.363 54.3777 298.786 54.3777H307.864C308.288 54.3728 308.632 54.0296 308.632 53.6119Z" fill="white" fill-opacity="0.3"/>
<path d="M303.325 58.9034C303.749 58.9034 304.093 58.5602 304.093 58.1375V49.0812C304.093 48.6585 303.749 48.3153 303.325 48.3153C302.902 48.3153 302.558 48.6585 302.558 49.0812V58.1425C302.563 58.5602 302.902 58.9034 303.325 58.9034Z" fill="white" fill-opacity="0.3"/>
<path d="M303.325 56.8147C303.749 56.8147 304.093 56.4715 304.093 56.0488V51.165C304.093 50.7423 303.749 50.3991 303.325 50.3991C302.902 50.3991 302.558 50.7423 302.558 51.165V56.0488C302.563 56.4715 302.902 56.8147 303.325 56.8147Z" fill="white"/>
<path d="M306.539 53.6119C306.539 53.1891 306.195 52.846 305.772 52.846H300.879C300.455 52.846 300.112 53.1891 300.112 53.6119C300.112 54.0346 300.455 54.3777 300.879 54.3777H305.772C306.195 54.3728 306.539 54.0296 306.539 53.6119Z" fill="white"/>
<path d="M777.162 152.038C774.661 152.038 772.638 154.062 772.638 156.554C772.638 159.05 774.666 161.069 777.162 161.069C779.664 161.069 781.686 159.045 781.686 156.554C781.691 154.062 779.664 152.038 777.162 152.038Z" fill="white" fill-opacity="0.2"/>
<path d="M782.469 156.559C782.469 156.136 782.125 155.793 781.701 155.793H772.623C772.2 155.793 771.856 156.136 771.856 156.559C771.856 156.981 772.2 157.324 772.623 157.324H781.701C782.125 157.319 782.469 156.976 782.469 156.559Z" fill="white" fill-opacity="0.3"/>
<path d="M777.162 161.85C777.586 161.85 777.929 161.507 777.929 161.084V152.023C777.929 151.6 777.586 151.257 777.162 151.257C776.739 151.257 776.395 151.6 776.395 152.023V161.084C776.4 161.507 776.739 161.85 777.162 161.85Z" fill="white" fill-opacity="0.3"/>
<path d="M777.162 159.761C777.586 159.761 777.929 159.418 777.929 158.995V154.112C777.929 153.689 777.586 153.346 777.162 153.346C776.739 153.346 776.395 153.689 776.395 154.112V158.995C776.4 159.418 776.739 159.761 777.162 159.761Z" fill="white"/>
<path d="M780.376 156.559C780.376 156.136 780.032 155.793 779.609 155.793H774.716C774.292 155.793 773.948 156.136 773.948 156.559C773.948 156.981 774.292 157.324 774.716 157.324H779.609C780.032 157.319 780.376 156.976 780.376 156.559Z" fill="white"/>
<path d="M1121.45 38.6473C1118.95 38.6473 1116.93 40.6714 1116.93 43.163C1116.93 45.6546 1118.96 47.6788 1121.45 47.6788C1123.95 47.6788 1125.98 45.6546 1125.98 43.163C1125.98 40.6714 1123.95 38.6473 1121.45 38.6473Z" fill="white" fill-opacity="0.2"/>
<path d="M1126.76 43.168C1126.76 42.7453 1126.42 42.4021 1125.99 42.4021H1116.91C1116.49 42.4021 1116.15 42.7453 1116.15 43.168C1116.15 43.5907 1116.49 43.9339 1116.91 43.9339H1125.99C1126.42 43.9289 1126.76 43.5857 1126.76 43.168Z" fill="white" fill-opacity="0.3"/>
<path d="M1121.45 48.4596C1121.88 48.4596 1122.22 48.1164 1122.22 47.6937V38.6373C1122.22 38.2146 1121.88 37.8715 1121.45 37.8715C1121.03 37.8715 1120.69 38.2146 1120.69 38.6373V47.6986C1120.69 48.1164 1121.03 48.4596 1121.45 48.4596Z" fill="white" fill-opacity="0.3"/>
<path d="M1121.45 46.3708C1121.88 46.3708 1122.22 46.0277 1122.22 45.6049V40.7212C1122.22 40.2984 1121.88 39.9553 1121.45 39.9553C1121.03 39.9553 1120.69 40.2984 1120.69 40.7212V45.6049C1120.69 46.0277 1121.03 46.3708 1121.45 46.3708Z" fill="white"/>
<path d="M1124.67 43.168C1124.67 42.7453 1124.32 42.4021 1123.9 42.4021H1119.01C1118.58 42.4021 1118.24 42.7453 1118.24 43.168C1118.24 43.5907 1118.58 43.9339 1119.01 43.9339H1123.9C1124.32 43.9289 1124.67 43.5857 1124.67 43.168Z" fill="white"/>
<path d="M1253.93 181.425C1254.52 181.425 1255 180.947 1255 180.356C1255 179.764 1254.52 179.286 1253.93 179.286C1253.34 179.286 1252.86 179.764 1252.86 180.356C1252.86 180.947 1253.34 181.425 1253.93 181.425Z" fill="white"/>
<path d="M977.703 37.3145C978.296 37.3145 978.774 36.837 978.774 36.2452C978.774 35.6534 978.296 35.176 977.703 35.176C977.11 35.176 976.632 35.6534 976.632 36.2452C976.637 36.837 977.115 37.3145 977.703 37.3145Z" fill="white"/>
<path d="M872.249 106.93C872.841 106.93 873.32 106.453 873.32 105.861C873.32 105.269 872.841 104.792 872.249 104.792C871.656 104.792 871.177 105.269 871.177 105.861C871.182 106.453 871.661 106.93 872.249 106.93Z" fill="white"/>
<path d="M1224.24 129.942C1225.42 129.942 1226.38 128.986 1226.38 127.808C1226.38 126.63 1225.42 125.675 1224.24 125.675C1223.06 125.675 1222.1 126.63 1222.1 127.808C1222.1 128.986 1223.06 129.942 1224.24 129.942Z" fill="white"/>
<path d="M124.742 4.26707C125.922 4.26707 126.879 3.31185 126.879 2.13353C126.879 0.955215 125.922 0 124.742 0C123.561 0 122.604 0.955215 122.604 2.13353C122.604 3.31185 123.561 4.26707 124.742 4.26707Z" fill="white"/>
<path d="M336.225 126.038C336.439 126.585 337.062 126.858 337.61 126.639C338.158 126.421 338.432 125.804 338.213 125.257C337.999 124.71 337.376 124.436 336.828 124.655C336.28 124.869 336.006 125.491 336.225 126.038Z" fill="white"/>
<path d="M206.824 78.324C207.038 78.8711 207.661 79.1446 208.209 78.9258C208.757 78.712 209.031 78.0903 208.812 77.5432C208.593 76.9962 207.975 76.7227 207.427 76.9415C206.879 77.1553 206.61 77.772 206.824 78.324Z" fill="white"/>
<path d="M650.751 148.204C651.184 149.303 652.425 149.84 653.521 149.407C654.622 148.974 655.16 147.736 654.732 146.642C654.298 145.543 653.058 145.006 651.962 145.433C650.86 145.871 650.317 147.109 650.751 148.204Z" fill="white"/>
<path d="M777.018 73.1071C777.451 74.2062 778.692 74.7433 779.788 74.3106C780.889 73.878 781.427 72.6396 780.999 71.5455C780.565 70.4464 779.325 69.9093 778.228 70.337C777.127 70.7697 776.584 72.008 777.018 73.1071Z" fill="white"/>
<path d="M948.421 106.707C948.855 107.806 950.095 108.343 951.192 107.91C952.293 107.477 952.831 106.239 952.402 105.145C951.969 104.046 950.728 103.509 949.632 103.936C948.531 104.369 947.988 105.607 948.421 106.707Z" fill="white"/>
<g clip-path="url(#clip0)">
<path d="M73.9944 127.734C69.1789 137.657 57.1901 141.81 47.2679 136.994C37.3457 132.179 33.1925 120.19 38.0079 110.268C42.8234 100.346 54.8122 96.1925 64.7344 101.008C74.6566 105.823 78.8099 117.812 73.9944 127.734ZM73.755 127.615C78.5066 117.824 74.4053 105.999 64.6188 101.247C54.8322 96.4957 42.999 100.597 38.2473 110.384C33.4957 120.174 37.597 132.003 47.3836 136.755C57.1701 141.507 69.0033 137.405 73.755 127.615Z" fill="white"/>
<path d="M69.9747 120.5C70.8784 113.309 65.7819 106.748 58.5914 105.844C51.401 104.94 44.8393 110.037 43.9356 117.227C43.0319 124.418 48.1284 130.979 55.3188 131.883C62.5093 132.787 69.071 127.69 69.9747 120.5Z" fill="#73A6EA"/>
<g opacity="0.5">
<g opacity="0.5">
<g opacity="0.5">
<path opacity="0.5" d="M50.8215 124.027C49.5249 124.562 47.4622 125.308 45.8664 125.878C45.4155 125.168 45.0405 124.418 44.7373 123.648C47.4981 122.83 50.0834 122.148 50.8733 121.845C51.8388 121.47 53.1873 123.053 50.8215 124.027Z" fill="#CBEEFD"/>
</g>
<g opacity="0.5">
<path opacity="0.5" d="M70.0475 118.106C66.9596 118.358 61.1946 118.836 58.6891 119.132C55.1822 119.547 53.343 118.154 52.2019 118.437C51.3761 118.645 46.6923 120.301 44.0312 121.126C43.9474 120.64 43.8875 120.149 43.8596 119.654C46.1058 118.749 49.7164 117.296 50.4904 117.021C51.6354 116.614 51.8828 115.33 50.5782 115.701C49.7643 115.932 46.3811 116.666 43.9434 117.185C44.0631 116.251 44.2825 115.326 44.6057 114.424C48.3998 113.327 52.7326 112.68 53.7699 113.055C54.9308 113.478 55.1263 116.215 56.8498 116.12C58.1385 116.044 65.7108 115.214 69.4291 114.799C69.7762 115.872 69.9837 116.985 70.0475 118.106Z" fill="#CBEEFD"/>
</g>
<g opacity="0.5">
<path opacity="0.5" d="M65.3119 108.751C66.6125 109.828 67.6498 111.101 68.4238 112.493C65.5233 112.617 60.9392 112.78 59.7224 112.637C57.9071 112.425 59.3873 109.78 58.1864 109.106C57.1331 108.511 52.19 109.225 46.7561 110.602C46.784 110.57 46.808 110.534 46.8359 110.498C51.4559 104.921 59.7264 104.135 65.3119 108.751Z" fill="#CBEEFD"/>
</g>
<g opacity="0.5">
<path opacity="0.5" d="M53.4547 131.508C53.8577 130.921 54.6277 130.466 56.2634 130.079C58.8247 129.469 60.7916 129.229 61.7172 128.878C62.6468 128.527 61.0709 127.458 62.4832 126.812C63.3809 126.401 66.1537 126.054 68.0567 125.854C67.7575 126.325 67.4304 126.784 67.0673 127.227C63.6642 131.336 58.2861 132.84 53.4547 131.508Z" fill="#CBEEFD"/>
</g>
<g opacity="0.5">
<path opacity="0.5" d="M56.5266 124.585C55.218 125.316 55.8404 127.119 54.3163 127.969C53.3907 128.487 51.3042 129.305 49.812 129.868C49.3931 129.596 48.9862 129.301 48.5952 128.978C48.1723 128.627 47.7773 128.252 47.4103 127.865C49.6963 126.919 52.3175 125.802 53.0357 125.272C53.9333 124.609 53.2032 122.447 54.1527 122.256C54.9467 122.092 66.3012 120.688 70.0035 120.233C69.8998 121.238 69.6804 122.24 69.3373 123.209C66.2373 123.401 57.5958 123.987 56.5266 124.585Z" fill="#CBEEFD"/>
</g>
</g>
</g>
<path opacity="0.5" d="M64.865 129.333C62.2318 131.328 59.092 132.17 56.0359 131.962C56.3032 131.783 61.6413 128.112 61.761 120.041C61.8807 111.95 54.6036 106.261 54.2765 106.01C59.076 105.024 64.2346 106.764 67.3904 110.925C71.775 116.706 70.6459 124.949 64.865 129.333Z" fill="#5B7BCA"/>
<path d="M64.1027 128.707C69.4767 124.633 70.526 116.973 66.4526 111.603C63.9711 108.332 60.165 106.664 56.3549 106.78C59.2314 107.426 61.9004 109.054 63.8194 111.583C68.1402 117.281 67.0271 125.403 61.3259 129.724C60.7554 130.159 60.161 130.534 59.5466 130.857C61.1544 130.478 62.7063 129.768 64.1027 128.707Z" fill="#5B7BCA"/>
<path opacity="0.7" d="M53.4708 129.856C51.7153 129.497 46.3732 126.576 45.8625 120.185C45.3559 113.794 49.8522 109.361 53.375 108.045C52.0584 109.042 48.396 113.275 48.392 118.789C48.388 124.306 51.7991 128.176 53.4708 129.856Z" fill="#CBEEFD"/>
<path d="M53.4707 129.856C53.4707 129.856 46.4689 126.931 46.3333 119.714C46.1976 112.501 52.3895 108.4 53.3749 108.045C53.3749 108.045 45.1842 111.005 45.4795 119.738C45.7587 127.897 53.4707 129.856 53.4707 129.856Z" fill="#CBEEFD"/>
</g>
<g clip-path="url(#clip1)">
<path d="M1154.92 167.079C1148.54 160.695 1148.54 150.311 1154.92 143.928C1161.3 137.544 1171.69 137.544 1178.07 143.928C1184.46 150.311 1184.46 160.695 1178.07 167.079C1171.69 173.463 1161.3 173.463 1154.92 167.079ZM1155.05 166.957C1161.36 173.272 1171.64 173.272 1177.95 166.957C1184.27 160.643 1184.27 150.364 1177.95 144.049C1171.64 137.735 1161.36 137.735 1155.05 144.049C1148.73 150.364 1148.73 160.639 1155.05 166.957Z" fill="white"/>
<path d="M1175.95 161.557C1179.55 156.626 1178.47 149.707 1173.54 146.104C1168.61 142.501 1161.69 143.577 1158.09 148.508C1154.49 153.439 1155.56 160.357 1160.5 163.961C1165.43 167.564 1172.34 166.487 1175.95 161.557Z" fill="#FF4E34"/>
<path opacity="0.16" d="M1156.26 152.5C1156.9 149.795 1158.48 147.566 1160.57 146.064C1160.5 146.324 1159 151.567 1163.25 156.866C1167.52 162.178 1175.28 161.967 1175.63 161.954C1173.04 165.166 1168.77 166.806 1164.49 165.797C1158.54 164.397 1154.86 158.444 1156.26 152.5Z" fill="#0A011E"/>
<path opacity="0.16" d="M1157.08 152.507C1155.78 158.029 1159.21 163.562 1164.73 164.86C1168.09 165.652 1171.46 164.692 1173.87 162.576C1171.66 163.7 1169.05 164.074 1166.45 163.463C1160.59 162.082 1156.96 156.218 1158.34 150.361C1158.48 149.772 1158.66 149.21 1158.89 148.671C1158.05 149.779 1157.42 151.074 1157.08 152.507Z" fill="#0A011E"/>
<path opacity="0.3" d="M1176.57 153.983C1177.01 152.116 1175.86 150.245 1173.99 149.808C1172.12 149.371 1170.25 150.525 1169.82 152.392C1169.38 154.259 1170.53 156.129 1172.4 156.567C1174.27 157.007 1176.14 155.85 1176.57 153.983Z" fill="#FFCCAD"/>
<path opacity="0.3" d="M1175.79 152.8C1176.04 151.725 1175.38 150.647 1174.3 150.393C1173.23 150.14 1172.15 150.808 1171.9 151.883C1171.64 152.957 1172.31 154.036 1173.38 154.289C1174.46 154.542 1175.54 153.875 1175.79 152.8Z" fill="#FFCCAD"/>
<path opacity="0.3" d="M1168.01 149.703C1168.45 147.836 1167.29 145.966 1165.42 145.528C1163.56 145.088 1161.69 146.245 1161.25 148.112C1160.81 149.979 1161.97 151.85 1163.83 152.287C1165.7 152.727 1167.57 151.57 1168.01 149.703Z" fill="#FFCCAD"/>
<path opacity="0.3" d="M1166.99 148.323C1167.22 147.317 1166.6 146.311 1165.6 146.074C1164.59 145.837 1163.59 146.462 1163.35 147.465C1163.11 148.47 1163.73 149.476 1164.74 149.713C1165.75 149.95 1166.75 149.325 1166.99 148.323Z" fill="#FFCCAD"/>
<path opacity="0.3" d="M1172.28 147.645C1172.49 146.725 1171.92 145.805 1171 145.588C1170.08 145.371 1169.16 145.943 1168.94 146.863C1168.73 147.783 1169.3 148.704 1170.22 148.921C1171.14 149.138 1172.06 148.566 1172.28 147.645Z" fill="#FFCCAD"/>
<path opacity="0.3" d="M1171.9 147.221C1172.02 146.725 1171.71 146.229 1171.22 146.114C1170.72 145.999 1170.22 146.304 1170.11 146.801C1169.99 147.297 1170.3 147.793 1170.79 147.908C1171.29 148.023 1171.79 147.718 1171.9 147.221Z" fill="#FFCCAD"/>
<path opacity="0.5" d="M1163.36 146.064C1164.7 145.358 1169.73 144.388 1173.48 148.26C1177.24 152.132 1176.7 157.421 1175.12 160.163C1175.44 158.812 1175.54 154.098 1172.59 150.522C1169.64 146.939 1165.35 146.258 1163.36 146.064Z" fill="#FFCCAD"/>
<path d="M1163.36 146.064C1163.36 146.064 1169.47 144.207 1173.43 148.816C1177.39 153.424 1175.57 159.4 1175.12 160.163C1175.12 160.163 1178.84 153.855 1173.97 148.346C1169.42 143.201 1163.36 146.064 1163.36 146.064Z" fill="#FFCCAD"/>
<path d="M1147.94 165.935C1148.54 167.204 1153.47 166.211 1160.15 163.696C1162.91 162.658 1165.97 161.356 1169.14 159.851C1172.43 158.289 1175.47 156.685 1178.08 155.153C1184.09 151.636 1187.85 148.52 1187.26 147.267C1186.69 146.081 1182.35 146.876 1176.32 149.039C1176.52 149.361 1176.71 149.693 1176.89 150.035C1179.33 149.328 1180.95 149.167 1181.21 149.71C1181.48 150.282 1180.2 151.524 1177.91 153.076C1175.59 154.64 1172.24 156.517 1168.42 158.332C1164.74 160.077 1161.3 161.445 1158.66 162.263C1155.84 163.141 1153.94 163.387 1153.66 162.793C1153.39 162.227 1154.64 161.001 1156.9 159.469C1156.75 159.124 1156.61 158.772 1156.5 158.414C1150.85 161.787 1147.36 164.729 1147.94 165.935Z" fill="#D3E7F7"/>
<path d="M1148.19 166.287C1148.79 167.556 1153.72 166.563 1160.4 164.048C1163.16 163.01 1166.22 161.708 1169.39 160.202C1172.68 158.641 1175.72 157.037 1178.34 155.505C1184.34 151.988 1188.11 148.872 1187.51 147.619C1186.95 146.432 1182.57 147.241 1176.54 149.407C1176.75 149.729 1176.89 150.035 1177.07 150.41C1179.52 149.703 1181.21 149.522 1181.46 150.065C1181.74 150.637 1180.46 151.879 1178.16 153.431C1175.84 154.995 1172.49 156.872 1168.67 158.687C1165 160.432 1161.55 161.8 1158.91 162.618C1156.09 163.496 1154.19 163.743 1153.91 163.148C1153.64 162.582 1154.83 161.396 1157.08 159.867C1156.93 159.522 1156.76 159.196 1156.64 158.838C1150.99 162.204 1147.62 165.08 1148.19 166.287Z" fill="#FF4E34"/>
<path d="M1147.94 165.935C1148.54 167.204 1153.47 166.211 1160.15 163.696C1162.91 162.658 1165.97 161.356 1169.14 159.851C1172.43 158.289 1175.47 156.685 1178.08 155.153C1184.09 151.636 1187.85 148.52 1187.26 147.267C1186.69 146.081 1182.35 146.876 1176.32 149.039C1176.52 149.361 1176.71 149.693 1176.89 150.035C1179.33 149.328 1180.95 149.167 1181.21 149.71C1181.48 150.282 1180.2 151.524 1177.91 153.076C1175.59 154.64 1172.24 156.517 1168.42 158.332C1164.74 160.077 1161.3 161.445 1158.66 162.263C1155.84 163.141 1153.94 163.387 1153.66 162.793C1153.39 162.227 1154.64 161.001 1156.9 159.469C1156.75 159.124 1156.61 158.772 1156.5 158.414C1150.85 161.787 1147.36 164.729 1147.94 165.935Z" fill="#FFCCAD"/>
<path d="M1150.54 162.773C1149.42 163.864 1147.59 165.143 1148.5 165.912C1149.41 166.678 1156.54 165.297 1170.11 158.986C1170.11 158.986 1156.33 164.318 1152.77 164.946C1149.24 165.564 1148.74 165.087 1150.54 162.773Z" fill="white"/>
<path d="M1180.75 147.885C1182.26 147.583 1185.96 146.676 1186.67 147.366C1187.38 148.056 1183.14 151.666 1181.62 152.527C1181.62 152.527 1185.41 149.46 1185.58 148.046C1185.7 146.988 1180.75 147.885 1180.75 147.885Z" fill="white"/>
<path d="M1184.4 173.546C1184.37 173.513 1184.37 173.457 1184.4 173.424L1184.41 173.415C1184.67 173.155 1184.93 172.879 1185.19 172.606C1185.45 172.32 1185.7 172.034 1185.94 171.751C1185.97 171.718 1186.02 171.709 1186.06 171.741C1186.07 171.755 1186.09 171.774 1186.09 171.797C1186.09 171.824 1186.08 171.843 1186.07 171.863C1185.82 172.156 1185.57 172.445 1185.31 172.721L1185.31 172.724C1185.05 173.007 1184.79 173.28 1184.53 173.539L1184.52 173.549C1184.49 173.579 1184.43 173.579 1184.4 173.546ZM1183.69 174.335C1183.66 174.368 1183.6 174.365 1183.57 174.332C1183.54 174.299 1183.54 174.243 1183.58 174.213L1183.58 174.21C1183.6 174.197 1183.62 174.187 1183.64 174.187C1183.66 174.187 1183.69 174.197 1183.7 174.213C1183.73 174.249 1183.73 174.299 1183.69 174.335ZM1182.83 175.091C1182.54 175.334 1182.24 175.574 1181.94 175.804C1181.64 176.031 1181.33 176.261 1181.01 176.481C1180.99 176.491 1180.97 176.498 1180.95 176.495C1180.93 176.491 1180.91 176.478 1180.9 176.462C1180.87 176.422 1180.88 176.366 1180.92 176.34C1181.22 176.126 1181.53 175.903 1181.84 175.673C1182.14 175.439 1182.44 175.203 1182.72 174.96C1182.74 174.946 1182.77 174.937 1182.79 174.94C1182.81 174.943 1182.83 174.953 1182.84 174.973C1182.87 175.006 1182.87 175.058 1182.84 175.091C1182.84 175.084 1182.84 175.088 1182.83 175.091ZM1186.66 170.982C1186.62 170.952 1186.62 170.9 1186.65 170.864C1186.67 170.821 1186.73 170.818 1186.77 170.844C1186.8 170.877 1186.81 170.926 1186.78 170.966C1186.78 170.969 1186.78 170.969 1186.77 170.972C1186.74 171.005 1186.69 171.008 1186.66 170.982ZM1187.34 170.062C1187.3 170.035 1187.29 169.98 1187.32 169.943L1187.32 169.933C1187.53 169.628 1187.74 169.312 1187.94 168.993C1188.14 168.671 1188.34 168.346 1188.52 168.02C1188.55 167.981 1188.6 167.968 1188.64 167.987C1188.66 167.997 1188.67 168.017 1188.68 168.04C1188.69 168.063 1188.69 168.086 1188.67 168.106C1188.49 168.431 1188.29 168.763 1188.09 169.085L1188.09 169.089C1187.89 169.401 1187.68 169.72 1187.45 170.042C1187.45 170.045 1187.45 170.049 1187.44 170.055C1187.41 170.081 1187.37 170.088 1187.34 170.062ZM1180.06 177.106C1180.04 177.119 1180.02 177.122 1180 177.116C1179.97 177.113 1179.95 177.099 1179.94 177.08C1179.92 177.04 1179.93 176.991 1179.97 176.961C1180.01 176.935 1180.06 176.948 1180.09 176.984C1180.11 177.017 1180.1 177.063 1180.08 177.093C1180.07 177.099 1180.07 177.106 1180.06 177.106ZM1179.08 177.694C1178.76 177.878 1178.42 178.059 1178.08 178.234C1178.08 178.237 1178.07 178.237 1178.07 178.237C1177.73 178.411 1177.38 178.579 1177.04 178.733C1176.99 178.753 1176.94 178.736 1176.92 178.69C1176.9 178.648 1176.93 178.595 1176.96 178.579C1177.3 178.424 1177.65 178.26 1177.98 178.089C1177.98 178.086 1177.99 178.082 1177.99 178.082L1178 178.079C1178.34 177.905 1178.67 177.727 1178.99 177.543C1179.01 177.533 1179.03 177.53 1179.06 177.537C1179.08 177.543 1179.09 177.556 1179.11 177.579C1179.13 177.612 1179.12 177.655 1179.09 177.681C1179.09 177.685 1179.08 177.691 1179.08 177.694ZM1189.1 167.136C1189.06 167.113 1189.04 167.064 1189.07 167.021L1189.07 167.008C1189.1 166.975 1189.15 166.962 1189.18 166.985C1189.2 166.995 1189.22 167.011 1189.23 167.034C1189.23 167.057 1189.23 167.077 1189.22 167.1C1189.22 167.107 1189.21 167.116 1189.21 167.123C1189.18 167.149 1189.14 167.156 1189.1 167.136ZM1189.6 166.111C1189.58 166.101 1189.57 166.084 1189.56 166.061C1189.55 166.045 1189.55 166.022 1189.56 166.002L1189.56 165.995C1189.72 165.64 1189.87 165.292 1190.01 164.957C1190.01 164.953 1190.01 164.953 1190.01 164.95L1190.01 164.947C1190.15 164.598 1190.29 164.24 1190.42 163.882C1190.43 163.839 1190.48 163.813 1190.52 163.829C1190.55 163.836 1190.56 163.852 1190.57 163.872C1190.59 163.895 1190.59 163.918 1190.58 163.941C1190.46 164.286 1190.32 164.644 1190.18 165.013C1190.17 165.016 1190.17 165.019 1190.17 165.019C1190.03 165.371 1189.88 165.723 1189.72 166.068C1189.72 166.078 1189.71 166.084 1189.7 166.091C1189.67 166.117 1189.64 166.124 1189.6 166.111ZM1175.99 179.18C1175.97 179.187 1175.95 179.187 1175.92 179.18C1175.9 179.17 1175.89 179.154 1175.88 179.131C1175.86 179.088 1175.88 179.039 1175.93 179.022C1175.95 179.013 1175.97 179.013 1175.99 179.022C1176.01 179.032 1176.03 179.049 1176.04 179.068C1176.05 179.101 1176.04 179.137 1176.02 179.164C1176.01 179.17 1176 179.177 1175.99 179.18ZM1174.92 179.585C1174.56 179.709 1174.2 179.824 1173.84 179.933C1173.44 180.051 1173.08 180.15 1172.73 180.235C1172.71 180.242 1172.69 180.239 1172.67 180.229C1172.65 180.216 1172.64 180.196 1172.63 180.176C1172.62 180.133 1172.65 180.084 1172.69 180.074C1173.05 179.982 1173.41 179.88 1173.78 179.772C1174.15 179.663 1174.51 179.545 1174.86 179.423C1174.89 179.417 1174.91 179.417 1174.93 179.427C1174.95 179.437 1174.97 179.453 1174.97 179.476C1174.99 179.509 1174.98 179.542 1174.95 179.565C1174.94 179.568 1174.93 179.575 1174.92 179.585ZM1190.82 162.906C1190.79 162.902 1190.78 162.886 1190.76 162.863C1190.76 162.853 1190.75 162.843 1190.75 162.833L1190.75 162.84L1190.76 162.797C1190.77 162.751 1190.82 162.725 1190.87 162.738C1190.91 162.751 1190.94 162.8 1190.93 162.846L1190.92 162.863L1190.92 162.86C1190.92 162.866 1190.91 162.876 1190.91 162.883C1190.88 162.909 1190.85 162.915 1190.82 162.906ZM1191.13 161.808C1191.1 161.801 1191.09 161.788 1191.07 161.768C1191.06 161.748 1191.06 161.725 1191.07 161.702C1191.16 161.338 1191.24 160.969 1191.32 160.611C1191.32 160.608 1191.32 160.601 1191.32 160.595L1191.32 160.588C1191.4 160.217 1191.46 159.845 1191.52 159.477C1191.53 159.428 1191.58 159.398 1191.62 159.408C1191.64 159.411 1191.66 159.421 1191.67 159.441C1191.69 159.461 1191.69 159.484 1191.69 159.503C1191.63 159.878 1191.56 160.259 1191.48 160.634C1191.48 160.637 1191.48 160.641 1191.48 160.647C1191.41 161.012 1191.32 161.384 1191.23 161.752C1191.23 161.765 1191.22 161.778 1191.21 161.791C1191.18 161.808 1191.15 161.814 1191.13 161.808ZM1171.62 180.492C1171.57 180.498 1171.52 180.469 1171.51 180.423C1171.51 180.377 1171.54 180.331 1171.58 180.321C1171.61 180.318 1171.63 180.324 1171.65 180.334C1171.67 180.347 1171.68 180.367 1171.69 180.39C1171.69 180.419 1171.68 180.446 1171.66 180.469C1171.65 180.479 1171.63 180.488 1171.62 180.492ZM1170.49 180.692C1170.13 180.751 1169.75 180.801 1169.36 180.847H1169.35C1168.98 180.89 1168.6 180.922 1168.22 180.945C1168.2 180.949 1168.18 180.942 1168.16 180.922C1168.14 180.909 1168.13 180.89 1168.13 180.863C1168.13 180.82 1168.16 180.774 1168.21 180.774C1168.58 180.748 1168.96 180.712 1169.34 180.673C1169.7 180.633 1170.08 180.584 1170.47 180.521C1170.49 180.518 1170.51 180.525 1170.53 180.535C1170.54 180.548 1170.56 180.567 1170.56 180.594C1170.56 180.62 1170.56 180.646 1170.54 180.666C1170.53 180.682 1170.51 180.689 1170.49 180.692ZM1191.74 158.442C1191.72 158.438 1191.7 158.428 1191.69 158.409C1191.67 158.392 1191.66 158.366 1191.67 158.346C1191.67 158.304 1191.72 158.267 1191.76 158.271C1191.79 158.274 1191.81 158.284 1191.82 158.304C1191.84 158.317 1191.84 158.343 1191.84 158.366C1191.84 158.386 1191.83 158.405 1191.82 158.419C1191.8 158.435 1191.77 158.442 1191.74 158.442ZM1191.85 157.304C1191.83 157.304 1191.81 157.294 1191.79 157.278C1191.78 157.258 1191.77 157.235 1191.77 157.216C1191.79 156.831 1191.81 156.446 1191.82 156.081C1191.83 155.703 1191.83 155.322 1191.82 154.944C1191.82 154.895 1191.86 154.855 1191.9 154.855C1191.95 154.855 1191.99 154.895 1191.99 154.938C1192 155.322 1192 155.707 1191.99 156.085C1191.99 156.45 1191.97 156.831 1191.94 157.225C1191.94 157.248 1191.93 157.268 1191.92 157.285C1191.9 157.298 1191.88 157.308 1191.85 157.304ZM1167.08 181.001C1167.05 180.998 1167.03 180.991 1167.02 180.975C1167 180.962 1166.99 180.939 1166.99 180.916C1166.99 180.87 1167.03 180.827 1167.08 180.827C1167.1 180.824 1167.12 180.834 1167.14 180.85C1167.16 180.867 1167.16 180.89 1167.17 180.913C1167.17 180.936 1167.16 180.959 1167.14 180.975C1167.12 180.991 1167.1 180.998 1167.08 181.001ZM1165.93 180.998C1165.56 180.991 1165.17 180.975 1164.79 180.949C1164.41 180.922 1164.02 180.886 1163.65 180.847C1163.6 180.843 1163.57 180.797 1163.58 180.751C1163.58 180.705 1163.63 180.669 1163.67 180.676C1164.05 180.719 1164.42 180.751 1164.79 180.778C1164.8 180.774 1164.8 180.774 1164.8 180.778H1164.82C1165.19 180.801 1165.57 180.817 1165.94 180.827C1165.96 180.827 1165.98 180.837 1166 180.85C1166.01 180.867 1166.02 180.89 1166.02 180.913C1166.02 180.936 1166.01 180.955 1166 180.972C1165.98 180.991 1165.96 181.001 1165.93 180.998ZM1191.87 153.886C1191.84 153.889 1191.82 153.882 1191.8 153.866C1191.79 153.849 1191.78 153.83 1191.77 153.807C1191.77 153.761 1191.81 153.718 1191.85 153.711C1191.88 153.711 1191.9 153.718 1191.91 153.734C1191.92 153.744 1191.93 153.754 1191.94 153.771L1191.94 153.767L1191.94 153.794C1191.94 153.817 1191.93 153.843 1191.92 153.859C1191.9 153.876 1191.88 153.886 1191.87 153.886ZM1191.77 152.748C1191.72 152.755 1191.68 152.722 1191.67 152.673C1191.63 152.291 1191.58 151.913 1191.52 151.548C1191.46 151.167 1191.39 150.792 1191.32 150.431C1191.31 150.385 1191.34 150.339 1191.39 150.329C1191.41 150.326 1191.43 150.329 1191.45 150.342C1191.47 150.355 1191.48 150.375 1191.49 150.398C1191.56 150.763 1191.63 151.144 1191.69 151.522C1191.75 151.894 1191.8 152.275 1191.84 152.653C1191.85 152.679 1191.84 152.706 1191.82 152.725C1191.8 152.742 1191.79 152.748 1191.77 152.748ZM1162.52 180.692C1162.49 180.689 1162.47 180.679 1162.46 180.659C1162.45 180.643 1162.44 180.617 1162.45 180.597C1162.45 180.551 1162.5 180.518 1162.54 180.525C1162.59 180.531 1162.62 180.574 1162.61 180.623C1162.61 180.64 1162.6 180.656 1162.59 180.666C1162.57 180.689 1162.54 180.699 1162.52 180.692ZM1161.39 180.492C1161.01 180.416 1160.64 180.331 1160.27 180.242C1159.91 180.15 1159.54 180.048 1159.17 179.936C1159.12 179.923 1159.1 179.874 1159.11 179.828C1159.12 179.785 1159.17 179.755 1159.22 179.769C1159.59 179.877 1159.96 179.982 1160.32 180.071C1160.69 180.163 1161.06 180.249 1161.43 180.321C1161.45 180.324 1161.47 180.337 1161.48 180.354C1161.49 180.377 1161.5 180.4 1161.49 180.419C1161.49 180.436 1161.48 180.452 1161.47 180.465C1161.45 180.488 1161.42 180.495 1161.39 180.492ZM1191.17 149.389C1191.13 149.402 1191.08 149.376 1191.07 149.326V149.317C1191.06 149.274 1191.09 149.228 1191.13 149.218C1191.15 149.211 1191.17 149.215 1191.19 149.228C1191.2 149.238 1191.22 149.251 1191.23 149.264L1191.23 149.277C1191.24 149.31 1191.23 149.34 1191.21 149.363C1191.2 149.376 1191.18 149.382 1191.17 149.389ZM1190.88 148.288C1190.85 148.294 1190.83 148.294 1190.81 148.281C1190.79 148.268 1190.77 148.255 1190.77 148.232C1190.66 147.873 1190.54 147.509 1190.42 147.15C1190.3 146.799 1190.16 146.44 1190.02 146.085C1190 146.043 1190.03 145.993 1190.07 145.977C1190.11 145.957 1190.17 145.98 1190.18 146.026C1190.32 146.371 1190.46 146.733 1190.58 147.094C1190.71 147.453 1190.83 147.821 1190.94 148.179C1190.94 148.212 1190.94 148.242 1190.92 148.268C1190.9 148.278 1190.89 148.288 1190.88 148.288ZM1158.08 179.581C1158.05 179.575 1158.04 179.558 1158.03 179.539C1158.01 179.515 1158.01 179.496 1158.02 179.469C1158.04 179.427 1158.09 179.404 1158.13 179.417C1158.18 179.433 1158.2 179.479 1158.19 179.529C1158.18 179.539 1158.17 179.552 1158.16 179.562C1158.14 179.585 1158.11 179.594 1158.08 179.581ZM1157 179.177C1156.66 179.039 1156.3 178.888 1155.96 178.73C1155.96 178.73 1155.95 178.727 1155.95 178.727C1155.6 178.569 1155.25 178.401 1154.91 178.23C1154.87 178.207 1154.86 178.155 1154.88 178.112C1154.9 178.069 1154.95 178.053 1154.99 178.076C1155.33 178.243 1155.67 178.411 1156.02 178.569C1156.37 178.727 1156.72 178.878 1157.07 179.019C1157.09 179.026 1157.11 179.042 1157.11 179.065C1157.12 179.085 1157.12 179.108 1157.12 179.131C1157.11 179.141 1157.11 179.151 1157.1 179.16C1157.07 179.187 1157.03 179.193 1157 179.177ZM1189.69 145.089C1189.65 145.109 1189.61 145.096 1189.58 145.06L1189.58 145.063L1189.57 145.05C1189.56 145.007 1189.58 144.954 1189.62 144.935C1189.66 144.915 1189.72 144.935 1189.74 144.978C1189.75 145.01 1189.74 145.05 1189.72 145.076C1189.71 145.079 1189.7 145.083 1189.69 145.089ZM1189.2 144.06C1189.18 144.07 1189.16 144.07 1189.13 144.064C1189.11 144.057 1189.09 144.044 1189.08 144.021C1188.9 143.656 1188.72 143.331 1188.55 143.022C1188.35 142.686 1188.16 142.354 1187.96 142.042C1187.94 142.003 1187.95 141.95 1187.99 141.924C1188.01 141.911 1188.04 141.907 1188.06 141.914C1188.08 141.917 1188.1 141.93 1188.11 141.95C1188.31 142.269 1188.51 142.598 1188.7 142.933C1188.88 143.258 1189.06 143.6 1189.24 143.939C1189.25 143.972 1189.25 144.011 1189.22 144.037C1189.22 144.051 1189.21 144.057 1189.2 144.06ZM1153.91 177.688C1153.87 177.665 1153.85 177.609 1153.88 177.57C1153.9 177.527 1153.95 177.514 1153.99 177.537C1154.01 177.546 1154.03 177.563 1154.03 177.589C1154.04 177.612 1154.04 177.632 1154.03 177.655C1154.02 177.662 1154.02 177.668 1154.01 177.671C1153.98 177.704 1153.94 177.708 1153.91 177.688ZM1152.93 177.096C1152.61 176.899 1152.29 176.689 1151.98 176.472L1151.98 176.468C1151.97 176.472 1151.97 176.468 1151.97 176.468C1151.65 176.242 1151.34 176.015 1151.05 175.791C1151.01 175.762 1151.01 175.709 1151.03 175.673C1151.06 175.637 1151.12 175.627 1151.15 175.656C1151.45 175.886 1151.76 176.11 1152.07 176.324C1152.37 176.534 1152.68 176.738 1153.01 176.952C1153.04 176.965 1153.05 176.984 1153.05 177.004C1153.06 177.027 1153.06 177.05 1153.04 177.07C1153.04 177.073 1153.04 177.08 1153.03 177.083C1153 177.116 1152.96 177.122 1152.93 177.096ZM1187.46 141.118C1187.42 141.145 1187.37 141.135 1187.34 141.095C1187.31 141.059 1187.32 141.007 1187.36 140.977C1187.4 140.951 1187.45 140.964 1187.48 141C1187.51 141.033 1187.5 141.079 1187.47 141.109C1187.47 141.112 1187.46 141.115 1187.46 141.118ZM1186.79 140.191C1186.75 140.221 1186.7 140.214 1186.67 140.178C1186.44 139.879 1186.2 139.58 1185.96 139.291C1185.73 139.008 1185.48 138.719 1185.21 138.433C1185.18 138.4 1185.19 138.344 1185.22 138.314C1185.24 138.298 1185.26 138.291 1185.28 138.288C1185.3 138.291 1185.32 138.301 1185.34 138.321C1185.59 138.597 1185.85 138.883 1186.1 139.182C1186.33 139.465 1186.57 139.758 1186.81 140.076C1186.83 140.109 1186.83 140.159 1186.8 140.191C1186.8 140.191 1186.8 140.191 1186.79 140.191ZM1150.15 175.081C1150.14 175.068 1150.13 175.045 1150.12 175.022C1150.12 174.999 1150.13 174.979 1150.14 174.96C1150.17 174.927 1150.23 174.917 1150.26 174.95C1150.28 174.963 1150.29 174.983 1150.29 175.009C1150.3 175.032 1150.29 175.052 1150.28 175.071C1150.27 175.075 1150.27 175.078 1150.27 175.078C1150.24 175.107 1150.19 175.107 1150.15 175.081ZM1149.29 174.328C1149.01 174.072 1148.73 173.806 1148.47 173.539L1148.43 173.5C1148.16 173.23 1147.89 172.948 1147.64 172.672C1147.6 172.639 1147.61 172.576 1147.64 172.55C1147.66 172.537 1147.68 172.527 1147.7 172.527C1147.73 172.527 1147.75 172.54 1147.76 172.553C1148.02 172.836 1148.29 173.115 1148.55 173.378L1148.59 173.418C1148.86 173.684 1149.13 173.95 1149.41 174.203C1149.42 174.22 1149.43 174.24 1149.44 174.263C1149.44 174.286 1149.43 174.309 1149.42 174.325L1149.41 174.328C1149.38 174.355 1149.33 174.358 1149.29 174.328ZM1184.43 137.611C1184.4 137.578 1184.4 137.522 1184.43 137.489C1184.46 137.457 1184.52 137.457 1184.55 137.489C1184.58 137.522 1184.58 137.578 1184.55 137.611C1184.52 137.647 1184.46 137.647 1184.43 137.611ZM1183.61 136.825C1183.33 136.572 1183.05 136.319 1182.75 136.079C1182.47 135.839 1182.17 135.599 1181.87 135.366C1181.83 135.336 1181.82 135.284 1181.85 135.244C1181.88 135.205 1181.93 135.202 1181.97 135.231C1182.27 135.458 1182.57 135.698 1182.87 135.944C1183.16 136.194 1183.45 136.447 1183.73 136.697C1183.76 136.73 1183.77 136.786 1183.73 136.819L1183.73 136.822C1183.7 136.855 1183.64 136.855 1183.61 136.825ZM1147.01 171.817C1146.99 171.83 1146.97 171.837 1146.94 171.837C1146.92 171.833 1146.9 171.824 1146.89 171.804C1146.85 171.768 1146.86 171.712 1146.9 171.686C1146.91 171.672 1146.94 171.663 1146.96 171.666C1146.99 171.669 1147.01 171.679 1147.02 171.699C1147.05 171.732 1147.04 171.781 1147.02 171.81C1147.01 171.814 1147.01 171.814 1147.01 171.817ZM1146.29 170.929C1146.26 170.956 1146.2 170.949 1146.17 170.913C1145.94 170.607 1145.72 170.298 1145.5 169.986C1145.29 169.687 1145.08 169.365 1144.87 169.03C1144.85 168.99 1144.86 168.937 1144.9 168.911C1144.92 168.901 1144.94 168.898 1144.96 168.905C1144.98 168.908 1145 168.914 1145.01 168.931L1145.01 168.928L1145.02 168.937C1145.22 169.253 1145.43 169.575 1145.64 169.887C1145.86 170.203 1146.09 170.512 1146.31 170.805C1146.34 170.841 1146.34 170.887 1146.31 170.92C1146.3 170.923 1146.3 170.926 1146.29 170.929ZM1180.95 134.695L1180.94 134.689C1180.91 134.659 1180.9 134.613 1180.93 134.577C1180.95 134.544 1181 134.528 1181.04 134.551L1181.05 134.554C1181.09 134.584 1181.1 134.636 1181.07 134.672C1181.07 134.676 1181.06 134.679 1181.06 134.685C1181.03 134.715 1180.98 134.718 1180.95 134.695ZM1180 134.067C1179.69 133.867 1179.36 133.673 1179.03 133.486L1179.03 133.482C1178.7 133.298 1178.36 133.114 1178.03 132.943C1178 132.93 1177.99 132.91 1177.98 132.891C1177.98 132.868 1177.98 132.848 1177.99 132.828C1178.01 132.785 1178.06 132.766 1178.11 132.789C1178.45 132.963 1178.79 133.147 1179.11 133.331C1179.44 133.519 1179.77 133.716 1180.09 133.923C1180.13 133.946 1180.14 133.998 1180.12 134.041C1180.11 134.044 1180.11 134.048 1180.1 134.054C1180.08 134.084 1180.04 134.087 1180 134.067ZM1144.41 168.08C1144.36 168.103 1144.31 168.086 1144.29 168.047C1144.26 168.007 1144.28 167.951 1144.32 167.928C1144.34 167.915 1144.36 167.915 1144.39 167.918C1144.41 167.925 1144.43 167.941 1144.44 167.961C1144.46 167.994 1144.45 168.04 1144.43 168.066C1144.42 168.073 1144.41 168.076 1144.41 168.08ZM1143.86 167.077C1143.82 167.097 1143.76 167.08 1143.74 167.034C1143.57 166.696 1143.41 166.347 1143.25 166.002C1143.09 165.647 1142.94 165.292 1142.8 164.953C1142.78 164.911 1142.81 164.858 1142.85 164.842C1142.87 164.835 1142.89 164.835 1142.92 164.842C1142.94 164.852 1142.95 164.868 1142.96 164.891C1143.1 165.239 1143.25 165.591 1143.4 165.936C1143.56 166.281 1143.73 166.623 1143.9 166.962C1143.91 166.995 1143.91 167.034 1143.88 167.061C1143.88 167.064 1143.87 167.074 1143.86 167.077ZM1177 132.447C1176.98 132.437 1176.96 132.424 1176.96 132.401C1176.95 132.378 1176.95 132.355 1176.96 132.332C1176.98 132.289 1177.03 132.269 1177.07 132.289L1177.09 132.296L1177.09 132.299C1177.1 132.306 1177.11 132.319 1177.12 132.335C1177.13 132.358 1177.13 132.381 1177.12 132.401C1177.11 132.411 1177.11 132.421 1177.1 132.427C1177.08 132.453 1177.03 132.46 1177 132.447ZM1175.96 131.997C1175.61 131.859 1175.26 131.727 1174.89 131.599C1174.55 131.477 1174.19 131.362 1173.81 131.244C1173.76 131.231 1173.74 131.181 1173.75 131.135C1173.76 131.089 1173.81 131.063 1173.86 131.076C1174.21 131.185 1174.58 131.3 1174.95 131.431H1174.95C1175.3 131.556 1175.66 131.691 1176.02 131.832C1176.04 131.842 1176.06 131.855 1176.07 131.878C1176.08 131.898 1176.08 131.921 1176.06 131.944C1176.06 131.957 1176.05 131.964 1176.05 131.97C1176.02 132.003 1175.99 132.01 1175.96 131.997ZM1142.52 163.938C1142.48 163.951 1142.44 163.934 1142.42 163.898L1142.41 163.902L1142.41 163.885C1142.39 163.842 1142.42 163.793 1142.46 163.777C1142.49 163.77 1142.51 163.773 1142.53 163.78C1142.55 163.787 1142.56 163.806 1142.57 163.829L1142.57 163.836C1142.58 163.865 1142.57 163.895 1142.55 163.915C1142.54 163.925 1142.53 163.934 1142.52 163.938ZM1142.16 162.856C1142.14 162.863 1142.12 162.86 1142.1 162.85C1142.08 162.84 1142.07 162.82 1142.06 162.797C1141.95 162.429 1141.84 162.054 1141.76 161.693C1141.66 161.301 1141.58 160.937 1141.5 160.582C1141.5 160.536 1141.53 160.49 1141.57 160.48C1141.59 160.473 1141.62 160.476 1141.64 160.493C1141.66 160.506 1141.67 160.526 1141.67 160.549C1141.75 160.93 1141.83 161.305 1141.92 161.656C1142.02 162.028 1142.12 162.396 1142.22 162.751C1142.23 162.781 1142.22 162.814 1142.2 162.837C1142.19 162.846 1142.18 162.853 1142.16 162.856ZM1172.71 130.945C1172.67 130.932 1172.64 130.886 1172.65 130.836C1172.66 130.793 1172.71 130.764 1172.75 130.774C1172.78 130.78 1172.79 130.793 1172.81 130.813C1172.82 130.833 1172.82 130.856 1172.81 130.879C1172.81 130.895 1172.8 130.909 1172.79 130.922C1172.77 130.945 1172.74 130.951 1172.71 130.945ZM1171.63 130.688L1171.64 130.695L1171.6 130.688C1171.23 130.613 1170.86 130.544 1170.48 130.484C1170.12 130.425 1169.74 130.376 1169.35 130.33C1169.31 130.33 1169.27 130.284 1169.28 130.238C1169.28 130.195 1169.33 130.156 1169.37 130.162C1169.75 130.205 1170.13 130.254 1170.51 130.317C1170.89 130.379 1171.27 130.445 1171.64 130.521C1171.66 130.524 1171.68 130.537 1171.69 130.557C1171.7 130.577 1171.71 130.6 1171.7 130.619C1171.7 130.636 1171.69 130.652 1171.68 130.665C1171.67 130.678 1171.65 130.688 1171.63 130.688ZM1141.4 159.53C1141.38 159.533 1141.36 159.53 1141.34 159.517C1141.32 159.503 1141.31 159.484 1141.31 159.457C1141.3 159.408 1141.33 159.365 1141.37 159.359C1141.42 159.352 1141.46 159.385 1141.47 159.431C1141.48 159.457 1141.47 159.484 1141.45 159.503C1141.44 159.517 1141.42 159.526 1141.4 159.53ZM1141.25 158.399C1141.2 158.405 1141.16 158.369 1141.15 158.323C1141.11 157.949 1141.08 157.571 1141.05 157.183C1141.05 157.179 1141.05 157.179 1141.05 157.173C1141.02 156.801 1141.01 156.42 1141 156.042C1141 155.999 1141.04 155.953 1141.09 155.953C1141.13 155.95 1141.17 155.989 1141.17 156.039C1141.18 156.397 1141.2 156.775 1141.22 157.166C1141.22 157.166 1141.22 157.17 1141.23 157.173V157.202C1141.25 157.577 1141.29 157.949 1141.33 158.304C1141.33 158.33 1141.32 158.356 1141.3 158.376C1141.29 158.389 1141.27 158.399 1141.25 158.399ZM1168.22 130.231H1168.22C1168.18 130.228 1168.14 130.185 1168.15 130.143C1168.15 130.097 1168.19 130.057 1168.23 130.064C1168.26 130.064 1168.28 130.074 1168.29 130.093C1168.31 130.11 1168.32 130.133 1168.32 130.156C1168.31 130.179 1168.31 130.199 1168.29 130.212C1168.27 130.225 1168.25 130.235 1168.22 130.231ZM1167.09 130.179C1166.72 130.169 1166.34 130.169 1165.95 130.176C1165.57 130.185 1165.19 130.202 1164.82 130.228C1164.79 130.228 1164.77 130.222 1164.75 130.208C1164.74 130.192 1164.72 130.169 1164.73 130.149C1164.72 130.106 1164.76 130.06 1164.81 130.057C1165.17 130.034 1165.56 130.014 1165.95 130.008C1165.95 130.008 1165.95 130.011 1165.96 130.008C1166.33 130.001 1166.72 130.001 1167.09 130.008C1167.14 130.011 1167.18 130.051 1167.18 130.097C1167.18 130.123 1167.17 130.139 1167.15 130.156C1167.13 130.169 1167.11 130.179 1167.09 130.179ZM1141.09 154.987C1141.04 154.984 1141 154.944 1141 154.895C1141.01 154.849 1141.05 154.806 1141.09 154.813C1141.12 154.813 1141.14 154.819 1141.15 154.839C1141.17 154.855 1141.18 154.875 1141.18 154.898C1141.18 154.921 1141.17 154.941 1141.15 154.961C1141.13 154.974 1141.11 154.987 1141.09 154.987ZM1141.14 153.846C1141.12 153.846 1141.09 153.833 1141.08 153.817C1141.06 153.8 1141.06 153.777 1141.06 153.754C1141.08 153.373 1141.12 152.985 1141.16 152.614C1141.2 152.232 1141.26 151.854 1141.31 151.479C1141.32 151.433 1141.37 151.397 1141.41 151.407C1141.46 151.414 1141.49 151.46 1141.48 151.506C1141.43 151.867 1141.37 152.245 1141.33 152.633C1141.29 153.015 1141.25 153.399 1141.23 153.764C1141.22 153.787 1141.22 153.803 1141.2 153.817C1141.18 153.836 1141.16 153.846 1141.14 153.846ZM1163.68 130.33L1163.65 130.333L1163.66 130.33C1163.62 130.323 1163.6 130.291 1163.59 130.254C1163.58 130.208 1163.62 130.166 1163.66 130.159C1163.69 130.156 1163.71 130.162 1163.73 130.176C1163.75 130.189 1163.76 130.208 1163.76 130.238C1163.76 130.261 1163.75 130.287 1163.74 130.307C1163.72 130.32 1163.7 130.327 1163.68 130.33ZM1162.56 130.481C1162.19 130.54 1161.81 130.606 1161.44 130.685C1161.07 130.757 1160.7 130.843 1160.33 130.935C1160.31 130.941 1160.29 130.938 1160.27 130.922C1160.25 130.912 1160.23 130.892 1160.23 130.869C1160.22 130.823 1160.25 130.774 1160.29 130.764C1160.66 130.672 1161.04 130.59 1161.41 130.514C1161.77 130.438 1162.15 130.373 1162.53 130.31C1162.58 130.304 1162.62 130.333 1162.63 130.383C1162.64 130.412 1162.63 130.435 1162.6 130.458C1162.59 130.468 1162.58 130.478 1162.56 130.481ZM1141.59 150.454C1141.56 150.451 1141.54 150.437 1141.53 150.418C1141.52 150.398 1141.52 150.375 1141.52 150.352L1141.52 150.349C1141.53 150.306 1141.58 150.276 1141.62 150.286C1141.64 150.29 1141.66 150.303 1141.67 150.322C1141.68 150.332 1141.69 150.345 1141.69 150.355L1141.69 150.349L1141.69 150.385C1141.68 150.401 1141.67 150.418 1141.66 150.428C1141.64 150.451 1141.61 150.46 1141.59 150.454ZM1141.84 149.34C1141.79 149.326 1141.77 149.28 1141.78 149.238C1141.86 148.883 1141.97 148.508 1142.08 148.13C1142.08 148.127 1142.08 148.127 1142.09 148.123C1142.2 147.749 1142.32 147.387 1142.44 147.042C1142.46 146.999 1142.51 146.973 1142.55 146.989C1142.57 146.996 1142.59 147.012 1142.6 147.032C1142.61 147.055 1142.61 147.078 1142.6 147.101C1142.48 147.456 1142.36 147.821 1142.25 148.182C1142.14 148.531 1142.05 148.899 1141.95 149.28C1141.94 149.294 1141.93 149.307 1141.92 149.32C1141.9 149.336 1141.86 149.349 1141.84 149.34ZM1159.24 131.231C1159.19 131.244 1159.15 131.218 1159.13 131.172C1159.12 131.129 1159.14 131.079 1159.18 131.066L1159.19 131.063C1159.21 131.056 1159.23 131.06 1159.25 131.07C1159.27 131.079 1159.29 131.096 1159.3 131.122C1159.31 131.152 1159.3 131.185 1159.27 131.208C1159.26 131.218 1159.25 131.227 1159.24 131.231ZM1158.18 131.573L1158.16 131.579C1157.81 131.701 1157.45 131.836 1157.1 131.977C1156.76 132.112 1156.41 132.263 1156.05 132.421C1156.03 132.43 1156.01 132.43 1155.99 132.424C1155.96 132.417 1155.95 132.401 1155.94 132.381C1155.92 132.338 1155.94 132.283 1155.98 132.266C1156.32 132.108 1156.67 131.96 1157.03 131.819C1157.4 131.674 1157.75 131.54 1158.1 131.418C1158.12 131.411 1158.15 131.411 1158.17 131.421C1158.19 131.434 1158.2 131.451 1158.21 131.474C1158.22 131.504 1158.21 131.54 1158.19 131.563C1158.19 131.566 1158.18 131.569 1158.18 131.573ZM1142.89 146.082C1142.84 146.062 1142.82 146.013 1142.84 145.97C1142.86 145.927 1142.91 145.904 1142.95 145.924C1142.97 145.931 1142.99 145.944 1143 145.967C1143.01 145.99 1143.01 146.013 1143 146.033C1143 146.046 1142.99 146.052 1142.98 146.062C1142.95 146.085 1142.92 146.092 1142.89 146.082ZM1143.33 145.03C1143.29 145.007 1143.27 144.961 1143.29 144.915C1143.45 144.57 1143.61 144.221 1143.79 143.883C1143.97 143.534 1144.15 143.196 1144.33 142.877C1144.35 142.834 1144.41 142.821 1144.45 142.844C1144.49 142.87 1144.51 142.923 1144.48 142.962C1144.29 143.301 1144.11 143.636 1143.94 143.962C1143.76 144.3 1143.6 144.646 1143.45 144.987C1143.44 144.997 1143.43 145.004 1143.43 145.01C1143.4 145.037 1143.37 145.043 1143.33 145.03ZM1155.03 132.91C1154.99 132.93 1154.93 132.914 1154.91 132.871C1154.89 132.828 1154.92 132.772 1154.95 132.756L1154.95 132.753C1154.97 132.743 1154.99 132.743 1155.02 132.749C1155.04 132.756 1155.06 132.769 1155.07 132.792C1155.08 132.825 1155.08 132.864 1155.05 132.891C1155.05 132.901 1155.04 132.907 1155.03 132.91ZM1154.03 133.449C1153.7 133.634 1153.37 133.831 1153.06 134.021C1153.06 134.025 1153.06 134.025 1153.05 134.031L1153.04 134.035C1152.73 134.235 1152.41 134.446 1152.1 134.656C1152.06 134.682 1152.01 134.672 1151.99 134.633C1151.96 134.593 1151.97 134.541 1152.01 134.511C1152.31 134.301 1152.63 134.09 1152.96 133.883C1152.97 133.88 1152.97 133.88 1152.97 133.88C1153.29 133.683 1153.61 133.489 1153.94 133.298C1153.96 133.285 1153.98 133.285 1154.01 133.292C1154.03 133.295 1154.05 133.315 1154.06 133.334C1154.08 133.367 1154.07 133.407 1154.05 133.436C1154.04 133.44 1154.03 133.443 1154.03 133.449ZM1144.95 142.016C1144.93 142.003 1144.92 141.983 1144.91 141.963C1144.91 141.94 1144.91 141.917 1144.92 141.897C1144.95 141.858 1145 141.845 1145.04 141.871C1145.08 141.894 1145.09 141.95 1145.07 141.989C1145.06 141.996 1145.06 142.003 1145.05 142.006C1145.03 142.029 1144.99 142.036 1144.95 142.016ZM1145.58 141.063C1145.56 141.049 1145.55 141.03 1145.54 141.007C1145.54 140.984 1145.54 140.964 1145.56 140.944C1145.78 140.629 1146 140.316 1146.23 140.02C1146.47 139.712 1146.71 139.412 1146.95 139.13C1146.98 139.097 1147.03 139.087 1147.07 139.12C1147.11 139.149 1147.11 139.199 1147.08 139.238C1146.84 139.521 1146.6 139.82 1146.37 140.122L1146.37 140.126C1146.13 140.425 1145.91 140.737 1145.7 141.04C1145.69 141.046 1145.69 141.049 1145.69 141.053C1145.66 141.082 1145.61 141.086 1145.58 141.063ZM1151.18 135.323C1151.17 135.336 1151.14 135.343 1151.12 135.336C1151.1 135.333 1151.08 135.323 1151.07 135.303C1151.04 135.264 1151.04 135.208 1151.08 135.185C1151.1 135.169 1151.12 135.162 1151.14 135.165C1151.17 135.169 1151.19 135.182 1151.2 135.202C1151.23 135.234 1151.22 135.28 1151.19 135.31C1151.19 135.32 1151.19 135.323 1151.18 135.323ZM1150.3 136.033C1150 136.276 1149.71 136.526 1149.44 136.779C1149.17 137.032 1148.89 137.295 1148.62 137.565C1148.59 137.598 1148.53 137.598 1148.5 137.565C1148.47 137.532 1148.47 137.476 1148.5 137.443C1148.77 137.167 1149.05 136.904 1149.33 136.654C1149.61 136.395 1149.9 136.142 1150.19 135.902C1150.21 135.889 1150.23 135.879 1150.25 135.882C1150.27 135.882 1150.3 135.895 1150.31 135.912C1150.34 135.944 1150.34 135.997 1150.31 136.03C1150.3 136.027 1150.3 136.03 1150.3 136.033ZM1147.82 138.393C1147.79 138.416 1147.74 138.416 1147.71 138.39C1147.69 138.374 1147.68 138.347 1147.68 138.328C1147.68 138.305 1147.69 138.285 1147.7 138.268L1147.7 138.262C1147.74 138.229 1147.79 138.229 1147.82 138.262C1147.86 138.291 1147.86 138.344 1147.83 138.38L1147.82 138.393Z" fill="white"/>
</g>
<defs>
<clipPath id="clip0">
<rect width="40" height="40" fill="white" transform="translate(36 99)"/>
</clipPath>
<clipPath id="clip1">
<rect width="51" height="51" fill="white" transform="translate(1141 130)"/>
</clipPath>
</defs>
</svg>
