<svg width="1469" height="495" viewBox="0 0 1469 495" fill="none" xmlns="http://www.w3.org/2000/svg">
<path fill-rule="evenodd" clip-rule="evenodd" d="M0 84.9088C0 38.0149 38.0149 0 84.9088 0H1383.23C1430.12 0 1468.14 38.0149 1468.14 84.9088C1468.14 131.803 1430.12 169.818 1383.23 169.818H84.9087C38.0149 169.818 0 131.803 0 84.9088ZM3.61302 252.922C3.61302 224.985 26.2602 202.338 54.197 202.338H1413.94C1441.88 202.338 1464.53 224.985 1464.53 252.922C1464.53 280.858 1441.88 303.506 1413.94 303.506H1327.23V366.13H128.869V303.506H54.1969C26.2602 303.506 3.61302 280.858 3.61302 252.922ZM101.77 366.13C66.1838 366.13 37.3356 394.979 37.3356 430.565C37.3356 466.151 66.1837 494.999 101.77 494.999H1366.37C1401.95 494.999 1430.8 466.151 1430.8 430.565C1430.8 394.979 1401.95 366.13 1366.37 366.13H101.77ZM1327.23 169.818V202.336H128.869V169.818H1327.23Z" fill="url(#paint0_linear_272_222)"/>
<rect x="89.125" y="303.504" width="219.197" height="62.6277" rx="31.3139" fill="white"/>
<rect x="1146.35" y="304" width="236" height="62" rx="31" fill="white"/>
<rect x="108.395" y="169.816" width="61.4234" height="32.5182" rx="16.2591" fill="white"/>
<rect x="1303.35" y="170" width="46" height="32" rx="16" fill="white"/>
<defs>
<linearGradient id="paint0_linear_272_222" x1="734.069" y1="0" x2="734.069" y2="494.999" gradientUnits="userSpaceOnUse">
<stop stop-color="#DEF3F5"/>
<stop offset="1" stop-color="#CAF1F3"/>
</linearGradient>
</defs>
</svg>
