<svg width="1515" height="608" viewBox="0 0 1515 608" fill="none" xmlns="http://www.w3.org/2000/svg">
<path fill-rule="evenodd" clip-rule="evenodd" d="M167 43.5C167 19.4756 186.475 0 210.5 0H1443.5C1467.52 0 1487 19.4756 1487 43.5C1487 67.5244 1467.52 87 1443.5 87H1422.94V214H1512L1512 347L1512 348L1512 434V442V608H87.0253C38.9766 608 0.0253906 569.049 0.0253906 521C0.0253906 472.951 38.9766 434 87.0254 434H95.1823C82.4535 425.479 74.0731 410.968 74.0731 394.5C74.0731 368.266 95.3395 347 121.573 347H167.501C136.025 341.508 112.098 314.048 112.098 281C112.098 243.997 142.094 214 179.098 214H385.274V87H210.5C186.475 87 167 67.5244 167 43.5Z" fill="#FAFBFD"/>
<path d="M473.33 391C473.33 415.301 453.631 435 429.33 435L70.0701 435L70.0701 347L429.33 347C453.631 347 473.33 366.699 473.33 391Z" fill="white"/>
<ellipse cx="1428.71" cy="150.71" rx="63.8031" ry="63.762" fill="white"/>
<ellipse cx="383.034" cy="150.71" rx="63.8031" ry="63.762" fill="white"/>
<path d="M1419.94 320.5C1419.94 306.969 1430.91 296 1444.44 296H1511V345H1444.44C1430.91 345 1419.94 334.031 1419.94 320.5Z" fill="white"/>
<path d="M1259.84 500C1259.84 472.938 1281.78 451 1308.84 451H1663.1V549H1308.84C1281.78 549 1259.84 527.062 1259.84 500Z" fill="white"/>
</svg>
