<svg width="1600" height="689" viewBox="0 0 1600 689" fill="none" xmlns="http://www.w3.org/2000/svg">
<rect width="1760" height="359" rx="179.5" transform="matrix(-1 -8.3668e-08 -9.1346e-08 1 1533 0)" fill="#FAFBFD"/>
<rect width="1792" height="193" rx="96.5001" transform="matrix(-1 -1.02351e-07 -7.46718e-08 1 1442 496)" fill="#FAFBFD"/>
<rect width="1548" height="137" transform="matrix(-1 -1.02351e-07 -7.46718e-08 1 1321 359)" fill="#FAFBFD"/>
<rect width="1479.53" height="136.643" rx="68.3213" transform="matrix(-1 -1.07011e-07 -7.142e-08 1 2689.53 359)" fill="white"/>
<rect width="351" height="48" rx="24" transform="matrix(-1 -1.07011e-07 -7.142e-08 1 176 142)" fill="white"/>
<rect width="635" height="102" rx="51" transform="matrix(-1 -1.07011e-07 -7.142e-08 1 428 349)" fill="white"/>
</svg>
