<svg width="4010" height="1684" viewBox="0 0 4010 1684" fill="none" xmlns="http://www.w3.org/2000/svg">
<mask id="mask0_4679_1039" style="mask-type:alpha" maskUnits="userSpaceOnUse" x="0" y="0" width="4010" height="1684">
<rect width="4010" height="1684" fill="url(#paint0_linear_4679_1039)"/>
</mask>
<g mask="url(#mask0_4679_1039)">
<path fill-rule="evenodd" clip-rule="evenodd" d="M1374.89 0C1325.24 0 1285 45.9298 1285 102.587V138.123C1285 174.021 1255.9 203.123 1220 203.123H-230.5C-266.399 203.123 -295.5 232.224 -295.5 268.123V615.4C-295.5 640.073 -281.753 661.536 -261.5 672.546L-261.5 1416.28C-261.5 1452.18 -232.398 1481.28 -196.5 1481.28L1240.38 1481.28C1265.02 1481.28 1285 1501.26 1285 1525.9C1285 1559.05 1308.54 1585.92 1337.58 1585.92C1366.63 1585.92 1390.17 1559.05 1390.17 1525.9C1390.17 1501.26 1410.15 1481.28 1434.79 1481.28H1758.45C1769.84 1481.28 1779.08 1490.52 1779.08 1501.91C1779.08 1513.31 1769.84 1522.54 1758.45 1522.54L1569.84 1522.54C1554.51 1522.54 1542.08 1536.73 1542.08 1554.23C1542.08 1571.73 1554.51 1585.92 1569.84 1585.92L2278.07 1585.92C2306.97 1585.92 2330.39 1562.49 2330.39 1533.6C2330.39 1504.7 2353.82 1481.28 2382.71 1481.28H2477.53C2513.43 1481.28 2542.53 1510.38 2542.53 1546.28V1581.81C2542.53 1638.47 2582.77 1684.4 2632.42 1684.4H2635.11C2684.76 1684.4 2725 1638.47 2725 1581.81V1546.28C2725 1510.38 2754.1 1481.28 2790 1481.28L4068 1481.28C4103.9 1481.28 4133 1452.18 4133 1416.28V658C4133 653.639 4132.57 649.379 4131.75 645.258C4136.38 636.318 4139 626.164 4139 615.4V268.123C4139 232.224 4109.9 203.123 4074 203.123H2769.63C2744.98 203.123 2725 183.143 2725 158.497C2725 125.353 2701.46 98.4837 2672.42 98.4837C2643.37 98.4837 2619.83 125.353 2619.83 158.497C2619.83 183.143 2599.85 203.123 2575.21 203.123H2251.55C2240.16 203.123 2230.92 193.885 2230.92 182.49C2230.92 171.094 2240.16 161.856 2251.55 161.856H2440.16C2455.49 161.856 2467.92 147.671 2467.92 130.171C2467.92 112.671 2455.49 98.4837 2440.16 98.4837H1731.93C1703.03 98.4837 1679.61 121.908 1679.61 150.803C1679.61 179.698 1656.18 203.123 1627.29 203.123H1532.47C1496.57 203.123 1467.47 174.021 1467.47 138.123V102.587C1467.47 45.9298 1427.23 0 1377.58 0H1374.89Z" fill="#FAFBFD"/>
</g>
<defs>
<linearGradient id="paint0_linear_4679_1039" x1="2005" y1="0" x2="2005" y2="1684" gradientUnits="userSpaceOnUse">
<stop stop-color="#A4E7EA"/>
<stop offset="1" stop-color="#DEF3F5"/>
</linearGradient>
</defs>
</svg>
