<svg width="4010" height="689" viewBox="0 0 4010 689" fill="none" xmlns="http://www.w3.org/2000/svg">
<mask id="mask0_4494_70" style="mask-type:alpha" maskUnits="userSpaceOnUse" x="0" y="0" width="4010" height="689">
<rect width="4010" height="689" transform="matrix(1 0 0 -1 0 689)" fill="#D9D9D9"/>
</mask>
<g mask="url(#mask0_4494_70)">
<mask id="mask1_4494_70" style="mask-type:alpha" maskUnits="userSpaceOnUse" x="0" y="0" width="2779" height="689">
<path fill-rule="evenodd" clip-rule="evenodd" d="M2779 0L0 -0.000184606V442L-5.53396e-05 481L0 571L-1.94437e-05 611L-1.35761e-05 689L2652 689C2684.58 689 2711 662.585 2711 630C2711 597.415 2684.58 571 2652 571H2578V481C2689.01 481 2779 391.009 2779 280V0Z" fill="url(#paint0_linear_4494_70)"/>
</mask>
<g mask="url(#mask1_4494_70)">
<path fill-rule="evenodd" clip-rule="evenodd" d="M0.000976562 -0.000183105L2779 0V278C2779 384.3 2697.3 471.517 2593.26 480.277H2563.22C2538.23 480.277 2517.97 500.54 2517.97 525.536C2517.97 550.531 2538.23 570.795 2563.22 570.795H2578V571H2651C2683.58 571 2710 597.415 2710 630C2710 662.585 2683.58 689 2651 689L-1.35761e-05 689L-1.94437e-05 611L0 571V442H0.00092571L0.000976562 -0.000183105Z" fill="url(#paint1_linear_4494_70)"/>
<path d="M1482.34 650.463L1478.98 650.311L1477.19 647.34L1476.01 650.626L1472.76 651.469L1475.38 653.656L1475.16 657.141L1477.96 655.211L1481.08 656.521L1480.18 653.141L1482.34 650.463Z" fill="white"/>
<path d="M1867.71 581.371L1864.73 581.231L1863.14 578.6L1862.1 581.512L1859.2 582.272L1861.54 584.202L1861.34 587.312L1863.83 585.593L1866.59 586.751L1865.79 583.757L1867.71 581.371Z" fill="white"/>
<path d="M1483.66 546.895L1482.56 546.848L1481.98 545.866L1481.58 546.942L1480.51 547.223L1481.38 547.948L1481.3 549.094L1482.22 548.462L1483.26 548.895L1482.95 547.784L1483.66 546.895Z" fill="white"/>
<path d="M2000.78 580.132L1999.05 580.05L1998.14 578.53L1997.53 580.214L1995.86 580.647L1997.22 581.769L1997.09 583.559L1998.53 582.565L2000.13 583.231L1999.67 581.512L2000.78 580.132Z" fill="white"/>
<path d="M1651.66 628.093L1649.93 628.011L1649.02 626.491L1648.41 628.175L1646.74 628.607L1648.09 629.73L1647.98 631.52L1649.41 630.525L1651.01 631.192L1650.55 629.473L1651.66 628.093Z" fill="white"/>
<path d="M1430.58 454.899L1427.59 454.77L1426.01 452.127L1424.96 455.039L1422.06 455.799L1424.4 457.741L1424.2 460.84L1426.69 459.121L1429.45 460.278L1428.66 457.285L1430.58 454.899Z" fill="white"/>
<path d="M1564.95 612.375L1563.09 612.281L1562.1 610.644L1561.45 612.457L1559.64 612.936L1561.1 614.141L1560.97 616.07L1562.52 614.994L1564.25 615.719L1563.75 613.86L1564.95 612.375Z" fill="white"/>
<path d="M781.07 624.922L777.791 624.185L776.5 620.946L774.815 623.975L771.469 624.244L773.715 626.851L772.917 630.255L775.994 628.84L778.858 630.676L778.51 627.191L781.07 624.922Z" fill="white"/>
<path d="M1172.12 624.116L1169.2 623.473L1168.06 620.596L1166.56 623.285L1163.58 623.519L1165.58 625.835L1164.88 628.864L1167.6 627.601L1170.15 629.227L1169.85 626.139L1172.12 624.116Z" fill="white"/>
<path d="M799.07 523.047L797.981 522.813L797.554 521.737L797.004 522.743L795.903 522.825L796.633 523.69L796.375 524.813L797.386 524.345L798.329 524.941L798.217 523.795L799.07 523.047Z" fill="white"/>
<path d="M1303.5 646.139L1301.81 645.765L1301.15 644.104L1300.29 645.659L1298.57 645.8L1299.73 647.133L1299.31 648.875L1300.89 648.15L1302.36 649.098L1302.18 647.308L1303.5 646.139Z" fill="white"/>
<path d="M951.595 632.443L949.91 632.069L949.259 630.409L948.394 631.964L946.665 632.093L947.822 633.438L947.417 635.18L948.99 634.455L950.461 635.391L950.281 633.601L951.595 632.443Z" fill="white"/>
<path d="M761.54 423.088L758.62 422.434L757.486 419.557L755.981 422.246L753.005 422.492L755.004 424.808L754.296 427.825L757.025 426.574L759.574 428.199L759.271 425.1L761.54 423.088Z" fill="white"/>
<path d="M868.639 601.803L866.82 601.394L866.112 599.605L865.18 601.277L863.327 601.429L864.574 602.868L864.136 604.75L865.831 603.967L867.415 604.984L867.224 603.055L868.639 601.803Z" fill="white"/>
<path d="M1743.51 433.673L1739.81 432.843L1738.38 429.217L1736.49 432.609L1732.73 432.913L1735.24 435.837L1734.36 439.661L1737.8 438.071L1741.02 440.129L1740.63 436.223L1743.51 433.673Z" fill="white"/>
<path d="M2487.15 401.909L2484.23 401.266L2483.09 398.389L2481.59 401.078L2478.61 401.312L2480.61 403.628L2479.9 406.657L2482.63 405.394L2485.18 407.02L2484.88 403.932L2487.15 401.909Z" fill="white"/>
<path d="M2531.39 588.772L2528.47 588.117L2527.34 585.252L2525.83 587.942L2522.86 588.176L2524.86 590.491L2524.15 593.52L2526.88 592.257L2529.43 593.883L2529.12 590.795L2531.39 588.772Z" fill="white"/>
<path d="M2189.71 468.397L2188.03 468.022L2187.37 466.362L2186.5 467.917L2184.78 468.057L2185.94 469.391L2185.54 471.133L2187.11 470.408L2188.58 471.355L2188.4 469.566L2189.71 468.397Z" fill="white"/>
<path d="M2400.67 563.104L2398.98 562.729L2398.32 561.069L2397.45 562.624L2395.74 562.764L2396.89 564.098L2396.48 565.84L2398.06 565.115L2399.53 566.062L2399.35 564.273L2400.67 563.104Z" fill="white"/>
<path d="M2201.89 615.729L2200.21 615.354L2199.55 613.694L2198.68 615.249L2196.96 615.389L2198.12 616.723L2197.71 618.465L2199.29 617.74L2200.76 618.688L2200.58 616.898L2201.89 615.729Z" fill="white"/>
<path d="M2373.04 683.889L2370.12 683.234L2368.98 680.357L2367.48 683.047L2364.5 683.293L2366.5 685.608L2365.8 688.626L2368.52 687.374L2371.07 689L2370.77 685.901L2373.04 683.889Z" fill="white"/>
<path d="M2332.41 481.438L2331.11 481.146L2330.6 479.859L2329.93 481.064L2328.59 481.169L2329.49 482.21L2329.18 483.567L2330.39 482.994L2331.53 483.73L2331.4 482.339L2332.41 481.438Z" fill="white"/>
</g>
</g>
<defs>
<linearGradient id="paint0_linear_4494_70" x1="1881.18" y1="396.354" x2="1513.67" y2="-111.122" gradientUnits="userSpaceOnUse">
<stop stop-color="#00506E"/>
<stop offset="1" stop-color="#36768A"/>
</linearGradient>
<linearGradient id="paint1_linear_4494_70" x1="2611" y1="662" x2="1925.22" y2="-356.403" gradientUnits="userSpaceOnUse">
<stop stop-color="#A4E7EA"/>
<stop offset="0.578415" stop-color="#DEF3F5"/>
</linearGradient>
</defs>
</svg>
