<svg width="4010" height="309" viewBox="0 0 4010 309" fill="none" xmlns="http://www.w3.org/2000/svg">
<mask id="mask0_4494_957" style="mask-type:alpha" maskUnits="userSpaceOnUse" x="0" y="0" width="4010" height="309">
<rect width="4010" height="309" fill="#D9D9D9"/>
</mask>
<g mask="url(#mask0_4494_957)">
<mask id="mask1_4494_957" style="mask-type:alpha" maskUnits="userSpaceOnUse" x="2101" y="0" width="1909" height="309">
<rect x="2101" width="1909" height="309" fill="#D9D9D9"/>
</mask>
<g mask="url(#mask1_4494_957)">
<path fill-rule="evenodd" clip-rule="evenodd" d="M3496.5 -142C3547.97 -142 3589.73 -100.409 3590 -49H3590H3591.01C3591.54 -21.8473 3613.72 0 3641 0H4010V130L4010 186L4010 309L3602 309V329L2899.34 329C2903.75 327.405 2906.83 323.717 2906.83 319.421C2906.83 313.666 2901.3 309.001 2894.47 309.001C2894.31 309.001 2894.15 309.003 2894 309.008V309L2162.5 309C2128.53 309 2101 281.466 2101 247.5C2101 213.534 2128.53 186 2162.5 186H2226.36C2240.08 183.05 2250.3 171.803 2250.3 158.378C2250.3 143.566 2237.86 131.404 2222 130.113V130H2219C2183.1 130 2154 100.899 2154 65C2154 29.1015 2183.1 0 2219 0H3354C3381.61 0 3404 -22.3858 3404 -50C3404 -52.5683 3403.81 -55.0913 3403.43 -57.5553C3407.99 -104.945 3447.92 -142 3496.5 -142ZM2786 357C2778.27 357 2772 350.732 2772 343C2772 335.268 2778.27 329 2786 329L3596 329V357L2786 357Z" fill="#E6FFDA"/>
</g>
<path fill-rule="evenodd" clip-rule="evenodd" d="M1388 69.5C1388 54.3122 1400.31 42 1415.5 42H4010V97L2781 97H2615.5C2603.63 97 2594 106.626 2594 118.5C2594 130.368 2603.62 139.99 2615.48 140C2615.49 140 2615.49 140 2615.5 140H2781L4010 140V262H1446C1412.31 262 1385 234.689 1385 201C1385 168.994 1409.65 142.745 1441 140.202V139.861C1441.67 139.927 1442.34 139.96 1443.03 139.96C1454.33 139.96 1463.49 130.8 1463.49 119.5V117.734C1463.49 106.434 1454.33 97.2736 1443.03 97.2736C1442.34 97.2736 1441.67 97.3073 1441 97.373V97H1415.5C1400.31 97 1388 84.6878 1388 69.5Z" fill="url(#paint0_linear_4494_957)"/>
</g>
<defs>
<linearGradient id="paint0_linear_4494_957" x1="2181.27" y1="262" x2="1999.13" y2="2.38356" gradientUnits="userSpaceOnUse">
<stop stop-color="#00506E"/>
<stop offset="1" stop-color="#36768A"/>
</linearGradient>
</defs>
</svg>
