<svg width="1440" height="506" viewBox="0 0 1440 506" fill="none" xmlns="http://www.w3.org/2000/svg">
<mask id="mask0_2762_238" style="mask-type:alpha" maskUnits="userSpaceOnUse" x="0" y="0" width="1440" height="506">
<rect width="1440" height="506" fill="url(#paint0_linear_2762_238)"/>
</mask>
<g mask="url(#mask0_2762_238)">
<rect width="1440" height="506" fill="url(#paint1_linear_2762_238)"/>
<path fill-rule="evenodd" clip-rule="evenodd" d="M1185.89 243C1173.3 243 1163.1 253.204 1163.1 265.792C1163.1 278.379 1173.3 288.583 1185.89 288.583H1469.93V243H1185.89ZM948 392.146C948 370.113 965.861 352.252 987.894 352.252H1216.87V352.13L1471.51 352.13V397.997H1428.73V398.018H1394.56C1386.63 398.018 1380.19 404.452 1380.19 412.389C1380.19 419.33 1385.11 425.122 1391.66 426.466H1481V505.546L1216.87 505.546V505.288H971.687C959.1 505.288 948.896 495.084 948.896 482.497C948.896 469.909 959.1 459.705 971.687 459.705H1041.69C1049.22 459.568 1055.27 453.426 1055.27 445.87C1055.27 438.39 1049.34 432.297 1041.92 432.04H987.894C965.861 432.04 948 414.179 948 392.146Z" fill="white" fill-opacity="0.5"/>
<path fill-rule="evenodd" clip-rule="evenodd" d="M-43.2072 433.964C-22.4014 433.964 -5.53488 417.098 -5.53488 396.292C-5.53489 375.486 -22.4014 358.62 -43.2073 358.62L-512.698 358.62L-512.698 433.964L-43.2072 433.964ZM350 187.439C350 223.858 320.477 253.381 284.058 253.381L-94.4223 253.381L-94.4223 253.582L-515.316 253.582L-515.316 177.769L-444.6 177.769L-444.6 177.734L-388.129 177.734C-375.01 177.734 -364.375 167.099 -364.375 153.98C-364.375 142.507 -372.509 132.934 -383.324 130.712L-531 130.712L-531 0.000107537L-94.4212 3.88525e-05L-94.4212 0.426003L310.849 0.425968C331.655 0.425966 348.521 17.2925 348.521 38.0983C348.521 58.9042 331.655 75.7707 310.849 75.7707L195.128 75.7707C182.693 75.9984 172.682 86.1498 172.682 98.6393C172.682 111.002 182.491 121.074 194.75 121.498L284.058 121.498C320.477 121.498 350 151.021 350 187.439Z" fill="white" fill-opacity="0.5"/>
</g>
<defs>
<linearGradient id="paint0_linear_2762_238" x1="720" y1="0" x2="720" y2="506" gradientUnits="userSpaceOnUse">
<stop stop-color="#A4E7EA"/>
<stop offset="1" stop-color="#DEF3F5"/>
</linearGradient>
<linearGradient id="paint1_linear_2762_238" x1="720" y1="0" x2="720" y2="506" gradientUnits="userSpaceOnUse">
<stop stop-color="#A4E7EA"/>
<stop offset="1" stop-color="#DEF3F5"/>
</linearGradient>
</defs>
</svg>
