<svg width="4010" height="675" viewBox="0 0 4010 675" fill="none" xmlns="http://www.w3.org/2000/svg">
<mask id="mask0_793_2" style="mask-type:alpha" maskUnits="userSpaceOnUse" x="0" y="0" width="4010" height="675">
<rect width="4010" height="675" fill="white"/>
</mask>
<g mask="url(#mask0_793_2)">
<path fill-rule="evenodd" clip-rule="evenodd" d="M4010 -58H0V1V361V489V491V574V576V675H2704.5C2732.39 675 2755 652.39 2755 624.5C2755 596.61 2732.39 574 2704.5 574H2648.75C2630.47 568.959 2617.04 552.21 2617.04 532.324C2617.04 512.879 2629.88 496.432 2647.54 491H2709C2748.21 491 2780 459.212 2780 420V361V360C2780 324.102 2809.1 295 2845 295H3939C3978.21 295 4010 263.212 4010 224V-58ZM1229 824.211V714.797H2621.67C2657.17 714.797 2685.94 743.57 2685.94 779.063C2685.94 814.556 2657.17 843.329 2621.67 843.329H1445.35C1441.6 844.158 1438.79 847.502 1438.79 851.502C1438.79 855.145 1441.12 858.245 1444.37 859.395H1524.9C1533.35 859.395 1540.2 866.245 1540.2 874.696C1540.2 883.147 1533.35 889.997 1524.9 889.997H1229V859.868V859.395V843.329V843.129V841.211V824.211ZM1229 691.844H2620.53L2620.68 691.845H2599.38C2593.04 691.845 2587.91 696.983 2587.91 703.321C2587.91 709.61 2592.97 714.718 2599.24 714.796H1229V691.844Z" fill="url(#paint0_linear_793_2)"/>
<mask id="mask1_793_2" style="mask-type:alpha" maskUnits="userSpaceOnUse" x="1159" y="641" width="235" height="60">
<rect x="1159" y="641" width="235" height="60" fill="#D9D9D9"/>
</mask>
<g mask="url(#mask1_793_2)">
<path fill-rule="evenodd" clip-rule="evenodd" d="M1258.95 704.973C1251.89 708.428 1243.5 710.431 1234.5 710.431C1225.17 710.431 1216.5 708.279 1209.29 704.589C1203.65 708.234 1196.37 710.431 1188.41 710.431C1182.66 710.431 1177.26 709.283 1172.58 707.271C1168.89 709.261 1164.38 710.43 1159.52 710.43C1153.66 710.43 1148.32 708.734 1144.29 705.949C1141.39 708.683 1136.96 710.43 1132 710.43C1123.26 710.43 1116.18 705.014 1116.18 698.332C1116.18 691.651 1123.26 686.235 1132 686.235C1134.18 686.235 1136.26 686.573 1138.15 687.184C1141.23 680.654 1149.29 675.942 1158.82 675.723C1163.84 667.044 1175.2 660.989 1188.41 660.989C1190.04 660.989 1191.64 661.081 1193.21 661.259C1200.38 649.304 1216.17 641 1234.5 641C1252.77 641 1268.51 649.245 1275.72 661.132C1276.87 661.037 1278.04 660.989 1279.22 660.989C1283.6 660.989 1287.77 661.654 1291.58 662.861C1297.94 658.429 1306.4 655.727 1315.68 655.727C1332.1 655.727 1345.94 664.189 1350.14 675.721C1350.35 675.717 1350.56 675.715 1350.76 675.715C1360.6 675.715 1368.97 680.496 1372.13 687.184C1374.02 686.573 1376.1 686.235 1378.28 686.235C1387.02 686.235 1394.11 691.651 1394.11 698.332C1394.11 705.014 1387.02 710.43 1378.28 710.43C1373.32 710.43 1368.89 708.683 1365.99 705.949C1361.96 708.734 1356.62 710.43 1350.76 710.43C1344.86 710.43 1339.48 708.706 1335.44 705.881C1329.78 708.755 1322.99 710.43 1315.68 710.43C1308.81 710.43 1302.4 708.95 1296.95 706.386C1291.86 708.944 1285.77 710.431 1279.22 710.431C1271.54 710.431 1264.5 708.388 1258.95 704.973Z" fill="white"/>
</g>
<mask id="mask2_793_2" style="mask-type:alpha" maskUnits="userSpaceOnUse" x="1153" y="119" width="183" height="39">
<rect x="1153" y="119" width="183" height="39" fill="#D9D9D9"/>
</mask>
<g mask="url(#mask2_793_2)">
<path fill-rule="evenodd" clip-rule="evenodd" d="M1248.41 160.459C1243.84 162.698 1238.4 163.996 1232.56 163.996C1226.52 163.996 1220.9 162.601 1216.22 160.21C1212.57 162.572 1207.85 163.996 1202.69 163.996C1198.97 163.996 1195.47 163.252 1192.43 161.948C1190.04 163.238 1187.12 163.996 1183.97 163.996C1180.17 163.996 1176.71 162.896 1174.1 161.091C1172.22 162.863 1169.35 163.995 1166.14 163.995C1160.47 163.995 1155.88 160.485 1155.88 156.155C1155.88 151.825 1160.47 148.315 1166.14 148.315C1167.55 148.315 1168.9 148.534 1170.12 148.931C1172.12 144.699 1177.34 141.645 1183.52 141.503C1186.77 135.879 1194.13 131.954 1202.69 131.954C1203.75 131.954 1204.79 132.014 1205.8 132.129C1210.45 124.381 1220.69 119 1232.56 119C1244.4 119 1254.6 124.343 1259.28 132.047C1260.02 131.985 1260.78 131.954 1261.54 131.954C1264.38 131.954 1267.09 132.386 1269.56 133.168C1273.68 130.295 1279.16 128.544 1285.17 128.544C1295.82 128.544 1304.78 134.028 1307.51 141.502C1307.64 141.499 1307.78 141.498 1307.91 141.498C1314.28 141.498 1319.71 144.596 1321.76 148.931C1322.98 148.534 1324.33 148.315 1325.74 148.315C1331.41 148.315 1336 151.825 1336 156.155C1336 160.485 1331.41 163.995 1325.74 163.995C1322.53 163.995 1319.66 162.863 1317.78 161.091C1315.17 162.896 1311.71 163.996 1307.91 163.996C1304.08 163.996 1300.6 162.878 1297.98 161.047C1294.31 162.91 1289.91 163.995 1285.17 163.995C1280.72 163.995 1276.57 163.036 1273.04 161.374C1269.74 163.032 1265.79 163.996 1261.54 163.996C1256.57 163.996 1252 162.672 1248.41 160.459Z" fill="white"/>
</g>
<mask id="mask3_793_2" style="mask-type:alpha" maskUnits="userSpaceOnUse" x="1454" y="444" width="88" height="19">
<rect width="87.0561" height="18.6897" transform="matrix(-1 0 0 1 1541.2 444)" fill="#D9D9D9"/>
</mask>
<g mask="url(#mask3_793_2)">
<path fill-rule="evenodd" clip-rule="evenodd" d="M1496.26 463.938C1498.47 465.016 1501.08 465.641 1503.89 465.641C1506.8 465.641 1509.5 464.969 1511.75 463.818C1513.51 464.953 1515.78 465.637 1518.26 465.637C1520.05 465.637 1521.73 465.281 1523.18 464.656C1524.33 465.279 1525.74 465.645 1527.26 465.645C1529.09 465.645 1530.75 465.116 1532.01 464.247C1532.91 465.099 1534.29 465.643 1535.84 465.643C1538.56 465.643 1540.77 463.955 1540.77 461.872C1540.77 459.79 1538.56 458.102 1535.84 458.102C1535.16 458.102 1534.51 458.207 1533.92 458.398C1532.96 456.364 1530.45 454.897 1527.48 454.827C1525.92 452.118 1522.38 450.227 1518.26 450.227C1517.75 450.227 1517.25 450.255 1516.76 450.311C1514.52 446.587 1509.6 444 1503.89 444C1498.2 444 1493.29 446.568 1491.04 450.271C1490.68 450.242 1490.32 450.227 1489.95 450.227C1488.58 450.227 1487.28 450.434 1486.09 450.811C1484.11 449.431 1481.48 448.59 1478.59 448.59C1473.47 448.59 1469.15 451.229 1467.84 454.826C1467.78 454.825 1467.72 454.824 1467.65 454.824C1464.59 454.824 1461.98 456.314 1460.99 458.398C1460.4 458.207 1459.76 458.102 1459.07 458.102C1456.35 458.102 1454.14 459.79 1454.14 461.872C1454.14 463.955 1456.35 465.643 1459.07 465.643C1460.62 465.643 1462 465.099 1462.91 464.247C1464.16 465.116 1465.83 465.645 1467.65 465.645C1469.49 465.645 1471.17 465.106 1472.43 464.224C1474.2 465.119 1476.31 465.64 1478.59 465.64C1480.73 465.64 1482.73 465.178 1484.43 464.378C1486.01 465.174 1487.91 465.637 1489.95 465.637C1492.34 465.637 1494.54 465.001 1496.26 463.938Z" fill="white"/>
</g>
<mask id="mask4_793_2" style="mask-type:alpha" maskUnits="userSpaceOnUse" x="662" y="160" width="88" height="19">
<rect width="87.0561" height="18.6897" transform="matrix(-1 0 0 1 749.057 160)" fill="#D9D9D9"/>
</mask>
<g mask="url(#mask4_793_2)">
<path fill-rule="evenodd" clip-rule="evenodd" d="M704.12 179.938C706.321 181.016 708.937 181.641 711.744 181.641C714.653 181.641 717.358 180.969 719.607 179.818C721.363 180.953 723.632 181.637 726.112 181.637C727.901 181.637 729.581 181.281 731.037 180.656C732.19 181.279 733.597 181.645 735.116 181.645C736.942 181.645 738.607 181.116 739.862 180.247C740.766 181.099 742.147 181.643 743.693 181.643C746.417 181.643 748.625 179.955 748.625 177.872C748.625 175.79 746.417 174.102 743.693 174.102C743.012 174.102 742.364 174.207 741.774 174.398C740.814 172.364 738.306 170.897 735.338 170.827C733.776 168.118 730.232 166.227 726.112 166.227C725.602 166.227 725.101 166.255 724.612 166.311C722.376 162.587 717.455 160 711.744 160C706.053 160 701.147 162.568 698.899 166.271C698.54 166.242 698.176 166.227 697.807 166.227C696.44 166.227 695.138 166.434 693.949 166.811C691.968 165.431 689.334 164.59 686.443 164.59C681.322 164.59 677.007 167.229 675.699 170.826C675.635 170.825 675.571 170.824 675.507 170.824C672.442 170.824 669.833 172.314 668.849 174.398C668.259 174.207 667.61 174.102 666.93 174.102C664.206 174.102 661.998 175.79 661.998 177.872C661.998 179.955 664.206 181.643 666.93 181.643C668.476 181.643 669.856 181.099 670.761 180.247C672.016 181.116 673.681 181.645 675.507 181.645C677.349 181.645 679.027 181.106 680.286 180.224C682.051 181.119 684.167 181.64 686.443 181.64C688.584 181.64 690.585 181.178 692.284 180.378C693.87 181.174 695.768 181.637 697.807 181.637C700.197 181.637 702.393 181.001 704.12 179.938Z" fill="white"/>
</g>
<mask id="mask5_793_2" style="mask-type:alpha" maskUnits="userSpaceOnUse" x="2456" y="142" width="270" height="58">
<rect x="2456" y="142" width="269.174" height="57.7876" fill="#D9D9D9"/>
</mask>
<g mask="url(#mask5_793_2)">
<path fill-rule="evenodd" clip-rule="evenodd" d="M2594.92 203.65C2588.12 206.981 2580.03 208.912 2571.36 208.912C2562.36 208.912 2554 206.837 2547.05 203.28C2541.62 206.791 2534.6 208.907 2526.94 208.907C2521.4 208.907 2516.2 207.803 2511.69 205.866C2508.13 207.788 2503.78 208.917 2499.09 208.917C2493.44 208.917 2488.3 207.283 2484.42 204.599C2481.62 207.232 2477.35 208.915 2472.57 208.915C2464.15 208.915 2457.32 203.696 2457.32 197.257C2457.32 190.818 2464.15 185.598 2472.57 185.598C2474.68 185.598 2476.68 185.923 2478.5 186.512C2481.47 180.221 2489.23 175.681 2498.42 175.469C2503.25 167.099 2514.2 161.258 2526.94 161.258C2528.51 161.258 2530.05 161.347 2531.56 161.519C2538.48 150 2553.7 142 2571.36 142C2588.95 142 2604.13 149.943 2611.07 161.396C2612.18 161.305 2613.31 161.258 2614.45 161.258C2618.67 161.258 2622.7 161.9 2626.37 163.064C2632.5 158.795 2640.65 156.191 2649.59 156.191C2665.42 156.191 2678.76 164.35 2682.81 175.467C2683 175.463 2683.2 175.461 2683.4 175.461C2692.88 175.461 2700.95 180.068 2703.99 186.513C2705.81 185.924 2707.82 185.598 2709.92 185.598C2718.34 185.598 2725.17 190.818 2725.17 197.257C2725.17 203.696 2718.34 208.915 2709.92 208.915C2705.14 208.915 2700.87 207.232 2698.07 204.598C2694.19 207.282 2689.05 208.917 2683.4 208.917C2677.71 208.917 2672.52 207.254 2668.63 204.529C2663.17 207.297 2656.63 208.91 2649.59 208.91C2642.97 208.91 2636.79 207.483 2631.53 205.011C2626.63 207.474 2620.76 208.907 2614.45 208.907C2607.06 208.907 2600.27 206.939 2594.92 203.65Z" fill="white"/>
</g>
<mask id="mask6_793_2" style="mask-type:alpha" maskUnits="userSpaceOnUse" x="46" y="74" width="270" height="58">
<rect x="46" y="74" width="269.174" height="57.7876" fill="#D9D9D9"/>
</mask>
<g mask="url(#mask6_793_2)">
<path fill-rule="evenodd" clip-rule="evenodd" d="M184.924 135.65C178.121 138.981 170.034 140.912 161.356 140.912C152.362 140.912 144.002 138.837 137.05 135.28C131.622 138.791 124.603 140.907 116.936 140.907C111.398 140.907 106.197 139.803 101.69 137.866C98.1279 139.788 93.7812 140.917 89.0896 140.917C83.4449 140.917 78.2994 139.283 74.4187 136.599C71.6229 139.232 67.355 140.915 62.573 140.915C54.1513 140.915 47.3242 135.696 47.3242 129.257C47.3242 122.818 54.1513 117.598 62.573 117.598C64.6763 117.598 66.6801 117.923 68.503 118.512C71.4712 112.221 79.2324 107.681 88.4169 107.469C93.2502 99.0991 104.201 93.2578 116.936 93.2578C118.509 93.2578 120.055 93.3469 121.565 93.5189C128.478 81.9999 143.695 74 161.356 74C178.955 74 194.127 81.9431 201.074 93.3961C202.183 93.3047 203.31 93.2578 204.451 93.2578C208.674 93.2578 212.701 93.9001 216.373 95.0638C222.5 90.7946 230.647 88.1914 239.589 88.1914C255.42 88.1914 268.758 96.3495 272.805 107.467C273.004 107.463 273.202 107.461 273.402 107.461C282.879 107.461 290.948 112.068 293.989 118.513C295.812 117.924 297.817 117.598 299.921 117.598C308.343 117.598 315.17 122.818 315.17 129.257C315.17 135.696 308.343 140.915 299.921 140.915C295.138 140.915 290.87 139.232 288.074 136.598C284.193 139.282 279.047 140.917 273.402 140.917C267.708 140.917 262.522 139.254 258.63 136.529C253.174 139.297 246.628 140.91 239.589 140.91C232.97 140.91 226.786 139.483 221.535 137.011C216.629 139.474 210.759 140.907 204.451 140.907C197.058 140.907 190.266 138.939 184.924 135.65Z" fill="white"/>
</g>
<mask id="mask7_793_2" style="mask-type:alpha" maskUnits="userSpaceOnUse" x="2407" y="587" width="130" height="28">
<rect width="129.083" height="27.7123" transform="matrix(-1 0 0 1 2536.08 587)" fill="#D9D9D9"/>
</mask>
<g mask="url(#mask7_793_2)">
<path fill-rule="evenodd" clip-rule="evenodd" d="M2469.46 616.564C2472.72 618.162 2476.6 619.088 2480.76 619.088C2485.08 619.088 2489.08 618.093 2492.42 616.387C2495.02 618.07 2498.39 619.085 2502.06 619.085C2504.72 619.085 2507.22 618.555 2509.38 617.625C2511.08 618.546 2513.17 619.087 2515.42 619.087C2518.12 619.087 2520.59 618.303 2522.45 617.015C2523.8 618.277 2525.84 619.084 2528.13 619.084C2532.17 619.084 2535.45 616.581 2535.45 613.493C2535.45 610.405 2532.17 607.902 2528.13 607.902C2527.13 607.902 2526.16 608.059 2525.29 608.342C2523.86 605.325 2520.14 603.148 2515.74 603.047C2513.42 599.034 2508.17 596.234 2502.06 596.234C2501.31 596.234 2500.57 596.277 2499.84 596.36C2496.53 590.836 2489.23 587 2480.76 587C2472.32 587 2465.05 590.809 2461.72 596.301C2461.18 596.257 2460.64 596.234 2460.1 596.234C2458.07 596.234 2456.14 596.543 2454.38 597.102C2451.44 595.056 2447.53 593.809 2443.25 593.809C2435.66 593.809 2429.26 597.718 2427.32 603.046C2427.22 603.044 2427.13 603.043 2427.03 603.043C2422.49 603.043 2418.62 605.252 2417.16 608.342C2416.28 608.059 2415.32 607.902 2414.31 607.902C2410.27 607.902 2407 610.406 2407 613.493C2407 616.581 2410.27 619.084 2414.31 619.084C2416.61 619.084 2418.65 618.277 2419.99 617.015C2421.85 618.303 2424.32 619.087 2427.03 619.087C2429.76 619.087 2432.24 618.291 2434.11 616.986C2436.73 618.315 2439.87 619.09 2443.25 619.09C2446.42 619.09 2449.39 618.405 2451.91 617.218C2454.26 618.398 2457.07 619.085 2460.1 619.085C2463.64 619.085 2466.9 618.141 2469.46 616.564Z" fill="white"/>
</g>
<mask id="mask8_793_2" style="mask-type:alpha" maskUnits="userSpaceOnUse" x="3377" y="122" width="130" height="28">
<rect width="129.083" height="27.7123" transform="matrix(-1 0 0 1 3506.08 122)" fill="#D9D9D9"/>
</mask>
<g mask="url(#mask8_793_2)">
<path fill-rule="evenodd" clip-rule="evenodd" d="M3439.46 151.564C3442.72 153.162 3446.6 154.088 3450.76 154.088C3455.08 154.088 3459.08 153.093 3462.42 151.387C3465.02 153.07 3468.39 154.085 3472.06 154.085C3474.72 154.085 3477.22 153.555 3479.38 152.625C3481.08 153.546 3483.17 154.087 3485.42 154.087C3488.12 154.087 3490.59 153.303 3492.45 152.015C3493.8 153.277 3495.84 154.084 3498.13 154.084C3502.17 154.084 3505.45 151.581 3505.45 148.493C3505.45 145.405 3502.17 142.902 3498.13 142.902C3497.13 142.902 3496.16 143.059 3495.29 143.342C3493.86 140.325 3490.14 138.148 3485.74 138.047C3483.42 134.034 3478.17 131.234 3472.06 131.234C3471.31 131.234 3470.57 131.277 3469.84 131.36C3466.53 125.836 3459.23 122 3450.76 122C3442.32 122 3435.05 125.809 3431.72 131.301C3431.18 131.257 3430.64 131.234 3430.1 131.234C3428.07 131.234 3426.14 131.543 3424.38 132.102C3421.44 130.056 3417.53 128.809 3413.25 128.809C3405.66 128.809 3399.26 132.718 3397.32 138.046C3397.22 138.044 3397.13 138.043 3397.03 138.043C3392.49 138.043 3388.62 140.252 3387.16 143.342C3386.28 143.059 3385.32 142.902 3384.31 142.902C3380.27 142.902 3377 145.406 3377 148.493C3377 151.581 3380.27 154.084 3384.31 154.084C3386.61 154.084 3388.65 153.277 3389.99 152.015C3391.85 153.303 3394.32 154.087 3397.03 154.087C3399.76 154.087 3402.24 153.291 3404.11 151.986C3406.73 153.315 3409.87 154.09 3413.25 154.09C3416.42 154.09 3419.39 153.405 3421.91 152.218C3424.26 153.398 3427.07 154.085 3430.1 154.085C3433.64 154.085 3436.9 153.141 3439.46 151.564Z" fill="white"/>
</g>
<mask id="mask9_793_2" style="mask-type:alpha" maskUnits="userSpaceOnUse" x="115" y="523" width="130" height="28">
<rect width="129.083" height="27.7123" transform="matrix(-1 0 0 1 244.084 523)" fill="#D9D9D9"/>
</mask>
<g mask="url(#mask9_793_2)">
<path fill-rule="evenodd" clip-rule="evenodd" d="M177.46 552.564C180.722 554.162 184.601 555.088 188.762 555.088C193.075 555.088 197.085 554.093 200.419 552.387C203.022 554.07 206.388 555.085 210.064 555.085C212.72 555.085 215.215 554.555 217.377 553.625C219.085 554.546 221.168 555.087 223.417 555.087C226.125 555.087 228.593 554.303 230.454 553.015C231.795 554.277 233.842 555.084 236.135 555.084C240.173 555.084 243.447 552.581 243.447 549.493C243.447 546.405 240.173 543.902 236.135 543.902C235.125 543.902 234.163 544.059 233.289 544.342C231.865 541.325 228.143 539.148 223.739 539.047C221.42 535.034 216.17 532.234 210.064 532.234C209.309 532.234 208.568 532.277 207.844 532.36C204.528 526.836 197.231 523 188.762 523C180.323 523 173.048 526.809 169.716 532.301C169.184 532.257 168.644 532.234 168.097 532.234C166.07 532.234 164.138 532.543 162.375 533.102C159.438 531.056 155.532 529.809 151.245 529.809C143.657 529.809 137.262 533.718 135.319 539.046C135.223 539.044 135.127 539.043 135.03 539.043C130.486 539.043 126.617 541.252 125.159 544.342C124.284 544.059 123.322 543.902 122.312 543.902C118.274 543.902 115 546.406 115 549.493C115 552.581 118.274 555.084 122.312 555.084C124.605 555.084 126.652 554.277 127.993 553.015C129.854 554.303 132.322 555.087 135.03 555.087C137.758 555.087 140.243 554.291 142.109 552.986C144.727 554.315 147.868 555.09 151.245 555.09C154.422 555.09 157.389 554.405 159.908 553.218C162.26 554.398 165.073 555.085 168.097 555.085C171.642 555.085 174.898 554.141 177.46 552.564Z" fill="white"/>
</g>
</g>
<defs>
<linearGradient id="paint0_linear_793_2" x1="2004.5" y1="281" x2="2004.5" y2="837.207" gradientUnits="userSpaceOnUse">
<stop stop-color="#CAF1F3"/>
<stop offset="1" stop-color="#DEF3F5"/>
</linearGradient>
</defs>
</svg>
