<svg width="4010" height="367" viewBox="0 0 4010 367" fill="none" xmlns="http://www.w3.org/2000/svg">
<mask id="mask0_4679_1036" style="mask-type:alpha" maskUnits="userSpaceOnUse" x="0" y="0" width="4010" height="367">
<rect width="4010" height="367" fill="#D9D9D9"/>
</mask>
<g mask="url(#mask0_4679_1036)">
<mask id="mask1_4679_1036" style="mask-type:alpha" maskUnits="userSpaceOnUse" x="2100" y="0" width="1961" height="367">
<path fill-rule="evenodd" clip-rule="evenodd" d="M2100 287C2100 331.183 2135.82 367 2180 367L4031 367L4031 226H4061L4061 141H4031L4031 101L4031 56.0002L4031 0.00012207L2539 3.05176e-05C2523.54 3.05176e-05 2511 12.5361 2511 28.0001C2511 43.4641 2523.54 56.0001 2539 56.0001L2588 55.9998V101L2194 101C2177.43 101 2164 114.431 2164 131C2164 147.568 2177.43 161 2194 161H2199V207H2180C2135.82 207 2100 242.817 2100 287Z" fill="url(#paint0_linear_4679_1036)"/>
</mask>
<g mask="url(#mask1_4679_1036)">
<path d="M4061 -19L1906 -18.9998L1906 281C1906 336.229 1950.77 381 2006 381L4061 381L4061 -19Z" fill="url(#paint1_linear_4679_1036)"/>
</g>
<rect x="2167.43" y="160.662" width="59.104" height="46.0782" rx="23.0391" fill="white"/>
<rect x="2552.8" y="56.4441" width="58.9442" height="44.562" rx="22.281" fill="white"/>
</g>
<defs>
<linearGradient id="paint0_linear_4679_1036" x1="2358.9" y1="205.104" x2="2629.9" y2="469.511" gradientUnits="userSpaceOnUse">
<stop stop-color="#00506E"/>
<stop offset="1" stop-color="#36768A"/>
</linearGradient>
<linearGradient id="paint1_linear_4679_1036" x1="2216.64" y1="-2.12334" x2="2627.37" y2="372.299" gradientUnits="userSpaceOnUse">
<stop stop-color="#F78970"/>
<stop offset="1" stop-color="#FBCAAD"/>
</linearGradient>
</defs>
</svg>
