<svg width="4010" height="278" viewBox="0 0 4010 278" fill="none" xmlns="http://www.w3.org/2000/svg">
<mask id="mask0_4679_1034" style="mask-type:alpha" maskUnits="userSpaceOnUse" x="0" y="0" width="4010" height="278">
<rect width="4010" height="278" fill="#D9D9D9"/>
</mask>
<g mask="url(#mask0_4679_1034)">
<mask id="mask1_4679_1034" style="mask-type:alpha" maskUnits="userSpaceOnUse" x="0" y="0" width="2643" height="278">
<rect width="2643" height="278" transform="matrix(1 0 0 -1 0 278)" fill="#D9D9D9"/>
</mask>
<g mask="url(#mask1_4679_1034)">
<path fill-rule="evenodd" clip-rule="evenodd" d="M2333 -16C2346.25 -16 2357 -26.7452 2357 -40C2357 -53.2549 2346.25 -64 2333 -64L1991 -64L1991 -16L2333 -16ZM2333.05 230C2346.28 230.027 2357 240.762 2357 254C2357 267.255 2346.25 278 2333 278L-73 278L-73 230L-25.0008 230L-25.0008 214L-21 214L-21 136L-16.9998 136L-16.9998 93.9998L-15 94L-15 -0.000257794L2595 -4.56016e-06C2620.96 -2.04165e-06 2642 21.0427 2642 47.0001C2642 72.9576 2620.96 94.0003 2595 94.0003L2477.99 94.0002C2468.09 95.7966 2460.58 104.465 2460.58 114.887C2460.58 125.859 2468.9 134.886 2479.58 136L2543 136C2564.54 136 2582 153.461 2582 175C2582 196.539 2564.54 214 2543 214L2333.05 214C2333.19 214.001 2333.32 214.005 2333.46 214.013L2327.99 214.013C2323.59 214.013 2320.03 217.575 2320.03 221.969C2320.03 226.363 2323.59 229.925 2327.99 229.925L2334.1 229.925C2333.76 229.972 2333.41 229.998 2333.05 230Z" fill="url(#paint0_linear_4679_1034)"/>
<mask id="mask2_4679_1034" style="mask-type:alpha" maskUnits="userSpaceOnUse" x="2222" y="225" width="98" height="21">
<rect x="2222.29" y="225.412" width="97.4634" height="20.2959" fill="#D9D9D9"/>
</mask>
<g mask="url(#mask2_4679_1034)">
<path fill-rule="evenodd" clip-rule="evenodd" d="M2272.6 247.064C2270.13 248.234 2267.21 248.912 2264.06 248.912C2260.81 248.912 2257.78 248.184 2255.26 246.935C2253.3 248.168 2250.76 248.911 2247.98 248.911C2245.97 248.911 2244.09 248.523 2242.46 247.843C2241.17 248.518 2239.6 248.914 2237.9 248.914C2235.85 248.914 2233.99 248.34 2232.59 247.398C2231.57 248.322 2230.03 248.913 2228.3 248.913C2225.25 248.913 2222.78 247.08 2222.78 244.819C2222.78 242.557 2225.25 240.724 2228.3 240.724C2229.06 240.724 2229.78 240.838 2230.44 241.045C2231.52 238.835 2234.33 237.241 2237.65 237.167C2239.4 234.227 2243.37 232.176 2247.98 232.176C2248.55 232.176 2249.11 232.207 2249.66 232.268C2252.16 228.222 2257.67 225.412 2264.06 225.412C2270.44 225.412 2275.93 228.202 2278.44 232.225C2278.85 232.193 2279.25 232.176 2279.67 232.176C2281.2 232.176 2282.65 232.401 2283.98 232.81C2286.2 231.311 2289.15 230.396 2292.39 230.396C2298.12 230.396 2302.95 233.261 2304.42 237.166C2304.49 237.165 2304.56 237.164 2304.63 237.164C2308.06 237.164 2310.99 238.782 2312.09 241.045C2312.75 240.838 2313.47 240.724 2314.24 240.724C2317.29 240.724 2319.76 242.557 2319.76 244.819C2319.76 247.08 2317.29 248.913 2314.24 248.913C2312.5 248.913 2310.96 248.322 2309.95 247.397C2308.54 248.34 2306.68 248.914 2304.63 248.914C2302.57 248.914 2300.69 248.33 2299.28 247.373C2297.31 248.345 2294.94 248.912 2292.39 248.912C2289.99 248.912 2287.75 248.411 2285.85 247.543C2284.08 248.408 2281.95 248.911 2279.67 248.911C2276.99 248.911 2274.53 248.22 2272.6 247.064Z" fill="white"/>
</g>
<mask id="mask3_4679_1034" style="mask-type:alpha" maskUnits="userSpaceOnUse" x="1583" y="54" width="231" height="49">
<rect x="1583.2" y="54.5" width="230.746" height="48.0508" fill="#D9D9D9"/>
</mask>
<g mask="url(#mask3_4679_1034)">
<path fill-rule="evenodd" clip-rule="evenodd" d="M1702.29 105.763C1696.46 108.532 1689.53 110.138 1682.09 110.138C1674.38 110.138 1667.21 108.413 1661.25 105.455C1656.6 108.374 1650.58 110.135 1644.01 110.135C1639.26 110.135 1634.8 109.216 1630.94 107.605C1627.89 109.203 1624.16 110.142 1620.14 110.142C1615.3 110.142 1610.89 108.783 1607.56 106.551C1605.17 108.74 1601.51 110.14 1597.41 110.14C1590.19 110.14 1584.34 105.799 1584.34 100.445C1584.34 95.0911 1590.19 90.7507 1597.41 90.7507C1599.21 90.7507 1600.93 91.0214 1602.49 91.511C1605.04 86.2802 1611.69 82.5056 1619.56 82.3293C1623.71 75.3704 1633.09 70.5137 1644.01 70.5137C1645.36 70.5137 1646.68 70.5878 1647.98 70.7308C1653.91 61.1523 1666.95 54.5 1682.09 54.5C1697.18 54.5 1710.18 61.1051 1716.14 70.6288C1717.09 70.5529 1718.05 70.5139 1719.03 70.5139C1722.65 70.5139 1726.1 71.0479 1729.25 72.0155C1734.5 68.4654 1741.49 66.3008 1749.15 66.3008C1762.72 66.3008 1774.16 73.0839 1777.63 82.3277C1777.8 82.3244 1777.97 82.3227 1778.14 82.3227C1786.26 82.3227 1793.18 86.1532 1795.79 91.5117C1797.35 91.0215 1799.07 90.7505 1800.87 90.7505C1808.09 90.7505 1813.95 95.0908 1813.95 100.445C1813.95 105.799 1808.09 110.139 1800.87 110.139C1796.77 110.139 1793.12 108.74 1790.72 106.55C1787.39 108.782 1782.98 110.142 1778.14 110.142C1773.26 110.142 1768.81 108.759 1765.48 106.493C1760.8 108.795 1755.19 110.137 1749.15 110.137C1743.48 110.137 1738.18 108.951 1733.68 106.894C1729.47 108.943 1724.44 110.135 1719.03 110.135C1712.69 110.135 1706.87 108.498 1702.29 105.763Z" fill="white"/>
</g>
</g>
</g>
<defs>
<linearGradient id="paint0_linear_4679_1034" x1="2276.5" y1="-87.4999" x2="990.236" y2="264.92" gradientUnits="userSpaceOnUse">
<stop stop-color="#DEF3F5"/>
<stop offset="1" stop-color="#7DDBEA"/>
</linearGradient>
</defs>
</svg>
