<svg width="522" height="405" viewBox="0 0 522 405" fill="none" xmlns="http://www.w3.org/2000/svg">
<mask id="mask0_2152_5809" style="mask-type:alpha" maskUnits="userSpaceOnUse" x="0" y="0" width="522" height="405">
<rect width="522" height="405" rx="10" fill="white"/>
</mask>
<g mask="url(#mask0_2152_5809)">
<g filter="url(#filter0_d_2152_5809)">
<rect width="522" height="405" fill="white"/>
</g>
<g filter="url(#filter1_f_2152_5809)">
<path d="M459.926 -151.54C367.751 -192.814 282.652 -204.719 365.304 -41.719C378.268 -18.7697 415.922 38.0582 462.822 81.7757C521.448 136.423 613.422 56.6491 707.57 81.3782C801.719 106.107 766.811 -62.1786 651.839 -204.603C315.501 -621.25 565.42 -104.303 459.926 -151.54Z" fill="#007F96" fill-opacity="0.3"/>
</g>
<g filter="url(#filter2_f_2152_5809)">
<path d="M-78.1552 310.52C-179.049 306.016 -262.566 326.223 -125.788 447.433C-105.296 464.011 -49.39 503.021 10.2961 526.439C84.9036 555.713 141.118 447.717 237.765 436.11C334.413 424.503 240.094 280.828 80.8198 190.632C-385.118 -73.2252 37.3166 315.675 -78.1552 310.52Z" fill="#007F96" fill-opacity="0.3"/>
</g>
</g>
<defs>
<filter id="filter0_d_2152_5809" x="-30" y="-26" width="582" height="465" filterUnits="userSpaceOnUse" color-interpolation-filters="sRGB">
<feFlood flood-opacity="0" result="BackgroundImageFix"/>
<feColorMatrix in="SourceAlpha" type="matrix" values="0 0 0 0 0 0 0 0 0 0 0 0 0 0 0 0 0 0 127 0" result="hardAlpha"/>
<feOffset dy="4"/>
<feGaussianBlur stdDeviation="15"/>
<feComposite in2="hardAlpha" operator="out"/>
<feColorMatrix type="matrix" values="0 0 0 0 0 0 0 0 0 0.498039 0 0 0 0 0.588235 0 0 0 0.2 0"/>
<feBlend mode="normal" in2="BackgroundImageFix" result="effect1_dropShadow_2152_5809"/>
<feBlend mode="normal" in="SourceGraphic" in2="effect1_dropShadow_2152_5809" result="shape"/>
</filter>
<filter id="filter1_f_2152_5809" x="231.793" y="-468.072" width="629.955" height="669.42" filterUnits="userSpaceOnUse" color-interpolation-filters="sRGB">
<feFlood flood-opacity="0" result="BackgroundImageFix"/>
<feBlend mode="normal" in="SourceGraphic" in2="BackgroundImageFix" result="shape"/>
<feGaussianBlur stdDeviation="50" result="effect1_foregroundBlur_2152_5809"/>
</filter>
<filter id="filter2_f_2152_5809" x="-397.428" y="-101.242" width="874.229" height="832.693" filterUnits="userSpaceOnUse" color-interpolation-filters="sRGB">
<feFlood flood-opacity="0" result="BackgroundImageFix"/>
<feBlend mode="normal" in="SourceGraphic" in2="BackgroundImageFix" result="shape"/>
<feGaussianBlur stdDeviation="100" result="effect1_foregroundBlur_2152_5809"/>
</filter>
</defs>
</svg>
