<svg width="4010" height="578" viewBox="0 0 4010 578" fill="none" xmlns="http://www.w3.org/2000/svg">
<mask id="mask0_1931_1270" style="mask-type:alpha" maskUnits="userSpaceOnUse" x="0" y="0" width="4010" height="578">
<rect width="4010" height="578" fill="#D9D9D9"/>
</mask>
<g mask="url(#mask0_1931_1270)">
<path opacity="0.76" fill-rule="evenodd" clip-rule="evenodd" d="M1498.5 578H4010V309H1498.5C1424.22 309 1364 369.218 1364 443.5C1364 517.782 1424.22 578 1498.5 578ZM1432 308.973H4010V224.973V222.973V46.9998V45.9727V31V29.9998V0H2499.5C2490.94 0 2484 6.93958 2484 15.5C2484 24.0604 2490.94 31 2499.5 31H2584.12C2586.85 32.3813 2588.71 35.2068 2588.71 38.468C2588.71 41.7583 2586.81 44.6051 2584.05 45.9727H1387C1340.61 45.9727 1303 83.5807 1303 129.973V140.973C1303 187.365 1340.61 224.973 1387 224.973H1496.3C1519.36 225.135 1538 243.877 1538 266.972C1538 290.168 1519.2 308.972 1496 308.972H1431.71C1431.81 308.972 1431.9 308.973 1432 308.973Z" fill="url(#paint0_linear_1931_1270)"/>
<mask id="mask1_1931_1270" style="mask-type:alpha" maskUnits="userSpaceOnUse" x="2387" y="359" width="91" height="20">
<rect width="89.7503" height="18.6897" transform="matrix(-1 -8.74228e-08 -8.74228e-08 1 2477.75 359.972)" fill="#D9D9D9"/>
</mask>
<g mask="url(#mask1_1931_1270)">
<path fill-rule="evenodd" clip-rule="evenodd" d="M2431.42 379.91C2433.69 380.988 2436.39 381.612 2439.28 381.612C2442.28 381.612 2445.07 380.941 2447.39 379.789C2449.2 380.925 2451.54 381.609 2454.09 381.609C2455.94 381.609 2457.67 381.253 2459.17 380.628C2460.36 381.25 2461.81 381.616 2463.38 381.616C2465.26 381.616 2466.97 381.087 2468.27 380.218C2469.2 381.07 2470.62 381.615 2472.22 381.615C2475.03 381.615 2477.3 379.926 2477.3 377.844C2477.3 375.761 2475.03 374.073 2472.22 374.073C2471.52 374.073 2470.85 374.179 2470.24 374.37C2469.25 372.336 2466.66 370.869 2463.6 370.799C2461.99 368.089 2458.34 366.198 2454.09 366.198C2453.57 366.198 2453.05 366.227 2452.55 366.283C2450.24 362.558 2445.17 359.972 2439.28 359.972C2433.41 359.972 2428.35 362.54 2426.04 366.243C2425.67 366.213 2425.29 366.198 2424.91 366.198C2423.5 366.198 2422.16 366.406 2420.94 366.783C2418.89 365.403 2416.18 364.562 2413.2 364.562C2407.92 364.562 2403.47 367.201 2402.12 370.798C2402.05 370.797 2401.99 370.796 2401.92 370.796C2398.76 370.796 2396.07 372.285 2395.06 374.369C2394.45 374.178 2393.78 374.073 2393.08 374.073C2390.27 374.073 2388 375.761 2388 377.844C2388 379.926 2390.27 381.615 2393.08 381.615C2394.67 381.615 2396.1 381.071 2397.03 380.22C2398.32 381.088 2400.04 381.616 2401.92 381.616C2403.82 381.616 2405.55 381.078 2406.85 380.195C2408.67 381.09 2410.85 381.612 2413.2 381.612C2415.4 381.612 2417.47 381.15 2419.22 380.35C2420.85 381.146 2422.81 381.609 2424.91 381.609C2427.38 381.609 2429.64 380.973 2431.42 379.91Z" fill="white"/>
</g>
<mask id="mask2_1931_1270" style="mask-type:alpha" maskUnits="userSpaceOnUse" x="1613" y="61" width="144" height="31">
<rect x="1613" y="61.9717" width="143.044" height="29.7876" fill="#D9D9D9"/>
</mask>
<g mask="url(#mask2_1931_1270)">
<path fill-rule="evenodd" clip-rule="evenodd" d="M1686.83 93.7503C1683.21 95.4672 1678.92 96.4626 1674.3 96.4626C1669.52 96.4626 1665.08 95.3932 1661.39 93.5593C1658.5 95.3692 1654.77 96.4604 1650.7 96.4604C1647.75 96.4604 1644.99 95.891 1642.6 94.8927C1640.7 95.8833 1638.39 96.4652 1635.9 96.4652C1632.9 96.4652 1630.17 95.6227 1628.1 94.2394C1626.62 95.5972 1624.35 96.4649 1621.81 96.4649C1617.33 96.4649 1613.71 93.7742 1613.71 90.4551C1613.71 87.136 1617.33 84.4453 1621.81 84.4453C1622.93 84.4453 1623.99 84.6132 1624.96 84.9168C1626.54 81.6737 1630.66 79.3334 1635.54 79.2238C1638.11 74.9096 1643.93 71.8987 1650.7 71.8987C1651.53 71.8987 1652.36 71.9446 1653.16 72.0333C1656.83 66.0955 1664.92 61.9717 1674.3 61.9717C1683.66 61.9717 1691.72 66.0662 1695.41 71.9699C1696 71.9228 1696.6 71.8987 1697.21 71.8987C1699.45 71.8987 1701.59 72.2296 1703.54 72.8293C1706.8 70.6288 1711.13 69.2871 1715.88 69.2871C1724.29 69.2871 1731.38 73.4923 1733.53 79.2229C1733.63 79.2208 1733.74 79.2197 1733.85 79.2197C1738.88 79.2197 1743.17 81.5946 1744.79 84.9168C1745.76 84.6132 1746.82 84.4453 1747.94 84.4453C1752.41 84.4453 1756.04 87.136 1756.04 90.4551C1756.04 93.7742 1752.41 96.4649 1747.94 96.4649C1745.4 96.4649 1743.13 95.5972 1741.64 94.2394C1739.58 95.6227 1736.85 96.4652 1733.85 96.4652C1730.82 96.4652 1728.07 95.6079 1726 94.2029C1723.1 95.6303 1719.62 96.4618 1715.88 96.4618C1712.36 96.4618 1709.07 95.7266 1706.28 94.4522C1703.68 95.7218 1700.56 96.4604 1697.21 96.4604C1693.28 96.4604 1689.67 95.4456 1686.83 93.7503Z" fill="white"/>
</g>
<mask id="mask3_1931_1270" style="mask-type:alpha" maskUnits="userSpaceOnUse" x="2630" y="203" width="163" height="35">
<rect x="2630" y="203.895" width="163" height="33.9432" fill="#D9D9D9"/>
</mask>
<g mask="url(#mask3_1931_1270)">
<path fill-rule="evenodd" clip-rule="evenodd" d="M2714.12 240.106C2710.01 242.063 2705.11 243.197 2699.85 243.197C2694.41 243.197 2689.34 241.978 2685.13 239.889C2681.85 241.951 2677.6 243.194 2672.95 243.194C2669.6 243.194 2666.45 242.545 2663.72 241.408C2661.56 242.537 2658.93 243.2 2656.09 243.2C2652.67 243.2 2649.56 242.24 2647.21 240.665C2645.52 242.211 2642.93 243.199 2640.04 243.199C2634.94 243.199 2630.8 240.133 2630.8 236.351C2630.8 232.569 2634.94 229.503 2640.04 229.503C2641.31 229.503 2642.52 229.694 2643.63 230.04C2645.42 226.345 2650.12 223.678 2655.68 223.553C2658.61 218.637 2665.24 215.206 2672.95 215.206C2673.91 215.206 2674.84 215.258 2675.76 215.359C2679.94 208.593 2689.16 203.895 2699.85 203.895C2710.51 203.895 2719.7 208.56 2723.9 215.287C2724.58 215.233 2725.26 215.206 2725.95 215.206C2728.51 215.206 2730.95 215.583 2733.17 216.267C2736.88 213.759 2741.81 212.23 2747.23 212.23C2756.82 212.23 2764.89 217.022 2767.34 223.552C2767.46 223.55 2767.58 223.549 2767.7 223.549C2773.44 223.549 2778.33 226.255 2780.17 230.041C2781.28 229.694 2782.49 229.503 2783.76 229.503C2788.86 229.503 2793 232.569 2793 236.351C2793 240.133 2788.86 243.199 2783.76 243.199C2780.87 243.199 2778.28 242.21 2776.59 240.663C2774.24 242.24 2771.12 243.2 2767.7 243.2C2764.26 243.2 2761.12 242.223 2758.76 240.622C2755.45 242.249 2751.49 243.196 2747.23 243.196C2743.22 243.196 2739.47 242.358 2736.29 240.905C2733.32 242.352 2729.77 243.194 2725.95 243.194C2721.47 243.194 2717.36 242.038 2714.12 240.106Z" fill="white"/>
</g>
<mask id="mask4_1931_1270" style="mask-type:alpha" maskUnits="userSpaceOnUse" x="1364" y="163" width="134" height="29">
<rect width="133.078" height="27.7123" transform="matrix(-1 -8.74228e-08 -8.74228e-08 1 1497.08 163.972)" fill="#D9D9D9"/>
</mask>
<g mask="url(#mask4_1931_1270)">
<path fill-rule="evenodd" clip-rule="evenodd" d="M1428.39 193.536C1431.76 195.133 1435.75 196.06 1440.04 196.06C1444.49 196.06 1448.62 195.065 1452.06 193.359C1454.75 195.042 1458.22 196.057 1462 196.057C1464.74 196.057 1467.32 195.526 1469.55 194.597C1471.31 195.518 1473.45 196.059 1475.77 196.059C1478.56 196.059 1481.11 195.274 1483.03 193.987C1484.41 195.249 1486.52 196.056 1488.88 196.056C1493.05 196.056 1496.42 193.553 1496.42 190.465C1496.42 187.377 1493.05 184.874 1488.88 184.874C1487.84 184.874 1486.85 185.03 1485.95 185.313C1484.48 182.296 1480.64 180.12 1476.1 180.018C1473.71 176.006 1468.3 173.206 1462 173.206C1461.23 173.206 1460.46 173.249 1459.72 173.331C1456.3 167.808 1448.78 163.972 1440.04 163.972C1431.34 163.972 1423.84 167.78 1420.41 173.272C1419.86 173.229 1419.3 173.206 1418.74 173.206C1416.65 173.206 1414.66 173.515 1412.84 174.074C1409.81 172.028 1405.79 170.78 1401.37 170.78C1393.54 170.78 1386.95 174.689 1384.95 180.018C1384.85 180.016 1384.75 180.015 1384.65 180.015C1379.97 180.015 1375.98 182.224 1374.47 185.314C1373.57 185.031 1372.58 184.874 1371.54 184.874C1367.37 184.874 1364 187.377 1364 190.465C1364 193.553 1367.37 196.056 1371.54 196.056C1373.9 196.056 1376.01 195.249 1377.39 193.986C1379.31 195.274 1381.86 196.059 1384.65 196.059C1387.46 196.059 1390.02 195.263 1391.95 193.958C1394.65 195.287 1397.88 196.062 1401.37 196.062C1404.64 196.062 1407.7 195.377 1410.3 194.19C1412.72 195.37 1415.62 196.057 1418.74 196.057C1422.39 196.057 1425.75 195.113 1428.39 193.536Z" fill="white"/>
</g>
</g>
<defs>
<linearGradient id="paint0_linear_1931_1270" x1="2005.5" y1="659.168" x2="2005.5" y2="102.961" gradientUnits="userSpaceOnUse">
<stop stop-color="#CAF1F3"/>
<stop offset="1" stop-color="#DEF3F5"/>
</linearGradient>
</defs>
</svg>
