<svg width="4010" height="573" viewBox="0 0 4010 573" fill="none" xmlns="http://www.w3.org/2000/svg">
<mask id="mask0_1931_1250" style="mask-type:alpha" maskUnits="userSpaceOnUse" x="0" y="0" width="4010" height="573">
<rect width="4010" height="573" fill="#D9D9D9"/>
</mask>
<g mask="url(#mask0_1931_1250)">
<mask id="mask1_1931_1250" style="mask-type:alpha" maskUnits="userSpaceOnUse" x="1205" y="389" width="171" height="61">
<rect x="1205" y="389.805" width="170.216" height="59.9627" fill="#D9D9D9"/>
</mask>
<g mask="url(#mask1_1931_1250)">
<path fill-rule="evenodd" clip-rule="evenodd" d="M1235.88 453.777C1228.6 457.232 1219.95 459.235 1210.67 459.235C1201.05 459.235 1192.11 457.083 1184.68 453.394C1178.87 457.038 1171.36 459.236 1163.15 459.236C1157.23 459.236 1151.66 458.088 1146.83 456.075C1143.03 458.066 1138.38 459.235 1133.37 459.235C1127.33 459.235 1121.82 457.538 1117.67 454.753C1114.68 457.487 1110.11 459.235 1105 459.235C1095.99 459.235 1088.68 453.818 1088.68 447.137C1088.68 440.455 1095.99 435.039 1105 435.039C1107.25 435.039 1109.39 435.377 1111.34 435.989C1114.52 429.458 1122.82 424.746 1132.65 424.527C1137.83 415.849 1149.54 409.793 1163.15 409.793C1164.84 409.793 1166.49 409.885 1168.1 410.063C1175.5 398.108 1191.78 389.805 1210.67 389.805C1229.5 389.805 1245.73 398.049 1253.16 409.936C1254.35 409.842 1255.55 409.793 1256.77 409.793C1261.29 409.793 1265.59 410.459 1269.52 411.666C1276.08 407.234 1284.79 404.531 1294.36 404.531C1311.29 404.531 1325.56 412.993 1329.89 424.526C1330.11 424.522 1330.32 424.52 1330.53 424.52C1340.67 424.52 1349.31 429.301 1352.56 435.989C1354.51 435.377 1356.65 435.039 1358.9 435.039C1367.91 435.039 1375.22 440.455 1375.22 447.137C1375.22 453.818 1367.91 459.235 1358.9 459.235C1353.79 459.235 1349.22 457.487 1346.23 454.753C1342.08 457.538 1336.57 459.235 1330.53 459.235C1324.45 459.235 1318.9 457.511 1314.74 454.685C1308.9 457.56 1301.89 459.234 1294.36 459.234C1287.28 459.234 1280.67 457.755 1275.05 455.19C1269.8 457.748 1263.52 459.236 1256.77 459.236C1248.86 459.236 1241.59 457.192 1235.88 453.777Z" fill="white"/>
</g>
<mask id="mask2_1931_1250" style="mask-type:alpha" maskUnits="userSpaceOnUse" x="1437" y="202" width="90" height="20">
<rect width="89.7503" height="18.6897" transform="matrix(-1 0 0 1 1526.86 202.363)" fill="#D9D9D9"/>
</mask>
<g mask="url(#mask2_1931_1250)">
<path fill-rule="evenodd" clip-rule="evenodd" d="M1480.53 222.301C1482.8 223.379 1485.5 224.004 1488.39 224.004C1491.39 224.004 1494.18 223.332 1496.5 222.181C1498.31 223.316 1500.65 224.001 1503.21 224.001C1505.05 224.001 1506.78 223.644 1508.28 223.019C1509.47 223.642 1510.92 224.008 1512.49 224.008C1514.37 224.008 1516.09 223.479 1517.38 222.61C1518.32 223.462 1519.74 224.006 1521.33 224.006C1524.14 224.006 1526.42 222.318 1526.42 220.236C1526.42 218.153 1524.14 216.465 1521.33 216.465C1520.63 216.465 1519.96 216.57 1519.35 216.761C1518.36 214.728 1515.78 213.26 1512.72 213.19C1511.11 210.481 1507.46 208.59 1503.21 208.59C1502.68 208.59 1502.16 208.619 1501.66 208.675C1499.35 204.95 1494.28 202.363 1488.39 202.363C1482.53 202.363 1477.47 204.931 1475.15 208.635C1474.78 208.605 1474.41 208.59 1474.03 208.59C1472.62 208.59 1471.27 208.798 1470.05 209.174C1468.01 207.794 1465.29 206.953 1462.31 206.953C1457.03 206.953 1452.58 209.593 1451.23 213.189C1451.17 213.188 1451.1 213.188 1451.03 213.188C1447.88 213.188 1445.18 214.677 1444.17 216.76C1443.56 216.57 1442.9 216.465 1442.19 216.465C1439.39 216.465 1437.11 218.153 1437.11 220.236C1437.11 222.318 1439.39 224.006 1442.19 224.006C1443.79 224.006 1445.21 223.462 1446.14 222.611C1447.44 223.479 1449.15 224.008 1451.03 224.008C1452.93 224.008 1454.66 223.469 1455.96 222.587C1457.78 223.482 1459.96 224.003 1462.31 224.003C1464.52 224.003 1466.58 223.542 1468.33 222.742C1469.97 223.538 1471.92 224.001 1474.03 224.001C1476.49 224.001 1478.75 223.364 1480.53 222.301Z" fill="white"/>
</g>
<mask id="mask3_1931_1250" style="mask-type:alpha" maskUnits="userSpaceOnUse" x="2470" y="40" width="279" height="58">
<rect x="2470.79" y="40.168" width="277.504" height="57.7876" fill="#D9D9D9"/>
</mask>
<g mask="url(#mask3_1931_1250)">
<path fill-rule="evenodd" clip-rule="evenodd" d="M2614.01 101.818C2607 105.149 2598.66 107.08 2589.72 107.08C2580.44 107.08 2571.82 105.005 2564.66 101.448C2559.06 104.958 2551.82 107.075 2543.92 107.075C2538.21 107.075 2532.85 105.971 2528.2 104.034C2524.53 105.956 2520.05 107.085 2515.21 107.085C2509.39 107.085 2504.09 105.451 2500.09 102.767C2497.2 105.4 2492.8 107.083 2487.87 107.083C2479.19 107.083 2472.15 101.864 2472.15 95.4245C2472.15 88.9855 2479.19 83.7656 2487.87 83.7656C2490.04 83.7656 2492.11 84.0912 2493.99 84.68C2497.05 78.3888 2505.05 73.8489 2514.52 73.6367C2519.5 65.2671 2530.79 59.4258 2543.92 59.4258C2545.54 59.4258 2547.14 59.5149 2548.69 59.6869C2555.82 48.1679 2571.51 40.168 2589.72 40.168C2607.86 40.168 2623.5 48.1112 2630.66 59.5642C2631.81 59.4727 2632.97 59.4258 2634.14 59.4258C2638.5 59.4258 2642.65 60.0679 2646.43 61.2315C2652.75 56.9624 2661.15 54.3594 2670.37 54.3594C2686.69 54.3594 2700.44 62.5175 2704.61 73.635C2704.82 73.6309 2705.02 73.6289 2705.23 73.6289C2715 73.6289 2723.32 78.2361 2726.45 84.681C2728.33 84.0916 2730.4 83.7656 2732.57 83.7656C2741.25 83.7656 2748.29 88.9855 2748.29 95.4245C2748.29 101.864 2741.25 107.083 2732.57 107.083C2727.64 107.083 2723.24 105.4 2720.35 102.765C2716.35 105.45 2711.05 107.085 2705.23 107.085C2699.36 107.085 2694.01 105.422 2690 102.696C2684.37 105.465 2677.63 107.078 2670.37 107.078C2663.54 107.078 2657.17 105.652 2651.76 103.179C2646.7 105.642 2640.65 107.075 2634.14 107.075C2626.52 107.075 2619.52 105.107 2614.01 101.818Z" fill="white"/>
</g>
<mask id="mask4_1931_1250" style="mask-type:alpha" maskUnits="userSpaceOnUse" x="2522" y="281" width="134" height="28">
<rect width="133.078" height="27.7123" transform="matrix(-1 0 0 1 2655.45 281.164)" fill="#D9D9D9"/>
</mask>
<g mask="url(#mask4_1931_1250)">
<path fill-rule="evenodd" clip-rule="evenodd" d="M2586.76 310.728C2590.12 312.326 2594.12 313.252 2598.41 313.252C2602.86 313.252 2606.99 312.257 2610.43 310.551C2613.11 312.234 2616.58 313.249 2620.37 313.249C2623.11 313.249 2625.69 312.719 2627.91 311.789C2629.67 312.71 2631.82 313.251 2634.14 313.251C2636.93 313.251 2639.48 312.467 2641.4 311.179C2642.78 312.442 2644.89 313.249 2647.25 313.249C2651.42 313.249 2654.79 310.745 2654.79 307.657C2654.79 304.57 2651.42 302.066 2647.25 302.066C2646.21 302.066 2645.22 302.223 2644.32 302.505C2642.85 299.489 2639.01 297.312 2634.47 297.211C2632.08 293.198 2626.67 290.398 2620.37 290.398C2619.6 290.398 2618.83 290.441 2618.09 290.524C2614.67 285 2607.14 281.164 2598.41 281.164C2589.71 281.164 2582.21 284.973 2578.78 290.465C2578.23 290.421 2577.67 290.398 2577.11 290.398C2575.02 290.398 2573.03 290.707 2571.21 291.266C2568.18 289.22 2564.15 287.973 2559.74 287.973C2551.91 287.973 2545.32 291.882 2543.32 297.21C2543.22 297.208 2543.12 297.207 2543.02 297.207C2538.33 297.207 2534.35 299.416 2532.84 302.506C2531.94 302.223 2530.95 302.066 2529.91 302.066C2525.74 302.066 2522.37 304.57 2522.37 307.657C2522.37 310.745 2525.74 313.249 2529.91 313.249C2532.27 313.249 2534.38 312.441 2535.76 311.178C2537.68 312.466 2540.23 313.251 2543.02 313.251C2545.83 313.251 2548.39 312.455 2550.32 311.151C2553.02 312.48 2556.25 313.254 2559.74 313.254C2563.01 313.254 2566.07 312.569 2568.67 311.382C2571.09 312.562 2573.99 313.249 2577.11 313.249C2580.76 313.249 2584.12 312.305 2586.76 310.728Z" fill="white"/>
</g>
<mask id="mask5_1931_1250" style="mask-type:alpha" maskUnits="userSpaceOnUse" x="0" y="0" width="2805" height="573">
<rect width="2805" height="573" fill="#D9D9D9"/>
</mask>
<g mask="url(#mask5_1931_1250)">
<path fill-rule="evenodd" clip-rule="evenodd" d="M0 0H2805V84C2805 139.228 2760.23 184 2705 184H0V0ZM0 236.777H-11V388.315V484.919V573H2328.5C2363.1 573 2391.15 547.558 2391.15 516.174C2391.15 498.913 2405.15 484.919 2422.41 484.919H2487.85C2522.45 484.919 2550.5 459.477 2550.5 428.093C2550.5 406.124 2568.31 388.315 2590.28 388.315H2677.46C2723.6 388.315 2761 354.392 2761 312.546C2761 270.7 2723.6 236.777 2677.46 236.777H2544.95C2544.95 236.777 2544.96 236.777 2544.96 236.776H2526.23C2511.58 236.776 2499.71 224.904 2499.71 210.257C2499.71 196.881 2509.61 185.818 2522.49 184H0V236.777Z" fill="url(#paint0_linear_1931_1250)"/>
<path d="M1875.63 65.8934L1872.94 66.0253L1871.5 68.6017L1870.56 65.7514L1867.94 65.0211L1870.05 63.1243L1869.87 60.1016L1872.12 61.7752L1874.62 60.6392L1873.9 63.5706L1875.63 65.8934Z" fill="white"/>
<path d="M2185.08 125.821L2182.68 125.943L2181.41 128.225L2180.57 125.699L2178.24 125.04L2180.12 123.366L2179.96 120.668L2181.96 122.159L2184.18 121.155L2183.54 123.752L2185.08 125.821Z" fill="white"/>
<path d="M1876.7 155.723L1875.81 155.764L1875.34 156.616L1875.03 155.683L1874.16 155.439L1874.87 154.81L1874.8 153.816L1875.54 154.364L1876.37 153.989L1876.13 154.952L1876.7 155.723Z" fill="white"/>
<path d="M2291.93 126.898L2290.54 126.969L2289.81 128.287L2289.32 126.827L2287.98 126.451L2289.07 125.478L2288.97 123.926L2290.12 124.788L2291.4 124.21L2291.03 125.701L2291.93 126.898Z" fill="white"/>
<path d="M2011.6 85.304L2010.21 85.375L2009.48 86.6937L2008.99 85.233L2007.65 84.8577L2008.73 83.884L2008.64 82.332L2009.79 83.1942L2011.07 82.616L2010.7 84.1071L2011.6 85.304Z" fill="white"/>
<path d="M1941.96 98.9358L1940.48 99.0169L1939.68 100.437L1939.16 98.8648L1937.71 98.4489L1938.88 97.4041L1938.77 95.7305L1940.02 96.6637L1941.4 96.0348L1941.01 97.6476L1941.96 98.9358Z" fill="white"/>
<path d="M1312.53 88.0491L1309.9 88.6882L1308.86 91.4979L1307.51 88.8707L1304.82 88.6374L1306.63 86.3755L1305.99 83.4238L1308.46 84.6511L1310.76 83.0586L1310.48 86.0813L1312.53 88.0491Z" fill="white"/>
<path d="M1626.54 88.7471L1624.19 89.305L1623.28 91.8003L1622.08 89.4673L1619.69 89.2644L1621.29 87.256L1620.72 84.6289L1622.91 85.7244L1624.96 84.3145L1624.72 86.9923L1626.54 88.7471Z" fill="white"/>
<path d="M1326.99 176.411L1326.12 176.614L1325.77 177.547L1325.33 176.675L1324.45 176.604L1325.03 175.853L1324.83 174.879L1325.64 175.285L1326.4 174.768L1326.3 175.762L1326.99 176.411Z" fill="white"/>
<path d="M1732.03 69.6522L1730.68 69.9768L1730.15 71.4172L1729.46 70.0681L1728.08 69.9464L1729 68.79L1728.67 67.2787L1729.94 67.9076L1731.12 67.0859L1730.98 68.6379L1732.03 69.6522Z" fill="white"/>
<path d="M1296.85 263.105L1294.51 263.673L1293.6 266.168L1292.39 263.835L1290 263.622L1291.61 261.613L1291.04 258.996L1293.23 260.082L1295.28 258.672L1295.03 261.36L1296.85 263.105Z" fill="white"/>
<path d="M2682.47 281.472L2680.13 282.03L2679.22 284.525L2678.01 282.192L2675.62 281.989L2677.22 279.981L2676.66 277.354L2678.85 278.449L2680.89 277.039L2680.65 279.717L2682.47 281.472Z" fill="white"/>
<path d="M2718 119.403L2715.66 119.971L2714.75 122.456L2713.54 120.124L2711.15 119.921L2712.75 117.912L2712.19 115.285L2714.38 116.381L2716.42 114.971L2716.18 117.649L2718 119.403Z" fill="white"/>
<path d="M2443.64 223.812L2442.28 224.137L2441.75 225.577L2441.06 224.228L2439.68 224.107L2440.61 222.95L2440.28 221.439L2441.54 222.068L2442.73 221.246L2442.58 222.798L2443.64 223.812Z" fill="white"/>
<path d="M2613.03 141.672L2611.68 141.996L2611.14 143.437L2610.45 142.088L2609.07 141.966L2610 140.81L2609.67 139.298L2610.94 139.927L2612.12 139.105L2611.97 140.657L2613.03 141.672Z" fill="white"/>
<path d="M2453.42 96.0233L2452.06 96.3479L2451.53 97.7882L2450.84 96.4392L2449.46 96.3175L2450.39 95.1611L2450.05 93.6498L2451.32 94.2786L2452.5 93.457L2452.36 95.009L2453.42 96.0233Z" fill="white"/>
<path d="M2590.85 36.9073L2588.5 37.4753L2587.59 39.9705L2586.38 37.6376L2583.99 37.4246L2585.6 35.4162L2585.03 32.7992L2587.22 33.8845L2589.27 32.4746L2589.02 35.1626L2590.85 36.9073Z" fill="white"/>
<path d="M2558.22 212.498L2557.17 212.751L2556.77 213.867L2556.23 212.822L2555.15 212.731L2555.88 211.828L2555.62 210.652L2556.6 211.149L2557.52 210.51L2557.41 211.717L2558.22 212.498Z" fill="white"/>
<path d="M419.633 65.8934L416.937 66.0253L415.503 68.6017L414.556 65.7514L411.941 65.0211L414.051 63.1243L413.871 60.1016L416.116 61.7752L418.623 60.6392L417.902 63.5706L419.633 65.8934Z" fill="white"/>
<path d="M729.079 125.821L726.681 125.943L725.409 128.225L724.571 125.699L722.244 125.04L724.12 123.366L723.957 120.668L725.959 122.159L728.178 121.155L727.537 123.752L729.079 125.821Z" fill="white"/>
<path d="M420.696 155.723L419.812 155.764L419.343 156.616L419.028 155.683L418.162 155.439L418.865 154.81L418.802 153.816L419.542 154.364L420.371 153.989L420.128 154.952L420.696 155.723Z" fill="white"/>
<path d="M835.926 126.898L834.537 126.969L833.807 128.287L833.32 126.827L831.977 126.451L833.068 125.478L832.968 123.926L834.123 124.788L835.403 124.21L835.033 125.701L835.926 126.898Z" fill="white"/>
<path d="M555.596 85.304L554.207 85.375L553.477 86.6937L552.99 85.233L551.646 84.8577L552.729 83.884L552.638 82.332L553.793 83.1942L555.073 82.616L554.703 84.1071L555.596 85.304Z" fill="white"/>
<path d="M485.963 98.9358L484.475 99.0169L483.682 100.437L483.159 98.8648L481.707 98.4489L482.879 97.4041L482.771 95.7305L484.015 96.6637L485.404 96.0348L485.007 97.6476L485.963 98.9358Z" fill="white"/>
<path d="M170.539 88.7471L168.194 89.305L167.283 91.8003L166.075 89.4673L163.686 89.2644L165.291 87.256L164.723 84.6289L166.914 85.7244L168.961 84.3145L168.717 86.9923L170.539 88.7471Z" fill="white"/>
<path d="M276.035 69.6522L274.682 69.9768L274.15 71.4172L273.456 70.0681L272.076 69.9464L273.005 68.79L272.671 67.2787L273.943 67.9076L275.124 67.0859L274.98 68.6379L276.035 69.6522Z" fill="white"/>
<path d="M1226.47 281.472L1224.13 282.03L1223.22 284.525L1222.01 282.192L1219.62 281.989L1221.22 279.981L1220.66 277.354L1222.85 278.449L1224.89 277.039L1224.65 279.717L1226.47 281.472Z" fill="white"/>
<path d="M1262 119.403L1259.66 119.971L1258.75 122.456L1257.54 120.124L1255.15 119.921L1256.75 117.912L1256.19 115.285L1258.38 116.381L1260.42 114.971L1260.18 117.649L1262 119.403Z" fill="white"/>
<path d="M987.636 223.812L986.284 224.137L985.752 225.577L985.057 224.228L983.678 224.107L984.607 222.95L984.282 221.439L985.544 222.068L986.726 221.246L986.581 222.798L987.636 223.812Z" fill="white"/>
<path d="M1157.03 141.672L1155.68 141.996L1155.14 143.437L1154.45 142.088L1153.07 141.966L1154 140.81L1153.67 139.298L1154.94 139.927L1156.12 139.105L1155.97 140.657L1157.03 141.672Z" fill="white"/>
<path d="M997.416 96.0233L996.063 96.3479L995.531 97.7882L994.837 96.4392L993.457 96.3175L994.386 95.1611L994.052 93.6498L995.324 94.2786L996.505 93.457L996.361 95.009L997.416 96.0233Z" fill="white"/>
<path d="M1134.85 36.9073L1132.5 37.4753L1131.59 39.9705L1130.38 37.6376L1127.99 37.4246L1129.6 35.4162L1129.03 32.7992L1131.22 33.8845L1133.27 32.4746L1133.02 35.1626L1134.85 36.9073Z" fill="white"/>
<path d="M1102.22 212.498L1101.17 212.751L1100.77 213.867L1100.23 212.822L1099.15 212.731L1099.88 211.828L1099.62 210.652L1100.6 211.149L1101.52 210.51L1101.41 211.717L1102.22 212.498Z" fill="white"/>
</g>
</g>
<defs>
<linearGradient id="paint0_linear_1931_1250" x1="3066.46" y1="-91.5338" x2="1121.35" y2="210.24" gradientUnits="userSpaceOnUse">
<stop offset="0.310084" stop-color="#A4E7EA"/>
<stop offset="1" stop-color="#CEF1F3"/>
</linearGradient>
</defs>
</svg>
