<svg width="4034" height="565" viewBox="0 0 4034 565" fill="none" xmlns="http://www.w3.org/2000/svg">
<mask id="mask0_1931_1271" style="mask-type:alpha" maskUnits="userSpaceOnUse" x="0" y="0" width="4034" height="565">
<rect width="4034" height="565" fill="#D9D9D9"/>
</mask>
<g mask="url(#mask0_1931_1271)">
<mask id="mask1_1931_1271" style="mask-type:alpha" maskUnits="userSpaceOnUse" x="1230" y="-2" width="2804" height="567">
<rect x="4034" y="565" width="2804" height="567" transform="rotate(180 4034 565)" fill="#D9D9D9"/>
</mask>
<g mask="url(#mask1_1931_1271)">
<path fill-rule="evenodd" clip-rule="evenodd" d="M1791.48 -33.363C1764.43 -33.363 1742.5 -55.2902 1742.5 -82.3387C1742.5 -109.387 1764.43 -131.315 1791.48 -131.315L2396.8 -131.314L2396.8 -33.3629L1791.48 -33.363ZM1612 516.5C1612 543.286 1633.71 565 1660.5 565L4034 565L4034 468L1660.5 468C1633.71 468 1612 489.714 1612 516.5ZM1339 355.5C1339 399.407 1374.59 435 1418.5 435L1750.35 435C1749.51 435.008 1748.69 435.077 1747.89 435.204L1805.78 435.204C1814.74 435.204 1822 442.466 1822 451.423C1822 460.381 1814.74 467.642 1805.78 467.642L1747.07 467.642C1748.17 467.876 1749.32 468 1750.5 468L4034 468L4034 434.999L4034 276L1418.5 276C1374.59 276 1339 311.593 1339 355.5ZM1231 95.0001C1231 42.533 1273.53 -4.12674e-06 1326 -9.21733e-06L4034 -0.000271959L4034 190L4034 276L1519.2 276C1540.29 273.105 1556.54 255.014 1556.54 233.128C1556.54 210.443 1539.09 191.834 1516.87 190L1326 190C1273.53 190 1231 147.467 1231 95.0001Z" fill="url(#paint0_linear_1931_1271)"/>
<mask id="mask2_1931_1271" style="mask-type:alpha" maskUnits="userSpaceOnUse" x="1888" y="458" width="200" height="42">
<rect width="198.688" height="41.3749" transform="matrix(-1 0 0 1 2087.65 458.441)" fill="#D9D9D9"/>
</mask>
<g mask="url(#mask2_1931_1271)">
<path fill-rule="evenodd" clip-rule="evenodd" d="M1985.1 502.582C1990.12 504.967 1996.09 506.349 2002.5 506.349C2009.14 506.349 2015.31 504.864 2020.44 502.317C2024.45 504.831 2029.63 506.347 2035.29 506.347C2039.38 506.347 2043.21 505.556 2046.54 504.168C2049.17 505.544 2052.38 506.351 2055.84 506.351C2060 506.351 2063.8 505.182 2066.67 503.261C2068.73 505.146 2071.88 506.351 2075.41 506.351C2081.63 506.351 2086.67 502.614 2086.67 498.004C2086.67 493.394 2081.63 489.656 2075.41 489.656C2073.86 489.656 2072.38 489.889 2071.04 490.31C2068.84 485.806 2063.12 482.555 2056.34 482.403C2052.77 476.412 2044.69 472.23 2035.29 472.23C2034.13 472.23 2032.98 472.294 2031.87 472.417C2026.77 464.17 2015.53 458.441 2002.5 458.441C1989.51 458.441 1978.31 464.129 1973.18 472.33C1972.36 472.264 1971.53 472.23 1970.69 472.23C1967.57 472.23 1964.6 472.69 1961.89 473.524C1957.36 470.467 1951.35 468.603 1944.75 468.603C1933.06 468.603 1923.22 474.443 1920.23 482.402C1920.08 482.399 1919.94 482.397 1919.79 482.397C1912.8 482.397 1906.84 485.697 1904.6 490.311C1903.25 489.89 1901.77 489.656 1900.22 489.656C1894 489.656 1888.96 493.394 1888.96 498.004C1888.96 502.614 1894 506.351 1900.22 506.351C1903.75 506.351 1906.9 505.146 1908.96 503.259C1911.83 505.181 1915.63 506.351 1919.79 506.351C1923.99 506.351 1927.82 505.161 1930.69 503.211C1934.72 505.193 1939.55 506.348 1944.75 506.348C1949.63 506.348 1954.2 505.327 1958.08 503.556C1961.7 505.32 1966.03 506.347 1970.69 506.347C1976.14 506.347 1981.16 504.937 1985.1 502.582Z" fill="white"/>
</g>
<mask id="mask3_1931_1271" style="mask-type:alpha" maskUnits="userSpaceOnUse" x="3569" y="269" width="320" height="67">
<rect width="319.313" height="66.494" transform="matrix(-1 0 0 1 3889 269.44)" fill="#D9D9D9"/>
</mask>
<g mask="url(#mask3_1931_1271)">
<path fill-rule="evenodd" clip-rule="evenodd" d="M3724.2 340.379C3732.27 344.211 3741.86 346.433 3752.16 346.433C3762.83 346.433 3772.74 344.046 3780.99 339.953C3787.43 343.993 3795.76 346.429 3804.85 346.429C3811.42 346.429 3817.59 345.158 3822.94 342.929C3827.16 345.139 3832.32 346.437 3837.88 346.437C3844.58 346.437 3850.68 344.557 3855.28 341.47C3858.6 344.5 3863.66 346.437 3869.33 346.437C3879.33 346.437 3887.42 340.431 3887.42 333.021C3887.42 325.612 3879.33 319.606 3869.33 319.606C3866.84 319.606 3864.47 319.98 3862.3 320.657C3858.78 313.418 3849.58 308.194 3838.68 307.949C3832.95 298.321 3819.96 291.601 3804.85 291.601C3802.99 291.601 3801.15 291.703 3799.36 291.901C3791.16 278.646 3773.11 269.44 3752.16 269.44C3731.28 269.44 3713.28 278.581 3705.04 291.76C3703.72 291.655 3702.39 291.601 3701.03 291.601C3696.02 291.601 3691.25 292.34 3686.89 293.68C3679.62 288.766 3669.96 285.77 3659.35 285.77C3640.57 285.77 3624.75 295.156 3619.94 307.947C3619.71 307.943 3619.47 307.94 3619.24 307.94C3608 307.94 3598.42 313.242 3594.82 320.659C3592.65 319.981 3590.28 319.606 3587.78 319.606C3577.79 319.606 3569.69 325.612 3569.69 333.021C3569.69 340.431 3577.79 346.437 3587.78 346.437C3593.45 346.437 3598.52 344.499 3601.84 341.468C3606.44 344.556 3612.54 346.437 3619.24 346.437C3625.99 346.437 3632.14 344.525 3636.76 341.39C3643.23 344.576 3651 346.432 3659.35 346.432C3667.2 346.432 3674.54 344.79 3680.76 341.945C3686.58 344.78 3693.55 346.429 3701.03 346.429C3709.8 346.429 3717.86 344.164 3724.2 340.379Z" fill="white"/>
</g>
<mask id="mask4_1931_1271" style="mask-type:alpha" maskUnits="userSpaceOnUse" x="2474" y="110" width="471" height="98">
<rect width="470.397" height="97.9558" transform="matrix(-1 0 0 1 2945 110.024)" fill="#D9D9D9"/>
</mask>
<g mask="url(#mask4_1931_1271)">
<path fill-rule="evenodd" clip-rule="evenodd" d="M2702.22 214.528C2714.11 220.174 2728.24 223.447 2743.4 223.447C2759.12 223.447 2773.73 219.93 2785.88 213.899C2795.37 219.852 2807.64 223.441 2821.04 223.441C2830.71 223.441 2839.8 221.568 2847.68 218.284C2853.91 221.542 2861.5 223.455 2869.7 223.455C2879.56 223.455 2888.55 220.686 2895.33 216.138C2900.22 220.6 2907.68 223.451 2916.03 223.451C2930.75 223.451 2942.68 214.603 2942.68 203.688C2942.68 192.773 2930.75 183.925 2916.03 183.925C2912.36 183.925 2908.86 184.476 2905.67 185.473C2900.48 174.81 2886.92 167.116 2870.87 166.757C2862.43 152.571 2843.29 142.67 2821.04 142.67C2818.29 142.67 2815.58 142.821 2812.94 143.113C2800.86 123.586 2774.27 110.024 2743.4 110.024C2712.65 110.024 2686.13 123.49 2673.99 142.904C2672.06 142.749 2670.09 142.67 2668.09 142.67C2660.71 142.67 2653.68 143.758 2647.26 145.731C2636.55 138.493 2622.32 134.08 2606.69 134.08C2579.02 134.08 2555.71 147.909 2548.64 166.754C2548.29 166.748 2547.95 166.744 2547.6 166.744C2531.04 166.744 2516.94 174.553 2511.62 185.476C2508.43 184.477 2504.93 183.925 2501.25 183.925C2486.54 183.925 2474.61 192.773 2474.61 203.688C2474.61 214.603 2486.54 223.451 2501.25 223.451C2509.61 223.451 2517.07 220.598 2521.96 216.133C2528.74 220.684 2537.73 223.455 2547.6 223.455C2557.55 223.455 2566.61 220.636 2573.41 216.016C2582.95 220.709 2594.39 223.443 2606.69 223.443C2618.25 223.443 2629.06 221.026 2638.24 216.835C2646.81 221.011 2657.07 223.441 2668.09 223.441C2681.01 223.441 2692.88 220.103 2702.22 214.528Z" fill="white"/>
</g>
</g>
</g>
<defs>
<linearGradient id="paint0_linear_1931_1271" x1="2632.5" y1="-131.315" x2="2632.5" y2="456.208" gradientUnits="userSpaceOnUse">
<stop stop-color="#CAF1F3"/>
<stop offset="1" stop-color="#DEF3F5"/>
</linearGradient>
</defs>
</svg>
