<svg width="1600" height="63" viewBox="0 0 1600 63" fill="none" xmlns="http://www.w3.org/2000/svg">
<mask id="mask0_1330_1803" style="mask-type:alpha" maskUnits="userSpaceOnUse" x="0" y="0" width="1600" height="63">
<path d="M1600 0.402344H0V62.258H1600V0.402344Z" fill="url(#paint0_linear_1330_1803)"/>
</mask>
<g mask="url(#mask0_1330_1803)">
<path d="M1600 0.402344H0V62.258H1600V0.402344Z" fill="url(#paint1_linear_1330_1803)"/>
<path d="M203.642 40.0488C204.776 38.1197 206.446 37.6389 207.214 37.4319C207.463 37.4034 207.695 37.3696 207.812 37.4079C209.937 37.6672 211.48 39.2451 212.069 39.9184C212.235 40.084 212.446 40.1719 212.633 39.9942L216.342 38.3619C216.59 38.3335 216.695 38.0177 216.666 37.7688C215.883 34.9491 218.006 32.5358 218.006 32.5358C219.584 30.9928 221.589 31.5623 222.403 31.6096C222.619 31.6809 222.784 31.5144 222.855 31.2984L224.377 27.5256C224.448 27.3096 224.414 27.0773 224.198 27.006C221.671 25.5638 221.453 23.1519 221.453 23.1519C221.397 20.9222 223.191 19.4505 223.715 18.9232C223.88 18.7567 223.968 18.5462 223.885 18.4081L222.385 14.6333C222.357 14.3844 222.041 14.2802 221.792 14.3086C218.894 14.937 217.04 12.9062 217.04 12.9062C215.53 11.2286 215.761 8.85408 215.803 8.05715C215.774 7.80823 215.708 7.67563 215.492 7.60434L211.669 6.17708C211.453 6.10579 211.221 6.13969 211.15 6.3557C209.877 8.36812 207.964 8.86077 207.229 8.9681C207.096 9.0349 206.98 8.99651 206.78 8.93071C204.655 8.67145 203.15 6.9772 202.623 6.4531C202.457 6.2876 202.246 6.19969 202.058 6.37732L198.35 8.00968C198.101 8.03809 197.997 8.3538 198.064 8.4864C198.669 10.7865 197.65 12.4219 197.264 12.8657C197.231 12.9654 197.093 13.0488 197.043 13.143C195.299 14.5205 192.82 14.6054 192.062 14.4472C191.813 14.4756 191.68 14.5424 191.609 14.7584L190.181 18.5807C190.11 18.7967 190.144 19.029 190.36 19.1003C192.472 20.4054 192.861 22.6342 193.001 23.2701C192.968 23.3698 193.029 23.519 193.029 23.519C192.87 25.6775 191.154 27.3039 190.486 27.8759C190.32 28.0424 190.232 28.2529 190.41 28.4405L192.042 32.1485C192.071 32.3974 192.387 32.5016 192.519 32.4348C194.819 31.8304 196.616 33.0313 197.276 33.4886C197.459 33.6596 197.553 33.7091 197.719 33.8746C199.03 35.4864 199.003 37.5781 198.961 38.375C198.99 38.624 199.056 38.7566 199.272 38.8279L203.095 40.2551C203.322 40.2932 203.576 40.2481 203.642 40.0488ZM200.912 20.9612C202.119 17.4716 205.926 15.5955 209.416 16.8024C212.905 18.0093 214.781 21.8162 213.575 25.3058C212.368 28.7955 208.561 30.6716 205.071 29.4647C201.559 28.2689 199.705 24.4508 200.912 20.9612Z" fill="white"/>
<path d="M155.384 93.7246C151.241 88.0332 151.985 82.5904 152.306 80.1354C152.524 79.3327 152.749 78.6613 152.997 78.3837C156.421 72.5909 162.928 70.0472 165.648 69.2338C166.358 68.9958 166.854 68.4407 166.546 67.6679L166.478 54.8952C166.696 54.0925 165.932 53.4115 165.199 53.2557C156.035 51.9332 151.697 42.8282 151.697 42.8282C149.154 36.3212 153.341 31.2094 154.465 28.972C154.898 28.4864 154.66 27.7755 154.105 27.2802L145.157 18.1741C144.671 17.7408 143.869 17.523 143.435 18.0087C136.043 23.5006 128.858 21.0776 128.858 21.0776C122.384 18.4166 120.335 11.3546 119.49 9.22934C119.252 8.51845 118.697 8.02317 118.172 8.05306L105.439 7.65818C104.636 7.44044 103.955 8.20364 103.799 8.93696C101.951 18.1306 93.8145 20.9646 93.8145 20.9646C87.0301 23.2607 80.4964 19.5493 78.2591 18.4253C77.4564 18.2076 77.0625 18.23 76.5673 18.7851L67.6074 27.9884C67.1741 28.474 66.9563 29.2767 67.442 29.7101C71.6156 35.9267 70.7158 42.1028 70.117 44.3102C70.1469 44.8354 69.8993 45.1129 69.4659 45.5986C66.0416 51.3914 59.2572 53.6875 57.0626 54.471C56.3517 54.709 55.8564 55.2641 56.1638 56.0369L56.2322 68.8096C56.0145 69.6123 56.7777 70.2933 57.3028 70.2634C64.7448 71.4204 68.1254 76.4308 68.9409 78.0309C69.2184 78.2785 69.1789 78.7418 69.4565 78.9894C71.2273 85.8038 68.4105 93.011 66.9471 95.07C66.7912 95.8034 66.7517 96.2666 67.3068 96.7619L76.572 105.652C77.0577 106.086 77.8604 106.303 78.2937 105.818C84.758 101.367 91.6353 103.017 93.6346 103.43C93.9121 103.678 94.4373 103.648 94.4373 103.648C100.478 106.794 102.982 113.765 103.795 116.484C104.033 117.195 104.588 117.69 105.361 117.383L118.134 117.315C118.937 117.532 119.618 116.769 119.588 116.244C120.745 108.802 126.466 105.183 128.561 103.813C129.272 103.575 129.52 103.297 130.293 102.99C136.582 101.249 142.593 103.87 144.899 105.056C145.633 105.212 146.096 105.252 146.591 104.697L155.482 95.4314C155.722 95.0226 155.94 94.2199 155.384 93.7246ZM96.7801 77.6977C88.2312 69.8202 87.5383 56.4904 95.4777 47.872C103.355 39.323 116.685 38.6302 125.303 46.5696C133.922 54.509 134.545 67.7769 126.606 76.3953C118.798 85.0062 105.46 85.5677 96.7801 77.6977Z" fill="white" fill-opacity="0.4"/>
<path d="M1397.23 40.0488C1396.09 38.1197 1394.43 37.6389 1393.66 37.4319C1393.41 37.4034 1393.18 37.3696 1393.06 37.4079C1390.93 37.6672 1389.39 39.2451 1388.8 39.9184C1388.64 40.084 1388.42 40.1719 1388.24 39.9942L1384.53 38.3619C1384.28 38.3335 1384.18 38.0177 1384.2 37.7688C1384.99 34.9491 1382.86 32.5358 1382.86 32.5358C1381.29 30.9928 1379.28 31.5623 1378.47 31.6096C1378.25 31.6809 1378.09 31.5144 1378.02 31.2984L1376.49 27.5256C1376.42 27.3096 1376.46 27.0773 1376.67 27.006C1379.2 25.5638 1379.42 23.1519 1379.42 23.1519C1379.47 20.9222 1377.68 19.4505 1377.16 18.9232C1376.99 18.7567 1376.9 18.5462 1376.99 18.4081L1378.49 14.6333C1378.51 14.3844 1378.83 14.2802 1379.08 14.3086C1381.98 14.937 1383.83 12.9062 1383.83 12.9062C1385.34 11.2286 1385.11 8.85408 1385.07 8.05715C1385.1 7.80823 1385.16 7.67563 1385.38 7.60434L1389.2 6.17708C1389.42 6.10579 1389.65 6.13969 1389.72 6.3557C1390.99 8.36812 1392.91 8.86077 1393.64 8.9681C1393.77 9.0349 1393.89 8.99651 1394.09 8.93071C1396.22 8.67145 1397.72 6.9772 1398.25 6.4531C1398.41 6.2876 1398.62 6.19969 1398.81 6.37732L1402.52 8.00968C1402.77 8.03809 1402.87 8.3538 1402.81 8.4864C1402.2 10.7865 1403.22 12.4219 1403.61 12.8657C1403.64 12.9654 1403.78 13.0488 1403.83 13.143C1405.57 14.5205 1408.05 14.6054 1408.81 14.4472C1409.06 14.4756 1409.19 14.5424 1409.26 14.7584L1410.69 18.5807C1410.76 18.7967 1410.73 19.029 1410.51 19.1003C1408.4 20.4054 1408.01 22.6342 1407.87 23.2701C1407.9 23.3698 1407.84 23.519 1407.84 23.519C1408 25.6775 1409.72 27.3039 1410.38 27.8759C1410.55 28.0424 1410.64 28.2529 1410.46 28.4405L1408.83 32.1485C1408.8 32.3974 1408.48 32.5016 1408.35 32.4348C1406.05 31.8304 1404.26 33.0313 1403.6 33.4886C1403.41 33.6596 1403.32 33.7091 1403.15 33.8746C1401.84 35.4864 1401.87 37.5781 1401.91 38.375C1401.88 38.624 1401.81 38.7566 1401.6 38.8279L1397.78 40.2551C1397.55 40.2932 1397.29 40.2481 1397.23 40.0488ZM1399.96 20.9612C1398.75 17.4716 1394.94 15.5955 1391.46 16.8024C1387.97 18.0093 1386.09 21.8162 1387.3 25.3058C1388.5 28.7955 1392.31 30.6716 1395.8 29.4647C1399.31 28.2689 1401.17 24.4508 1399.96 20.9612Z" fill="white"/>
<path d="M1445.49 93.7246C1449.63 88.0332 1448.89 82.5904 1448.56 80.1354C1448.35 79.3327 1448.12 78.6613 1447.87 78.3837C1444.45 72.5909 1437.94 70.0472 1435.22 69.2338C1434.51 68.9958 1434.02 68.4407 1434.32 67.6679L1434.39 54.8952C1434.18 54.0925 1434.94 53.4115 1435.67 53.2557C1444.84 51.9332 1449.17 42.8282 1449.17 42.8282C1451.72 36.3212 1447.53 31.2094 1446.41 28.972C1445.97 28.4864 1446.21 27.7755 1446.77 27.2802L1455.71 18.1741C1456.2 17.7408 1457 17.523 1457.44 18.0087C1464.83 23.5006 1472.01 21.0776 1472.01 21.0776C1478.49 18.4166 1480.54 11.3546 1481.38 9.22934C1481.62 8.51845 1482.17 8.02317 1482.7 8.05306L1495.43 7.65818C1496.23 7.44044 1496.92 8.20364 1497.07 8.93696C1498.92 18.1306 1507.06 20.9646 1507.06 20.9646C1513.84 23.2607 1520.37 19.5493 1522.61 18.4253C1523.41 18.2076 1523.81 18.23 1524.3 18.7851L1533.26 27.9884C1533.7 28.474 1533.91 29.2767 1533.43 29.7101C1529.26 35.9267 1530.16 42.1028 1530.75 44.3102C1530.72 44.8354 1530.97 45.1129 1531.4 45.5986C1534.83 51.3914 1541.61 53.6875 1543.81 54.471C1544.52 54.709 1545.01 55.2641 1544.71 56.0369L1544.64 68.8096C1544.86 69.6123 1544.09 70.2933 1543.57 70.2634C1536.13 71.4204 1532.75 76.4308 1531.93 78.0309C1531.65 78.2785 1531.69 78.7418 1531.41 78.9894C1529.64 85.8038 1532.46 93.011 1533.92 95.07C1534.08 95.8034 1534.12 96.2666 1533.56 96.7619L1524.3 105.652C1523.81 106.086 1523.01 106.303 1522.58 105.818C1516.11 101.367 1509.24 103.017 1507.24 103.43C1506.96 103.678 1506.43 103.648 1506.43 103.648C1500.39 106.794 1497.89 113.765 1497.08 116.484C1496.84 117.195 1496.28 117.69 1495.51 117.383L1482.74 117.315C1481.93 117.532 1481.25 116.769 1481.28 116.244C1480.13 108.802 1474.4 105.183 1472.31 103.813C1471.6 103.575 1471.35 103.297 1470.58 102.99C1464.29 101.249 1458.28 103.87 1455.97 105.056C1455.24 105.212 1454.77 105.252 1454.28 104.697L1445.39 95.4314C1445.15 95.0226 1444.93 94.2199 1445.49 93.7246ZM1504.09 77.6977C1512.64 69.8202 1513.33 56.4904 1505.39 47.872C1497.52 39.323 1484.19 38.6302 1475.57 46.5696C1466.95 54.509 1466.33 67.7769 1474.27 76.3953C1482.07 85.0062 1495.41 85.5677 1504.09 77.6977Z" fill="white" fill-opacity="0.4"/>
<path d="M256.157 47.8276C256.583 47.1026 257.215 46.9251 257.5 46.8434C257.598 46.8291 257.682 46.8218 257.724 46.8357C258.522 46.9352 259.111 47.5272 259.329 47.7865C259.389 47.8531 259.474 47.881 259.544 47.8105L260.94 47.195C261.038 47.1807 261.077 47.0646 261.059 46.9769C260.768 45.9097 261.559 45.0009 261.559 45.0009C262.151 44.4125 262.91 44.628 263.209 44.6447C263.283 44.6691 263.349 44.6091 263.377 44.5247L263.949 43.1107C263.974 43.0369 263.959 42.9385 263.885 42.9142C262.932 42.3654 262.855 41.4628 262.855 41.4628C262.839 40.6267 263.515 40.0661 263.708 39.8723C263.774 39.8123 263.802 39.7279 263.774 39.6718L263.211 38.2577C263.197 38.1593 263.081 38.121 262.993 38.1389C261.897 38.374 261.2 37.6173 261.2 37.6173C260.625 36.9831 260.721 36.0904 260.737 35.7918C260.723 35.6934 260.702 35.6513 260.617 35.6235L259.182 35.0797C259.109 35.0553 259.01 35.0697 258.986 35.1435C258.503 35.8968 257.784 36.0922 257.513 36.1316C257.457 36.1599 257.415 36.146 257.341 36.1216C256.543 36.0221 255.969 35.3879 255.778 35.1847C255.718 35.1182 255.634 35.0903 255.564 35.1608L254.168 35.7763C254.069 35.7906 254.031 35.9066 254.059 35.9628C254.287 36.8334 253.899 37.4423 253.762 37.6078C253.748 37.65 253.695 37.6678 253.682 37.71C253.019 38.2284 252.095 38.2628 251.8 38.2004C251.712 38.2182 251.659 38.236 251.632 38.3204L251.098 39.7589C251.074 39.8327 251.088 39.931 251.162 39.9554C251.958 40.4519 252.104 41.2841 252.154 41.5228C252.14 41.565 252.168 41.6212 252.168 41.6212C252.111 42.4329 251.467 43.0391 251.207 43.2577C251.141 43.3176 251.113 43.402 251.183 43.4721L251.799 44.8685C251.813 44.9668 251.929 45.0051 251.985 44.9768C252.856 44.7494 253.525 45.2041 253.775 45.3685C253.835 45.4351 253.877 45.449 253.947 45.519C254.437 46.1254 254.436 46.9088 254.416 47.218C254.434 47.3058 254.452 47.3585 254.536 47.3863L255.975 47.9195C256.031 47.9264 256.129 47.912 256.157 47.8276ZM255.124 40.6427C255.58 39.3309 257.008 38.6205 258.33 39.0803C259.642 39.5366 260.352 40.9644 259.892 42.2867C259.433 43.609 258.008 44.3089 256.686 43.8491C255.371 43.4033 254.674 41.9685 255.124 40.6427Z" fill="#FF4E33"/>
<path d="M1344.71 47.8276C1344.29 47.1026 1343.66 46.9251 1343.37 46.8434C1343.27 46.8291 1343.19 46.8218 1343.15 46.8357C1342.35 46.9352 1341.76 47.5272 1341.54 47.7865C1341.48 47.8531 1341.4 47.881 1341.33 47.8105L1339.93 47.195C1339.83 47.1807 1339.79 47.0646 1339.81 46.9769C1340.1 45.9097 1339.31 45.0009 1339.31 45.0009C1338.72 44.4125 1337.96 44.628 1337.66 44.6447C1337.59 44.6691 1337.52 44.6091 1337.49 44.5247L1336.92 43.1107C1336.9 43.0369 1336.91 42.9385 1336.99 42.9142C1337.94 42.3654 1338.02 41.4628 1338.02 41.4628C1338.03 40.6267 1337.36 40.0661 1337.16 39.8723C1337.1 39.8123 1337.07 39.7279 1337.1 39.6718L1337.66 38.2577C1337.67 38.1593 1337.79 38.121 1337.88 38.1389C1338.97 38.374 1339.67 37.6173 1339.67 37.6173C1340.25 36.9831 1340.15 36.0904 1340.13 35.7918C1340.15 35.6934 1340.17 35.6513 1340.25 35.6235L1341.69 35.0797C1341.76 35.0553 1341.86 35.0697 1341.89 35.1435C1342.37 35.8968 1343.09 36.0922 1343.36 36.1316C1343.41 36.1599 1343.46 36.146 1343.53 36.1216C1344.33 36.0221 1344.9 35.3879 1345.09 35.1847C1345.15 35.1182 1345.24 35.0903 1345.31 35.1608L1346.7 35.7763C1346.8 35.7906 1346.84 35.9066 1346.81 35.9628C1346.58 36.8334 1346.97 37.4423 1347.11 37.6078C1347.12 37.65 1347.18 37.6678 1347.19 37.71C1347.85 38.2284 1348.78 38.2628 1349.07 38.2004C1349.16 38.2182 1349.21 38.236 1349.24 38.3204L1349.77 39.7589C1349.8 39.8327 1349.78 39.931 1349.71 39.9554C1348.91 40.4519 1348.77 41.2841 1348.72 41.5228C1348.73 41.565 1348.7 41.6212 1348.7 41.6212C1348.76 42.4329 1349.4 43.0391 1349.66 43.2577C1349.73 43.3176 1349.76 43.402 1349.69 43.4721L1349.07 44.8685C1349.06 44.9668 1348.94 45.0051 1348.89 44.9768C1348.02 44.7494 1347.35 45.2041 1347.1 45.3685C1347.04 45.4351 1346.99 45.449 1346.92 45.519C1346.43 46.1254 1346.43 46.9088 1346.46 47.218C1346.44 47.3058 1346.42 47.3585 1346.34 47.3863L1344.9 47.9195C1344.84 47.9264 1344.74 47.912 1344.71 47.8276ZM1345.75 40.6427C1345.29 39.3309 1343.86 38.6205 1342.54 39.0803C1341.23 39.5366 1340.52 40.9644 1340.98 42.2867C1341.44 43.609 1342.86 44.3089 1344.19 43.8491C1345.5 43.4033 1346.2 41.9685 1345.75 40.6427Z" fill="#FF4E33"/>
</g>
<defs>
<linearGradient id="paint0_linear_1330_1803" x1="1600" y1="31.3298" x2="30" y2="31.3304" gradientUnits="userSpaceOnUse">
<stop stop-color="#131414"/>
<stop offset="1" stop-color="#020202"/>
</linearGradient>
<linearGradient id="paint1_linear_1330_1803" x1="1600" y1="0.401102" x2="-3.6325" y2="58.6065" gradientUnits="userSpaceOnUse">
<stop stop-color="#9EE4D4"/>
<stop offset="1" stop-color="#6EC7B3"/>
</linearGradient>
</defs>
</svg>
