<svg width="400" height="118" viewBox="0 0 400 118" fill="none" xmlns="http://www.w3.org/2000/svg">
<mask id="mask0_1332_2633" style="mask-type:alpha" maskUnits="userSpaceOnUse" x="0" y="0" width="400" height="118">
<path d="M400 0H0V118H400V0Z" fill="url(#paint0_linear_1332_2633)"/>
</mask>
<g mask="url(#mask0_1332_2633)">
<path d="M400 0H0V118H400V0Z" fill="url(#paint1_linear_1332_2633)"/>
<path d="M25.5441 39.3522C23.9833 37.5062 24.0902 35.6323 24.154 34.7748C24.2141 34.5109 24.2626 34.262 24.3433 34.1571C25.3678 32.083 27.5281 31.0745 28.425 30.7153C28.6532 30.6048 28.8181 30.4216 28.7041 30.1668L28.3662 25.8032C28.4263 25.5392 28.1417 25.3201 27.8778 25.2601C24.7234 25.05 23.0225 22.0226 23.0225 22.0226C22.014 19.8623 23.3114 18.0223 23.6507 17.2099C23.8006 17.0152 23.6901 16.7869 23.4953 16.637L20.1936 13.7368C19.9988 13.5869 19.7499 13.5384 19.6 13.7331C17.2259 15.7938 14.6895 15.153 14.6895 15.153C12.3963 14.4131 11.5376 12.0581 11.1876 11.3353C11.0771 11.107 10.8939 10.9421 10.7233 10.9777L6.33899 11.1566C6.07508 11.0965 5.85597 11.3811 5.79591 11.645C5.40023 14.8235 2.66701 15.9874 2.66701 15.9874C0.416811 16.9268 -1.92117 15.8423 -2.71857 15.5146C-2.98247 15.4546 -3.14153 15.4753 -3.29145 15.67L-6.11332 19.0559C-6.26325 19.2506 -6.31177 19.4996 -6.11706 19.6495C-4.52061 21.666 -4.70256 23.7924 -4.85623 24.5806C-4.83556 24.7397 -4.91628 24.8445 -5.05467 25.0243C-6.07911 27.0983 -8.34429 28.0262 -9.0671 28.3762C-9.29535 28.4868 -9.46025 28.67 -9.34627 28.9247L-9.00835 33.2884C-9.06841 33.5523 -8.78384 33.7714 -8.62478 33.7507C-6.06394 33.9571 -4.76119 35.5805 -4.44681 36.1327C-4.35695 36.2019 -4.3213 36.3725 -4.24297 36.4567C-3.46263 38.7275 -4.26255 41.2846 -4.69509 42.0013C-4.75515 42.2652 -4.73448 42.4243 -4.53978 42.5742L-1.15381 45.3961C-0.959105 45.546 -0.710181 45.5945 -0.560258 45.3998C1.52548 43.7135 3.9364 44.1146 4.6348 44.199C4.72466 44.2682 4.8987 44.2591 4.8987 44.2591C7.04197 45.1937 8.08622 47.5246 8.4304 48.4099C8.54094 48.6381 8.72411 48.8031 8.97887 48.6891L13.3425 48.3511C13.6064 48.4112 13.8256 48.1266 13.8049 47.9676C14.0113 45.4067 15.8779 44.005 16.58 43.4959C16.8198 43.3704 16.904 43.292 17.1322 43.1815C19.244 42.4218 21.3666 43.1974 22.164 43.5251C22.4279 43.5851 22.587 43.5644 22.7369 43.3697L25.5588 39.9838C25.6788 39.766 25.7239 39.4906 25.5441 39.3522ZM5.11041 35.3086C1.98476 32.8303 1.43371 28.2787 3.912 25.153C6.39029 22.0274 10.9419 21.4763 14.0676 23.9546C17.1932 26.4329 17.7443 30.9845 15.266 34.1102C12.7911 37.2623 8.23607 37.7869 5.11041 35.3086Z" fill="white"/>
<path d="M374.463 39.3522C376.024 37.5062 375.917 35.6323 375.853 34.7748C375.793 34.5109 375.745 34.262 375.664 34.1571C374.64 32.083 372.479 31.0745 371.582 30.7153C371.354 30.6048 371.189 30.4216 371.303 30.1668L371.641 25.8032C371.581 25.5392 371.866 25.3201 372.13 25.2601C375.284 25.05 376.985 22.0226 376.985 22.0226C377.993 19.8623 376.696 18.0223 376.357 17.2099C376.207 17.0152 376.317 16.7869 376.512 16.637L379.814 13.7368C380.008 13.5869 380.257 13.5384 380.407 13.7331C382.781 15.7938 385.318 15.153 385.318 15.153C387.611 14.4131 388.47 12.0581 388.82 11.3353C388.93 11.107 389.113 10.9421 389.284 10.9777L393.668 11.1566C393.932 11.0965 394.151 11.3811 394.211 11.645C394.607 14.8235 397.34 15.9874 397.34 15.9874C399.591 16.9268 401.928 15.8423 402.726 15.5146C402.99 15.4546 403.149 15.4753 403.299 15.67L406.121 19.0559C406.271 19.2506 406.319 19.4996 406.124 19.6495C404.528 21.666 404.71 23.7924 404.864 24.5806C404.843 24.7397 404.924 24.8445 405.062 25.0243C406.086 27.0983 408.352 28.0262 409.074 28.3762C409.303 28.4868 409.468 28.67 409.354 28.9247L409.016 33.2884C409.076 33.5523 408.791 33.7714 408.632 33.7507C406.071 33.9571 404.769 35.5805 404.454 36.1327C404.364 36.2019 404.329 36.3725 404.25 36.4567C403.47 38.7275 404.27 41.2846 404.702 42.0013C404.762 42.2652 404.742 42.4243 404.547 42.5742L401.161 45.3961C400.966 45.546 400.718 45.5945 400.568 45.3998C398.482 43.7135 396.071 44.1146 395.373 44.199C395.283 44.2682 395.109 44.2591 395.109 44.2591C392.965 45.1937 391.921 47.5246 391.577 48.4099C391.466 48.6381 391.283 48.8031 391.028 48.6891L386.665 48.3511C386.401 48.4112 386.182 48.1266 386.202 47.9676C385.996 45.4067 384.129 44.005 383.427 43.4959C383.188 43.3704 383.103 43.292 382.875 43.1815C380.763 42.4218 378.641 43.1974 377.843 43.5251C377.579 43.5851 377.42 43.5644 377.27 43.3697L374.449 39.9838C374.329 39.766 374.283 39.4906 374.463 39.3522ZM394.897 35.3086C398.023 32.8303 398.574 28.2787 396.095 25.153C393.617 22.0274 389.065 21.4763 385.94 23.9546C382.814 26.4329 382.263 30.9845 384.741 34.1102C387.216 37.2623 391.771 37.7869 394.897 35.3086Z" fill="white"/>
<path d="M71.9923 83.0642C65.8481 84.9105 61.3923 82.6288 59.3781 81.6119C58.7535 81.1825 58.2441 80.7863 58.0802 80.4896C54.1319 75.7975 53.9075 69.4348 54.0286 66.8506C54.0383 66.1675 53.7104 65.5742 52.9532 65.6054L41.9492 61.811C41.3246 61.3816 40.5088 61.8324 40.1536 62.416C36.2519 69.897 27.1137 70.8806 27.1137 70.8806C20.751 71.1049 17.6185 65.962 16.0337 64.3205C15.7468 63.8014 15.0637 63.7916 14.4703 64.1195L3.9405 69.067C3.42132 69.3539 2.99192 69.9785 3.27883 70.4976C5.77109 78.5116 1.52007 83.9589 1.52007 83.9589C-2.72118 88.7231 -9.41181 88.3541 -11.4943 88.4399C-12.1775 88.4302 -12.7708 88.7581 -12.9035 89.2187L-17.0844 100.049C-17.5138 100.673 -17.0629 101.489 -16.4794 101.845C-9.13105 106.207 -9.14874 114.059 -9.14874 114.059C-9.22106 120.585 -14.3835 125.084 -16.025 126.669C-16.4544 127.294 -16.5539 127.639 -16.2261 128.232L-11.015 138.713C-10.7281 139.233 -10.1036 139.662 -9.58439 139.375C-2.9796 137.662 2.0598 140.298 3.77733 141.479C4.23794 141.612 4.40188 141.909 4.68879 142.428C8.63712 147.12 8.5648 153.647 8.57648 155.77C8.5667 156.453 8.89459 157.047 9.65188 157.015L20.6558 160.81C21.2804 161.239 22.0962 160.788 22.229 160.328C25.469 154.277 30.7973 152.882 32.4192 152.663C32.7159 152.499 33.1024 152.673 33.399 152.509C39.793 153.042 45.1407 157.639 46.4698 159.518C47.0534 159.873 47.4399 160.047 48.0332 159.719L58.4733 154.434C58.9924 154.147 59.4218 153.523 59.1349 153.003C57.2574 146.102 60.7512 140.686 61.7095 139.091C62.0062 138.927 62.1389 138.467 62.1389 138.467C66.6671 134.222 73.4163 134.171 76.0004 134.292C76.6835 134.302 77.2769 133.974 77.2456 133.217L81.04 122.213C81.4694 121.588 81.0186 120.772 80.558 120.64C74.5076 117.4 73.1219 111.388 72.5755 109.173C72.5852 108.49 72.4213 108.193 72.3901 107.436C72.7903 101.502 76.8578 97.1248 78.5734 95.499C78.9287 94.9154 79.1024 94.529 78.7745 93.9356L73.4893 83.4956C73.2102 83.1657 72.5856 82.7363 71.9923 83.0642ZM40.5311 128.624C31.1782 133.599 19.5068 130.173 14.4909 120.746C9.51599 111.393 12.9415 99.7215 22.3686 94.7056C31.7957 89.6898 43.393 93.1563 48.4089 102.583C53.4579 111.895 49.9172 123.534 40.5311 128.624Z" fill="white" fill-opacity="0.4"/>
<path d="M328.015 83.0642C334.159 84.9105 338.615 82.6288 340.629 81.6119C341.253 81.1825 341.763 80.7863 341.927 80.4896C345.875 75.7975 346.099 69.4348 345.978 66.8506C345.969 66.1675 346.296 65.5742 347.054 65.6054L358.058 61.811C358.682 61.3816 359.498 61.8324 359.853 62.416C363.755 69.897 372.893 70.8806 372.893 70.8806C379.256 71.1049 382.388 65.962 383.973 64.3205C384.26 63.8014 384.943 63.7916 385.537 64.1195L396.066 69.067C396.586 69.3539 397.015 69.9785 396.728 70.4976C394.236 78.5116 398.487 83.9589 398.487 83.9589C402.728 88.7231 409.419 88.3541 411.501 88.4399C412.184 88.4302 412.778 88.7581 412.91 89.2187L417.091 100.049C417.521 100.673 417.07 101.489 416.486 101.845C409.138 106.207 409.156 114.059 409.156 114.059C409.228 120.585 414.39 125.084 416.032 126.669C416.461 127.294 416.561 127.639 416.233 128.232L411.022 138.713C410.735 139.233 410.11 139.662 409.591 139.375C402.986 137.662 397.947 140.298 396.23 141.479C395.769 141.612 395.605 141.909 395.318 142.428C391.37 147.12 391.442 153.647 391.43 155.77C391.44 156.453 391.112 157.047 390.355 157.015L379.351 160.81C378.726 161.239 377.911 160.788 377.778 160.328C374.538 154.277 369.21 152.882 367.588 152.663C367.291 152.499 366.904 152.673 366.608 152.509C360.214 153.042 354.866 157.639 353.537 159.518C352.953 159.873 352.567 160.047 351.974 159.719L341.534 154.434C341.014 154.147 340.585 153.523 340.872 153.003C342.749 146.102 339.256 140.686 338.297 139.091C338.001 138.927 337.868 138.467 337.868 138.467C333.34 134.222 326.591 134.171 324.006 134.292C323.323 134.302 322.73 133.974 322.761 133.217L318.967 122.213C318.537 121.588 318.988 120.772 319.449 120.64C325.499 117.4 326.885 111.388 327.431 109.173C327.422 108.49 327.586 108.193 327.617 107.436C327.217 101.502 323.149 97.1248 321.433 95.499C321.078 94.9154 320.904 94.529 321.232 93.9356L326.518 83.4956C326.797 83.1657 327.421 82.7363 328.015 83.0642ZM359.476 128.624C368.829 133.599 380.5 130.173 385.516 120.746C390.491 111.393 387.065 99.7215 377.638 94.7056C368.211 89.6898 356.614 93.1563 351.598 102.583C346.549 111.895 350.09 123.534 359.476 128.624Z" fill="white" fill-opacity="0.4"/>
<path d="M73.1055 72.3403C72.6619 71.8154 72.6959 71.2802 72.7098 71.0389C72.7253 70.9593 72.7425 70.8923 72.7647 70.8635C73.0572 70.2754 73.6727 69.9818 73.9318 69.8834C73.9993 69.8552 74.0436 69.7977 74.0083 69.7246L73.9114 68.4815C73.927 68.4018 73.8479 68.3409 73.7754 68.3309C72.8738 68.2669 72.3872 67.411 72.3872 67.411C72.0936 66.7955 72.4653 66.2682 72.5589 66.0424C72.5977 65.9921 72.5695 65.9246 72.5119 65.8803L71.5765 65.0569C71.5261 65.0181 71.4464 65.0026 71.4077 65.0529C70.7267 65.6398 70.01 65.4546 70.01 65.4546C69.361 65.2412 69.1117 64.5681 69.0144 64.3672C68.9862 64.2996 68.9286 64.2553 68.8777 64.2619L67.6352 64.3134C67.5555 64.2978 67.4946 64.377 67.4846 64.4495C67.3696 65.3576 66.5974 65.6909 66.5974 65.6909C65.9531 65.9624 65.2908 65.6472 65.065 65.5535C64.9853 65.538 64.9472 65.5429 64.9029 65.6005L64.0955 66.5598C64.0567 66.6101 64.0412 66.6898 64.0915 66.7286C64.5418 67.3043 64.4977 67.912 64.455 68.1311C64.4616 68.1821 64.4395 68.2108 64.4007 68.2612C64.1082 68.8493 63.4639 69.1208 63.2558 69.2125C63.1882 69.2407 63.1439 69.2983 63.1793 69.3713L63.2761 70.6144C63.2606 70.6941 63.3397 70.755 63.3906 70.7484C64.1233 70.8085 64.4878 71.2725 64.5785 71.4225C64.6073 71.4446 64.6067 71.49 64.6355 71.5122C64.856 72.1631 64.6326 72.8847 64.5047 73.0955C64.4947 73.168 64.4941 73.2134 64.5517 73.2577L65.5165 74.0578C65.5668 74.0966 65.6465 74.1121 65.6853 74.0618C66.2832 73.5828 66.9644 73.6949 67.162 73.721C67.1908 73.7432 67.2417 73.7366 67.2417 73.7366C67.852 74.0003 68.145 74.6612 68.2434 74.9203C68.2716 74.9878 68.3291 75.0321 68.4022 74.9967L69.6453 74.8999C69.7249 74.9155 69.7859 74.8363 69.7792 74.7854C69.8394 74.0527 70.3709 73.66 70.5652 73.5118C70.6327 73.4836 70.6549 73.4548 70.7279 73.4194C71.328 73.2056 71.9317 73.4184 72.1646 73.5175C72.2371 73.5275 72.2825 73.5281 72.3268 73.4706L73.127 72.5058C73.1475 72.4643 73.163 72.3846 73.1055 72.3403ZM67.2866 71.1935C66.3987 70.4869 66.2371 69.194 66.9493 68.2989C67.6559 67.411 68.9488 67.2494 69.8439 67.9616C70.739 68.6737 70.8934 69.9611 70.1812 70.8562C69.4818 71.7497 68.1873 71.8985 67.2866 71.1935Z" fill="#FF4E33"/>
<path d="M326.901 72.3403C327.345 71.8154 327.311 71.2802 327.297 71.0389C327.281 70.9593 327.264 70.8923 327.242 70.8635C326.95 70.2754 326.334 69.9818 326.075 69.8834C326.008 69.8552 325.963 69.7977 325.999 69.7246L326.095 68.4815C326.08 68.4018 326.159 68.3409 326.231 68.3309C327.133 68.2669 327.62 67.411 327.62 67.411C327.913 66.7955 327.542 66.2682 327.448 66.0424C327.409 65.9921 327.437 65.9246 327.495 65.8803L328.43 65.0569C328.481 65.0181 328.56 65.0026 328.599 65.0529C329.28 65.6398 329.997 65.4546 329.997 65.4546C330.646 65.2412 330.895 64.5681 330.992 64.3672C331.021 64.2996 331.078 64.2553 331.129 64.2619L332.372 64.3134C332.451 64.2978 332.512 64.377 332.522 64.4495C332.637 65.3576 333.409 65.6909 333.409 65.6909C334.054 65.9624 334.716 65.6472 334.942 65.5535C335.021 65.538 335.06 65.5429 335.104 65.6005L335.911 66.5598C335.95 66.6101 335.966 66.6898 335.915 66.7286C335.465 67.3043 335.509 67.912 335.552 68.1311C335.545 68.1821 335.567 68.2108 335.606 68.2612C335.899 68.8493 336.543 69.1208 336.751 69.2125C336.819 69.2407 336.863 69.2983 336.828 69.3713L336.731 70.6144C336.746 70.6941 336.667 70.755 336.616 70.7484C335.883 70.8085 335.519 71.2725 335.428 71.4225C335.4 71.4446 335.4 71.49 335.371 71.5122C335.151 72.1631 335.374 72.8847 335.502 73.0955C335.512 73.168 335.513 73.2134 335.455 73.2577L334.49 74.0578C334.44 74.0966 334.36 74.1121 334.322 74.0618C333.724 73.5828 333.042 73.6949 332.845 73.721C332.816 73.7432 332.765 73.7366 332.765 73.7366C332.155 74.0003 331.862 74.6612 331.763 74.9203C331.735 74.9878 331.678 75.0321 331.605 74.9967L330.362 74.8999C330.282 74.9155 330.221 74.8363 330.228 74.7854C330.167 74.0527 329.636 73.66 329.442 73.5118C329.374 73.4836 329.352 73.4548 329.279 73.4194C328.679 73.2056 328.075 73.4184 327.842 73.5175C327.77 73.5275 327.724 73.5281 327.68 73.4706L326.88 72.5058C326.859 72.4643 326.844 72.3846 326.901 72.3403ZM332.72 71.1935C333.608 70.4869 333.77 69.194 333.058 68.2989C332.351 67.411 331.058 67.2494 330.163 67.9616C329.268 68.6737 329.113 69.9611 329.826 70.8562C330.525 71.7497 331.82 71.8985 332.72 71.1935Z" fill="#FF4E33"/>
</g>
<defs>
<linearGradient id="paint0_linear_1332_2633" x1="400" y1="58.9993" x2="7.50001" y2="58.9993" gradientUnits="userSpaceOnUse">
<stop stop-color="#131414"/>
<stop offset="1" stop-color="#020202"/>
</linearGradient>
<linearGradient id="paint1_linear_1332_2633" x1="400" y1="-0.00236916" x2="-1.4272" y2="1.90706" gradientUnits="userSpaceOnUse">
<stop stop-color="#9EE4D4"/>
<stop offset="1" stop-color="#6EC7B3"/>
</linearGradient>
</defs>
</svg>
