<svg width="4010" height="910" viewBox="0 0 4010 910" fill="none" xmlns="http://www.w3.org/2000/svg">
<path fill-rule="evenodd" clip-rule="evenodd" d="M0 0H4009V163H4010V300.181H2481.66C2465.83 300.181 2453 313.013 2453 328.842V361C2453 420.094 2405.09 468 2346 468H2322.29C2313.47 468 2304.98 466.63 2297 464.091V468H1958V468.038C1957.55 468.013 1957.11 468 1956.65 468C1943.68 468 1933.15 478.521 1933.15 491.5C1933.15 504.479 1943.68 515 1956.65 515C1957.11 515 1957.55 514.987 1958 514.962V515H1973.5C2016.85 515 2052 542.749 2052 583.131C2052 623.513 2016.85 649.128 1973.5 649.128H1305C1244.25 649.128 1195 698.376 1195 759.128V801.418C1195 860.834 1143.29 909 1079.5 909C1015.71 909 964 860.834 964 801.418V661.236V546H963.84C963.946 544.389 964 542.763 964 541.125C964 500.739 931.261 468 890.875 468C889.237 468 887.611 468.054 886 468.16V468H0V300.181V300V163V0Z" fill="url(#paint0_linear_759_2)"/>
<mask id="mask0_759_2" style="mask-type:alpha" maskUnits="userSpaceOnUse" x="0" y="0" width="4010" height="909">
<path fill-rule="evenodd" clip-rule="evenodd" d="M0 0H4009V163H4010V300.181H2481.66C2465.83 300.181 2453 313.013 2453 328.842V361C2453 420.094 2405.09 468 2346 468H2322.29C2313.47 468 2304.98 466.63 2297 464.091V468H1958V468.038C1957.55 468.013 1957.11 468 1956.65 468C1943.68 468 1933.15 478.521 1933.15 491.5C1933.15 504.479 1943.68 515 1956.65 515C1957.11 515 1957.55 514.987 1958 514.962V515H1973.5C2016.85 515 2052 542.749 2052 583.131C2052 623.513 2016.85 649.128 1973.5 649.128H1305C1244.25 649.128 1195 698.376 1195 759.128V801.418C1195 860.834 1143.29 909 1079.5 909C1015.71 909 964 860.834 964 801.418V661.236V546H963.84C963.946 544.389 964 542.763 964 541.125C964 500.739 931.261 468 890.875 468C889.237 468 887.611 468.054 886 468.16V468H0V300.181V300V163V0Z" fill="url(#paint1_linear_759_2)"/>
</mask>
<g mask="url(#mask0_759_2)">
<g filter="url(#filter0_d_759_2)">
<circle cx="1168.5" cy="871.5" r="498.5" fill="#36768A" fill-opacity="0.8" shape-rendering="crispEdges"/>
</g>
</g>
<path d="M1561.3 296.589L1558.63 296.473L1557.21 294.204L1556.27 296.714L1553.68 297.358L1555.77 299.029L1555.59 301.691L1557.82 300.217L1560.3 301.218L1559.59 298.636L1561.3 296.589Z" fill="white"/>
<path d="M1867.93 243.801L1865.56 243.693L1864.3 241.683L1863.47 243.908L1861.16 244.489L1863.02 245.963L1862.86 248.34L1864.84 247.026L1867.04 247.911L1866.41 245.624L1867.93 243.801Z" fill="white"/>
<path d="M1562.36 217.461L1561.48 217.425L1561.02 216.674L1560.71 217.497L1559.85 217.711L1560.54 218.265L1560.48 219.141L1561.21 218.658L1562.04 218.989L1561.8 218.14L1562.36 217.461Z" fill="white"/>
<path d="M1973.81 242.855L1972.43 242.792L1971.71 241.63L1971.23 242.917L1969.89 243.248L1970.98 244.106L1970.88 245.473L1972.02 244.713L1973.29 245.222L1972.92 243.909L1973.81 242.855Z" fill="white"/>
<path d="M1696.03 279.495L1694.65 279.433L1693.93 278.271L1693.44 279.558L1692.11 279.888L1693.19 280.746L1693.1 282.113L1694.24 281.354L1695.51 281.863L1695.14 280.55L1696.03 279.495Z" fill="white"/>
<path d="M1520.12 147.176L1517.74 147.077L1516.48 145.058L1515.65 147.283L1513.35 147.864L1515.21 149.347L1515.05 151.715L1517.03 150.401L1519.23 151.286L1518.59 148.999L1520.12 147.176Z" fill="white"/>
<path d="M1627.03 267.489L1625.56 267.417L1624.77 266.167L1624.25 267.552L1622.81 267.918L1623.97 268.838L1623.87 270.313L1625.1 269.49L1626.48 270.044L1626.08 268.624L1627.03 267.489Z" fill="white"/>
<path d="M1003.33 277.076L1000.72 276.514L999.691 274.039L998.35 276.353L995.688 276.558L997.475 278.551L996.84 281.151L999.288 280.07L1001.57 281.473L1001.29 278.81L1003.33 277.076Z" fill="white"/>
<path d="M1175.79 212.689L1173.47 212.198L1172.57 210L1171.37 212.055L1169 212.233L1170.59 214.003L1170.03 216.317L1172.2 215.352L1174.23 216.594L1173.99 214.235L1175.79 212.689Z" fill="white"/>
<path d="M1017.65 199.24L1016.79 199.061L1016.45 198.239L1016.01 199.008L1015.13 199.07L1015.71 199.731L1015.51 200.589L1016.31 200.232L1017.06 200.688L1016.97 199.812L1017.65 199.24Z" fill="white"/>
<path d="M1419.01 293.282L1417.67 292.996L1417.14 291.728L1416.45 292.916L1415.09 293.023L1416.01 294.042L1415.68 295.373L1416.94 294.819L1418.11 295.543L1417.96 294.176L1419.01 293.282Z" fill="white"/>
<path d="M1139.01 282.823L1137.67 282.537L1137.15 281.268L1136.47 282.456L1135.09 282.554L1136.01 283.582L1135.69 284.913L1136.94 284.359L1138.11 285.074L1137.97 283.707L1139.01 282.823Z" fill="white"/>
<path d="M987.791 122.869L985.468 122.368L984.565 120.17L983.368 122.225L981 122.413L982.59 124.182L982.028 126.488L984.199 125.531L986.227 126.773L985.986 124.406L987.791 122.869Z" fill="white"/>
<path d="M1073.01 259.409L1071.56 259.097L1071 257.73L1070.26 259.007L1068.78 259.124L1069.77 260.223L1069.42 261.661L1070.77 261.062L1072.03 261.84L1071.88 260.366L1073.01 259.409Z" fill="white"/>
<path d="M1769.11 130.958L1766.17 130.324L1765.03 127.554L1763.53 130.145L1760.54 130.378L1762.54 132.611L1761.83 135.533L1764.57 134.318L1767.13 135.891L1766.83 132.906L1769.11 130.958Z" fill="white"/>
<path d="M2360.79 106.689L2358.47 106.198L2357.57 104L2356.37 106.055L2354 106.233L2355.59 108.003L2355.03 110.317L2357.2 109.352L2359.23 110.594L2358.99 108.235L2360.79 106.689Z" fill="white"/>
<path d="M2396 249.455L2393.68 248.954L2392.78 246.765L2391.58 248.82L2389.21 248.999L2390.8 250.768L2390.24 253.082L2392.41 252.117L2394.44 253.359L2394.2 251L2396 249.455Z" fill="white"/>
<path d="M2124.14 157.485L2122.8 157.2L2122.27 155.931L2121.58 157.119L2120.21 157.226L2121.14 158.245L2120.81 159.576L2122.06 159.022L2123.23 159.746L2123.09 158.379L2124.14 157.485Z" fill="white"/>
<path d="M2291.98 229.845L2290.64 229.559L2290.12 228.29L2289.43 229.479L2288.06 229.586L2288.98 230.604L2288.65 231.936L2289.91 231.382L2291.08 232.105L2290.94 230.738L2291.98 229.845Z" fill="white"/>
<path d="M2133.83 270.052L2132.49 269.766L2131.97 268.497L2131.28 269.686L2129.91 269.793L2130.83 270.811L2130.5 272.143L2131.76 271.589L2132.93 272.313L2132.79 270.945L2133.83 270.052Z" fill="white"/>
<path d="M2270 322.127L2267.68 321.626L2266.78 319.428L2265.58 321.483L2263.21 321.671L2264.8 323.44L2264.24 325.745L2266.41 324.789L2268.44 326.031L2268.2 323.663L2270 322.127Z" fill="white"/>
<path d="M2237.67 167.448L2236.64 167.225L2236.24 166.242L2235.7 167.162L2234.64 167.242L2235.35 168.038L2235.1 169.074L2236.07 168.636L2236.98 169.199L2236.87 168.136L2237.67 167.448Z" fill="white"/>
<defs>
<filter id="filter0_d_759_2" x="630" y="353" width="1077" height="1077" filterUnits="userSpaceOnUse" color-interpolation-filters="sRGB">
<feFlood flood-opacity="0" result="BackgroundImageFix"/>
<feColorMatrix in="SourceAlpha" type="matrix" values="0 0 0 0 0 0 0 0 0 0 0 0 0 0 0 0 0 0 127 0" result="hardAlpha"/>
<feOffset dy="20"/>
<feGaussianBlur stdDeviation="20"/>
<feComposite in2="hardAlpha" operator="out"/>
<feColorMatrix type="matrix" values="0 0 0 0 0.211765 0 0 0 0 0.462745 0 0 0 0 0.541176 0 0 0 0.2 0"/>
<feBlend mode="normal" in2="BackgroundImageFix" result="effect1_dropShadow_759_2"/>
<feBlend mode="normal" in="SourceGraphic" in2="effect1_dropShadow_759_2" result="shape"/>
</filter>
<linearGradient id="paint0_linear_759_2" x1="1875.5" y1="-19" x2="911" y2="909" gradientUnits="userSpaceOnUse">
<stop stop-color="#00506E"/>
<stop offset="1" stop-color="#36768A"/>
</linearGradient>
<linearGradient id="paint1_linear_759_2" x1="1875.5" y1="-19" x2="911" y2="909" gradientUnits="userSpaceOnUse">
<stop stop-color="#00506E"/>
<stop offset="1" stop-color="#36768A"/>
</linearGradient>
</defs>
</svg>
