<svg width="1600" height="62" viewBox="0 0 1600 62" fill="none" xmlns="http://www.w3.org/2000/svg">
<mask id="mask0_90_299" style="mask-type:alpha" maskUnits="userSpaceOnUse" x="0" y="0" width="1600" height="62">
<path d="M1600 0H0V61.8557H1600V0Z" fill="url(#paint0_linear_90_299)"/>
</mask>
<g mask="url(#mask0_90_299)">
<path d="M0 0H1600V61.8557H0V0Z" fill="url(#paint1_linear_90_299)"/>
<mask id="mask1_90_299" style="mask-type:alpha" maskUnits="userSpaceOnUse" x="122" y="41" width="106" height="23">
<rect x="122" y="41.6592" width="106" height="22.0735" fill="#D9D9D9"/>
</mask>
<g mask="url(#mask1_90_299)">
<path fill-rule="evenodd" clip-rule="evenodd" d="M176.708 65.2079C174.03 66.4803 170.844 67.218 167.427 67.218C163.885 67.218 160.594 66.4255 157.856 65.0667C155.718 66.4076 152.954 67.2161 149.935 67.2161C147.754 67.2161 145.706 66.7941 143.931 66.0543C142.528 66.7886 140.816 67.22 138.969 67.22C136.746 67.22 134.719 66.5956 133.191 65.5704C132.09 66.5764 130.409 67.2192 128.526 67.2192C125.21 67.2192 122.521 65.2254 122.521 62.7658C122.521 60.3062 125.21 58.3124 128.526 58.3124C129.355 58.3124 130.144 58.4368 130.862 58.6618C132.031 56.2586 135.087 54.5245 138.704 54.4435C140.607 51.2464 144.92 49.0151 149.935 49.0151C150.554 49.0151 151.163 49.0492 151.758 49.1148C154.48 44.7149 160.472 41.6592 167.427 41.6592C174.357 41.6592 180.332 44.6932 183.068 49.068C183.505 49.0331 183.948 49.0151 184.398 49.0151C186.061 49.0151 187.646 49.2605 189.093 49.705C191.505 48.0743 194.714 47.08 198.235 47.08C204.469 47.08 209.722 50.1962 211.315 54.4429L211.434 54.4411L211.55 54.4406C215.282 54.4406 218.46 56.2003 219.657 58.662C220.375 58.4369 221.165 58.3124 221.994 58.3124C225.31 58.3124 227.999 60.3062 227.999 62.7658C227.999 65.2254 225.31 67.2192 221.994 67.2192C220.11 67.2192 218.429 66.5762 217.328 65.57C215.8 66.5954 213.773 67.22 211.55 67.22C209.308 67.22 207.266 66.5847 205.733 65.5437C203.585 66.6012 201.007 67.2172 198.235 67.2172C195.628 67.2172 193.193 66.6723 191.125 65.7278C189.193 66.6688 186.882 67.2161 184.398 67.2161C181.487 67.2161 178.812 66.4642 176.708 65.2079Z" fill="white"/>
</g>
<mask id="mask2_90_299" style="mask-type:alpha" maskUnits="userSpaceOnUse" x="1447" y="12" width="250" height="53">
<rect x="1447" y="12.5977" width="249.711" height="52" fill="#D9D9D9"/>
</mask>
<g mask="url(#mask2_90_299)">
<path fill-rule="evenodd" clip-rule="evenodd" d="M1575.88 68.0732C1569.57 71.0704 1562.07 72.8082 1554.02 72.8082C1545.67 72.8082 1537.92 70.9413 1531.47 67.74C1526.43 70.8991 1519.92 72.8038 1512.81 72.8038C1507.67 72.8038 1502.85 71.8098 1498.66 70.0669C1495.36 71.7965 1491.33 72.8125 1486.98 72.8125C1481.74 72.8125 1476.96 71.3416 1473.36 68.9265C1470.77 71.2961 1466.81 72.8103 1462.38 72.8103C1454.56 72.8103 1448.23 68.1133 1448.23 62.3191C1448.23 56.525 1454.56 51.8279 1462.38 51.8279C1464.33 51.8279 1466.19 52.1209 1467.88 52.6509C1470.63 46.9901 1477.83 42.9052 1486.35 42.7143C1490.83 35.1829 1500.99 29.9266 1512.81 29.9266C1514.27 29.9266 1515.7 30.0068 1517.1 30.1616C1523.52 19.7963 1537.63 12.5977 1554.02 12.5977C1570.34 12.5977 1584.42 19.7452 1590.86 30.0511C1591.89 29.9688 1592.94 29.9266 1593.99 29.9266C1597.91 29.9266 1601.65 30.5045 1605.05 31.5516C1610.74 27.7096 1618.3 25.3669 1626.59 25.3669C1641.28 25.3669 1653.65 32.7083 1657.41 42.7127C1657.59 42.7091 1657.77 42.7073 1657.96 42.7073C1666.75 42.7073 1674.24 46.8528 1677.06 52.6519C1678.75 52.1213 1680.61 51.8279 1682.56 51.8279C1690.38 51.8279 1696.71 56.525 1696.71 62.3191C1696.71 68.1133 1690.38 72.8103 1682.56 72.8103C1678.13 72.8103 1674.17 71.2954 1671.57 68.925C1667.97 71.341 1663.2 72.8125 1657.96 72.8125C1652.68 72.8125 1647.87 71.316 1644.26 68.8635C1639.19 71.3545 1633.12 72.8055 1626.59 72.8055C1620.45 72.8055 1614.72 71.5221 1609.84 69.2971C1605.29 71.5142 1599.85 72.8038 1593.99 72.8038C1587.14 72.8038 1580.84 71.0325 1575.88 68.0732Z" fill="white"/>
</g>
<mask id="mask3_90_299" style="mask-type:alpha" maskUnits="userSpaceOnUse" x="1386" y="10" width="62" height="14">
<rect x="1387" y="10.6592" width="60.2891" height="12.5546" fill="#D9D9D9"/>
</mask>
<g mask="url(#mask3_90_299)">
<path fill-rule="evenodd" clip-rule="evenodd" d="M1418.12 24.0529C1416.59 24.7766 1414.78 25.1961 1412.84 25.1961C1410.82 25.1961 1408.95 24.7455 1407.39 23.9727C1406.18 24.7353 1404.61 25.1951 1402.89 25.1951C1401.65 25.1951 1400.48 24.955 1399.47 24.5341C1398.68 24.9518 1397.7 25.1972 1396.65 25.1972C1395.39 25.1972 1394.23 24.8421 1393.36 24.2592C1392.74 24.8312 1391.78 25.1968 1390.71 25.1968C1388.83 25.1968 1387.3 24.0627 1387.3 22.6638C1387.3 21.2649 1388.83 20.1309 1390.71 20.1309C1391.18 20.1309 1391.63 20.2016 1392.04 20.3294C1392.7 18.9625 1394.44 17.9761 1396.5 17.9304C1397.58 16.1121 1400.04 14.843 1402.89 14.843C1403.24 14.843 1403.59 14.8623 1403.92 14.8997C1405.47 12.3972 1408.88 10.6592 1412.84 10.6592C1416.78 10.6592 1420.18 12.3849 1421.73 14.8731C1421.98 14.8532 1422.23 14.843 1422.49 14.843C1423.43 14.843 1424.34 14.9826 1425.16 15.2354C1426.53 14.3079 1428.36 13.7423 1430.36 13.7423C1433.91 13.7423 1436.89 15.5147 1437.8 17.93C1437.84 17.9292 1437.89 17.9287 1437.93 17.9287C1440.06 17.9287 1441.86 18.9296 1442.54 20.3297C1442.95 20.2017 1443.4 20.1309 1443.87 20.1309C1445.76 20.1309 1447.29 21.2649 1447.29 22.6638C1447.29 24.0627 1445.76 25.1968 1443.87 25.1968C1442.8 25.1968 1441.85 24.831 1441.22 24.2588C1440.35 24.842 1439.2 25.1972 1437.93 25.1972C1436.66 25.1972 1435.5 24.8359 1434.62 24.2438C1433.4 24.8453 1431.94 25.1957 1430.36 25.1957C1428.88 25.1957 1427.49 24.8858 1426.32 24.3485C1425.22 24.8837 1423.9 25.1951 1422.49 25.1951C1420.83 25.1951 1419.31 24.7674 1418.12 24.0529Z" fill="white"/>
</g>
<mask id="mask4_90_299" style="mask-type:alpha" maskUnits="userSpaceOnUse" x="44" y="10" width="58" height="13">
<rect x="44" y="10.6592" width="57.9787" height="12.0735" fill="#D9D9D9"/>
</mask>
<g mask="url(#mask4_90_299)">
<path fill-rule="evenodd" clip-rule="evenodd" d="M73.9231 23.5396C72.4578 24.2355 70.7158 24.639 68.8467 24.639C66.9094 24.639 65.1089 24.2056 63.6113 23.4623C62.4421 24.1958 60.9302 24.638 59.2791 24.638C58.0862 24.638 56.9658 24.4072 55.9951 24.0025C55.2278 24.4042 54.2915 24.6401 53.2808 24.6401C52.0649 24.6401 50.9565 24.2985 50.1206 23.7378C49.5183 24.2879 48.5994 24.6395 47.5693 24.6395C45.7554 24.6395 44.2847 23.5489 44.2847 22.2036C44.2847 20.8583 45.7554 19.7677 47.5693 19.7677C48.0225 19.7677 48.4541 19.8357 48.8467 19.9588C49.4861 18.6445 51.1577 17.696 53.136 17.6518C54.177 15.9031 56.5356 14.6826 59.2791 14.6826C59.6177 14.6826 59.9507 14.7012 60.2759 14.7371C61.7649 12.3306 65.0427 10.6592 68.8467 10.6592C72.6372 10.6592 75.9053 12.3187 77.4016 14.7115C77.6406 14.6924 77.8833 14.6826 78.1292 14.6826C79.0386 14.6826 79.906 14.8168 80.697 15.0599C82.0166 14.1679 83.7715 13.624 85.6975 13.624C89.1077 13.624 91.9805 15.3286 92.8521 17.6514C92.8948 17.6506 92.938 17.6501 92.981 17.6501C95.022 17.6501 96.76 18.6126 97.415 19.9589C97.8079 19.8358 98.2395 19.7677 98.6929 19.7677C100.507 19.7677 101.978 20.8583 101.978 22.2036C101.978 23.5489 100.507 24.6395 98.6929 24.6395C97.6628 24.6395 96.7437 24.2878 96.1414 23.7376C95.3054 24.2985 94.197 24.6401 92.981 24.6401C91.7544 24.6401 90.6372 24.2926 89.7988 23.723C88.6238 24.3015 87.2136 24.6385 85.6975 24.6385C84.2717 24.6385 82.9399 24.3405 81.8088 23.8239C80.7522 24.3386 79.4878 24.638 78.1292 24.638C76.5366 24.638 75.074 24.2267 73.9231 23.5396Z" fill="white"/>
</g>
</g>
<defs>
<linearGradient id="paint0_linear_90_299" x1="1600" y1="30.9275" x2="30" y2="30.9281" gradientUnits="userSpaceOnUse">
<stop stop-color="#131414"/>
<stop offset="1" stop-color="#020202"/>
</linearGradient>
<linearGradient id="paint1_linear_90_299" x1="4.50765e-05" y1="-0.00124191" x2="1603.63" y2="58.2041" gradientUnits="userSpaceOnUse">
<stop offset="0.285" stop-color="#2C4857"/>
<stop offset="1" stop-color="#36768A"/>
</linearGradient>
</defs>
</svg>
