<svg width="400" height="67" viewBox="0 0 400 67" fill="none" xmlns="http://www.w3.org/2000/svg">
<mask id="mask0_277_5550" style="mask-type:alpha" maskUnits="userSpaceOnUse" x="0" y="0" width="400" height="67">
<path d="M400 0H0V67H400V0Z" fill="url(#paint0_linear_277_5550)"/>
</mask>
<g mask="url(#mask0_277_5550)">
<path d="M400 0H0V125H400V0Z" fill="url(#paint1_linear_277_5550)"/>
<path d="M0 0H400V67H0V0Z" fill="url(#paint2_linear_277_5550)"/>
<mask id="mask1_277_5550" style="mask-type:alpha" maskUnits="userSpaceOnUse" x="9" y="4" width="23" height="5">
<rect x="9" y="4" width="23" height="4.78954" fill="#D9D9D9"/>
</mask>
<g mask="url(#mask1_277_5550)">
<path fill-rule="evenodd" clip-rule="evenodd" d="M20.8709 9.10951C20.2897 9.38564 19.5985 9.54574 18.857 9.54574C18.0884 9.54574 17.374 9.37376 16.7799 9.07886C16.3162 9.36975 15.7164 9.54514 15.0615 9.54514C14.5884 9.54514 14.144 9.45362 13.759 9.29314C13.4545 9.45256 13.083 9.54621 12.682 9.54621C12.1998 9.54621 11.7602 9.41081 11.4286 9.18847C11.1897 9.40672 10.8251 9.54619 10.4165 9.54619C9.69688 9.54619 9.11353 9.11355 9.11353 8.57988C9.11353 8.0462 9.69688 7.61357 10.4165 7.61357C10.5961 7.61357 10.7672 7.64052 10.9229 7.68927C11.1765 7.16784 11.8397 6.79156 12.6244 6.77397C13.0373 6.08014 13.9732 5.59587 15.0615 5.59587C15.1959 5.59587 15.328 5.60326 15.4571 5.61752C16.0478 4.66292 17.348 3.99996 18.857 3.99996C20.3606 3.99996 21.6569 4.65821 22.2506 5.60735C22.3454 5.59976 22.4417 5.59587 22.5393 5.59587C22.9001 5.59587 23.2442 5.6491 23.558 5.74554C24.0814 5.39169 24.7776 5.17593 25.5417 5.17593C26.8945 5.17593 28.0344 5.85223 28.38 6.77382C28.3969 6.77349 28.4137 6.77332 28.4307 6.77332C29.2405 6.77332 29.9301 7.15525 30.1898 7.6895C30.3457 7.6406 30.5171 7.61357 30.697 7.61357C31.4166 7.61357 31.9999 8.0462 31.9999 8.57988C31.9999 9.11355 31.4166 9.54619 30.697 9.54619C30.2882 9.54619 29.9234 9.40658 29.6845 9.18814C29.3529 9.41068 28.9131 9.54621 28.4307 9.54621C27.9441 9.54621 27.5009 9.40833 27.1683 9.18238C26.7022 9.41174 26.143 9.54534 25.5417 9.54534C24.9761 9.54534 24.4477 9.42712 23.9991 9.22218C23.5799 9.42636 23.0783 9.54514 22.5393 9.54514C21.9077 9.54514 21.3274 9.38203 20.8709 9.10951Z" fill="white"/>
</g>
<mask id="mask2_277_5550" style="mask-type:alpha" maskUnits="userSpaceOnUse" x="-50" y="50" width="106" height="22">
<rect x="-50" y="50" width="105.647" height="22" fill="#D9D9D9"/>
</mask>
<g mask="url(#mask2_277_5550)">
<path fill-rule="evenodd" clip-rule="evenodd" d="M4.52733 73.4699C1.85729 74.7383 -1.31725 75.4737 -4.7234 75.4737C-8.2537 75.4737 -11.5352 74.6837 -14.2641 73.3291C-16.3943 74.6653 -19.149 75.4709 -22.1575 75.4709C-24.3308 75.4709 -26.3716 75.0505 -28.1403 74.3134C-29.5388 75.0457 -31.2454 75.4758 -33.0874 75.4758C-35.3024 75.4758 -37.3216 74.8539 -38.8446 73.8326C-39.9419 74.8351 -41.6169 75.4757 -43.4936 75.4757C-46.799 75.4757 -49.4786 73.4885 -49.4786 71.0371C-49.4786 68.5858 -46.799 66.5985 -43.4936 66.5985C-42.6686 66.5985 -41.8826 66.7223 -41.1674 66.9463C-40.0025 64.5512 -36.9564 62.8228 -33.3517 62.742C-31.4551 59.555 -27.1566 57.3306 -22.1575 57.3306C-21.54 57.3306 -20.9333 57.3645 -20.3404 57.43C-17.6269 53.0452 -11.6547 50 -4.7234 50C2.18323 50 8.13763 53.0236 10.8645 57.3833C11.3001 57.3484 11.7426 57.3306 12.1906 57.3306C13.848 57.3306 15.4283 57.5751 16.8697 58.0181C19.2742 56.3927 22.4719 55.4016 25.9818 55.4016C32.1957 55.4016 37.4314 58.5081 39.0192 62.7413C39.0965 62.7398 39.174 62.739 39.2517 62.739C42.9717 62.739 46.1393 64.4933 47.3322 66.9473C48.0482 66.7227 48.8354 66.5985 49.6617 66.5985C52.9671 66.5985 55.6466 68.5858 55.6466 71.0371C55.6466 73.4885 52.9671 75.4757 49.6617 75.4757C47.784 75.4757 46.1083 74.8345 45.0111 73.8311C43.4878 74.8533 41.4678 75.4758 39.2517 75.4758C37.0166 75.4758 34.9809 74.8425 33.4531 73.8047C31.3122 74.8582 28.7436 75.4718 25.9818 75.4718C23.3837 75.4718 20.9567 74.9288 18.8958 73.9875C16.9704 74.9253 14.6664 75.4709 12.1906 75.4709C9.28939 75.4709 6.6241 74.7217 4.52733 73.4699Z" fill="white"/>
</g>
<mask id="mask3_277_5550" style="mask-type:alpha" maskUnits="userSpaceOnUse" x="381" y="29" width="38" height="8">
<rect x="381" y="29" width="38" height="7.91315" fill="#D9D9D9"/>
</mask>
<g mask="url(#mask3_277_5550)">
<path fill-rule="evenodd" clip-rule="evenodd" d="M400.613 37.442C399.652 37.8981 398.511 38.1626 397.286 38.1626C396.016 38.1626 394.836 37.8786 393.855 37.3915C393.088 37.8722 392.097 38.1621 391.015 38.1621C390.233 38.1621 389.499 38.0107 388.862 37.7452C388.359 38.0085 387.746 38.1631 387.083 38.1631C386.287 38.1631 385.56 37.9394 385.012 37.5721C384.618 37.9326 384.015 38.1629 383.34 38.1629C382.152 38.1629 381.188 37.4482 381.188 36.5664C381.188 35.6847 382.152 34.9699 383.34 34.9699C383.637 34.9699 383.92 35.0144 384.177 35.0949C384.596 34.2333 385.692 33.6116 386.989 33.5828C387.672 32.4369 389.218 31.6372 391.015 31.6372C391.237 31.6372 391.455 31.6494 391.668 31.6729C392.644 30.0955 394.792 29 397.286 29C399.77 29 401.912 30.0878 402.893 31.6562C403.049 31.6436 403.209 31.6372 403.37 31.6372C403.966 31.6372 404.534 31.7251 405.052 31.8843C405.917 31.2996 407.067 30.9431 408.33 30.9431C410.565 30.9431 412.448 32.0602 413.019 33.5826C413.047 33.5821 413.075 33.5818 413.103 33.5818C414.441 33.5818 415.58 34.2127 416.01 35.0952C416.267 35.0145 416.55 34.9699 416.847 34.9699C418.036 34.9699 419 35.6847 419 36.5664C419 37.4482 418.036 38.1629 416.847 38.1629C416.172 38.1629 415.569 37.9324 415.175 37.5717C414.627 37.9392 413.9 38.1631 413.103 38.1631C412.299 38.1631 411.567 37.9354 411.018 37.5622C410.248 37.9413 409.324 38.1621 408.33 38.1621C407.396 38.1621 406.523 37.9669 405.782 37.6284C405.089 37.9658 404.26 38.1621 403.37 38.1621C402.326 38.1621 401.367 37.8925 400.613 37.442Z" fill="white"/>
</g>
</g>
<defs>
<linearGradient id="paint0_linear_277_5550" x1="400" y1="33.4996" x2="7.50001" y2="33.4996" gradientUnits="userSpaceOnUse">
<stop stop-color="#131414"/>
<stop offset="1" stop-color="#020202"/>
</linearGradient>
<linearGradient id="paint1_linear_277_5550" x1="400" y1="-0.0025097" x2="-1.42819" y2="1.79999" gradientUnits="userSpaceOnUse">
<stop stop-color="#FEFAD9"/>
<stop offset="1" stop-color="#FAD872"/>
</linearGradient>
<linearGradient id="paint2_linear_277_5550" x1="1.12691e-05" y1="-0.0013452" x2="401.408" y2="3.36136" gradientUnits="userSpaceOnUse">
<stop offset="0.285" stop-color="#2C4857"/>
<stop offset="1" stop-color="#36768A"/>
</linearGradient>
</defs>
</svg>
