<svg width="4010" height="496" viewBox="0 0 4010 496" fill="none" xmlns="http://www.w3.org/2000/svg">
<path fill-rule="evenodd" clip-rule="evenodd" d="M0 0H2806V78C2806 133.228 2761.23 178 2706 178H2666.8C2645.99 180.712 2629.92 198.508 2629.92 220.057C2629.92 241.326 2645.58 258.939 2666 262H2704C2739.35 262 2768 290.654 2768 326C2768 361.346 2739.35 390 2704 390H2310.56C2311.6 390.003 2312.61 390.075 2313.61 390.213H2296.34C2283.94 390.213 2273.88 400.267 2273.88 412.668C2273.88 424.272 2282.68 433.82 2293.97 435H0V390V262V178V0ZM2475 465.5C2475 448.655 2461.34 435 2444.5 435H0V496H2444.5C2461.34 496 2475 482.345 2475 465.5Z" fill="url(#paint0_linear_2083_893)"/>
<path d="M2098.79 134.268L2101.4 134.38L2102.79 136.575L2103.7 134.147L2106.23 133.524L2104.19 131.908L2104.37 129.332L2102.19 130.758L2099.76 129.79L2100.46 132.288L2098.79 134.268Z" fill="white"/>
<path d="M1799.12 185.334L1801.44 185.438L1802.67 187.382L1803.49 185.23L1805.74 184.668L1803.92 183.242L1804.08 180.943L1802.14 182.213L1799.99 181.358L1800.61 183.571L1799.12 185.334Z" fill="white"/>
<path d="M2097.76 210.814L2098.61 210.849L2099.07 211.575L2099.37 210.78L2100.21 210.572L2099.53 210.037L2099.59 209.189L2098.87 209.656L2098.07 209.336L2098.31 210.158L2097.76 210.814Z" fill="white"/>
<path d="M1695.65 186.249L1697 186.31L1697.7 187.434L1698.18 186.189L1699.48 185.869L1698.42 185.039L1698.52 183.717L1697.4 184.452L1696.16 183.959L1696.52 185.229L1695.65 186.249Z" fill="white"/>
<path d="M1967.12 150.803L1968.47 150.864L1969.17 151.987L1969.64 150.743L1970.95 150.423L1969.9 149.593L1969.98 148.271L1968.87 149.005L1967.63 148.513L1967.99 149.783L1967.12 150.803Z" fill="white"/>
<path d="M2140.03 278.806L2142.36 278.901L2143.59 280.854L2144.4 278.702L2146.65 278.14L2144.84 276.705L2144.99 274.415L2143.05 275.685L2140.91 274.829L2141.53 277.042L2140.03 278.806Z" fill="white"/>
<path d="M2034.55 162.42L2035.99 162.489L2036.76 163.7L2037.27 162.36L2038.67 162.005L2037.54 161.115L2037.64 159.689L2036.44 160.484L2035.09 159.948L2035.48 161.323L2034.55 162.42Z" fill="white"/>
<path d="M2645.08 153.145L2647.63 153.69L2648.64 156.084L2649.95 153.845L2652.55 153.647L2650.8 151.719L2651.42 149.204L2649.03 150.25L2646.8 148.893L2647.07 151.468L2645.08 153.145Z" fill="white"/>
<path d="M2341.01 153.74L2343.28 154.216L2344.16 156.342L2345.33 154.354L2347.64 154.181L2346.09 152.47L2346.64 150.231L2344.52 151.164L2342.54 149.963L2342.77 152.245L2341.01 153.74Z" fill="white"/>
<path d="M2631.08 228.439L2631.93 228.612L2632.26 229.407L2632.69 228.664L2633.55 228.603L2632.98 227.963L2633.18 227.134L2632.39 227.479L2631.66 227.039L2631.75 227.886L2631.08 228.439Z" fill="white"/>
<path d="M2238.85 137.466L2240.16 137.742L2240.68 138.97L2241.35 137.82L2242.68 137.716L2241.78 136.731L2242.11 135.443L2240.88 135.979L2239.73 135.279L2239.87 136.601L2238.85 137.466Z" fill="white"/>
<path d="M2512.48 147.587L2513.79 147.864L2514.3 149.091L2514.97 147.942L2516.32 147.847L2515.42 146.853L2515.73 145.565L2514.51 146.101L2513.36 145.409L2513.5 146.732L2512.48 147.587Z" fill="white"/>
<path d="M2660.27 302.316L2662.54 302.8L2663.42 304.926L2664.59 302.938L2666.91 302.757L2665.35 301.045L2665.9 298.815L2663.78 299.74L2661.8 298.539L2662.03 300.829L2660.27 302.316Z" fill="white"/>
<path d="M2576.99 170.233L2578.41 170.535L2578.96 171.858L2579.68 170.622L2581.12 170.509L2580.15 169.446L2580.49 168.055L2579.17 168.634L2577.94 167.882L2578.09 169.308L2576.99 170.233Z" fill="white"/>
<path d="M1895.7 294.495L1898.57 295.109L1899.69 297.788L1901.15 295.281L1904.08 295.057L1902.12 292.896L1902.81 290.069L1900.13 291.245L1897.64 289.724L1897.93 292.611L1895.7 294.495Z" fill="white"/>
<path d="M1317.46 317.97L1319.73 318.446L1320.61 320.572L1321.78 318.584L1324.09 318.411L1322.54 316.7L1323.09 314.461L1320.97 315.394L1318.98 314.193L1319.22 316.475L1317.46 317.97Z" fill="white"/>
<path d="M1283.05 179.862L1285.32 180.346L1286.2 182.464L1287.37 180.476L1289.68 180.303L1288.13 178.592L1288.68 176.353L1286.56 177.286L1284.58 176.085L1284.81 178.367L1283.05 179.862Z" fill="white"/>
<path d="M1548.74 268.831L1550.05 269.108L1550.56 270.335L1551.24 269.186L1552.57 269.082L1551.67 268.097L1551.99 266.809L1550.76 267.345L1549.62 266.645L1549.76 267.967L1548.74 268.831Z" fill="white"/>
<path d="M1384.7 198.836L1386.01 199.112L1386.53 200.34L1387.2 199.19L1388.54 199.086L1387.64 198.101L1387.96 196.813L1386.73 197.349L1385.58 196.649L1385.72 197.971L1384.7 198.836Z" fill="white"/>
<path d="M1539.26 159.94L1540.57 160.216L1541.09 161.444L1541.76 160.294L1543.1 160.19L1542.2 159.205L1542.52 157.917L1541.29 158.453L1540.14 157.753L1540.28 159.075L1539.26 159.94Z" fill="white"/>
<path d="M1406.18 109.564L1408.45 110.048L1409.34 112.174L1410.51 110.186L1412.82 110.005L1411.27 108.293L1411.82 106.063L1409.69 106.988L1407.71 105.787L1407.95 108.077L1406.18 109.564Z" fill="white"/>
<path d="M1437.78 259.194L1438.79 259.41L1439.18 260.361L1439.71 259.47L1440.75 259.392L1440.05 258.623L1440.29 257.621L1439.35 258.044L1438.46 257.5L1438.56 258.528L1437.78 259.194Z" fill="white"/>
<path d="M1863.72 408.916L1862.73 408.958L1862.21 409.785L1861.87 408.871L1860.91 408.636L1861.68 408.028L1861.62 407.059L1862.44 407.595L1863.35 407.231L1863.09 408.171L1863.72 408.916Z" fill="white"/>
<path d="M1976.5 428.136L1975.63 428.175L1975.16 428.907L1974.86 428.097L1974.01 427.886L1974.69 427.349L1974.63 426.483L1975.36 426.962L1976.17 426.64L1975.94 427.472L1976.5 428.136Z" fill="white"/>
<path d="M1864.1 437.726L1863.78 437.739L1863.61 438.012L1863.5 437.713L1863.18 437.635L1863.44 437.433L1863.41 437.114L1863.68 437.29L1863.99 437.17L1863.9 437.479L1864.1 437.726Z" fill="white"/>
<path d="M2015.44 428.481L2014.93 428.504L2014.67 428.927L2014.49 428.458L2014 428.338L2014.4 428.026L2014.36 427.528L2014.78 427.804L2015.25 427.619L2015.12 428.097L2015.44 428.481Z" fill="white"/>
<path d="M1913.27 415.14L1912.77 415.162L1912.5 415.585L1912.32 415.117L1911.83 414.997L1912.23 414.684L1912.2 414.187L1912.62 414.463L1913.08 414.278L1912.95 414.756L1913.27 415.14Z" fill="white"/>
<path d="M1848.57 463.315L1847.7 463.351L1847.23 464.086L1846.93 463.276L1846.08 463.065L1846.76 462.525L1846.7 461.663L1847.43 462.141L1848.24 461.819L1848.01 462.652L1848.57 463.315Z" fill="white"/>
<path d="M1887.89 419.512L1887.35 419.538L1887.06 419.993L1886.87 419.489L1886.34 419.356L1886.77 419.021L1886.73 418.484L1887.18 418.783L1887.69 418.581L1887.54 419.099L1887.89 419.512Z" fill="white"/>
<path d="M1658.49 416.021L1657.53 416.226L1657.15 417.127L1656.66 416.284L1655.68 416.21L1656.34 415.484L1656.1 414.538L1657 414.931L1657.84 414.42L1657.74 415.39L1658.49 416.021Z" fill="white"/>
<path d="M1772.93 416.245L1772.08 416.424L1771.74 417.225L1771.3 416.476L1770.43 416.411L1771.02 415.767L1770.81 414.925L1771.61 415.276L1772.36 414.824L1772.27 415.683L1772.93 416.245Z" fill="white"/>
<path d="M1663.76 444.359L1663.44 444.424L1663.31 444.723L1663.15 444.443L1662.83 444.42L1663.04 444.18L1662.97 443.867L1663.26 443.997L1663.54 443.832L1663.51 444.15L1663.76 444.359Z" fill="white"/>
<path d="M1811.38 410.12L1810.89 410.224L1810.69 410.686L1810.44 410.253L1809.94 410.214L1810.28 409.843L1810.15 409.359L1810.62 409.56L1811.05 409.297L1811 409.795L1811.38 410.12Z" fill="white"/>
<path d="M1708.39 413.929L1707.9 414.033L1707.71 414.495L1707.46 414.063L1706.95 414.027L1707.29 413.653L1707.17 413.168L1707.63 413.37L1708.06 413.109L1708.01 413.607L1708.39 413.929Z" fill="white"/>
<path d="M1652.77 472.163L1651.92 472.345L1651.59 473.146L1651.15 472.398L1650.28 472.329L1650.86 471.685L1650.65 470.846L1651.45 471.194L1652.2 470.742L1652.11 471.604L1652.77 472.163Z" fill="white"/>
<path d="M1684.12 422.452L1683.58 422.566L1683.38 423.064L1683.1 422.599L1682.56 422.556L1682.93 422.156L1682.8 421.632L1683.29 421.85L1683.76 421.567L1683.7 422.104L1684.12 422.452Z" fill="white"/>
<path d="M1940.15 469.22L1939.07 469.451L1938.65 470.459L1938.1 469.516L1937 469.431L1937.73 468.618L1937.47 467.554L1938.48 467.996L1939.42 467.424L1939.31 468.51L1940.15 469.22Z" fill="white"/>
<path d="M2158.78 478.055L2157.93 478.234L2157.6 479.034L2157.16 478.286L2156.29 478.221L2156.87 477.577L2156.66 476.734L2157.46 477.085L2158.21 476.633L2158.12 477.492L2158.78 478.055Z" fill="white"/>
<path d="M2171.73 426.077L2170.88 426.259L2170.55 427.056L2170.11 426.308L2169.23 426.243L2169.82 425.599L2169.61 424.756L2170.41 425.107L2171.16 424.655L2171.07 425.514L2171.73 426.077Z" fill="white"/>
<path d="M2070.73 459.561L2070.24 459.665L2070.05 460.127L2069.8 459.695L2069.29 459.656L2069.63 459.285L2069.51 458.8L2069.97 459.002L2070.4 458.738L2070.35 459.236L2070.73 459.561Z" fill="white"/>
<path d="M2133.47 433.218L2132.98 433.322L2132.79 433.784L2132.53 433.351L2132.03 433.312L2132.37 432.941L2132.25 432.456L2132.71 432.658L2133.14 432.395L2133.09 432.892L2133.47 433.218Z" fill="white"/>
<path d="M2074.3 418.578L2073.81 418.682L2073.61 419.144L2073.36 418.711L2072.86 418.672L2073.2 418.301L2073.08 417.817L2073.54 418.018L2073.97 417.755L2073.92 418.253L2074.3 418.578Z" fill="white"/>
<path d="M2124.39 399.619L2123.53 399.801L2123.2 400.601L2122.76 399.853L2121.89 399.785L2122.47 399.141L2122.27 398.301L2123.07 398.649L2123.81 398.197L2123.72 399.059L2124.39 399.619Z" fill="white"/>
<path d="M2112.5 455.934L2112.11 456.015L2111.97 456.373L2111.77 456.038L2111.38 456.008L2111.64 455.719L2111.55 455.341L2111.9 455.501L2112.24 455.296L2112.2 455.683L2112.5 455.934Z" fill="white"/>
<defs>
<linearGradient id="paint0_linear_2083_893" x1="1782.86" y1="1079.82" x2="1919.49" y2="17.5748" gradientUnits="userSpaceOnUse">
<stop offset="0.418698" stop-color="#94C4CE"/>
<stop offset="0.945053" stop-color="#00506E"/>
</linearGradient>
</defs>
</svg>
