<svg width="1600" height="55" viewBox="0 0 1600 55" fill="none" xmlns="http://www.w3.org/2000/svg">
<mask id="mask0_1859_2016" style="mask-type:alpha" maskUnits="userSpaceOnUse" x="0" y="0" width="1600" height="55">
<rect width="1600" height="55" fill="url(#paint0_linear_1859_2016)"/>
</mask>
<g mask="url(#mask0_1859_2016)">
<rect width="1600" height="55" fill="url(#paint1_linear_1859_2016)"/>
<path opacity="0.3" fill-rule="evenodd" clip-rule="evenodd" d="M1443 27.5266C1443 12.3241 1455.32 0 1470.53 0L1676 0V55.0532L1470.53 55.0532C1455.32 55.0532 1443 42.7291 1443 27.5266ZM1514.77 89.8835C1514.77 81.1963 1521.81 74.154 1530.5 74.154H1568.85C1574.05 74.0676 1578.23 69.8256 1578.23 64.6053C1578.23 59.331 1573.96 55.0553 1568.68 55.0553H1558.46C1558.52 55.0544 1558.57 55.0539 1558.63 55.0539L1676 55.0539V74.154L1676 74.154V105.613L1530.5 105.613C1521.81 105.613 1514.77 98.5706 1514.77 89.8835Z" fill="#F8D56B"/>
<ellipse cx="148.5" cy="149" rx="148.5" ry="149" transform="matrix(1 -8.74228e-08 -8.74228e-08 -1 -34 201)" fill="#F8D56B"/>
<path fill-rule="evenodd" clip-rule="evenodd" d="M167.562 56.1574C167.562 67.0903 158.7 75.9531 147.767 75.9531L0.000396729 75.9531L0.000393267 36.3621L-7.97551e-05 36.3621L-8.09559e-05 22.6262L84.4094 22.6262C84.4369 22.6262 84.4643 22.6264 84.4916 22.6267L77.176 22.6267C73.383 22.6267 70.3081 25.7016 70.3081 29.4946C70.3081 33.2495 73.3214 36.3005 77.0616 36.3616L147.767 36.3616C158.7 36.3616 167.562 45.2245 167.562 56.1574ZM115.949 11.3136C115.949 17.561 110.884 22.6255 104.637 22.6255L0.00173484 22.6255L0.00173286 0.00176941L104.637 0.00176026C110.884 0.00175972 115.949 5.06626 115.949 11.3136Z" fill="#FBE18F"/>
<path d="M634.728 35.6694L636.365 35.6018L637.232 34.2139L637.805 35.7431L639.392 36.1422L638.112 37.1617L638.223 38.7891L636.857 37.8863L635.343 38.4943L635.78 36.9222L634.728 35.6694Z" fill="white"/>
<path d="M1001.32 18.9687L1002.92 18.6248L1003.54 17.1141L1004.37 18.5265L1006 18.6555L1004.9 19.8714L1005.29 21.4558L1003.8 20.7987L1002.4 21.6523L1002.57 20.0249L1001.32 18.9687Z" fill="white"/>
<path d="M463.259 24.5242L465.283 24.0881L466.071 22.1844L467.105 23.9653L469.166 24.125L467.788 25.6603L468.274 27.6684L466.385 26.8332L464.625 27.9141L464.834 25.8629L463.259 24.5242Z" fill="white"/>
<path d="M55.7839 7.84758L57.3837 7.50982L58.0052 5.99909L58.8298 7.41156L60.4604 7.53438L59.3651 8.75033L59.7528 10.3409L58.2576 9.67763L56.8607 10.5313L57.0269 8.90999L55.7839 7.84758Z" fill="white"/>
<path d="M218.764 42.7588L219.687 42.5623L220.05 41.6902L220.524 42.507L221.465 42.5807L220.832 43.2808L221.053 44.1958L220.192 43.8151L219.385 44.3125L219.484 43.3729L218.764 42.7588Z" fill="white"/>
<path d="M140.573 49.6049L141.287 49.4514L141.564 48.7759L141.933 49.4084L142.666 49.4637L142.173 50.0102L142.346 50.7226L141.681 50.4217L141.053 50.8086L141.127 50.0778L140.573 49.6049Z" fill="white"/>
<path d="M1503.72 24.5242L1505.75 24.0881L1506.53 22.1844L1507.57 23.9653L1509.63 24.125L1508.25 25.6603L1508.74 27.6684L1506.85 26.8332L1505.09 27.9141L1505.3 25.8629L1503.72 24.5242Z" fill="white"/>
<path d="M1096.25 7.84758L1097.85 7.50982L1098.47 5.99909L1099.29 7.41156L1100.92 7.53438L1099.83 8.75033L1100.21 10.3409L1098.72 9.67763L1097.32 10.5313L1097.49 8.90999L1096.25 7.84758Z" fill="white"/>
<path d="M1259.23 42.7588L1260.15 42.5623L1260.51 41.6902L1260.99 42.507L1261.93 42.5807L1261.29 43.2808L1261.51 44.1958L1260.65 43.8151L1259.85 44.3125L1259.95 43.3729L1259.23 42.7588Z" fill="white"/>
<path d="M1181.04 49.6049L1181.75 49.4514L1182.03 48.7759L1182.4 49.4084L1183.13 49.4637L1182.64 50.0102L1182.81 50.7226L1182.14 50.4217L1181.52 50.8086L1181.59 50.0778L1181.04 49.6049Z" fill="white"/>
</g>
<defs>
<linearGradient id="paint0_linear_1859_2016" x1="0" y1="27.5" x2="1600" y2="27.5" gradientUnits="userSpaceOnUse">
<stop stop-color="#FAD872"/>
<stop offset="1" stop-color="#FEFAD9"/>
</linearGradient>
<linearGradient id="paint1_linear_1859_2016" x1="0" y1="27.5" x2="1600" y2="27.5" gradientUnits="userSpaceOnUse">
<stop stop-color="#FAD872"/>
<stop offset="1" stop-color="#FEFAD9"/>
</linearGradient>
</defs>
</svg>
