<svg width="4010" height="525" viewBox="0 0 4010 525" fill="none" xmlns="http://www.w3.org/2000/svg">
<path fill-rule="evenodd" clip-rule="evenodd" d="M2507 102C2478.83 102 2456 79.1665 2456 50.9999C2456 22.8334 2478.83 -0.00012399 2507 -0.00012207L4010 -1.96322e-05V102V183V292V375V525L1341 525C1299.58 525 1266 491.421 1266 450C1266 408.578 1299.58 375 1341 375L3074.93 375L2105.5 375C2128.42 375 2147 356.42 2147 333.5C2147 310.633 2128.5 292.086 2105.66 292L1859.5 292C1829.4 292 1805 267.599 1805 237.5C1805 207.4 1829.4 183 1859.5 183L2606.11 183C2625.74 180.221 2640.84 163.347 2640.84 142.945C2640.84 120.602 2622.73 102.489 2600.39 102.489H2598V102L2507 102Z" fill="#CAF1F3"/>
</svg>
