<svg width="4010" height="294" viewBox="0 0 4010 294" fill="none" xmlns="http://www.w3.org/2000/svg">
<mask id="mask0_45_2511" style="mask-type:alpha" maskUnits="userSpaceOnUse" x="0" y="0" width="4010" height="294">
<rect width="4010" height="294" fill="#D9D9D9"/>
</mask>
<g mask="url(#mask0_45_2511)">
<path fill-rule="evenodd" clip-rule="evenodd" d="M1386.5 0C1363.58 0 1345 18.5801 1345 41.5C1345 64.4199 1363.58 83 1386.5 83H1456.5H1460H1463.5C1470.4 83 1476 88.5967 1476 95.5C1476 102.403 1470.4 108 1463.5 108H1460H1456.5H1403C1384.22 108 1369 123.222 1369 142C1369 160.778 1384.22 176 1403 176H1546.5C1556.72 176 1565 184.283 1565 194.5L1565.01 198.5C1565.27 210.419 1575.02 220 1587 220H1658H1661.41H1666C1672.63 220 1678 225.373 1678 232C1678 238.627 1672.63 244 1666 244H1662.98H1658H1636C1622.19 244 1611 255.193 1611 269C1611 282.807 1622.19 294 1636 294H4065C4078.81 294 4090 282.807 4090 269C4090 268.511 4089.99 268.025 4089.96 267.543C4089.92 266.853 4089.85 266.17 4089.76 265.496C4089.51 263.75 4089.09 262.062 4088.5 260.451V206C4088.96 204.824 4089.32 203.599 4089.57 202.334C4089.85 200.933 4090 199.484 4090 198C4090 196.838 4089.91 195.698 4089.74 194.584C4089.57 193.521 4089.33 192.481 4089.02 191.474C4088.86 190.975 4088.69 190.483 4088.5 190V152.018C4089.47 148.851 4090 145.487 4090 142C4090 141.244 4089.97 140.494 4089.93 139.751C4089.84 138.438 4089.68 137.145 4089.45 135.876C4089.21 134.55 4088.89 133.25 4088.5 131.982V52.5962C4088.64 52.105 4088.76 51.6099 4088.88 51.1113C4089.18 49.8643 4089.42 48.5952 4089.6 47.3071L4089.67 46.7949C4089.89 45.061 4090 43.2939 4090 41.5C4090 18.5801 4071.42 0 4048.5 0H1386.5Z" fill="url(#paint0_linear_45_2511)"/>
<path fill-rule="evenodd" clip-rule="evenodd" d="M2356 158.962C2356 189.911 2381.09 215 2412.04 215L4111 215L4111 102.925L2412.04 102.925C2381.09 102.925 2356 128.014 2356 158.962ZM2502.11 32.0214C2502.11 49.7063 2516.45 64.0427 2534.13 64.0427L2611.96 64.0427C2622.65 64.0984 2631.3 72.7812 2631.3 83.4839C2631.3 94.1677 2622.68 102.839 2612.02 102.925L4105.5 102.925L4105.5 64.0427L4109.5 64.0427L4109.5 0.000153296L2534.13 0.000137643C2516.45 0.000136097 2502.11 14.3365 2502.11 32.0214Z" fill="white" fill-opacity="0.27"/>
<mask id="mask1_45_2511" style="mask-type:alpha" maskUnits="userSpaceOnUse" x="2301" y="186" width="278" height="58">
<rect x="2301" y="186" width="277.504" height="57.7876" fill="#D9D9D9"/>
</mask>
<g mask="url(#mask1_45_2511)">
<path fill-rule="evenodd" clip-rule="evenodd" d="M2444.22 247.65C2437.21 250.981 2428.87 252.912 2419.93 252.912C2410.65 252.912 2402.04 250.837 2394.87 247.28C2389.27 250.791 2382.04 252.907 2374.13 252.907C2368.42 252.907 2363.06 251.803 2358.41 249.866C2354.74 251.788 2350.26 252.917 2345.42 252.917C2339.6 252.917 2334.3 251.283 2330.3 248.599C2327.42 251.232 2323.02 252.915 2318.09 252.915C2309.4 252.915 2302.37 247.696 2302.37 241.257C2302.37 234.818 2309.4 229.598 2318.09 229.598C2320.25 229.598 2322.32 229.923 2324.2 230.512C2327.26 224.221 2335.26 219.681 2344.73 219.469C2349.71 211.099 2361 205.258 2374.13 205.258C2375.75 205.258 2377.35 205.347 2378.9 205.519C2386.03 194 2401.72 186 2419.93 186C2438.07 186 2453.71 193.943 2460.87 205.396C2462.02 205.305 2463.18 205.258 2464.35 205.258C2468.71 205.258 2472.86 205.9 2476.65 207.064C2482.96 202.795 2491.36 200.191 2500.58 200.191C2516.9 200.191 2530.65 208.35 2534.82 219.467C2535.03 219.463 2535.23 219.461 2535.44 219.461C2545.21 219.461 2553.53 224.068 2556.66 230.513C2558.54 229.924 2560.61 229.598 2562.78 229.598C2571.46 229.598 2578.5 234.818 2578.5 241.257C2578.5 247.696 2571.46 252.915 2562.78 252.915C2557.85 252.915 2553.45 251.232 2550.57 248.598C2546.56 251.282 2541.26 252.917 2535.44 252.917C2529.57 252.917 2524.22 251.254 2520.21 248.529C2514.59 251.297 2507.84 252.91 2500.58 252.91C2493.76 252.91 2487.38 251.483 2481.97 249.011C2476.91 251.474 2470.86 252.907 2464.35 252.907C2456.73 252.907 2449.73 250.939 2444.22 247.65Z" fill="white"/>
</g>
<mask id="mask2_45_2511" style="mask-type:alpha" maskUnits="userSpaceOnUse" x="1486" y="28" width="137" height="29">
<rect x="1486" y="28" width="136.496" height="28.4241" fill="#D9D9D9"/>
</mask>
<g mask="url(#mask2_45_2511)">
<path fill-rule="evenodd" clip-rule="evenodd" d="M1556.45 58.3236C1553 59.9621 1548.9 60.9121 1544.5 60.9121C1539.94 60.9121 1535.7 59.8916 1532.17 58.1417C1529.42 59.8686 1525.86 60.9097 1521.97 60.9097C1519.16 60.9097 1516.53 60.3664 1514.24 59.4137C1512.43 60.3592 1510.23 60.9145 1507.85 60.9145C1504.99 60.9145 1502.38 60.1106 1500.41 58.7907C1498.99 60.086 1496.83 60.9138 1494.4 60.9138C1490.13 60.9138 1486.67 58.3463 1486.67 55.1791C1486.67 52.0119 1490.13 49.4444 1494.4 49.4444C1495.47 49.4444 1496.49 49.6046 1497.41 49.8942C1498.92 46.7997 1502.85 44.5667 1507.51 44.4623C1509.96 40.3455 1515.51 37.4724 1521.97 37.4724C1522.77 37.4724 1523.55 37.5162 1524.32 37.6008C1527.82 31.9349 1535.54 28 1544.5 28C1553.42 28 1561.11 31.907 1564.64 37.5404C1565.2 37.4954 1565.77 37.4724 1566.35 37.4724C1568.49 37.4724 1570.53 37.7882 1572.4 38.3605C1575.5 36.2607 1579.63 34.9803 1584.17 34.9803C1592.2 34.9803 1598.96 38.9931 1601.01 44.4615C1601.11 44.4595 1601.21 44.4585 1601.31 44.4585C1606.12 44.4585 1610.21 46.7246 1611.75 49.8947C1612.68 49.6047 1613.69 49.4444 1614.76 49.4444C1619.03 49.4444 1622.49 52.0119 1622.49 55.1791C1622.49 58.3463 1619.03 60.9138 1614.76 60.9138C1612.34 60.9138 1610.17 60.0857 1608.75 58.7899C1606.79 60.1103 1604.18 60.9145 1601.31 60.9145C1598.43 60.9145 1595.8 60.0965 1593.82 58.756C1591.06 60.1178 1587.74 60.9111 1584.17 60.9111C1580.81 60.9111 1577.68 60.2095 1575.01 58.9933C1572.53 60.2049 1569.55 60.9097 1566.35 60.9097C1562.6 60.9097 1559.16 59.9414 1556.45 58.3236Z" fill="white"/>
</g>
</g>
<defs>
<linearGradient id="paint0_linear_45_2511" x1="2390" y1="14.9999" x2="1513.5" y2="264.5" gradientUnits="userSpaceOnUse">
<stop stop-color="#FAD872"/>
<stop offset="1" stop-color="#FDF3D4"/>
</linearGradient>
</defs>
</svg>
