<svg width="4010" height="564" viewBox="0 0 4010 564" fill="none" xmlns="http://www.w3.org/2000/svg">
<mask id="mask0_45_2168" style="mask-type:alpha" maskUnits="userSpaceOnUse" x="0" y="0" width="4010" height="564">
<rect width="4010" height="564" fill="#D9D9D9"/>
</mask>
<g mask="url(#mask0_45_2168)">
<path fill-rule="evenodd" clip-rule="evenodd" d="M0 -41H2805V53C2805 108.228 2760.23 153 2705 153H2527.69C2512.24 153.008 2499.71 165.541 2499.71 181C2499.71 196.459 2512.24 208.992 2527.69 209H2668C2713.84 209 2751 244.817 2751 289C2751 333.183 2713.84 369 2668 369H2334.41C2311.21 369 2292.41 387.804 2292.41 411C2292.41 444.137 2264.54 471 2230.16 471H2100.27C2082.04 471 2067.27 485.775 2067.27 504C2067.27 537.137 2039.39 564 2005.01 564H-4V471V369V209H0V153V-41Z" fill="url(#paint0_linear_45_2168)"/>
<path d="M1857.05 39.849L1854.02 40.0023L1852.41 42.9973L1851.35 39.684L1848.41 38.835L1850.78 36.63L1850.58 33.1162L1853.1 35.0618L1855.91 33.7412L1855.1 37.1488L1857.05 39.849Z" fill="white"/>
<path d="M2204.54 109.513L2201.85 109.655L2200.42 112.308L2199.48 109.372L2196.87 108.605L2198.98 106.66L2198.79 103.523L2201.04 105.257L2203.53 104.089L2202.81 107.108L2204.54 109.513Z" fill="white"/>
<path d="M1858.24 144.274L1857.25 144.321L1856.72 145.312L1856.37 144.227L1855.39 143.944L1856.18 143.213L1856.11 142.057L1856.94 142.694L1857.88 142.258L1857.6 143.378L1858.24 144.274Z" fill="white"/>
<path d="M2324.53 110.763L2322.97 110.846L2322.15 112.379L2321.6 110.681L2320.1 110.245L2321.32 109.113L2321.21 107.309L2322.51 108.311L2323.94 107.639L2323.53 109.372L2324.53 110.763Z" fill="white"/>
<path d="M2009.73 62.4114L2008.17 62.4939L2007.35 64.0268L2006.8 62.3289L2005.29 61.8926L2006.51 60.7606L2006.41 58.9565L2007.7 59.9588L2009.14 59.2867L2008.73 61.02L2009.73 62.4114Z" fill="white"/>
<path d="M1931.53 78.2573L1929.86 78.3516L1928.97 80.0024L1928.38 78.1748L1926.75 77.6913L1928.07 76.4768L1927.95 74.5312L1929.35 75.616L1930.91 74.885L1930.46 76.7598L1931.53 78.2573Z" fill="white"/>
<path d="M1224.7 65.6045L1221.75 66.3474L1220.58 69.6136L1219.06 66.5596L1216.04 66.2884L1218.07 63.659L1217.35 60.2277L1220.13 61.6545L1222.71 59.8032L1222.39 63.317L1224.7 65.6045Z" fill="white"/>
<path d="M1577.32 66.4145L1574.69 67.063L1573.67 69.9637L1572.31 67.2517L1569.63 67.0159L1571.43 64.6812L1570.79 61.6272L1573.25 62.9007L1575.55 61.2617L1575.28 64.3746L1577.32 66.4145Z" fill="white"/>
<path d="M1240.94 168.32L1239.95 168.556L1239.57 169.641L1239.07 168.627L1238.08 168.544L1238.74 167.672L1238.51 166.54L1239.42 167.012L1240.27 166.41L1240.17 167.566L1240.94 168.32Z" fill="white"/>
<path d="M1695.79 44.2171L1694.27 44.5944L1693.67 46.2688L1692.89 44.7005L1691.34 44.559L1692.39 43.2148L1692.01 41.4579L1693.44 42.189L1694.77 41.2339L1694.6 43.038L1695.79 44.2171Z" fill="white"/>
<path d="M1207.09 269.099L1204.46 269.759L1203.44 272.66L1202.08 269.948L1199.4 269.7L1201.2 267.366L1200.56 264.324L1203.02 265.585L1205.32 263.946L1205.05 267.071L1207.09 269.099Z" fill="white"/>
<path d="M2763.1 290.451L2760.47 291.099L2759.45 294L2758.09 291.288L2755.41 291.052L2757.21 288.717L2756.57 285.663L2759.03 286.937L2761.33 285.298L2761.06 288.411L2763.1 290.451Z" fill="white"/>
<path d="M2803 102.052L2800.37 102.713L2799.34 105.601L2797.99 102.889L2795.3 102.654L2797.11 100.319L2796.47 97.2649L2798.93 98.5384L2801.23 96.8994L2800.95 100.012L2803 102.052Z" fill="white"/>
<path d="M2494.9 223.424L2493.38 223.801L2492.78 225.475L2492 223.907L2490.45 223.766L2491.49 222.421L2491.13 220.664L2492.55 221.396L2493.87 220.44L2493.71 222.244L2494.9 223.424Z" fill="white"/>
<path d="M2685.12 127.936L2683.6 128.313L2683 129.988L2682.22 128.419L2680.67 128.278L2681.72 126.934L2681.34 125.177L2682.77 125.908L2684.1 124.953L2683.93 126.757L2685.12 127.936Z" fill="white"/>
<path d="M2505.88 74.8743L2504.36 75.2516L2503.76 76.926L2502.98 75.3578L2501.44 75.2163L2502.48 73.8721L2502.1 72.1152L2503.53 72.8462L2504.86 71.8911L2504.7 73.6952L2505.88 74.8743Z" fill="white"/>
<path d="M2660.21 6.1528L2657.57 6.81311L2656.55 9.71377L2655.2 7.00177L2652.51 6.75416L2654.31 4.41948L2653.68 1.37732L2656.14 2.63899L2658.44 1L2658.16 4.1247L2660.21 6.1528Z" fill="white"/>
<path d="M2623.57 210.271L2622.4 210.566L2621.94 211.863L2621.33 210.648L2620.13 210.542L2620.94 209.493L2620.66 208.125L2621.75 208.703L2622.78 207.96L2622.66 209.363L2623.57 210.271Z" fill="white"/>
<path d="M258.649 39.849L255.622 40.0023L254.012 42.9973L252.948 39.684L250.012 38.835L252.381 36.63L252.179 33.1162L254.7 35.0618L257.515 33.7412L256.705 37.1488L258.649 39.849Z" fill="white"/>
<path d="M606.146 109.513L603.453 109.655L602.025 112.308L601.083 109.372L598.471 108.605L600.577 106.66L600.395 103.523L602.643 105.257L605.134 104.089L604.415 107.108L606.146 109.513Z" fill="white"/>
<path d="M259.842 144.274L258.849 144.321L258.323 145.312L257.968 144.227L256.996 143.944L257.786 143.213L257.715 142.057L258.545 142.694L259.477 142.258L259.204 143.378L259.842 144.274Z" fill="white"/>
<path d="M726.133 110.763L724.573 110.846L723.753 112.379L723.206 110.681L721.697 110.245L722.922 109.113L722.811 107.309L724.107 108.311L725.545 107.639L725.13 109.372L726.133 110.763Z" fill="white"/>
<path d="M411.33 62.4114L409.77 62.4939L408.95 64.0268L408.403 62.3289L406.895 61.8926L408.11 60.7606L408.008 58.9565L409.305 59.9588L410.743 59.2867L410.327 61.02L411.33 62.4114Z" fill="white"/>
<path d="M333.135 78.2573L331.464 78.3516L330.573 80.0024L329.986 78.1748L328.355 77.6913L329.672 76.4768L329.55 74.5312L330.948 75.616L332.507 74.885L332.062 76.7598L333.135 78.2573Z" fill="white"/>
<path d="M97.3907 44.2171L95.8718 44.5944L95.2743 46.2688L94.4946 44.7005L92.9453 44.559L93.9883 43.2148L93.6136 41.4579L95.0414 42.189L96.368 41.2339L96.206 43.038L97.3907 44.2171Z" fill="white"/>
<path d="M1164.7 290.451L1162.07 291.099L1161.05 294L1159.69 291.288L1157.01 291.052L1158.81 288.717L1158.17 285.663L1160.63 286.937L1162.93 285.298L1162.66 288.411L1164.7 290.451Z" fill="white"/>
<path d="M1204.6 102.052L1201.97 102.713L1200.94 105.601L1199.59 102.889L1196.9 102.654L1198.71 100.319L1198.07 97.2649L1200.53 98.5384L1202.83 96.8994L1202.55 100.012L1204.6 102.052Z" fill="white"/>
<path d="M896.498 223.424L894.979 223.801L894.382 225.475L893.602 223.907L892.053 223.766L893.096 222.421L892.731 220.664L894.149 221.396L895.475 220.44L895.313 222.244L896.498 223.424Z" fill="white"/>
<path d="M1086.72 127.936L1085.2 128.313L1084.6 129.988L1083.82 128.419L1082.28 128.278L1083.32 126.934L1082.94 125.177L1084.37 125.908L1085.7 124.953L1085.54 126.757L1086.72 127.936Z" fill="white"/>
<path d="M907.482 74.8743L905.963 75.2516L905.366 76.926L904.586 75.3578L903.037 75.2163L904.08 73.8721L903.705 72.1152L905.133 72.8462L906.46 71.8911L906.298 73.6952L907.482 74.8743Z" fill="white"/>
<path d="M1061.81 6.1528L1059.18 6.81311L1058.15 9.71377L1056.8 7.00177L1054.11 6.75416L1055.92 4.41948L1055.28 1.37732L1057.74 2.63899L1060.04 1L1059.76 4.1247L1061.81 6.1528Z" fill="white"/>
<path d="M1025.17 210.271L1024 210.566L1023.54 211.863L1022.94 210.648L1021.73 210.542L1022.54 209.493L1022.26 208.125L1023.35 208.703L1024.38 207.96L1024.26 209.363L1025.17 210.271Z" fill="white"/>
</g>
<defs>
<linearGradient id="paint0_linear_45_2168" x1="-3.99998" y1="326.5" x2="2395.07" y2="-911.698" gradientUnits="userSpaceOnUse">
<stop offset="0.376955" stop-color="#F78970"/>
<stop offset="1" stop-color="#F34F36"/>
</linearGradient>
</defs>
</svg>
