<svg width="4010" height="800" viewBox="0 0 4010 800" fill="none" xmlns="http://www.w3.org/2000/svg">
<mask id="mask0_58_131" style="mask-type:alpha" maskUnits="userSpaceOnUse" x="0" y="0" width="4010" height="800">
<rect width="4010" height="800" fill="#D9D9D9"/>
</mask>
<g mask="url(#mask0_58_131)">
<path fill-rule="evenodd" clip-rule="evenodd" d="M1388 113.986C1388 51.0331 1432.72 0 1487.88 0H1490.87C1546.03 0 1590.75 51.0331 1590.75 113.986V171.692C1590.75 201.515 1614.92 225.692 1644.75 225.692H1779.95C1805.63 225.692 1826.45 204.87 1826.45 179.186C1826.45 140.659 1857.68 109.426 1896.21 109.426H2671.51C2688.55 109.426 2702.36 125.19 2702.36 144.634C2702.36 164.078 2688.55 179.84 2671.51 179.84H2461.95C2449.29 179.84 2439.02 190.105 2439.02 202.766C2439.02 215.428 2449.29 225.692 2461.95 225.692H2821.56C2848.95 225.692 2871.15 203.492 2871.15 176.108C2871.15 139.281 2897.3 109.426 2929.57 109.426C2961.22 109.426 2987 138.148 2987.97 174H2988.02C2988.81 202.854 3012.45 226 3041.5 226C3041.67 226 3041.83 225.999 3042 225.998V226H4010V3991H2988H1388H0V226H1334.5H1335.5V225.991C1364.59 225.458 1388 201.713 1388 172.5V113.986Z" fill="#FAFBFD"/>
</g>
</svg>
