<svg width="4010" height="597" viewBox="0 0 4010 597" fill="none" xmlns="http://www.w3.org/2000/svg">
<mask id="mask0_2474_281" style="mask-type:alpha" maskUnits="userSpaceOnUse" x="0" y="0" width="4010" height="597">
<rect width="4010" height="597" fill="#D9D9D9"/>
</mask>
<g mask="url(#mask0_2474_281)">
<mask id="mask1_2474_281" style="mask-type:alpha" maskUnits="userSpaceOnUse" x="0" y="0" width="4010" height="597">
<rect width="4010" height="597" fill="#F6F3FF"/>
</mask>
<g mask="url(#mask1_2474_281)">
<path fill-rule="evenodd" clip-rule="evenodd" d="M1374.89 597C1325.24 597 1285 551.097 1285 494.473V439C1285 414.147 1264.85 394 1240 394H-19C-43.8528 394 -64 373.853 -64 349V45C-64 20.1472 -43.8528 0 -19 0H1243.5C1266.42 0 1285 -18.5802 1285 -41.4999V-41.4999C1285 -64.4197 1303.58 -82.9999 1326.5 -82.9999L2683.5 -83C2706.42 -83 2725 -64.4198 2725 -41.5V-41.5C2725 -18.5802 2743.58 0 2766.5 0H4061C4085.85 0 4106 20.1472 4106 45V349C4106 373.853 4085.85 394 4061 394H2769.6C2744.97 394 2725 413.966 2725 438.596V438.596C2725 471.721 2701.46 498.574 2672.42 498.574C2643.37 498.574 2619.83 471.721 2619.83 438.596C2619.83 414.15 2600.16 394.297 2575.79 394H2251.17C2239.95 394.2 2230.92 403.355 2230.92 414.618C2230.92 426.006 2240.15 435.239 2251.54 435.239L2440.16 435.239C2455.49 435.239 2467.92 449.416 2467.92 466.906C2467.92 484.396 2455.49 498.574 2440.16 498.574L1742.35 498.574C1707.7 498.574 1679.61 470.482 1679.61 435.828C1679.61 412.902 1661.16 394.284 1638.31 394H1520.87C1491.32 394.323 1467.47 418.375 1467.47 447.997V494.473C1467.47 551.097 1427.23 597 1377.58 597H1374.89Z" fill="url(#paint0_linear_2474_281)"/>
<mask id="mask2_2474_281" style="mask-type:alpha" maskUnits="userSpaceOnUse" x="2393" y="266" width="237" height="50">
<rect x="2393" y="266" width="236.918" height="49.336" fill="#D9D9D9"/>
</mask>
<g mask="url(#mask2_2474_281)">
<path fill-rule="evenodd" clip-rule="evenodd" d="M2515.28 318.633C2509.29 321.477 2502.17 323.126 2494.53 323.126C2486.62 323.126 2479.26 321.355 2473.14 318.317C2468.36 321.315 2462.18 323.122 2455.44 323.122C2450.56 323.122 2445.98 322.179 2442.02 320.525C2438.88 322.166 2435.06 323.13 2430.93 323.13C2425.96 323.13 2421.43 321.735 2418.01 319.444C2415.55 321.692 2411.8 323.129 2407.59 323.129C2400.18 323.129 2394.17 318.672 2394.17 313.175C2394.17 307.678 2400.18 303.221 2407.59 303.221C2409.44 303.221 2411.2 303.499 2412.81 304.002C2415.42 298.631 2422.25 294.755 2430.33 294.574C2434.59 287.428 2444.23 282.441 2455.44 282.441C2456.82 282.441 2458.18 282.517 2459.51 282.664C2465.59 272.83 2478.99 266 2494.53 266C2510.02 266 2523.38 272.781 2529.49 282.559C2530.47 282.481 2531.46 282.441 2532.46 282.441C2536.18 282.441 2539.72 282.99 2542.96 283.983C2548.35 280.338 2555.52 278.116 2563.39 278.116C2577.33 278.116 2589.07 285.081 2592.63 294.572C2592.8 294.569 2592.98 294.567 2593.15 294.567C2601.49 294.567 2608.6 298.501 2611.27 304.003C2612.88 303.5 2614.64 303.221 2616.49 303.221C2623.91 303.221 2629.92 307.678 2629.92 313.175C2629.92 318.672 2623.91 323.129 2616.49 323.129C2612.28 323.129 2608.53 321.692 2606.07 319.443C2602.65 321.734 2598.12 323.13 2593.15 323.13C2588.14 323.13 2583.58 321.71 2580.15 319.384C2575.35 321.747 2569.59 323.124 2563.39 323.124C2557.57 323.124 2552.12 321.906 2547.5 319.795C2543.18 321.898 2538.02 323.122 2532.46 323.122C2525.96 323.122 2519.98 321.441 2515.28 318.633Z" fill="white"/>
</g>
<mask id="mask3_2474_281" style="mask-type:alpha" maskUnits="userSpaceOnUse" x="2956" y="87" width="237" height="50">
<rect x="2956" y="87" width="236.918" height="49.336" fill="#D9D9D9"/>
</mask>
<g mask="url(#mask3_2474_281)">
<path fill-rule="evenodd" clip-rule="evenodd" d="M3078.28 139.633C3072.29 142.477 3065.17 144.126 3057.53 144.126C3049.62 144.126 3042.26 142.355 3036.14 139.317C3031.36 142.315 3025.18 144.122 3018.44 144.122C3013.56 144.122 3008.98 143.179 3005.02 141.525C3001.88 143.166 2998.06 144.13 2993.93 144.13C2988.96 144.13 2984.43 142.735 2981.01 140.444C2978.55 142.692 2974.8 144.129 2970.59 144.129C2963.18 144.129 2957.17 139.672 2957.17 134.175C2957.17 128.678 2963.18 124.221 2970.59 124.221C2972.44 124.221 2974.2 124.499 2975.81 125.002C2978.42 119.631 2985.25 115.755 2993.33 115.574C2997.59 108.428 3007.23 103.441 3018.44 103.441C3019.82 103.441 3021.18 103.517 3022.51 103.664C3028.59 93.8299 3041.99 87 3057.53 87C3073.02 87 3086.38 93.7814 3092.49 103.559C3093.47 103.481 3094.46 103.441 3095.46 103.441C3099.18 103.441 3102.72 103.99 3105.96 104.983C3111.35 101.338 3118.52 99.1159 3126.39 99.1159C3140.33 99.1159 3152.07 106.081 3155.63 115.572C3155.8 115.569 3155.98 115.567 3156.15 115.567C3164.49 115.567 3171.6 119.501 3174.27 125.003C3175.88 124.5 3177.64 124.221 3179.49 124.221C3186.91 124.221 3192.92 128.678 3192.92 134.175C3192.92 139.672 3186.91 144.129 3179.49 144.129C3175.28 144.129 3171.53 142.692 3169.07 140.443C3165.65 142.734 3161.12 144.13 3156.15 144.13C3151.14 144.13 3146.58 142.71 3143.15 140.384C3138.35 142.747 3132.59 144.124 3126.39 144.124C3120.57 144.124 3115.12 142.906 3110.5 140.795C3106.18 142.898 3101.02 144.122 3095.46 144.122C3088.96 144.122 3082.98 142.441 3078.28 139.633Z" fill="white"/>
</g>
<mask id="mask4_2474_281" style="mask-type:alpha" maskUnits="userSpaceOnUse" x="3892" y="250" width="237" height="50">
<rect x="3892" y="250" width="236.918" height="49.336" fill="#D9D9D9"/>
</mask>
<g mask="url(#mask4_2474_281)">
<path fill-rule="evenodd" clip-rule="evenodd" d="M4014.28 302.633C4008.29 305.477 4001.17 307.126 3993.53 307.126C3985.62 307.126 3978.26 305.355 3972.14 302.317C3967.36 305.315 3961.18 307.122 3954.44 307.122C3949.56 307.122 3944.98 306.179 3941.02 304.525C3937.88 306.166 3934.06 307.13 3929.93 307.13C3924.96 307.13 3920.43 305.735 3917.01 303.444C3914.55 305.692 3910.8 307.129 3906.59 307.129C3899.18 307.129 3893.17 302.672 3893.17 297.175C3893.17 291.678 3899.18 287.221 3906.59 287.221C3908.44 287.221 3910.2 287.499 3911.81 288.002C3914.42 282.631 3921.25 278.755 3929.33 278.574C3933.59 271.428 3943.23 266.441 3954.44 266.441C3955.82 266.441 3957.18 266.517 3958.51 266.664C3964.59 256.83 3977.99 250 3993.53 250C4009.02 250 4022.38 256.781 4028.49 266.559C4029.47 266.481 4030.46 266.441 4031.46 266.441C4035.18 266.441 4038.72 266.99 4041.96 267.983C4047.35 264.338 4054.52 262.116 4062.39 262.116C4076.33 262.116 4088.07 269.081 4091.63 278.572C4091.8 278.569 4091.98 278.567 4092.15 278.567C4100.49 278.567 4107.6 282.501 4110.27 288.003C4111.88 287.5 4113.64 287.221 4115.49 287.221C4122.91 287.221 4128.92 291.678 4128.92 297.175C4128.92 302.672 4122.91 307.129 4115.49 307.129C4111.28 307.129 4107.53 305.692 4105.07 303.443C4101.65 305.734 4097.12 307.13 4092.15 307.13C4087.14 307.13 4082.58 305.71 4079.15 303.384C4074.35 305.747 4068.59 307.124 4062.39 307.124C4056.57 307.124 4051.12 305.906 4046.5 303.795C4042.18 305.898 4037.02 307.122 4031.46 307.122C4024.96 307.122 4018.98 305.441 4014.28 302.633Z" fill="white"/>
</g>
<mask id="mask5_2474_281" style="mask-type:alpha" maskUnits="userSpaceOnUse" x="2608" y="141" width="96" height="20">
<rect x="2608" y="141" width="95.082" height="19.7999" fill="#D9D9D9"/>
</mask>
<g mask="url(#mask5_2474_281)">
<path fill-rule="evenodd" clip-rule="evenodd" d="M2657.07 162.123C2654.67 163.265 2651.81 163.926 2648.75 163.926C2645.57 163.926 2642.62 163.215 2640.16 161.996C2638.25 163.199 2635.77 163.925 2633.06 163.925C2631.1 163.925 2629.26 163.546 2627.67 162.882C2626.41 163.541 2624.88 163.928 2623.22 163.928C2621.23 163.928 2619.41 163.368 2618.04 162.448C2617.05 163.351 2615.54 163.927 2613.86 163.927C2610.88 163.927 2608.47 162.139 2608.47 159.933C2608.47 157.726 2610.88 155.938 2613.86 155.938C2614.6 155.938 2615.31 156.05 2615.95 156.251C2617 154.096 2619.74 152.54 2622.98 152.467C2624.69 149.6 2628.56 147.598 2633.06 147.598C2633.61 147.598 2634.16 147.629 2634.69 147.688C2637.14 143.741 2642.51 141 2648.75 141C2654.97 141 2660.32 143.722 2662.78 147.646C2663.17 147.614 2663.57 147.598 2663.97 147.598C2665.46 147.598 2666.89 147.818 2668.18 148.217C2670.35 146.754 2673.22 145.862 2676.38 145.862C2681.98 145.862 2686.69 148.658 2688.12 152.467C2688.19 152.466 2688.26 152.465 2688.33 152.465C2691.68 152.465 2694.53 154.043 2695.6 156.252C2696.24 156.05 2696.95 155.938 2697.7 155.938C2700.67 155.938 2703.08 157.726 2703.08 159.933C2703.08 162.139 2700.67 163.927 2697.7 163.927C2696.01 163.927 2694.5 163.351 2693.51 162.448C2692.14 163.368 2690.32 163.928 2688.33 163.928C2686.32 163.928 2684.48 163.358 2683.11 162.424C2681.18 163.373 2678.87 163.926 2676.38 163.926C2674.05 163.926 2671.86 163.437 2670.01 162.59C2668.27 163.434 2666.2 163.925 2663.97 163.925C2661.36 163.925 2658.96 163.25 2657.07 162.123Z" fill="white"/>
</g>
<mask id="mask6_2474_281" style="mask-type:alpha" maskUnits="userSpaceOnUse" x="3373" y="299" width="96" height="20">
<rect x="3373" y="299" width="95.082" height="19.7999" fill="#D9D9D9"/>
</mask>
<g mask="url(#mask6_2474_281)">
<path fill-rule="evenodd" clip-rule="evenodd" d="M3422.07 320.123C3419.67 321.265 3416.81 321.926 3413.75 321.926C3410.57 321.926 3407.62 321.215 3405.16 319.996C3403.25 321.199 3400.77 321.925 3398.06 321.925C3396.1 321.925 3394.26 321.546 3392.67 320.882C3391.41 321.541 3389.88 321.928 3388.22 321.928C3386.23 321.928 3384.41 321.368 3383.04 320.448C3382.05 321.351 3380.54 321.927 3378.86 321.927C3375.88 321.927 3373.47 320.139 3373.47 317.933C3373.47 315.726 3375.88 313.938 3378.86 313.938C3379.6 313.938 3380.31 314.05 3380.95 314.251C3382 312.096 3384.74 310.54 3387.98 310.467C3389.69 307.6 3393.56 305.598 3398.06 305.598C3398.61 305.598 3399.16 305.629 3399.69 305.688C3402.14 301.741 3407.51 299 3413.75 299C3419.97 299 3425.32 301.722 3427.78 305.646C3428.17 305.614 3428.57 305.598 3428.97 305.598C3430.46 305.598 3431.89 305.818 3433.18 306.217C3435.35 304.754 3438.22 303.862 3441.38 303.862C3446.98 303.862 3451.69 306.658 3453.12 310.467C3453.19 310.466 3453.26 310.465 3453.33 310.465C3456.68 310.465 3459.53 312.043 3460.6 314.252C3461.24 314.05 3461.95 313.938 3462.7 313.938C3465.67 313.938 3468.08 315.726 3468.08 317.933C3468.08 320.139 3465.67 321.927 3462.7 321.927C3461.01 321.927 3459.5 321.351 3458.51 320.448C3457.14 321.368 3455.32 321.928 3453.33 321.928C3451.32 321.928 3449.48 321.358 3448.11 320.424C3446.18 321.373 3443.87 321.926 3441.38 321.926C3439.05 321.926 3436.86 321.437 3435.01 320.59C3433.27 321.434 3431.2 321.925 3428.97 321.925C3426.36 321.925 3423.96 321.25 3422.07 320.123Z" fill="white"/>
</g>
<mask id="mask7_2474_281" style="mask-type:alpha" maskUnits="userSpaceOnUse" x="3824" y="78" width="96" height="20">
<rect x="3824" y="78" width="95.082" height="19.7999" fill="#D9D9D9"/>
</mask>
<g mask="url(#mask7_2474_281)">
<path fill-rule="evenodd" clip-rule="evenodd" d="M3873.07 99.1233C3870.67 100.265 3867.81 100.926 3864.75 100.926C3861.57 100.926 3858.62 100.215 3856.16 98.9965C3854.25 100.199 3851.77 100.925 3849.06 100.925C3847.1 100.925 3845.26 100.546 3843.67 99.8825C3842.41 100.541 3840.88 100.928 3839.22 100.928C3837.23 100.928 3835.41 100.368 3834.04 99.4485C3833.05 100.351 3831.54 100.927 3829.86 100.927C3826.88 100.927 3824.47 99.1389 3824.47 96.9327C3824.47 94.7265 3826.88 92.938 3829.86 92.938C3830.6 92.938 3831.31 93.0496 3831.95 93.2513C3833 91.0957 3835.74 89.5402 3838.98 89.4675C3840.69 86.5998 3844.56 84.5984 3849.06 84.5984C3849.61 84.5984 3850.16 84.6289 3850.69 84.6878C3853.14 80.741 3858.51 78 3864.75 78C3870.97 78 3876.32 80.7216 3878.78 84.6458C3879.17 84.6144 3879.57 84.5984 3879.97 84.5984C3881.46 84.5984 3882.89 84.8184 3884.18 85.2172C3886.35 83.7544 3889.22 82.8624 3892.38 82.8624C3897.98 82.8624 3902.69 85.6577 3904.12 89.4669C3904.19 89.4655 3904.26 89.4648 3904.33 89.4648C3907.68 89.4648 3910.53 91.0434 3911.6 93.2516C3912.24 93.0497 3912.95 92.938 3913.7 92.938C3916.67 92.938 3919.08 94.7265 3919.08 96.9327C3919.08 99.1389 3916.67 100.927 3913.7 100.927C3912.01 100.927 3910.5 100.351 3909.51 99.4481C3908.14 100.368 3906.32 100.928 3904.33 100.928C3902.32 100.928 3900.48 100.358 3899.11 99.4244C3897.18 100.373 3894.87 100.926 3892.38 100.926C3890.05 100.926 3887.86 100.437 3886.01 99.5895C3884.27 100.434 3882.2 100.925 3879.97 100.925C3877.36 100.925 3874.96 100.25 3873.07 99.1233Z" fill="white"/>
</g>
<mask id="mask8_2474_281" style="mask-type:alpha" maskUnits="userSpaceOnUse" x="1360" y="141" width="201" height="42">
<rect x="1360" y="141" width="200.729" height="41.7999" fill="#D9D9D9"/>
</mask>
<g mask="url(#mask8_2474_281)">
<path fill-rule="evenodd" clip-rule="evenodd" d="M1463.6 185.594C1458.53 188.003 1452.5 189.4 1446.03 189.4C1439.32 189.4 1433.08 187.899 1427.9 185.326C1423.85 187.865 1418.62 189.397 1412.9 189.397C1408.77 189.397 1404.89 188.597 1401.53 187.196C1398.87 188.587 1395.63 189.404 1392.13 189.404C1387.92 189.404 1384.09 188.221 1381.19 186.28C1379.11 188.185 1375.93 189.402 1372.36 189.402C1366.08 189.402 1360.99 185.627 1360.99 180.969C1360.99 176.312 1366.08 172.536 1372.36 172.536C1373.93 172.536 1375.42 172.771 1376.78 173.197C1379 168.647 1384.78 165.363 1391.63 165.209C1395.24 159.155 1403.4 154.93 1412.9 154.93C1414.07 154.93 1415.23 154.994 1416.35 155.119C1421.51 146.787 1432.85 141 1446.03 141C1459.15 141 1470.46 146.746 1475.64 155.03C1476.47 154.964 1477.31 154.93 1478.16 154.93C1481.31 154.93 1484.31 155.394 1487.05 156.236C1491.62 153.148 1497.7 151.265 1504.36 151.265C1516.17 151.265 1526.12 157.166 1529.14 165.208C1529.28 165.205 1529.43 165.204 1529.58 165.204C1536.65 165.204 1542.66 168.536 1544.93 173.198C1546.29 172.772 1547.79 172.536 1549.36 172.536C1555.64 172.536 1560.73 176.312 1560.73 180.969C1560.73 185.627 1555.64 189.402 1549.36 189.402C1545.79 189.402 1542.61 188.185 1540.52 186.279C1537.63 188.221 1533.79 189.404 1529.58 189.404C1525.33 189.404 1521.47 188.201 1518.56 186.229C1514.5 188.232 1509.61 189.398 1504.36 189.398C1499.43 189.398 1494.82 188.367 1490.9 186.578C1487.24 188.36 1482.87 189.397 1478.16 189.397C1472.65 189.397 1467.58 187.973 1463.6 185.594Z" fill="white"/>
</g>
<mask id="mask9_2474_281" style="mask-type:alpha" maskUnits="userSpaceOnUse" x="3473" y="157" width="201" height="42">
<rect x="3473" y="157" width="200.729" height="41.7999" fill="#D9D9D9"/>
</mask>
<g mask="url(#mask9_2474_281)">
<path fill-rule="evenodd" clip-rule="evenodd" d="M3576.6 201.594C3571.53 204.003 3565.5 205.4 3559.03 205.4C3552.32 205.4 3546.08 203.899 3540.9 201.326C3536.85 203.865 3531.62 205.397 3525.9 205.397C3521.77 205.397 3517.89 204.597 3514.53 203.196C3511.87 204.587 3508.63 205.404 3505.13 205.404C3500.92 205.404 3497.09 204.221 3494.19 202.28C3492.11 204.185 3488.93 205.402 3485.36 205.402C3479.08 205.402 3473.99 201.627 3473.99 196.969C3473.99 192.312 3479.08 188.536 3485.36 188.536C3486.93 188.536 3488.42 188.771 3489.78 189.197C3492 184.647 3497.78 181.363 3504.63 181.209C3508.24 175.155 3516.4 170.93 3525.9 170.93C3527.07 170.93 3528.23 170.994 3529.35 171.119C3534.51 162.787 3545.85 157 3559.03 157C3572.15 157 3583.46 162.746 3588.64 171.03C3589.47 170.964 3590.31 170.93 3591.16 170.93C3594.31 170.93 3597.31 171.394 3600.05 172.236C3604.62 169.148 3610.7 167.265 3617.36 167.265C3629.17 167.265 3639.12 173.166 3642.14 181.208C3642.28 181.205 3642.43 181.204 3642.58 181.204C3649.65 181.204 3655.66 184.536 3657.93 189.198C3659.29 188.772 3660.79 188.536 3662.36 188.536C3668.64 188.536 3673.73 192.312 3673.73 196.969C3673.73 201.627 3668.64 205.402 3662.36 205.402C3658.79 205.402 3655.61 204.185 3653.52 202.279C3650.63 204.221 3646.79 205.404 3642.58 205.404C3638.33 205.404 3634.47 204.201 3631.56 202.229C3627.5 204.232 3622.61 205.398 3617.36 205.398C3612.43 205.398 3607.82 204.367 3603.9 202.578C3600.24 204.36 3595.87 205.397 3591.16 205.397C3585.65 205.397 3580.58 203.973 3576.6 201.594Z" fill="white"/>
</g>
<mask id="mask10_2474_281" style="mask-type:alpha" maskUnits="userSpaceOnUse" x="831" y="65" width="201" height="42">
<rect x="831" y="65" width="200.729" height="41.7999" fill="#D9D9D9"/>
</mask>
<g mask="url(#mask10_2474_281)">
<path fill-rule="evenodd" clip-rule="evenodd" d="M934.6 109.594C929.527 112.003 923.496 113.4 917.025 113.4C910.318 113.4 904.084 111.899 898.899 109.326C894.852 111.865 889.617 113.397 883.9 113.397C879.77 113.397 875.892 112.597 872.531 111.196C869.874 112.587 866.633 113.404 863.134 113.404C858.925 113.404 855.087 112.221 852.193 110.28C850.108 112.185 846.926 113.402 843.36 113.402C837.079 113.402 831.988 109.627 831.988 104.969C831.988 100.312 837.079 96.5358 843.36 96.5358C844.928 96.5358 846.423 96.7713 847.782 97.1973C849.996 92.6466 855.783 89.3626 862.632 89.2092C866.237 83.1551 874.403 78.9299 883.9 78.9299C885.073 78.9299 886.225 78.9944 887.352 79.1187C892.507 70.7867 903.855 65 917.025 65C930.149 65 941.463 70.7456 946.643 79.0299C947.47 78.9638 948.311 78.9299 949.161 78.9299C952.311 78.9299 955.313 79.3945 958.052 80.2363C962.621 77.1481 968.696 75.2652 975.365 75.2652C987.17 75.2652 997.117 81.1662 1000.14 89.2079C1000.28 89.205 1000.43 89.2035 1000.58 89.2035C1007.65 89.2035 1013.66 92.5361 1015.93 97.1979C1017.29 96.7716 1018.79 96.5358 1020.36 96.5358C1026.64 96.5358 1031.73 100.312 1031.73 104.969C1031.73 109.627 1026.64 113.402 1020.36 113.402C1016.79 113.402 1013.61 112.185 1011.52 110.279C1008.63 112.221 1004.79 113.404 1000.58 113.404C996.333 113.404 992.466 112.201 989.564 110.229C985.495 112.232 980.614 113.398 975.365 113.398C970.429 113.398 965.817 112.367 961.901 110.578C958.243 112.36 953.865 113.397 949.161 113.397C943.648 113.397 938.584 111.973 934.6 109.594Z" fill="white"/>
</g>
<mask id="mask11_2474_281" style="mask-type:alpha" maskUnits="userSpaceOnUse" x="1237" y="231" width="96" height="20">
<rect x="1237" y="231" width="95.082" height="19.7999" fill="#D9D9D9"/>
</mask>
<g mask="url(#mask11_2474_281)">
<path fill-rule="evenodd" clip-rule="evenodd" d="M1286.07 252.123C1283.67 253.265 1280.81 253.926 1277.75 253.926C1274.57 253.926 1271.62 253.215 1269.16 251.996C1267.25 253.199 1264.77 253.925 1262.06 253.925C1260.1 253.925 1258.27 253.546 1256.67 252.882C1255.41 253.541 1253.88 253.928 1252.22 253.928C1250.23 253.928 1248.41 253.368 1247.04 252.448C1246.05 253.351 1244.54 253.927 1242.86 253.927C1239.88 253.927 1237.47 252.139 1237.47 249.933C1237.47 247.726 1239.88 245.938 1242.86 245.938C1243.6 245.938 1244.31 246.05 1244.95 246.251C1246 244.096 1248.74 242.54 1251.98 242.467C1253.69 239.6 1257.56 237.598 1262.06 237.598C1262.61 237.598 1263.16 237.629 1263.69 237.688C1266.14 233.741 1271.51 231 1277.75 231C1283.97 231 1289.32 233.722 1291.78 237.646C1292.17 237.614 1292.57 237.598 1292.97 237.598C1294.46 237.598 1295.89 237.818 1297.18 238.217C1299.35 236.754 1302.23 235.862 1305.38 235.862C1310.98 235.862 1315.69 238.658 1317.12 242.467C1317.19 242.466 1317.26 242.465 1317.33 242.465C1320.68 242.465 1323.53 244.043 1324.6 246.252C1325.24 246.05 1325.95 245.938 1326.7 245.938C1329.67 245.938 1332.08 247.726 1332.08 249.933C1332.08 252.139 1329.67 253.927 1326.7 253.927C1325.01 253.927 1323.5 253.351 1322.51 252.448C1321.14 253.368 1319.32 253.928 1317.33 253.928C1315.32 253.928 1313.48 253.358 1312.11 252.424C1310.18 253.373 1307.87 253.926 1305.38 253.926C1303.05 253.926 1300.86 253.437 1299.01 252.59C1297.27 253.434 1295.2 253.925 1292.97 253.925C1290.36 253.925 1287.96 253.25 1286.07 252.123Z" fill="white"/>
</g>
<mask id="mask12_2474_281" style="mask-type:alpha" maskUnits="userSpaceOnUse" x="87" y="95" width="96" height="20">
<rect x="87" y="95" width="95.082" height="19.7999" fill="#D9D9D9"/>
</mask>
<g mask="url(#mask12_2474_281)">
<path fill-rule="evenodd" clip-rule="evenodd" d="M136.074 116.123C133.671 117.265 130.814 117.926 127.749 117.926C124.572 117.926 121.619 117.215 119.163 115.996C117.246 117.199 114.766 117.925 112.058 117.925C110.102 117.925 108.265 117.546 106.673 116.882C105.415 117.541 103.879 117.928 102.222 117.928C100.228 117.928 98.4104 117.368 97.0396 116.448C96.052 117.351 94.5444 117.927 92.8552 117.927C89.8803 117.927 87.4688 116.139 87.4688 113.933C87.4688 111.726 89.8803 109.938 92.8552 109.938C93.5982 109.938 94.3061 110.05 94.95 110.251C95.9985 108.096 98.74 106.54 101.984 106.467C103.692 103.6 107.56 101.598 112.058 101.598C112.614 101.598 113.16 101.629 113.694 101.688C116.135 97.741 121.511 95 127.749 95C133.966 95 139.325 97.7216 141.779 101.646C142.171 101.614 142.569 101.598 142.972 101.598C144.463 101.598 145.886 101.818 147.183 102.217C149.347 100.754 152.225 99.8624 155.384 99.8624C160.976 99.8624 165.688 102.658 167.117 106.467C167.187 106.466 167.257 106.465 167.328 106.465C170.675 106.465 173.526 108.043 174.6 110.252C175.244 110.05 175.952 109.938 176.695 109.938C179.67 109.938 182.082 111.726 182.082 113.933C182.082 116.139 179.67 117.927 176.695 117.927C175.006 117.927 173.498 117.351 172.511 116.448C171.14 117.368 169.322 117.928 167.328 117.928C165.316 117.928 163.485 117.358 162.11 116.424C160.182 117.373 157.87 117.926 155.384 117.926C153.046 117.926 150.861 117.437 149.006 116.59C147.273 117.434 145.2 117.925 142.972 117.925C140.36 117.925 137.961 117.25 136.074 116.123Z" fill="white"/>
</g>
<mask id="mask13_2474_281" style="mask-type:alpha" maskUnits="userSpaceOnUse" x="581" y="299" width="96" height="20">
<rect x="581" y="299" width="95.082" height="19.7999" fill="#D9D9D9"/>
</mask>
<g mask="url(#mask13_2474_281)">
<path fill-rule="evenodd" clip-rule="evenodd" d="M630.074 320.123C627.671 321.265 624.814 321.926 621.749 321.926C618.572 321.926 615.619 321.215 613.163 319.996C611.246 321.199 608.766 321.925 606.058 321.925C604.102 321.925 602.265 321.546 600.673 320.882C599.415 321.541 597.879 321.928 596.222 321.928C594.228 321.928 592.41 321.368 591.04 320.448C590.052 321.351 588.544 321.927 586.855 321.927C583.88 321.927 581.469 320.139 581.469 317.933C581.469 315.726 583.88 313.938 586.855 313.938C587.598 313.938 588.306 314.05 588.95 314.251C589.998 312.096 592.74 310.54 595.984 310.467C597.692 307.6 601.56 305.598 606.058 305.598C606.614 305.598 607.16 305.629 607.694 305.688C610.135 301.741 615.511 299 621.749 299C627.966 299 633.325 301.722 635.779 305.646C636.171 305.614 636.569 305.598 636.972 305.598C638.463 305.598 639.886 305.818 641.183 306.217C643.347 304.754 646.225 303.862 649.384 303.862C654.976 303.862 659.688 306.658 661.117 310.467C661.187 310.466 661.257 310.465 661.328 310.465C664.675 310.465 667.526 312.043 668.6 314.252C669.244 314.05 669.952 313.938 670.695 313.938C673.67 313.938 676.082 315.726 676.082 317.933C676.082 320.139 673.67 321.927 670.695 321.927C669.006 321.927 667.498 321.351 666.511 320.448C665.14 321.368 663.322 321.928 661.328 321.928C659.316 321.928 657.485 321.358 656.11 320.424C654.182 321.373 651.87 321.926 649.384 321.926C647.046 321.926 644.861 321.437 643.006 320.59C641.273 321.434 639.2 321.925 636.972 321.925C634.36 321.925 631.961 321.25 630.074 320.123Z" fill="white"/>
</g>
<mask id="mask14_2474_281" style="mask-type:alpha" maskUnits="userSpaceOnUse" x="1575" y="326" width="171" height="36">
<rect x="1575" y="326" width="170.918" height="35.5921" fill="#D9D9D9"/>
</mask>
<g mask="url(#mask14_2474_281)">
<path fill-rule="evenodd" clip-rule="evenodd" d="M1663.21 363.971C1658.89 366.022 1653.76 367.212 1648.25 367.212C1642.54 367.212 1637.23 365.934 1632.82 363.743C1629.37 365.905 1624.91 367.209 1620.04 367.209C1616.53 367.209 1613.22 366.529 1610.36 365.336C1608.1 366.52 1605.34 367.215 1602.36 367.215C1598.78 367.215 1595.51 366.208 1593.05 364.555C1591.27 366.177 1588.56 367.214 1585.52 367.214C1580.18 367.214 1575.84 363.999 1575.84 360.033C1575.84 356.067 1580.18 352.852 1585.52 352.852C1586.86 352.852 1588.13 353.053 1589.29 353.416C1591.17 349.541 1596.1 346.744 1601.93 346.614C1605 341.459 1611.96 337.861 1620.04 337.861C1621.04 337.861 1622.02 337.916 1622.98 338.022C1627.37 330.927 1637.04 326 1648.25 326C1659.42 326 1669.06 330.892 1673.47 337.946C1674.17 337.89 1674.89 337.861 1675.61 337.861C1678.29 337.861 1680.85 338.257 1683.18 338.973C1687.07 336.344 1692.25 334.741 1697.93 334.741C1707.98 334.741 1716.45 339.765 1719.02 346.613C1719.14 346.61 1719.27 346.609 1719.39 346.609C1725.41 346.609 1730.54 349.447 1732.47 353.416C1733.63 353.053 1734.9 352.852 1736.23 352.852C1741.58 352.852 1745.92 356.067 1745.92 360.033C1745.92 363.999 1741.58 367.214 1736.23 367.214C1733.2 367.214 1730.49 366.177 1728.71 364.555C1726.25 366.208 1722.98 367.215 1719.39 367.215C1715.78 367.215 1712.49 366.191 1710.02 364.512C1706.55 366.217 1702.39 367.211 1697.93 367.211C1693.72 367.211 1689.8 366.332 1686.46 364.809C1683.35 366.326 1679.62 367.209 1675.61 367.209C1670.92 367.209 1666.61 365.997 1663.21 363.971Z" fill="white"/>
</g>
<mask id="mask15_2474_281" style="mask-type:alpha" maskUnits="userSpaceOnUse" x="266" y="210" width="171" height="36">
<rect x="266" y="210" width="170.918" height="35.5921" fill="#D9D9D9"/>
</mask>
<g mask="url(#mask15_2474_281)">
<path fill-rule="evenodd" clip-rule="evenodd" d="M354.214 247.971C349.895 250.022 344.759 251.212 339.25 251.212C333.539 251.212 328.23 249.934 323.816 247.743C320.369 249.905 315.912 251.209 311.044 251.209C307.527 251.209 304.225 250.529 301.363 249.336C299.101 250.52 296.341 251.215 293.362 251.215C289.778 251.215 286.51 250.208 284.046 248.555C282.271 250.177 279.561 251.214 276.524 251.214C271.177 251.214 266.842 247.999 266.842 244.033C266.842 240.067 271.177 236.852 276.524 236.852C277.86 236.852 279.132 237.053 280.29 237.416C282.175 233.541 287.103 230.744 292.935 230.614C296.004 225.459 302.957 221.861 311.044 221.861C312.043 221.861 313.024 221.916 313.983 222.022C318.373 214.927 328.035 210 339.25 210C350.424 210 360.058 214.892 364.469 221.946C365.173 221.89 365.889 221.861 366.613 221.861C369.295 221.861 371.852 222.257 374.183 222.973C378.074 220.344 383.247 218.741 388.925 218.741C398.977 218.741 407.447 223.765 410.017 230.613C410.142 230.61 410.268 230.609 410.395 230.609C416.413 230.609 421.537 233.447 423.467 237.416C424.625 237.053 425.898 236.852 427.234 236.852C432.582 236.852 436.917 240.067 436.917 244.033C436.917 247.999 432.582 251.214 427.234 251.214C424.197 251.214 421.487 250.177 419.712 248.555C417.247 250.208 413.98 251.215 410.395 251.215C406.779 251.215 403.487 250.191 401.015 248.512C397.551 250.217 393.394 251.211 388.925 251.211C384.722 251.211 380.795 250.332 377.461 248.809C374.346 250.326 370.619 251.209 366.613 251.209C361.919 251.209 357.606 249.997 354.214 247.971Z" fill="white"/>
</g>
</g>
</g>
<defs>
<linearGradient id="paint0_linear_2474_281" x1="2447" y1="626" x2="1416.5" y2="65" gradientUnits="userSpaceOnUse">
<stop stop-color="#DEF3F5"/>
<stop offset="1" stop-color="#A4E7EA"/>
</linearGradient>
</defs>
</svg>
