<svg width="484" height="625" viewBox="0 0 484 625" fill="none" xmlns="http://www.w3.org/2000/svg">
<mask id="mask0_229_14" style="mask-type:alpha" maskUnits="userSpaceOnUse" x="0" y="0" width="484" height="625">
<rect width="483.479" height="624.075" rx="28.6931" fill="#040404"/>
</mask>
<g mask="url(#mask0_229_14)">
<rect width="483.479" height="624.075" rx="28.6931" fill="url(#paint0_linear_229_14)"/>
<path fill-rule="evenodd" clip-rule="evenodd" d="M-88.1792 -3.75684L-88.1792 631.529H371.695C375.961 631.927 379.341 637.414 379.341 644.131C379.341 651.103 375.697 656.756 371.202 656.756H365.976C359.645 656.756 354.511 665.146 354.511 675.499C354.511 685.853 359.645 694.243 365.976 694.243L552.804 694.243L552.804 -3.75684L-88.1792 -3.75684Z" fill="url(#paint1_linear_229_14)"/>
<path d="M483.821 -0.756836H-0.179199V624.243H483.821V-0.756836Z" fill="url(#paint2_linear_229_14)"/>
<mask id="mask1_229_14" style="mask-type:alpha" maskUnits="userSpaceOnUse" x="31" y="243" width="202" height="43">
<rect x="31.8208" y="243.243" width="200.729" height="41.7999" fill="#D9D9D9"/>
</mask>
<g mask="url(#mask1_229_14)">
<path fill-rule="evenodd" clip-rule="evenodd" d="M135.42 287.837C130.347 290.246 124.316 291.643 117.845 291.643C111.138 291.643 104.904 290.142 99.7195 287.569C95.6719 290.109 90.4371 291.64 84.7202 291.64C80.5902 291.64 76.7119 290.841 73.351 289.44C70.6944 290.83 67.453 291.647 63.9544 291.647C59.7449 291.647 55.9077 290.464 53.0137 288.523C50.9288 290.428 47.7461 291.646 44.1799 291.646C37.8997 291.646 32.8086 287.87 32.8086 283.212C32.8086 278.555 37.8997 274.779 44.1799 274.779C45.7485 274.779 47.243 275.015 48.6024 275.441C50.8158 270.89 56.6036 267.606 63.4526 267.452C67.0569 261.398 75.2232 257.173 84.7202 257.173C85.8932 257.173 87.0458 257.238 88.1721 257.362C93.3272 249.03 104.675 243.243 117.845 243.243C130.969 243.243 142.283 248.989 147.464 257.273C148.291 257.207 149.131 257.173 149.982 257.173C153.131 257.173 156.134 257.638 158.872 258.479C163.441 255.391 169.517 253.508 176.185 253.508C187.991 253.508 197.937 259.409 200.955 267.451C201.103 267.448 201.251 267.447 201.4 267.447C208.467 267.447 214.485 270.779 216.752 275.441C218.112 275.015 219.607 274.779 221.176 274.779C227.456 274.779 232.548 278.555 232.548 283.212C232.548 287.87 227.456 291.646 221.176 291.646C217.61 291.646 214.426 290.428 212.342 288.522C209.447 290.464 205.61 291.647 201.4 291.647C197.154 291.647 193.287 290.444 190.384 288.472C186.316 290.475 181.434 291.642 176.185 291.642C171.249 291.642 166.637 290.61 162.722 288.821C159.063 290.603 154.686 291.64 149.982 291.64C144.469 291.64 139.404 290.216 135.42 287.837Z" fill="white"/>
</g>
<mask id="mask2_229_14" style="mask-type:alpha" maskUnits="userSpaceOnUse" x="415" y="424" width="125" height="27">
<rect x="415.821" y="424.243" width="123.895" height="25.7999" fill="#D9D9D9"/>
</mask>
<g mask="url(#mask2_229_14)">
<path fill-rule="evenodd" clip-rule="evenodd" d="M479.765 451.767C476.634 453.255 472.911 454.117 468.917 454.117C464.777 454.117 460.929 453.191 457.729 451.602C455.231 453.17 452 454.115 448.471 454.115C445.922 454.115 443.529 453.621 441.454 452.757C439.815 453.615 437.814 454.119 435.654 454.119C433.056 454.119 430.688 453.389 428.901 452.191C427.615 453.367 425.65 454.118 423.449 454.118C419.573 454.118 416.43 451.788 416.43 448.913C416.43 446.038 419.573 443.708 423.449 443.708C424.417 443.708 425.34 443.853 426.179 444.116C427.545 441.307 431.117 439.28 435.344 439.186C437.569 435.449 442.61 432.841 448.471 432.841C449.195 432.841 449.907 432.881 450.602 432.957C453.784 427.815 460.788 424.243 468.917 424.243C477.017 424.243 484 427.789 487.198 432.903C487.709 432.862 488.227 432.841 488.753 432.841C490.696 432.841 492.55 433.128 494.24 433.647C497.06 431.741 500.81 430.579 504.926 430.579C512.213 430.579 518.352 434.221 520.215 439.185C520.306 439.183 520.397 439.182 520.489 439.182C524.851 439.182 528.565 441.239 529.965 444.116C530.804 443.853 531.727 443.708 532.695 443.708C536.572 443.708 539.714 446.038 539.714 448.913C539.714 451.788 536.572 454.118 532.695 454.118C530.494 454.118 528.53 453.367 527.243 452.191C525.456 453.389 523.088 454.119 520.489 454.119C517.868 454.119 515.481 453.377 513.69 452.16C511.179 453.396 508.166 454.116 504.926 454.116C501.879 454.116 499.033 453.479 496.616 452.375C494.358 453.475 491.656 454.115 488.753 454.115C485.35 454.115 482.224 453.236 479.765 451.767Z" fill="white"/>
</g>
<mask id="mask3_229_14" style="mask-type:alpha" maskUnits="userSpaceOnUse" x="378" y="234" width="61" height="14">
<rect x="378.821" y="234.573" width="59.8842" height="12.4703" fill="#D9D9D9"/>
</mask>
<g mask="url(#mask3_229_14)">
<path fill-rule="evenodd" clip-rule="evenodd" d="M409.728 247.877C408.214 248.595 406.415 249.012 404.485 249.012C402.483 249.012 400.623 248.564 399.077 247.797C397.869 248.554 396.307 249.011 394.602 249.011C393.37 249.011 392.213 248.773 391.21 248.355C390.418 248.769 389.451 249.013 388.407 249.013C387.151 249.013 386.006 248.66 385.143 248.081C384.521 248.649 383.572 249.013 382.508 249.013C380.634 249.013 379.115 247.886 379.115 246.497C379.115 245.107 380.634 243.981 382.508 243.981C382.976 243.981 383.421 244.051 383.827 244.178C384.487 242.821 386.214 241.841 388.257 241.795C389.332 239.989 391.769 238.728 394.602 238.728C394.952 238.728 395.296 238.748 395.632 238.785C397.17 236.299 400.555 234.573 404.485 234.573C408.4 234.573 411.775 236.287 413.321 238.758C413.567 238.738 413.818 238.728 414.072 238.728C415.011 238.728 415.907 238.867 416.725 239.118C418.087 238.197 419.9 237.635 421.889 237.635C425.411 237.635 428.378 239.396 429.279 241.795C429.323 241.794 429.367 241.793 429.411 241.793C431.52 241.793 433.315 242.788 433.992 244.178C434.397 244.051 434.843 243.981 435.312 243.981C437.185 243.981 438.704 245.107 438.704 246.497C438.704 247.886 437.185 249.013 435.312 249.013C434.247 249.013 433.298 248.649 432.676 248.081C431.812 248.66 430.668 249.013 429.411 249.013C428.145 249.013 426.991 248.654 426.125 248.066C424.912 248.664 423.455 249.012 421.889 249.012C420.416 249.012 419.04 248.704 417.872 248.17C416.781 248.702 415.475 249.011 414.072 249.011C412.427 249.011 410.916 248.586 409.728 247.877Z" fill="white"/>
</g>
<mask id="mask4_229_14" style="mask-type:alpha" maskUnits="userSpaceOnUse" x="99" y="10" width="61" height="13">
<rect x="99.8208" y="10.2432" width="59.8842" height="12.4703" fill="#D9D9D9"/>
</mask>
<g mask="url(#mask4_229_14)">
<path fill-rule="evenodd" clip-rule="evenodd" d="M130.728 23.5469C129.214 24.2657 127.415 24.6825 125.485 24.6825C123.483 24.6825 121.623 24.2347 120.077 23.4669C118.869 24.2245 117.307 24.6813 115.602 24.6813C114.37 24.6813 113.213 24.4429 112.21 24.025C111.418 24.4397 110.451 24.6834 109.407 24.6834C108.151 24.6834 107.006 24.3307 106.143 23.7515C105.521 24.3198 104.572 24.683 103.508 24.683C101.634 24.683 100.115 23.5566 100.115 22.1671C100.115 20.7776 101.634 19.6511 103.508 19.6511C103.976 19.6511 104.421 19.7214 104.827 19.8485C105.487 18.4909 107.214 17.5112 109.257 17.4654C110.332 15.6593 112.769 14.3987 115.602 14.3987C115.952 14.3987 116.296 14.418 116.632 14.4551C118.17 11.9695 121.555 10.2432 125.485 10.2432C129.4 10.2432 132.775 11.9572 134.321 14.4286C134.567 14.4089 134.818 14.3987 135.072 14.3987C136.011 14.3987 136.907 14.5374 137.725 14.7886C139.087 13.8675 140.9 13.3058 142.889 13.3058C146.411 13.3058 149.378 15.0661 150.279 17.465C150.323 17.4641 150.367 17.4637 150.411 17.4637C152.52 17.4637 154.315 18.4579 154.992 19.8487C155.397 19.7215 155.843 19.6511 156.312 19.6511C158.185 19.6511 159.704 20.7776 159.704 22.1671C159.704 23.5566 158.185 24.683 156.312 24.683C155.247 24.683 154.298 24.3197 153.676 23.7512C152.812 24.3305 151.668 24.6834 150.411 24.6834C149.145 24.6834 147.991 24.3246 147.125 23.7366C145.912 24.3342 144.455 24.6822 142.889 24.6822C141.416 24.6822 140.04 24.3744 138.872 23.8406C137.781 24.3721 136.475 24.6813 135.072 24.6813C133.427 24.6813 131.916 24.2566 130.728 23.5469Z" fill="white"/>
</g>
<mask id="mask5_229_14" style="mask-type:alpha" maskUnits="userSpaceOnUse" x="32" y="579" width="81" height="17">
<rect x="32.8208" y="579.243" width="80.1158" height="16.6834" fill="#D9D9D9"/>
</mask>
<g mask="url(#mask5_229_14)">
<path fill-rule="evenodd" clip-rule="evenodd" d="M74.1693 597.042C72.1447 598.003 69.7377 598.561 67.155 598.561C64.4779 598.561 61.9894 597.962 59.9201 596.934C58.3045 597.948 56.215 598.559 53.9331 598.559C52.2848 598.559 50.7369 598.241 49.3955 597.681C48.3353 598.236 47.0416 598.562 45.6453 598.562C43.9653 598.562 42.434 598.09 41.2789 597.316C40.4468 598.076 39.1765 598.562 37.7533 598.562C35.2467 598.562 33.2147 597.055 33.2147 595.196C33.2147 593.337 35.2467 591.83 37.7533 591.83C38.3792 591.83 38.9755 591.924 39.518 592.094C40.4014 590.278 42.7113 588.967 45.4447 588.906C46.8833 586.489 50.1426 584.803 53.9331 584.803C54.4015 584.803 54.8618 584.829 55.3116 584.878C57.3691 581.553 61.8984 579.243 67.155 579.243C72.3929 579.243 76.9086 581.536 78.9763 584.843C79.3064 584.816 79.6417 584.803 79.9812 584.803C81.238 584.803 82.4365 584.988 83.5295 585.324C85.3529 584.092 87.7778 583.34 90.4393 583.34C95.151 583.34 99.121 585.696 100.326 588.905C100.384 588.904 100.444 588.903 100.503 588.903C103.324 588.903 105.726 590.234 106.63 592.094C107.173 591.924 107.77 591.83 108.397 591.83C110.903 591.83 112.935 593.337 112.935 595.196C112.935 597.055 110.903 598.562 108.397 598.562C106.973 598.562 105.702 598.076 104.87 597.315C103.715 598.09 102.183 598.562 100.503 598.562C98.8082 598.562 97.2648 598.082 96.1064 597.295C94.4825 598.095 92.5342 598.56 90.4393 598.56C88.4691 598.56 86.6286 598.148 85.0657 597.435C83.6056 598.146 81.8586 598.559 79.9812 598.559C77.7808 598.559 75.7595 597.991 74.1693 597.042Z" fill="white"/>
</g>
</g>
<defs>
<linearGradient id="paint0_linear_229_14" x1="241.74" y1="0" x2="241.74" y2="624.075" gradientUnits="userSpaceOnUse">
<stop stop-color="#040404"/>
<stop offset="1" stop-color="#131515"/>
</linearGradient>
<linearGradient id="paint1_linear_229_14" x1="-24.1221" y1="60.2783" x2="553.615" y2="272.485" gradientUnits="userSpaceOnUse">
<stop stop-color="#A4E7EA"/>
<stop offset="1" stop-color="#DEF3F5"/>
</linearGradient>
<linearGradient id="paint2_linear_229_14" x1="483.821" y1="-0.769384" x2="-1.91653" y2="-0.241566" gradientUnits="userSpaceOnUse">
<stop stop-color="#FEFAD9"/>
<stop offset="1" stop-color="#FAD872"/>
</linearGradient>
</defs>
</svg>
