<svg width="4010" height="616" viewBox="0 0 4010 616" fill="none" xmlns="http://www.w3.org/2000/svg">
<mask id="mask0_272_19466" style="mask-type:alpha" maskUnits="userSpaceOnUse" x="0" y="0" width="4010" height="616">
<rect width="4010" height="616" fill="#D9D9D9"/>
</mask>
<g mask="url(#mask0_272_19466)">
<mask id="mask1_272_19466" style="mask-type:alpha" maskUnits="userSpaceOnUse" x="1380" y="134" width="2630" height="486">
<rect x="1380" y="134" width="2630" height="486" fill="#D9D9D9"/>
</mask>
<g mask="url(#mask1_272_19466)">
<mask id="mask2_272_19466" style="mask-type:alpha" maskUnits="userSpaceOnUse" x="1380" y="132" width="2630" height="486">
<path fill-rule="evenodd" clip-rule="evenodd" d="M4010 132L3345.58 132V132.197L1477.81 132.197C1423.79 132.197 1380 175.988 1380 230.007C1380 284.025 1423.79 327.816 1477.81 327.816L2057.32 327.816C2085.02 328.05 2107.41 350.581 2107.41 378.342C2107.41 406.247 2084.79 428.869 2056.88 428.869L3345.58 428.869V428.87L1891.89 428.87C1839.66 428.87 1797.32 471.208 1797.32 523.435C1797.32 575.661 1839.66 617.999 1891.89 617.999L3547.37 617.999C3553.78 617.999 3560.05 617.361 3566.1 616.145L4010 616.145L4010 132Z" fill="url(#paint0_linear_272_19466)"/>
</mask>
<g mask="url(#mask2_272_19466)">
<path fill-rule="evenodd" clip-rule="evenodd" d="M1478 132C1423.88 132 1380 175.876 1380 230C1380 284.124 1423.88 328 1478 328L1757.14 328C1757.07 328.006 1757 328.013 1756.92 328.019L1795.07 328.019C1822.78 328.019 1845.25 350.488 1845.25 378.205C1845.25 405.922 1822.78 428.391 1795.07 428.391L1754.53 428.391C1754.53 428.391 1754.53 428.391 1754.53 428.392L1741.93 428.392C1689.43 428.392 1646.87 470.95 1646.87 523.449C1646.87 575.948 1689.43 618.507 1741.93 618.507L2732.65 618.507C2740.15 618.507 2747.44 617.64 2754.44 616L4010 616L4010 132L2848 132L2638 132L1478 132Z" fill="url(#paint1_linear_272_19466)"/>
<circle cx="1954.7" cy="605.151" r="206.281" fill="#C2EEF0"/>
<path d="M2335.78 180.984L2333.47 181.084L2332.25 183.039L2331.44 180.876L2329.21 180.322L2331.01 178.882L2330.86 176.588L2332.77 177.858L2334.91 176.996L2334.3 179.221L2335.78 180.984Z" fill="white"/>
<path d="M2599.96 226.465L2597.91 226.558L2596.83 228.29L2596.11 226.373L2594.12 225.873L2595.72 224.602L2595.59 222.555L2597.29 223.686L2599.19 222.924L2598.64 224.895L2599.96 226.465Z" fill="white"/>
<path d="M2336.69 249.16L2335.93 249.191L2335.53 249.838L2335.26 249.129L2334.52 248.945L2335.12 248.467L2335.07 247.713L2335.7 248.129L2336.41 247.844L2336.2 248.575L2336.69 249.16Z" fill="white"/>
<path d="M2691.18 227.281L2689.99 227.335L2689.37 228.336L2688.95 227.227L2687.81 226.942L2688.74 226.203L2688.65 225.025L2689.64 225.68L2690.73 225.241L2690.42 226.373L2691.18 227.281Z" fill="white"/>
<path d="M2451.85 195.71L2450.66 195.764L2450.04 196.764L2449.63 195.656L2448.48 195.371L2449.4 194.632L2449.33 193.454L2450.31 194.108L2451.4 193.67L2451.09 194.801L2451.85 195.71Z" fill="white"/>
<path d="M2300.29 309.715L2298.24 309.8L2297.16 311.54L2296.44 309.623L2294.46 309.123L2296.06 307.845L2295.92 305.805L2297.63 306.936L2299.52 306.174L2298.98 308.145L2300.29 309.715Z" fill="white"/>
<path d="M2392.4 206.057L2391.13 206.118L2390.46 207.196L2390.01 206.003L2388.77 205.687L2389.77 204.894L2389.68 203.624L2390.74 204.332L2391.93 203.855L2391.59 205.079L2392.4 206.057Z" fill="white"/>
<path d="M1855.04 197.796L1852.8 198.281L1851.91 200.414L1850.76 198.42L1848.46 198.243L1850 196.526L1849.46 194.286L1851.57 195.217L1853.53 194.009L1853.29 196.303L1855.04 197.796Z" fill="white"/>
<path d="M2123.12 198.327L2121.11 198.75L2120.34 200.644L2119.31 198.874L2117.27 198.72L2118.64 197.195L2118.15 195.202L2120.02 196.033L2121.77 194.963L2121.56 196.995L2123.12 198.327Z" fill="white"/>
<path d="M1867.38 264.857L1866.64 265.01L1866.35 265.719L1865.97 265.057L1865.21 265.003L1865.71 264.433L1865.54 263.694L1866.23 264.002L1866.88 263.609L1866.8 264.364L1867.38 264.857Z" fill="white"/>
<path d="M2213.18 183.831L2212.03 184.078L2211.57 185.171L2210.98 184.147L2209.8 184.055L2210.59 183.177L2210.31 182.03L2211.39 182.507L2212.4 181.884L2212.28 183.062L2213.18 183.831Z" fill="white"/>
<path d="M1971.94 192.846L1970.79 193.093L1970.34 194.186L1969.75 193.162L1968.56 193.077L1969.36 192.192L1969.08 191.045L1970.16 191.522L1971.16 190.906L1971.04 192.084L1971.94 192.846Z" fill="white"/>
<path d="M1841.66 330.655L1839.65 331.086L1838.88 332.98L1837.85 331.209L1835.81 331.048L1837.18 329.524L1836.69 327.537L1838.56 328.361L1840.31 327.291L1840.1 329.331L1841.66 330.655Z" fill="white"/>
<path d="M1915.08 213.016L1913.83 213.285L1913.34 214.463L1912.7 213.362L1911.43 213.262L1912.29 212.315L1911.99 211.076L1913.15 211.592L1914.24 210.922L1914.11 212.192L1915.08 213.016Z" fill="white"/>
<path d="M2514.82 323.688L2512.28 324.235L2511.3 326.621L2510 324.389L2507.43 324.188L2509.15 322.264L2508.54 319.746L2510.91 320.793L2513.11 319.438L2512.85 322.01L2514.82 323.688Z" fill="white"/>
<path d="M3024.59 344.597L3022.59 345.02L3021.81 346.914L3020.78 345.143L3018.74 344.989L3020.11 343.465L3019.63 341.471L3021.5 342.302L3023.25 341.232L3023.04 343.265L3024.59 344.597Z" fill="white"/>
<path d="M3054.92 221.593L3052.92 222.024L3052.15 223.91L3051.11 222.139L3049.07 221.985L3050.44 220.461L3049.96 218.467L3051.83 219.299L3053.58 218.229L3053.37 220.261L3054.92 221.593Z" fill="white"/>
<path d="M2820.7 300.831L2819.54 301.078L2819.09 302.171L2818.49 301.147L2817.32 301.055L2818.11 300.177L2817.83 299.03L2818.91 299.507L2819.92 298.884L2819.8 300.062L2820.7 300.831Z" fill="white"/>
<path d="M2965.31 238.491L2964.15 238.737L2963.7 239.83L2963.11 238.806L2961.93 238.714L2962.72 237.836L2962.44 236.689L2963.52 237.167L2964.53 236.543L2964.41 237.721L2965.31 238.491Z" fill="white"/>
<path d="M2829.05 203.847L2827.89 204.093L2827.44 205.187L2826.85 204.163L2825.67 204.07L2826.46 203.193L2826.18 202.046L2827.26 202.523L2828.27 201.899L2828.15 203.077L2829.05 203.847Z" fill="white"/>
<path d="M2946.37 158.981L2944.37 159.412L2943.59 161.306L2942.56 159.536L2940.52 159.374L2941.89 157.85L2941.4 155.864L2943.28 156.687L2945.02 155.617L2944.82 157.657L2946.37 158.981Z" fill="white"/>
<path d="M2918.52 292.248L2917.62 292.441L2917.28 293.287L2916.82 292.494L2915.9 292.425L2916.52 291.74L2916.3 290.847L2917.13 291.224L2917.92 290.739L2917.82 291.655L2918.52 292.248Z" fill="white"/>
<path d="M3601.97 180.984L3599.67 181.084L3598.44 183.039L3597.63 180.876L3595.4 180.322L3597.2 178.882L3597.05 176.588L3598.97 177.858L3601.11 176.996L3600.49 179.221L3601.97 180.984Z" fill="white"/>
<path d="M3866.15 226.465L3864.1 226.558L3863.02 228.29L3862.3 226.373L3860.32 225.873L3861.92 224.602L3861.78 222.555L3863.49 223.686L3865.38 222.924L3864.84 224.895L3866.15 226.465Z" fill="white"/>
<path d="M3602.88 249.16L3602.13 249.191L3601.73 249.838L3601.46 249.129L3600.72 248.945L3601.32 248.467L3601.26 247.713L3601.89 248.129L3602.6 247.844L3602.4 248.575L3602.88 249.16Z" fill="white"/>
<path d="M3957.37 227.281L3956.19 227.335L3955.56 228.336L3955.15 227.227L3954 226.942L3954.93 226.203L3954.85 225.025L3955.83 225.68L3956.93 225.241L3956.61 226.373L3957.37 227.281Z" fill="white"/>
<path d="M3718.04 195.71L3716.86 195.764L3716.23 196.764L3715.82 195.656L3714.67 195.371L3715.6 194.632L3715.52 193.454L3716.5 194.108L3717.6 193.67L3717.28 194.801L3718.04 195.71Z" fill="white"/>
<path d="M3566.49 309.715L3564.44 309.8L3563.35 311.54L3562.64 309.623L3560.65 309.123L3562.25 307.845L3562.12 305.805L3563.82 306.936L3565.72 306.174L3565.17 308.145L3566.49 309.715Z" fill="white"/>
<path d="M3658.6 206.057L3657.33 206.118L3656.65 207.196L3656.2 206.003L3654.96 205.687L3655.97 204.894L3655.87 203.624L3656.94 204.332L3658.12 203.855L3657.78 205.079L3658.6 206.057Z" fill="white"/>
<path d="M3121.24 197.796L3118.99 198.281L3118.11 200.414L3116.95 198.42L3114.66 198.243L3116.2 196.526L3115.65 194.286L3117.76 195.217L3119.72 194.009L3119.48 196.303L3121.24 197.796Z" fill="white"/>
<path d="M3389.31 198.327L3387.31 198.75L3386.53 200.644L3385.5 198.874L3383.46 198.72L3384.83 197.195L3384.35 195.202L3386.22 196.033L3387.96 194.963L3387.76 196.995L3389.31 198.327Z" fill="white"/>
<path d="M3133.58 264.857L3132.83 265.01L3132.54 265.719L3132.16 265.057L3131.41 265.003L3131.91 264.433L3131.73 263.694L3132.42 264.002L3133.07 263.609L3132.99 264.364L3133.58 264.857Z" fill="white"/>
<path d="M3479.38 183.831L3478.22 184.078L3477.77 185.171L3477.17 184.147L3476 184.055L3476.79 183.177L3476.5 182.03L3477.59 182.507L3478.6 181.884L3478.47 183.062L3479.38 183.831Z" fill="white"/>
<path d="M3238.14 192.846L3236.98 193.093L3236.54 194.186L3235.94 193.162L3234.76 193.077L3235.55 192.192L3235.27 191.045L3236.35 191.522L3237.36 190.906L3237.24 192.084L3238.14 192.846Z" fill="white"/>
<path d="M3107.85 330.655L3105.85 331.086L3105.07 332.98L3104.04 331.209L3102 331.048L3103.37 329.524L3102.89 327.537L3104.76 328.361L3106.5 327.291L3106.3 329.331L3107.85 330.655Z" fill="white"/>
<path d="M3181.27 213.016L3180.02 213.285L3179.54 214.463L3178.9 213.362L3177.63 213.262L3178.48 212.315L3178.18 211.076L3179.35 211.592L3180.43 210.922L3180.3 212.192L3181.27 213.016Z" fill="white"/>
<path d="M3781.01 323.688L3778.48 324.235L3777.49 326.621L3776.2 324.389L3773.62 324.188L3775.34 322.264L3774.74 319.746L3777.1 320.793L3779.3 319.438L3779.04 322.01L3781.01 323.688Z" fill="white"/>
</g>
<mask id="mask3_272_19466" style="mask-type:alpha" maskUnits="userSpaceOnUse" x="1646" y="430" width="460" height="189">
<path d="M1646.87 509.892C1646.87 465.985 1682.46 430.392 1726.37 430.392H2025.54C2069.44 430.392 2105.04 465.985 2105.04 509.892V618.145H1726.37C1682.46 618.145 1646.87 582.552 1646.87 538.645V509.892Z" fill="#D9D9D9"/>
</mask>
<g mask="url(#mask3_272_19466)">
<path d="M2065.36 623.092C2064.72 624.168 2063.92 625.42 2063 626.837C2062.84 627.075 2062.68 627.323 2062.52 627.571C2060.69 630.333 2058.39 633.653 2055.72 637.398C2055.49 637.739 2055.24 638.091 2054.99 638.432C2052.19 642.373 2049.01 646.749 2045.58 651.404C2045.34 651.735 2045.09 652.076 2044.84 652.417C2044.24 653.224 2043.63 654.052 2043.01 654.879C2042.49 655.582 2041.97 656.296 2041.44 657.02C2041.15 657.403 2040.86 657.796 2040.57 658.189C2040.27 658.582 2039.98 658.975 2039.69 659.368C2039.1 660.154 2038.51 660.951 2037.91 661.758C2037.61 662.161 2037.31 662.554 2037.01 662.958C2036.42 663.765 2035.81 664.582 2035.2 665.399C2034.61 666.175 2034.02 666.961 2033.43 667.747C2033.42 667.768 2033.4 667.799 2033.38 667.819C2032.76 668.637 2032.14 669.464 2031.53 670.281C2030.81 671.233 2030.09 672.184 2029.37 673.146C2028.68 674.057 2027.99 674.957 2027.31 675.867C2024.03 680.211 2020.71 684.576 2017.45 688.869C2016.96 689.511 2016.46 690.152 2015.99 690.783C2012.25 695.686 2008.57 700.485 2005.08 705.026C2004.56 705.709 2004.03 706.402 2003.51 707.074C2003.41 707.209 2003.31 707.333 2003.2 707.468C2002.89 707.881 2002.58 708.274 2002.27 708.678C1999.2 712.671 1996.31 716.425 1993.67 719.839C1993.39 720.201 1993.12 720.553 1992.84 720.894C1992.52 721.318 1992.2 721.732 1991.89 722.135C1991.52 722.621 1991.15 723.087 1990.8 723.552C1990.74 723.625 1990.68 723.687 1990.64 723.759C1990.39 724.07 1990.16 724.37 1989.93 724.68C1989.57 725.145 1989.22 725.6 1988.86 726.045C1988.53 726.469 1988.21 726.893 1987.89 727.307C1985.2 730.772 1983.01 733.586 1981.49 735.531C1981.31 735.779 1981.12 736.017 1980.96 736.234C1979.96 737.506 1979.34 738.292 1979.17 738.52C1979.14 738.572 1979.12 738.592 1979.12 738.592C1979.12 738.592 1868.31 558.536 1761.66 531.683C1730.34 523.801 1697.94 520.708 1666.89 517.429C1666.9 517.45 1679.84 529.107 1663.42 543.661C1656.46 549.826 1650.1 550.395 1644.51 548.151V468.833C1666.47 473.55 1692.32 477.264 1722.64 479.767C1741.17 480.812 1764.6 480.429 1779.25 473.943C1779.57 473.798 1779.87 473.664 1780.18 473.509C1781.72 472.785 1783.16 471.988 1784.47 471.099C1784.5 471.078 1784.52 471.057 1784.54 471.047C1784.81 470.871 1785.07 470.695 1785.33 470.499C1785.85 470.116 1786.34 469.733 1786.82 469.34C1787.05 469.144 1787.27 468.937 1787.49 468.73C1787.72 468.523 1787.93 468.316 1788.14 468.099C1788.36 467.892 1788.57 467.665 1788.76 467.447C1788.97 467.23 1789.15 467.003 1789.34 466.775C1789.61 466.444 1789.88 466.103 1790.12 465.761C1790.25 465.575 1790.37 465.389 1790.5 465.203C1790.62 465.006 1790.75 464.82 1790.86 464.623C1790.86 464.623 1776.87 463.475 1779.53 449.273C1782.04 435.847 1815.22 436.054 1817.5 454.486C1817.5 454.476 1817.51 454.466 1817.51 454.455C1817.55 454.776 1817.58 455.107 1817.61 455.448C1817.65 456.224 1817.65 457.031 1817.59 457.869C1815.98 479.622 1784.55 484.587 1784.55 484.587C1785.98 484.773 1787.41 484.97 1788.83 485.177C1790.05 485.353 1791.27 485.528 1792.49 485.715C1793.8 485.911 1795.11 486.118 1796.41 486.325C1796.45 486.335 1796.5 486.346 1796.56 486.356C1797.84 486.563 1799.13 486.78 1800.41 486.997L1800.4 487.008C1948.29 512.361 2064.05 616.472 2067.16 618.841C2067.51 619.1 2066.85 620.61 2065.36 623.092Z" fill="white"/>
<path d="M2065.36 623.092C2064.72 624.168 2063.92 625.419 2063 626.837C2062.84 627.074 2062.68 627.312 2062.52 627.571C2060.69 630.333 2058.39 633.653 2055.72 637.398C2055.49 637.739 2055.24 638.091 2054.99 638.432C2052.19 642.373 2049.01 646.749 2045.58 651.403C2045.34 651.734 2045.09 652.076 2044.84 652.417C2044.24 653.224 2043.63 654.051 2043.01 654.879C2042.49 655.593 2041.97 656.296 2041.44 657.02C2041.15 657.403 2040.86 657.796 2040.57 658.189C2040.28 658.582 2039.98 658.975 2039.69 659.368C2039.1 660.154 2038.51 660.951 2037.91 661.758C2037.61 662.151 2037.31 662.554 2037.01 662.958C2036.41 663.764 2035.81 664.581 2035.2 665.399C2034.61 666.174 2034.02 666.961 2033.43 667.747C2033.42 667.767 2033.4 667.798 2033.38 667.819C2032.77 668.636 2032.15 669.453 2031.53 670.281C2030.81 671.233 2030.09 672.184 2029.37 673.146C2028.68 674.057 2027.99 674.956 2027.31 675.867C2024.03 680.211 2020.71 684.576 2017.45 688.869C2016.96 689.51 2016.46 690.152 2015.99 690.783C2012.25 695.686 2008.57 700.485 2005.08 705.026C2004.56 705.719 2004.03 706.402 2003.51 707.074C2003.41 707.209 2003.31 707.333 2003.2 707.467C2002.89 707.881 2002.58 708.274 2002.27 708.678C1999.2 712.67 1996.31 716.425 1993.67 719.839C1993.39 720.201 1993.12 720.552 1992.84 720.894C1992.52 721.318 1992.2 721.732 1991.89 722.135C1991.52 722.621 1991.15 723.087 1990.8 723.552C1990.74 723.625 1990.68 723.687 1990.64 723.759C1990.39 724.069 1990.16 724.38 1989.93 724.68C1989.57 725.145 1989.22 725.6 1988.86 726.045C1988.53 726.469 1988.2 726.893 1987.89 727.307C1985.2 730.772 1983.01 733.586 1981.49 735.53C1981.31 735.779 1981.12 736.017 1980.96 736.234C1979.96 737.506 1979.34 738.292 1979.17 738.52C1979.14 738.572 1979.12 738.592 1979.12 738.592C1979.12 738.592 1868.31 558.536 1761.66 531.683C1730.34 523.801 1697.94 520.708 1666.89 517.429C1666.9 517.45 1679.84 529.107 1663.42 543.661C1656.46 549.826 1650.1 550.395 1644.51 548.15V504.778C1649.36 506.423 1654.37 507.768 1659.51 508.078C1667.28 508.554 1675.01 508.192 1682.76 509.009C1691.92 509.981 1701.07 511.543 1710.17 513.012C1738.54 517.615 1766.9 523.532 1794.17 532.738C1811.31 538.531 1828.31 545.647 1843.35 555.826C1909.44 600.553 1990.39 641.701 2035.28 621.685C2051.69 614.362 2060.62 616.927 2065.36 623.092Z" fill="#F9E6E5"/>
<path d="M1779.22 473.943C1793.76 472.039 1802.71 461.458 1802.71 461.458C1783.31 465.668 1779.53 449.272 1779.53 449.272C1776.87 463.475 1790.86 464.633 1790.86 464.633C1788.47 468.626 1784.39 471.657 1779.22 473.943Z" fill="#F9E6E5"/>
<path d="M1800.41 486.986C1795.15 486.086 1789.85 485.269 1784.51 484.576C1784.53 484.576 1784.55 484.576 1784.55 484.576C1784.55 484.576 1815.98 479.621 1817.6 457.868C1817.69 456.658 1817.64 455.53 1817.51 454.444C1807.08 487.762 1744.47 484.845 1744.47 484.845C1791.87 496.648 1800.3 487.121 1800.41 486.986Z" fill="#F9E6E5"/>
</g>
</g>
<mask id="mask4_272_19466" style="mask-type:alpha" maskUnits="userSpaceOnUse" x="1431" y="0" width="546" height="328">
<rect x="1431" width="546" height="328" fill="#D9D9D9"/>
</mask>
<g mask="url(#mask4_272_19466)">
<g filter="url(#filter0_f_272_19466)">
<ellipse cx="58.3076" cy="64.0116" rx="58.3076" ry="64.0116" transform="matrix(0.881386 0.449534 -0.474069 0.867438 1811.49 25.4365)" fill="#B9E6E9"/>
</g>
<path d="M1665.55 115.043C1665.55 115.043 1660.67 124.55 1657.61 151.053C1654.54 177.556 1672.07 192.797 1688.97 196.713C1705.02 200.446 1723.17 194.663 1736.23 185.685C1749.28 176.706 1727.04 156.764 1727.46 148.455C1727.88 140.146 1718.63 123.354 1718.63 123.354L1710.79 116.578L1698.94 112.714L1685.31 111.973L1665.55 115.043Z" fill="#100523"/>
<path d="M1886.78 82.7561C1886.23 66.2112 1825.78 44.9172 1766.03 63.3997C1706.27 81.8822 1650.86 109.72 1650.86 109.72C1640.86 114.372 1651.59 120.513 1666.12 126.303C1680.65 132.093 1678.24 130.781 1695.95 126.541C1713.65 122.301 1708.51 156.485 1705.41 172.892C1702.33 189.307 1716.77 190.316 1724.42 187.54C1726.82 186.659 1728.25 186.728 1729.07 187.213C1729.07 187.213 1729.15 187.254 1729.26 187.355C1729.28 187.363 1729.28 187.363 1729.29 187.371C1729.99 187.904 1732 189.827 1730.54 193.755C1729.57 196.376 1728.21 198.351 1727.17 199.423L1727.15 199.502C1754.9 192.194 1793.62 171.59 1793.62 171.59C1866.94 126.921 1887.35 99.2834 1886.78 82.7561Z" fill="white"/>
<path d="M1667.16 130.443L1667.14 130.366L1666.71 130.595C1665.92 130.869 1665.18 131.254 1664.47 131.75L1650.42 138.126C1643.19 140.272 1639.53 152.619 1642.26 165.69C1644.93 178.556 1652.78 187.339 1659.91 185.575L1659.92 185.6L1675.32 183.27C1676.08 183.298 1676.84 183.214 1677.61 183.043L1678.11 183.002L1678.09 182.925C1686.09 180.548 1690.15 166.878 1687.13 152.376C1684.11 137.875 1675.19 128.056 1667.16 130.443Z" fill="#100523"/>
<path d="M1875.24 75.9542C1866.67 70.7573 1853.65 66.2176 1838.06 63.7159C1841.05 65.4559 1844.53 68.5132 1846.6 73.7869C1849.88 82.099 1872.86 81.2771 1875.24 75.9542Z" fill="#100523"/>
<path d="M1877.14 103.267C1882.46 93.8857 1879.56 89.2455 1876.64 89.8665C1873.7 90.5052 1844.99 104.411 1798.93 129.609C1752.87 154.808 1726.61 156.291 1719.58 155.056C1712.54 153.814 1712.83 145.971 1712.83 145.971C1712.83 145.971 1713.31 132.366 1708.83 125.07C1704.35 117.775 1693.45 120.573 1686.32 123.02C1679.19 125.449 1676.1 124.989 1673 124.502C1669.9 124.016 1657.16 118.28 1652.89 115.3C1648.62 112.319 1650.82 109.338 1650.82 109.338C1640.79 114.005 1651.56 120.167 1666.13 125.976C1680.71 131.784 1678.29 130.468 1696.05 126.214C1713.81 121.96 1708.63 156.265 1705.52 172.725C1702.43 189.194 1716.92 190.206 1724.59 187.42C1727 186.537 1728.42 186.606 1729.25 187.093C1729.25 187.093 1729.33 187.134 1729.44 187.235C1729.46 187.243 1729.46 187.243 1729.47 187.252C1730.17 187.786 1732.19 189.715 1730.72 193.656C1730.29 194.86 1729.75 195.921 1729.2 196.842C1745.14 192.731 1765.76 185.223 1789.35 171.503C1844.73 139.285 1871.81 112.649 1877.14 103.267Z" fill="#E6F2F8"/>
<path d="M1709.54 165.714C1710.44 160.649 1713.11 150.8 1711.09 130.838C1709.04 110.867 1689.75 120.104 1686.22 121.085C1682.7 122.066 1678.74 122.92 1675.18 122.3C1671.61 121.679 1661.9 117.956 1653.87 113.186C1645.84 108.415 1649.73 105.441 1649.73 105.441C1641.94 110.077 1652.49 116.011 1666.52 121.608C1681.24 127.492 1678.8 126.159 1696.75 121.851C1714.69 117.543 1709.46 152.287 1706.32 168.958C1704.13 180.614 1710.62 184.622 1717.37 185.029C1704.59 184.149 1708.64 170.779 1709.54 165.714Z" fill="#AAD3E7"/>
<path d="M1734.56 190.662C1735.96 186.813 1734.03 184.924 1733.35 184.42C1733.33 184.412 1733.33 184.412 1733.32 184.404C1733.2 184.323 1733.13 184.266 1733.13 184.266C1732.97 184.16 1732.76 184.099 1732.56 184.038C1732.68 184.187 1735.64 188.103 1730.28 194.939L1731.26 196.298L1731.29 196.204C1732.3 195.155 1733.63 193.207 1734.56 190.662Z" fill="#AAD3E7"/>
<path d="M1660.99 184.189C1668.73 181.813 1672.47 169.622 1669.34 156.96C1666.22 144.298 1657.41 135.96 1649.67 138.336C1641.93 140.712 1638.19 152.903 1641.32 165.565C1644.45 178.227 1653.25 186.565 1660.99 184.189Z" fill="#FF7B66"/>
<path d="M1660.16 182.315C1667.08 180.198 1670.36 168.98 1667.48 157.258C1664.6 145.537 1656.64 137.75 1649.72 139.867C1642.79 141.984 1639.51 153.202 1642.39 164.924C1645.28 176.646 1653.23 184.432 1660.16 182.315Z" fill="#FBCAAD"/>
<path d="M1659.16 179.949C1665.36 178.055 1668.28 168.007 1665.7 157.505C1663.12 147.004 1656 140.025 1649.81 141.919C1643.61 143.813 1640.68 153.861 1643.26 164.362C1645.85 174.864 1652.96 181.842 1659.16 179.949Z" fill="white"/>
<path opacity="0.6" d="M1745.92 177.001C1745.92 177.001 1746.57 185.352 1744.17 194.045C1757.36 189.408 1771.25 183.122 1781.46 178.218L1782.12 176.862L1785.22 165.87L1784.21 162.931L1745.92 177.001Z" fill="#AAD3E7"/>
<path d="M1745.22 177.815C1745.22 177.815 1778.84 161.222 1798.42 153.59C1798.42 153.59 1795.69 181.809 1791.58 186.484C1787.45 191.151 1775.31 195.437 1775.31 195.437L1745.22 177.815Z" fill="white"/>
<path d="M1745.22 177.815C1745.22 177.815 1778.84 161.222 1798.42 153.59C1798.42 153.59 1795.69 181.809 1791.58 186.484C1787.45 191.151 1775.31 195.437 1775.31 195.437L1745.22 177.815Z" fill="white"/>
<path d="M1745.22 177.815C1745.22 177.815 1778.84 161.222 1798.42 153.59C1798.42 153.59 1795.69 181.809 1791.58 186.484C1787.45 191.151 1775.31 195.437 1775.31 195.437L1745.22 177.815Z" fill="#AAD3E7"/>
<path d="M1745.51 175.909C1745.51 175.909 1779.13 159.316 1798.71 151.685C1798.71 151.685 1795.98 179.903 1791.87 184.579C1787.76 189.254 1775.6 193.531 1775.6 193.531L1745.51 175.909Z" fill="white"/>
<path d="M1745.67 174.217L1777.01 192.947L1776.59 195.025L1745.26 176.295L1745.67 174.217Z" fill="#8BC3DE"/>
<path d="M1814.35 115.55C1814.46 114.81 1814.24 114.698 1813.59 114.676C1810.62 114.616 1808.12 116.821 1807.68 119.97C1806.94 125.044 1806.89 126.978 1806.16 132.034C1805.82 134.418 1806.18 134.712 1808.52 133.986C1808.64 133.94 1808.78 133.902 1809.02 133.826C1810.98 132.927 1812.28 131.386 1812.61 129.062C1813.41 123.495 1813.52 121.102 1814.35 115.55ZM1804.15 127.012C1804.26 126.322 1804.02 126.22 1803.43 126.204C1800.46 126.186 1797.97 128.272 1797.51 131.253C1797.27 132.786 1797.07 134.317 1796.83 135.85C1796.48 138.208 1796.75 138.454 1799.07 137.789C1799.24 137.741 1799.39 137.686 1799.64 137.593C1801.47 136.892 1802.92 135.101 1803.25 133.04C1803.57 131.022 1803.82 129.006 1804.15 127.012ZM1821.94 125.399C1823.25 116.189 1823.39 113.218 1824.72 104.016C1824.83 103.233 1824.57 103.08 1823.88 103.076C1820.98 103.073 1818.51 105.234 1818.07 108.273C1816.83 117.033 1816.72 119.561 1815.53 128.327C1815.44 129.008 1814.81 129.9 1815.57 130.352C1816.15 130.715 1817.03 130.416 1817.75 130.233C1817.94 130.176 1818.14 130.102 1818.41 130.017C1820.29 129.103 1821.61 127.638 1821.94 125.399Z" fill="#FF4E33"/>
<path d="M1803.41 132.396C1803.56 131.455 1803.69 130.523 1803.82 129.592C1802.61 130.26 1801.38 130.921 1800.14 131.599C1799.16 132.141 1798.19 132.666 1797.22 133.19C1797.12 133.874 1797.03 134.558 1796.92 135.233C1796.57 137.602 1796.84 137.848 1799.17 137.177C1799.34 137.129 1799.49 137.074 1799.74 136.98C1801.61 136.265 1803.08 134.465 1803.41 132.396Z" fill="url(#paint2_linear_272_19466)"/>
<path d="M1806.43 131.878C1806.08 134.271 1806.44 134.565 1808.79 133.835C1808.92 133.788 1809.06 133.749 1809.3 133.674C1811.26 132.769 1812.57 131.221 1812.91 128.889C1813.12 127.36 1813.3 126.078 1813.44 124.909C1811.3 126.075 1809.12 127.268 1806.88 128.479C1806.77 129.461 1806.63 130.562 1806.43 131.878Z" fill="url(#paint3_linear_272_19466)"/>
<path d="M1818.83 130.333C1820.74 129.422 1822.07 127.934 1822.39 125.706C1822.7 123.606 1822.94 121.822 1823.15 120.226C1821.02 121.357 1818.84 122.549 1816.6 123.751C1816.42 125.185 1816.2 126.781 1815.95 128.667C1815.86 129.35 1815.23 130.245 1815.98 130.697C1816.57 131.061 1817.45 130.76 1818.18 130.575C1818.36 130.493 1818.55 130.436 1818.83 130.333Z" fill="url(#paint4_linear_272_19466)"/>
<path d="M1820.36 138.71C1820.76 138.271 1821.16 137.985 1821.58 137.708C1823.07 136.688 1824.74 135.518 1828.4 126.606C1829.63 123.589 1830.46 121.122 1831.17 118.95C1833.13 113.017 1834.21 109.749 1840.81 105.729C1842.73 104.551 1846.52 103.017 1851.32 101.059C1863.15 96.2362 1880.29 89.2692 1885.34 80.9788C1885.25 80.845 1885.17 80.6938 1885.09 80.56C1880.28 88.7571 1863.04 95.7788 1851.18 100.611C1846.36 102.578 1842.56 104.13 1840.61 105.317C1833.86 109.435 1832.76 112.764 1830.76 118.809C1830.03 120.973 1829.23 123.431 1827.99 126.422C1824.39 135.205 1822.77 136.314 1821.35 137.305C1820.92 137.617 1820.5 137.895 1820.06 138.378C1818.85 139.696 1793.5 150.86 1769 161.632C1757.17 166.83 1744.94 172.228 1735.94 176.289C1720.67 183.163 1712.91 183.746 1709.04 182.978C1709.13 183.18 1709.23 183.382 1709.32 183.584C1713.41 184.268 1721.27 183.444 1736.11 176.753C1745.11 172.692 1757.34 167.32 1769.17 162.096C1794.82 150.777 1819.09 140.106 1820.36 138.71Z" fill="#AAD3E7"/>
<path d="M1502.01 371.425C1501.99 371.244 1501.97 371.071 1501.95 370.885C1501.92 370.668 1501.89 370.454 1501.84 370.222C1501.82 370.082 1501.79 369.932 1501.76 369.786C1501.68 369.378 1501.58 368.959 1501.46 368.527C1501.46 368.514 1501.46 368.491 1501.45 368.486C1501.41 368.341 1501.37 368.191 1501.33 368.045C1501.17 367.468 1500.98 366.885 1500.78 366.293C1500.74 366.184 1500.71 366.084 1500.67 365.97C1500.14 364.499 1499.51 362.982 1498.82 361.49C1498.69 361.23 1498.57 360.957 1498.44 360.697C1498.2 360.177 1497.94 359.661 1497.68 359.159C1497.61 359.004 1497.52 358.844 1497.45 358.689C1497.29 358.388 1497.13 358.087 1496.98 357.79C1496.91 357.635 1496.83 357.489 1496.75 357.347C1496.52 356.905 1496.29 356.471 1496.05 356.046C1495.93 355.831 1495.82 355.612 1495.7 355.402C1494.6 353.42 1493.56 351.711 1492.81 350.513C1492.76 350.431 1492.71 350.344 1492.66 350.276C1492.62 350.193 1492.57 350.12 1492.52 350.052C1492.48 349.969 1492.43 349.91 1492.39 349.832C1492.29 349.686 1492.2 349.54 1492.12 349.416C1492.02 349.27 1491.94 349.137 1491.88 349.023C1491.75 348.817 1491.66 348.689 1491.64 348.666C1491.33 348.376 1491.02 348.091 1490.73 347.797C1488.51 345.685 1486.38 343.521 1484.38 341.294C1484.08 340.964 1483.78 340.624 1483.48 340.294C1483.13 339.904 1482.8 339.509 1482.45 339.11C1481.82 338.376 1481.22 337.634 1480.62 336.891C1479.72 335.773 1478.85 334.637 1478.02 333.487C1477.74 333.098 1477.46 332.723 1477.19 332.329C1477.01 332.059 1476.82 331.789 1476.64 331.52C1476.59 331.46 1476.54 331.4 1476.51 331.336C1466.38 316.422 1461.6 298.65 1465.97 275.268C1467.05 269.5 1468.53 264.199 1470.36 259.334C1471.42 256.5 1472.6 253.809 1473.87 251.259C1471.28 251.76 1468.58 251.313 1466.01 249.056C1465.96 249.019 1465.91 248.968 1465.86 248.918C1465.82 248.872 1465.77 248.826 1465.73 248.78C1465.68 248.743 1465.63 248.692 1465.59 248.638C1465.54 248.587 1465.49 248.527 1465.44 248.477C1465.36 248.381 1465.27 248.289 1465.2 248.193C1465.14 248.115 1465.08 248.037 1465.03 247.964C1464.91 247.799 1464.8 247.639 1464.71 247.474C1464.61 247.305 1464.52 247.123 1464.43 246.949C1464.32 246.73 1464.23 246.507 1464.14 246.279C1464.09 246.124 1464.04 245.97 1463.98 245.815C1463.89 245.523 1463.81 245.205 1463.74 244.896C1463.66 244.483 1463.59 244.047 1463.57 243.607C1463.53 243.163 1463.53 242.714 1463.53 242.257C1463.54 242.031 1463.55 241.795 1463.58 241.569C1463.59 241.365 1463.62 241.153 1463.65 240.95C1463.72 240.457 1463.81 239.964 1463.92 239.481L1463.92 239.495C1465.26 233.785 1470.1 228.216 1477.58 229.172C1484.9 230.113 1491.56 227.125 1495.79 224.542C1522.31 203.917 1589.91 182.438 1589.92 182.442L1590.05 187.626L1590.06 187.631L1590.14 191.31L1590.26 195.692C1560.24 200.249 1507.94 238.154 1498.3 255.308C1498.3 255.308 1490.07 272.174 1501.8 280.589C1509.24 285.93 1508.7 294.161 1504.94 299.034C1504.8 299.205 1504.66 299.384 1504.52 299.549C1504.08 300.055 1503.62 300.514 1503.13 300.91C1502.97 301.044 1502.79 301.182 1502.63 301.302C1502.3 301.564 1501.93 301.776 1501.56 301.984C1501.38 302.081 1501.19 302.178 1501.01 302.265C1500.82 302.353 1500.62 302.432 1500.44 302.506C1500.26 302.576 1500.07 302.637 1499.91 302.698C1499.88 302.706 1499.85 302.715 1499.82 302.724C1499.64 302.775 1499.45 302.827 1499.26 302.865C1498.89 302.946 1498.52 303.013 1498.14 303.034C1498.11 303.038 1498.07 303.042 1498.02 303.042C1497.6 303.072 1497.18 303.057 1496.75 303.014C1496.56 302.993 1496.37 302.963 1496.17 302.938C1496.37 303.366 1496.58 303.786 1496.8 304.215C1497.47 305.52 1498.19 306.845 1498.97 308.183C1503.74 316.325 1510.75 325.097 1520.53 334.553L1502.01 371.425Z" fill="white"/>
<path d="M1590.08 191.466L1589.99 187.793C1544.01 196.082 1500.32 244.986 1500.32 244.986C1515.69 221.652 1576.4 193.337 1590.08 191.466Z" fill="#F9E6E5"/>
<path d="M1463.51 239.205C1462.63 242.937 1463.25 246.727 1465.61 248.809C1468.18 251.071 1470.9 251.519 1473.5 251.016C1472.22 253.571 1471.04 256.269 1469.98 259.108C1476.98 253.523 1483.67 243.408 1483.67 243.408C1469.61 253.892 1464.31 241.4 1463.51 239.205Z" fill="#F9E6E5"/>
<path d="M1505.22 298.932C1505.08 299.102 1504.94 299.282 1504.8 299.448C1504.35 299.955 1503.89 300.416 1503.4 300.813C1503.24 300.947 1503.06 301.085 1502.89 301.206C1502.54 301.459 1502.19 301.691 1501.82 301.89C1501.64 301.987 1501.45 302.084 1501.26 302.172C1501.08 302.26 1500.88 302.339 1500.69 302.414C1500.52 302.484 1500.33 302.545 1500.16 302.606C1500.13 302.614 1500.1 302.623 1500.07 302.632C1499.89 302.684 1499.7 302.735 1499.51 302.774C1499.14 302.854 1498.76 302.922 1498.38 302.943C1498.35 302.947 1498.31 302.951 1498.27 302.951C1497.84 302.981 1497.42 302.966 1496.98 302.923C1496.79 302.902 1496.6 302.872 1496.4 302.846C1496.6 303.276 1496.81 303.697 1497.04 304.128C1497.71 305.437 1498.44 306.765 1499.22 308.107C1499.22 308.107 1483.33 305.836 1485.59 276.331C1485.72 276.996 1489.9 303.333 1505.22 298.932Z" fill="#F9E6E5"/>
<path d="M1605.63 169.121C1605.63 169.121 1594.89 165.592 1590.4 169.544C1585.92 173.495 1588.07 177.683 1589.29 179.035C1589.29 179.035 1586.44 177.639 1583.44 179.596C1577.57 183.451 1579.95 192.121 1585.59 193.074C1583.84 194.852 1583.15 197.639 1583.96 199.745C1585.74 204.389 1591.89 203.751 1595.45 200.458C1594.65 202.295 1595 204.42 1596.17 205.742C1597.33 207.063 1599.22 207.618 1601.08 207.348C1607.05 206.49 1609.38 199.423 1610.12 194.243C1610.28 193.144 1610.15 192.012 1610.63 190.981C1612.27 187.451 1617.34 185.273 1620.43 183.878C1620.43 183.878 1621.61 188.153 1626.38 186.887C1630.32 185.842 1630.96 182.791 1631.55 179.347C1632.24 175.332 1635.84 173.994 1638.98 172.386C1642.96 170.355 1646.97 168.392 1651 166.519C1652.37 165.884 1653.4 165.945 1653.56 164.31C1653.62 163.763 1651.03 159.533 1650.76 159.669C1642.31 163.764 1616.19 172.953 1605.63 169.121Z" fill="white"/>
<path d="M1625.12 177.055C1625.42 177.023 1625.73 177.013 1626.04 177.013C1626.04 177.023 1625.65 176.936 1625.12 177.055Z" fill="#F9E6E5"/>
<path d="M1626.87 187.36C1628.73 186.867 1630 185.834 1630.81 184.582C1625.89 187.602 1621.52 182.624 1622.85 179.498C1623.63 177.652 1624.72 177.072 1625.5 176.901C1619.07 177.552 1616.53 186.59 1616.53 186.59C1617.74 185.877 1619.18 185.134 1620.91 184.35C1620.9 184.345 1622.08 188.638 1626.87 187.36Z" fill="#F9E6E5"/>
<path d="M1626.04 176.913C1626.04 176.913 1621.66 176.387 1620.76 184.207C1620.76 184.207 1620.04 177.234 1626.04 176.913Z" fill="#FFCFC8"/>
<path d="M1588.65 171.963C1589.68 167.559 1593.55 167.254 1593.55 167.254C1592.12 167.251 1590.79 167.589 1589.75 168.505C1585.26 172.46 1587.41 176.644 1588.63 177.994C1588.63 177.994 1586.31 176.86 1583.66 178.076C1591.18 177.765 1592.22 184.496 1592.22 184.496C1592.26 180.951 1594.93 181.236 1594.93 181.236C1595.46 179.42 1597.17 178.247 1598.46 177.594C1593.22 179.223 1587.71 175.971 1588.65 171.963Z" fill="#F9E6E5"/>
<path d="M1598.76 177.928C1599.28 177.765 1599.81 177.547 1600.32 177.28C1600.33 177.284 1599.64 177.484 1598.76 177.928Z" fill="#F9E6E5"/>
<path d="M1587.28 171.644C1586.31 174.467 1587.7 176.954 1588.6 177.953C1591.86 180.855 1595.54 179.007 1595.54 179.007C1585.36 179.45 1587.28 171.644 1587.28 171.644Z" fill="#FFCFC8"/>
<path d="M1601.05 204.975C1599.95 203.445 1601.23 201.324 1601.23 201.324C1599.47 201.672 1597.59 201.179 1596.27 200.008C1595.8 201.711 1596.2 203.539 1597.25 204.746C1598.44 206.099 1600.37 206.666 1602.27 206.388C1602.83 206.306 1603.36 206.172 1603.85 205.998C1602.63 206.157 1601.56 205.687 1601.05 204.975Z" fill="#F9E6E5"/>
<path d="M1594.11 193.162C1595.92 187.71 1600.19 187.379 1600.19 187.379C1595.37 184.894 1592.81 189.236 1589.73 188.561C1586.65 187.886 1586.91 183.197 1586.91 183.197C1586.91 183.197 1583.61 187.686 1580.8 185.016C1580.53 184.756 1580.32 184.494 1580.16 184.231C1580.13 187.67 1582.35 191.042 1585.75 191.615C1583.98 193.41 1583.28 196.222 1584.09 198.347C1585.81 202.833 1591.56 202.421 1595.19 199.479C1593.84 198.115 1593.2 195.934 1594.11 193.162Z" fill="#F9E6E5"/>
<path d="M1607.15 204.056C1607.06 204.183 1606.98 204.292 1606.89 204.406C1606.95 204.347 1607 204.283 1607.07 204.223C1607.09 204.164 1607.12 204.11 1607.15 204.056Z" fill="#F9E6E5"/>
<path d="M1599.16 179.775C1599.16 179.775 1601.18 184.133 1606.85 181.468C1606.85 181.468 1603.41 182.749 1604.29 185.918C1604.29 185.918 1602.82 183.565 1600.02 184.352C1600.02 184.352 1601.67 183.775 1601.45 182.792C1601.24 181.804 1599.65 181.451 1599.16 179.775Z" fill="#F9E6E5"/>
<path d="M1476.68 145.016L1474.92 146.472L1474.91 148.67L1473.21 147.527L1471.17 148.435L1471.88 146.276L1470.63 144.634L1472.77 144.447L1474.03 142.529L1474.63 144.571L1476.68 145.016Z" fill="white"/>
<path d="M1681.16 213.059L1678.72 212.275L1676.49 213.987L1676.72 211.254L1674.67 209.755L1677.24 208.852L1678.22 206.211L1679.58 208.388L1682.22 208.25L1680.49 210.504L1681.16 213.059Z" fill="white"/>
<path d="M1567.88 254.392L1566.31 253.891L1564.87 254.991L1565.01 253.23L1563.69 252.257L1565.36 251.67L1565.98 249.973L1566.87 251.373L1568.57 251.291L1567.45 252.735L1567.88 254.392Z" fill="white"/>
<path d="M1639.36 283.962L1638.46 283.671L1637.63 284.302L1637.71 283.288L1636.95 282.722L1637.91 282.395L1638.27 281.405L1638.78 282.217L1639.76 282.166L1639.12 283.012L1639.36 283.962Z" fill="white"/>
<path d="M1476.33 62.7956L1475.42 62.5004L1474.6 63.1361L1474.68 62.1221L1473.92 61.5558L1474.88 61.2288L1475.24 60.2387L1475.75 61.0513L1476.73 60.9996L1476.08 61.8418L1476.33 62.7956Z" fill="white"/>
<path d="M1641.48 130.329L1639.89 129.824L1638.46 130.937L1638.61 129.167L1637.28 128.194L1638.95 127.617L1639.57 125.911L1640.46 127.319L1642.16 127.228L1641.04 128.682L1641.48 130.329Z" fill="white"/>
<path d="M1651.35 77.3137L1649.77 76.8083L1648.34 77.9126L1648.48 76.1517L1647.16 75.1788L1648.83 74.5918L1649.45 72.895L1650.34 74.2945L1652.03 74.2125L1650.91 75.6664L1651.35 77.3137Z" fill="white"/>
</g>
</g>
<defs>
<filter id="filter0_f_272_19466" x="1703.85" y="-23.2422" width="257.383" height="260.832" filterUnits="userSpaceOnUse" color-interpolation-filters="sRGB">
<feFlood flood-opacity="0" result="BackgroundImageFix"/>
<feBlend mode="normal" in="SourceGraphic" in2="BackgroundImageFix" result="shape"/>
<feGaussianBlur stdDeviation="34.5" result="effect1_foregroundBlur_272_19466"/>
</filter>
<linearGradient id="paint0_linear_272_19466" x1="1476.45" y1="512.375" x2="3695.43" y2="512.375" gradientUnits="userSpaceOnUse">
<stop stop-color="#00506E"/>
<stop offset="1" stop-color="#36768A"/>
</linearGradient>
<linearGradient id="paint1_linear_272_19466" x1="1536.5" y1="132" x2="2883" y2="619" gradientUnits="userSpaceOnUse">
<stop stop-color="#DEF3F5"/>
<stop offset="1" stop-color="#A4E7EA"/>
</linearGradient>
<linearGradient id="paint2_linear_272_19466" x1="1802.74" y1="111.668" x2="1802.46" y2="137.193" gradientUnits="userSpaceOnUse">
<stop stop-color="#100523" stop-opacity="0.4"/>
<stop offset="1" stop-color="#1E1931" stop-opacity="0"/>
</linearGradient>
<linearGradient id="paint3_linear_272_19466" x1="1811.75" y1="112.482" x2="1811.47" y2="138.135" gradientUnits="userSpaceOnUse">
<stop stop-color="#100523" stop-opacity="0.4"/>
<stop offset="1" stop-color="#1E1931" stop-opacity="0"/>
</linearGradient>
<linearGradient id="paint4_linear_272_19466" x1="1820.71" y1="113.373" x2="1820.42" y2="139.095" gradientUnits="userSpaceOnUse">
<stop stop-color="#100523" stop-opacity="0.4"/>
<stop offset="1" stop-color="#1E1931" stop-opacity="0"/>
</linearGradient>
</defs>
</svg>
