<svg width="4010" height="1208" viewBox="0 0 4010 1208" fill="none" xmlns="http://www.w3.org/2000/svg">
<mask id="mask0_272_19485" style="mask-type:alpha" maskUnits="userSpaceOnUse" x="0" y="0" width="4010" height="1208">
<rect width="4010" height="1208" fill="#D9D9D9"/>
</mask>
<g mask="url(#mask0_272_19485)">
<path fill-rule="evenodd" clip-rule="evenodd" d="M0 0H4010L4010 335V472.181H2681.66C2665.83 472.181 2653 485.013 2653 500.842V533C2653 592.094 2605.09 640 2546 640H2538H2522.29H2236V640.034C2235.76 640.023 2235.52 640.015 2235.28 640.009C2235.02 640.003 2234.76 640 2234.5 640C2216.55 640 2202 654.551 2202 672.5C2202 690.449 2216.55 705 2234.5 705C2235 705 2235.5 704.989 2236 704.966V705H2412C2463.36 705 2505 740.285 2505 791.634C2505 842.982 2463.36 875.553 2412 875.553H1588.68C1533.75 875.553 1488.22 915.812 1480 968.432V1071.2C1480 1146.75 1418.74 1208 1343.16 1208C1295.04 1208 1252.72 1183.17 1228.32 1145.62C1213.6 1123.8 1205 1097.5 1205 1069.2V983.432C1197.25 933.85 1156.38 895.243 1105.74 890.95H0V705V640V472.181V472V417V335V0Z" fill="url(#paint0_linear_272_19485)"/>
<mask id="mask1_272_19485" style="mask-type:alpha" maskUnits="userSpaceOnUse" x="0" y="0" width="4010" height="1208">
<path fill-rule="evenodd" clip-rule="evenodd" d="M0 0H4010L4010 335V472.181H2681.66C2665.83 472.181 2653 485.013 2653 500.842V533C2653 592.094 2605.09 640 2546 640H2538H2522.29H2236V640.034C2235.76 640.023 2235.52 640.015 2235.28 640.009C2235.02 640.003 2234.76 640 2234.5 640C2216.55 640 2202 654.551 2202 672.5C2202 690.449 2216.55 705 2234.5 705C2235 705 2235.5 704.989 2236 704.966V705H2412C2463.36 705 2505 740.285 2505 791.634C2505 842.982 2463.36 875.553 2412 875.553H1588.68C1533.75 875.553 1488.22 915.812 1480 968.432V1071.2C1480 1146.75 1418.74 1208 1343.16 1208C1295.04 1208 1252.72 1183.17 1228.32 1145.62C1213.6 1123.8 1205 1097.5 1205 1069.2V983.432C1197.25 933.85 1156.38 895.243 1105.74 890.95H0V705V640V472.181V472V417V335V0Z" fill="url(#paint1_linear_272_19485)"/>
</mask>
<g mask="url(#mask1_272_19485)">
<circle cx="1352" cy="1066" r="376" fill="#C9F5F7"/>
</g>
</g>
<defs>
<linearGradient id="paint0_linear_272_19485" x1="2173" y1="253.58" x2="1309.03" y2="1177.98" gradientUnits="userSpaceOnUse">
<stop stop-color="#CAF1F3"/>
<stop offset="0.830342" stop-color="#E0F8F9"/>
</linearGradient>
<linearGradient id="paint1_linear_272_19485" x1="2173" y1="253.58" x2="1309.03" y2="1177.98" gradientUnits="userSpaceOnUse">
<stop stop-color="#CAF1F3"/>
<stop offset="0.830342" stop-color="#E0F8F9"/>
</linearGradient>
</defs>
</svg>
