<svg width="1240" height="300" viewBox="0 0 1240 300" fill="none" xmlns="http://www.w3.org/2000/svg">
<path fill-rule="evenodd" clip-rule="evenodd" d="M160 29C160 12.9837 172.984 0 189 0H1126C1142.02 0 1155 12.9837 1155 29C1155 45.0163 1142.02 58 1126 58L1080.94 58C1054.75 59.5663 1034 80.6008 1034 106.319C1034 133.057 1056.42 154.732 1084.08 154.732C1084.39 154.732 1084.7 154.729 1085 154.724V155H1167.5C1207.54 155 1240 187.459 1240 227.5C1240 267.541 1207.54 300 1167.5 300H72.5C32.4594 300 0 267.541 0 227.5C0 187.459 32.4594 155 72.5 155H263V154.935C263.102 154.936 263.205 154.936 263.307 154.936C290.968 154.936 313.391 133.215 313.391 106.421C313.391 80.6481 292.644 59.569 266.445 58L189 58C172.984 58 160 45.0163 160 29Z" fill="url(#paint0_linear_292_2)"/>
<path d="M622.095 154.62L623.648 154.696L624.473 156.181L625.018 154.539L626.523 154.118L625.309 153.025L625.413 151.284L624.12 152.248L622.677 151.594L623.092 153.282L622.095 154.62Z" fill="white"/>
<path d="M443.956 189.142L445.337 189.212L446.069 190.526L446.551 189.071L447.891 188.692L446.811 187.728L446.904 186.173L445.752 187.032L444.475 186.454L444.843 187.95L443.956 189.142Z" fill="white"/>
<path d="M621.487 206.366L621.995 206.389L622.265 206.88L622.447 206.342L622.945 206.202L622.54 205.84L622.577 205.267L622.151 205.583L621.673 205.366L621.814 205.921L621.487 206.366Z" fill="white"/>
<path d="M382.449 189.761L383.248 189.802L383.669 190.561L383.949 189.72L384.723 189.504L384.095 188.943L384.152 188.049L383.487 188.545L382.75 188.212L382.963 189.071L382.449 189.761Z" fill="white"/>
<path d="M543.826 165.801L544.625 165.842L545.046 166.602L545.326 165.76L546.1 165.544L545.477 164.983L545.529 164.089L544.864 164.586L544.127 164.253L544.34 165.112L543.826 165.801Z" fill="white"/>
<path d="M646.022 252.326L647.403 252.39L648.135 253.711L648.618 252.256L649.957 251.876L648.877 250.906L648.971 249.358L647.818 250.217L646.541 249.638L646.91 251.134L646.022 252.326Z" fill="white"/>
<path d="M583.913 173.653L584.77 173.7L585.226 174.518L585.527 173.612L586.363 173.373L585.688 172.771L585.751 171.807L585.034 172.344L584.235 171.982L584.463 172.911L583.913 173.653Z" fill="white"/>
<path d="M946.257 167.383L947.773 167.752L948.37 169.37L949.148 167.857L950.695 167.722L949.657 166.419L950.026 164.719L948.603 165.426L947.28 164.509L947.441 166.25L946.257 167.383Z" fill="white"/>
<path d="M765.494 167.785L766.844 168.106L767.368 169.544L768.064 168.2L769.439 168.083L768.515 166.926L768.842 165.413L767.581 166.044L766.403 165.231L766.543 166.774L765.494 167.785Z" fill="white"/>
<path d="M937.938 218.282L938.442 218.399L938.639 218.936L938.894 218.434L939.402 218.393L939.065 217.961L939.184 217.4L938.717 217.633L938.281 217.335L938.333 217.908L937.938 218.282Z" fill="white"/>
<path d="M704.764 156.785L705.543 156.972L705.849 157.802L706.249 157.025L707.043 156.955L706.508 156.289L706.7 155.418L705.968 155.78L705.288 155.307L705.371 156.201L704.764 156.785Z" fill="white"/>
<path d="M867.432 163.626L868.211 163.813L868.512 164.643L868.912 163.866L869.711 163.802L869.176 163.13L869.363 162.259L868.636 162.621L867.956 162.154L868.039 163.048L867.432 163.626Z" fill="white"/>
<path d="M955.285 268.22L956.635 268.548L957.159 269.985L957.855 268.641L959.23 268.518L958.306 267.361L958.633 265.854L957.372 266.479L956.194 265.667L956.334 267.215L955.285 268.22Z" fill="white"/>
<path d="M905.779 178.934L906.62 179.139L906.947 180.033L907.378 179.197L908.234 179.121L907.658 178.403L907.861 177.462L907.077 177.854L906.345 177.345L906.433 178.309L905.779 178.934Z" fill="white"/>
<path d="M501.368 262.934L503.076 263.349L503.74 265.16L504.613 263.466L506.352 263.314L505.189 261.853L505.599 259.943L504.005 260.737L502.521 259.709L502.697 261.661L501.368 262.934Z" fill="white"/>
<path d="M157.621 278.8L158.971 279.122L159.495 280.559L160.191 279.215L161.566 279.098L160.642 277.942L160.969 276.428L159.708 277.059L158.53 276.247L158.67 277.79L157.621 278.8Z" fill="white"/>
<path d="M137.168 185.444L138.518 185.771L139.042 187.203L139.738 185.859L141.113 185.742L140.189 184.585L140.516 183.072L139.255 183.703L138.077 182.891L138.217 184.433L137.168 185.444Z" fill="white"/>
<path d="M295.112 245.587L295.89 245.774L296.197 246.603L296.596 245.826L297.391 245.756L296.856 245.09L297.043 244.219L296.316 244.582L295.636 244.108L295.719 245.002L295.112 245.587Z" fill="white"/>
<path d="M197.598 198.27L198.377 198.457L198.683 199.287L199.083 198.51L199.877 198.44L199.342 197.774L199.534 196.903L198.802 197.265L198.122 196.792L198.205 197.686L197.598 198.27Z" fill="white"/>
<path d="M289.483 171.977L290.262 172.164L290.568 172.993L290.968 172.216L291.762 172.146L291.227 171.48L291.419 170.61L290.687 170.972L290.007 170.499L290.09 171.393L289.483 171.977Z" fill="white"/>
<path d="M210.369 137.923L211.719 138.251L212.243 139.688L212.939 138.344L214.314 138.221L213.39 137.065L213.717 135.557L212.456 136.182L211.278 135.37L211.418 136.918L210.369 137.923Z" fill="white"/>
<path d="M229.149 239.07L229.751 239.216L229.985 239.858L230.296 239.256L230.914 239.204L230.499 238.684L230.644 238.006L230.084 238.292L229.554 237.924L229.616 238.62L229.149 239.07Z" fill="white"/>
<defs>
<linearGradient id="paint0_linear_292_2" x1="1135" y1="16.9575" x2="20.603" y2="185.991" gradientUnits="userSpaceOnUse">
<stop stop-color="#2C4857"/>
<stop offset="1" stop-color="#36768A"/>
</linearGradient>
</defs>
</svg>
