<svg width="4010" height="417" viewBox="0 0 4010 417" fill="none" xmlns="http://www.w3.org/2000/svg">
<mask id="mask0_272_19527" style="mask-type:alpha" maskUnits="userSpaceOnUse" x="0" y="0" width="4010" height="417">
<rect width="4010" height="417" transform="matrix(-1 0 0 1 4010 0)" fill="#D9D9D9"/>
</mask>
<g mask="url(#mask0_272_19527)">
<path fill-rule="evenodd" clip-rule="evenodd" d="M2546 0C2592.39 0 2630 37.6081 2630 84C2630 130.392 2592.39 168 2546 168L2440.02 168C2416.26 168 2397 187.262 2397 211.023C2397 234.113 2415.19 252.955 2438.02 254L2462.5 254C2507.51 254 2544 290.489 2544 335.5C2544 380.511 2507.51 417 2462.5 417L0 417V415L0 254L0 0L1535 0L1565 0L2546 0Z" fill="url(#paint0_linear_272_19527)"/>
<mask id="mask1_272_19527" style="mask-type:alpha" maskUnits="userSpaceOnUse" x="1976" y="304" width="209" height="44">
<rect width="209" height="43.5223" transform="matrix(-1 1.43308e-07 2.13323e-07 1 2185 304.205)" fill="#D9D9D9"/>
</mask>
<g mask="url(#mask1_272_19527)">
<path fill-rule="evenodd" clip-rule="evenodd" d="M2077.13 350.636C2082.41 353.145 2088.69 354.599 2095.43 354.599C2102.41 354.599 2108.91 353.037 2114.3 350.358C2118.52 353.002 2123.97 354.596 2129.92 354.596C2134.22 354.596 2138.26 353.764 2141.76 352.305C2144.53 353.753 2147.9 354.603 2151.54 354.603C2155.93 354.603 2159.92 353.373 2162.93 351.352C2165.11 353.335 2168.42 354.602 2172.13 354.602C2178.67 354.602 2183.97 350.67 2183.97 345.821C2183.97 340.971 2178.67 337.04 2172.13 337.04C2170.5 337.04 2168.94 337.285 2167.53 337.728C2165.22 332.99 2159.2 329.571 2152.06 329.412C2148.31 323.108 2139.81 318.709 2129.92 318.709C2128.7 318.709 2127.5 318.776 2126.33 318.906C2120.96 310.23 2109.14 304.205 2095.43 304.205C2081.77 304.205 2069.99 310.187 2064.59 318.813C2063.73 318.744 2062.86 318.709 2061.97 318.709C2058.69 318.709 2055.56 319.193 2052.71 320.069C2047.96 316.854 2041.63 314.894 2034.69 314.894C2022.39 314.894 2012.04 321.038 2008.9 329.411C2008.74 329.408 2008.59 329.406 2008.43 329.406C2001.07 329.406 1994.81 332.876 1992.45 337.729C1991.03 337.285 1989.48 337.04 1987.84 337.04C1981.3 337.04 1976 340.971 1976 345.821C1976 350.67 1981.3 354.602 1987.84 354.602C1991.55 354.602 1994.87 353.334 1997.04 351.35C2000.05 353.372 2004.05 354.603 2008.43 354.603C2012.85 354.603 2016.88 353.351 2019.9 351.298C2024.14 353.383 2029.22 354.598 2034.69 354.598C2039.83 354.598 2044.63 353.524 2048.71 351.661C2052.51 353.517 2057.07 354.596 2061.97 354.596C2067.71 354.596 2072.98 353.113 2077.13 350.636Z" fill="white"/>
</g>
<mask id="mask2_272_19527" style="mask-type:alpha" maskUnits="userSpaceOnUse" x="744" y="285" width="303" height="64">
<rect width="303" height="63.097" transform="matrix(-1 1.43308e-07 2.13323e-07 1 1047 285)" fill="#D9D9D9"/>
</mask>
<g mask="url(#mask2_272_19527)">
<path fill-rule="evenodd" clip-rule="evenodd" d="M890.617 352.314C898.275 355.951 907.378 358.06 917.146 358.06C927.27 358.06 936.681 355.794 944.507 351.91C950.617 355.744 958.518 358.055 967.148 358.055C973.383 358.055 979.238 356.848 984.312 354.733C988.322 356.832 993.215 358.065 998.497 358.065C1004.85 358.065 1010.64 356.281 1015.01 353.352C1018.16 356.227 1022.96 358.064 1028.34 358.064C1037.82 358.064 1045.51 352.364 1045.51 345.334C1045.51 338.303 1037.82 332.604 1028.34 332.604C1025.98 332.604 1023.72 332.959 1021.67 333.601C1018.33 326.731 1009.59 321.774 999.251 321.544C993.811 312.405 981.484 306.028 967.148 306.028C965.378 306.028 963.638 306.125 961.938 306.313C954.157 293.735 937.027 285 917.146 285C897.336 285 880.257 293.673 872.437 306.179C871.188 306.079 869.92 306.028 868.635 306.028C863.882 306.028 859.349 306.729 855.216 307.999C848.319 303.338 839.148 300.495 829.082 300.495C811.262 300.495 796.247 309.403 791.691 321.542C791.468 321.538 791.244 321.535 791.019 321.535C780.351 321.535 771.267 326.566 767.845 333.603C765.793 332.959 763.536 332.604 761.168 332.604C751.688 332.604 744.003 338.303 744.003 345.334C744.003 352.364 751.688 358.064 761.168 358.064C766.552 358.064 771.356 356.226 774.503 353.35C778.872 356.28 784.665 358.065 791.019 358.065C797.429 358.065 803.267 356.249 807.648 353.273C813.789 356.296 821.158 358.057 829.082 358.057C836.533 358.057 843.494 356.5 849.405 353.8C854.927 356.49 861.535 358.055 868.635 358.055C876.958 358.055 884.603 355.905 890.617 352.314Z" fill="white"/>
</g>
<mask id="mask3_272_19527" style="mask-type:alpha" maskUnits="userSpaceOnUse" x="2468" y="62" width="72" height="15">
<rect width="71.9826" height="14.9897" transform="matrix(-1 1.43308e-07 2.13323e-07 1 2540 62)" fill="#D9D9D9"/>
</mask>
<g mask="url(#mask3_272_19527)">
<path fill-rule="evenodd" clip-rule="evenodd" d="M2502.85 77.9916C2504.67 78.8556 2506.83 79.3565 2509.15 79.3565C2511.55 79.3565 2513.79 78.8184 2515.65 77.8956C2517.1 78.8061 2518.98 79.3551 2521.03 79.355C2522.51 79.355 2523.9 79.0683 2525.11 78.5656C2526.06 79.0647 2527.22 79.3579 2528.48 79.3579C2529.99 79.3579 2531.36 78.934 2532.4 78.238C2533.15 78.9208 2534.29 79.3571 2535.57 79.3571C2537.82 79.3571 2539.64 78.0031 2539.64 76.3328C2539.64 74.6626 2537.82 73.3086 2535.57 73.3086C2535 73.3086 2534.47 73.393 2533.98 73.5457C2533.19 71.9135 2531.11 70.7359 2528.65 70.6816C2527.36 68.5105 2524.43 66.9951 2521.03 66.9951C2520.61 66.9951 2520.19 67.0182 2519.79 67.0628C2517.94 64.075 2513.87 62 2509.15 62C2504.44 62 2500.39 64.0603 2498.53 67.031C2498.23 67.0073 2497.93 66.9951 2497.62 66.9951C2496.5 66.9951 2495.42 67.1617 2494.44 67.4634C2492.8 66.3559 2490.62 65.6807 2488.23 65.6807C2483.99 65.6807 2480.43 67.7971 2479.35 70.6813C2479.29 70.6802 2479.24 70.6797 2479.19 70.6797C2476.65 70.6797 2474.49 71.8746 2473.68 73.5462C2473.19 73.3932 2472.66 73.3086 2472.09 73.3086C2469.84 73.3086 2468.02 74.6626 2468.02 76.3328C2468.02 78.0031 2469.84 79.3571 2472.09 79.3571C2473.37 79.3571 2474.51 78.9204 2475.26 78.2372C2476.3 78.9337 2477.68 79.3579 2479.19 79.3579C2480.71 79.3579 2482.1 78.9265 2483.14 78.2194C2484.6 78.9373 2486.35 79.3555 2488.23 79.3555C2490 79.3555 2491.65 78.9856 2493.06 78.3443C2494.37 78.9833 2495.94 79.355 2497.62 79.355C2499.6 79.355 2501.42 78.8445 2502.85 77.9916Z" fill="white"/>
</g>
<mask id="mask4_272_19527" style="mask-type:alpha" maskUnits="userSpaceOnUse" x="331" y="130" width="72" height="15">
<rect width="71.9826" height="14.9897" transform="matrix(-1 1.43308e-07 2.13323e-07 1 403 130)" fill="#D9D9D9"/>
</mask>
<g mask="url(#mask4_272_19527)">
<path fill-rule="evenodd" clip-rule="evenodd" d="M365.845 145.992C367.664 146.856 369.827 147.356 372.148 147.356C374.553 147.356 376.788 146.818 378.648 145.896C380.099 146.806 381.976 147.355 384.026 147.355C385.508 147.355 386.899 147.068 388.104 146.566C389.057 147.065 390.22 147.358 391.475 147.358C392.985 147.358 394.361 146.934 395.399 146.238C396.146 146.921 397.287 147.357 398.566 147.357C400.818 147.357 402.644 146.003 402.644 144.333C402.644 142.663 400.818 141.309 398.566 141.309C398.003 141.309 397.468 141.393 396.98 141.546C396.186 139.914 394.11 138.736 391.653 138.682C390.36 136.51 387.432 134.995 384.026 134.995C383.606 134.995 383.192 135.018 382.789 135.063C380.94 132.075 376.87 130 372.148 130C367.442 130 363.384 132.06 361.527 135.031C361.23 135.007 360.929 134.995 360.624 134.995C359.495 134.995 358.418 135.162 357.436 135.463C355.798 134.356 353.619 133.681 351.227 133.681C346.994 133.681 343.426 135.797 342.344 138.681C342.292 138.68 342.239 138.68 342.186 138.68C339.652 138.68 337.494 139.875 336.681 141.546C336.193 141.393 335.657 141.309 335.094 141.309C332.842 141.309 331.016 142.663 331.016 144.333C331.016 146.003 332.842 147.357 335.094 147.357C336.373 147.357 337.514 146.92 338.262 146.237C339.3 146.934 340.676 147.358 342.186 147.358C343.709 147.358 345.096 146.926 346.137 146.219C347.595 146.937 349.346 147.355 351.227 147.355C352.997 147.355 354.651 146.986 356.055 146.344C357.367 146.983 358.937 147.355 360.624 147.355C362.601 147.355 364.417 146.845 365.845 145.992Z" fill="white"/>
</g>
<mask id="mask5_272_19527" style="mask-type:alpha" maskUnits="userSpaceOnUse" x="1164" y="43" width="125" height="26">
<rect x="1164" y="43" width="125" height="26" fill="#D9D9D9"/>
</mask>
<g mask="url(#mask5_272_19527)">
<path fill-rule="evenodd" clip-rule="evenodd" d="M1229.44 70.3431C1226.33 71.8202 1222.63 72.6766 1218.67 72.6766C1214.55 72.6766 1210.73 71.7564 1207.55 70.1786C1205.07 71.7356 1201.86 72.6743 1198.35 72.6743C1195.82 72.6743 1193.45 72.1845 1191.38 71.3257C1189.76 72.1783 1187.77 72.6791 1185.62 72.6791C1183.04 72.6791 1180.69 71.9541 1178.91 70.7636C1177.64 71.9315 1175.68 72.6778 1173.5 72.6778C1169.65 72.6778 1166.53 70.3627 1166.53 67.5069C1166.53 64.651 1169.65 62.3359 1173.5 62.3359C1174.46 62.3359 1175.38 62.4804 1176.21 62.7417C1177.57 59.9518 1181.12 57.9386 1185.31 57.8443C1187.52 54.132 1192.53 51.541 1198.35 51.541C1199.07 51.541 1199.78 51.5805 1200.47 51.6568C1203.63 46.548 1210.59 43 1218.67 43C1226.71 43 1233.65 46.5228 1236.83 51.6023C1237.33 51.5618 1237.85 51.541 1238.37 51.541C1240.3 51.541 1242.14 51.826 1243.82 52.3424C1246.62 50.4487 1250.35 49.294 1254.44 49.294C1261.68 49.294 1267.77 52.9124 1269.62 57.8435C1269.71 57.8417 1269.81 57.8408 1269.9 57.8408C1274.23 57.8408 1277.92 59.884 1279.31 62.7422C1280.14 62.4806 1281.06 62.3359 1282.02 62.3359C1285.87 62.3359 1288.99 64.651 1288.99 67.5069C1288.99 70.3627 1285.87 72.6778 1282.02 72.6778C1279.84 72.6778 1277.88 71.9311 1276.61 70.7628C1274.83 71.9538 1272.48 72.6791 1269.9 72.6791C1267.29 72.6791 1264.92 71.9416 1263.14 70.7329C1260.65 71.9605 1257.65 72.6755 1254.44 72.6755C1251.41 72.6755 1248.58 72.0427 1246.18 70.9457C1243.94 72.0386 1241.25 72.6743 1238.37 72.6743C1234.99 72.6743 1231.88 71.8015 1229.44 70.3431Z" fill="white"/>
</g>
</g>
<defs>
<linearGradient id="paint0_linear_272_19527" x1="2577.74" y1="326.031" x2="1375.44" y2="326.031" gradientUnits="userSpaceOnUse">
<stop stop-color="#DEF3F5"/>
<stop offset="1" stop-color="#A4E7EA"/>
</linearGradient>
</defs>
</svg>
