<svg width="4012" height="647" viewBox="0 0 4012 647" fill="none" xmlns="http://www.w3.org/2000/svg">
<rect width="4012" height="647" fill="white"/>
<mask id="mask0_2858_3" style="mask-type:alpha" maskUnits="userSpaceOnUse" x="0" y="0" width="2806" height="647">
<rect width="2806" height="647" fill="#D9D9D9"/>
</mask>
<g mask="url(#mask0_2858_3)">
<mask id="mask1_2858_3" style="mask-type:alpha" maskUnits="userSpaceOnUse" x="999" y="440" width="193" height="68">
<rect x="999.371" y="440.146" width="192.199" height="67.7066" fill="#D9D9D9"/>
</mask>
<g mask="url(#mask1_2858_3)">
<path fill-rule="evenodd" clip-rule="evenodd" d="M1034.24 512.381C1026.03 516.282 1016.26 518.543 1005.78 518.543C994.919 518.543 984.823 516.113 976.426 511.947C969.869 516.062 961.388 518.544 952.125 518.544C945.431 518.544 939.144 517.247 933.697 514.975C929.397 517.223 924.152 518.543 918.491 518.543C911.671 518.543 905.455 516.627 900.768 513.482C897.391 516.569 892.234 518.542 886.456 518.542C876.284 518.542 868.037 512.427 868.037 504.882C868.037 497.338 876.284 491.222 886.456 491.222C888.998 491.222 891.42 491.604 893.623 492.295C897.208 484.921 906.586 479.6 917.684 479.353C923.526 469.554 936.749 462.716 952.125 462.716C954.024 462.716 955.89 462.82 957.713 463.021C966.061 449.522 984.444 440.146 1005.78 440.146C1027.04 440.146 1045.37 449.455 1053.76 462.877C1055.1 462.77 1056.46 462.716 1057.83 462.716C1062.93 462.716 1067.8 463.467 1072.23 464.83C1079.63 459.826 1089.47 456.775 1100.28 456.775C1119.4 456.775 1135.51 466.329 1140.4 479.351C1140.64 479.346 1140.88 479.344 1141.12 479.344C1152.57 479.344 1162.32 484.743 1165.99 492.295C1168.19 491.604 1170.61 491.222 1173.16 491.222C1183.33 491.222 1191.57 497.338 1191.57 504.882C1191.57 512.427 1183.33 518.542 1173.16 518.542C1167.38 518.542 1162.22 516.569 1158.84 513.482C1154.16 516.627 1147.94 518.543 1141.12 518.543C1134.25 518.543 1127.98 516.596 1123.28 513.405C1116.69 516.651 1108.78 518.542 1100.28 518.542C1092.28 518.542 1084.82 516.872 1078.47 513.976C1072.55 516.864 1065.46 518.544 1057.83 518.544C1048.9 518.544 1040.7 516.236 1034.24 512.381Z" fill="white"/>
</g>
<mask id="mask2_2858_3" style="mask-type:alpha" maskUnits="userSpaceOnUse" x="1261" y="228" width="102" height="22">
<rect width="101.341" height="21.1034" transform="matrix(-1 0 0 1 1362.8 228.497)" fill="#D9D9D9"/>
</mask>
<g mask="url(#mask2_2858_3)">
<path fill-rule="evenodd" clip-rule="evenodd" d="M1310.49 251.01C1313.05 252.227 1316.09 252.933 1319.36 252.933C1322.75 252.933 1325.9 252.174 1328.52 250.875C1330.56 252.156 1333.2 252.929 1336.09 252.929C1338.17 252.929 1340.13 252.526 1341.82 251.821C1343.16 252.524 1344.8 252.937 1346.57 252.937C1348.7 252.937 1350.64 252.339 1352.1 251.358C1353.15 252.32 1354.76 252.935 1356.56 252.935C1359.73 252.935 1362.3 251.029 1362.3 248.677C1362.3 246.326 1359.73 244.42 1356.56 244.42C1355.76 244.42 1355.01 244.539 1354.32 244.755C1353.2 242.459 1350.28 240.801 1346.83 240.722C1345.01 237.663 1340.88 235.528 1336.09 235.528C1335.49 235.528 1334.91 235.56 1334.34 235.623C1331.74 231.418 1326.01 228.497 1319.36 228.497C1312.74 228.497 1307.03 231.397 1304.41 235.579C1303.99 235.545 1303.57 235.528 1303.14 235.528C1301.55 235.528 1300.03 235.762 1298.65 236.188C1296.34 234.63 1293.27 233.68 1289.91 233.68C1283.95 233.68 1278.93 236.66 1277.4 240.721C1277.33 240.72 1277.25 240.719 1277.18 240.719C1273.61 240.719 1270.57 242.401 1269.43 244.753C1268.74 244.538 1267.99 244.42 1267.2 244.42C1264.03 244.42 1261.46 246.326 1261.46 248.677C1261.46 251.029 1264.03 252.935 1267.2 252.935C1269 252.935 1270.6 252.321 1271.65 251.361C1273.12 252.34 1275.05 252.937 1277.18 252.937C1279.32 252.937 1281.28 252.329 1282.74 251.332C1284.8 252.343 1287.26 252.932 1289.91 252.932C1292.4 252.932 1294.73 252.411 1296.71 251.508C1298.55 252.406 1300.76 252.929 1303.14 252.929C1305.92 252.929 1308.48 252.21 1310.49 251.01Z" fill="white"/>
</g>
<mask id="mask3_2858_3" style="mask-type:alpha" maskUnits="userSpaceOnUse" x="2428" y="45" width="314" height="66">
<rect x="2428.63" y="45.3554" width="313.342" height="65.2506" fill="#D9D9D9"/>
</mask>
<g mask="url(#mask3_2858_3)">
<path fill-rule="evenodd" clip-rule="evenodd" d="M2590.36 114.966C2582.44 118.728 2573.02 120.909 2562.92 120.909C2552.45 120.909 2542.72 118.566 2534.62 114.549C2528.31 118.513 2520.13 120.903 2511.21 120.903C2504.76 120.903 2498.71 119.656 2493.46 117.469C2489.32 119.639 2484.26 120.914 2478.79 120.914C2472.22 120.914 2466.23 119.069 2461.72 116.038C2458.46 119.012 2453.49 120.913 2447.93 120.913C2438.12 120.913 2430.18 115.019 2430.18 107.748C2430.18 100.478 2438.12 94.5836 2447.93 94.5836C2450.38 94.5836 2452.71 94.9513 2454.83 95.6163C2458.28 88.5126 2467.32 83.3863 2478.01 83.1463C2483.64 73.6958 2496.38 67.1001 2511.21 67.1001C2513.04 67.1001 2514.84 67.2007 2516.6 67.395C2524.65 54.3885 2542.36 45.3554 2562.92 45.3554C2583.41 45.3554 2601.07 54.3243 2609.15 67.2564C2610.45 67.1531 2611.76 67.1001 2613.09 67.1001C2618 67.1001 2622.69 67.8249 2626.96 69.1384C2634.1 64.3183 2643.58 61.3793 2653.99 61.3793C2672.42 61.3793 2687.94 70.591 2692.65 83.1443C2692.88 83.1397 2693.12 83.1374 2693.35 83.1374C2704.38 83.1374 2713.78 88.3406 2717.31 95.6189C2719.44 94.9523 2721.77 94.5836 2724.23 94.5836C2734.03 94.5836 2741.98 100.478 2741.98 107.748C2741.98 115.019 2734.03 120.913 2724.23 120.913C2718.66 120.913 2713.69 119.011 2710.43 116.035C2705.91 119.067 2699.92 120.914 2693.35 120.914C2686.72 120.914 2680.68 119.036 2676.15 115.959C2669.8 119.085 2662.18 120.906 2653.99 120.906C2646.28 120.906 2639.09 119.296 2632.97 116.504C2627.26 119.285 2620.43 120.903 2613.09 120.903C2604.48 120.903 2596.58 118.68 2590.36 114.966Z" fill="white"/>
</g>
<mask id="mask4_2858_3" style="mask-type:alpha" maskUnits="userSpaceOnUse" x="2486" y="317" width="152" height="32">
<rect width="150.264" height="31.2912" transform="matrix(-1 0 0 1 2637.13 317.475)" fill="#D9D9D9"/>
</mask>
<g mask="url(#mask4_2858_3)">
<path fill-rule="evenodd" clip-rule="evenodd" d="M2559.58 350.857C2563.38 352.661 2567.89 353.707 2572.74 353.707C2577.76 353.707 2582.42 352.583 2586.31 350.657C2589.34 352.558 2593.25 353.703 2597.53 353.703C2600.63 353.703 2603.53 353.105 2606.05 352.055C2608.04 353.095 2610.46 353.706 2613.08 353.706C2616.23 353.706 2619.1 352.821 2621.27 351.368C2622.83 352.793 2625.21 353.703 2627.88 353.703C2632.58 353.703 2636.39 350.876 2636.39 347.39C2636.39 343.903 2632.58 341.077 2627.88 341.077C2626.7 341.077 2625.59 341.253 2624.57 341.571C2622.91 338.165 2618.58 335.708 2613.45 335.594C2610.75 331.063 2604.64 327.902 2597.53 327.902C2596.66 327.902 2595.79 327.95 2594.95 328.043C2591.09 321.806 2582.6 317.475 2572.74 317.475C2562.91 317.475 2554.44 321.776 2550.57 327.977C2549.95 327.927 2549.32 327.902 2548.68 327.902C2546.32 327.902 2544.07 328.25 2542.02 328.882C2538.6 326.572 2534.05 325.163 2529.06 325.163C2520.23 325.163 2512.78 329.577 2510.52 335.593C2510.41 335.591 2510.3 335.59 2510.19 335.59C2504.9 335.59 2500.39 338.084 2498.7 341.573C2497.68 341.253 2496.56 341.077 2495.38 341.077C2490.68 341.077 2486.87 343.903 2486.87 347.39C2486.87 350.876 2490.68 353.703 2495.38 353.703C2498.05 353.703 2500.43 352.791 2502 351.365C2504.16 352.82 2507.04 353.706 2510.19 353.706C2513.36 353.706 2516.26 352.807 2518.43 351.335C2521.47 352.835 2525.13 353.709 2529.06 353.709C2532.76 353.709 2536.21 352.936 2539.15 351.595C2541.88 352.928 2545.16 353.703 2548.68 353.703C2552.81 353.703 2556.6 352.638 2559.58 350.857Z" fill="white"/>
</g>
<mask id="mask5_2858_3" style="mask-type:alpha" maskUnits="userSpaceOnUse" x="0" y="0" width="2806" height="647">
<rect width="2806" height="647" fill="#D9D9D9"/>
</mask>
<g mask="url(#mask5_2858_3)">
<path fill-rule="evenodd" clip-rule="evenodd" d="M0 0H2806V107C2806 162.228 2761.23 207 2706 207H2515.84C2516.38 207.142 2516.92 207.297 2517.45 207.467L2491.23 207.467C2474.69 207.467 2461.29 220.873 2461.29 237.411C2461.29 253.948 2474.69 267.355 2491.23 267.355H2514.32C2514.32 267.355 2514.32 267.355 2514.32 267.356H2662C2714.09 267.356 2756.32 305.659 2756.32 352.909C2756.32 400.16 2714.09 438.463 2662 438.463H2563.55C2538.75 438.463 2518.64 458.573 2518.64 483.379C2518.64 518.816 2486.96 547.544 2447.89 547.544H2374C2354.51 547.544 2338.71 563.344 2338.71 582.835C2338.71 618.272 2307.04 647 2267.97 647H0V547.544V438.463V268V267.356V207V206V0ZM2539 237C2539 238.506 2538.89 239.987 2538.69 241.436V232.564C2538.89 234.013 2539 235.494 2539 237Z" fill="url(#paint0_linear_2858_3)"/>
<path d="M1756.62 74.4043L1753.57 74.5532L1751.96 77.4624L1750.89 74.244L1747.93 73.4193L1750.32 71.2776L1750.11 67.8645L1752.65 69.7543L1755.48 68.4715L1754.66 71.7815L1756.62 74.4043Z" fill="white"/>
<path d="M2106.02 142.071L2103.31 142.209L2101.88 144.786L2100.93 141.934L2098.3 141.189L2100.42 139.3L2100.24 136.253L2102.5 137.937L2105 136.803L2104.28 139.735L2106.02 142.071Z" fill="white"/>
<path d="M1757.82 175.835L1756.82 175.881L1756.29 176.843L1755.93 175.79L1754.96 175.515L1755.75 174.805L1755.68 173.682L1756.51 174.301L1757.45 173.877L1757.18 174.965L1757.82 175.835Z" fill="white"/>
<path d="M2226.67 143.286L2225.1 143.366L2224.28 144.855L2223.73 143.206L2222.21 142.782L2223.44 141.682L2223.33 139.93L2224.63 140.904L2226.08 140.251L2225.66 141.934L2226.67 143.286Z" fill="white"/>
<path d="M1910.14 96.3206L1908.57 96.4008L1907.75 97.8897L1907.2 96.2405L1905.68 95.8167L1906.9 94.7172L1906.8 92.9648L1908.1 93.9383L1909.55 93.2855L1909.13 94.9691L1910.14 96.3206Z" fill="white"/>
<path d="M1831.51 111.712L1829.83 111.803L1828.94 113.407L1828.35 111.632L1826.71 111.162L1828.03 109.982L1827.91 108.093L1829.31 109.146L1830.88 108.436L1830.43 110.257L1831.51 111.712Z" fill="white"/>
<path d="M1120.8 99.4212L1117.82 100.143L1116.65 103.315L1115.13 100.349L1112.09 100.086L1114.13 97.5314L1113.41 94.1985L1116.2 95.5844L1118.79 93.7862L1118.48 97.1993L1120.8 99.4212Z" fill="white"/>
<path d="M1475.36 100.209L1472.71 100.839L1471.68 103.656L1470.32 101.022L1467.62 100.793L1469.43 98.525L1468.79 95.5585L1471.26 96.7955L1473.57 95.2035L1473.3 98.2272L1475.36 100.209Z" fill="white"/>
<path d="M1137.12 199.193L1136.13 199.423L1135.74 200.476L1135.24 199.491L1134.24 199.411L1134.91 198.564L1134.67 197.464L1135.59 197.922L1136.44 197.338L1136.34 198.46L1137.12 199.193Z" fill="white"/>
<path d="M1594.47 78.6476L1592.95 79.0141L1592.35 80.6404L1591.56 79.1172L1590 78.9797L1591.05 77.674L1590.68 75.9675L1592.11 76.6776L1593.45 75.7499L1593.28 77.5022L1594.47 78.6476Z" fill="white"/>
<path d="M1103.09 297.083L1100.44 297.724L1099.41 300.542L1098.05 297.908L1095.35 297.667L1097.16 295.399L1096.52 292.444L1099 293.67L1101.31 292.078L1101.03 295.113L1103.09 297.083Z" fill="white"/>
<path d="M2667.65 317.822L2665.01 318.452L2663.98 321.27L2662.61 318.636L2659.91 318.407L2661.73 316.139L2661.09 313.172L2663.56 314.409L2665.87 312.817L2665.6 315.841L2667.65 317.822Z" fill="white"/>
<path d="M2707.77 134.824L2705.13 135.465L2704.1 138.271L2702.73 135.637L2700.04 135.408L2701.85 133.14L2701.21 130.174L2703.68 131.411L2705.99 129.819L2705.72 132.842L2707.77 134.824Z" fill="white"/>
<path d="M2397.98 252.717L2396.45 253.083L2395.85 254.71L2395.07 253.186L2393.51 253.049L2394.56 251.743L2394.19 250.037L2395.62 250.747L2396.95 249.819L2396.79 251.571L2397.98 252.717Z" fill="white"/>
<path d="M2589.24 159.967L2587.72 160.334L2587.12 161.96L2586.33 160.437L2584.77 160.299L2585.82 158.993L2585.45 157.287L2586.88 157.997L2588.21 157.069L2588.05 158.822L2589.24 159.967Z" fill="white"/>
<path d="M2625.74 54.0051L2623.09 54.6465L2622.06 57.464L2620.7 54.8297L2618 54.5892L2619.81 52.3215L2619.17 49.3665L2621.65 50.592L2623.96 49L2623.68 52.0351L2625.74 54.0051Z" fill="white"/>
<path d="M2527.36 239.941L2526.18 240.227L2525.72 241.487L2525.11 240.307L2523.89 240.204L2524.71 239.185L2524.42 237.856L2525.52 238.417L2526.56 237.696L2526.44 239.059L2527.36 239.941Z" fill="white"/>
</g>
</g>
<defs>
<linearGradient id="paint0_linear_2858_3" x1="997.113" y1="33.3837" x2="2682.82" y2="550.945" gradientUnits="userSpaceOnUse">
<stop stop-color="#36768A"/>
<stop offset="1" stop-color="#2C4857"/>
</linearGradient>
</defs>
</svg>
