<svg width="4010" height="417" viewBox="0 0 4010 417" fill="none" xmlns="http://www.w3.org/2000/svg">
<mask id="mask0_272_19527" style="mask-type:alpha" maskUnits="userSpaceOnUse" x="0" y="0" width="4010" height="417">
<rect width="4010" height="417" fill="#D9D9D9"/>
</mask>
<g mask="url(#mask0_272_19527)">
<path fill-rule="evenodd" clip-rule="evenodd" d="M1464 0C1417.61 0 1380 37.6081 1380 84C1380 130.392 1417.61 168 1464 168L1569.98 168C1593.74 168 1613 187.262 1613 211.023C1613 234.113 1594.81 252.955 1571.98 254L1547.5 254C1502.49 254 1466 290.489 1466 335.5C1466 380.511 1502.49 417 1547.5 417L4010 417V415L4010 254L4010 0L2475 0L2445 0L1464 0Z" fill="url(#paint0_linear_272_19527)"/>
<mask id="mask1_272_19527" style="mask-type:alpha" maskUnits="userSpaceOnUse" x="1825" y="304" width="209" height="44">
<rect x="1825" y="304.205" width="209" height="43.5223" fill="#D9D9D9"/>
</mask>
<g mask="url(#mask1_272_19527)">
<path fill-rule="evenodd" clip-rule="evenodd" d="M1932.87 350.636C1927.59 353.145 1921.31 354.599 1914.57 354.599C1907.59 354.599 1901.09 353.037 1895.7 350.358C1891.48 353.002 1886.03 354.596 1880.08 354.596C1875.78 354.596 1871.74 353.764 1868.24 352.305C1865.47 353.753 1862.1 354.603 1858.46 354.603C1854.07 354.603 1850.08 353.373 1847.07 351.352C1844.89 353.335 1841.58 354.602 1837.87 354.602C1831.33 354.602 1826.03 350.67 1826.03 345.821C1826.03 340.971 1831.33 337.04 1837.87 337.04C1839.5 337.04 1841.06 337.285 1842.47 337.728C1844.78 332.99 1850.8 329.571 1857.94 329.412C1861.69 323.108 1870.19 318.709 1880.08 318.709C1881.3 318.709 1882.5 318.776 1883.67 318.906C1889.04 310.23 1900.86 304.205 1914.57 304.205C1928.23 304.205 1940.01 310.187 1945.41 318.813C1946.27 318.744 1947.14 318.709 1948.03 318.709C1951.31 318.709 1954.44 319.193 1957.29 320.069C1962.04 316.854 1968.37 314.894 1975.31 314.894C1987.61 314.894 1997.96 321.038 2001.1 329.411C2001.26 329.408 2001.41 329.406 2001.57 329.406C2008.93 329.406 2015.19 332.876 2017.55 337.729C2018.97 337.285 2020.52 337.04 2022.16 337.04C2028.7 337.04 2034 340.971 2034 345.821C2034 350.67 2028.7 354.602 2022.16 354.602C2018.45 354.602 2015.13 353.334 2012.96 351.35C2009.95 353.372 2005.95 354.603 2001.57 354.603C1997.15 354.603 1993.12 353.351 1990.1 351.298C1985.86 353.383 1980.78 354.598 1975.31 354.598C1970.17 354.598 1965.37 353.524 1961.29 351.661C1957.49 353.517 1952.93 354.596 1948.03 354.596C1942.29 354.596 1937.02 353.113 1932.87 350.636Z" fill="white"/>
</g>
<mask id="mask2_272_19527" style="mask-type:alpha" maskUnits="userSpaceOnUse" x="2963" y="285" width="303" height="64">
<rect x="2963" y="285" width="303" height="63.097" fill="#D9D9D9"/>
</mask>
<g mask="url(#mask2_272_19527)">
<path fill-rule="evenodd" clip-rule="evenodd" d="M3119.38 352.314C3111.73 355.951 3102.62 358.06 3092.85 358.06C3082.73 358.06 3073.32 355.794 3065.49 351.91C3059.38 355.744 3051.48 358.055 3042.85 358.055C3036.62 358.055 3030.76 356.848 3025.69 354.733C3021.68 356.832 3016.78 358.065 3011.5 358.065C3005.15 358.065 2999.36 356.281 2994.99 353.352C2991.84 356.227 2987.04 358.064 2981.66 358.064C2972.18 358.064 2964.49 352.364 2964.49 345.334C2964.49 338.303 2972.18 332.604 2981.66 332.604C2984.02 332.604 2986.28 332.959 2988.33 333.601C2991.67 326.731 3000.41 321.774 3010.75 321.544C3016.19 312.405 3028.52 306.028 3042.85 306.028C3044.62 306.028 3046.36 306.125 3048.06 306.313C3055.84 293.735 3072.97 285 3092.85 285C3112.66 285 3129.74 293.673 3137.56 306.179C3138.81 306.079 3140.08 306.028 3141.36 306.028C3146.12 306.028 3150.65 306.729 3154.78 307.999C3161.68 303.338 3170.85 300.495 3180.92 300.495C3198.74 300.495 3213.75 309.403 3218.31 321.542C3218.53 321.538 3218.76 321.535 3218.98 321.535C3229.65 321.535 3238.73 326.566 3242.15 333.603C3244.21 332.959 3246.46 332.604 3248.83 332.604C3258.31 332.604 3266 338.303 3266 345.334C3266 352.364 3258.31 358.064 3248.83 358.064C3243.45 358.064 3238.64 356.226 3235.5 353.35C3231.13 356.28 3225.34 358.065 3218.98 358.065C3212.57 358.065 3206.73 356.249 3202.35 353.273C3196.21 356.296 3188.84 358.057 3180.92 358.057C3173.47 358.057 3166.51 356.5 3160.6 353.8C3155.07 356.49 3148.47 358.055 3141.36 358.055C3133.04 358.055 3125.4 355.905 3119.38 352.314Z" fill="white"/>
</g>
<mask id="mask3_272_19527" style="mask-type:alpha" maskUnits="userSpaceOnUse" x="1470" y="62" width="72" height="15">
<rect x="1470" y="62" width="71.9826" height="14.9897" fill="#D9D9D9"/>
</mask>
<g mask="url(#mask3_272_19527)">
<path fill-rule="evenodd" clip-rule="evenodd" d="M1507.15 77.9916C1505.33 78.8556 1503.17 79.3565 1500.85 79.3565C1498.45 79.3565 1496.21 78.8184 1494.35 77.8956C1492.9 78.8061 1491.02 79.3551 1488.97 79.355C1487.49 79.355 1486.1 79.0683 1484.89 78.5656C1483.94 79.0647 1482.78 79.3579 1481.52 79.3579C1480.01 79.3579 1478.64 78.934 1477.6 78.238C1476.85 78.9208 1475.71 79.3571 1474.43 79.3571C1472.18 79.3571 1470.36 78.0031 1470.36 76.3328C1470.36 74.6626 1472.18 73.3086 1474.43 73.3086C1475 73.3086 1475.53 73.393 1476.02 73.5457C1476.81 71.9135 1478.89 70.7359 1481.35 70.6816C1482.64 68.5105 1485.57 66.9951 1488.97 66.9951C1489.39 66.9951 1489.81 67.0182 1490.21 67.0628C1492.06 64.075 1496.13 62 1500.85 62C1505.56 62 1509.61 64.0603 1511.47 67.031C1511.77 67.0073 1512.07 66.9951 1512.38 66.9951C1513.5 66.9951 1514.58 67.1617 1515.56 67.4634C1517.2 66.3559 1519.38 65.6807 1521.77 65.6807C1526.01 65.6807 1529.57 67.7971 1530.65 70.6813C1530.71 70.6802 1530.76 70.6797 1530.81 70.6797C1533.35 70.6797 1535.51 71.8746 1536.32 73.5462C1536.81 73.3932 1537.34 73.3086 1537.91 73.3086C1540.16 73.3086 1541.98 74.6626 1541.98 76.3328C1541.98 78.0031 1540.16 79.3571 1537.91 79.3571C1536.63 79.3571 1535.49 78.9204 1534.74 78.2372C1533.7 78.9337 1532.32 79.3579 1530.81 79.3579C1529.29 79.3579 1527.9 78.9265 1526.86 78.2194C1525.4 78.9373 1523.65 79.3555 1521.77 79.3555C1520 79.3555 1518.35 78.9856 1516.94 78.3443C1515.63 78.9833 1514.06 79.355 1512.38 79.355C1510.4 79.355 1508.58 78.8445 1507.15 77.9916Z" fill="white"/>
</g>
<mask id="mask4_272_19527" style="mask-type:alpha" maskUnits="userSpaceOnUse" x="3607" y="130" width="72" height="15">
<rect x="3607" y="130" width="71.9826" height="14.9897" fill="#D9D9D9"/>
</mask>
<g mask="url(#mask4_272_19527)">
<path fill-rule="evenodd" clip-rule="evenodd" d="M3644.15 145.992C3642.33 146.856 3640.17 147.356 3637.85 147.356C3635.45 147.356 3633.21 146.818 3631.35 145.896C3629.9 146.806 3628.02 147.355 3625.97 147.355C3624.49 147.355 3623.1 147.068 3621.89 146.566C3620.94 147.065 3619.78 147.358 3618.52 147.358C3617.01 147.358 3615.64 146.934 3614.6 146.238C3613.85 146.921 3612.71 147.357 3611.43 147.357C3609.18 147.357 3607.36 146.003 3607.36 144.333C3607.36 142.663 3609.18 141.309 3611.43 141.309C3612 141.309 3612.53 141.393 3613.02 141.546C3613.81 139.914 3615.89 138.736 3618.35 138.682C3619.64 136.51 3622.57 134.995 3625.97 134.995C3626.39 134.995 3626.81 135.018 3627.21 135.063C3629.06 132.075 3633.13 130 3637.85 130C3642.56 130 3646.61 132.06 3648.47 135.031C3648.77 135.007 3649.07 134.995 3649.38 134.995C3650.5 134.995 3651.58 135.162 3652.56 135.463C3654.2 134.356 3656.38 133.681 3658.77 133.681C3663.01 133.681 3666.57 135.797 3667.65 138.681C3667.71 138.68 3667.76 138.68 3667.81 138.68C3670.35 138.68 3672.51 139.875 3673.32 141.546C3673.81 141.393 3674.34 141.309 3674.91 141.309C3677.16 141.309 3678.98 142.663 3678.98 144.333C3678.98 146.003 3677.16 147.357 3674.91 147.357C3673.63 147.357 3672.49 146.92 3671.74 146.237C3670.7 146.934 3669.32 147.358 3667.81 147.358C3666.29 147.358 3664.9 146.926 3663.86 146.219C3662.4 146.937 3660.65 147.355 3658.77 147.355C3657 147.355 3655.35 146.986 3653.94 146.344C3652.63 146.983 3651.06 147.355 3649.38 147.355C3647.4 147.355 3645.58 146.845 3644.15 145.992Z" fill="white"/>
</g>
<mask id="mask5_272_19527" style="mask-type:alpha" maskUnits="userSpaceOnUse" x="2721" y="43" width="125" height="26">
<rect width="125" height="26" transform="matrix(-1 1.43308e-07 2.13323e-07 1 2846 43)" fill="#D9D9D9"/>
</mask>
<g mask="url(#mask5_272_19527)">
<path fill-rule="evenodd" clip-rule="evenodd" d="M2780.56 70.3431C2783.67 71.8202 2787.37 72.6766 2791.33 72.6766C2795.45 72.6766 2799.27 71.7564 2802.45 70.1786C2804.93 71.7356 2808.14 72.6743 2811.65 72.6743C2814.18 72.6743 2816.55 72.1845 2818.62 71.3257C2820.24 72.1783 2822.23 72.6791 2824.38 72.6791C2826.96 72.6791 2829.31 71.9541 2831.09 70.7636C2832.36 71.9315 2834.32 72.6778 2836.5 72.6778C2840.35 72.6778 2843.47 70.3627 2843.47 67.5069C2843.47 64.651 2840.35 62.3359 2836.5 62.3359C2835.54 62.3359 2834.62 62.4804 2833.79 62.7417C2832.43 59.9518 2828.88 57.9386 2824.69 57.8443C2822.48 54.132 2817.47 51.541 2811.65 51.541C2810.93 51.541 2810.22 51.5805 2809.53 51.6568C2806.37 46.548 2799.41 43 2791.33 43C2783.29 43 2776.35 46.5228 2773.17 51.6023C2772.67 51.5618 2772.15 51.541 2771.63 51.541C2769.7 51.541 2767.86 51.826 2766.18 52.3424C2763.38 50.4487 2759.65 49.294 2755.56 49.294C2748.32 49.294 2742.23 52.9124 2740.38 57.8435C2740.29 57.8417 2740.19 57.8408 2740.1 57.8408C2735.77 57.8408 2732.08 59.884 2730.69 62.7422C2729.86 62.4806 2728.94 62.3359 2727.98 62.3359C2724.13 62.3359 2721.01 64.651 2721.01 67.5069C2721.01 70.3627 2724.13 72.6778 2727.98 72.6778C2730.16 72.6778 2732.12 71.9311 2733.39 70.7628C2735.17 71.9538 2737.52 72.6791 2740.1 72.6791C2742.71 72.6791 2745.08 71.9416 2746.86 70.7329C2749.35 71.9605 2752.35 72.6755 2755.56 72.6755C2758.59 72.6755 2761.42 72.0427 2763.82 70.9457C2766.06 72.0386 2768.75 72.6743 2771.63 72.6743C2775.01 72.6743 2778.12 71.8015 2780.56 70.3431Z" fill="white"/>
</g>
</g>
<defs>
<linearGradient id="paint0_linear_272_19527" x1="1432.26" y1="326.031" x2="2634.56" y2="326.031" gradientUnits="userSpaceOnUse">
<stop stop-color="#DEF3F5"/>
<stop offset="1" stop-color="#A4E7EA"/>
</linearGradient>
</defs>
</svg>
