<svg width="4010" height="509" viewBox="0 0 4010 509" fill="none" xmlns="http://www.w3.org/2000/svg">
<mask id="mask0_272_19543" style="mask-type:alpha" maskUnits="userSpaceOnUse" x="0" y="0" width="4010" height="509">
<rect width="4010" height="509" fill="#D9D9D9"/>
</mask>
<g mask="url(#mask0_272_19543)">
<path fill-rule="evenodd" clip-rule="evenodd" d="M2373 49C2373 21.938 2351.06 0 2324 0H0V98V263V509H2568C2635.93 509 2691 453.931 2691 386C2691 318.069 2635.93 263 2568 263H2270C2228.07 260.244 2194.88 224.382 2194.88 180.547C2194.88 136.115 2228.98 99.8746 2271.72 98H2324C2351.06 98 2373 76.062 2373 49Z" fill="url(#paint0_linear_272_19543)"/>
<path d="M1609.6 246.661L1612.23 246.532L1613.63 244.014L1614.56 246.799L1617.11 247.513L1615.05 249.367L1615.23 252.321L1613.04 250.686L1610.59 251.796L1611.29 248.931L1609.6 246.661Z" fill="white"/>
<path d="M1307.36 188.091L1309.7 187.972L1310.94 185.741L1311.76 188.21L1314.03 188.854L1312.2 190.49L1312.36 193.127L1310.4 191.67L1308.24 192.651L1308.86 190.113L1307.36 188.091Z" fill="white"/>
<path d="M1608.57 158.867L1609.43 158.827L1609.89 157.994L1610.2 158.906L1611.04 159.144L1610.35 159.759L1610.42 160.73L1609.69 160.195L1608.88 160.562L1609.12 159.62L1608.57 158.867Z" fill="white"/>
<path d="M1203 187.04L1204.36 186.97L1205.07 185.682L1205.55 187.109L1206.86 187.476L1205.79 188.428L1205.89 189.944L1204.76 189.102L1203.51 189.667L1203.87 188.209L1203 187.04Z" fill="white"/>
<path d="M1476.8 227.691L1478.16 227.622L1478.87 226.333L1479.35 227.76L1480.66 228.127L1479.6 229.079L1479.69 230.596L1478.56 229.753L1477.31 230.318L1477.67 228.861L1476.8 227.691Z" fill="white"/>
<path d="M1650.2 80.8878L1652.54 80.7787L1653.78 78.5383L1654.6 81.0067L1656.87 81.6511L1655.04 83.2968L1655.2 85.9238L1653.24 84.4665L1651.08 85.448L1651.7 82.9101L1650.2 80.8878Z" fill="white"/>
<path d="M1544.82 214.369L1546.27 214.29L1547.05 212.902L1547.56 214.439L1548.97 214.845L1547.83 215.866L1547.94 217.502L1546.72 216.59L1545.36 217.205L1545.75 215.628L1544.82 214.369Z" fill="white"/>
<path d="M1852.9 224.326L1855.19 223.781L1856.08 221.342L1857.26 223.622L1859.59 223.82L1858.03 225.783L1858.58 228.351L1856.44 227.28L1854.44 228.658L1854.68 226.041L1852.9 224.326Z" fill="white"/>
<path d="M2145.48 138.649L2146.34 138.451L2146.67 137.539L2147.1 138.391L2147.96 138.461L2147.39 139.194L2147.59 140.146L2146.8 139.749L2146.06 140.255L2146.15 139.283L2145.48 138.649Z" fill="white"/>
<path d="M1749.86 242.988L1751.18 242.671L1751.7 241.263L1752.38 242.582L1753.73 242.7L1752.82 243.831L1753.15 245.308L1751.9 244.693L1750.75 245.496L1750.89 243.979L1749.86 242.988Z" fill="white"/>
<path d="M2025.85 231.381L2027.18 231.063L2027.69 229.656L2028.36 230.974L2029.72 231.083L2028.81 232.223L2029.13 233.7L2027.9 233.086L2026.74 233.879L2026.88 232.362L2025.85 231.381Z" fill="white"/>
<path d="M2174.91 53.9208L2177.2 53.3656L2178.09 50.9269L2179.27 53.207L2181.61 53.4152L2180.04 55.378L2180.59 57.9357L2178.45 56.875L2176.45 58.2529L2176.69 55.6259L2174.91 53.9208Z" fill="white"/>
<path d="M2090.92 205.408L2092.34 205.061L2092.9 203.544L2093.63 204.962L2095.08 205.091L2094.11 206.31L2094.45 207.906L2093.12 207.242L2091.88 208.104L2092.03 206.469L2090.92 205.408Z" fill="white"/>
<path d="M1404.77 62.8891L1407.67 62.1852L1408.79 59.1121L1410.27 61.987L1413.22 62.2447L1411.25 64.7231L1411.95 67.9648L1409.24 66.6166L1406.72 68.3613L1407.02 65.0502L1404.77 62.8891Z" fill="white"/>
<path d="M520.6 246.661L523.234 246.532L524.634 244.014L525.559 246.799L528.113 247.513L526.052 249.367L526.228 252.321L524.035 250.686L521.587 251.796L522.291 248.931L520.6 246.661Z" fill="white"/>
<path d="M218.355 188.091L220.698 187.972L221.94 185.741L222.759 188.21L225.031 188.854L223.199 190.49L223.358 193.127L221.403 191.67L219.236 192.651L219.861 190.113L218.355 188.091Z" fill="white"/>
<path d="M519.566 158.867L520.429 158.827L520.887 157.994L521.195 158.906L522.041 159.144L521.354 159.759L521.416 160.73L520.693 160.195L519.883 160.562L520.121 159.62L519.566 158.867Z" fill="white"/>
<path d="M114 187.04L115.356 186.97L116.069 185.682L116.545 187.109L117.857 187.476L116.792 188.428L116.889 189.944L115.761 189.102L114.511 189.667L114.872 188.209L114 187.04Z" fill="white"/>
<path d="M387.801 227.691L389.157 227.622L389.87 226.333L390.346 227.76L391.658 228.127L390.601 229.079L390.689 230.596L389.562 229.753L388.311 230.318L388.672 228.861L387.801 227.691Z" fill="white"/>
<path d="M561.195 80.8878L563.538 80.7787L564.78 78.5383L565.599 81.0067L567.871 81.6511L566.039 83.2968L566.198 85.9238L564.242 84.4665L562.076 85.448L562.701 82.9101L561.195 80.8878Z" fill="white"/>
<path d="M455.817 214.369L457.271 214.29L458.046 212.902L458.557 214.439L459.975 214.845L458.83 215.866L458.935 217.502L457.72 216.59L456.364 217.205L456.751 215.628L455.817 214.369Z" fill="white"/>
<path d="M763.9 224.326L766.19 223.781L767.08 221.342L768.26 223.622L770.594 223.82L769.026 225.783L769.581 228.351L767.441 227.28L765.441 228.658L765.679 226.041L763.9 224.326Z" fill="white"/>
<path d="M1056.48 138.649L1057.34 138.451L1057.67 137.539L1058.1 138.391L1058.96 138.461L1058.39 139.194L1058.59 140.146L1057.8 139.749L1057.06 140.255L1057.15 139.283L1056.48 138.649Z" fill="white"/>
<path d="M660.86 242.988L662.181 242.671L662.701 241.263L663.379 242.582L664.727 242.7L663.819 243.831L664.145 245.308L662.903 244.693L661.75 245.496L661.891 243.979L660.86 242.988Z" fill="white"/>
<path d="M936.854 231.381L938.175 231.063L938.686 229.656L939.364 230.974L940.721 231.083L939.814 232.223L940.131 233.7L938.898 233.086L937.744 233.879L937.885 232.362L936.854 231.381Z" fill="white"/>
<path d="M1085.91 53.9208L1088.2 53.3656L1089.09 50.9269L1090.27 53.207L1092.61 53.4152L1091.04 55.378L1091.59 57.9357L1089.45 56.875L1087.45 58.2529L1087.69 55.6259L1085.91 53.9208Z" fill="white"/>
<path d="M1001.92 205.408L1003.34 205.061L1003.9 203.544L1004.63 204.962L1006.08 205.091L1005.11 206.31L1005.45 207.906L1004.12 207.242L1002.88 208.104L1003.03 206.469L1001.92 205.408Z" fill="white"/>
<path d="M315.767 62.8891L318.665 62.1852L319.792 59.1121L321.272 61.987L324.223 62.2447L322.25 64.7231L322.946 67.9648L320.242 66.6166L317.723 68.3613L318.022 65.0502L315.767 62.8891Z" fill="white"/>
</g>
<defs>
<linearGradient id="paint0_linear_272_19543" x1="698.056" y1="28.7713" x2="2588.82" y2="315.564" gradientUnits="userSpaceOnUse">
<stop stop-color="#2C4857"/>
<stop offset="1" stop-color="#36768A"/>
</linearGradient>
</defs>
</svg>
