<svg width="4010" height="494" viewBox="0 0 4010 494" fill="none" xmlns="http://www.w3.org/2000/svg">
<mask id="mask0_4369_990" style="mask-type:alpha" maskUnits="userSpaceOnUse" x="0" y="0" width="4010" height="494">
<rect width="4010" height="494" fill="#D9D9D9"/>
</mask>
<g mask="url(#mask0_4369_990)">
<mask id="mask1_4369_990" style="mask-type:alpha" maskUnits="userSpaceOnUse" x="0" y="0" width="4010" height="494">
<rect width="4010" height="494" fill="#D9D9D9"/>
</mask>
<g mask="url(#mask1_4369_990)">
<path fill-rule="evenodd" clip-rule="evenodd" d="M-52.5 0C-71.5538 0 -87 15.4462 -87 34.5C-87 53.5538 -71.5539 69 -52.5001 69H-81V113H-81.5C-100.554 113 -116 128.446 -116 147.5C-116 166.554 -100.554 182 -81.5 182H-136V290H-490C-677.777 290 -830 442.223 -830 630C-830 817.777 -677.777 970 -490 970H4177C4364.78 970 4517 817.777 4517 630C4517 442.223 4364.78 290 4177 290H2628.18C2624.05 288.965 2621 285.232 2621 280.785C2621 275.706 2624.99 271.558 2630 271.298V271H2704.5C2723.55 271 2739 255.554 2739 236.5C2739 217.446 2723.55 202 2704.5 202H2627.62C2623.25 200.932 2620 196.988 2620 192.285C2620 186.762 2624.48 182.285 2630 182.285V182H2646.5C2665.55 182 2681 166.554 2681 147.5C2681 128.446 2665.55 113 2646.5 113H2301.15C2291.92 110.191 2285.21 101.615 2285.21 91.4727C2285.21 79.4215 2294.69 69.5832 2306.59 69H2351.5C2370.55 69 2386 53.5538 2386 34.5C2386 15.4462 2370.55 0 2351.5 0H-52.5Z" fill="url(#paint0_linear_4369_990)"/>
</g>
<mask id="mask2_4369_990" style="mask-type:alpha" maskUnits="userSpaceOnUse" x="0" y="0" width="2805" height="494">
<rect width="2805" height="494" fill="#D9D9D9"/>
</mask>
<g mask="url(#mask2_4369_990)">
<g clip-path="url(#clip0_4369_990)">
<path d="M2033.82 1126.52C2045.82 1137.57 2064.47 1136.78 2075.5 1124.83C2086.55 1112.83 2085.76 1094.18 2073.81 1083.15C2061.86 1072.11 2043.16 1072.89 2032.12 1084.84C2021.07 1096.85 2021.87 1115.49 2033.82 1126.52ZM2007.03 1089.5C2007.57 1088.96 2008.1 1088.42 2008.66 1087.83C2045.88 1047.43 2045.28 985.636 2008.65 945.917C2011.4 943.877 2013.98 941.535 2016.41 938.892C2038.3 915.137 2036.74 878.174 2013.03 856.351C2011.74 855.149 2010.35 854.047 2008.97 852.945C2011.13 851.175 2013.21 849.255 2015.09 847.15C2037.38 822.939 2035.85 785.226 2011.64 762.94C1999.67 751.965 1984.5 746.755 1969.43 747.208C1997.39 707.959 1992.47 653.119 1956.11 619.615C1945.9 610.228 1934.16 603.433 1921.81 599.176C1923.36 597.986 1924.83 596.646 1926.14 595.195C1940.14 580.008 1939.17 556.376 1923.98 542.367C1923.18 541.628 1922.31 540.93 1921.48 540.307C1927.02 537.377 1932.21 533.519 1936.68 528.63C1957.67 505.811 1956.24 470.342 1933.42 449.35C1910.6 428.358 1875.13 429.786 1854.14 452.605C1851.92 454.991 1849.97 457.521 1848.32 460.136C1827.43 443.569 1796.94 445.699 1778.57 465.618C1777.37 466.91 1776.21 468.278 1775.16 469.68C1772.56 466.701 1769.78 463.863 1766.78 461.148C1733.27 430.25 1686.3 423.182 1646.6 439.056C1644.81 425.751 1638.56 412.973 1627.88 403.199C1603.67 380.914 1565.96 382.442 1543.67 406.653C1543.32 406.993 1543.01 407.407 1542.71 407.764C1539.76 402.723 1536.07 398.035 1531.58 393.934C1507.37 371.648 1469.66 373.177 1447.37 397.388C1444.39 400.628 1441.83 404.179 1439.68 407.85C1439.34 407.497 1438.99 407.203 1438.65 406.85C1420.52 390.144 1394.7 387.128 1373.8 397.13C1368.17 383.522 1359.53 370.928 1348.04 360.281C1305.49 321.105 1239.22 323.809 1200.04 366.348C1183.61 384.179 1174.56 406.198 1172.72 428.626C1143.73 428.031 1114.66 439.368 1093.48 462.386C1064.24 494.112 1058.35 539.012 1074.88 576.062C1038.11 640.818 1049.29 724.573 1106.42 777.203C1142.34 810.262 1189 824.199 1234.06 819.637C1219.88 875.961 1236.19 938.128 1281.91 980.263C1317.64 1013.14 1364.08 1027.14 1408.9 1022.76C1400.32 1075.29 1417.46 1130.99 1459.56 1169.72C1498.17 1205.27 1549.32 1218.76 1597.4 1210.78C1605.1 1223.16 1614.47 1234.77 1625.74 1245.1C1683.02 1297.9 1767.8 1302.01 1829.38 1259.65C1880.02 1281.78 1941.27 1270.77 1980.82 1227.83C2016.36 1189.29 2024.76 1135.38 2007.15 1089.54L2007.03 1089.5Z" fill="#F4E5E4"/>
<path d="M1956.06 619.598C1945.86 610.153 1934.1 603.415 1921.75 599.159C1923.3 597.969 1924.75 596.687 1926.08 595.178C1940.09 579.991 1939.11 556.358 1923.92 542.35C1909.37 528.972 1887.12 529.341 1872.95 542.71C1872.63 539.263 1871.81 536.431 1870.69 534.646C1870.69 534.646 1866.87 521.569 1849.9 512.351C1849.9 512.351 1849.8 509.032 1854.65 507.164C1854.65 507.164 1837.57 494.627 1823.08 503.474C1808.59 512.32 1802.9 526.34 1803 532.695C1800.71 512.223 1792.97 492.238 1779.73 475.258C1799.67 458.394 1829.55 458.553 1849.27 476.738C1859.93 486.57 1865.57 499.677 1866.2 513.083C1866.92 510.194 1867.39 507.295 1867.63 504.328C1869.64 507.386 1871.95 510.279 1874.8 512.885C1892.83 529.498 1920.93 528.378 1937.56 510.29C1947.21 499.833 1950.83 485.965 1948.71 472.941C1945.85 464.131 1940.73 455.923 1933.45 449.234C1926.18 442.544 1917.54 438.114 1908.57 435.924C1895.41 434.848 1881.92 439.624 1872.28 450.08C1865.77 457.156 1862.05 465.745 1860.91 474.585C1858.39 470.239 1855.17 466.13 1851.29 462.525C1830.42 443.307 1797.88 444.646 1778.6 465.501C1777.39 466.852 1776.3 468.178 1775.24 469.639C1772.63 466.66 1769.8 463.805 1766.88 461.049C1720.36 418.175 1647.86 421.144 1605.05 467.677C1592.78 481.034 1584.27 496.444 1579.49 512.755C1583.53 506.096 1588.24 499.757 1593.72 493.775C1637.91 445.809 1712.57 442.78 1760.56 486.907C1773.86 499.159 1784.33 514.568 1790.83 531.467C1791.97 534.461 1792.99 537.479 1793.87 540.52C1794.32 541.983 1794.71 543.487 1795.09 544.99C1795.31 545.751 1796.49 548.82 1796.11 549.467C1791.24 558.098 1783.71 566.96 1773.02 568.252C1782.91 567.104 1791.93 565.45 1799.97 558.759C1800.81 558.057 1804.54 566.681 1804.84 567.4C1807.22 573.096 1806.46 578.252 1805 584.088C1804.29 586.727 1803.66 589.324 1802.95 591.963C1803.54 589.732 1808.17 586.47 1809.26 583.818C1810.84 580.168 1810.89 576.766 1810.76 572.87C1810.68 568.608 1810.09 564.384 1810.01 560.123C1809.84 547.546 1812.58 533.672 1822.42 524.918C1839.97 509.313 1845.44 520.659 1845.44 520.659C1845.44 520.659 1836.99 516.03 1830.77 526.227C1830.77 526.227 1860.21 518.411 1872.83 542.676C1872.83 542.676 1876.87 543.354 1885.93 542.217C1887.06 542.042 1888.19 541.866 1889.3 541.749C1898.78 540.923 1908.53 543.91 1916.1 550.877C1929.7 563.406 1931.13 584.198 1919.82 598.403C1891.34 589.356 1859.65 593.853 1834.61 611.499C1815.93 590.202 1790.9 603.928 1781.42 614.244C1771.94 624.56 1765.18 621.502 1761.62 615.081C1760.1 612.293 1756.5 610.542 1752.9 609.424C1757.88 612.528 1758.42 618.444 1763.59 623.251C1770.47 629.57 1788.02 613.965 1802.84 611.734C1817.61 609.486 1825.17 619.105 1825.17 619.105L1825.23 619.122C1823.16 620.983 1821.05 623.02 1819.1 625.108C1816.98 627.395 1815.01 629.791 1813.18 632.163C1817 634.233 1816.93 634.466 1818.69 635.804C1855.28 599.276 1915 597.369 1953.4 632.739C1977.62 655.024 1987.86 686.752 1983.78 717.062C1993.37 683.055 1983.92 644.978 1956.12 619.365L1956.06 619.598Z" fill="white"/>
<path d="M1544.72 412.34C1544.72 412.34 1562.36 438.074 1544 475.205C1544 475.205 1564.99 462.76 1592.1 478.178C1592.1 478.178 1612.7 455.814 1591.63 426.921C1570.56 398.027 1544.74 412.282 1544.74 412.282L1544.72 412.34Z" fill="#F4E5E4"/>
<path d="M1445.36 409.832C1445.36 409.832 1463.66 372.684 1515.64 388.752C1515.64 388.752 1495.96 392.85 1503.1 405.826C1510.24 418.802 1524 431.441 1516.21 443.328C1508.42 455.215 1525.88 477.671 1525.88 477.671C1525.88 477.671 1496.63 450.746 1466.01 470.17C1466.01 470.17 1485.95 431.291 1445.31 409.815L1445.36 409.832Z" fill="#F4E5E4"/>
<path d="M1402.06 364.421C1417.69 369.007 1434.09 360.05 1438.67 344.413C1443.26 328.777 1434.3 312.383 1418.67 307.797C1403.03 303.21 1386.63 312.168 1382.05 327.804C1377.46 343.441 1386.42 359.834 1402.06 364.421Z" fill="#F4E5E4"/>
<path d="M1770.68 431.04C1780.78 434.003 1791.38 428.215 1794.34 418.113C1797.3 408.01 1791.51 397.419 1781.41 394.455C1771.31 391.492 1760.72 397.28 1757.75 407.382C1754.79 417.485 1760.58 428.076 1770.68 431.04Z" fill="white"/>
<path d="M1437.48 520.2C1450.82 555.81 1448.91 593.399 1434.99 625.758C1460.19 595.696 1468.91 553.269 1454.12 513.945C1439.33 474.622 1404.89 448.386 1366.17 442.344C1397.96 457.553 1424.12 484.647 1437.48 520.2Z" fill="white"/>
</g>
<path d="M2229.62 258.564C2229.62 258.564 2223.47 277.312 2224.25 324.613C2225.02 371.913 2258.24 390.035 2287.84 388.853C2315.96 387.755 2345.5 369.203 2365.66 347.521C2385.82 325.84 2343.52 301.807 2342.36 287.231C2341.21 272.655 2321.68 247.96 2321.68 247.96L2306.84 239.922L2285.83 238.817L2262.5 243.951L2229.62 258.564Z" fill="#100523"/>
<path d="M2592.34 106.347C2587.67 78.0717 2480.51 69.7078 2383.45 129.628C2286.39 189.547 2198.8 263.563 2198.8 263.563C2182.91 276.277 2202.47 281.834 2228.38 285.003C2254.3 288.171 2249.92 287.039 2278.95 271.418C2307.98 255.798 2306.97 317.169 2305.41 346.92C2303.89 376.678 2328.58 371.641 2340.9 363.265C2344.77 360.62 2347.2 360.069 2348.71 360.52C2348.71 360.52 2348.85 360.553 2349.06 360.675C2349.09 360.682 2349.09 360.682 2349.12 360.688C2350.41 361.282 2354.25 363.653 2352.66 371.114C2351.61 376.09 2349.76 380.131 2348.23 382.471L2348.21 382.617C2393.58 356.989 2454.52 303.283 2454.52 303.283C2568.67 191.831 2597.01 134.588 2592.34 106.347Z" fill="white"/>
<path d="M2235.82 281.427L2235.77 281.304L2235.09 281.898C2233.84 282.735 2232.67 283.742 2231.6 284.919L2209.41 302.395C2197.76 309.44 2194.36 332.297 2201.85 353.421C2209.21 374.216 2224.35 385.604 2235.94 379.254L2235.96 379.295L2261.3 368.124C2262.59 367.816 2263.85 367.317 2265.1 366.666L2265.93 366.365L2265.88 366.242C2278.79 358.436 2282.56 333.126 2274.25 309.692C2265.95 286.257 2248.78 273.593 2235.82 281.427Z" fill="#100523"/>
<path d="M2578.27 103.036C2555.77 95.805 2522.67 93.3423 2483.97 97.8447C2491.81 100.179 2501.23 105.524 2507.96 117.473C2518.6 136.297 2574.18 118.212 2578.27 103.036Z" fill="#100523"/>
<path d="M2582.21 145.332C2589.16 126.566 2583.17 119.895 2578.34 122.35C2573.49 124.84 2527.78 162.467 2455.1 227.84C2382.42 293.213 2338.09 308.159 2325.85 309.334C2313.58 310.503 2312.3 296.779 2312.3 296.779C2312.3 296.779 2310.04 272.981 2300.77 262.453C2291.51 251.924 2273.59 261.912 2262.01 269.513C2250.44 277.08 2245.07 277.741 2239.68 278.359C2234.3 278.978 2211.33 275.045 2203.4 271.894C2195.46 268.743 2198.52 262.542 2198.52 262.542C2182.52 275.355 2202.22 280.956 2228.33 284.149C2254.45 287.342 2250.04 286.2 2279.29 270.459C2308.54 254.717 2307.48 316.594 2305.91 346.576C2304.38 376.565 2329.25 371.489 2341.67 363.047C2345.57 360.382 2348.02 359.827 2349.54 360.282C2349.54 360.282 2349.68 360.315 2349.89 360.438C2349.92 360.444 2349.92 360.444 2349.95 360.451C2351.26 361.049 2355.13 363.439 2353.52 370.958C2353.05 373.25 2352.37 375.343 2351.65 377.197C2377.84 362.559 2411.23 339.83 2448.27 304.938C2535.21 223.013 2575.27 164.098 2582.21 145.332Z" fill="#E6F2F8"/>
<path d="M2314.09 325.252C2314.49 315.861 2316.85 297.157 2308.79 262.837C2300.7 228.51 2269.51 254.147 2263.65 257.582C2257.8 261.016 2251.16 264.433 2244.87 265.055C2238.58 265.677 2220.97 263.777 2206.02 259.214C2191.07 254.652 2197.1 247.518 2197.1 247.518C2184.72 259.47 2204.27 264.878 2229.76 268.01C2256.52 271.312 2252.01 270.132 2281.99 253.862C2311.97 237.592 2310.88 301.55 2309.27 332.542C2308.17 354.205 2320.28 358.165 2332.02 355.629C2309.77 360.233 2313.69 334.643 2314.09 325.252Z" fill="#AAD3E7"/>
<path d="M2368.79 359.849C2370.23 352.726 2366.73 350.436 2365.52 349.903C2365.49 349.897 2365.49 349.897 2365.46 349.89C2365.26 349.807 2365.14 349.743 2365.14 349.743C2364.85 349.641 2364.51 349.633 2364.16 349.625C2364.39 349.82 2369.98 355.046 2362.8 369.018L2364.67 370.855L2364.7 370.682C2366.11 368.451 2367.83 364.562 2368.79 359.849Z" fill="#AAD3E7"/>
<path d="M2239.38 374.675C2252.85 367.545 2256.37 345.663 2247.25 325.799C2238.14 305.936 2219.83 295.613 2206.37 302.743C2192.9 309.872 2189.38 331.755 2198.5 351.619C2207.61 371.482 2225.92 381.805 2239.38 374.675Z" fill="#FF7B66"/>
<path d="M2237.41 371.884C2249.48 365.519 2252.43 345.441 2243.99 327.037C2235.56 308.633 2218.94 298.873 2206.87 305.238C2194.8 311.602 2191.85 331.681 2200.29 350.085C2208.72 368.489 2225.34 378.249 2237.41 371.884Z" fill="#FBCAAD"/>
<path d="M2234.99 368.309C2245.78 362.615 2248.41 344.633 2240.86 328.144C2233.3 311.655 2218.42 302.904 2207.62 308.597C2196.83 314.291 2194.2 332.273 2201.76 348.762C2209.31 365.251 2224.19 374.002 2234.99 368.309Z" fill="white"/>
<path opacity="0.6" d="M2384.66 334.327C2384.66 334.327 2387.58 348.213 2385.51 364.096C2406.33 350.109 2427.95 332.997 2443.78 319.936L2444.58 317.325L2447.29 297.216L2444.98 292.688L2384.66 334.327Z" fill="#AAD3E7"/>
<path d="M2382.23 337.402C2382.23 337.402 2435.09 293.248 2466.33 271.018C2466.33 271.018 2468.04 320.695 2462.17 330.634C2456.27 340.566 2436.8 353.584 2436.8 353.584L2382.23 337.402Z" fill="white"/>
<path d="M2382.23 337.402C2382.23 337.402 2435.09 293.248 2466.33 271.018C2466.33 271.018 2468.04 320.695 2462.17 330.634C2456.27 340.566 2436.8 353.584 2436.8 353.584L2382.23 337.402Z" fill="white"/>
<path d="M2382.23 337.402C2382.23 337.402 2435.09 293.248 2466.33 271.018C2466.33 271.018 2468.04 320.695 2462.17 330.634C2456.27 340.566 2436.8 353.584 2436.8 353.584L2382.23 337.402Z" fill="#AAD3E7"/>
<path d="M2382.04 334.035C2382.04 334.035 2434.9 289.881 2466.14 267.65C2466.14 267.65 2467.85 317.328 2461.98 327.267C2456.11 337.205 2436.61 350.217 2436.61 350.217L2382.04 334.035Z" fill="white"/>
<path d="M2382.6 328.008L2442.35 347.809L2442.09 352.141L2382.34 332.34L2382.6 328.008Z" fill="#8BC3DE"/>
<path d="M2479.04 202.603C2479.05 201.309 2478.68 201.221 2477.63 201.483C2472.83 202.749 2469.26 207.615 2469.22 213.118C2469.12 221.994 2469.44 225.275 2469.34 234.118C2469.3 238.287 2469.94 238.616 2473.55 236.318C2473.74 236.182 2473.96 236.053 2474.33 235.815C2477.29 233.401 2479.06 230.208 2479.1 226.145C2479.21 216.407 2478.88 212.33 2479.04 202.603ZM2465.03 226.596C2465.07 225.381 2464.66 225.32 2463.7 225.567C2458.91 226.907 2455.35 231.56 2455.23 236.792C2455.17 239.481 2455.18 242.149 2455.12 244.838C2455.06 248.968 2455.54 249.259 2459.14 247.068C2459.4 246.911 2459.63 246.749 2460.02 246.477C2462.81 244.458 2464.78 240.771 2464.87 237.152C2464.96 233.606 2464.92 230.102 2465.03 226.596ZM2493.34 215.683C2493.51 199.578 2493.11 194.513 2493.3 178.414C2493.31 177.047 2492.86 176.908 2491.73 177.223C2487.06 178.554 2483.55 183.326 2483.49 188.644C2483.34 203.959 2483.71 208.261 2483.65 223.561C2483.65 224.75 2482.82 226.541 2484.13 226.953C2485.15 227.296 2486.51 226.386 2487.63 225.745C2487.93 225.561 2488.23 225.344 2488.64 225.079C2491.48 222.674 2493.3 219.6 2493.34 215.683Z" fill="#FF4E33"/>
<path d="M2465.36 234.856C2465.5 233.187 2465.61 231.547 2465.72 229.907C2463.9 231.667 2462.06 233.422 2460.2 235.211C2458.73 236.638 2457.27 238.03 2455.81 239.422C2455.74 240.625 2455.66 241.828 2455.56 243.026C2455.24 247.209 2455.68 247.487 2459.25 245.135C2459.51 244.967 2459.74 244.794 2460.12 244.505C2462.94 242.328 2465.05 238.523 2465.36 234.856Z" fill="url(#paint1_linear_4369_990)"/>
<path d="M2470.44 233.816C2470.14 238.033 2470.73 238.341 2474.3 235.885C2474.49 235.741 2474.7 235.602 2475.07 235.348C2478.03 232.798 2479.91 229.505 2480.2 225.396C2480.38 222.705 2480.53 220.449 2480.63 218.404C2477.42 221.489 2474.15 224.637 2470.81 227.843C2470.73 229.56 2470.62 231.492 2470.44 233.816Z" fill="url(#paint2_linear_4369_990)"/>
<path d="M2490 226.147C2492.85 223.62 2494.77 220.417 2495.05 216.496C2495.32 212.796 2495.5 209.668 2495.67 206.868C2492.5 209.879 2489.25 213.022 2485.9 216.217C2485.76 218.728 2485.58 221.529 2485.38 224.838C2485.31 226.037 2484.42 227.875 2485.63 228.242C2486.57 228.551 2487.91 227.583 2489.01 226.895C2489.29 226.659 2489.58 226.463 2490 226.147Z" fill="url(#paint3_linear_4369_990)"/>
<path d="M2494.4 237.581C2494.96 236.65 2495.56 235.982 2496.18 235.32C2498.41 232.905 2500.91 230.15 2504.98 213.361C2506.35 207.681 2507.18 203.12 2507.87 199.113C2509.8 188.156 2510.87 182.118 2520.85 172.26C2523.75 169.377 2529.66 165.024 2537.12 159.489C2555.52 145.853 2582.19 126.132 2588.7 109.751C2588.52 109.565 2588.36 109.345 2588.18 109.16C2582.07 125.265 2555.24 145.13 2536.79 158.794C2529.29 164.356 2523.37 168.744 2520.43 171.654C2510.22 181.751 2509.14 187.897 2507.16 199.063C2506.45 203.064 2505.66 207.597 2504.28 213.237C2500.26 229.782 2497.83 232.409 2495.73 234.741C2495.08 235.471 2494.46 236.133 2493.83 237.158C2492.13 239.949 2452.88 270.576 2414.93 300.148C2396.6 314.423 2377.66 329.218 2363.74 340.258C2340.13 358.958 2327.49 363.533 2320.97 364.02C2321.16 364.32 2321.36 364.62 2321.55 364.919C2328.43 364.185 2341.17 359.158 2364.12 340.966C2378.04 329.925 2396.99 315.17 2415.31 300.855C2455.03 269.824 2492.61 240.534 2494.4 237.581Z" fill="#AAD3E7"/>
<path d="M2111.92 545.329C2111.92 545.329 2025.76 571.382 1999.46 580.349C1973.16 589.316 1968.6 565.483 1968.92 555.234C1968.92 555.234 1963.22 573.491 1947.59 581.661C1916.89 597.614 1900.45 558.296 1916.79 528.044C1905.85 530.798 1895.66 525.172 1892.44 514.509C1885.36 491.004 1907.9 463.411 1929.2 456.814C1921.33 454.755 1916.52 446.236 1916.72 436.372C1916.92 426.507 1921.72 415.646 1928.75 407.547C1951.32 381.493 1979.14 392.935 1996.28 405.967C1999.92 408.723 2002.65 413.021 2007.19 414.007C2022.69 417.415 2045.94 399.963 2060.31 389.542C2060.31 389.542 2052.22 370.125 2071.9 351.176C2088.15 335.52 2098.92 342.236 2110.64 350.429C2124.3 359.985 2140.23 346.905 2155.37 336.915C2174.52 324.268 2193.6 311.217 2212.48 297.8C2218.91 293.211 2222.23 288.03 2227.39 292.499C2229.1 294.007 2232.31 320.07 2231.01 320.94C2190.95 348.527 2095.57 463.093 2111.92 545.329Z" fill="white"/>
<path d="M2095.01 399.561C2095.98 398.326 2096.96 396.929 2097.9 395.528C2097.86 395.523 2096.91 397.518 2095.01 399.561Z" fill="#F9E6E5"/>
<path d="M2065.58 357.843C2073.1 350.539 2080.12 347.738 2086.21 347.816C2061.64 361.784 2060.55 398.317 2073.41 401.872C2080.99 403.978 2086.21 400.578 2089.24 397.434C2066.08 426.035 2033.19 409.657 2033.19 409.657C2039.16 406.117 2045.95 401.602 2053.84 395.804C2053.83 395.859 2046.16 376.681 2065.58 357.843Z" fill="#F9E6E5"/>
<path d="M2097.85 392.036C2097.85 392.036 2083 418.901 2055.42 394.844C2055.42 394.844 2074.3 424.933 2097.85 392.036Z" fill="#FFCFC8"/>
<path d="M1994.54 559.665C2010.22 568.828 2024.28 550.936 2024.28 550.936C2019.4 557.926 2013.93 563.306 2007.87 565.415C1981.63 574.544 1977.39 550.62 1977.83 540.322C1977.83 540.322 1973.05 555.27 1960.65 564.262C1987.16 528.637 1972.09 501.934 1972.09 501.934C1982.04 513.13 1990.35 499.214 1990.35 499.214C1997.19 502.452 2006.24 497.938 2012.46 493.731C1990.1 513.993 1980.26 551.347 1994.54 559.665Z" fill="#F9E6E5"/>
<path d="M2008.52 498.733C2010.75 496.707 2013.16 494.816 2015.62 493.215C2015.64 493.16 2012.75 495.852 2008.52 498.733Z" fill="#F9E6E5"/>
<path d="M1913.34 403.26C1913.82 412.736 1922.91 413.306 1922.91 413.306C1916.77 420.146 1912.37 429.996 1911.34 439.341C1905.71 436.395 1902.37 429.207 1902.52 420.938C1902.73 411.6 1907.09 401.315 1913.47 393.643C1915.34 391.396 1917.25 389.423 1919.17 387.72C1915.12 392.715 1913.1 398.872 1913.34 403.26Z" fill="#F9E6E5"/>
<path d="M1937.55 462.764C1958.04 471.269 1972.75 452.37 1972.75 452.37C1963.85 482.542 1943.88 481.03 1935.74 497.484C1927.59 513.938 1941 527.323 1941 527.323C1941 527.323 1918.28 528.758 1916.36 550.158C1916.17 552.243 1916.21 554.021 1916.39 555.595C1907.04 545.071 1905.18 524.226 1914.63 506.595C1904.07 509.292 1894.26 503.815 1891.19 493.418C1884.69 471.474 1904.39 445.952 1924.06 438.115C1923.34 448.676 1927.13 458.436 1937.55 462.764Z" fill="#F9E6E5"/>
<path d="M1934.26 383.075C1933.51 383.117 1932.85 383.172 1932.12 383.29C1932.56 383.134 1932.98 383.047 1933.42 382.891C1933.69 382.998 1933.97 383.037 1934.26 383.075Z" fill="#F9E6E5"/>
<path d="M1999.55 492.488C1999.55 492.488 1994.44 469.924 2019.32 452.086C2019.32 452.086 2005.09 463.967 1999.51 450.27C1999.51 450.27 2001.1 464.148 1990.21 474.566C1990.21 474.566 1996.91 468.795 1998.81 472.799C2000.77 476.755 1996.67 485.137 1999.55 492.488Z" fill="#F9E6E5"/>
<path d="M1193.95 308.081C1232.03 319.25 1271.95 297.436 1283.12 259.359C1294.29 221.282 1272.47 181.36 1234.39 170.192C1196.31 159.023 1156.39 180.836 1145.22 218.914C1134.05 256.991 1155.87 296.912 1193.95 308.081Z" fill="#F4E5E4"/>
</g>
</g>
<defs>
<linearGradient id="paint0_linear_4369_990" x1="2067.5" y1="-0.000133257" x2="1834.93" y2="638.169" gradientUnits="userSpaceOnUse">
<stop stop-color="#FEFAD9"/>
<stop offset="0.988556" stop-color="#FAD872"/>
</linearGradient>
<linearGradient id="paint1_linear_4369_990" x1="2462.27" y1="200.205" x2="2475.12" y2="239.975" gradientUnits="userSpaceOnUse">
<stop stop-color="#100523" stop-opacity="0.4"/>
<stop offset="1" stop-color="#1E1931" stop-opacity="0"/>
</linearGradient>
<linearGradient id="paint2_linear_4369_990" x1="2476.77" y1="198.324" x2="2489.69" y2="238.244" gradientUnits="userSpaceOnUse">
<stop stop-color="#100523" stop-opacity="0.4"/>
<stop offset="1" stop-color="#1E1931" stop-opacity="0"/>
</linearGradient>
<linearGradient id="paint3_linear_4369_990" x1="2491.22" y1="196.591" x2="2504.19" y2="236.555" gradientUnits="userSpaceOnUse">
<stop stop-color="#100523" stop-opacity="0.4"/>
<stop offset="1" stop-color="#1E1931" stop-opacity="0"/>
</linearGradient>
<clipPath id="clip0_4369_990">
<rect width="1142.73" height="877.008" fill="white" transform="translate(1155.83 210.969) rotate(16.3466)"/>
</clipPath>
</defs>
</svg>
