<svg width="4010" height="499" viewBox="0 0 4010 499" fill="none" xmlns="http://www.w3.org/2000/svg">
<mask id="mask0_4369_908" style="mask-type:alpha" maskUnits="userSpaceOnUse" x="0" y="0" width="4010" height="499">
<rect width="4010" height="499" fill="#D9D9D9"/>
</mask>
<g mask="url(#mask0_4369_908)">
<mask id="mask1_4369_908" style="mask-type:alpha" maskUnits="userSpaceOnUse" x="1318" y="0" width="2692" height="499">
<rect x="1318" width="2692" height="499" fill="#D9D9D9"/>
</mask>
<g mask="url(#mask1_4369_908)">
<path fill-rule="evenodd" clip-rule="evenodd" d="M2713.5 0C2764.97 0 2806.73 41.5914 2807 93H2807H2808.01C2808.54 120.153 2830.72 142 2858 142H4010V272V328V451H1379.5C1345.53 451 1318 423.465 1318 389.5C1318 355.534 1345.53 328 1379.5 328H1443.36C1457.08 325.05 1467.3 313.803 1467.3 300.377C1467.3 285.566 1454.86 273.404 1439 272.113V272L1436 272C1400.1 272 1371 242.899 1371 207C1371 171.101 1400.1 142 1436 142H2571C2598.61 142 2621 119.614 2621 92C2621 89.4317 2620.81 86.9087 2620.43 84.4447C2624.99 37.055 2664.92 0 2713.5 0ZM2116.35 471C2120.75 469.404 2123.83 465.717 2123.83 461.423C2123.83 455.668 2118.29 451.003 2111.46 451.003C2111.4 451.003 2111.34 451.003 2111.28 451.004C2111.19 451.005 2111.09 451.007 2111 451.01V451H4010V471H2116.35ZM2003 499C1995.27 499 1989 492.732 1989 485C1989 477.268 1995.27 471 2003 471L4010 471V499L2003 499Z" fill="url(#paint0_linear_4369_908)"/>
<path d="M1987.45 433.618L1983.41 433.434L1981.25 429.844L1979.83 433.816L1975.91 434.833L1979.08 437.476L1978.81 441.688L1982.17 439.356L1985.93 440.938L1984.85 436.854L1987.45 433.618Z" fill="white"/>
<path d="M2451.62 350.121L2448.03 349.952L2446.12 346.772L2444.86 350.291L2441.37 351.21L2444.18 353.541L2443.94 357.301L2446.94 355.223L2450.27 356.622L2449.31 353.004L2451.62 350.121Z" fill="white"/>
<path d="M1989.05 308.46L1987.72 308.404L1987.02 307.217L1986.55 308.517L1985.25 308.856L1986.3 309.732L1986.21 311.117L1987.32 310.354L1988.56 310.877L1988.2 309.534L1989.05 308.46Z" fill="white"/>
<path d="M2611.9 348.625L2609.81 348.526L2608.72 346.689L2607.99 348.724L2605.97 349.247L2607.61 350.603L2607.46 352.766L2609.19 351.564L2611.11 352.37L2610.56 350.292L2611.9 348.625Z" fill="white"/>
<path d="M2191.4 406.586L2189.31 406.487L2188.22 404.649L2187.49 406.685L2185.47 407.207L2187.09 408.564L2186.96 410.727L2188.69 409.525L2190.61 410.331L2190.06 408.253L2191.4 406.586Z" fill="white"/>
<path d="M1925.11 197.289L1921.51 197.134L1919.6 193.94L1918.35 197.459L1914.86 198.378L1917.67 200.724L1917.43 204.469L1920.43 202.391L1923.76 203.79L1922.8 200.172L1925.11 197.289Z" fill="white"/>
<path d="M2086.95 387.589L2084.72 387.476L2083.53 385.497L2082.74 387.688L2080.56 388.267L2082.32 389.723L2082.16 392.055L2084.03 390.754L2086.11 391.631L2085.51 389.384L2086.95 387.589Z" fill="white"/>
<path d="M1403.87 300.914L1400.35 300.136L1398.99 296.66L1397.17 299.91L1393.59 300.193L1396 302.991L1395.15 306.652L1398.43 305.125L1401.5 307.09L1401.14 303.359L1403.87 300.914Z" fill="white"/>
<path d="M1772.05 428.389L1770.02 427.937L1769.22 425.93L1768.18 427.81L1766.11 427.979L1767.5 429.591L1767 431.696L1768.91 430.82L1770.68 431.965L1770.46 429.803L1772.05 428.389Z" fill="white"/>
<path d="M1348.2 411.837L1346.17 411.385L1345.38 409.378L1344.34 411.258L1342.26 411.413L1343.65 413.038L1343.16 415.144L1345.06 414.268L1346.83 415.398L1346.61 413.236L1348.2 411.837Z" fill="white"/>
<path d="M2302.03 171.64L2297.58 170.637L2295.85 166.255L2293.57 170.354L2289.04 170.721L2292.07 174.255L2291 178.876L2295.16 176.954L2299.02 179.441L2298.56 174.721L2302.03 171.64Z" fill="white"/>
<path d="M3197.71 133.254L3194.19 132.476L3192.82 129L3191.01 132.25L3187.43 132.533L3189.84 135.331L3188.98 138.992L3192.27 137.465L3195.34 139.43L3194.98 135.699L3197.71 133.254Z" fill="white"/>
<path d="M3251 359.066L3247.48 358.275L3246.12 354.812L3244.31 358.063L3240.72 358.345L3243.13 361.144L3242.28 364.804L3245.56 363.278L3248.63 365.242L3248.27 361.511L3251 359.066Z" fill="white"/>
<path d="M2839.46 213.596L2837.43 213.144L2836.63 211.137L2835.59 213.017L2833.52 213.186L2834.91 214.798L2834.42 216.903L2836.32 216.027L2838.09 217.172L2837.87 215.01L2839.46 213.596Z" fill="white"/>
<path d="M3093.55 328.045L3091.52 327.593L3090.72 325.586L3089.68 327.466L3087.61 327.636L3089 329.247L3088.5 331.353L3090.41 330.476L3092.18 331.621L3091.96 329.459L3093.55 328.045Z" fill="white"/>
<path d="M2854.13 391.643L2852.1 391.191L2851.31 389.184L2850.26 391.064L2848.2 391.233L2849.59 392.844L2849.09 394.95L2851 394.074L2852.77 395.219L2852.55 393.056L2854.13 391.643Z" fill="white"/>
<path d="M3060.27 474.008L3056.75 473.216L3055.39 469.739L3053.57 472.99L3049.99 473.287L3052.4 476.085L3051.54 479.731L3054.83 478.219L3057.9 480.184L3057.54 476.438L3060.27 474.008Z" fill="white"/>
<path d="M3011.33 229.355L3009.76 229.002L3009.15 227.447L3008.34 228.903L3006.73 229.03L3007.81 230.288L3007.43 231.927L3008.9 231.235L3010.28 232.125L3010.11 230.443L3011.33 229.355Z" fill="white"/>
<path d="M3305.8 402.75L3301.85 401.859L3300.3 397.945L3298.27 401.605L3294.24 401.93L3296.94 405.082L3295.98 409.194L3299.69 407.484L3303.14 409.703L3302.72 405.492L3305.8 402.75Z" fill="white"/>
<path d="M3566.87 300.914L3563.35 300.136L3561.99 296.66L3560.17 299.91L3556.59 300.193L3559 302.991L3558.15 306.652L3561.43 305.125L3564.5 307.09L3564.14 303.359L3566.87 300.914Z" fill="white"/>
<path d="M3327.48 279.644L3326.17 279.361L3325.66 278.061L3325 279.277L3323.67 279.376L3324.55 280.421L3324.24 281.778L3325.46 281.213L3326.59 281.934L3326.46 280.549L3327.48 279.644Z" fill="white"/>
<path d="M3935.05 428.389L3933.02 427.937L3932.22 425.93L3931.18 427.81L3929.11 427.979L3930.5 429.591L3930 431.696L3931.91 430.82L3933.68 431.965L3933.46 429.803L3935.05 428.389Z" fill="white"/>
<path d="M3511.2 411.837L3509.17 411.385L3508.38 409.378L3507.34 411.258L3505.26 411.413L3506.65 413.038L3506.16 415.144L3508.06 414.268L3509.83 415.398L3509.61 413.236L3511.2 411.837Z" fill="white"/>
<path d="M3282.28 158.847L3278.76 158.056L3277.4 154.579L3275.58 157.83L3272 158.127L3274.41 160.925L3273.56 164.571L3276.84 163.059L3279.91 165.023L3279.55 161.278L3282.28 158.847Z" fill="white"/>
<path d="M3411.28 374.812L3409.09 374.317L3408.24 372.155L3407.12 374.176L3404.88 374.36L3406.39 376.098L3405.86 378.374L3407.9 377.427L3409.81 378.656L3409.58 376.324L3411.28 374.812Z" fill="white"/>
</g>
</g>
<defs>
<linearGradient id="paint0_linear_4369_908" x1="2050" y1="499" x2="2599.15" y2="-44.0002" gradientUnits="userSpaceOnUse">
<stop offset="0.0520833" stop-color="#FEFAD9"/>
<stop offset="1" stop-color="#FAD872"/>
</linearGradient>
</defs>
</svg>
