<svg width="4010" height="494" viewBox="0 0 4010 494" fill="none" xmlns="http://www.w3.org/2000/svg">
<mask id="mask0_4369_990" style="mask-type:alpha" maskUnits="userSpaceOnUse" x="0" y="0" width="4010" height="494">
<rect width="4010" height="494" fill="#D9D9D9"/>
</mask>
<g mask="url(#mask0_4369_990)">
<mask id="mask1_4369_990" style="mask-type:alpha" maskUnits="userSpaceOnUse" x="0" y="0" width="4010" height="494">
<rect width="4010" height="494" fill="#D9D9D9"/>
</mask>
<g mask="url(#mask1_4369_990)">
<path fill-rule="evenodd" clip-rule="evenodd" d="M-52.5 0C-71.5538 0 -87 15.4462 -87 34.5C-87 53.5538 -71.5539 69 -52.5001 69H-81V113H-81.5C-100.554 113 -116 128.446 -116 147.5C-116 166.554 -100.554 182 -81.5 182H-136V290H-490C-677.777 290 -830 442.223 -830 630C-830 817.777 -677.777 970 -490 970H4177C4364.78 970 4517 817.777 4517 630C4517 442.223 4364.78 290 4177 290H2628.18C2624.05 288.965 2621 285.232 2621 280.785C2621 275.706 2624.99 271.558 2630 271.298V271H2704.5C2723.55 271 2739 255.554 2739 236.5C2739 217.446 2723.55 202 2704.5 202H2627.62C2623.25 200.932 2620 196.988 2620 192.285C2620 186.762 2624.48 182.285 2630 182.285V182H2646.5C2665.55 182 2681 166.554 2681 147.5C2681 128.446 2665.55 113 2646.5 113H2301.15C2291.92 110.191 2285.21 101.615 2285.21 91.4727C2285.21 79.4215 2294.69 69.5832 2306.59 69H2351.5C2370.55 69 2386 53.5538 2386 34.5C2386 15.4462 2370.55 0 2351.5 0H-52.5Z" fill="url(#paint0_linear_4369_990)"/>
</g>
<mask id="mask2_4369_990" style="mask-type:alpha" maskUnits="userSpaceOnUse" x="0" y="0" width="2805" height="494">
<rect width="2805" height="494" fill="#D9D9D9"/>
</mask>
<g mask="url(#mask2_4369_990)">
<path d="M1194.95 308.073C1233.03 319.242 1272.95 297.429 1284.12 259.351C1295.29 221.274 1273.47 181.353 1235.39 170.184C1197.31 159.015 1157.39 180.829 1146.22 218.906C1135.05 256.983 1156.87 296.905 1194.95 308.073Z" fill="#F4E5E4"/>
<g clip-path="url(#clip0_4369_990)">
<path d="M2034.82 1126.47C2046.82 1137.52 2065.47 1136.72 2076.5 1124.78C2087.55 1112.77 2086.76 1094.13 2074.81 1083.09C2062.86 1072.06 2044.16 1072.84 2033.12 1084.79C2022.07 1096.79 2022.87 1115.44 2034.82 1126.47ZM2008.03 1089.45C2008.57 1088.91 2009.1 1088.37 2009.66 1087.77C2046.88 1047.38 2046.28 985.581 2009.65 945.863C2012.4 943.822 2014.98 941.48 2017.41 938.837C2039.3 915.082 2037.74 878.119 2014.03 856.296C2012.74 855.094 2011.35 853.992 2009.97 852.89C2012.13 851.12 2014.21 849.2 2016.09 847.095C2038.38 822.884 2036.85 785.171 2012.64 762.886C2000.67 751.911 1985.5 746.7 1970.43 747.153C1998.39 707.905 1993.47 653.064 1957.11 619.56C1946.9 610.173 1935.16 603.378 1922.81 599.122C1924.36 597.932 1925.83 596.591 1927.14 595.141C1941.14 579.953 1940.17 556.321 1924.98 542.313C1924.18 541.573 1923.31 540.875 1922.48 540.252C1928.02 537.322 1933.21 533.464 1937.68 528.575C1958.67 505.756 1957.24 470.287 1934.42 449.295C1911.6 428.304 1876.13 429.731 1855.14 452.55C1852.92 454.936 1850.97 457.466 1849.32 460.081C1828.43 443.515 1797.94 445.644 1779.57 465.563C1778.37 466.855 1777.21 468.223 1776.16 469.625C1773.56 466.647 1770.78 463.808 1767.78 461.094C1734.27 430.195 1687.3 423.127 1647.6 439.002C1645.81 425.696 1639.56 412.918 1628.88 403.145C1604.67 380.859 1566.96 382.387 1544.67 406.598C1544.32 406.938 1544.01 407.353 1543.71 407.709C1540.76 402.668 1537.07 397.981 1532.58 393.88C1508.37 371.594 1470.66 373.122 1448.37 397.333C1445.39 400.573 1442.83 404.124 1440.68 407.795C1440.34 407.442 1439.99 407.148 1439.65 406.795C1421.52 390.09 1395.7 387.073 1374.8 397.075C1369.17 383.468 1360.53 370.873 1349.04 360.227C1306.49 321.05 1240.22 323.754 1201.04 366.293C1184.61 384.124 1175.56 406.143 1173.72 428.571C1144.73 427.976 1115.66 439.313 1094.48 462.332C1065.24 494.058 1059.35 538.957 1075.88 576.008C1039.11 640.763 1050.29 724.518 1107.42 777.148C1143.34 810.207 1190 824.144 1235.06 819.582C1220.88 875.906 1237.19 938.074 1282.91 980.208C1318.64 1013.08 1365.08 1027.08 1409.9 1022.7C1401.32 1075.23 1418.46 1130.93 1460.56 1169.66C1499.17 1205.22 1550.32 1218.7 1598.4 1210.73C1606.1 1223.11 1615.47 1234.71 1626.74 1245.04C1684.02 1297.84 1768.8 1301.95 1830.38 1259.6C1881.02 1281.73 1942.27 1270.72 1981.82 1227.78C2017.36 1189.23 2025.76 1135.33 2008.15 1089.48L2008.03 1089.45Z" fill="#F4E5E4"/>
<path d="M1957.06 619.543C1946.86 610.098 1935.1 603.361 1922.75 599.104C1924.3 597.914 1925.75 596.632 1927.08 595.124C1941.09 579.936 1940.11 556.304 1924.92 542.296C1910.37 528.917 1888.12 529.286 1873.95 542.655C1873.63 539.209 1872.81 536.376 1871.69 534.592C1871.69 534.592 1867.87 521.514 1850.9 512.297C1850.9 512.297 1850.8 508.977 1855.65 507.11C1855.65 507.11 1838.57 494.572 1824.08 503.419C1809.59 512.265 1803.9 526.285 1804 532.641C1801.71 512.168 1793.97 492.183 1780.73 475.203C1800.67 458.339 1830.55 458.499 1850.27 476.683C1860.93 486.515 1866.57 499.622 1867.2 513.028C1867.92 510.139 1868.39 507.241 1868.63 504.273C1870.64 507.331 1872.95 510.225 1875.8 512.83C1893.83 529.443 1921.93 528.323 1938.56 510.235C1948.21 499.778 1951.83 485.91 1949.71 472.886C1946.85 464.076 1941.73 455.868 1934.45 449.179C1927.18 442.49 1918.54 438.059 1909.57 435.87C1896.41 434.793 1882.92 439.569 1873.28 450.025C1866.77 457.102 1863.05 465.69 1861.91 474.53C1859.39 470.184 1856.17 466.075 1852.29 462.471C1831.42 443.252 1798.88 444.592 1779.6 465.446C1778.39 466.797 1777.3 468.124 1776.24 469.584C1773.63 466.605 1770.8 463.75 1767.88 460.994C1721.36 418.121 1648.86 421.089 1606.05 467.623C1593.78 480.979 1585.27 496.389 1580.49 512.701C1584.53 506.041 1589.24 499.703 1594.72 493.72C1638.91 445.754 1713.57 442.725 1761.56 486.852C1774.86 499.104 1785.33 514.513 1791.83 531.413C1792.97 534.406 1793.99 537.424 1794.87 540.466C1795.32 541.928 1795.71 543.432 1796.09 544.936C1796.31 545.696 1797.49 548.765 1797.11 549.413C1792.24 558.043 1784.71 566.905 1774.02 568.198C1783.91 567.049 1792.93 565.395 1800.97 558.705C1801.81 558.002 1805.54 566.626 1805.84 567.345C1808.22 573.041 1807.46 578.198 1806 584.033C1805.29 586.672 1804.66 589.269 1803.95 591.908C1804.54 589.677 1809.17 586.416 1810.26 583.763C1811.84 580.113 1811.89 576.711 1811.76 572.816C1811.68 568.554 1811.09 564.33 1811.01 560.068C1810.84 547.491 1813.58 533.617 1823.42 524.863C1840.97 509.258 1846.44 520.605 1846.44 520.605C1846.44 520.605 1837.99 515.975 1831.77 526.172C1831.77 526.172 1861.21 518.357 1873.83 542.621C1873.83 542.621 1877.87 543.3 1886.93 542.162C1888.06 541.987 1889.19 541.811 1890.3 541.694C1899.78 540.868 1909.53 543.855 1917.1 550.822C1930.7 563.351 1932.13 584.143 1920.82 598.349C1892.34 589.301 1860.65 593.799 1835.61 611.444C1816.93 590.148 1791.9 603.874 1782.42 614.19C1772.94 624.506 1766.18 621.448 1762.62 615.026C1761.1 612.239 1757.5 610.487 1753.9 609.369C1758.88 612.473 1759.42 618.39 1764.59 623.196C1771.47 629.515 1789.02 613.911 1803.84 611.68C1818.61 609.432 1826.17 619.05 1826.17 619.05L1826.23 619.067C1824.16 620.929 1822.05 622.965 1820.1 625.053C1817.98 627.34 1816.01 629.736 1814.18 632.108C1818 634.178 1817.93 634.411 1819.69 635.75C1856.28 599.222 1916 597.314 1954.4 632.684C1978.62 654.97 1988.86 686.698 1984.78 717.007C1994.37 683 1984.92 644.923 1957.12 619.31L1957.06 619.543Z" fill="white"/>
<path d="M1545.72 412.285C1545.72 412.285 1563.36 438.019 1545 475.15C1545 475.15 1565.99 462.705 1593.1 478.123C1593.1 478.123 1613.7 455.76 1592.63 426.866C1571.56 397.973 1545.74 412.227 1545.74 412.227L1545.72 412.285Z" fill="#F4E5E4"/>
<path d="M1446.36 409.778C1446.36 409.778 1464.66 372.629 1516.64 388.697C1516.64 388.697 1496.96 392.795 1504.1 405.771C1511.24 418.747 1525 431.386 1517.21 443.273C1509.42 455.161 1526.88 477.616 1526.88 477.616C1526.88 477.616 1497.63 450.691 1467.01 470.116C1467.01 470.116 1486.95 431.236 1446.31 409.76L1446.36 409.778Z" fill="#F4E5E4"/>
<path d="M1403.06 364.366C1418.69 368.953 1435.09 359.995 1439.67 344.359C1444.26 328.722 1435.3 312.328 1419.67 307.742C1404.03 303.156 1387.63 312.113 1383.05 327.75C1378.46 343.386 1387.42 359.78 1403.06 364.366Z" fill="#F4E5E4"/>
<path d="M1771.68 430.985C1781.78 433.948 1792.38 428.161 1795.34 418.058C1798.3 407.956 1792.51 397.364 1782.41 394.401C1772.31 391.437 1761.72 397.225 1758.75 407.327C1755.79 417.43 1761.58 428.022 1771.68 430.985Z" fill="white"/>
<path d="M1438.48 520.145C1451.82 555.756 1449.91 593.344 1435.99 625.703C1461.19 595.642 1469.91 553.214 1455.12 513.89C1440.33 474.567 1405.89 448.332 1367.17 442.289C1398.96 457.498 1425.12 484.592 1438.48 520.145Z" fill="white"/>
</g>
<path d="M2230.62 258.564C2230.62 258.564 2224.47 277.312 2225.25 324.613C2226.02 371.913 2259.24 390.035 2288.84 388.853C2316.97 387.755 2346.51 369.203 2366.67 347.521C2386.83 325.84 2344.52 301.807 2343.37 287.231C2342.21 272.655 2322.69 247.96 2322.69 247.96L2307.85 239.922L2286.83 238.817L2263.5 243.951L2230.62 258.564Z" fill="#100523"/>
<path d="M2593.34 106.347C2588.67 78.0717 2481.51 69.7078 2384.45 129.628C2287.39 189.547 2199.8 263.563 2199.8 263.563C2183.92 276.277 2203.47 281.834 2229.39 285.003C2255.3 288.171 2250.92 287.039 2279.95 271.418C2308.98 255.798 2307.97 317.169 2306.42 346.92C2304.89 376.678 2329.58 371.641 2341.9 363.265C2345.77 360.62 2348.2 360.069 2349.71 360.52C2349.71 360.52 2349.85 360.553 2350.06 360.675C2350.09 360.682 2350.09 360.682 2350.12 360.688C2351.42 361.282 2355.26 363.653 2353.66 371.114C2352.61 376.09 2350.76 380.131 2349.24 382.471L2349.22 382.617C2394.58 356.989 2455.52 303.283 2455.52 303.283C2569.67 191.831 2598.01 134.588 2593.34 106.347Z" fill="white"/>
<path d="M2247 284.919L2244 288L2236.82 288C2235.56 288.837 2233.67 283.742 2232.6 284.919L2210.41 302.395C2198.76 309.44 2195.36 332.298 2202.85 353.421C2210.21 374.216 2225.35 385.604 2236.94 379.254L2236.96 379.295L2262.3 368.124C2263.59 367.817 2264.85 367.317 2266.11 366.666L2266.93 366.365L2266.88 366.242C2279.8 358.436 2283.56 333.127 2275.26 309.692C2266.95 286.257 2259.96 277.085 2247 284.919Z" fill="#100523"/>
<path d="M2580.84 95.5154C2551.5 83.9961 2518.13 87.2433 2475 94.0839C2483.88 96.3346 2494.69 101.882 2502.78 114.951C2515.57 135.539 2576.97 112.702 2580.84 95.5154Z" fill="#100523"/>
<path d="M2588 141.996C2595.01 123.138 2595 103.997 2592.5 111.996C2581 137.997 2527.28 165.291 2454.5 230.997C2381.72 296.702 2335.62 313.623 2323.41 314.806C2311.17 315.983 2309.96 302.194 2309.96 302.194C2309.96 302.194 2307.82 278.281 2298.63 267.704C2289.43 257.127 2273.59 267.86 2262 275.501C2250.43 283.107 2243.01 283.078 2237.64 283.701C2232.26 284.324 2209.38 280.377 2201.48 277.213C2193.58 274.049 2196.67 267.817 2196.67 267.817C2180.65 280.696 2200.27 286.319 2226.29 289.521C2252.31 292.724 2247.92 291.578 2277.16 275.754C2306.41 259.93 2304.2 316.874 2302.5 347.001C2300.83 377.135 2326.52 377.26 2338.94 368.775C2342.84 366.096 2345.29 365.538 2346.8 365.994C2346.8 365.994 2346.94 366.027 2347.15 366.151C2347.18 366.157 2347.18 366.157 2347.21 366.164C2348.51 366.764 2352.36 369.165 2350.72 376.721C2350.24 379.024 2349.55 381.127 2348.82 382.991C2375.01 368.276 2411.91 343.567 2449 308.498C2536.08 226.157 2580.99 160.855 2588 141.996Z" fill="#E6F2F8"/>
<path d="M2312.5 343.5C2312.89 334.47 2312.85 313.053 2305.1 280.053C2297.32 247.046 2267.33 271.697 2261.7 274.999C2256.07 278.302 2249.69 281.588 2243.64 282.186C2237.59 282.783 2220.65 280.957 2206.28 276.569C2191.9 272.182 2197.7 265.323 2197.7 265.323C2185.8 276.815 2204.6 282.015 2229.11 285.027C2254.84 288.201 2250.5 287.067 2279.33 271.423C2308.16 255.778 2309.42 320.71 2307.87 350.509C2306.81 371.34 2318.45 375.147 2329.74 372.709C2308.35 377.136 2312.12 352.53 2312.5 343.5Z" fill="#AAD3E7"/>
<path d="M2351.5 375.515C2352 368.996 2348.85 366.427 2347.97 366.119C2347.95 366.116 2347.95 366.116 2347.93 366.113C2347.78 366.065 2347.69 366.027 2347.69 366.027C2347.49 365.97 2347.25 365.984 2347 365.997C2347.17 366.122 2352.08 372.072 2347.79 382.288L2349.2 383.479L2349.21 383.355C2350.08 381.71 2351.08 378.881 2351.5 375.515Z" fill="#AAD3E7"/>
<path d="M2240.39 374.675C2253.85 367.545 2257.37 345.663 2248.26 325.799C2239.14 305.936 2220.83 295.613 2207.37 302.743C2193.9 309.872 2190.38 331.755 2199.5 351.619C2208.62 371.482 2226.92 381.805 2240.39 374.675Z" fill="#FF7B66"/>
<path d="M2238.41 371.884C2250.48 365.519 2253.43 345.441 2245 327.037C2236.56 308.633 2219.94 298.873 2207.87 305.238C2195.8 311.602 2192.86 331.681 2201.29 350.085C2209.72 368.489 2226.34 378.249 2238.41 371.884Z" fill="#FBCAAD"/>
<path d="M2235.99 368.309C2246.79 362.615 2249.41 344.633 2241.86 328.144C2234.3 311.655 2219.42 302.904 2208.63 308.597C2197.83 314.291 2195.2 332.273 2202.76 348.762C2210.31 365.251 2225.19 374.002 2235.99 368.309Z" fill="white"/>
<path opacity="0.6" d="M2383 336.996C2383 336.996 2383.59 346.584 2381.52 362.466C2402.34 348.479 2423.97 331.367 2439.8 318.307L2440.6 315.696L2443.31 295.586L2441 291.058L2383 336.996Z" fill="#AAD3E7"/>
<path d="M2383.23 337.402C2383.23 337.402 2436.09 293.248 2467.33 271.018C2467.33 271.018 2469.04 320.695 2463.17 330.634C2457.27 340.566 2437.8 353.584 2437.8 353.584L2383.23 337.402Z" fill="white"/>
<path d="M2383.23 337.402C2383.23 337.402 2436.09 293.248 2467.33 271.018C2467.33 271.018 2469.04 320.695 2463.17 330.634C2457.27 340.566 2437.8 353.584 2437.8 353.584L2383.23 337.402Z" fill="white"/>
<path d="M2383.23 337.402C2383.23 337.402 2436.09 293.248 2467.33 271.018C2467.33 271.018 2469.04 320.695 2463.17 330.634C2457.27 340.566 2437.8 353.584 2437.8 353.584L2383.23 337.402Z" fill="#AAD3E7"/>
<path d="M2383.04 334.035C2383.04 334.035 2435.9 289.881 2467.14 267.65C2467.14 267.65 2468.85 317.328 2462.98 327.267C2457.11 337.205 2437.61 350.217 2437.61 350.217L2383.04 334.035Z" fill="white"/>
<path d="M2383 333.996L2438 349.996L2438 353.496L2383 337.496L2383 333.996Z" fill="#8BC3DE"/>
<path d="M2476.92 195.816C2476.98 194.523 2476.6 194.422 2475.54 194.644C2470.71 195.732 2466.96 200.461 2466.71 205.959C2466.28 214.825 2466.47 218.115 2466.05 226.948C2465.85 231.113 2466.48 231.465 2470.17 229.303C2470.37 229.175 2470.59 229.054 2470.97 228.83C2474.02 226.527 2475.9 223.403 2476.09 219.344C2476.57 209.616 2476.39 205.53 2476.92 195.816ZM2462.02 219.271C2462.11 218.058 2461.69 217.983 2460.73 218.194C2455.89 219.354 2452.17 223.872 2451.85 229.096C2451.69 231.781 2451.6 234.448 2451.44 237.133C2451.23 241.257 2451.7 241.566 2455.38 239.51C2455.64 239.363 2455.88 239.209 2456.27 238.953C2459.13 237.038 2461.24 233.427 2461.46 229.814C2461.69 226.274 2461.78 222.771 2462.02 219.271ZM2490.72 209.419C2491.48 193.331 2491.27 188.255 2492.06 172.174C2492.12 170.808 2491.68 170.652 2490.54 170.926C2485.82 172.082 2482.14 176.72 2481.88 182.032C2481.16 197.331 2481.37 201.644 2480.74 216.931C2480.69 218.118 2479.8 219.878 2481.1 220.338C2482.1 220.719 2483.49 219.86 2484.64 219.261C2484.94 219.089 2485.25 218.883 2485.67 218.634C2488.6 216.335 2490.53 213.331 2490.72 209.419Z" fill="#FF4E33"/>
<path d="M2461.51 229.023C2461.56 227.344 2461.57 225.693 2461.58 224.043C2459.73 225.846 2457.85 227.644 2455.96 229.476C2454.46 230.937 2452.97 232.363 2451.49 233.79C2451.48 235 2451.47 236.211 2451.44 237.416C2451.37 241.626 2451.86 241.896 2455.57 239.467C2455.83 239.293 2456.07 239.115 2456.46 238.817C2459.37 236.577 2461.41 232.714 2461.51 229.023Z" fill="url(#paint1_linear_4369_990)"/>
<path d="M2466.15 226.824C2466.13 231.073 2466.8 231.375 2470.57 228.852C2470.77 228.704 2471 228.561 2471.38 228.3C2474.46 225.692 2476.3 222.35 2476.32 218.21C2476.32 215.498 2476.33 213.225 2476.29 211.165C2472.96 214.317 2469.59 217.532 2466.13 220.807C2466.16 222.536 2466.18 224.483 2466.15 226.824Z" fill="url(#paint2_linear_4369_990)"/>
<path d="M2485.67 218.461C2488.67 215.999 2490.65 212.84 2490.84 208.927C2491.02 205.234 2491.14 202.111 2491.24 199.316C2487.91 202.256 2484.5 205.325 2480.98 208.443C2480.89 210.951 2480.79 213.746 2480.66 217.049C2480.61 218.246 2479.71 220.064 2481.02 220.458C2482.04 220.788 2483.46 219.85 2484.63 219.187C2484.92 218.958 2485.23 218.768 2485.67 218.461Z" fill="url(#paint3_linear_4369_990)"/>
<path d="M2498.66 242.025C2499.24 241.054 2499.85 240.354 2500.48 239.66C2502.76 237.13 2505.32 234.244 2509.35 216.793C2510.7 210.889 2511.5 206.152 2512.16 201.989C2514.04 190.609 2515.08 184.337 2525.3 174C2528.27 170.977 2534.34 166.394 2542.01 160.568C2560.93 146.213 2587.1 127.329 2593.65 110.272C2593.76 109.991 2593.68 109.188 2593.5 108.997C2587.36 125.765 2560.63 145.467 2541.67 159.851C2533.96 165.706 2527.87 170.325 2524.86 173.376C2514.4 183.964 2513.35 190.348 2511.43 201.946C2510.74 206.102 2509.98 210.81 2508.61 216.672C2504.64 233.871 2502.16 236.623 2500 239.066C2499.34 239.83 2498.71 240.523 2498.06 241.594C2496.33 244.507 2455.48 275.391 2416.5 306.496C2397.67 321.512 2378.75 338.405 2364.45 350.015C2340.2 369.681 2332 373.563 2322.5 372.996C2322.71 373.304 2322.3 373.687 2322.5 373.996C2327.5 373.996 2335 376.992 2364.85 350.744C2379.15 339.134 2398.09 322.282 2416.9 307.225C2457.71 274.586 2496.84 245.108 2498.66 242.025Z" fill="#AAD3E7"/>
<path d="M2120.22 574.822C2120.22 574.822 2010.56 592.971 1977.36 599.559C1944.16 606.146 1931.43 581.05 1929.04 570.489C1929.04 570.489 1926.33 588.778 1907.38 595.63C1870.14 608.99 1837.03 566.677 1850.87 537.075C1836.79 538.806 1821.42 531.953 1814.13 520.605C1798.05 495.589 1821.03 469.367 1848.1 464.719C1836.86 461.789 1828 452.494 1825.56 442.319C1823.12 432.145 1826.63 421.407 1833.93 413.753C1857.38 389.125 1898.25 403.785 1925.07 419C1930.77 422.221 1935.66 426.941 1942.08 428.422C1964.04 433.524 1990.76 417.855 2007.38 408.548C2007.38 408.548 1991.07 387.655 2012.54 370.075C2030.27 355.549 2046.72 363.588 2064.87 373.25C2086.03 384.519 2104.03 372.624 2121.81 363.841C2144.29 352.72 2166.58 341.175 2188.49 329.232C2195.95 325.145 2199.02 320.127 2207.25 325.272C2209.99 327.006 2221.51 354.269 2219.98 355.037C2173.25 379.468 2075.42 488.16 2120.22 574.822Z" fill="white"/>
<path d="M2012.5 369.996C2020.69 363.213 2028.5 360.996 2037.5 362.496C2008.03 374.431 2016.33 412.322 2034.74 417.306C2045.6 420.255 2051.74 417.273 2054.99 414.332C2031.45 441.534 1982.34 421.254 1982.34 421.254C1989.46 418.204 1997.44 414.229 2006.54 409.041C2006.54 409.096 1991.35 387.488 2012.5 369.996Z" fill="#F9E6E5"/>
<path d="M2062.93 405.021C2062.93 405.021 2052.43 432.255 2006.25 408.385C2006.25 408.385 2042.78 438.438 2062.93 405.021Z" fill="#FFCFC8"/>
<path d="M2019.42 470.788C2022.68 480.631 2035.16 482.146 2035.16 482.146C2028.72 488.59 2025.47 498.323 2026.65 507.877C2018.2 504.259 2011.69 496.489 2009.62 487.957C2007.34 478.328 2010.42 468.141 2016.95 460.862C2018.87 458.73 2020.93 456.886 2023.06 455.321C2018.94 460.071 2017.89 466.228 2019.42 470.788Z" fill="#F9E6E5"/>
<path d="M1883.3 428.056C1913.43 438.934 1928.18 420.899 1928.18 420.899C1924.41 451.178 1896.92 447.58 1890.4 463.756C1883.88 479.933 1905.75 495.133 1905.75 495.133C1905.75 495.133 1875.33 494.301 1878.61 516.224C1878.93 518.359 1879.47 520.201 1880.15 521.846C1864.57 510.017 1856.31 488.282 1864.29 471.023C1850.71 472.734 1835.89 466.073 1828.87 455.015C1814.02 431.672 1833.5 404.496 1858.24 401.206C1860.16 412.048 1867.98 422.521 1883.3 428.056Z" fill="#F9E6E5"/>
<path d="M1834.68 389.021C1833.66 388.988 1832.79 388.978 1831.84 389.025C1832.39 388.909 1832.93 388.861 1833.48 388.745C1833.88 388.883 1834.28 388.952 1834.68 389.021Z" fill="#F9E6E5"/>
<path d="M1953.31 508.758C1953.31 508.758 1940.18 484.916 1969.01 469.014C1969.01 469.014 1952.98 479.844 1941.64 465.119C1941.64 465.119 1947.62 479.625 1935.71 489.282C1935.71 489.282 1943.21 484.001 1946.89 488.333C1950.63 492.621 1947.38 500.866 1953.31 508.758Z" fill="#F9E6E5"/>
<path d="M1194.95 308.026C1233.03 319.195 1272.95 297.382 1284.12 259.305C1295.29 221.227 1273.47 181.306 1235.39 170.137C1197.31 158.968 1157.39 180.782 1146.22 218.859C1135.05 256.936 1156.87 296.858 1194.95 308.026Z" fill="#F4E5E4"/>
</g>
</g>
<defs>
<linearGradient id="paint0_linear_4369_990" x1="2067.5" y1="-0.000133257" x2="1834.93" y2="638.169" gradientUnits="userSpaceOnUse">
<stop stop-color="#FEFAD9"/>
<stop offset="0.988556" stop-color="#FAD872"/>
</linearGradient>
<linearGradient id="paint1_linear_4369_990" x1="2455.96" y1="194.259" x2="2469.16" y2="235.031" gradientUnits="userSpaceOnUse">
<stop stop-color="#100523" stop-opacity="0.4"/>
<stop offset="1" stop-color="#1E1931" stop-opacity="0"/>
</linearGradient>
<linearGradient id="paint2_linear_4369_990" x1="2470.56" y1="191.009" x2="2483.55" y2="232.325" gradientUnits="userSpaceOnUse">
<stop stop-color="#100523" stop-opacity="0.4"/>
<stop offset="1" stop-color="#1E1931" stop-opacity="0"/>
</linearGradient>
<linearGradient id="paint3_linear_4369_990" x1="2486.16" y1="188.945" x2="2497.82" y2="230.155" gradientUnits="userSpaceOnUse">
<stop stop-color="#100523" stop-opacity="0.4"/>
<stop offset="1" stop-color="#1E1931" stop-opacity="0"/>
</linearGradient>
<clipPath id="clip0_4369_990">
<rect width="1142.73" height="877.008" fill="white" transform="translate(1156.83 210.914) rotate(16.3466)"/>
</clipPath>
</defs>
</svg>
