<svg width="4010" height="1511" viewBox="0 0 4010 1511" fill="none" xmlns="http://www.w3.org/2000/svg">
<mask id="mask0_4369_881" style="mask-type:alpha" maskUnits="userSpaceOnUse" x="0" y="0" width="4010" height="1511">
<rect width="4010" height="1511" fill="#D9D9D9"/>
</mask>
<g mask="url(#mask0_4369_881)">
<path d="M2805 113.986C2805 51.0331 2760.29 0 2705.13 0H2702.13C2646.97 0 2602.25 51.0331 2602.25 113.986V171.692C2602.25 201.515 2578.08 225.692 2548.25 225.692H2413.06C2387.37 225.692 2366.55 204.87 2366.55 179.186C2366.55 140.659 2335.32 109.426 2296.79 109.426H1521.49C1504.46 109.426 1490.64 125.19 1490.64 144.634C1490.64 164.078 1504.46 179.84 1521.49 179.84H1731.05C1743.71 179.84 1753.98 190.105 1753.98 202.766C1753.98 215.428 1743.71 225.692 1731.05 225.692H1371.44C1344.05 225.692 1321.86 203.492 1321.86 176.108C1321.86 139.281 1295.7 109.426 1263.43 109.426C1231.16 109.426 1205 139.281 1205 176.108C1205 203.492 1182.8 225.692 1155.42 225.692H-4.4978V756H4047.5V225.692H2866C2832.31 225.692 2805 198.381 2805 164.691L2805 113.986Z" fill="white"/>
<path d="M1238 1397.01C1238 1459.97 1282.72 1511 1337.88 1511L1340.87 1511C1396.03 1511 1440.75 1459.97 1440.75 1397.01L1440.75 1339.31C1440.75 1309.48 1464.92 1285.31 1494.75 1285.31L1629.95 1285.31C1655.63 1285.31 1676.45 1306.13 1676.45 1331.81C1676.45 1370.34 1707.69 1401.57 1746.21 1401.57L2521.51 1401.57C2538.55 1401.57 2552.36 1385.81 2552.36 1366.37C2552.36 1346.92 2538.55 1331.16 2521.51 1331.16L2311.95 1331.16C2299.29 1331.16 2289.02 1320.9 2289.02 1308.23C2289.02 1295.57 2299.29 1285.31 2311.95 1285.31L2671.56 1285.31C2698.95 1285.31 2721.15 1307.51 2721.15 1334.89C2721.15 1371.72 2747.31 1401.57 2779.57 1401.57C2811.84 1401.57 2838 1371.72 2838 1334.89C2838 1307.51 2860.2 1285.31 2887.58 1285.31L4047.5 1285.31L4047.5 755L-4.49778 754.999L-4.49788 1285.31L1177 1285.31C1210.69 1285.31 1238 1312.62 1238 1346.31L1238 1397.01Z" fill="white"/>
</g>
</svg>
