<svg width="4010" height="634" viewBox="0 0 4010 634" fill="none" xmlns="http://www.w3.org/2000/svg">
<mask id="mask0_4369_877" style="mask-type:alpha" maskUnits="userSpaceOnUse" x="0" y="0" width="4010" height="634">
<rect width="4010" height="634" fill="#D9D9D9"/>
</mask>
<g mask="url(#mask0_4369_877)">
<path d="M-34 0L2805 1.00044e-10C2805 58 2805 15.3286 2805 46.5728C2805 92.5 2763.67 103.146 2732.43 103.146H2593.61C2570.89 103.146 2552.47 121.566 2552.47 144.29C2552.47 167.013 2570.89 185.433 2593.61 185.433H2654.58C2674.71 185.447 2691.02 201.769 2691.02 221.902C2691.02 242.043 2674.69 258.37 2654.55 258.37H2578.97C2567.61 258.37 2558.4 267.581 2558.4 278.942C2558.4 290.304 2567.61 299.514 2578.97 299.514H2724.46C2755.18 299.514 2780.09 324.424 2780.09 355.152C2780.09 385.88 2755.18 410.79 2724.46 410.79H2423.43C2410.52 410.79 2400.05 421.256 2400.05 434.167C2400.05 447.078 2410.52 457.544 2423.43 457.544H2747.36C2765.44 457.544 2780.09 472.197 2780.09 490.272C2780.09 508.347 2765.44 523 2747.36 523H1508C1490.88 523 1477 536.879 1477 554C1477 598.183 1441.18 634 1397 634H-34V0Z" fill="url(#paint0_linear_4369_877)"/>
<mask id="mask1_4369_877" style="mask-type:alpha" maskUnits="userSpaceOnUse" x="2198" y="35" width="269" height="76">
<rect x="2198" y="35" width="269" height="75.532" fill="#D9D9D9"/>
</mask>
<g mask="url(#mask1_4369_877)">
<path fill-rule="evenodd" clip-rule="evenodd" d="M2336.83 115.583C2330.04 119.935 2321.96 122.458 2313.29 122.458C2304.3 122.458 2295.95 119.747 2289 115.099C2283.57 119.69 2276.56 122.458 2268.89 122.458C2263.36 122.458 2258.15 121.012 2253.65 118.477C2250.09 120.985 2245.75 122.458 2241.07 122.458C2235.43 122.458 2230.28 120.322 2226.4 116.813C2223.61 120.257 2219.34 122.458 2214.56 122.458C2206.15 122.458 2199.33 115.635 2199.33 107.219C2199.33 98.803 2206.15 91.9803 2214.56 91.9803C2216.67 91.9803 2218.67 92.4062 2220.49 93.1764C2223.46 84.9504 2231.22 79.0145 2240.4 78.7391C2245.23 67.8064 2256.17 60.1773 2268.89 60.1773C2270.47 60.1773 2272.01 60.2937 2273.52 60.5182C2280.42 45.4591 2295.63 35 2313.29 35C2330.88 35 2346.04 45.3849 2352.98 60.3578C2354.09 60.2385 2355.21 60.1773 2356.35 60.1773C2360.57 60.1773 2364.59 61.0164 2368.26 62.5369C2374.39 56.9552 2382.53 53.5517 2391.47 53.5517C2407.29 53.5517 2420.61 64.2104 2424.66 78.7371C2424.86 78.7318 2425.06 78.7291 2425.26 78.7291C2434.73 78.7291 2442.8 84.7517 2445.83 93.1764C2447.66 92.4062 2449.66 91.9803 2451.76 91.9803C2460.18 91.9803 2467 98.803 2467 107.219C2467 115.635 2460.18 122.458 2451.76 122.458C2446.98 122.458 2442.71 120.257 2439.92 116.813C2436.04 120.322 2430.9 122.458 2425.26 122.458C2419.57 122.458 2414.39 120.287 2410.5 116.728C2405.05 120.349 2398.5 122.458 2391.47 122.458C2384.85 122.458 2378.67 120.594 2373.43 117.363C2368.52 120.584 2362.66 122.458 2356.35 122.458C2348.96 122.458 2342.17 119.884 2336.83 115.583Z" fill="white"/>
</g>
<mask id="mask2_4369_877" style="mask-type:alpha" maskUnits="userSpaceOnUse" x="1496" y="83" width="141" height="40">
<rect x="1496" y="83" width="141" height="39.5912" fill="#D9D9D9"/>
</mask>
<g mask="url(#mask2_4369_877)">
<path fill-rule="evenodd" clip-rule="evenodd" d="M1568.77 125.239C1565.21 127.52 1560.97 128.842 1556.43 128.842C1551.72 128.842 1547.34 127.422 1543.7 124.985C1540.85 127.391 1537.18 128.842 1533.16 128.842C1530.26 128.842 1527.53 128.084 1525.17 126.756C1523.3 128.07 1521.03 128.842 1518.57 128.842C1515.62 128.842 1512.92 127.722 1510.89 125.884C1509.42 127.689 1507.19 128.842 1504.68 128.842C1500.27 128.842 1496.69 125.266 1496.69 120.855C1496.69 116.443 1500.27 112.867 1504.68 112.867C1505.78 112.867 1506.83 113.09 1507.79 113.494C1509.34 109.182 1513.41 106.071 1518.22 105.926C1520.76 100.196 1526.49 96.1968 1533.16 96.1968C1533.98 96.1968 1534.79 96.2578 1535.58 96.3755C1539.2 88.4822 1547.18 83 1556.43 83C1565.65 83 1573.6 88.4433 1577.23 96.2914C1577.82 96.2289 1578.41 96.1968 1579 96.1968C1581.21 96.1968 1583.32 96.6367 1585.25 97.4336C1588.46 94.5079 1592.72 92.724 1597.41 92.724C1605.7 92.724 1612.69 98.311 1614.81 105.925C1614.91 105.923 1615.02 105.921 1615.12 105.921C1620.09 105.921 1624.31 109.078 1625.9 113.494C1626.86 113.09 1627.91 112.867 1629.01 112.867C1633.42 112.867 1637 116.443 1637 120.855C1637 125.266 1633.42 128.842 1629.01 128.842C1626.51 128.842 1624.27 127.689 1622.81 125.884C1620.77 127.722 1618.08 128.842 1615.12 128.842C1612.14 128.842 1609.42 127.704 1607.39 125.839C1604.53 127.737 1601.1 128.842 1597.41 128.842C1593.94 128.842 1590.7 127.865 1587.95 126.172C1585.38 127.86 1582.31 128.842 1579 128.842C1575.13 128.842 1571.57 127.493 1568.77 125.239Z" fill="white" fill-opacity="0.5"/>
</g>
<mask id="mask3_4369_877" style="mask-type:alpha" maskUnits="userSpaceOnUse" x="-111" y="111" width="533" height="150">
<rect x="-111" y="111" width="532.754" height="149.591" fill="#D9D9D9"/>
</mask>
<g mask="url(#mask3_4369_877)">
<path fill-rule="evenodd" clip-rule="evenodd" d="M163.964 270.593C150.502 279.213 134.497 284.211 117.325 284.211C99.5254 284.211 82.9802 278.841 69.2206 269.634C58.4772 278.724 44.5823 284.204 29.4073 284.204C18.441 284.204 8.14323 281.342 -0.779778 276.324C-7.82802 281.294 -16.4263 284.213 -25.7063 284.213C-36.8793 284.213 -47.064 279.982 -54.7452 273.034C-60.2786 279.853 -68.727 284.211 -78.1934 284.211C-94.8617 284.211 -108.374 270.699 -108.374 254.031C-108.374 237.362 -94.8617 223.85 -78.1934 223.85C-74.0291 223.85 -70.0618 224.694 -66.453 226.219C-60.5786 209.929 -45.2138 198.175 -27.032 197.628C-17.4621 175.971 4.2076 160.857 29.4073 160.857C32.5195 160.857 35.5779 161.088 38.5663 161.533C52.2473 131.711 82.3673 111 117.325 111C152.158 111 182.188 131.564 195.937 161.215C198.131 160.978 200.359 160.857 202.616 160.857C210.972 160.857 218.94 162.519 226.208 165.53C238.334 154.476 254.461 147.736 272.162 147.736C303.491 147.736 329.889 168.85 337.902 197.624C338.295 197.613 338.69 197.608 339.086 197.608C357.843 197.608 373.816 209.535 379.832 226.219C383.441 224.694 387.408 223.85 391.573 223.85C408.241 223.85 421.753 237.362 421.753 254.031C421.753 270.699 408.241 284.211 391.573 284.211C382.106 284.211 373.658 279.853 368.124 273.034C360.443 279.982 350.259 284.213 339.086 284.213C327.819 284.213 317.558 279.911 309.854 272.859C299.055 280.029 286.096 284.205 272.162 284.205C259.063 284.205 246.825 280.514 236.433 274.114C226.723 280.493 215.103 284.204 202.616 284.204C187.982 284.204 174.539 279.108 163.964 270.593Z" fill="white" fill-opacity="0.5"/>
</g>
<mask id="mask4_4369_877" style="mask-type:alpha" maskUnits="userSpaceOnUse" x="2240" y="425" width="85" height="24">
<rect x="2240" y="425" width="84.0176" height="23.5912" fill="#D9D9D9"/>
</mask>
<g mask="url(#mask4_4369_877)">
<path fill-rule="evenodd" clip-rule="evenodd" d="M2283.36 450.169C2281.24 451.528 2278.72 452.316 2276.01 452.316C2273.2 452.316 2270.59 451.469 2268.42 450.018C2266.73 451.452 2264.54 452.316 2262.14 452.316C2260.41 452.316 2258.79 451.865 2257.38 451.073C2256.27 451.856 2254.91 452.316 2253.45 452.316C2251.69 452.316 2250.08 451.649 2248.87 450.553C2248 451.629 2246.67 452.316 2245.17 452.316C2242.55 452.316 2240.41 450.185 2240.41 447.557C2240.41 444.928 2242.55 442.797 2245.17 442.797C2245.83 442.797 2246.46 442.93 2247.03 443.171C2247.95 440.601 2250.38 438.747 2253.24 438.661C2254.75 435.247 2258.17 432.864 2262.14 432.864C2262.63 432.864 2263.12 432.9 2263.59 432.97C2265.74 428.267 2270.49 425 2276.01 425C2281.5 425 2286.24 428.244 2288.41 432.92C2288.75 432.883 2289.1 432.864 2289.46 432.864C2290.78 432.864 2292.03 433.126 2293.18 433.601C2295.09 431.857 2297.63 430.794 2300.43 430.794C2305.37 430.794 2309.53 434.123 2310.79 438.661C2310.86 438.659 2310.92 438.658 2310.98 438.658C2313.94 438.658 2316.46 440.539 2317.41 443.171C2317.98 442.93 2318.6 442.797 2319.26 442.797C2321.89 442.797 2324.02 444.928 2324.02 447.557C2324.02 450.185 2321.89 452.316 2319.26 452.316C2317.77 452.316 2316.43 451.629 2315.56 450.553C2314.35 451.649 2312.74 452.316 2310.98 452.316C2309.2 452.316 2307.59 451.638 2306.37 450.526C2304.67 451.657 2302.62 452.316 2300.43 452.316C2298.36 452.316 2296.43 451.734 2294.79 450.725C2293.26 451.731 2291.43 452.316 2289.46 452.316C2287.15 452.316 2285.03 451.512 2283.36 450.169Z" fill="white" fill-opacity="0.5"/>
</g>
<mask id="mask5_4369_877" style="mask-type:alpha" maskUnits="userSpaceOnUse" x="990" y="442" width="362" height="102">
<rect x="990" y="442" width="361.807" height="101.591" fill="#D9D9D9"/>
</mask>
<g mask="url(#mask5_4369_877)">
<path fill-rule="evenodd" clip-rule="evenodd" d="M1176.73 550.385C1167.59 556.238 1156.72 559.632 1145.06 559.632C1132.97 559.632 1121.74 555.986 1112.39 549.734C1105.1 555.909 1095.66 559.632 1085.35 559.632C1077.9 559.632 1070.91 557.688 1064.85 554.278C1060.06 557.651 1054.22 559.632 1047.92 559.632C1040.34 559.632 1033.42 556.759 1028.2 552.04C1024.45 556.672 1018.71 559.632 1012.28 559.632C1000.96 559.632 991.782 550.456 991.782 539.136C991.782 527.816 1000.96 518.639 1012.28 518.639C1015.11 518.639 1017.8 519.212 1020.25 520.248C1024.24 509.184 1034.68 501.2 1047.03 500.83C1053.53 486.125 1068.24 475.864 1085.35 475.864C1087.47 475.864 1089.54 476.021 1091.57 476.323C1100.86 456.068 1121.32 442 1145.06 442C1168.72 442 1189.11 455.968 1198.45 476.107C1199.94 475.947 1201.45 475.864 1202.99 475.864C1208.66 475.864 1214.07 476.993 1219.01 479.038C1227.24 471.53 1238.19 466.952 1250.22 466.952C1271.49 466.952 1289.42 481.288 1294.86 500.827C1295.13 500.82 1295.4 500.816 1295.66 500.816C1308.4 500.816 1319.25 508.917 1323.34 520.248C1325.79 519.212 1328.48 518.639 1331.31 518.639C1342.63 518.639 1351.81 527.816 1351.81 539.136C1351.81 550.456 1342.63 559.632 1331.31 559.632C1324.88 559.632 1319.14 556.672 1315.39 552.04C1310.17 556.759 1303.25 559.632 1295.66 559.632C1288.01 559.632 1281.05 556.712 1275.82 551.924C1268.48 556.795 1259.68 559.632 1250.22 559.632C1241.32 559.632 1233.01 557.125 1225.95 552.779C1219.36 557.112 1211.47 559.632 1202.99 559.632C1193.05 559.632 1183.91 556.17 1176.73 550.385Z" fill="white"/>
</g>
</g>
<defs>
<linearGradient id="paint0_linear_4369_877" x1="1225" y1="634" x2="2358" y2="-140.001" gradientUnits="userSpaceOnUse">
<stop stop-color="#FAD872"/>
<stop offset="1" stop-color="#FEFAD9"/>
</linearGradient>
</defs>
</svg>
