<svg width="4010" height="549" viewBox="0 0 4010 549" fill="none" xmlns="http://www.w3.org/2000/svg">
<mask id="mask0_202_4361" style="mask-type:alpha" maskUnits="userSpaceOnUse" x="0" y="0" width="4010" height="549">
<rect width="4010" height="549" fill="#D9D9D9"/>
</mask>
<g mask="url(#mask0_202_4361)">
<path fill-rule="evenodd" clip-rule="evenodd" d="M2534.41 471.988C2513.1 471.989 2495.82 489.266 2495.82 510.579C2495.82 531.892 2513.1 549.169 2534.41 549.169L4010 549.169L4010 471.988L2534.41 471.988ZM4010 102.784L4010 77.1809L4010 0.000415636L2534.41 0.000347671C2513.1 0.000345808 2495.82 17.2778 2495.82 38.5906C2495.82 59.8601 2513.03 77.1107 2534.28 77.1806L2532.74 77.1806C2532.4 77.1806 2532.05 77.1945 2531.71 77.2218L2540.35 77.2218C2547.4 77.2218 2553.13 82.9435 2553.13 90.0015C2553.13 97.0596 2547.4 102.781 2540.35 102.781L2532.48 102.781C2532.57 102.783 2532.66 102.784 2532.74 102.784L2205.1 102.784C2170.57 102.784 2142.58 130.777 2142.58 165.307C2142.58 199.838 2170.57 227.831 2205.1 227.831L2262.65 227.831C2261.91 227.834 2261.18 227.861 2260.46 227.91L2299.11 227.91C2317.94 227.91 2333.21 243.177 2333.21 262.009C2333.21 280.708 2318.16 295.891 2299.51 296.106L4010 296.106L4010 227.831L4010 102.784ZM2048.33 371.246C2048.33 412.744 2081.97 446.385 2123.47 446.385L4010 446.386L4010 296.106L2123.47 296.106C2081.97 296.106 2048.33 329.747 2048.33 371.246Z" fill="#FAFBFD"/>
</g>
</svg>
