<svg width="4010" height="602" viewBox="0 0 4010 602" fill="none" xmlns="http://www.w3.org/2000/svg">
<mask id="mask0_125_520" style="mask-type:alpha" maskUnits="userSpaceOnUse" x="0" y="0" width="4010" height="602">
<rect width="4010" height="602" fill="#D9D9D9"/>
</mask>
<g mask="url(#mask0_125_520)">
<path fill-rule="evenodd" clip-rule="evenodd" d="M0 -57H2804V82C2804 121.212 2772.21 153 2733 153H2666.5C2648.84 158.432 2636 174.879 2636 194.324C2636 214.21 2649.43 230.959 2667.71 236H2719C2751.58 236 2778 262.415 2778 295C2778 327.585 2751.58 354 2719 354H2615.55C2610.11 354.902 2605.96 359.627 2605.96 365.321C2605.96 371.659 2611.1 376.797 2617.44 376.797H2641.66C2640.96 376.93 2640.24 377 2639.5 377H2623C2669.39 377 2707 414.608 2707 461V472C2707 518.392 2669.39 556 2623 556H1426.38C1423.39 557.274 1421.29 560.244 1421.29 563.705C1421.29 567.947 1424.44 571.453 1428.54 572H1511C1519.28 572 1526 578.716 1526 587C1526 595.284 1519.28 602 1511 602H0V572V556V555V377V354V238V236V153V151V-57Z" fill="url(#paint0_linear_125_520)"/>
<mask id="mask1_125_520" style="mask-type:alpha" maskUnits="userSpaceOnUse" x="1205" y="389" width="171" height="61">
<rect x="1205" y="389.805" width="170.216" height="59.9627" fill="#D9D9D9"/>
</mask>
<g mask="url(#mask1_125_520)">
<path fill-rule="evenodd" clip-rule="evenodd" d="M1235.88 453.778C1228.6 457.232 1219.95 459.235 1210.67 459.235C1201.05 459.235 1192.11 457.083 1184.68 453.393C1178.87 457.038 1171.36 459.236 1163.15 459.236C1157.22 459.236 1151.66 458.088 1146.83 456.075C1143.03 458.066 1138.38 459.235 1133.37 459.235C1127.33 459.235 1121.82 457.538 1117.67 454.753C1114.68 457.487 1110.11 459.235 1105 459.235C1095.99 459.235 1088.68 453.818 1088.68 447.137C1088.68 440.455 1095.99 435.039 1105 435.039C1107.25 435.039 1109.39 435.377 1111.34 435.989C1114.52 429.459 1122.82 424.746 1132.65 424.527C1137.83 415.849 1149.54 409.793 1163.15 409.793C1164.84 409.793 1166.49 409.885 1168.1 410.064C1175.5 398.108 1191.78 389.805 1210.67 389.805C1229.5 389.805 1245.73 398.049 1253.16 409.936C1254.35 409.842 1255.55 409.793 1256.77 409.793C1261.29 409.793 1265.59 410.459 1269.52 411.666C1276.08 407.234 1284.79 404.531 1294.36 404.531C1311.29 404.531 1325.56 412.993 1329.89 424.526C1330.11 424.522 1330.32 424.52 1330.53 424.52C1340.67 424.52 1349.31 429.301 1352.56 435.989C1354.51 435.377 1356.65 435.039 1358.9 435.039C1367.91 435.039 1375.22 440.455 1375.22 447.137C1375.22 453.818 1367.91 459.235 1358.9 459.235C1353.79 459.235 1349.22 457.487 1346.23 454.753C1342.08 457.538 1336.57 459.235 1330.53 459.235C1324.45 459.235 1318.9 457.511 1314.74 454.685C1308.9 457.559 1301.89 459.234 1294.36 459.234C1287.28 459.234 1280.67 457.755 1275.05 455.19C1269.8 457.748 1263.52 459.236 1256.77 459.236C1248.86 459.236 1241.59 457.192 1235.88 453.778Z" fill="white"/>
</g>
<mask id="mask2_125_520" style="mask-type:alpha" maskUnits="userSpaceOnUse" x="1035" y="389" width="171" height="61">
<rect width="170.216" height="59.9627" transform="matrix(-1 0 0 1 1205.22 389.805)" fill="#D9D9D9"/>
</mask>
<g mask="url(#mask2_125_520)">
<path fill-rule="evenodd" clip-rule="evenodd" d="M1174.34 453.778C1181.61 457.232 1190.26 459.235 1199.54 459.235C1209.16 459.235 1218.1 457.083 1225.54 453.393C1231.35 457.038 1238.86 459.236 1247.06 459.236C1252.99 459.236 1258.56 458.088 1263.38 456.075C1267.19 458.066 1271.84 459.235 1276.85 459.235C1282.89 459.235 1288.39 457.538 1292.55 454.753C1295.54 457.487 1300.1 459.235 1305.22 459.235C1314.23 459.235 1321.53 453.818 1321.53 447.137C1321.53 440.455 1314.23 435.039 1305.22 435.039C1302.97 435.039 1300.82 435.377 1298.87 435.989C1295.7 429.459 1287.39 424.746 1277.57 424.527C1272.39 415.849 1260.68 409.793 1247.06 409.793C1245.38 409.793 1243.73 409.885 1242.11 410.064C1234.72 398.108 1218.44 389.805 1199.54 389.805C1180.72 389.805 1164.48 398.049 1157.05 409.936C1155.87 409.842 1154.66 409.793 1153.44 409.793C1148.93 409.793 1144.62 410.459 1140.69 411.666C1134.14 407.234 1125.42 404.531 1115.85 404.531C1098.92 404.531 1084.66 412.993 1080.32 424.526C1080.11 424.522 1079.9 424.52 1079.68 424.52C1069.54 424.52 1060.91 429.301 1057.66 435.989C1055.71 435.377 1053.56 435.039 1051.31 435.039C1042.3 435.039 1035 440.455 1035 447.137C1035 453.818 1042.3 459.235 1051.31 459.235C1056.43 459.235 1061 457.487 1063.99 454.753C1068.14 457.538 1073.64 459.235 1079.68 459.235C1085.77 459.235 1091.32 457.511 1095.48 454.685C1101.32 457.559 1108.32 459.234 1115.85 459.234C1122.93 459.234 1129.55 457.755 1135.16 455.19C1140.41 457.748 1146.69 459.236 1153.44 459.236C1161.36 459.236 1168.62 457.192 1174.34 453.778Z" fill="white"/>
</g>
<mask id="mask3_125_520" style="mask-type:alpha" maskUnits="userSpaceOnUse" x="1437" y="202" width="90" height="20">
<rect width="89.7503" height="18.6897" transform="matrix(-1 0 0 1 1526.86 202.363)" fill="#D9D9D9"/>
</mask>
<g mask="url(#mask3_125_520)">
<path fill-rule="evenodd" clip-rule="evenodd" d="M1480.54 222.302C1482.8 223.379 1485.5 224.004 1488.39 224.004C1491.39 224.004 1494.18 223.332 1496.5 222.181C1498.31 223.316 1500.65 224.001 1503.21 224.001C1505.05 224.001 1506.78 223.644 1508.29 223.019C1509.47 223.642 1510.92 224.008 1512.49 224.008C1514.37 224.008 1516.09 223.479 1517.38 222.61C1518.32 223.462 1519.74 224.006 1521.33 224.006C1524.14 224.006 1526.42 222.318 1526.42 220.236C1526.42 218.153 1524.14 216.465 1521.33 216.465C1520.63 216.465 1519.96 216.57 1519.35 216.761C1518.36 214.728 1515.78 213.26 1512.72 213.19C1511.11 210.481 1507.46 208.59 1503.21 208.59C1502.68 208.59 1502.17 208.619 1501.66 208.675C1499.36 204.95 1494.28 202.363 1488.39 202.363C1482.53 202.363 1477.47 204.931 1475.15 208.635C1474.78 208.605 1474.41 208.59 1474.03 208.59C1472.62 208.59 1471.28 208.798 1470.05 209.174C1468.01 207.794 1465.29 206.953 1462.31 206.953C1457.03 206.953 1452.58 209.593 1451.24 213.189C1451.17 213.188 1451.1 213.188 1451.04 213.188C1447.88 213.188 1445.19 214.677 1444.17 216.761C1443.56 216.57 1442.9 216.465 1442.19 216.465C1439.39 216.465 1437.11 218.153 1437.11 220.236C1437.11 222.318 1439.39 224.006 1442.19 224.006C1443.79 224.006 1445.21 223.462 1446.14 222.611C1447.44 223.479 1449.15 224.008 1451.04 224.008C1452.94 224.008 1454.67 223.469 1455.96 222.587C1457.78 223.482 1459.97 224.003 1462.31 224.003C1464.52 224.003 1466.58 223.542 1468.33 222.742C1469.97 223.538 1471.92 224.001 1474.03 224.001C1476.49 224.001 1478.75 223.365 1480.54 222.302Z" fill="white"/>
</g>
<mask id="mask4_125_520" style="mask-type:alpha" maskUnits="userSpaceOnUse" x="2470" y="40" width="279" height="58">
<rect x="2470.79" y="40.168" width="277.504" height="57.7876" fill="#D9D9D9"/>
</mask>
<g mask="url(#mask4_125_520)">
<path fill-rule="evenodd" clip-rule="evenodd" d="M2614.01 101.818C2607 105.149 2598.66 107.08 2589.72 107.08C2580.44 107.08 2571.82 105.005 2564.66 101.448C2559.06 104.959 2551.82 107.075 2543.92 107.075C2538.21 107.075 2532.85 105.971 2528.2 104.034C2524.53 105.956 2520.05 107.085 2515.21 107.085C2509.39 107.085 2504.09 105.45 2500.09 102.767C2497.2 105.4 2492.8 107.083 2487.87 107.083C2479.19 107.083 2472.15 101.864 2472.15 95.4245C2472.15 88.9855 2479.19 83.7656 2487.87 83.7656C2490.04 83.7656 2492.11 84.0912 2493.99 84.6801C2497.05 78.3887 2505.05 73.8487 2514.52 73.6367C2519.5 65.2671 2530.79 59.4258 2543.92 59.4258C2545.54 59.4258 2547.14 59.5149 2548.69 59.6868C2555.82 48.1679 2571.51 40.168 2589.72 40.168C2607.86 40.168 2623.5 48.1111 2630.66 59.5641C2631.81 59.4727 2632.97 59.4258 2634.14 59.4258C2638.5 59.4258 2642.65 60.0681 2646.43 61.2318C2652.75 56.9625 2661.15 54.3594 2670.37 54.3594C2686.69 54.3594 2700.44 62.5175 2704.61 73.635C2704.82 73.6309 2705.02 73.6289 2705.23 73.6289C2715 73.6289 2723.32 78.2361 2726.45 84.6809C2728.33 84.0915 2730.4 83.7656 2732.57 83.7656C2741.25 83.7656 2748.29 88.9855 2748.29 95.4245C2748.29 101.864 2741.25 107.083 2732.57 107.083C2727.64 107.083 2723.24 105.4 2720.35 102.766C2716.35 105.45 2711.05 107.085 2705.23 107.085C2699.36 107.085 2694.01 105.422 2690 102.697C2684.37 105.465 2677.63 107.078 2670.37 107.078C2663.54 107.078 2657.17 105.651 2651.76 103.179C2646.7 105.642 2640.65 107.075 2634.14 107.075C2626.52 107.075 2619.52 105.107 2614.01 101.818Z" fill="white"/>
</g>
<mask id="mask5_125_520" style="mask-type:alpha" maskUnits="userSpaceOnUse" x="2522" y="281" width="134" height="28">
<rect width="133.078" height="27.7123" transform="matrix(-1 0 0 1 2655.45 281.164)" fill="#D9D9D9"/>
</mask>
<g mask="url(#mask5_125_520)">
<path fill-rule="evenodd" clip-rule="evenodd" d="M2586.76 310.728C2590.12 312.326 2594.12 313.252 2598.41 313.252C2602.86 313.252 2606.99 312.257 2610.43 310.551C2613.11 312.234 2616.58 313.249 2620.37 313.249C2623.11 313.249 2625.69 312.719 2627.91 311.789C2629.67 312.71 2631.82 313.251 2634.14 313.251C2636.93 313.251 2639.48 312.467 2641.4 311.179C2642.78 312.442 2644.89 313.249 2647.25 313.249C2651.42 313.249 2654.79 310.745 2654.79 307.657C2654.79 304.57 2651.42 302.066 2647.25 302.066C2646.21 302.066 2645.22 302.223 2644.32 302.506C2642.85 299.489 2639.01 297.312 2634.47 297.211C2632.08 293.198 2626.67 290.398 2620.37 290.398C2619.6 290.398 2618.83 290.441 2618.09 290.524C2614.67 285 2607.14 281.164 2598.41 281.164C2589.71 281.164 2582.21 284.973 2578.78 290.465C2578.23 290.421 2577.67 290.398 2577.11 290.398C2575.02 290.398 2573.03 290.707 2571.21 291.266C2568.18 289.22 2564.15 287.973 2559.74 287.973C2551.91 287.973 2545.32 291.882 2543.32 297.21C2543.22 297.208 2543.12 297.207 2543.02 297.207C2538.33 297.207 2534.34 299.416 2532.84 302.506C2531.94 302.223 2530.95 302.066 2529.91 302.066C2525.74 302.066 2522.37 304.57 2522.37 307.657C2522.37 310.745 2525.74 313.249 2529.91 313.249C2532.27 313.249 2534.38 312.442 2535.76 311.179C2537.68 312.467 2540.23 313.251 2543.02 313.251C2545.83 313.251 2548.39 312.455 2550.32 311.15C2553.01 312.48 2556.25 313.254 2559.74 313.254C2563.01 313.254 2566.07 312.569 2568.67 311.382C2571.09 312.562 2573.99 313.249 2577.11 313.249C2580.76 313.249 2584.12 312.305 2586.76 310.728Z" fill="white"/>
</g>
</g>
<defs>
<linearGradient id="paint0_linear_125_520" x1="2004.5" y1="-57" x2="2004.5" y2="499.208" gradientUnits="userSpaceOnUse">
<stop stop-color="#CAF1F3"/>
<stop offset="1" stop-color="#DEF3F5"/>
</linearGradient>
</defs>
</svg>
