<svg width="4010" height="956" viewBox="0 0 4010 956" fill="none" xmlns="http://www.w3.org/2000/svg">
<mask id="mask0_202_5241" style="mask-type:alpha" maskUnits="userSpaceOnUse" x="0" y="0" width="4010" height="956">
<rect width="4010" height="956" fill="#712222"/>
</mask>
<g mask="url(#mask0_202_5241)">
<path fill-rule="evenodd" clip-rule="evenodd" d="M4010 0L0 0L-0.5 163H-1V300.181H-0.5L0 468H897.5C933.398 468 962.5 497.102 962.5 533V690V840.5C962.5 904.289 1014.21 956 1078 956C1141.79 956 1193.5 904.289 1193.5 840.5V787C1193.5 726.249 1242.75 677 1303.5 677H1972C2015.35 677 2050.5 649.5 2050.5 606.146C2050.5 562.792 2015.35 533 1972 533H1956.5V532.966C1956 532.989 1955.5 533 1955 533C1937.05 533 1922.5 518.449 1922.5 500.5C1922.5 482.551 1937.05 468 1955 468C1955.5 468 1956 468.011 1956.5 468.034V468H2279.79H2295.5H2303.5C2362.59 468 2410.5 420.094 2410.5 361V328.842C2410.5 313.013 2423.33 300.181 2439.16 300.181H4010L4009.5 163L4010 0Z" fill="url(#paint0_linear_202_5241)"/>
<path d="M1134.45 304.803L1130.41 304.619L1128.25 301.028L1126.83 305.001L1122.91 306.019L1126.08 308.664L1125.81 312.878L1129.17 310.545L1132.93 312.128L1131.85 308.042L1134.45 304.803Z" fill="white"/>
<path d="M1598.62 221.255L1595.03 221.085L1593.12 217.903L1591.86 221.424L1588.37 222.344L1591.18 224.677L1590.94 228.438L1593.94 226.36L1597.27 227.76L1596.31 224.14L1598.62 221.255Z" fill="white"/>
<path d="M1136.05 179.569L1134.73 179.513L1134.02 178.325L1133.55 179.626L1132.25 179.965L1133.3 180.842L1133.21 182.228L1134.32 181.464L1135.56 181.987L1135.2 180.644L1136.05 179.569Z" fill="white"/>
<path d="M1758.9 219.756L1756.81 219.657L1755.72 217.819L1754.99 219.855L1752.97 220.378L1754.61 221.736L1754.46 223.899L1756.19 222.697L1758.11 223.503L1757.56 221.425L1758.9 219.756Z" fill="white"/>
<path d="M1338.4 277.753L1336.31 277.654L1335.22 275.816L1334.49 277.852L1332.47 278.376L1334.1 279.733L1333.96 281.896L1335.69 280.695L1337.61 281.501L1337.06 279.422L1338.4 277.753Z" fill="white"/>
<path d="M1072.11 68.3309L1068.51 68.1753L1066.6 64.9794L1065.35 68.5006L1061.86 69.4198L1064.67 71.7672L1064.43 75.5146L1067.43 73.4359L1070.76 74.8359L1069.8 71.2157L1072.11 68.3309Z" fill="white"/>
<path d="M1233.95 258.744L1231.72 258.63L1230.53 256.651L1229.74 258.843L1227.56 259.422L1229.32 260.879L1229.16 263.212L1231.03 261.911L1233.11 262.788L1232.52 260.539L1233.95 258.744Z" fill="white"/>
<path d="M289.801 273.915L285.851 273.024L284.296 269.107L282.267 272.769L278.236 273.094L280.942 276.248L279.981 280.363L283.687 278.652L287.136 280.872L286.717 276.658L289.801 273.915Z" fill="white"/>
<path d="M550.87 172.017L547.353 171.239L545.987 167.76L544.174 171.013L540.59 171.295L542.998 174.095L542.145 177.758L545.432 176.231L548.503 178.196L548.137 174.463L550.87 172.017Z" fill="white"/>
<path d="M311.484 150.733L310.172 150.45L309.658 149.149L308.995 150.365L307.67 150.464L308.549 151.51L308.238 152.868L309.455 152.302L310.592 153.023L310.456 151.638L311.484 150.733Z" fill="white"/>
<path d="M919.047 299.571L917.018 299.118L916.22 297.11L915.179 298.991L913.109 299.161L914.503 300.773L914.002 302.88L915.909 302.003L917.681 303.148L917.465 300.985L919.047 299.571Z" fill="white"/>
<path d="M495.196 283.01L493.167 282.557L492.382 280.549L491.341 282.43L489.258 282.586L490.651 284.212L490.164 286.319L492.058 285.442L493.83 286.573L493.613 284.41L495.196 283.01Z" fill="white"/>
<path d="M266.28 29.8671L262.763 29.0752L261.397 25.5965L259.584 28.849L256 29.1459L258.408 31.9459L257.555 35.5943L260.842 34.0812L263.913 36.0469L263.548 32.2994L266.28 29.8671Z" fill="white"/>
<path d="M395.283 245.959L393.091 245.465L392.239 243.301L391.117 245.323L388.885 245.507L390.386 247.246L389.859 249.523L391.901 248.575L393.808 249.806L393.578 247.472L395.283 245.959Z" fill="white"/>
<path d="M1449.03 42.6647L1444.58 41.6607L1442.85 37.2769L1440.57 41.3779L1436.04 41.7455L1439.07 45.2809L1438 49.9051L1442.16 47.9818L1446.03 50.4707L1445.57 45.7475L1449.03 42.6647Z" fill="white"/>
<path d="M2344.71 4.25679L2341.19 3.47901L2339.83 0.000241157L2338.01 3.25274L2334.43 3.53556L2336.84 6.33556L2335.99 9.99815L2339.27 8.47088L2342.34 10.4365L2341.98 6.70322L2344.71 4.25679Z" fill="white"/>
<path d="M2398 230.206L2394.49 229.414L2393.12 225.949L2391.31 229.202L2387.72 229.485L2390.13 232.285L2389.28 235.947L2392.56 234.42L2395.64 236.386L2395.27 232.652L2398 230.206Z" fill="white"/>
<path d="M1986.46 84.649L1984.43 84.1966L1983.63 82.1886L1982.59 84.0693L1980.52 84.239L1981.91 85.851L1981.43 87.9579L1983.32 87.0812L1985.09 88.2266L1984.88 86.0631L1986.46 84.649Z" fill="white"/>
<path d="M2240.55 199.167L2238.52 198.714L2237.72 196.706L2236.68 198.587L2234.61 198.757L2236 200.369L2235.5 202.475L2237.41 201.599L2239.18 202.744L2238.96 200.581L2240.55 199.167Z" fill="white"/>
<path d="M2001.13 262.801L1999.1 262.349L1998.31 260.341L1997.26 262.222L1995.2 262.391L1996.59 264.003L1996.09 266.11L1998 265.234L1999.77 266.379L1999.55 264.215L2001.13 262.801Z" fill="white"/>
<path d="M2207.27 345.215L2203.76 344.423L2202.39 340.944L2200.58 344.197L2196.99 344.494L2199.4 347.294L2198.55 350.942L2201.83 349.429L2204.9 351.395L2204.54 347.647L2207.27 345.215Z" fill="white"/>
<path d="M2158.33 100.419L2156.76 100.065L2156.16 98.51L2155.34 99.9664L2153.73 100.094L2154.82 101.352L2154.44 102.992L2155.9 102.3L2157.28 103.19L2157.12 101.508L2158.33 100.419Z" fill="white"/>
</g>
<defs>
<linearGradient id="paint0_linear_202_5241" x1="1930.38" y1="0.000123171" x2="1064.89" y2="924.668" gradientUnits="userSpaceOnUse">
<stop stop-color="#6EC7B3"/>
<stop offset="0.830342" stop-color="#9EE4D4"/>
</linearGradient>
</defs>
</svg>
