<svg width="1212" height="366" viewBox="0 0 1212 366" fill="none" xmlns="http://www.w3.org/2000/svg">
<path fill-rule="evenodd" clip-rule="evenodd" d="M167 34.5C167 15.4462 182.446 0 201.5 0H1122.5C1141.55 0 1157 15.4462 1157 34.5C1157 53.5538 1141.55 69 1122.5 69H1067.98C1044.35 75.446 1027 96.7333 1027 122C1027 152.048 1051.53 176.467 1082 176.991V177H1117.5C1169.69 177 1212 219.309 1212 271.5C1212 323.691 1169.69 366 1117.5 366H94.5C42.3091 366 0 323.691 0 271.5C0 219.309 42.3091 177 94.5 177H206.637C232.478 172.075 252 149.547 252 122.5C252 96.9798 234.62 75.4827 210.951 69H201.5C182.446 69 167 53.5538 167 34.5Z" fill="url(#paint0_linear_1931_1225)"/>
<defs>
<linearGradient id="paint0_linear_1931_1225" x1="1409.03" y1="-58.4664" x2="-43.4167" y2="207.393" gradientUnits="userSpaceOnUse">
<stop stop-color="#CEF1F3"/>
<stop offset="1" stop-color="#A4E7EA"/>
</linearGradient>
</defs>
</svg>
