<svg width="4010" height="533" viewBox="0 0 4010 533" fill="none" xmlns="http://www.w3.org/2000/svg">
<mask id="mask0_123_364" style="mask-type:alpha" maskUnits="userSpaceOnUse" x="0" y="0" width="4010" height="533">
<rect width="4010" height="533" fill="#D9D9D9"/>
</mask>
<g mask="url(#mask0_123_364)">
<path opacity="0.76" fill-rule="evenodd" clip-rule="evenodd" d="M1476 533H4010V309V225V223V47.0001V46V31V30.0001V0H2499.5C2490.94 0 2484 6.93958 2484 15.5C2484 24.0604 2490.94 31 2499.5 31H2584.07C2586.82 32.371 2588.71 35.2126 2588.71 38.4958C2588.71 41.7857 2586.82 44.6323 2584.05 46H1387C1340.61 46 1303 83.6081 1303 130V141C1303 187.392 1340.61 225 1387 225H1496.23C1519.32 225.12 1538 243.878 1538 266.999C1538 290.195 1519.2 309 1496 309L1431.8 309L1432 309H1476C1414.14 309 1364 359.144 1364 421C1364 482.856 1414.14 533 1476 533Z" fill="url(#paint0_linear_123_364)"/>
<mask id="mask1_123_364" style="mask-type:alpha" maskUnits="userSpaceOnUse" x="2388" y="359" width="90" height="20">
<rect width="89.7503" height="18.6897" transform="matrix(-1 -8.74228e-08 -8.74228e-08 1 2477.75 359.999)" fill="#D9D9D9"/>
</mask>
<g mask="url(#mask1_123_364)">
<path fill-rule="evenodd" clip-rule="evenodd" d="M2431.42 379.937C2433.69 381.015 2436.39 381.64 2439.28 381.64C2442.28 381.64 2445.07 380.968 2447.39 379.817C2449.2 380.952 2451.54 381.637 2454.1 381.637C2455.94 381.637 2457.67 381.28 2459.17 380.655C2460.36 381.278 2461.81 381.644 2463.38 381.644C2465.26 381.644 2466.98 381.115 2468.27 380.246C2469.2 381.098 2470.63 381.642 2472.22 381.642C2475.03 381.642 2477.31 379.954 2477.31 377.872C2477.31 375.789 2475.03 374.101 2472.22 374.101C2471.52 374.101 2470.85 374.206 2470.24 374.397C2469.25 372.364 2466.67 370.896 2463.61 370.826C2462 368.117 2458.34 366.226 2454.1 366.226C2453.57 366.226 2453.05 366.255 2452.55 366.311C2450.24 362.586 2445.17 359.999 2439.28 359.999C2433.41 359.999 2428.36 362.567 2426.04 366.271C2425.67 366.241 2425.29 366.226 2424.91 366.226C2423.51 366.226 2422.16 366.434 2420.94 366.81C2418.9 365.43 2416.18 364.589 2413.2 364.589C2407.92 364.589 2403.47 367.229 2402.12 370.825C2402.06 370.824 2401.99 370.823 2401.92 370.823C2398.76 370.823 2396.07 372.313 2395.06 374.396C2394.45 374.206 2393.78 374.101 2393.08 374.101C2390.27 374.101 2388 375.789 2388 377.872C2388 379.954 2390.27 381.642 2393.08 381.642C2394.68 381.642 2396.1 381.098 2397.03 380.247C2398.32 381.115 2400.04 381.644 2401.92 381.644C2403.82 381.644 2405.55 381.105 2406.85 380.223C2408.67 381.118 2410.85 381.639 2413.2 381.639C2415.41 381.639 2417.47 381.178 2419.22 380.378C2420.86 381.174 2422.81 381.637 2424.91 381.637C2427.38 381.637 2429.64 381 2431.42 379.937Z" fill="white"/>
</g>
<mask id="mask2_123_364" style="mask-type:alpha" maskUnits="userSpaceOnUse" x="3035" y="403" width="90" height="19">
<rect width="89.7503" height="18.6897" transform="matrix(-1 -8.74228e-08 -8.74228e-08 1 3124.75 403)" fill="#D9D9D9"/>
</mask>
<g mask="url(#mask2_123_364)">
<path fill-rule="evenodd" clip-rule="evenodd" d="M3078.42 422.938C3080.69 424.016 3083.39 424.641 3086.28 424.641C3089.28 424.641 3092.07 423.969 3094.39 422.818C3096.2 423.953 3098.54 424.637 3101.1 424.637C3102.94 424.637 3104.67 424.281 3106.17 423.656C3107.36 424.279 3108.81 424.645 3110.38 424.645C3112.26 424.645 3113.98 424.115 3115.27 423.247C3116.2 424.099 3117.63 424.643 3119.22 424.643C3122.03 424.643 3124.31 422.955 3124.31 420.872C3124.31 418.79 3122.03 417.102 3119.22 417.102C3118.52 417.102 3117.85 417.207 3117.24 417.398C3116.25 415.365 3113.67 413.897 3110.61 413.827C3109 411.118 3105.34 409.227 3101.1 409.227C3100.57 409.227 3100.05 409.256 3099.55 409.311C3097.24 405.587 3092.17 403 3086.28 403C3080.42 403 3075.36 405.568 3073.04 409.271C3072.67 409.242 3072.29 409.227 3071.91 409.227C3070.51 409.227 3069.16 409.434 3067.94 409.811C3065.9 408.431 3063.18 407.59 3060.2 407.59C3054.92 407.59 3050.47 410.229 3049.12 413.826C3049.06 413.825 3048.99 413.824 3048.92 413.824C3045.76 413.824 3043.07 415.314 3042.06 417.397C3041.45 417.207 3040.78 417.102 3040.08 417.102C3037.27 417.102 3035 418.79 3035 420.872C3035 422.955 3037.27 424.643 3040.08 424.643C3041.68 424.643 3043.1 424.099 3044.03 423.248C3045.33 424.116 3047.04 424.645 3048.92 424.645C3050.82 424.645 3052.55 424.106 3053.85 423.223C3055.67 424.119 3057.85 424.64 3060.2 424.64C3062.41 424.64 3064.47 424.179 3066.22 423.378C3067.86 424.174 3069.81 424.637 3071.91 424.637C3074.38 424.637 3076.64 424.001 3078.42 422.938Z" fill="white"/>
</g>
<mask id="mask3_123_364" style="mask-type:alpha" maskUnits="userSpaceOnUse" x="3965" y="73" width="90" height="19">
<rect width="89.7503" height="18.6897" transform="matrix(-1 -8.74228e-08 -8.74228e-08 1 4054.75 73)" fill="#D9D9D9"/>
</mask>
<g mask="url(#mask3_123_364)">
<path fill-rule="evenodd" clip-rule="evenodd" d="M4008.42 92.9382C4010.69 94.0159 4013.39 94.6407 4016.28 94.6407C4019.28 94.6407 4022.07 93.9691 4024.39 92.8176C4026.2 93.9529 4028.54 94.6373 4031.1 94.6373C4032.94 94.6373 4034.67 94.281 4036.17 93.656C4037.36 94.2787 4038.81 94.6446 4040.38 94.6446C4042.26 94.6446 4043.98 94.1153 4045.27 93.2465C4046.2 94.0985 4047.63 94.643 4049.22 94.643C4052.03 94.643 4054.31 92.9548 4054.31 90.8723C4054.31 88.7898 4052.03 87.1016 4049.22 87.1016C4048.52 87.1016 4047.85 87.2072 4047.24 87.3982C4046.25 85.3646 4043.67 83.8969 4040.61 83.8268C4039 81.1177 4035.34 79.2266 4031.1 79.2266C4030.57 79.2266 4030.05 79.2555 4029.55 79.3114C4027.24 75.5867 4022.17 73 4016.28 73C4010.41 73 4005.36 75.5681 4003.04 79.2713C4002.67 79.2417 4002.29 79.2266 4001.91 79.2266C4000.51 79.2266 3999.16 79.4344 3997.94 79.8109C3995.9 78.4311 3993.18 77.5898 3990.2 77.5898C3984.92 77.5898 3980.47 80.2294 3979.12 83.8262C3979.06 83.8249 3978.99 83.8242 3978.92 83.8242C3975.76 83.8242 3973.07 85.3135 3972.06 87.3971C3971.45 87.2068 3970.78 87.1016 3970.08 87.1016C3967.27 87.1016 3965 88.7898 3965 90.8723C3965 92.9548 3967.27 94.643 3970.08 94.643C3971.68 94.643 3973.1 94.0992 3974.03 93.248C3975.32 94.116 3977.04 94.6446 3978.92 94.6446C3980.82 94.6446 3982.55 94.1059 3983.85 93.2233C3985.67 94.1186 3987.85 94.6401 3990.2 94.6401C3992.41 94.6401 3994.47 94.1785 3996.22 93.3784C3997.86 94.1744 3999.81 94.6373 4001.91 94.6373C4004.38 94.6373 4006.64 94.0012 4008.42 92.9382Z" fill="white"/>
</g>
<mask id="mask4_123_364" style="mask-type:alpha" maskUnits="userSpaceOnUse" x="1613" y="61" width="144" height="31">
<rect x="1613" y="61.9995" width="143.044" height="29.7876" fill="#D9D9D9"/>
</mask>
<g mask="url(#mask4_123_364)">
<path fill-rule="evenodd" clip-rule="evenodd" d="M1686.83 93.7777C1683.22 95.4946 1678.92 96.49 1674.31 96.49C1669.53 96.49 1665.08 95.4206 1661.39 93.5867C1658.51 95.3966 1654.77 96.4878 1650.7 96.4878C1647.76 96.4878 1644.99 95.9184 1642.6 94.9201C1640.71 95.9107 1638.4 96.4926 1635.9 96.4926C1632.9 96.4926 1630.17 95.6501 1628.11 94.2668C1626.62 95.6246 1624.35 96.4923 1621.81 96.4923C1617.34 96.4923 1613.71 93.8016 1613.71 90.4825C1613.71 87.1634 1617.34 84.4727 1621.81 84.4727C1622.93 84.4727 1623.99 84.6406 1624.96 84.9442C1626.54 81.7011 1630.66 79.3608 1635.54 79.2512C1638.11 74.937 1643.93 71.9261 1650.7 71.9261C1651.54 71.9261 1652.36 71.972 1653.16 72.0607C1656.83 66.1229 1664.92 61.9991 1674.31 61.9991C1683.66 61.9991 1691.72 66.0936 1695.41 71.9973C1696 71.9502 1696.6 71.9261 1697.21 71.9261C1699.45 71.9261 1701.59 72.257 1703.54 72.8567C1706.8 70.6562 1711.13 69.3145 1715.88 69.3145C1724.29 69.3145 1731.38 73.5197 1733.53 79.2503C1733.64 79.2482 1733.74 79.2471 1733.85 79.2471C1738.89 79.2471 1743.17 81.622 1744.79 84.9442C1745.76 84.6406 1746.82 84.4727 1747.94 84.4727C1752.42 84.4727 1756.05 87.1634 1756.05 90.4825C1756.05 93.8016 1752.42 96.4923 1747.94 96.4923C1745.4 96.4923 1743.13 95.6246 1741.65 94.2668C1739.58 95.6501 1736.85 96.4926 1733.85 96.4926C1730.82 96.4926 1728.07 95.6353 1726 94.2303C1723.1 95.6577 1719.62 96.4892 1715.88 96.4892C1712.36 96.4892 1709.08 95.754 1706.29 94.4796C1703.68 95.7492 1700.56 96.4878 1697.21 96.4878C1693.28 96.4878 1689.67 95.473 1686.83 93.7777Z" fill="white"/>
</g>
<mask id="mask5_123_364" style="mask-type:alpha" maskUnits="userSpaceOnUse" x="3621" y="392" width="144" height="30">
<rect x="3621" y="392" width="143.044" height="29.7876" fill="#D9D9D9"/>
</mask>
<g mask="url(#mask5_123_364)">
<path fill-rule="evenodd" clip-rule="evenodd" d="M3694.83 423.778C3691.21 425.495 3686.92 426.491 3682.3 426.491C3677.53 426.491 3673.08 425.421 3669.39 423.587C3666.5 425.397 3662.77 426.488 3658.7 426.488C3655.76 426.488 3652.99 425.919 3650.6 424.921C3648.7 425.911 3646.39 426.493 3643.9 426.493C3640.9 426.493 3638.17 425.651 3636.1 424.267C3634.62 425.625 3632.35 426.493 3629.81 426.493C3625.33 426.493 3621.71 423.802 3621.71 420.483C3621.71 417.164 3625.33 414.473 3629.81 414.473C3630.93 414.473 3631.99 414.641 3632.96 414.945C3634.54 411.702 3638.66 409.361 3643.54 409.252C3646.11 404.937 3651.93 401.927 3658.7 401.927C3659.53 401.927 3660.36 401.972 3661.16 402.061C3664.83 396.123 3672.92 392 3682.3 392C3691.66 392 3699.72 396.094 3703.41 401.998C3704 401.951 3704.6 401.927 3705.21 401.927C3707.45 401.927 3709.59 402.258 3711.54 402.857C3714.8 400.657 3719.13 399.315 3723.88 399.315C3732.29 399.315 3739.38 403.52 3741.53 409.251C3741.64 409.249 3741.74 409.248 3741.85 409.248C3746.88 409.248 3751.17 411.623 3752.79 414.945C3753.76 414.641 3754.82 414.473 3755.94 414.473C3760.42 414.473 3764.04 417.164 3764.04 420.483C3764.04 423.802 3760.42 426.493 3755.94 426.493C3753.4 426.493 3751.13 425.625 3749.64 424.267C3747.58 425.651 3744.85 426.493 3741.85 426.493C3738.82 426.493 3736.07 425.636 3734 424.231C3731.1 425.658 3727.62 426.49 3723.88 426.49C3720.36 426.49 3717.07 425.755 3714.28 424.48C3711.68 425.75 3708.56 426.488 3705.21 426.488C3701.28 426.488 3697.67 425.474 3694.83 423.778Z" fill="white"/>
</g>
<mask id="mask6_123_364" style="mask-type:alpha" maskUnits="userSpaceOnUse" x="2630" y="203" width="164" height="35">
<rect x="2630" y="203.922" width="163" height="33.9432" fill="#D9D9D9"/>
</mask>
<g mask="url(#mask6_123_364)">
<path fill-rule="evenodd" clip-rule="evenodd" d="M2714.13 240.134C2710.01 242.09 2705.11 243.225 2699.86 243.225C2694.41 243.225 2689.35 242.006 2685.14 239.916C2681.85 241.978 2677.6 243.222 2672.96 243.222C2669.6 243.222 2666.45 242.573 2663.72 241.435C2661.57 242.565 2658.93 243.228 2656.09 243.228C2652.68 243.228 2649.56 242.268 2647.21 240.692C2645.52 242.239 2642.93 243.227 2640.04 243.227C2634.94 243.227 2630.8 240.161 2630.8 236.379C2630.8 232.597 2634.94 229.531 2640.04 229.531C2641.31 229.531 2642.52 229.722 2643.63 230.067C2645.43 226.372 2650.12 223.706 2655.69 223.581C2658.61 218.665 2665.24 215.233 2672.96 215.233C2673.91 215.233 2674.84 215.286 2675.76 215.387C2679.95 208.621 2689.16 203.922 2699.86 203.922C2710.51 203.922 2719.7 208.588 2723.91 215.315C2724.58 215.261 2725.26 215.233 2725.95 215.233C2728.51 215.233 2730.95 215.611 2733.17 216.295C2736.88 213.787 2741.82 212.258 2747.23 212.258C2756.82 212.258 2764.89 217.05 2767.35 223.58C2767.47 223.578 2767.59 223.576 2767.71 223.576C2773.45 223.576 2778.33 226.283 2780.17 230.068C2781.28 229.722 2782.49 229.531 2783.77 229.531C2788.87 229.531 2793 232.597 2793 236.379C2793 240.161 2788.87 243.227 2783.77 243.227C2780.87 243.227 2778.28 242.238 2776.59 240.691C2774.24 242.267 2771.13 243.228 2767.71 243.228C2764.26 243.228 2761.12 242.251 2758.76 240.65C2755.46 242.276 2751.49 243.224 2747.23 243.224C2743.22 243.224 2739.48 242.386 2736.3 240.933C2733.33 242.38 2729.77 243.222 2725.95 243.222C2721.48 243.222 2717.36 242.066 2714.13 240.134Z" fill="white"/>
</g>
<mask id="mask7_123_364" style="mask-type:alpha" maskUnits="userSpaceOnUse" x="3125" y="92" width="164" height="34">
<rect x="3125" y="92" width="163" height="33.9432" fill="#D9D9D9"/>
</mask>
<g mask="url(#mask7_123_364)">
<path fill-rule="evenodd" clip-rule="evenodd" d="M3209.13 128.212C3205.01 130.168 3200.11 131.303 3194.85 131.303C3189.41 131.303 3184.34 130.084 3180.13 127.994C3176.85 130.056 3172.6 131.3 3167.95 131.3C3164.6 131.3 3161.45 130.651 3158.72 129.513C3156.57 130.642 3153.93 131.306 3151.09 131.306C3147.67 131.306 3144.56 130.346 3142.21 128.77C3140.52 130.317 3137.93 131.305 3135.04 131.305C3129.94 131.305 3125.8 128.239 3125.8 124.457C3125.8 120.674 3129.94 117.608 3135.04 117.608C3136.31 117.608 3137.52 117.799 3138.63 118.145C3140.42 114.45 3145.12 111.784 3150.68 111.659C3153.61 106.743 3160.24 103.311 3167.95 103.311C3168.91 103.311 3169.84 103.364 3170.76 103.465C3174.94 96.6989 3184.16 92 3194.85 92C3205.51 92 3214.7 96.6655 3218.9 103.393C3219.58 103.339 3220.26 103.311 3220.95 103.311C3223.51 103.311 3225.95 103.689 3228.17 104.372C3231.88 101.865 3236.81 100.336 3242.23 100.336C3251.82 100.336 3259.89 105.128 3262.34 111.658C3262.46 111.656 3262.58 111.654 3262.7 111.654C3268.44 111.654 3273.33 114.361 3275.17 118.146C3276.28 117.8 3277.49 117.608 3278.76 117.608C3283.86 117.608 3288 120.674 3288 124.457C3288 128.239 3283.86 131.305 3278.76 131.305C3275.87 131.305 3273.28 130.316 3271.59 128.769C3269.24 130.345 3266.12 131.306 3262.7 131.306C3259.26 131.306 3256.12 130.329 3253.76 128.728C3250.46 130.354 3246.49 131.301 3242.23 131.301C3238.22 131.301 3234.48 130.463 3231.3 129.011C3228.32 130.458 3224.77 131.3 3220.95 131.3C3216.47 131.3 3212.36 130.143 3209.13 128.212Z" fill="white"/>
</g>
<mask id="mask8_123_364" style="mask-type:alpha" maskUnits="userSpaceOnUse" x="1364" y="163" width="134" height="29">
<rect width="133.078" height="27.7123" transform="matrix(-1 -8.74228e-08 -8.74228e-08 1 1497.08 163.999)" fill="#D9D9D9"/>
</mask>
<g mask="url(#mask8_123_364)">
<path fill-rule="evenodd" clip-rule="evenodd" d="M1428.4 193.563C1431.76 195.161 1435.76 196.087 1440.05 196.087C1444.49 196.087 1448.63 195.092 1452.06 193.386C1454.75 195.069 1458.22 196.084 1462.01 196.084C1464.75 196.084 1467.32 195.554 1469.55 194.624C1471.31 195.545 1473.46 196.086 1475.77 196.086C1478.57 196.086 1481.11 195.302 1483.03 194.014C1484.41 195.277 1486.52 196.084 1488.89 196.084C1493.05 196.084 1496.42 193.581 1496.42 190.493C1496.42 187.405 1493.05 184.902 1488.89 184.902C1487.84 184.902 1486.85 185.058 1485.95 185.341C1484.48 182.324 1480.65 180.147 1476.11 180.046C1473.72 176.034 1468.3 173.234 1462.01 173.234C1461.23 173.234 1460.47 173.276 1459.72 173.359C1456.3 167.835 1448.78 163.999 1440.05 163.999C1431.35 163.999 1423.85 167.808 1420.41 173.3C1419.86 173.256 1419.31 173.234 1418.74 173.234C1416.65 173.234 1414.66 173.542 1412.84 174.101C1409.81 172.055 1405.79 170.808 1401.37 170.808C1393.54 170.808 1386.95 174.717 1384.95 180.045C1384.85 180.043 1384.75 180.042 1384.65 180.042C1379.97 180.042 1375.98 182.251 1374.48 185.341C1373.57 185.058 1372.58 184.902 1371.54 184.902C1367.38 184.902 1364 187.405 1364 190.493C1364 193.581 1367.38 196.084 1371.54 196.084C1373.9 196.084 1376.01 195.277 1377.4 194.013C1379.32 195.302 1381.86 196.086 1384.65 196.086C1387.46 196.086 1390.03 195.29 1391.95 193.986C1394.65 195.315 1397.89 196.089 1401.37 196.089C1404.64 196.089 1407.7 195.404 1410.3 194.217C1412.72 195.398 1415.62 196.084 1418.74 196.084C1422.4 196.084 1425.75 195.14 1428.4 193.563Z" fill="white"/>
</g>
</g>
<defs>
<linearGradient id="paint0_linear_123_364" x1="2005.5" y1="659.168" x2="2005.5" y2="102.961" gradientUnits="userSpaceOnUse">
<stop stop-color="#CAF1F3"/>
<stop offset="1" stop-color="#DEF3F5"/>
</linearGradient>
</defs>
</svg>
