<svg width="4010" height="621" viewBox="0 0 4010 621" fill="none" xmlns="http://www.w3.org/2000/svg">
<mask id="mask0_1931_1305" style="mask-type:alpha" maskUnits="userSpaceOnUse" x="0" y="0" width="4010" height="621">
<rect width="4010" height="621" fill="#D9D9D9"/>
</mask>
<g mask="url(#mask0_1931_1305)">
<path fill-rule="evenodd" clip-rule="evenodd" d="M1229 621H4010V308V224V222V47.0001V46V31V30.0001V0H2523.5C2514.94 0 2508 6.93958 2508 15.5C2508 24.0604 2514.94 31 2523.5 31H2608.27C2610.91 32.4008 2612.71 35.1778 2612.71 38.3746C2612.71 41.7751 2610.68 44.7005 2607.76 46H1411C1364.61 46 1327 83.6081 1327 130V140C1327 186.392 1364.61 224 1411 224H1443C1442.87 224.042 1442.74 224.084 1442.61 224.127L1442.4 224.196L1442.25 224.246C1442.09 224.301 1441.93 224.356 1441.77 224.411C1463.19 226.254 1480 244.225 1480 266.123C1480 286.209 1465.86 302.992 1446.98 307.053C1449.86 307.668 1452.85 307.994 1455.91 308H1300C1260.79 308 1229 339.788 1229 379V621Z" fill="url(#paint0_linear_1931_1305)"/>
<mask id="mask1_1931_1305" style="mask-type:alpha" maskUnits="userSpaceOnUse" x="2411" y="358" width="91" height="20">
<rect width="89.7503" height="18.6307" transform="matrix(-1 -8.71469e-08 -8.76995e-08 1 2501.75 358.864)" fill="#D9D9D9"/>
</mask>
<g mask="url(#mask1_1931_1305)">
<path fill-rule="evenodd" clip-rule="evenodd" d="M2455.42 378.74C2457.69 379.814 2460.39 380.437 2463.28 380.437C2466.28 380.437 2469.07 379.767 2471.39 378.619C2473.2 379.751 2475.54 380.433 2478.09 380.433C2479.94 380.433 2481.67 380.078 2483.17 379.455C2484.36 380.076 2485.81 380.44 2487.38 380.44C2489.26 380.44 2490.98 379.913 2492.27 379.047C2493.2 379.896 2494.62 380.439 2496.22 380.439C2499.03 380.439 2501.3 378.756 2501.3 376.68C2501.3 374.604 2499.03 372.921 2496.22 372.921C2495.52 372.921 2494.85 373.027 2494.24 373.217C2493.25 371.19 2490.67 369.727 2487.61 369.657C2486 366.956 2482.34 365.071 2478.09 365.071C2477.57 365.071 2477.05 365.1 2476.55 365.156C2474.24 361.443 2469.17 358.864 2463.28 358.864C2457.41 358.864 2452.35 361.424 2450.04 365.116C2449.67 365.086 2449.29 365.071 2448.91 365.071C2447.5 365.071 2446.16 365.278 2444.94 365.654C2442.89 364.278 2440.18 363.44 2437.2 363.44C2431.92 363.44 2427.47 366.071 2426.12 369.656C2426.05 369.655 2425.99 369.654 2425.92 369.654C2422.76 369.654 2420.07 371.139 2419.06 373.216C2418.45 373.026 2417.78 372.921 2417.08 372.921C2414.27 372.921 2412 374.604 2412 376.68C2412 378.756 2414.27 380.439 2417.08 380.439C2418.67 380.439 2420.1 379.897 2421.03 379.048C2422.32 379.913 2424.04 380.44 2425.92 380.44C2427.82 380.44 2429.55 379.904 2430.85 379.024C2432.67 379.916 2434.85 380.436 2437.2 380.436C2439.4 380.436 2441.47 379.976 2443.22 379.178C2444.85 379.972 2446.81 380.433 2448.91 380.433C2451.38 380.433 2453.64 379.799 2455.42 378.74Z" fill="white"/>
</g>
<mask id="mask2_1931_1305" style="mask-type:alpha" maskUnits="userSpaceOnUse" x="1521" y="367" width="278" height="59">
<rect x="1521" y="367.816" width="277.504" height="57.6053" fill="#D9D9D9"/>
</mask>
<g mask="url(#mask2_1931_1305)">
<path fill-rule="evenodd" clip-rule="evenodd" d="M1664.22 429.271C1657.21 432.592 1648.87 434.517 1639.93 434.517C1630.65 434.517 1622.03 432.449 1614.87 428.903C1609.27 432.402 1602.03 434.513 1594.13 434.513C1588.42 434.513 1583.06 433.411 1578.41 431.481C1574.74 433.397 1570.26 434.522 1565.42 434.522C1559.6 434.522 1554.3 432.893 1550.3 430.218C1547.42 432.843 1543.02 434.521 1538.09 434.521C1529.4 434.521 1522.37 429.317 1522.37 422.899C1522.37 416.48 1529.4 411.277 1538.09 411.277C1540.25 411.277 1542.32 411.601 1544.2 412.188C1547.26 405.917 1555.26 401.391 1564.73 401.18C1569.71 392.836 1581 387.013 1594.13 387.013C1595.75 387.013 1597.35 387.102 1598.9 387.274C1606.03 375.791 1621.72 367.816 1639.93 367.816C1658.07 367.816 1673.71 375.735 1680.87 387.151C1682.02 387.06 1683.18 387.013 1684.36 387.013C1688.71 387.013 1692.86 387.654 1696.65 388.813C1702.96 384.558 1711.36 381.963 1720.58 381.963C1736.9 381.963 1750.65 390.096 1754.82 401.178C1755.03 401.174 1755.23 401.172 1755.44 401.172C1765.21 401.172 1773.53 405.764 1776.66 412.189C1778.54 411.601 1780.61 411.277 1782.78 411.277C1791.46 411.277 1798.5 416.48 1798.5 422.899C1798.5 429.317 1791.46 434.521 1782.78 434.521C1777.85 434.521 1773.45 432.843 1770.56 430.217C1766.56 432.893 1761.26 434.522 1755.44 434.522C1749.57 434.522 1744.22 432.865 1740.21 430.148C1734.58 432.908 1727.84 434.515 1720.58 434.515C1713.76 434.515 1707.38 433.094 1701.97 430.629C1696.91 433.084 1690.86 434.513 1684.36 434.513C1676.73 434.513 1669.73 432.55 1664.22 429.271Z" fill="white"/>
</g>
<mask id="mask3_1931_1305" style="mask-type:alpha" maskUnits="userSpaceOnUse" x="3152" y="425" width="471" height="98">
<rect x="3152" y="425" width="470.198" height="97.6054" fill="#D9D9D9"/>
</mask>
<g mask="url(#mask3_1931_1305)">
<path fill-rule="evenodd" clip-rule="evenodd" d="M3394.67 529.129C3382.79 534.755 3368.66 538.017 3353.51 538.017C3337.8 538.017 3323.19 534.513 3311.05 528.504C3301.57 534.434 3289.3 538.009 3275.91 538.009C3266.24 538.009 3257.15 536.143 3249.28 532.872C3243.06 536.118 3235.46 538.025 3227.27 538.025C3217.41 538.025 3208.42 535.265 3201.64 530.732C3196.76 535.18 3189.3 538.022 3180.95 538.022C3166.24 538.022 3154.31 529.206 3154.31 518.33C3154.31 507.454 3166.24 498.638 3180.95 498.638C3184.62 498.638 3188.12 499.188 3191.31 500.182C3196.49 489.556 3210.05 481.889 3226.09 481.53C3234.54 467.394 3253.67 457.528 3275.91 457.528C3278.66 457.528 3281.36 457.678 3284 457.969C3296.07 438.512 3322.66 425 3353.51 425C3384.25 425 3410.75 438.417 3422.89 457.761C3424.82 457.607 3426.79 457.528 3428.79 457.528C3436.16 457.528 3443.2 458.612 3449.61 460.577C3460.31 453.366 3474.54 448.97 3490.16 448.97C3517.82 448.97 3541.12 462.749 3548.19 481.527C3548.53 481.52 3548.88 481.517 3549.23 481.517C3565.78 481.517 3579.88 489.298 3585.19 500.183C3588.37 499.188 3591.88 498.638 3595.55 498.638C3610.26 498.638 3622.19 507.454 3622.19 518.33C3622.19 529.206 3610.26 538.022 3595.55 538.022C3587.2 538.022 3579.74 535.179 3574.86 530.731C3568.08 535.264 3559.09 538.025 3549.23 538.025C3539.28 538.025 3530.22 535.216 3523.42 530.613C3513.89 535.289 3502.46 538.013 3490.16 538.013C3478.6 538.013 3467.8 535.604 3458.63 531.428C3450.06 535.589 3439.8 538.009 3428.79 538.009C3415.87 538.009 3404.01 534.684 3394.67 529.129Z" fill="white"/>
</g>
<mask id="mask4_1931_1305" style="mask-type:alpha" maskUnits="userSpaceOnUse" x="2654" y="203" width="163" height="35">
<rect x="2654" y="203.279" width="163" height="33.8361" fill="#D9D9D9"/>
</mask>
<g mask="url(#mask4_1931_1305)">
<path fill-rule="evenodd" clip-rule="evenodd" d="M2738.12 239.377C2734.01 241.327 2729.11 242.458 2723.85 242.458C2718.41 242.458 2713.34 241.243 2709.13 239.16C2705.85 241.216 2701.6 242.455 2696.95 242.455C2693.6 242.455 2690.45 241.809 2687.72 240.675C2685.56 241.8 2682.93 242.461 2680.09 242.461C2676.67 242.461 2673.56 241.504 2671.21 239.933C2669.52 241.475 2666.93 242.46 2664.04 242.46C2658.94 242.46 2654.8 239.404 2654.8 235.633C2654.8 231.863 2658.94 228.807 2664.04 228.807C2665.31 228.807 2666.52 228.997 2667.63 229.342C2669.42 225.658 2674.12 223 2679.68 222.876C2682.61 217.976 2689.24 214.555 2696.95 214.555C2697.91 214.555 2698.84 214.608 2699.76 214.708C2703.94 207.964 2713.16 203.279 2723.85 203.279C2734.51 203.279 2743.7 207.93 2747.9 214.636C2748.58 214.583 2749.26 214.555 2749.95 214.555C2752.51 214.555 2754.95 214.932 2757.17 215.613C2760.88 213.113 2765.81 211.589 2771.23 211.589C2780.81 211.589 2788.89 216.366 2791.34 222.875C2791.46 222.873 2791.58 222.872 2791.7 222.872C2797.44 222.872 2802.33 225.569 2804.17 229.343C2805.27 228.998 2806.49 228.807 2807.76 228.807C2812.86 228.807 2817 231.863 2817 235.633C2817 239.404 2812.86 242.46 2807.76 242.46C2804.87 242.46 2802.28 241.474 2800.59 239.932C2798.24 241.504 2795.12 242.461 2791.7 242.461C2788.26 242.461 2785.12 241.487 2782.76 239.891C2779.46 241.513 2775.49 242.457 2771.23 242.457C2767.22 242.457 2763.48 241.622 2760.3 240.174C2757.32 241.616 2753.77 242.455 2749.95 242.455C2745.47 242.455 2741.36 241.303 2738.12 239.377Z" fill="white"/>
</g>
<mask id="mask5_1931_1305" style="mask-type:alpha" maskUnits="userSpaceOnUse" x="1388" y="163" width="134" height="29">
<rect width="133.078" height="27.6248" transform="matrix(-1 -8.71469e-08 -8.76995e-08 1 1521.08 163.482)" fill="#D9D9D9"/>
</mask>
<g mask="url(#mask5_1931_1305)">
<path fill-rule="evenodd" clip-rule="evenodd" d="M1452.39 192.954C1455.76 194.546 1459.75 195.469 1464.04 195.469C1468.49 195.469 1472.63 194.477 1476.06 192.776C1478.75 194.454 1482.22 195.466 1486.01 195.466C1488.75 195.466 1491.32 194.937 1493.55 194.011C1495.31 194.929 1497.46 195.468 1499.77 195.468C1502.57 195.468 1505.11 194.686 1507.03 193.403C1508.41 194.661 1510.52 195.465 1512.88 195.465C1517.05 195.465 1520.42 192.97 1520.42 189.892C1520.42 186.814 1517.05 184.319 1512.88 184.319C1511.84 184.319 1510.85 184.474 1509.95 184.756C1508.48 181.749 1504.65 179.579 1500.11 179.478C1497.71 175.479 1492.3 172.687 1486.01 172.687C1485.23 172.687 1484.46 172.73 1483.72 172.812C1480.3 167.306 1472.78 163.482 1464.04 163.482C1455.34 163.482 1447.84 167.279 1444.41 172.753C1443.86 172.71 1443.3 172.687 1442.74 172.687C1440.65 172.687 1438.66 172.995 1436.84 173.553C1433.81 171.513 1429.79 170.269 1425.37 170.269C1417.54 170.269 1410.95 174.166 1408.95 179.478C1408.85 179.476 1408.75 179.475 1408.65 179.475C1403.97 179.475 1399.98 181.677 1398.47 184.757C1397.57 184.475 1396.58 184.319 1395.54 184.319C1391.37 184.319 1388 186.814 1388 189.892C1388 192.97 1391.37 195.465 1395.54 195.465C1397.9 195.465 1400.01 194.661 1401.39 193.402C1403.31 194.686 1405.86 195.468 1408.65 195.468C1411.46 195.468 1414.02 194.675 1415.95 193.374C1418.65 194.699 1421.88 195.471 1425.37 195.471C1428.64 195.471 1431.7 194.788 1434.3 193.604C1436.72 194.781 1439.62 195.466 1442.74 195.466C1446.4 195.466 1449.75 194.525 1452.39 192.954Z" fill="white"/>
</g>
<mask id="mask6_1931_1305" style="mask-type:alpha" maskUnits="userSpaceOnUse" x="3717" y="82" width="134" height="28">
<rect width="133.078" height="27.6248" transform="matrix(-1 -8.71469e-08 -8.76995e-08 1 3850.08 82)" fill="#D9D9D9"/>
</mask>
<g mask="url(#mask6_1931_1305)">
<path fill-rule="evenodd" clip-rule="evenodd" d="M3781.39 111.471C3784.76 113.064 3788.75 113.987 3793.04 113.987C3797.49 113.987 3801.63 112.995 3805.06 111.294C3807.75 112.972 3811.22 113.983 3815.01 113.983C3817.75 113.983 3820.32 113.455 3822.55 112.528C3824.31 113.446 3826.46 113.986 3828.77 113.986C3831.57 113.986 3834.11 113.204 3836.03 111.921C3837.41 113.179 3839.52 113.983 3841.88 113.983C3846.05 113.983 3849.42 111.488 3849.42 108.41C3849.42 105.331 3846.05 102.836 3841.88 102.836C3840.84 102.836 3839.85 102.992 3838.95 103.273C3837.48 100.266 3833.65 98.0968 3829.11 97.9959C3826.71 93.9963 3821.3 91.2051 3815.01 91.2051C3814.23 91.2051 3813.46 91.2477 3812.72 91.33C3809.3 85.8239 3801.78 82 3793.04 82C3784.34 82 3776.84 85.7966 3773.41 91.2711C3772.86 91.2275 3772.3 91.2051 3771.74 91.2051C3769.65 91.2051 3767.66 91.5128 3765.84 92.0702C3762.81 90.0305 3758.79 88.7869 3754.37 88.7869C3746.54 88.7869 3739.95 92.6837 3737.95 97.9951C3737.85 97.9932 3737.75 97.9922 3737.65 97.9922C3732.97 97.9922 3728.98 100.194 3727.47 103.274C3726.57 102.992 3725.58 102.836 3724.54 102.836C3720.37 102.836 3717 105.331 3717 108.41C3717 111.488 3720.37 113.983 3724.54 113.983C3726.9 113.983 3729.01 113.178 3730.39 111.919C3732.31 113.203 3734.86 113.986 3737.65 113.986C3740.46 113.986 3743.02 113.192 3744.95 111.892C3747.65 113.217 3750.88 113.988 3754.37 113.988C3757.64 113.988 3760.7 113.306 3763.3 112.122C3765.72 113.299 3768.62 113.983 3771.74 113.983C3775.4 113.983 3778.75 113.043 3781.39 111.471Z" fill="white"/>
</g>
</g>
<defs>
<linearGradient id="paint0_linear_1931_1305" x1="2029.5" y1="657.089" x2="2029.5" y2="102.637" gradientUnits="userSpaceOnUse">
<stop stop-color="#CAF1F3"/>
<stop offset="1" stop-color="#DEF3F5"/>
</linearGradient>
</defs>
</svg>
