<svg width="4010" height="446" viewBox="0 0 4010 446" fill="none" xmlns="http://www.w3.org/2000/svg">
<mask id="mask0_202_4369" style="mask-type:alpha" maskUnits="userSpaceOnUse" x="0" y="0" width="4010" height="446">
<rect width="4010" height="446" fill="#D9D9D9"/>
</mask>
<g mask="url(#mask0_202_4369)">
<mask id="mask1_202_4369" style="mask-type:alpha" maskUnits="userSpaceOnUse" x="1885" y="0" width="2125" height="447">
<rect width="2125" height="447" transform="matrix(-1 0 0 1 4010 0)" fill="#D9D9D9"/>
</mask>
<g mask="url(#mask1_202_4369)">
<path fill-rule="evenodd" clip-rule="evenodd" d="M2371.77 471.988C2350.46 471.989 2333.18 489.266 2333.18 510.579C2333.18 531.892 2350.46 549.169 2371.77 549.169L2905.35 549.169L2905.35 471.988L2371.77 471.988ZM4010 103L4010 77.0002L4010 2.58051e-06L2371.5 -0.000140662C2350.24 -0.000142521 2333 17.2369 2333 38.4999C2333 59.6956 2350.13 76.8907 2371.3 76.9995L2370 76.9995C2369.18 76.9995 2368.37 77.0758 2367.59 77.2218L2377.7 77.2218C2384.76 77.2218 2390.48 82.9435 2390.48 90.0015C2390.48 97.0596 2384.76 102.781 2377.7 102.781L2367.62 102.781C2368.39 102.925 2369.19 103 2370 103L4010 103ZM2042.5 228C2007.98 228 1980 200.018 1980 165.5C1980 130.982 2007.98 103 2042.5 103L4010 103L4010 228L2042.5 228ZM1886 371C1886 412.421 1919.58 446 1961 446L4010 446L4010 296L4010 228L2138.96 228C2156.63 229.281 2170.56 244.018 2170.56 262.009C2170.56 279.92 2156.75 294.606 2139.2 296L1961 296C1919.58 296 1886 329.578 1886 371Z" fill="#D5F2F4"/>
</g>
</g>
</svg>
