<svg width="4010" height="659" viewBox="0 0 4010 659" fill="none" xmlns="http://www.w3.org/2000/svg">
<mask id="mask0_183_234" style="mask-type:alpha" maskUnits="userSpaceOnUse" x="0" y="0" width="4010" height="659">
<rect width="4010" height="659" fill="#D9D9D9"/>
</mask>
<g mask="url(#mask0_183_234)">
<path fill-rule="evenodd" clip-rule="evenodd" d="M4010 659H705V521C705 481.788 736.788 450 776 450H899.262C918.559 445.764 933 428.568 933 408C933 387.432 918.559 370.236 899.262 366H826C793.415 366 767 339.585 767 307C767 274.415 793.415 248 826 248H956.5C962.851 248 968 242.851 968 236.5C968 230.152 962.856 225.005 956.51 225H933C886.608 225 849 187.392 849 141V130C849 83.6081 886.608 46 933 46H2346.5C2349.18 44.5685 2351 41.7469 2351 38.5C2351 35.2531 2349.18 32.4315 2346.5 31H2244.5C2235.94 31 2229 24.0604 2229 15.5C2229 6.93958 2235.94 0 2244.5 0H4010V30V31V46V47V225V248V365V366V450V451V659Z" fill="url(#paint0_linear_183_234)"/>
<mask id="mask1_183_234" style="mask-type:alpha" maskUnits="userSpaceOnUse" x="2387" y="360" width="91" height="19">
<rect width="89.7503" height="18.6897" transform="matrix(-1 -8.74228e-08 -8.74228e-08 1 2477.75 360.001)" fill="#D9D9D9"/>
</mask>
<g mask="url(#mask1_183_234)">
<path fill-rule="evenodd" clip-rule="evenodd" d="M2431.42 379.939C2433.69 381.017 2436.39 381.642 2439.28 381.642C2442.28 381.642 2445.07 380.97 2447.39 379.819C2449.2 380.954 2451.54 381.638 2454.09 381.638C2455.94 381.638 2457.67 381.282 2459.17 380.657C2460.36 381.28 2461.81 381.646 2463.37 381.646C2465.26 381.646 2466.97 381.116 2468.27 380.248C2469.2 381.1 2470.62 381.644 2472.22 381.644C2475.03 381.644 2477.3 379.956 2477.3 377.873C2477.3 375.791 2475.03 374.103 2472.22 374.103C2471.52 374.103 2470.85 374.208 2470.24 374.399C2469.25 372.366 2466.66 370.898 2463.6 370.828C2461.99 368.119 2458.34 366.228 2454.09 366.228C2453.57 366.228 2453.05 366.256 2452.55 366.312C2450.24 362.588 2445.17 360.001 2439.28 360.001C2433.41 360.001 2428.35 362.569 2426.04 366.272C2425.67 366.243 2425.29 366.228 2424.91 366.228C2423.5 366.228 2422.16 366.435 2420.94 366.812C2418.89 365.432 2416.18 364.591 2413.2 364.591C2407.92 364.591 2403.47 367.23 2402.12 370.827C2402.05 370.826 2401.99 370.825 2401.92 370.825C2398.76 370.825 2396.07 372.315 2395.06 374.399C2394.45 374.208 2393.78 374.103 2393.08 374.103C2390.27 374.103 2387.99 375.791 2387.99 377.873C2387.99 379.956 2390.27 381.644 2393.08 381.644C2394.67 381.644 2396.1 381.1 2397.03 380.248C2398.32 381.117 2400.04 381.646 2401.92 381.646C2403.82 381.646 2405.55 381.107 2406.85 380.224C2408.67 381.12 2410.85 381.641 2413.2 381.641C2415.4 381.641 2417.47 381.179 2419.22 380.379C2420.85 381.175 2422.81 381.638 2424.91 381.638C2427.38 381.638 2429.64 381.002 2431.42 379.939Z" fill="white"/>
</g>
<mask id="mask2_183_234" style="mask-type:alpha" maskUnits="userSpaceOnUse" x="1497" y="424" width="278" height="58">
<rect x="1497" y="424.001" width="277.504" height="57.7876" fill="#D9D9D9"/>
</mask>
<g mask="url(#mask2_183_234)">
<path fill-rule="evenodd" clip-rule="evenodd" d="M1640.22 485.651C1633.21 488.982 1624.87 490.913 1615.93 490.913C1606.65 490.913 1598.04 488.838 1590.87 485.281C1585.27 488.792 1578.04 490.908 1570.13 490.908C1564.42 490.908 1559.06 489.804 1554.41 487.867C1550.74 489.789 1546.26 490.918 1541.42 490.918C1535.6 490.918 1530.3 489.284 1526.3 486.6C1523.42 489.233 1519.02 490.916 1514.09 490.916C1505.4 490.916 1498.37 485.697 1498.37 479.258C1498.37 472.819 1505.4 467.599 1514.09 467.599C1516.25 467.599 1518.32 467.924 1520.2 468.513C1523.26 462.222 1531.26 457.682 1540.73 457.47C1545.71 449.1 1557 443.259 1570.13 443.259C1571.75 443.259 1573.35 443.348 1574.9 443.52C1582.03 432.001 1597.72 424.001 1615.93 424.001C1634.07 424.001 1649.71 431.944 1656.87 443.397C1658.02 443.306 1659.18 443.259 1660.35 443.259C1664.71 443.259 1668.86 443.901 1672.65 445.065C1678.96 440.796 1687.36 438.192 1696.58 438.192C1712.9 438.192 1726.65 446.351 1730.82 457.468C1731.03 457.464 1731.23 457.462 1731.44 457.462C1741.21 457.462 1749.53 462.069 1752.66 468.514C1754.54 467.925 1756.61 467.599 1758.78 467.599C1767.46 467.599 1774.5 472.819 1774.5 479.258C1774.5 485.697 1767.46 490.916 1758.78 490.916C1753.85 490.916 1749.45 489.233 1746.57 486.599C1742.56 489.283 1737.26 490.918 1731.44 490.918C1725.57 490.918 1720.22 489.255 1716.21 486.53C1710.59 489.298 1703.84 490.911 1696.58 490.911C1689.76 490.911 1683.38 489.484 1677.97 487.012C1672.91 489.475 1666.86 490.908 1660.35 490.908C1652.73 490.908 1645.73 488.94 1640.22 485.651Z" fill="white"/>
</g>
<mask id="mask3_183_234" style="mask-type:alpha" maskUnits="userSpaceOnUse" x="2630" y="192" width="278" height="58">
<rect x="2630" y="192.001" width="277.504" height="57.7876" fill="#D9D9D9"/>
</mask>
<g mask="url(#mask3_183_234)">
<path fill-rule="evenodd" clip-rule="evenodd" d="M2773.22 253.651C2766.21 256.982 2757.87 258.913 2748.93 258.913C2739.65 258.913 2731.04 256.838 2723.87 253.281C2718.27 256.792 2711.04 258.908 2703.13 258.908C2697.42 258.908 2692.06 257.804 2687.41 255.867C2683.74 257.789 2679.26 258.918 2674.42 258.918C2668.6 258.918 2663.3 257.284 2659.3 254.6C2656.42 257.233 2652.02 258.916 2647.09 258.916C2638.4 258.916 2631.37 253.697 2631.37 247.258C2631.37 240.819 2638.4 235.599 2647.09 235.599C2649.25 235.599 2651.32 235.924 2653.2 236.513C2656.26 230.222 2664.26 225.682 2673.73 225.47C2678.71 217.1 2690 211.259 2703.13 211.259C2704.75 211.259 2706.35 211.348 2707.9 211.52C2715.03 200.001 2730.72 192.001 2748.93 192.001C2767.07 192.001 2782.71 199.944 2789.87 211.397C2791.02 211.306 2792.18 211.259 2793.35 211.259C2797.71 211.259 2801.86 211.901 2805.65 213.065C2811.96 208.796 2820.36 206.192 2829.58 206.192C2845.9 206.192 2859.65 214.351 2863.82 225.468C2864.03 225.464 2864.23 225.462 2864.44 225.462C2874.21 225.462 2882.53 230.069 2885.66 236.514C2887.54 235.925 2889.61 235.599 2891.78 235.599C2900.46 235.599 2907.5 240.819 2907.5 247.258C2907.5 253.697 2900.46 258.916 2891.78 258.916C2886.85 258.916 2882.45 257.233 2879.57 254.599C2875.56 257.283 2870.26 258.918 2864.44 258.918C2858.57 258.918 2853.22 257.255 2849.21 254.53C2843.59 257.298 2836.84 258.911 2829.58 258.911C2822.76 258.911 2816.38 257.484 2810.97 255.012C2805.91 257.475 2799.86 258.908 2793.35 258.908C2785.73 258.908 2778.73 256.94 2773.22 253.651Z" fill="white"/>
</g>
<mask id="mask4_183_234" style="mask-type:alpha" maskUnits="userSpaceOnUse" x="1354" y="293" width="134" height="29">
<rect width="133.078" height="27.7123" transform="matrix(-1 -8.74228e-08 -8.74228e-08 1 1487.63 293.325)" fill="#D9D9D9"/>
</mask>
<g mask="url(#mask4_183_234)">
<path fill-rule="evenodd" clip-rule="evenodd" d="M1418.95 322.889C1422.31 324.486 1426.31 325.413 1430.6 325.413C1435.04 325.413 1439.18 324.418 1442.61 322.711C1445.3 324.395 1448.77 325.41 1452.56 325.41C1455.3 325.41 1457.87 324.879 1460.1 323.95C1461.86 324.871 1464.01 325.412 1466.32 325.412C1469.12 325.412 1471.66 324.627 1473.58 323.339C1474.96 324.602 1477.07 325.409 1479.44 325.409C1483.6 325.409 1486.97 322.906 1486.97 319.818C1486.97 316.73 1483.6 314.227 1479.44 314.227C1478.39 314.227 1477.4 314.383 1476.5 314.666C1475.03 311.65 1471.2 309.473 1466.66 309.371C1464.27 305.359 1458.85 302.559 1452.56 302.559C1451.78 302.559 1451.02 302.602 1450.27 302.684C1446.85 297.161 1439.33 293.325 1430.6 293.325C1421.9 293.325 1414.4 297.133 1410.96 302.625C1410.41 302.582 1409.86 302.559 1409.29 302.559C1407.2 302.559 1405.21 302.868 1403.39 303.427C1400.36 301.381 1396.34 300.133 1391.92 300.133C1384.1 300.133 1377.5 304.042 1375.5 309.371C1375.4 309.369 1375.3 309.368 1375.2 309.368C1370.52 309.368 1366.53 311.576 1365.02 314.666C1364.12 314.383 1363.13 314.227 1362.09 314.227C1357.93 314.227 1354.55 316.73 1354.55 319.818C1354.55 322.906 1357.93 325.409 1362.09 325.409C1364.45 325.409 1366.56 324.602 1367.95 323.339C1369.87 324.627 1372.41 325.412 1375.2 325.412C1378.01 325.412 1380.58 324.616 1382.5 323.311C1385.2 324.64 1388.44 325.415 1391.92 325.415C1395.19 325.415 1398.25 324.73 1400.85 323.543C1403.27 324.723 1406.18 325.41 1409.29 325.41C1412.95 325.41 1416.3 324.466 1418.95 322.889Z" fill="white"/>
</g>
</g>
<defs>
<linearGradient id="paint0_linear_183_234" x1="2005.5" y1="659.201" x2="2005.5" y2="102.994" gradientUnits="userSpaceOnUse">
<stop stop-color="#CAF1F3"/>
<stop offset="1" stop-color="#DEF3F5"/>
</linearGradient>
</defs>
</svg>
