<svg width="4010" height="381" viewBox="0 0 4010 381" fill="none" xmlns="http://www.w3.org/2000/svg">
<mask id="mask0_125_956" style="mask-type:alpha" maskUnits="userSpaceOnUse" x="0" y="0" width="4010" height="381">
<rect width="4010" height="381" transform="matrix(1 0 0 -1 0 381)" fill="#D9D9D9"/>
</mask>
<g mask="url(#mask0_125_956)">
<path fill-rule="evenodd" clip-rule="evenodd" d="M2367.91 -21.2993C2386.08 -21.2993 2400.8 -36.0257 2400.8 -54.1917C2400.8 -72.3576 2386.08 -87.084 2367.91 -87.084L1961.37 -87.084L1961.37 -21.2993L2367.91 -21.2993ZM2356.79 304.285C2356.79 309.628 2360.64 314.072 2365.71 315L2368 315C2386.23 315 2401 329.775 2401 348C2401 366.226 2386.23 381 2368 381L-3.68716e-05 381L-3.16727e-05 315L-295.001 315L-295.001 293L2372 293C2373.01 293 2373.99 293.137 2374.92 293.393L2367.69 293.393C2361.67 293.393 2356.79 298.27 2356.79 304.285ZM2382.59 301.011C2382.86 301.962 2383 302.964 2383 304.001C2383 305.037 2382.86 306.039 2382.59 306.99L2382.59 301.011ZM2619 187C2648.27 187 2672 210.729 2672 240C2672 269.271 2648.27 293 2619 293L-2.99397e-05 293L-2.159e-05 187L2619 187ZM2744 65.0001C2744 29.6538 2715.35 0.999997 2680 0.999994L-6.93849e-06 0.999734L-1.70212e-05 129L-0.000754012 187L2577 187C2578.32 187 2579.61 186.912 2580.88 186.742L2554.76 186.742C2538.71 186.742 2525.69 173.729 2525.69 157.677C2525.69 143.245 2536.21 131.27 2550 129L2680 129C2715.35 129 2744 100.346 2744 65.0001Z" fill="url(#paint0_linear_125_956)"/>
<mask id="mask1_125_956" style="mask-type:alpha" maskUnits="userSpaceOnUse" x="2169" y="309" width="134" height="28">
<rect x="2169" y="309" width="133.44" height="27.7876" fill="#D9D9D9"/>
</mask>
<g mask="url(#mask1_125_956)">
<path fill-rule="evenodd" clip-rule="evenodd" d="M2237.87 338.645C2234.5 340.247 2230.49 341.175 2226.19 341.175C2221.73 341.175 2217.58 340.178 2214.14 338.467C2211.45 340.155 2207.97 341.173 2204.17 341.173C2201.42 341.173 2198.84 340.642 2196.61 339.711C2194.84 340.635 2192.69 341.178 2190.36 341.178C2187.56 341.178 2185.01 340.392 2183.09 339.101C2181.7 340.367 2179.59 341.176 2177.22 341.176C2173.04 341.176 2169.66 338.666 2169.66 335.57C2169.66 332.474 2173.04 329.964 2177.22 329.964C2178.26 329.964 2179.25 330.12 2180.16 330.403C2181.63 327.378 2185.48 325.196 2190.03 325.094C2192.43 321.069 2197.85 318.261 2204.17 318.261C2204.95 318.261 2205.71 318.304 2206.46 318.386C2209.89 312.847 2217.43 309 2226.19 309C2234.91 309 2242.43 312.82 2245.88 318.327C2246.43 318.283 2246.99 318.261 2247.55 318.261C2249.64 318.261 2251.64 318.57 2253.46 319.129C2256.5 317.076 2260.54 315.824 2264.97 315.824C2272.82 315.824 2279.43 319.747 2281.44 325.093C2281.54 325.091 2281.63 325.09 2281.73 325.09C2286.43 325.09 2290.43 327.305 2291.94 330.404C2292.84 330.121 2293.84 329.964 2294.88 329.964C2299.06 329.964 2302.44 332.474 2302.44 335.57C2302.44 338.666 2299.06 341.176 2294.88 341.176C2292.51 341.176 2290.39 340.367 2289.01 339.1C2287.08 340.391 2284.53 341.178 2281.73 341.178C2278.91 341.178 2276.34 340.378 2274.41 339.067C2271.71 340.399 2268.46 341.174 2264.97 341.174C2261.69 341.174 2258.62 340.488 2256.02 339.299C2253.59 340.484 2250.68 341.173 2247.55 341.173C2243.89 341.173 2240.52 340.227 2237.87 338.645Z" fill="white"/>
</g>
<mask id="mask2_125_956" style="mask-type:alpha" maskUnits="userSpaceOnUse" x="1294" y="75" width="316" height="66">
<rect x="1294" y="75" width="315.921" height="65.7876" fill="#D9D9D9"/>
</mask>
<g mask="url(#mask2_125_956)">
<path fill-rule="evenodd" clip-rule="evenodd" d="M1457.05 145.185C1449.07 148.977 1439.58 151.175 1429.39 151.175C1418.84 151.175 1409.02 148.813 1400.86 144.764C1394.49 148.761 1386.25 151.171 1377.26 151.171C1370.76 151.171 1364.65 149.913 1359.36 147.708C1355.18 149.895 1350.08 151.181 1344.57 151.181C1337.95 151.181 1331.91 149.32 1327.36 146.265C1324.07 149.262 1319.07 151.178 1313.45 151.178C1303.57 151.178 1295.56 145.235 1295.56 137.905C1295.56 130.574 1303.57 124.632 1313.45 124.632C1315.92 124.632 1318.27 125.002 1320.41 125.673C1323.9 118.511 1333.01 113.343 1343.79 113.102C1349.46 103.574 1362.31 96.9248 1377.26 96.9248C1379.1 96.9248 1380.92 97.0262 1382.69 97.222C1390.8 84.1079 1408.66 75 1429.39 75C1450.05 75 1467.85 84.0433 1476.01 97.0824C1477.31 96.9783 1478.63 96.925 1479.97 96.925C1484.93 96.925 1489.65 97.6561 1493.96 98.9809C1501.15 94.1202 1510.72 91.1564 1521.21 91.1564C1539.79 91.1564 1555.45 100.444 1560.2 113.1C1560.43 113.095 1560.66 113.093 1560.9 113.093C1572.02 113.093 1581.49 118.337 1585.06 125.674C1587.2 125.003 1589.55 124.632 1592.02 124.632C1601.91 124.632 1609.92 130.574 1609.92 137.905C1609.92 145.235 1601.91 151.178 1592.02 151.178C1586.41 151.178 1581.4 149.261 1578.12 146.262C1573.56 149.319 1567.52 151.18 1560.9 151.18C1554.21 151.18 1548.13 149.287 1543.56 146.185C1537.16 149.337 1529.47 151.173 1521.21 151.173C1513.44 151.173 1506.19 149.549 1500.02 146.734C1494.26 149.539 1487.37 151.171 1479.97 151.171C1471.29 151.171 1463.32 148.93 1457.05 145.185Z" fill="white"/>
</g>
</g>
<defs>
<linearGradient id="paint0_linear_125_956" x1="2988.5" y1="-232.51" x2="1733.13" y2="459.847" gradientUnits="userSpaceOnUse">
<stop offset="0.161458" stop-color="#FBCAAD"/>
<stop offset="1" stop-color="#F78970"/>
</linearGradient>
</defs>
</svg>
