<svg width="4010" height="602" viewBox="0 0 4010 602" fill="none" xmlns="http://www.w3.org/2000/svg">
<mask id="mask0_123_318" style="mask-type:alpha" maskUnits="userSpaceOnUse" x="0" y="0" width="4010" height="602">
<rect width="4010" height="602" fill="#D9D9D9"/>
</mask>
<g mask="url(#mask0_123_318)">
<mask id="mask1_123_318" style="mask-type:alpha" maskUnits="userSpaceOnUse" x="1271" y="426" width="203" height="57">
<rect x="1271" y="426" width="203" height="57" fill="#D9D9D9"/>
</mask>
<g mask="url(#mask1_123_318)">
<path fill-rule="evenodd" clip-rule="evenodd" d="M1375.77 486.812C1370.64 490.096 1364.54 492 1358 492C1351.22 492 1344.91 489.954 1339.67 486.447C1335.58 489.911 1330.28 492 1324.5 492C1320.32 492 1316.4 490.909 1313 488.996C1310.31 490.888 1307.03 492 1303.5 492C1299.24 492 1295.36 490.388 1292.44 487.74C1290.33 490.339 1287.11 492 1283.5 492C1277.15 492 1272 486.851 1272 480.5C1272 474.149 1277.15 469 1283.5 469C1285.09 469 1286.6 469.321 1287.97 469.903C1290.21 463.695 1296.07 459.215 1303 459.008C1306.64 450.757 1314.9 445 1324.5 445C1325.69 445 1326.85 445.088 1327.99 445.257C1333.2 433.893 1344.68 426 1358 426C1371.27 426 1382.72 433.837 1387.96 445.136C1388.79 445.046 1389.64 445 1390.5 445C1393.68 445 1396.72 445.633 1399.49 446.781C1404.11 442.568 1410.25 440 1417 440C1428.94 440 1438.99 448.044 1442.05 459.006C1442.2 459.002 1442.35 459 1442.5 459C1449.65 459 1455.73 463.545 1458.03 469.903C1459.4 469.321 1460.91 469 1462.5 469C1468.85 469 1474 474.149 1474 480.5C1474 486.851 1468.85 492 1462.5 492C1458.89 492 1455.67 490.339 1453.56 487.74C1450.64 490.388 1446.76 492 1442.5 492C1438.21 492 1434.3 490.361 1431.36 487.675C1427.25 490.408 1422.31 492 1417 492C1412.01 492 1407.35 490.593 1403.39 488.155C1399.69 490.586 1395.26 492 1390.5 492C1384.92 492 1379.8 490.057 1375.77 486.812Z" fill="white"/>
</g>
<mask id="mask2_123_318" style="mask-type:alpha" maskUnits="userSpaceOnUse" x="1631" y="79" width="87" height="25">
<rect width="87" height="24.4286" transform="matrix(-1 0 0 1 1718 79)" fill="#D9D9D9"/>
</mask>
<g mask="url(#mask2_123_318)">
<path fill-rule="evenodd" clip-rule="evenodd" d="M1673.1 105.061C1675.3 106.469 1677.91 107.285 1680.71 107.285C1683.62 107.285 1686.32 106.408 1688.57 104.905C1690.32 106.389 1692.59 107.285 1695.07 107.285C1696.86 107.285 1698.54 106.817 1700 105.997C1701.15 106.808 1702.56 107.285 1704.07 107.285C1705.9 107.285 1707.56 106.594 1708.81 105.459C1709.72 106.572 1711.1 107.284 1712.64 107.284C1715.36 107.284 1717.57 105.078 1717.57 102.356C1717.57 99.6336 1715.36 97.427 1712.64 97.427C1711.96 97.427 1711.31 97.5648 1710.73 97.8139C1709.77 95.1538 1707.26 93.2342 1704.29 93.1451C1702.72 89.6092 1699.19 87.1418 1695.07 87.1418C1694.56 87.1418 1694.06 87.1795 1693.58 87.2521C1691.34 82.3818 1686.42 78.9993 1680.71 78.9993C1675.03 78.9993 1670.12 82.3578 1667.88 87.2002C1667.52 87.1616 1667.15 87.1418 1666.79 87.1418C1665.42 87.1418 1664.12 87.4133 1662.93 87.905C1660.95 86.0999 1658.32 84.9993 1655.43 84.9993C1650.31 84.9993 1646 88.4464 1644.69 93.1444C1644.63 93.1427 1644.56 93.1418 1644.5 93.1418C1641.44 93.1418 1638.83 95.0895 1637.85 97.8139C1637.26 97.5648 1636.61 97.427 1635.93 97.427C1633.21 97.427 1631 99.6336 1631 102.356C1631 105.078 1633.21 107.284 1635.93 107.284C1637.47 107.284 1638.85 106.572 1639.76 105.459C1641.01 106.594 1642.68 107.285 1644.5 107.285C1646.34 107.285 1648.01 106.582 1649.27 105.431C1651.04 106.603 1653.15 107.285 1655.43 107.285C1657.57 107.285 1659.57 106.682 1661.26 105.637C1662.85 106.679 1664.75 107.285 1666.79 107.285C1669.18 107.285 1671.37 106.452 1673.1 105.061Z" fill="white"/>
</g>
<mask id="mask3_123_318" style="mask-type:alpha" maskUnits="userSpaceOnUse" x="2203" y="103" width="269" height="76">
<rect x="2203" y="103" width="269" height="75.532" fill="#D9D9D9"/>
</mask>
<g mask="url(#mask3_123_318)">
<path fill-rule="evenodd" clip-rule="evenodd" d="M2341.83 183.583C2335.04 187.935 2326.96 190.458 2318.29 190.458C2309.3 190.458 2300.95 187.747 2294 183.099C2288.57 187.69 2281.56 190.458 2273.89 190.458C2268.36 190.458 2263.15 189.012 2258.65 186.477C2255.09 188.985 2250.75 190.458 2246.07 190.458C2240.43 190.458 2235.28 188.322 2231.4 184.813C2228.61 188.257 2224.34 190.458 2219.56 190.458C2211.15 190.458 2204.33 183.635 2204.33 175.219C2204.33 166.803 2211.15 159.98 2219.56 159.98C2221.67 159.98 2223.67 160.406 2225.49 161.176C2228.46 152.95 2236.22 147.015 2245.4 146.739C2250.23 135.806 2261.17 128.177 2273.89 128.177C2275.47 128.177 2277.01 128.294 2278.52 128.518C2285.42 113.459 2300.63 103 2318.29 103C2335.88 103 2351.04 113.385 2357.98 128.358C2359.09 128.239 2360.21 128.177 2361.35 128.177C2365.57 128.177 2369.59 129.016 2373.26 130.537C2379.39 124.955 2387.53 121.552 2396.47 121.552C2412.29 121.552 2425.61 132.21 2429.66 146.737C2429.86 146.732 2430.06 146.729 2430.26 146.729C2439.73 146.729 2447.8 152.752 2450.83 161.176C2452.66 160.406 2454.66 159.98 2456.76 159.98C2465.18 159.98 2472 166.803 2472 175.219C2472 183.635 2465.18 190.458 2456.76 190.458C2451.98 190.458 2447.71 188.257 2444.92 184.813C2441.04 188.322 2435.9 190.458 2430.26 190.458C2424.57 190.458 2419.39 188.287 2415.5 184.728C2410.05 188.349 2403.5 190.458 2396.47 190.458C2389.85 190.458 2383.67 188.594 2378.43 185.363C2373.52 188.584 2367.66 190.458 2361.35 190.458C2353.96 190.458 2347.17 187.884 2341.83 183.583Z" fill="white"/>
</g>
<mask id="mask4_123_318" style="mask-type:alpha" maskUnits="userSpaceOnUse" x="2501" y="336" width="129" height="37">
<rect width="129" height="36.2217" transform="matrix(-1 0 0 1 2630 336)" fill="#D9D9D9"/>
</mask>
<g mask="url(#mask4_123_318)">
<path fill-rule="evenodd" clip-rule="evenodd" d="M2563.42 374.644C2566.68 376.731 2570.56 377.941 2574.71 377.941C2579.02 377.941 2583.03 376.641 2586.36 374.412C2588.96 376.613 2592.33 377.94 2596 377.94C2598.66 377.94 2601.15 377.247 2603.31 376.032C2605.02 377.235 2607.1 377.941 2609.35 377.941C2612.05 377.941 2614.52 376.917 2616.38 375.234C2617.72 376.886 2619.76 377.941 2622.06 377.941C2626.09 377.941 2629.36 374.669 2629.36 370.633C2629.36 366.597 2626.09 363.325 2622.06 363.325C2621.05 363.325 2620.09 363.53 2619.21 363.899C2617.79 359.954 2614.07 357.108 2609.67 356.975C2607.35 351.732 2602.1 348.073 2596 348.073C2595.25 348.073 2594.51 348.129 2593.79 348.237C2590.47 341.015 2583.18 336 2574.71 336C2566.28 336 2559.01 340.98 2555.68 348.16C2555.15 348.103 2554.61 348.073 2554.06 348.073C2552.04 348.073 2550.11 348.476 2548.35 349.205C2545.41 346.529 2541.51 344.897 2537.22 344.897C2529.64 344.897 2523.25 350.008 2521.3 356.975C2521.21 356.972 2521.11 356.971 2521.02 356.971C2516.48 356.971 2512.61 359.859 2511.15 363.899C2510.28 363.53 2509.32 363.325 2508.31 363.325C2504.27 363.325 2501 366.597 2501 370.633C2501 374.669 2504.27 377.941 2508.31 377.941C2510.6 377.941 2512.65 376.886 2513.99 375.234C2515.85 376.917 2518.31 377.941 2521.02 377.941C2523.74 377.941 2526.23 376.9 2528.09 375.193C2530.71 376.93 2533.85 377.942 2537.22 377.942C2540.39 377.942 2543.36 377.048 2545.87 375.498C2548.23 377.042 2551.04 377.94 2554.06 377.94C2557.61 377.94 2560.86 376.706 2563.42 374.644Z" fill="white"/>
</g>
<path fill-rule="evenodd" clip-rule="evenodd" d="M0 0H2805V78C2805 133.228 2760.23 178 2705 178H2665.5C2666.35 178 2667.19 178.025 2668.02 178.074C2645.72 179.378 2628.04 197.874 2628.04 220.5C2628.04 243.126 2645.72 261.622 2668.02 262.926C2667.19 262.975 2666.35 263 2665.5 263H2657C2692.35 263 2721 291.654 2721 327C2721 362.346 2692.35 391 2657 391H2322.5C2310.07 391 2300 401.074 2300 413.5C2300 425.922 2310.07 435.993 2322.49 436H2370C2415.84 436 2453 473.16 2453 519C2453 564.84 2415.84 602 2370 602H0V436V391V263V178V0Z" fill="url(#paint0_linear_123_318)"/>
<path d="M2079.23 99.5382L2081.84 99.6508L2083.23 101.851L2084.15 99.417L2086.68 98.7934L2084.63 97.1738L2084.81 94.5928L2082.64 96.0218L2080.21 95.0518L2080.91 97.5549L2079.23 99.5382Z" fill="white"/>
<path d="M1779.75 150.707L1782.07 150.811L1783.3 152.76L1784.12 150.604L1786.37 150.041L1784.55 148.611L1784.71 146.308L1782.77 147.581L1780.63 146.723L1781.25 148.941L1779.75 150.707Z" fill="white"/>
<path d="M2078.2 176.24L2079.06 176.274L2079.51 177.002L2079.82 176.205L2080.66 175.997L2079.98 175.46L2080.04 174.611L2079.32 175.079L2078.52 174.759L2078.75 175.581L2078.2 176.24Z" fill="white"/>
<path d="M1676.35 151.625L1677.69 151.686L1678.4 152.812L1678.87 151.565L1680.17 151.244L1679.11 150.413L1679.21 149.088L1678.09 149.824L1676.85 149.33L1677.21 150.603L1676.35 151.625Z" fill="white"/>
<path d="M1947.65 116.107L1948.99 116.168L1949.7 117.294L1950.17 116.047L1951.47 115.726L1950.42 114.895L1950.51 113.57L1949.39 114.306L1948.15 113.812L1948.51 115.085L1947.65 116.107Z" fill="white"/>
<path d="M2119.45 244.368L2121.78 244.463L2123.01 246.42L2123.82 244.264L2126.07 243.701L2124.25 242.263L2124.41 239.968L2122.47 241.241L2120.33 240.384L2120.95 242.601L2119.45 244.368Z" fill="white"/>
<path d="M2015.04 127.747L2016.48 127.817L2017.25 129.029L2017.75 127.687L2019.16 127.332L2018.02 126.44L2018.13 125.01L2016.92 125.807L2015.58 125.27L2015.96 126.647L2015.04 127.747Z" fill="white"/>
<path d="M2624.19 118.454L2626.74 119L2627.75 121.399L2629.05 119.155L2631.65 118.956L2629.91 117.025L2630.53 114.504L2628.14 115.552L2625.91 114.193L2626.18 116.774L2624.19 118.454Z" fill="white"/>
<path d="M2320.3 119.05L2322.57 119.526L2323.45 121.657L2324.62 119.665L2326.94 119.492L2325.38 117.777L2325.93 115.534L2323.81 116.469L2321.83 115.265L2322.07 117.552L2320.3 119.05Z" fill="white"/>
<path d="M2610.2 193.899L2611.05 194.073L2611.38 194.869L2611.81 194.125L2612.66 194.064L2612.1 193.423L2612.3 192.592L2611.51 192.938L2610.78 192.496L2610.87 193.345L2610.2 193.899Z" fill="white"/>
<path d="M2218.21 102.743L2219.52 103.02L2220.03 104.25L2220.71 103.098L2222.04 102.994L2221.14 102.007L2221.46 100.716L2220.23 101.253L2219.09 100.552L2219.23 101.877L2218.21 102.743Z" fill="white"/>
<path d="M2491.67 112.885L2492.98 113.162L2493.49 114.392L2494.16 113.24L2495.51 113.145L2494.61 112.149L2494.92 110.858L2493.7 111.395L2492.56 110.702L2492.7 112.027L2491.67 112.885Z" fill="white"/>
<path d="M2639.37 267.926L2641.64 268.411L2642.52 270.541L2643.69 268.549L2646 268.367L2644.45 266.652L2645 264.418L2642.88 265.345L2640.9 264.141L2641.13 266.436L2639.37 267.926Z" fill="white"/>
<path d="M2556.14 135.576L2557.55 135.879L2558.1 137.204L2558.83 135.966L2560.27 135.853L2559.3 134.788L2559.64 133.393L2558.32 133.974L2557.09 133.22L2557.24 134.649L2556.14 135.576Z" fill="white"/>
<path d="M1876.27 260.089L1879.14 260.703L1880.26 263.388L1881.73 260.877L1884.65 260.651L1882.69 258.486L1883.38 255.654L1880.7 256.832L1878.21 255.308L1878.51 258.2L1876.27 260.089Z" fill="white"/>
<path d="M1298.39 283.611L1300.65 284.087L1301.54 286.218L1302.7 284.226L1305.02 284.053L1303.46 282.338L1304.01 280.095L1301.89 281.03L1299.91 279.826L1300.15 282.113L1298.39 283.611Z" fill="white"/>
<path d="M1264 145.225L1266.27 145.71L1267.15 147.832L1268.32 145.84L1270.63 145.666L1269.08 143.951L1269.63 141.708L1267.51 142.644L1265.53 141.44L1265.76 143.726L1264 145.225Z" fill="white"/>
<path d="M1529.53 234.373L1530.84 234.65L1531.35 235.88L1532.02 234.728L1533.36 234.624L1532.46 233.637L1532.77 232.346L1531.55 232.883L1530.41 232.182L1530.55 233.507L1529.53 234.373Z" fill="white"/>
<path d="M1365.59 164.237L1366.9 164.514L1367.42 165.744L1368.09 164.592L1369.42 164.488L1368.52 163.501L1368.85 162.21L1367.62 162.747L1366.47 162.046L1366.61 163.371L1365.59 164.237Z" fill="white"/>
<path d="M1520.06 125.262L1521.37 125.539L1521.88 126.769L1522.55 125.617L1523.89 125.513L1522.99 124.526L1523.31 123.235L1522.08 123.772L1520.94 123.071L1521.08 124.396L1520.06 125.262Z" fill="white"/>
<path d="M1387.06 74.7849L1389.33 75.2699L1390.21 77.4005L1391.38 75.4085L1393.69 75.2266L1392.14 73.5117L1392.69 71.2772L1390.57 72.2039L1388.59 71L1388.82 73.2952L1387.06 74.7849Z" fill="white"/>
<path d="M1418.63 224.716L1419.65 224.933L1420.04 225.885L1420.56 224.993L1421.6 224.915L1420.9 224.144L1421.15 223.14L1420.2 223.564L1419.31 223.019L1419.42 224.049L1418.63 224.716Z" fill="white"/>
<path d="M638.234 99.5382L640.843 99.6508L642.231 101.851L643.147 99.417L645.678 98.7934L643.636 97.1738L643.81 94.5928L641.637 96.0218L639.211 95.0518L639.909 97.5549L638.234 99.5382Z" fill="white"/>
<path d="M338.754 150.707L341.075 150.811L342.306 152.76L343.117 150.604L345.369 150.041L343.553 148.611L343.711 146.308L341.773 147.581L339.626 146.723L340.246 148.941L338.754 150.707Z" fill="white"/>
<path d="M637.204 176.24L638.06 176.274L638.514 177.002L638.819 176.205L639.657 175.997L638.976 175.46L639.037 174.611L638.322 175.079L637.519 174.759L637.754 175.581L637.204 176.24Z" fill="white"/>
<path d="M235.349 151.625L236.692 151.686L237.399 152.812L237.871 151.565L239.171 151.244L238.115 150.413L238.211 149.088L237.094 149.824L235.855 149.33L236.212 150.603L235.349 151.625Z" fill="white"/>
<path d="M506.649 116.107L507.992 116.168L508.699 117.294L509.171 116.047L510.471 115.726L509.424 114.895L509.511 113.57L508.394 114.306L507.155 113.812L507.513 115.085L506.649 116.107Z" fill="white"/>
<path d="M678.455 244.368L680.777 244.463L682.007 246.42L682.819 244.264L685.07 243.701L683.255 242.263L683.412 239.968L681.475 241.241L679.328 240.384L679.948 242.601L678.455 244.368Z" fill="white"/>
<path d="M574.04 127.747L575.48 127.817L576.248 129.029L576.754 127.687L578.159 127.332L577.025 126.44L577.129 125.01L575.925 125.807L574.581 125.27L574.965 126.647L574.04 127.747Z" fill="white"/>
<path d="M1183.19 118.454L1185.74 119L1186.75 121.399L1188.05 119.155L1190.66 118.956L1188.91 117.025L1189.53 114.504L1187.14 115.552L1184.91 114.193L1185.18 116.774L1183.19 118.454Z" fill="white"/>
<path d="M879.305 119.05L881.574 119.526L882.455 121.657L883.625 119.665L885.937 119.492L884.384 117.777L884.934 115.534L882.813 116.469L880.832 115.265L881.068 117.552L879.305 119.05Z" fill="white"/>
<path d="M1169.2 193.899L1170.05 194.073L1170.38 194.869L1170.81 194.125L1171.67 194.064L1171.1 193.423L1171.3 192.592L1170.51 192.938L1169.78 192.496L1169.87 193.345L1169.2 193.899Z" fill="white"/>
<path d="M777.21 102.743L778.519 103.02L779.034 104.25L779.706 103.098L781.042 102.994L780.143 102.007L780.466 100.716L779.235 101.253L778.092 100.552L778.231 101.877L777.21 102.743Z" fill="white"/>
<path d="M1050.68 112.885L1051.98 113.162L1052.49 114.392L1053.16 113.24L1054.51 113.145L1053.61 112.149L1053.92 110.858L1052.7 111.395L1051.56 110.702L1051.7 112.027L1050.68 112.885Z" fill="white"/>
<path d="M1198.37 267.926L1200.64 268.411L1201.52 270.541L1202.69 268.549L1205 268.367L1203.45 266.652L1204 264.418L1201.88 265.345L1199.9 264.141L1200.13 266.436L1198.37 267.926Z" fill="white"/>
<path d="M1115.14 135.576L1116.56 135.879L1117.11 137.204L1117.83 135.966L1119.27 135.853L1118.3 134.788L1118.64 133.393L1117.32 133.974L1116.09 133.22L1116.24 134.649L1115.14 135.576Z" fill="white"/>
<path d="M435.272 260.089L438.143 260.703L439.26 263.388L440.726 260.877L443.649 260.651L441.695 258.486L442.384 255.654L439.705 256.832L437.209 255.308L437.506 258.2L435.272 260.089Z" fill="white"/>
<path d="M88.5268 234.373L89.8358 234.65L90.3507 235.88L91.0227 234.728L92.3579 234.624L91.459 233.637L91.7732 232.346L90.5514 232.883L89.4082 232.182L89.5478 233.507L88.5268 234.373Z" fill="white"/>
<path d="M79.0573 125.262L80.3663 125.539L80.8812 126.769L81.5532 125.617L82.8883 125.513L81.9895 124.526L82.3124 123.235L81.0819 123.772L79.9387 123.071L80.0783 124.396L79.0573 125.262Z" fill="white"/>
<path d="M2072.05 464.741L2071.07 464.783L2070.55 465.611L2070.2 464.695L2069.25 464.46L2070.02 463.851L2069.95 462.879L2070.77 463.417L2071.68 463.052L2071.42 463.994L2072.05 464.741Z" fill="white"/>
<path d="M2184.76 483.999L2183.89 484.038L2183.43 484.772L2183.12 483.96L2182.27 483.748L2182.96 483.21L2182.9 482.343L2183.63 482.822L2184.43 482.5L2184.2 483.334L2184.76 483.999Z" fill="white"/>
<path d="M2072.44 493.608L2072.11 493.621L2071.94 493.895L2071.83 493.595L2071.51 493.517L2071.77 493.315L2071.75 492.996L2072.02 493.172L2072.32 493.051L2072.23 493.361L2072.44 493.608Z" fill="white"/>
<path d="M2223.68 484.345L2223.17 484.368L2222.91 484.791L2222.73 484.322L2222.24 484.201L2222.64 483.888L2222.6 483.39L2223.02 483.667L2223.49 483.481L2223.36 483.96L2223.68 484.345Z" fill="white"/>
<path d="M2121.57 470.977L2121.07 470.999L2120.8 471.423L2120.62 470.954L2120.14 470.833L2120.53 470.52L2120.5 470.021L2120.92 470.299L2121.38 470.113L2121.25 470.592L2121.57 470.977Z" fill="white"/>
<path d="M2056.91 519.249L2056.04 519.285L2055.57 520.022L2055.27 519.21L2054.42 518.998L2055.11 518.457L2055.05 517.593L2055.78 518.072L2056.58 517.75L2056.35 518.584L2056.91 519.249Z" fill="white"/>
<path d="M2096.21 475.358L2095.67 475.384L2095.38 475.84L2095.19 475.335L2094.66 475.201L2095.09 474.865L2095.05 474.328L2095.5 474.628L2096.01 474.425L2095.86 474.944L2096.21 475.358Z" fill="white"/>
<path d="M1866.95 471.86L1865.99 472.065L1865.61 472.968L1865.12 472.124L1864.14 472.049L1864.8 471.322L1864.56 470.373L1865.46 470.768L1866.3 470.256L1866.2 471.227L1866.95 471.86Z" fill="white"/>
<path d="M1981.32 472.085L1980.47 472.264L1980.13 473.066L1979.69 472.316L1978.82 472.251L1979.41 471.605L1979.2 470.761L1980 471.113L1980.75 470.66L1980.66 471.521L1981.32 472.085Z" fill="white"/>
<path d="M1872.21 500.255L1871.89 500.32L1871.77 500.62L1871.61 500.34L1871.29 500.317L1871.5 500.076L1871.42 499.763L1871.72 499.893L1872 499.727L1871.96 500.046L1872.21 500.255Z" fill="white"/>
<path d="M2019.74 465.947L2019.25 466.051L2019.06 466.514L2018.8 466.08L2018.3 466.041L2018.64 465.67L2018.52 465.184L2018.98 465.386L2019.41 465.122L2019.36 465.621L2019.74 465.947Z" fill="white"/>
<path d="M1916.82 469.764L1916.33 469.868L1916.14 470.331L1915.89 469.897L1915.38 469.861L1915.72 469.487L1915.6 469.001L1916.06 469.203L1916.49 468.942L1916.44 469.441L1916.82 469.764Z" fill="white"/>
<path d="M1861.24 528.115L1860.38 528.298L1860.05 529.1L1859.61 528.35L1858.74 528.282L1859.32 527.636L1859.12 526.795L1859.92 527.144L1860.66 526.691L1860.57 527.555L1861.24 528.115Z" fill="white"/>
<path d="M1892.56 478.304L1892.03 478.418L1891.82 478.917L1891.55 478.451L1891.01 478.409L1891.37 478.008L1891.24 477.483L1891.74 477.701L1892.2 477.418L1892.15 477.956L1892.56 478.304Z" fill="white"/>
<path d="M2148.44 525.166L2147.36 525.397L2146.94 526.408L2146.38 525.462L2145.28 525.378L2146.02 524.563L2145.76 523.497L2146.77 523.94L2147.71 523.366L2147.6 524.455L2148.44 525.166Z" fill="white"/>
<path d="M2365.93 534.019L2365.08 534.198L2364.75 535L2364.31 534.25L2363.44 534.185L2364.02 533.54L2363.81 532.695L2364.61 533.047L2365.36 532.594L2365.27 533.455L2365.93 534.019Z" fill="white"/>
<path d="M2378.87 481.935L2378.02 482.118L2377.69 482.917L2377.25 482.167L2376.38 482.102L2376.96 481.456L2376.75 480.612L2377.55 480.964L2378.3 480.511L2378.21 481.372L2378.87 481.935Z" fill="white"/>
<path d="M2278.94 515.488L2278.45 515.592L2278.25 516.055L2278 515.621L2277.5 515.582L2277.84 515.211L2277.72 514.725L2278.18 514.927L2278.61 514.663L2278.55 515.162L2278.94 515.488Z" fill="white"/>
<path d="M2340.64 489.091L2340.15 489.195L2339.95 489.658L2339.7 489.224L2339.2 489.185L2339.53 488.814L2339.41 488.328L2339.88 488.53L2340.31 488.266L2340.25 488.765L2340.64 489.091Z" fill="white"/>
<path d="M2282.5 474.422L2282.01 474.526L2281.82 474.989L2281.56 474.556L2281.06 474.516L2281.4 474.145L2281.28 473.659L2281.74 473.861L2282.17 473.597L2282.12 474.096L2282.5 474.422Z" fill="white"/>
<path d="M2332.56 455.424L2331.7 455.607L2331.37 456.409L2330.93 455.659L2330.06 455.591L2330.65 454.945L2330.44 454.104L2331.24 454.453L2331.98 454L2331.9 454.864L2332.56 455.424Z" fill="white"/>
<path d="M2320.67 511.853L2320.29 511.934L2320.15 512.293L2319.95 511.957L2319.56 511.928L2319.82 511.638L2319.73 511.26L2320.08 511.419L2320.42 511.214L2320.38 511.602L2320.67 511.853Z" fill="white"/>
<path d="M1515.31 464.741L1514.33 464.783L1513.81 465.611L1513.46 464.695L1512.51 464.46L1513.28 463.851L1513.21 462.879L1514.03 463.417L1514.94 463.052L1514.68 463.994L1515.31 464.741Z" fill="white"/>
<path d="M1628.02 483.999L1627.15 484.038L1626.69 484.772L1626.38 483.96L1625.53 483.748L1626.22 483.21L1626.16 482.343L1626.89 482.822L1627.69 482.5L1627.46 483.334L1628.02 483.999Z" fill="white"/>
<path d="M1515.7 493.608L1515.38 493.621L1515.2 493.895L1515.09 493.595L1514.77 493.517L1515.03 493.315L1515.01 492.996L1515.28 493.172L1515.58 493.051L1515.49 493.361L1515.7 493.608Z" fill="white"/>
<path d="M1666.94 484.345L1666.44 484.368L1666.17 484.791L1665.99 484.322L1665.5 484.201L1665.9 483.888L1665.86 483.39L1666.28 483.667L1666.75 483.481L1666.62 483.96L1666.94 484.345Z" fill="white"/>
<path d="M1564.83 470.977L1564.33 470.999L1564.06 471.423L1563.89 470.954L1563.4 470.833L1563.79 470.52L1563.76 470.021L1564.18 470.299L1564.64 470.113L1564.51 470.592L1564.83 470.977Z" fill="white"/>
<path d="M1500.17 519.249L1499.3 519.285L1498.84 520.022L1498.53 519.21L1497.68 518.998L1498.37 518.457L1498.31 517.593L1499.04 518.072L1499.84 517.75L1499.61 518.584L1500.17 519.249Z" fill="white"/>
<path d="M1539.47 475.358L1538.93 475.384L1538.64 475.84L1538.45 475.335L1537.92 475.201L1538.35 474.865L1538.31 474.328L1538.76 474.628L1539.27 474.425L1539.12 474.944L1539.47 475.358Z" fill="white"/>
<path d="M1310.21 471.86L1309.25 472.065L1308.87 472.968L1308.38 472.124L1307.4 472.049L1308.06 471.322L1307.82 470.373L1308.72 470.768L1309.56 470.256L1309.46 471.227L1310.21 471.86Z" fill="white"/>
<path d="M1424.58 472.085L1423.73 472.264L1423.39 473.066L1422.95 472.316L1422.08 472.251L1422.67 471.605L1422.46 470.761L1423.26 471.113L1424.01 470.66L1423.92 471.521L1424.58 472.085Z" fill="white"/>
<path d="M1315.47 500.255L1315.15 500.32L1315.03 500.62L1314.87 500.34L1314.55 500.317L1314.76 500.076L1314.68 499.763L1314.98 499.893L1315.26 499.727L1315.22 500.046L1315.47 500.255Z" fill="white"/>
<path d="M1463 465.947L1462.51 466.051L1462.32 466.514L1462.07 466.08L1461.56 466.041L1461.9 465.67L1461.78 465.184L1462.24 465.386L1462.67 465.122L1462.62 465.621L1463 465.947Z" fill="white"/>
<path d="M1360.08 469.764L1359.59 469.868L1359.4 470.331L1359.15 469.897L1358.64 469.861L1358.98 469.487L1358.86 469.001L1359.32 469.203L1359.75 468.942L1359.7 469.441L1360.08 469.764Z" fill="white"/>
<path d="M1304.5 528.115L1303.64 528.298L1303.31 529.1L1302.87 528.35L1302 528.282L1302.58 527.636L1302.38 526.795L1303.18 527.144L1303.92 526.691L1303.83 527.555L1304.5 528.115Z" fill="white"/>
<path d="M1335.82 478.304L1335.29 478.418L1335.08 478.917L1334.81 478.451L1334.27 478.409L1334.63 478.008L1334.5 477.483L1335 477.701L1335.46 477.418L1335.41 477.956L1335.82 478.304Z" fill="white"/>
<path d="M1591.7 525.166L1590.62 525.397L1590.2 526.408L1589.64 525.462L1588.54 525.378L1589.28 524.563L1589.02 523.497L1590.03 523.94L1590.97 523.366L1590.86 524.455L1591.7 525.166Z" fill="white"/>
<path d="M1809.19 534.019L1808.34 534.198L1808.01 535L1807.57 534.25L1806.7 534.185L1807.28 533.54L1807.07 532.695L1807.87 533.047L1808.62 532.594L1808.53 533.455L1809.19 534.019Z" fill="white"/>
<path d="M1822.13 481.935L1821.28 482.118L1820.95 482.917L1820.51 482.167L1819.64 482.102L1820.22 481.456L1820.02 480.612L1820.81 480.964L1821.56 480.511L1821.47 481.372L1822.13 481.935Z" fill="white"/>
<path d="M1722.2 515.488L1721.71 515.592L1721.51 516.055L1721.26 515.621L1720.76 515.582L1721.1 515.211L1720.98 514.725L1721.44 514.927L1721.87 514.663L1721.82 515.162L1722.2 515.488Z" fill="white"/>
<path d="M1783.9 489.091L1783.41 489.195L1783.21 489.658L1782.96 489.224L1782.46 489.185L1782.8 488.814L1782.67 488.328L1783.14 488.53L1783.57 488.266L1783.51 488.765L1783.9 489.091Z" fill="white"/>
<path d="M1725.76 474.422L1725.27 474.526L1725.08 474.989L1724.82 474.556L1724.32 474.516L1724.66 474.145L1724.54 473.659L1725 473.861L1725.43 473.597L1725.38 474.096L1725.76 474.422Z" fill="white"/>
<path d="M1775.82 455.424L1774.97 455.607L1774.63 456.409L1774.19 455.659L1773.32 455.591L1773.91 454.945L1773.7 454.104L1774.5 454.453L1775.24 454L1775.16 454.864L1775.82 455.424Z" fill="white"/>
<path d="M1763.94 511.853L1763.55 511.934L1763.41 512.293L1763.21 511.957L1762.82 511.928L1763.08 511.638L1762.99 511.26L1763.34 511.419L1763.68 511.214L1763.64 511.602L1763.94 511.853Z" fill="white"/>
<path d="M964.31 464.741L963.328 464.783L962.806 465.611L962.461 464.695L961.509 464.46L962.277 463.851L962.211 462.879L963.029 463.417L963.942 463.052L963.68 463.994L964.31 464.741Z" fill="white"/>
<path d="M1077.02 483.999L1076.15 484.038L1075.69 484.772L1075.38 483.96L1074.53 483.748L1075.22 483.21L1075.16 482.343L1075.89 482.822L1076.69 482.5L1076.46 483.334L1077.02 483.999Z" fill="white"/>
<path d="M964.698 493.608L964.376 493.621L964.205 493.895L964.09 493.595L963.775 493.517L964.031 493.315L964.008 492.996L964.277 493.172L964.579 493.051L964.491 493.361L964.698 493.608Z" fill="white"/>
<path d="M1115.94 484.345L1115.44 484.368L1115.17 484.791L1114.99 484.322L1114.5 484.201L1114.9 483.888L1114.86 483.39L1115.28 483.667L1115.75 483.481L1115.62 483.96L1115.94 484.345Z" fill="white"/>
<path d="M1013.83 470.977L1013.33 470.999L1013.06 471.423L1012.89 470.954L1012.4 470.833L1012.79 470.52L1012.76 470.021L1013.18 470.299L1013.64 470.113L1013.51 470.592L1013.83 470.977Z" fill="white"/>
<path d="M949.172 519.249L948.299 519.285L947.836 520.022L947.53 519.21L946.683 518.998L947.366 518.457L947.307 517.593L948.036 518.072L948.844 517.75L948.611 518.584L949.172 519.249Z" fill="white"/>
<path d="M988.471 475.358L987.929 475.384L987.64 475.84L987.449 475.335L986.92 475.201L987.347 474.865L987.308 474.328L987.761 474.628L988.267 474.425L988.123 474.944L988.471 475.358Z" fill="white"/>
<path d="M759.208 471.86L758.249 472.065L757.871 472.968L757.379 472.124L756.4 472.049L757.057 471.322L756.824 470.373L757.724 470.768L758.561 470.256L758.459 471.227L759.208 471.86Z" fill="white"/>
<path d="M873.581 472.085L872.727 472.264L872.395 473.066L871.955 472.316L871.084 472.251L871.669 471.605L871.462 470.761L872.26 471.113L873.006 470.66L872.917 471.521L873.581 472.085Z" fill="white"/>
<path d="M764.473 500.255L764.155 500.32L764.03 500.62L763.869 500.34L763.547 500.317L763.76 500.076L763.685 499.763L763.98 499.893L764.256 499.727L764.223 500.046L764.473 500.255Z" fill="white"/>
<path d="M912.005 465.947L911.512 466.051L911.318 466.514L911.066 466.08L910.563 466.041L910.901 465.67L910.78 465.184L911.243 465.386L911.673 465.122L911.621 465.621L912.005 465.947Z" fill="white"/>
<path d="M809.083 469.764L808.59 469.868L808.4 470.331L808.147 469.897L807.641 469.861L807.979 469.487L807.861 469.001L808.321 469.203L808.751 468.942L808.698 469.441L809.083 469.764Z" fill="white"/>
<path d="M753.496 528.115L752.642 528.298L752.311 529.1L751.87 528.35L751 528.282L751.585 527.636L751.378 526.795L752.176 527.144L752.921 526.691L752.833 527.555L753.496 528.115Z" fill="white"/>
<path d="M784.82 478.304L784.288 478.418L784.081 478.917L783.809 478.451L783.267 478.409L783.631 478.008L783.503 477.483L783.999 477.701L784.462 477.418L784.406 477.956L784.82 478.304Z" fill="white"/>
<path d="M1040.7 525.166L1039.62 525.397L1039.2 526.408L1038.64 525.462L1037.54 525.378L1038.28 524.563L1038.02 523.497L1039.03 523.94L1039.97 523.366L1039.86 524.455L1040.7 525.166Z" fill="white"/>
<path d="M1258.19 534.019L1257.34 534.198L1257.01 535L1256.57 534.25L1255.7 534.185L1256.28 533.54L1256.07 532.695L1256.87 533.047L1257.62 532.594L1257.53 533.455L1258.19 534.019Z" fill="white"/>
<path d="M1271.13 481.935L1270.28 482.118L1269.95 482.917L1269.51 482.167L1268.64 482.102L1269.22 481.456L1269.02 480.612L1269.81 480.964L1270.56 480.511L1270.47 481.372L1271.13 481.935Z" fill="white"/>
<path d="M1171.2 515.488L1170.71 515.592L1170.51 516.055L1170.26 515.621L1169.76 515.582L1170.1 515.211L1169.98 514.725L1170.44 514.927L1170.87 514.663L1170.82 515.162L1171.2 515.488Z" fill="white"/>
<path d="M1232.9 489.091L1232.41 489.195L1232.21 489.658L1231.96 489.224L1231.46 489.185L1231.8 488.814L1231.67 488.328L1232.14 488.53L1232.57 488.266L1232.51 488.765L1232.9 489.091Z" fill="white"/>
<path d="M1174.76 474.422L1174.27 474.526L1174.08 474.989L1173.82 474.556L1173.32 474.516L1173.66 474.145L1173.54 473.659L1174 473.861L1174.43 473.597L1174.38 474.096L1174.76 474.422Z" fill="white"/>
<path d="M1224.82 455.424L1223.97 455.607L1223.63 456.409L1223.19 455.659L1222.32 455.591L1222.91 454.945L1222.7 454.104L1223.5 454.453L1224.24 454L1224.16 454.864L1224.82 455.424Z" fill="white"/>
<path d="M1212.94 511.853L1212.55 511.934L1212.41 512.293L1212.21 511.957L1211.82 511.928L1212.08 511.638L1211.99 511.26L1212.34 511.419L1212.68 511.214L1212.64 511.602L1212.94 511.853Z" fill="white"/>
<path d="M413.31 464.741L412.328 464.783L411.806 465.611L411.461 464.695L410.509 464.46L411.277 463.851L411.211 462.879L412.029 463.417L412.942 463.052L412.68 463.994L413.31 464.741Z" fill="white"/>
<path d="M526.023 483.999L525.15 484.038L524.687 484.772L524.381 483.96L523.534 483.748L524.217 483.21L524.158 482.343L524.887 482.822L525.695 482.5L525.462 483.334L526.023 483.999Z" fill="white"/>
<path d="M413.698 493.608L413.376 493.621L413.205 493.895L413.09 493.595L412.775 493.517L413.031 493.315L413.008 492.996L413.277 493.172L413.579 493.051L413.491 493.361L413.698 493.608Z" fill="white"/>
<path d="M564.941 484.345L564.435 484.368L564.169 484.791L563.992 484.322L563.503 484.201L563.9 483.888L563.864 483.39L564.284 483.667L564.751 483.481L564.616 483.96L564.941 484.345Z" fill="white"/>
<path d="M462.835 470.977L462.329 470.999L462.063 471.423L461.885 470.954L461.396 470.833L461.79 470.52L461.757 470.021L462.178 470.299L462.644 470.113L462.509 470.592L462.835 470.977Z" fill="white"/>
<path d="M398.172 519.249L397.299 519.285L396.836 520.022L396.53 519.21L395.683 518.998L396.366 518.457L396.307 517.593L397.036 518.072L397.844 517.75L397.611 518.584L398.172 519.249Z" fill="white"/>
<path d="M437.471 475.358L436.929 475.384L436.64 475.84L436.449 475.335L435.92 475.201L436.347 474.865L436.308 474.328L436.761 474.628L437.267 474.425L437.123 474.944L437.471 475.358Z" fill="white"/>
<path d="M208.208 471.86L207.249 472.065L206.871 472.968L206.379 472.124L205.4 472.049L206.057 471.322L205.824 470.373L206.724 470.768L207.561 470.256L207.459 471.227L208.208 471.86Z" fill="white"/>
<path d="M322.581 472.085L321.727 472.264L321.395 473.066L320.955 472.316L320.085 472.251L320.669 471.605L320.462 470.761L321.26 471.113L322.006 470.66L321.917 471.521L322.581 472.085Z" fill="white"/>
<path d="M213.473 500.255L213.155 500.32L213.03 500.62L212.869 500.34L212.547 500.317L212.76 500.076L212.685 499.763L212.98 499.893L213.256 499.727L213.223 500.046L213.473 500.255Z" fill="white"/>
<path d="M361.005 465.947L360.512 466.051L360.318 466.514L360.066 466.08L359.563 466.041L359.901 465.67L359.78 465.184L360.243 465.386L360.673 465.122L360.621 465.621L361.005 465.947Z" fill="white"/>
<path d="M258.083 469.764L257.59 469.868L257.4 470.331L257.147 469.897L256.641 469.861L256.979 469.487L256.861 469.001L257.321 469.203L257.751 468.942L257.698 469.441L258.083 469.764Z" fill="white"/>
<path d="M202.496 528.115L201.642 528.298L201.311 529.1L200.87 528.35L200 528.282L200.585 527.636L200.378 526.795L201.176 527.144L201.921 526.691L201.833 527.555L202.496 528.115Z" fill="white"/>
<path d="M233.82 478.304L233.288 478.418L233.081 478.917L232.809 478.451L232.267 478.409L232.631 478.008L232.503 477.483L232.999 477.701L233.462 477.418L233.406 477.956L233.82 478.304Z" fill="white"/>
<path d="M489.698 525.166L488.617 525.397L488.197 526.408L487.645 525.462L486.544 525.378L487.28 524.563L487.021 523.497L488.029 523.94L488.968 523.366L488.857 524.455L489.698 525.166Z" fill="white"/>
<path d="M707.192 534.019L706.339 534.198L706.007 535L705.567 534.25L704.696 534.185L705.281 533.54L705.074 532.695L705.872 533.047L706.618 532.594L706.529 533.455L707.192 534.019Z" fill="white"/>
<path d="M720.134 481.935L719.28 482.118L718.948 482.917L718.508 482.167L717.638 482.102L718.223 481.456L718.016 480.612L718.814 480.964L719.559 480.511L719.471 481.372L720.134 481.935Z" fill="white"/>
<path d="M620.199 515.488L619.707 515.592L619.513 516.055L619.26 515.621L618.758 515.582L619.096 515.211L618.978 514.725L619.437 514.927L619.868 514.663L619.815 515.162L620.199 515.488Z" fill="white"/>
<path d="M681.899 489.091L681.406 489.195L681.212 489.658L680.959 489.224L680.457 489.185L680.795 488.814L680.674 488.328L681.137 488.53L681.567 488.266L681.514 488.765L681.899 489.091Z" fill="white"/>
<path d="M623.763 474.422L623.27 474.526L623.077 474.989L622.824 474.556L622.321 474.516L622.66 474.145L622.538 473.659L623.001 473.861L623.431 473.597L623.379 474.096L623.763 474.422Z" fill="white"/>
<path d="M673.819 455.424L672.965 455.607L672.634 456.409L672.194 455.659L671.323 455.591L671.908 454.945L671.701 454.104L672.499 454.453L673.245 454L673.156 454.864L673.819 455.424Z" fill="white"/>
<path d="M661.935 511.853L661.554 511.934L661.407 512.293L661.209 511.957L660.819 511.928L661.081 511.638L660.989 511.26L661.344 511.419L661.679 511.214L661.64 511.602L661.935 511.853Z" fill="white"/>
<path d="M13.9413 484.345L13.4355 484.368L13.1694 484.791L12.9921 484.322L12.5027 484.201L12.9001 483.888L12.864 483.39L13.2844 483.667L13.7508 483.481L13.6161 483.96L13.9413 484.345Z" fill="white"/>
<path d="M156.193 534.019L155.339 534.198L155.007 535L154.567 534.25L153.696 534.185L154.281 533.54L154.074 532.695L154.872 533.047L155.618 532.594L155.529 533.455L156.193 534.019Z" fill="white"/>
<path d="M169.134 481.935L168.28 482.118L167.948 482.917L167.508 482.167L166.638 482.102L167.223 481.456L167.016 480.612L167.814 480.964L168.559 480.511L168.471 481.372L169.134 481.935Z" fill="white"/>
<path d="M69.1996 515.488L68.7069 515.592L68.5131 516.055L68.2602 515.621L67.7577 515.582L68.096 515.211L67.9778 514.725L68.4376 514.927L68.8678 514.663L68.8153 515.162L69.1996 515.488Z" fill="white"/>
<path d="M130.899 489.091L130.406 489.195L130.212 489.658L129.959 489.224L129.457 489.185L129.795 488.814L129.674 488.328L130.137 488.53L130.567 488.266L130.514 488.765L130.899 489.091Z" fill="white"/>
<path d="M72.7633 474.422L72.2706 474.526L72.0768 474.989L71.8239 474.556L71.3214 474.516L71.6597 474.145L71.5382 473.659L72.0013 473.861L72.4315 473.597L72.379 474.096L72.7633 474.422Z" fill="white"/>
<path d="M122.819 455.424L121.965 455.607L121.634 456.409L121.194 455.659L120.323 455.591L120.908 454.945L120.701 454.104L121.499 454.453L122.245 454L122.156 454.864L122.819 455.424Z" fill="white"/>
<path d="M110.935 511.853L110.554 511.934L110.407 512.293L110.209 511.957L109.819 511.928L110.081 511.638L109.989 511.26L110.344 511.419L110.679 511.214L110.64 511.602L110.935 511.853Z" fill="white"/>
</g>
<defs>
<linearGradient id="paint0_linear_123_318" x1="1402.5" y1="0" x2="1402.5" y2="602" gradientUnits="userSpaceOnUse">
<stop stop-color="#00506B"/>
<stop offset="1" stop-color="#36768A"/>
</linearGradient>
</defs>
</svg>
