<svg width="4010" height="563" viewBox="0 0 4010 563" fill="none" xmlns="http://www.w3.org/2000/svg">
<mask id="mask0_123_385" style="mask-type:alpha" maskUnits="userSpaceOnUse" x="0" y="0" width="4010" height="563">
<rect width="4010" height="563" fill="#D9D9D9"/>
</mask>
<g mask="url(#mask0_123_385)">
<path fill-rule="evenodd" clip-rule="evenodd" d="M1205 563H4010V308H1276C1236.78 308 1205 339.788 1205 379V563ZM1422.98 307.053C1425.89 307.674 1428.9 308 1432 308H4010V224V222V47.0001V46V31V30.0001V0H2499.5C2490.94 0 2484 6.93958 2484 15.5C2484 24.0604 2490.94 31 2499.5 31H2584.27C2586.91 32.4009 2588.71 35.1777 2588.71 38.3744C2588.71 41.7751 2586.67 44.7006 2583.75 46H1387C1340.6 46 1303 83.6081 1303 130V140C1303 186.392 1340.6 224 1387 224H1419C1418.85 224.047 1418.7 224.095 1418.55 224.144C1418.29 224.23 1418.02 224.32 1417.76 224.411C1439.18 226.253 1456 244.225 1456 266.123C1456 286.209 1441.85 302.991 1422.98 307.053Z" fill="url(#paint0_linear_123_385)"/>
<path d="M1943.63 92.4198L1940.94 92.5517L1939.5 95.1281L1938.56 92.2778L1935.94 91.5475L1938.05 89.6506L1937.87 86.6279L1940.12 88.3016L1942.62 87.1655L1941.9 90.097L1943.63 92.4198Z" fill="white"/>
<path d="M2253.08 152.347L2250.68 152.469L2249.41 154.751L2248.57 152.225L2246.24 151.566L2248.12 149.892L2247.96 147.194L2249.96 148.685L2252.18 147.681L2251.54 150.278L2253.08 152.347Z" fill="white"/>
<path d="M1944.7 182.25L1943.81 182.29L1943.34 183.142L1943.03 182.209L1942.16 181.966L1942.87 181.337L1942.8 180.343L1943.54 180.89L1944.37 180.515L1944.13 181.479L1944.7 182.25Z" fill="white"/>
<path d="M2359.93 153.423L2358.54 153.494L2357.81 154.813L2357.32 153.352L2355.98 152.977L2357.07 152.003L2356.97 150.451L2358.12 151.313L2359.4 150.735L2359.03 152.226L2359.93 153.423Z" fill="white"/>
<path d="M2079.6 111.829L2078.21 111.9L2077.48 113.219L2076.99 111.758L2075.65 111.383L2076.73 110.409L2076.64 108.857L2077.79 109.72L2079.07 109.141L2078.7 110.633L2079.6 111.829Z" fill="white"/>
<path d="M2009.96 125.46L2008.48 125.541L2007.68 126.961L2007.16 125.389L2005.71 124.973L2006.88 123.929L2006.77 122.255L2008.02 123.188L2009.4 122.559L2009.01 124.172L2009.96 125.46Z" fill="white"/>
<path d="M1380.53 114.575L1377.9 115.215L1376.86 118.024L1375.51 115.397L1372.82 115.164L1374.63 112.902L1373.99 109.95L1376.46 111.177L1378.76 109.585L1378.48 112.608L1380.53 114.575Z" fill="white"/>
<path d="M1694.54 115.272L1692.19 115.83L1691.28 118.326L1690.08 115.993L1687.69 115.79L1689.29 113.781L1688.72 111.154L1690.91 112.25L1692.96 110.84L1692.72 113.518L1694.54 115.272Z" fill="white"/>
<path d="M1394.99 202.936L1394.12 203.139L1393.77 204.072L1393.33 203.2L1392.45 203.129L1393.03 202.378L1392.83 201.405L1393.64 201.81L1394.4 201.293L1394.3 202.287L1394.99 202.936Z" fill="white"/>
<path d="M1800.03 96.1776L1798.68 96.5022L1798.15 97.9425L1797.46 96.5935L1796.08 96.4718L1797 95.3154L1796.67 93.8041L1797.94 94.4329L1799.12 93.6113L1798.98 95.1633L1800.03 96.1776Z" fill="white"/>
<path d="M1364.85 289.63L1362.51 290.198L1361.6 292.693L1360.39 290.36L1358 290.147L1359.61 288.139L1359.04 285.522L1361.23 286.607L1363.28 285.197L1363.03 287.885L1364.85 289.63Z" fill="white"/>
<path d="M2750.47 307.997L2748.13 308.555L2747.22 311.05L2746.01 308.717L2743.62 308.515L2745.22 306.506L2744.66 303.879L2746.85 304.975L2748.89 303.565L2748.65 306.242L2750.47 307.997Z" fill="white"/>
<path d="M2786 145.929L2783.66 146.497L2782.75 148.982L2781.54 146.649L2779.15 146.446L2780.75 144.438L2780.19 141.811L2782.38 142.906L2784.42 141.496L2784.18 144.174L2786 145.929Z" fill="white"/>
<path d="M2511.64 250.338L2510.28 250.662L2509.75 252.103L2509.06 250.754L2507.68 250.632L2508.61 249.476L2508.28 247.964L2509.54 248.593L2510.73 247.772L2510.58 249.324L2511.64 250.338Z" fill="white"/>
<path d="M2681.03 168.196L2679.68 168.521L2679.14 169.961L2678.45 168.612L2677.07 168.49L2678 167.334L2677.67 165.823L2678.94 166.451L2680.12 165.63L2679.97 167.182L2681.03 168.196Z" fill="white"/>
<path d="M2521.42 122.55L2520.06 122.874L2519.53 124.315L2518.84 122.966L2517.46 122.844L2518.39 121.687L2518.05 120.176L2519.32 120.805L2520.5 119.983L2520.36 121.535L2521.42 122.55Z" fill="white"/>
<path d="M2658.85 63.4326L2656.5 64.0007L2655.59 66.4959L2654.38 64.163L2651.99 63.95L2653.6 61.9416L2653.03 59.3246L2655.22 60.4099L2657.27 59L2657.02 61.688L2658.85 63.4326Z" fill="white"/>
<path d="M2626.22 239.023L2625.17 239.277L2624.77 240.393L2624.23 239.348L2623.15 239.257L2623.88 238.354L2623.62 237.177L2624.6 237.674L2625.52 237.035L2625.41 238.242L2626.22 239.023Z" fill="white"/>
<path d="M3736.37 63.4198L3739.06 63.5517L3740.5 66.1281L3741.45 63.2778L3744.06 62.5475L3741.95 60.6506L3742.13 57.6279L3739.89 59.3016L3737.38 58.1655L3738.1 61.097L3736.37 63.4198Z" fill="white"/>
<path d="M3426.92 123.347L3429.32 123.469L3430.59 125.751L3431.43 123.225L3433.76 122.566L3431.88 120.892L3432.04 118.194L3430.04 119.685L3427.82 118.681L3428.46 121.278L3426.92 123.347Z" fill="white"/>
<path d="M3735.31 153.25L3736.19 153.29L3736.66 154.142L3736.97 153.209L3737.84 152.966L3737.14 152.337L3737.2 151.343L3736.46 151.89L3735.63 151.515L3735.87 152.479L3735.31 153.25Z" fill="white"/>
<path d="M3320.08 124.423L3321.46 124.494L3322.19 125.813L3322.68 124.352L3324.02 123.977L3322.93 123.003L3323.03 121.451L3321.88 122.313L3320.6 121.735L3320.97 123.226L3320.08 124.423Z" fill="white"/>
<path d="M3600.41 82.8294L3601.79 82.9004L3602.52 84.2191L3603.01 82.7584L3604.35 82.3831L3603.27 81.4094L3603.36 79.8574L3602.21 80.7196L3600.93 80.1414L3601.3 81.6325L3600.41 82.8294Z" fill="white"/>
<path d="M3670.04 96.4602L3671.53 96.5413L3672.32 97.9614L3672.84 96.3892L3674.29 95.9733L3673.12 94.9285L3673.23 93.2549L3671.99 94.1881L3670.6 93.5592L3670.99 95.172L3670.04 96.4602Z" fill="white"/>
<path d="M3985.46 86.2725L3987.81 86.8304L3988.72 89.3256L3989.93 86.9927L3992.32 86.7898L3990.71 84.7814L3991.28 82.1543L3989.09 83.2498L3987.04 81.8398L3987.28 84.5177L3985.46 86.2725Z" fill="white"/>
<path d="M3879.97 67.1776L3881.32 67.5022L3881.85 68.9425L3882.55 67.5935L3883.93 67.4718L3883 66.3154L3883.33 64.8041L3882.06 65.4329L3880.88 64.6113L3881.02 66.1633L3879.97 67.1776Z" fill="white"/>
<path d="M2929.53 278.997L2931.87 279.555L2932.78 282.05L2933.99 279.717L2936.38 279.515L2934.78 277.506L2935.35 274.879L2933.15 275.975L2931.11 274.565L2931.35 277.242L2929.53 278.997Z" fill="white"/>
<path d="M2894 116.929L2896.34 117.497L2897.26 119.982L2898.46 117.649L2900.85 117.446L2899.25 115.438L2899.82 112.811L2897.62 113.906L2895.58 112.496L2895.82 115.174L2894 116.929Z" fill="white"/>
<path d="M3168.37 221.338L3169.72 221.662L3170.25 223.103L3170.94 221.754L3172.32 221.632L3171.39 220.476L3171.72 218.964L3170.46 219.593L3169.28 218.772L3169.42 220.324L3168.37 221.338Z" fill="white"/>
<path d="M2998.97 139.196L3000.33 139.521L3000.86 140.961L3001.55 139.612L3002.93 139.49L3002 138.334L3002.34 136.823L3001.06 137.451L2999.88 136.63L3000.03 138.182L2998.97 139.196Z" fill="white"/>
<path d="M3158.59 93.5497L3159.94 93.8743L3160.47 95.3146L3161.16 93.9655L3162.54 93.8438L3161.62 92.6875L3161.95 91.1761L3160.68 91.805L3159.5 90.9834L3159.64 92.5353L3158.59 93.5497Z" fill="white"/>
<path d="M3021.16 34.4326L3023.5 35.0007L3024.41 37.4959L3025.62 35.163L3028.01 34.95L3026.4 32.9416L3026.97 30.3246L3024.78 31.4099L3022.73 30L3022.98 32.688L3021.16 34.4326Z" fill="white"/>
<path d="M3053.78 210.023L3054.83 210.277L3055.23 211.393L3055.77 210.348L3056.85 210.257L3056.13 209.354L3056.38 208.177L3055.4 208.674L3054.48 208.035L3054.59 209.242L3053.78 210.023Z" fill="white"/>
</g>
<defs>
<linearGradient id="paint0_linear_123_385" x1="2607.5" y1="563" x2="2607.5" y2="6.10352e-05" gradientUnits="userSpaceOnUse">
<stop stop-color="#00506B"/>
<stop offset="1" stop-color="#36768A"/>
</linearGradient>
</defs>
</svg>
