<svg width="4010" height="393" viewBox="0 0 4010 393" fill="none" xmlns="http://www.w3.org/2000/svg">
<mask id="mask0_58_750" style="mask-type:alpha" maskUnits="userSpaceOnUse" x="0" y="0" width="4010" height="393">
<path fill-rule="evenodd" clip-rule="evenodd" d="M0 393L4010 393L4010 212L4010 212L4010 185.565L4010 185.565L4010 0.000488281L1496 0.0002685L1487.54 0.000725525C1422.2 0.000719812 1369.23 52.972 1369.23 118.315L1369.23 153.874C1369.23 171.376 1355.04 185.565 1337.54 185.565L1.81346e-05 185.564L1.58235e-05 212L4.87366e-06 337.251L0 393Z" fill="url(#paint0_linear_58_750)"/>
</mask>
<g mask="url(#mask0_58_750)">
<path fill-rule="evenodd" clip-rule="evenodd" d="M0 393L4010 393L4010 212L4010 212L4010 185.565L4010 185.565L4010 0.000488281L1496 0.0002685L1487.54 0.000725525C1422.2 0.000719812 1369.23 52.972 1369.23 118.315L1369.23 153.874C1369.23 171.376 1355.04 185.565 1337.54 185.565L1.81346e-05 185.564L1.58235e-05 212L4.87366e-06 337.251L0 393Z" fill="url(#paint1_linear_58_750)"/>
<path d="M2317.55 129.733L2321.59 129.905L2323.75 133.26L2325.17 129.548L2329.09 128.598L2325.92 126.128L2326.19 122.192L2322.83 124.371L2319.07 122.892L2320.15 126.709L2317.55 129.733Z" fill="white"/>
<path d="M1853.38 207.76L1856.97 207.918L1858.88 210.89L1860.14 207.601L1863.63 206.743L1860.82 204.564L1861.06 201.051L1858.06 202.992L1854.73 201.685L1855.69 205.066L1853.38 207.76Z" fill="white"/>
<path d="M2315.95 246.689L2317.27 246.742L2317.98 247.852L2318.45 246.637L2319.75 246.32L2318.7 245.501L2318.79 244.207L2317.68 244.92L2316.44 244.431L2316.8 245.686L2315.95 246.689Z" fill="white"/>
<path d="M1693.1 209.158L1695.19 209.251L1696.28 210.967L1697.01 209.066L1699.03 208.577L1697.39 207.309L1697.54 205.289L1695.81 206.411L1693.89 205.658L1694.44 207.6L1693.1 209.158Z" fill="white"/>
<path d="M2113.6 154.996L2115.69 155.089L2116.78 156.806L2117.51 154.904L2119.53 154.415L2117.9 153.148L2118.04 151.127L2116.31 152.25L2114.39 151.497L2114.94 153.438L2113.6 154.996Z" fill="white"/>
<path d="M2379.89 350.576L2383.49 350.721L2385.4 353.706L2386.65 350.417L2390.14 349.559L2387.33 347.366L2387.57 343.867L2384.57 345.808L2381.24 344.501L2382.2 347.882L2379.89 350.576Z" fill="white"/>
<path d="M2218.05 172.747L2220.28 172.853L2221.47 174.702L2222.26 172.655L2224.44 172.114L2222.68 170.753L2222.84 168.574L2220.97 169.789L2218.89 168.97L2219.48 171.07L2218.05 172.747Z" fill="white"/>
<path d="M3162.2 158.579L3166.15 159.411L3167.7 163.069L3169.73 159.648L3173.76 159.345L3171.06 156.4L3172.02 152.556L3168.31 154.154L3164.86 152.081L3165.28 156.017L3162.2 158.579Z" fill="white"/>
<path d="M2901.13 253.743L2904.65 254.469L2906.01 257.718L2907.83 254.681L2911.41 254.417L2909 251.802L2909.85 248.381L2906.57 249.807L2903.5 247.972L2903.86 251.458L2901.13 253.743Z" fill="white"/>
<path d="M3140.52 273.619L3141.83 273.883L3142.34 275.098L3143 273.962L3144.33 273.87L3143.45 272.893L3143.76 271.625L3142.54 272.153L3141.41 271.479L3141.54 272.774L3140.52 273.619Z" fill="white"/>
<path d="M2532.95 134.622L2534.98 135.044L2535.78 136.919L2536.82 135.163L2538.89 135.005L2537.5 133.499L2538 131.531L2536.09 132.35L2534.32 131.28L2534.54 133.301L2532.95 134.622Z" fill="white"/>
<path d="M2956.8 150.086L2958.83 150.509L2959.62 152.384L2960.66 150.628L2962.74 150.483L2961.35 148.964L2961.84 146.996L2959.94 147.815L2958.17 146.758L2958.39 148.779L2956.8 150.086Z" fill="white"/>
<path d="M3185.72 386.497L3189.24 387.237L3190.6 390.486L3192.42 387.448L3196 387.171L3193.59 384.556L3194.44 381.149L3191.16 382.562L3188.09 380.726L3188.45 384.226L3185.72 386.497Z" fill="white"/>
<path d="M3056.72 184.687L3058.91 185.15L3059.76 187.17L3060.88 185.282L3063.12 185.11L3061.61 183.486L3062.14 181.359L3060.1 182.244L3058.19 181.095L3058.42 183.274L3056.72 184.687Z" fill="white"/>
<path d="M2002.97 374.545L2007.42 375.483L2009.15 379.577L2011.43 375.747L2015.96 375.403L2012.93 372.102L2014 367.783L2009.84 369.579L2005.97 367.255L2006.43 371.666L2002.97 374.545Z" fill="white"/>
<path d="M1054 199.4L1057.52 200.139L1058.88 203.375L1060.69 200.337L1064.28 200.073L1061.87 197.458L1062.72 194.038L1059.44 195.464L1056.37 193.628L1056.73 197.115L1054 199.4Z" fill="white"/>
<path d="M1465.54 335.335L1467.57 335.758L1468.37 337.633L1469.41 335.877L1471.48 335.718L1470.09 334.213L1470.57 332.245L1468.68 333.064L1466.91 331.994L1467.12 334.015L1465.54 335.335Z" fill="white"/>
<path d="M1211.45 228.388L1213.48 228.811L1214.28 230.686L1215.32 228.93L1217.39 228.771L1216 227.266L1216.5 225.298L1214.59 226.117L1212.82 225.047L1213.04 227.067L1211.45 228.388Z" fill="white"/>
<path d="M1450.87 168.958L1452.9 169.381L1453.69 171.256L1454.74 169.5L1456.8 169.341L1455.41 167.836L1455.91 165.868L1454 166.687L1452.23 165.617L1452.45 167.638L1450.87 168.958Z" fill="white"/>
<path d="M1244.73 91.9915L1248.25 92.7311L1249.61 95.9799L1251.43 92.9424L1255.01 92.665L1252.6 90.0501L1253.45 86.6428L1250.17 88.0559L1247.1 86.2202L1247.46 89.72L1244.73 91.9915Z" fill="white"/>
<path d="M1293.67 320.608L1295.24 320.939L1295.85 322.391L1296.66 321.031L1298.27 320.912L1297.19 319.737L1297.56 318.205L1296.1 318.852L1294.72 318.02L1294.89 319.592L1293.67 320.608Z" fill="white"/>
</g>
<defs>
<linearGradient id="paint0_linear_58_750" x1="1899.99" y1="392.538" x2="2175.61" y2="-306.584" gradientUnits="userSpaceOnUse">
<stop stop-color="#6EC7B3"/>
<stop offset="0.830342" stop-color="#9EE4D4"/>
</linearGradient>
<linearGradient id="paint1_linear_58_750" x1="1899.99" y1="392.538" x2="2175.61" y2="-306.584" gradientUnits="userSpaceOnUse">
<stop stop-color="#6EC7B3"/>
<stop offset="0.830342" stop-color="#9EE4D4"/>
</linearGradient>
</defs>
</svg>
