<svg width="4010" height="956" viewBox="0 0 4010 956" fill="none" xmlns="http://www.w3.org/2000/svg">
<path fill-rule="evenodd" clip-rule="evenodd" d="M4010 0L0 0L-0.5 163H-1V300.181H-0.5L0 468H897.5C933.398 468 962.5 497.102 962.5 533V690V840.5C962.5 904.289 1014.21 956 1078 956C1141.79 956 1193.5 904.289 1193.5 840.5V787C1193.5 726.249 1242.75 677 1303.5 677H1972C2015.35 677 2050.5 649.5 2050.5 606.146C2050.5 562.792 2015.35 533 1972 533H1956.5V532.966C1956 532.989 1955.5 533 1955 533C1937.05 533 1922.5 518.449 1922.5 500.5C1922.5 482.551 1937.05 468 1955 468C1955.5 468 1956 468.011 1956.5 468.034V468H2279.79H2295.5H2303.5C2362.59 468 2410.5 420.094 2410.5 361V328.842C2410.5 313.013 2423.33 300.181 2439.16 300.181H4010L4009.5 163L4010 0Z" fill="url(#paint0_linear_202_5214)"/>
<defs>
<linearGradient id="paint0_linear_202_5214" x1="1930.38" y1="0.000123171" x2="1064.89" y2="924.668" gradientUnits="userSpaceOnUse">
<stop stop-color="#6EC7B3"/>
<stop offset="0.830342" stop-color="#9EE4D4"/>
</linearGradient>
</defs>
</svg>
