<svg width="1212" height="429" viewBox="0 0 1212 429" fill="none" xmlns="http://www.w3.org/2000/svg">
<path fill-rule="evenodd" clip-rule="evenodd" d="M167 34.5C167 15.4462 182.446 0 201.5 0H1122.5C1141.55 0 1157 15.4462 1157 34.5C1157 53.5538 1141.55 69 1122.5 69H1067.98C1044.35 75.446 1027 96.7333 1027 122C1027 152.048 1051.53 176.467 1082 176.991V177H1117.5C1169.69 177 1212 219.309 1212 271.5C1212 323.691 1169.69 366 1117.5 366H94.5C42.3091 366 0 323.691 0 271.5C0 219.309 42.3091 177 94.5 177H206.637C232.478 172.075 252 149.547 252 122.5C252 96.9798 234.62 75.4827 210.951 69H201.5C182.446 69 167 53.5538 167 34.5Z" fill="url(#paint0_linear_125_400)"/>
<path d="M690.077 260.672L692.078 260.773L693.142 262.752L693.845 260.563L695.785 260.002L694.219 258.545L694.353 256.223L692.687 257.508L690.827 256.636L691.362 258.887L690.077 260.672Z" fill="white"/>
<path d="M460.453 306.705L462.233 306.799L463.177 308.552L463.799 306.612L465.525 306.105L464.134 304.82L464.254 302.747L462.769 303.892L461.122 303.121L461.598 305.116L460.453 306.705Z" fill="white"/>
<path d="M689.29 329.675L689.945 329.706L690.293 330.36L690.528 329.644L691.17 329.457L690.648 328.974L690.695 328.21L690.146 328.631L689.531 328.342L689.711 329.083L689.29 329.675Z" fill="white"/>
<path d="M381.167 307.531L382.197 307.586L382.739 308.598L383.101 307.476L384.098 307.188L383.288 306.44L383.362 305.248L382.505 305.91L381.555 305.466L381.829 306.612L381.167 307.531Z" fill="white"/>
<path d="M589.186 275.58L590.217 275.634L590.759 276.647L591.12 275.525L592.117 275.237L591.314 274.489L591.381 273.297L590.525 273.959L589.574 273.515L589.849 274.66L589.186 275.58Z" fill="white"/>
<path d="M720.916 390.963L722.696 391.049L723.64 392.81L724.262 390.87L725.988 390.363L724.597 389.07L724.717 387.005L723.231 388.15L721.585 387.379L722.06 389.374L720.916 390.963Z" fill="white"/>
<path d="M640.857 286.051L641.961 286.113L642.55 287.204L642.938 285.996L644.016 285.677L643.146 284.874L643.226 283.589L642.303 284.306L641.272 283.823L641.567 285.061L640.857 286.051Z" fill="white"/>
<path d="M1107.93 277.691L1109.88 278.182L1110.65 280.34L1111.65 278.322L1113.65 278.143L1112.31 276.405L1112.79 274.138L1110.95 275.081L1109.25 273.857L1109.45 276.179L1107.93 277.691Z" fill="white"/>
<path d="M874.918 278.225L876.658 278.654L877.334 280.571L878.231 278.778L880.004 278.623L878.813 277.08L879.234 275.062L877.608 275.903L876.089 274.82L876.27 276.877L874.918 278.225Z" fill="white"/>
<path d="M1097.2 345.565L1097.85 345.721L1098.11 346.438L1098.43 345.768L1099.09 345.713L1098.65 345.136L1098.81 344.388L1098.21 344.7L1097.64 344.303L1097.71 345.066L1097.2 345.565Z" fill="white"/>
<path d="M796.637 263.557L797.64 263.807L798.035 264.913L798.55 263.877L799.574 263.783L798.885 262.895L799.133 261.734L798.189 262.217L797.313 261.586L797.42 262.778L796.637 263.557Z" fill="white"/>
<path d="M1006.32 272.68L1007.32 272.93L1007.71 274.036L1008.23 273L1009.26 272.914L1008.57 272.018L1008.81 270.857L1007.87 271.34L1006.99 270.717L1007.1 271.909L1006.32 272.68Z" fill="white"/>
<path d="M1119.56 412.159L1121.3 412.595L1121.98 414.512L1122.88 412.72L1124.65 412.556L1123.46 411.013L1123.88 409.003L1122.25 409.837L1120.73 408.754L1120.91 410.819L1119.56 412.159Z" fill="white"/>
<path d="M1055.75 293.094L1056.83 293.367L1057.25 294.559L1057.81 293.445L1058.91 293.343L1058.17 292.385L1058.43 291.13L1057.42 291.652L1056.48 290.975L1056.59 292.26L1055.75 293.094Z" fill="white"/>
<path d="M534.459 405.11L536.661 405.663L537.517 408.078L538.641 405.819L540.883 405.616L539.384 403.668L539.913 401.12L537.858 402.18L535.945 400.809L536.172 403.411L534.459 405.11Z" fill="white"/>
<path d="M91.3619 426.267L93.1016 426.696L93.7774 428.613L94.674 426.82L96.4473 426.665L95.2562 425.122L95.6777 423.104L94.0518 423.945L92.5328 422.862L92.7135 424.919L91.3619 426.267Z" fill="white"/>
<path d="M64.9966 301.774L66.7364 302.21L67.4122 304.119L68.3088 302.327L70.082 302.171L68.891 300.629L69.3125 298.611L67.6866 299.452L66.1676 298.369L66.3483 300.426L64.9966 301.774Z" fill="white"/>
<path d="M268.59 381.976L269.594 382.225L269.988 383.332L270.504 382.296L271.527 382.202L270.838 381.314L271.079 380.153L270.142 380.636L269.266 380.005L269.373 381.197L268.59 381.976Z" fill="white"/>
<path d="M142.893 318.879L143.896 319.128L144.291 320.234L144.806 319.198L145.83 319.104L145.141 318.216L145.389 317.055L144.445 317.538L143.568 316.907L143.675 318.099L142.893 318.879Z" fill="white"/>
<path d="M261.332 283.816L262.336 284.065L262.731 285.172L263.246 284.135L264.27 284.042L263.58 283.154L263.828 281.993L262.884 282.476L262.008 281.845L262.115 283.037L261.332 283.816Z" fill="white"/>
<path d="M159.354 238.405L161.094 238.841L161.77 240.758L162.666 238.966L164.439 238.802L163.248 237.26L163.67 235.249L162.044 236.083L160.525 235L160.706 237.065L159.354 238.405Z" fill="white"/>
<path d="M183.561 373.285L184.337 373.48L184.638 374.337L185.04 373.534L185.836 373.464L185.301 372.771L185.488 371.867L184.765 372.249L184.083 371.758L184.163 372.685L183.561 373.285Z" fill="white"/>
<defs>
<linearGradient id="paint0_linear_125_400" x1="1409.03" y1="-58.4664" x2="-43.4167" y2="207.393" gradientUnits="userSpaceOnUse">
<stop stop-color="#CEF1F3"/>
<stop offset="1" stop-color="#A4E7EA"/>
</linearGradient>
</defs>
</svg>
