<svg width="4010" height="549" viewBox="0 0 4010 549" fill="none" xmlns="http://www.w3.org/2000/svg">
<mask id="mask0_202_4362" style="mask-type:alpha" maskUnits="userSpaceOnUse" x="0" y="0" width="4010" height="549">
<rect width="4010" height="549" fill="#D9D9D9"/>
</mask>
<g mask="url(#mask0_202_4362)">
<path fill-rule="evenodd" clip-rule="evenodd" d="M1475.59 470.988C1496.9 470.989 1514.18 488.266 1514.18 509.579C1514.18 530.892 1496.9 548.169 1475.59 548.169L-0.00012207 548.169L-0.000128818 470.988L1475.59 470.988ZM-0.000283165 101.784L-4.12625e-05 76.1809L-4.80099e-05 -0.999584L1475.59 -0.999652C1496.9 -0.999654 1514.18 16.2778 1514.18 37.5906C1514.18 58.8601 1496.97 76.1107 1475.72 76.1806L1477.26 76.1806C1477.6 76.1806 1477.95 76.1945 1478.29 76.2218L1469.65 76.2218C1462.6 76.2218 1456.87 81.9435 1456.87 89.0015C1456.87 96.0596 1462.6 101.781 1469.65 101.781L1477.52 101.781C1477.43 101.783 1477.34 101.784 1477.26 101.784L1804.9 101.784C1839.43 101.784 1867.42 129.777 1867.42 164.307C1867.42 198.838 1839.43 226.831 1804.9 226.831L1747.35 226.831C1748.09 226.834 1748.82 226.861 1749.54 226.91L1710.89 226.91C1692.06 226.91 1676.79 242.177 1676.79 261.009C1676.79 279.708 1691.84 294.891 1710.49 295.106L0.000832369 295.106L0.000460189 226.831L-0.000283165 101.784ZM1961.67 370.246C1961.67 411.744 1928.03 445.385 1886.53 445.385L-8.98562e-06 445.386L-2.21235e-05 295.106L1886.53 295.106C1928.03 295.106 1961.67 328.747 1961.67 370.246Z" fill="#FAFBFD"/>
</g>
</svg>
