<svg width="400" height="109" viewBox="0 0 400 109" fill="none" xmlns="http://www.w3.org/2000/svg">
<mask id="mask0_1_1914" style="mask-type:alpha" maskUnits="userSpaceOnUse" x="0" y="0" width="400" height="109">
<path d="M400 0H0V109H400V0Z" fill="url(#paint0_linear_1_1914)"/>
</mask>
<g mask="url(#mask0_1_1914)">
<path d="M400 0H0V125H400V0Z" fill="url(#paint1_linear_1_1914)"/>
<mask id="mask1_1_1914" style="mask-type:alpha" maskUnits="userSpaceOnUse" x="-78" y="9" width="115" height="24">
<rect x="-78" y="9" width="114.407" height="23.8242" fill="#D9D9D9"/>
</mask>
<g mask="url(#mask1_1_1914)">
<path fill-rule="evenodd" clip-rule="evenodd" d="M-18.9525 34.4166C-21.8437 35.7898 -25.281 36.5859 -28.9691 36.5859C-32.7915 36.5859 -36.3446 35.7307 -39.2995 34.2642C-41.6065 35.7117 -44.5902 36.5844 -47.8486 36.5844C-50.2026 36.5844 -52.4132 36.1289 -54.3288 35.3304C-55.843 36.1229 -57.6906 36.5884 -59.6847 36.5884C-62.0837 36.5884 -64.2705 35.9147 -65.9199 34.8085C-67.1082 35.8938 -68.9218 36.5874 -70.9539 36.5874C-74.5333 36.5874 -77.4351 34.4354 -77.4351 31.7808C-77.4351 29.1261 -74.5333 26.9741 -70.9539 26.9741C-70.0603 26.9741 -69.2089 27.1082 -68.4343 27.3508C-67.1725 24.7574 -63.8738 22.886 -59.9703 22.7987C-57.916 19.3481 -53.2615 16.9399 -47.8486 16.9399C-47.1803 16.9399 -46.5236 16.9766 -45.8819 17.0474C-42.9438 12.2983 -36.4758 9 -28.9691 9C-21.489 9 -15.0404 12.2749 -12.0878 16.9969C-11.6162 16.9592 -11.1373 16.9399 -10.6522 16.9399C-8.85787 16.9399 -7.14687 17.2045 -5.58629 17.684C-2.98226 15.9236 0.480896 14.8502 4.28211 14.8502C11.0111 14.8502 16.6808 18.214 18.4004 22.798C18.4843 22.7963 18.5683 22.7955 18.6527 22.7955C22.6808 22.7955 26.1106 24.6949 27.4028 27.3519C28.1782 27.1086 29.0307 26.9741 29.9256 26.9741C33.5051 26.9741 36.4068 29.1261 36.4068 31.7808C36.4068 34.4354 33.5051 36.5874 29.9256 36.5874C27.8927 36.5874 26.0783 35.8932 24.89 34.8071C23.2404 35.9141 21.0527 36.5884 18.6527 36.5884C16.2324 36.5884 14.028 35.9027 12.3736 34.7788C10.055 35.9199 7.27322 36.5845 4.28211 36.5845C1.46912 36.5845 -1.15874 35.9967 -3.3903 34.9776C-5.47559 35.9934 -7.97085 36.5844 -10.6522 36.5844C-13.7948 36.5844 -16.6816 35.7727 -18.9525 34.4166Z" fill="white"/>
</g>
<mask id="mask2_1_1914" style="mask-type:alpha" maskUnits="userSpaceOnUse" x="37" y="88" width="58" height="12">
<rect width="57.6256" height="12" transform="matrix(-1 0 0 1 94.626 88)" fill="#D9D9D9"/>
</mask>
<g mask="url(#mask2_1_1914)">
<path fill-rule="evenodd" clip-rule="evenodd" d="M64.883 100.803C66.339 101.494 68.0699 101.895 69.927 101.895C71.8531 101.895 73.6435 101.464 75.1322 100.724C76.2944 101.454 77.7975 101.894 79.4392 101.894C80.6244 101.894 81.7374 101.664 82.7021 101.262C83.4645 101.661 84.3946 101.895 85.3985 101.895C86.607 101.895 87.7087 101.556 88.5395 100.999C89.1381 101.546 90.0519 101.895 91.0758 101.895C92.8788 101.895 94.3403 100.811 94.3403 99.4742C94.3403 98.1371 92.8788 97.0532 91.0758 97.0532C90.6254 97.0532 90.1962 97.1208 89.8059 97.2432C89.1708 95.9371 87.5101 94.9944 85.5447 94.9497C84.5099 93.2118 82.1656 91.9988 79.4392 91.9988C79.1016 91.9988 78.7699 92.0174 78.4457 92.0533C76.9658 89.6613 73.708 88 69.927 88C66.1597 88 62.9118 89.6493 61.4244 92.0274C61.1877 92.0085 60.9473 91.9988 60.7039 91.9988C59.7993 91.9988 58.9368 92.1324 58.1502 92.3743C56.8385 91.4873 55.0938 90.9464 53.1787 90.9464C49.7896 90.9464 46.9339 92.6405 46.0676 94.9493C46.0262 94.9485 45.9846 94.9481 45.9429 94.9481C43.9139 94.9481 42.1863 95.9048 41.5355 97.2432C41.1451 97.1208 40.716 97.0532 40.2656 97.0532C38.4626 97.0532 37.0011 98.1371 37.0011 99.4742C37.0011 100.811 38.4626 101.895 40.2656 101.895C41.2895 101.895 42.2033 101.546 42.8019 100.999C43.6327 101.556 44.7343 101.895 45.9429 101.895C47.1614 101.895 48.2712 101.55 49.1044 100.985C50.272 101.559 51.6727 101.894 53.1787 101.894C54.5963 101.894 55.9205 101.597 57.0448 101.084C58.0954 101.596 59.3527 101.894 60.7039 101.894C62.286 101.894 63.7394 101.485 64.883 100.803Z" fill="white"/>
</g>
<mask id="mask3_1_1914" style="mask-type:alpha" maskUnits="userSpaceOnUse" x="381" y="21" width="38" height="8">
<rect x="381" y="21" width="38" height="7.91315" fill="#D9D9D9"/>
</mask>
<g mask="url(#mask3_1_1914)">
<path fill-rule="evenodd" clip-rule="evenodd" d="M400.613 29.442C399.652 29.8981 398.511 30.1626 397.286 30.1626C396.016 30.1626 394.836 29.8786 393.855 29.3915C393.088 29.8722 392.097 30.1621 391.015 30.1621C390.233 30.1621 389.499 30.0107 388.862 29.7452C388.359 30.0085 387.746 30.1631 387.083 30.1631C386.287 30.1631 385.56 29.9394 385.012 29.5721C384.618 29.9326 384.015 30.1629 383.34 30.1629C382.152 30.1629 381.188 29.4482 381.188 28.5664C381.188 27.6847 382.152 26.9699 383.34 26.9699C383.637 26.9699 383.92 27.0144 384.177 27.0949C384.596 26.2333 385.692 25.6116 386.989 25.5828C387.672 24.4369 389.218 23.6372 391.015 23.6372C391.237 23.6372 391.455 23.6494 391.668 23.6729C392.644 22.0955 394.792 21 397.286 21C399.77 21 401.912 22.0878 402.893 23.6562C403.049 23.6436 403.209 23.6372 403.37 23.6372C403.966 23.6372 404.534 23.7251 405.052 23.8843C405.917 23.2996 407.067 22.9431 408.33 22.9431C410.565 22.9431 412.448 24.0602 413.019 25.5826C413.047 25.5821 413.075 25.5818 413.103 25.5818C414.441 25.5818 415.58 26.2127 416.01 27.0952C416.267 27.0145 416.55 26.9699 416.847 26.9699C418.036 26.9699 419 27.6847 419 28.5664C419 29.4482 418.036 30.1629 416.847 30.1629C416.172 30.1629 415.569 29.9324 415.175 29.5717C414.627 29.9392 413.9 30.1631 413.103 30.1631C412.299 30.1631 411.567 29.9354 411.018 29.5622C410.248 29.9413 409.324 30.1621 408.33 30.1621C407.396 30.1621 406.523 29.9669 405.782 29.6284C405.089 29.9658 404.26 30.1621 403.37 30.1621C402.326 30.1621 401.367 29.8925 400.613 29.442Z" fill="white"/>
</g>
<mask id="mask4_1_1914" style="mask-type:alpha" maskUnits="userSpaceOnUse" x="299" y="75" width="188" height="39">
<rect x="299" y="75" width="187.102" height="38.9622" fill="#D9D9D9"/>
</mask>
<g mask="url(#mask4_1_1914)">
<path fill-rule="evenodd" clip-rule="evenodd" d="M395.567 116.566C390.839 118.812 385.217 120.114 379.185 120.114C372.933 120.114 367.122 118.715 362.29 116.317C358.517 118.684 353.638 120.111 348.309 120.111C344.459 120.111 340.844 119.366 337.711 118.06C335.235 119.356 332.214 120.117 328.952 120.117C325.028 120.117 321.452 119.015 318.754 117.205C316.811 118.981 313.844 120.115 310.521 120.115C304.667 120.115 299.921 116.596 299.921 112.254C299.921 107.913 304.667 104.394 310.521 104.394C311.983 104.394 313.376 104.613 314.643 105.01C316.707 100.769 322.101 97.7081 328.485 97.5653C331.845 91.9222 339.457 87.9838 348.309 87.9838C349.402 87.9838 350.477 88.0439 351.526 88.1598C356.332 80.3936 366.909 75 379.185 75C391.417 75 401.963 80.3553 406.792 88.0771C407.563 88.0155 408.347 87.9838 409.14 87.9838C412.075 87.9838 414.874 88.4168 417.427 89.2014C421.685 86.3228 427.348 84.5676 433.564 84.5676C444.568 84.5676 453.84 90.0682 456.653 97.5642C456.791 97.5614 456.929 97.5601 457.067 97.5601C463.654 97.5601 469.263 100.666 471.377 105.011C472.644 104.613 474.038 104.394 475.501 104.394C481.355 104.394 486.1 107.913 486.1 112.254C486.1 116.596 481.355 120.115 475.501 120.115C472.177 120.115 469.21 118.98 467.267 117.205C464.569 119.015 460.992 120.117 457.067 120.117C453.109 120.117 449.504 118.996 446.799 117.158C443.007 119.025 438.457 120.112 433.564 120.112C428.963 120.112 424.665 119.15 421.015 117.483C417.605 119.144 413.525 120.111 409.14 120.111C404.001 120.111 399.281 118.783 395.567 116.566Z" fill="white"/>
</g>
</g>
<defs>
<linearGradient id="paint0_linear_1_1914" x1="400" y1="54.4994" x2="7.50001" y2="54.4994" gradientUnits="userSpaceOnUse">
<stop stop-color="#131414"/>
<stop offset="1" stop-color="#020202"/>
</linearGradient>
<linearGradient id="paint1_linear_1_1914" x1="400" y1="-0.0025097" x2="-1.42819" y2="1.79999" gradientUnits="userSpaceOnUse">
<stop stop-color="#FEFAD9"/>
<stop offset="1" stop-color="#FAD872"/>
</linearGradient>
</defs>
</svg>
