<svg width="1600" height="63" viewBox="0 0 1600 63" fill="none" xmlns="http://www.w3.org/2000/svg">
<mask id="mask0_1_63" style="mask-type:alpha" maskUnits="userSpaceOnUse" x="0" y="0" width="1600" height="63">
<path d="M1600 0.34082H0V62.1965H1600V0.34082Z" fill="url(#paint0_linear_1_63)"/>
</mask>
<g mask="url(#mask0_1_63)">
<path d="M1600 0.34082H0V62.1965H1600V0.34082Z" fill="url(#paint1_linear_1_63)"/>
<mask id="mask1_1_63" style="mask-type:alpha" maskUnits="userSpaceOnUse" x="122" y="42" width="106" height="23">
<rect x="122" y="42" width="106" height="22.0735" fill="#D9D9D9"/>
</mask>
<g mask="url(#mask1_1_63)">
<path fill-rule="evenodd" clip-rule="evenodd" d="M176.708 65.5489C174.029 66.8212 170.844 67.5588 167.427 67.5588C163.886 67.5588 160.593 66.7663 157.855 65.4073C155.718 66.7484 152.954 67.5569 149.935 67.5569C147.754 67.5569 145.706 67.135 143.931 66.3952C142.528 67.1295 140.816 67.5608 138.969 67.5608C136.746 67.5608 134.719 66.9364 133.191 65.9112C132.09 66.9172 130.41 67.5601 128.526 67.5601C125.21 67.5601 122.521 65.5662 122.521 63.1066C122.521 60.6471 125.21 58.6532 128.526 58.6532C129.355 58.6532 130.144 58.7776 130.862 59.0026C132.031 56.5995 135.087 54.8654 138.704 54.7843C140.607 51.5873 144.919 49.356 149.935 49.356C150.554 49.356 151.163 49.39 151.758 49.4557C154.48 45.0558 160.473 42 167.427 42C174.358 42 180.332 45.034 183.068 49.4088C183.505 49.3739 183.948 49.356 184.397 49.356C186.061 49.356 187.646 49.6013 189.093 50.0459C191.505 48.4151 194.714 47.4208 198.235 47.4208C204.469 47.4208 209.722 50.537 211.316 54.7837C211.394 54.7821 211.472 54.7814 211.55 54.7814C215.282 54.7814 218.46 56.5412 219.657 59.003C220.375 58.7777 221.165 58.6532 221.994 58.6532C225.31 58.6532 227.999 60.6471 227.999 63.1066C227.999 65.5662 225.31 67.5601 221.994 67.5601C220.11 67.5601 218.429 66.917 217.328 65.9107C215.8 66.9362 213.773 67.5608 211.55 67.5608C209.308 67.5608 207.266 66.9256 205.733 65.8846C203.584 66.942 201.007 67.558 198.235 67.558C195.628 67.558 193.193 67.0131 191.125 66.0685C189.193 67.0095 186.882 67.5569 184.397 67.5569C181.486 67.5569 178.812 66.8051 176.708 65.5489Z" fill="white"/>
</g>
<mask id="mask2_1_63" style="mask-type:alpha" maskUnits="userSpaceOnUse" x="1447" y="12" width="250" height="53">
<rect x="1447" y="12.9385" width="249.711" height="52" fill="#D9D9D9"/>
</mask>
<g mask="url(#mask2_1_63)">
<path fill-rule="evenodd" clip-rule="evenodd" d="M1575.88 68.4139C1569.57 71.4112 1562.07 73.149 1554.02 73.149C1545.67 73.149 1537.92 71.2822 1531.47 68.0811C1526.43 71.24 1519.92 73.1445 1512.81 73.1445C1507.67 73.1445 1502.85 72.1504 1498.66 70.4074C1495.36 72.1372 1491.33 73.1533 1486.97 73.1533C1481.74 73.1533 1476.96 71.6824 1473.36 69.2673C1470.77 71.6368 1466.81 73.151 1462.38 73.151C1454.56 73.151 1448.23 68.454 1448.23 62.6598C1448.23 56.8657 1454.56 52.1686 1462.38 52.1686C1464.33 52.1686 1466.19 52.4616 1467.88 52.9916C1470.63 47.3306 1477.83 43.2456 1486.35 43.055C1490.84 35.5236 1500.99 30.2673 1512.81 30.2673C1514.27 30.2673 1515.7 30.3475 1517.1 30.5022C1523.52 20.1371 1537.63 12.9385 1554.02 12.9385C1570.34 12.9385 1584.42 20.086 1590.86 30.3918C1591.89 30.3095 1592.94 30.2673 1593.99 30.2673C1597.91 30.2673 1601.65 30.8452 1605.05 31.8923C1610.74 28.0503 1618.3 25.7076 1626.59 25.7076C1641.28 25.7076 1653.65 33.0491 1657.41 43.0535C1657.59 43.0499 1657.77 43.048 1657.96 43.048C1666.75 43.048 1674.24 47.1934 1677.06 52.9924C1678.75 52.4619 1680.61 52.1686 1682.56 52.1686C1690.37 52.1686 1696.71 56.8657 1696.71 62.6598C1696.71 68.454 1690.37 73.151 1682.56 73.151C1678.13 73.151 1674.17 71.6363 1671.57 69.2661C1667.97 71.6819 1663.2 73.1533 1657.96 73.1533C1652.68 73.1533 1647.87 71.6567 1644.26 69.204C1639.19 71.6951 1633.12 73.1462 1626.59 73.1462C1620.45 73.1462 1614.71 71.8628 1609.84 69.6378C1605.29 71.8549 1599.85 73.1445 1593.99 73.1445C1587.14 73.1445 1580.84 71.3733 1575.88 68.4139Z" fill="white"/>
</g>
<mask id="mask3_1_63" style="mask-type:alpha" maskUnits="userSpaceOnUse" x="1387" y="11" width="61" height="13">
<rect x="1387" y="11" width="60.2891" height="12.5546" fill="#D9D9D9"/>
</mask>
<g mask="url(#mask3_1_63)">
<path fill-rule="evenodd" clip-rule="evenodd" d="M1418.12 24.394C1416.59 25.1175 1414.78 25.537 1412.84 25.537C1410.82 25.537 1408.95 25.0862 1407.39 24.3133C1406.18 25.076 1404.61 25.5359 1402.89 25.5359C1401.65 25.5359 1400.48 25.2959 1399.47 24.8751C1398.68 25.2928 1397.7 25.5381 1396.65 25.5381C1395.39 25.5381 1394.23 25.1829 1393.37 24.5996C1392.74 25.1719 1391.78 25.5376 1390.71 25.5376C1388.83 25.5376 1387.3 24.4035 1387.3 23.0046C1387.3 21.6057 1388.83 20.4717 1390.71 20.4717C1391.18 20.4717 1391.63 20.5425 1392.04 20.6706C1392.71 19.3037 1394.44 18.3174 1396.5 18.2713C1397.58 16.4529 1400.04 15.1838 1402.89 15.1838C1403.24 15.1838 1403.59 15.2032 1403.93 15.2406C1405.47 12.738 1408.88 11 1412.84 11C1416.78 11 1420.18 12.7256 1421.73 15.2138C1421.98 15.194 1422.23 15.1838 1422.49 15.1838C1423.44 15.1838 1424.34 15.3234 1425.16 15.5762C1426.53 14.6487 1428.36 14.0831 1430.36 14.0831C1433.91 14.0831 1436.89 15.8555 1437.8 18.2709C1437.84 18.27 1437.89 18.2696 1437.93 18.2696C1440.06 18.2696 1441.86 19.2705 1442.54 20.6706C1442.95 20.5425 1443.4 20.4717 1443.87 20.4717C1445.76 20.4717 1447.29 21.6057 1447.29 23.0046C1447.29 24.4035 1445.76 25.5376 1443.87 25.5376C1442.8 25.5376 1441.85 25.1719 1441.22 24.5996C1440.35 25.1829 1439.2 25.5381 1437.93 25.5381C1436.66 25.5381 1435.5 25.1768 1434.62 24.5847C1433.4 25.1861 1431.94 25.5365 1430.36 25.5365C1428.88 25.5365 1427.49 25.2266 1426.32 24.6893C1425.22 25.2246 1423.9 25.5359 1422.49 25.5359C1420.83 25.5359 1419.31 25.1084 1418.12 24.394Z" fill="white"/>
</g>
<mask id="mask4_1_63" style="mask-type:alpha" maskUnits="userSpaceOnUse" x="44" y="11" width="58" height="13">
<rect x="44" y="11" width="57.9787" height="12.0735" fill="#D9D9D9"/>
</mask>
<g mask="url(#mask4_1_63)">
<path fill-rule="evenodd" clip-rule="evenodd" d="M73.924 23.8804C72.4587 24.5764 70.7167 24.9799 68.8476 24.9799C66.9104 24.9799 65.1096 24.5464 63.6121 23.8031C62.443 24.5366 60.9311 24.9788 59.2798 24.9788C58.0869 24.9788 56.9667 24.748 55.9959 24.3433C55.2286 24.7449 54.2923 24.9808 53.2818 24.9808C52.0658 24.9808 50.9575 24.6393 50.1216 24.0786C49.5194 24.6288 48.6001 24.9804 47.5701 24.9804C45.7562 24.9804 44.2856 23.8898 44.2856 22.5445C44.2856 21.1992 45.7562 20.1086 47.5701 20.1086C48.0232 20.1086 48.4549 20.1766 48.8476 20.2997C49.487 18.9853 51.1587 18.0368 53.1369 17.9925C54.178 16.2439 56.5367 15.0234 59.2798 15.0234C59.6186 15.0234 59.9515 15.0421 60.2768 15.078C61.7658 12.6714 65.0436 11 68.8476 11C72.6382 11 75.9061 12.6595 77.4025 15.0523C77.6414 15.0332 77.8842 15.0234 78.1299 15.0234C79.0395 15.0234 79.9067 15.1576 80.6977 15.4007C82.0173 14.5087 83.7723 13.9648 85.6985 13.9648C89.1084 13.9648 91.9815 15.6693 92.8531 17.9922C92.8957 17.9913 92.9384 17.9909 92.9813 17.9909C95.0226 17.9909 96.7607 18.9535 97.4156 20.2999C97.8085 20.1767 98.2404 20.1086 98.6938 20.1086C100.508 20.1086 101.978 21.1992 101.978 22.5445C101.978 23.8898 100.508 24.9804 98.6938 24.9804C97.6636 24.9804 96.7442 24.6286 96.142 24.0782C95.306 24.6392 94.1975 24.9808 92.9813 24.9808C91.7548 24.9808 90.6378 24.6334 89.7994 24.064C88.6243 24.6423 87.2145 24.9792 85.6985 24.9792C84.2727 24.9792 82.9408 24.6812 81.8098 24.1646C80.7531 24.6794 79.4887 24.9788 78.1299 24.9788C76.5376 24.9788 75.0747 24.5675 73.924 23.8804Z" fill="white"/>
</g>
</g>
<defs>
<linearGradient id="paint0_linear_1_63" x1="1600" y1="31.2683" x2="30" y2="31.2689" gradientUnits="userSpaceOnUse">
<stop stop-color="#131414"/>
<stop offset="1" stop-color="#020202"/>
</linearGradient>
<linearGradient id="paint1_linear_1_63" x1="1600" y1="0.339578" x2="-3.6325" y2="58.545" gradientUnits="userSpaceOnUse">
<stop stop-color="#FEFAD9"/>
<stop offset="1" stop-color="#FAD872"/>
</linearGradient>
</defs>
</svg>
