<svg width="484" height="624" viewBox="0 0 484 624" fill="none" xmlns="http://www.w3.org/2000/svg">
<mask id="mask0_91_49" style="mask-type:alpha" maskUnits="userSpaceOnUse" x="0" y="0" width="484" height="624">
<rect width="484" height="624" rx="28.6931" fill="#040404"/>
</mask>
<g mask="url(#mask0_91_49)">
<rect width="484" height="624" rx="28.6931" fill="url(#paint0_linear_91_49)"/>
<path fill-rule="evenodd" clip-rule="evenodd" d="M-88 -3.99988L-88 631.286H371.874C376.14 631.684 379.521 637.171 379.521 643.888C379.521 650.86 375.877 656.513 371.381 656.513H366.155C359.824 656.513 354.69 664.903 354.69 675.256C354.69 685.61 359.824 694 366.155 694L552.983 694L552.983 -3.99988L-88 -3.99988Z" fill="url(#paint1_linear_91_49)"/>
<rect y="-3" width="484" height="627" fill="url(#paint2_radial_91_49)"/>
<rect y="-6.10352e-05" width="484" height="654" fill="url(#paint3_linear_91_49)"/>
<path fill-rule="evenodd" clip-rule="evenodd" d="M-85.9813 1089.18C-104.771 1089.18 -120 599.456 -120 580.672C-120 561.89 -104.771 546.662 -85.9814 546.662L109.249 546.662C115.548 546.416 120.578 541.232 120.578 534.874C120.578 528.376 115.322 523.106 108.827 523.079L49.3034 523.079C38.5699 523.079 29.8681 514.379 29.8681 503.649C29.8681 492.918 38.5699 484.219 49.3034 484.219L552 484L552 1088.8L-85.9813 1089.18Z" fill="#FAFBFD"/>
<path d="M400.818 59.6182C399.956 61.4014 397.811 62.1454 396.028 61.2836C394.245 60.4218 393.501 58.277 394.363 56.4938C395.225 54.7106 397.369 53.9665 399.153 54.8283C400.936 55.6901 401.68 57.835 400.818 59.6182Z" fill="#FFCAC2"/>
<path d="M432.277 82.7751C431.702 83.9639 430.272 84.4599 429.083 83.8854C427.894 83.3108 427.398 81.881 427.973 80.6922C428.548 79.5033 429.977 79.0073 431.166 79.5818C432.355 80.1564 432.851 81.5863 432.277 82.7751Z" fill="#FFCAC2"/>
<path d="M415.886 34.3438C415.311 35.5326 413.881 36.0286 412.693 35.4541C411.504 34.8796 411.008 33.4497 411.582 32.2609C412.157 31.0721 413.587 30.576 414.776 31.1506C415.964 31.7251 416.46 33.155 415.886 34.3438Z" fill="#4F7589"/>
<path d="M351.941 44.5978C351.366 45.7866 349.936 46.2826 348.747 45.7081C347.559 45.1335 347.062 43.7037 347.637 42.5148C348.212 41.326 349.641 40.83 350.83 41.4045C352.019 41.9791 352.515 43.4089 351.941 44.5978Z" fill="#4F7589"/>
<path d="M454.476 70.3412C453.901 71.5301 452.471 72.0261 451.283 71.4515C450.094 70.877 449.598 69.4471 450.172 68.2583C450.747 67.0695 452.177 66.5735 453.365 67.148C454.554 67.7225 455.05 69.1524 454.476 70.3412Z" fill="#FF4E33"/>
<path d="M368.089 23.3462C366.871 29.2761 365.623 35.2914 364.848 41.2958C364.794 41.7099 365.398 41.8268 365.491 41.4146C366.81 35.5074 367.693 29.4242 368.573 23.4366C368.62 23.1239 368.153 23.0363 368.089 23.3462Z" fill="#FFCAC2"/>
<path d="M359.258 31.6794C363.931 32.4107 368.689 33.2348 373.412 33.5468C373.843 33.5734 373.985 32.9562 373.538 32.8666C368.89 31.9579 364.082 31.5391 359.375 31.0492C358.97 31.006 358.844 31.6161 359.258 31.6794Z" fill="#FFCAC2"/>
<path d="M449.826 98.9401C448.986 100.244 448.199 101.574 447.419 102.914C446.743 104.07 445.927 105.202 445.536 106.486C445.456 106.745 445.835 106.889 445.996 106.707C446.884 105.71 447.43 104.397 448.062 103.223C448.795 101.866 449.52 100.504 450.19 99.1146C450.306 98.8753 449.962 98.7255 449.827 98.9372L449.826 98.9401Z" fill="#4F7589"/>
<path d="M445.406 102.238C446.777 103.077 448.287 103.893 449.811 104.413C450.095 104.51 450.438 104.134 450.135 103.923C448.789 102.987 447.22 102.235 445.705 101.614C445.289 101.443 445.027 102.007 445.403 102.237L445.406 102.238Z" fill="#4F7589"/>
<path d="M451.967 129.011C449.996 132.083 447.99 135.42 446.534 138.772C446.413 139.05 446.815 139.359 447.002 139.084C449.063 136.036 450.825 132.542 452.369 129.207C452.493 128.937 452.118 128.775 451.967 129.011Z" fill="#FFCAC2"/>
<path d="M445.48 132.182C448.379 132.911 450.72 134.377 453.157 136.054C453.459 136.261 453.768 135.903 453.528 135.633C451.483 133.332 448.578 132.112 445.607 131.502C445.17 131.413 445.054 132.074 445.48 132.182Z" fill="#FFCAC2"/>
<path d="M73.448 64.2297C74.1816 66.0694 76.2685 66.9632 78.1082 66.2296C79.9479 65.496 80.8417 63.4092 80.1081 61.5695C79.3745 59.7298 77.2876 58.836 75.4479 59.5696C73.6083 60.3032 72.7145 62.39 73.448 64.2297Z" fill="#FFCAC2"/>
<path d="M39.6027 89.8465C40.0918 91.073 41.483 91.6689 42.7095 91.1798C43.9359 90.6907 44.5318 89.2995 44.0427 88.0731C43.5537 86.8466 42.1625 86.2507 40.936 86.7398C39.7095 87.2288 39.1137 88.6201 39.6027 89.8465Z" fill="#FFCAC2"/>
<path d="M77.0168 32.3476C77.5059 33.5741 78.8971 34.17 80.1235 33.6809C81.35 33.1918 81.9459 31.8006 81.4568 30.5741C80.9677 29.3477 79.5765 28.7518 78.3501 29.2409C77.1236 29.7299 76.5277 31.1212 77.0168 32.3476Z" fill="#4F7589"/>
<path d="M140.073 47.0974C140.562 48.3238 141.954 48.9197 143.18 48.4306C144.407 47.9416 145.003 46.5504 144.513 45.3239C144.024 44.0974 142.633 43.5016 141.407 43.9906C140.18 44.4797 139.584 45.8709 140.073 47.0974Z" fill="#4F7589"/>
<path d="M61.3 90.744C61.7891 91.9704 63.1803 92.5663 64.4067 92.0773C65.6332 91.5882 66.2291 90.197 65.74 88.9705C65.251 87.7441 63.8597 87.1482 62.6333 87.6372C61.4068 88.1263 60.8109 89.5175 61.3 90.744Z" fill="#FF4E33"/>
<path d="M32.3974 52.174C33.1934 58.1751 34.0129 64.2636 34.362 70.3078C34.3861 70.7247 33.7757 70.7986 33.7122 70.3809C32.8133 64.3952 32.3627 58.2648 31.9088 52.23C31.8834 51.9147 32.3562 51.8603 32.3974 52.174Z" fill="#FFCAC2"/>
<path d="M40.6173 61.1078C35.9037 61.5068 31.0993 61.9925 26.3667 61.9699C25.9347 61.966 25.8364 61.3403 26.2886 61.2825C30.9895 60.7046 35.8152 60.6268 40.545 60.4709C40.9517 60.4564 41.0344 61.0739 40.6173 61.1078Z" fill="#FFCAC2"/>
<path d="M116.002 35.9747C116.748 37.3343 117.438 38.7172 118.122 40.1089C118.714 41.3101 119.449 42.4968 119.748 43.8047C119.81 44.0695 119.421 44.186 119.274 43.9932C118.458 42.9359 118.007 41.587 117.459 40.372C116.823 38.9657 116.196 37.5565 115.627 36.1231C115.528 35.8762 115.881 35.751 116.001 35.9718L116.002 35.9747Z" fill="#4F7589"/>
<path d="M120.177 39.5767C118.751 40.3167 117.187 41.024 115.63 41.4355C115.34 41.5118 115.024 41.113 115.341 40.9239C116.751 40.0848 118.368 39.4458 119.924 38.9336C120.35 38.7924 120.572 39.3735 120.18 39.5758L120.177 39.5767Z" fill="#4F7589"/>
<path d="M36.2657 121.846C38.014 125.05 39.7789 128.521 40.9949 131.967C41.0959 132.253 40.6733 132.533 40.5062 132.245C38.6657 129.059 37.1546 125.449 35.8505 122.013C35.7454 121.736 36.1312 121.6 36.2657 121.846Z" fill="#FFCAC2"/>
<path d="M42.5113 125.468C39.5686 125.99 37.1291 127.287 34.5795 128.788C34.2646 128.973 33.9812 128.594 34.2395 128.341C36.4418 126.191 39.4262 125.179 42.4332 124.781C42.8755 124.723 42.9442 125.39 42.5113 125.468Z" fill="#FFCAC2"/>
<path d="M93.0218 354.448C93.8836 352.665 96.0284 351.921 97.8116 352.783C99.5948 353.645 100.339 355.79 99.4771 357.573C98.6153 359.356 96.4705 360.1 94.6872 359.238C92.904 358.377 92.1599 356.232 93.0218 354.448Z" fill="#FFCAC2"/>
<path d="M61.5633 331.292C62.1379 330.103 63.5677 329.607 64.7566 330.181C65.9454 330.756 66.4414 332.186 65.8669 333.374C65.2923 334.563 63.8625 335.059 62.6736 334.485C61.4848 333.91 60.9888 332.48 61.5633 331.292Z" fill="#FFCAC2"/>
<path d="M77.954 379.723C78.5285 378.534 79.9584 378.038 81.1472 378.613C82.336 379.187 82.832 380.617 82.2575 381.806C81.683 382.995 80.2531 383.491 79.0643 382.916C77.8755 382.342 77.3794 380.912 77.954 379.723Z" fill="#4F7589"/>
<path d="M141.899 369.469C142.474 368.28 143.904 367.784 145.092 368.359C146.281 368.933 146.777 370.363 146.203 371.552C145.628 372.741 144.198 373.237 143.01 372.662C141.821 372.088 141.325 370.658 141.899 369.469Z" fill="#4F7589"/>
<path d="M39.3641 343.726C39.9387 342.537 41.3685 342.041 42.5573 342.615C43.7462 343.19 44.2422 344.62 43.6677 345.808C43.0931 346.997 41.6632 347.493 40.4744 346.919C39.2856 346.344 38.7896 344.914 39.3641 343.726Z" fill="#FF4E33"/>
<path d="M125.751 390.721C126.969 384.791 128.217 378.775 128.992 372.771C129.046 372.357 128.442 372.24 128.349 372.652C127.029 378.559 126.147 384.643 125.267 390.63C125.22 390.943 125.687 391.03 125.751 390.721Z" fill="#FFCAC2"/>
<path d="M134.582 382.387C129.908 381.656 125.15 380.832 120.428 380.52C119.997 380.493 119.855 381.11 120.301 381.2C124.95 382.109 129.758 382.528 134.465 383.018C134.87 383.061 134.996 382.451 134.582 382.387Z" fill="#FFCAC2"/>
<path d="M44.0141 315.127C44.8538 313.823 45.6406 312.492 46.4208 311.153C47.0965 309.996 47.9131 308.865 48.3037 307.581C48.3843 307.321 48.0051 307.178 47.8443 307.359C46.9561 308.356 46.4101 309.67 45.7781 310.843C45.0444 312.201 44.3193 313.562 43.6502 314.952C43.5341 315.191 43.8774 315.341 44.013 315.129L44.0141 315.127Z" fill="#4F7589"/>
<path d="M48.4336 311.829C47.063 310.99 45.553 310.174 44.0288 309.653C43.7452 309.557 43.4023 309.932 43.7051 310.143C45.0513 311.08 46.6196 311.832 48.135 312.452C48.5504 312.623 48.8125 312.059 48.4365 311.83L48.4336 311.829Z" fill="#4F7589"/>
<path d="M41.8732 285.056C43.8437 281.983 45.8495 278.647 47.3061 275.295C47.4271 275.017 47.0253 274.707 46.8383 274.983C44.7772 278.03 43.0146 281.525 41.471 284.86C41.3464 285.13 41.7217 285.292 41.8732 285.056Z" fill="#FFCAC2"/>
<path d="M48.3597 281.885C45.4612 281.156 43.1195 279.69 40.6824 278.013C40.3813 277.806 40.0718 278.164 40.3116 278.434C42.3564 280.735 45.2618 281.955 48.2331 282.565C48.6702 282.654 48.7859 281.993 48.3597 281.885Z" fill="#FFCAC2"/>
<path d="M420.392 349.837C419.658 347.997 417.571 347.104 415.732 347.837C413.892 348.571 412.998 350.658 413.732 352.497C414.465 354.337 416.552 355.231 418.392 354.497C420.232 353.764 421.125 351.677 420.392 349.837Z" fill="#FFCAC2"/>
<path d="M454.237 324.22C453.748 322.994 452.357 322.398 451.13 322.887C449.904 323.376 449.308 324.767 449.797 325.994C450.286 327.22 451.677 327.816 452.904 327.327C454.13 326.838 454.726 325.447 454.237 324.22Z" fill="#FFCAC2"/>
<path d="M416.823 381.719C416.334 380.493 414.943 379.897 413.716 380.386C412.49 380.875 411.894 382.266 412.383 383.493C412.872 384.719 414.263 385.315 415.49 384.826C416.716 384.337 417.312 382.946 416.823 381.719Z" fill="#4F7589"/>
<path d="M353.766 366.969C353.277 365.743 351.886 365.147 350.66 365.636C349.433 366.125 348.837 367.516 349.326 368.743C349.815 369.969 351.207 370.565 352.433 370.076C353.66 369.587 354.255 368.196 353.766 366.969Z" fill="#4F7589"/>
<path d="M432.54 323.323C432.051 322.096 430.66 321.5 429.433 321.989C428.207 322.479 427.611 323.87 428.1 325.096C428.589 326.323 429.98 326.919 431.207 326.429C432.433 325.94 433.029 324.549 432.54 323.323Z" fill="#FF4E33"/>
<path d="M461.442 361.893C460.646 355.892 459.827 349.803 459.478 343.759C459.454 343.342 460.064 343.268 460.128 343.686C461.026 349.672 461.477 355.802 461.931 361.837C461.956 362.152 461.484 362.207 461.442 361.893Z" fill="#FFCAC2"/>
<path d="M453.223 352.959C457.936 352.56 462.741 352.074 467.473 352.097C467.905 352.101 468.003 352.727 467.551 352.784C462.85 353.362 458.025 353.44 453.295 353.596C452.888 353.61 452.805 352.993 453.223 352.959Z" fill="#FFCAC2"/>
<path d="M377.838 378.092C377.092 376.732 376.401 375.35 375.718 373.958C375.126 372.757 374.391 371.57 374.092 370.262C374.03 369.997 374.418 369.881 374.566 370.074C375.381 371.131 375.833 372.48 376.381 373.695C377.017 375.101 377.644 376.51 378.213 377.944C378.312 378.191 377.959 378.316 377.838 378.095L377.838 378.092Z" fill="#4F7589"/>
<path d="M373.663 374.49C375.089 373.75 376.653 373.043 378.21 372.631C378.5 372.555 378.815 372.954 378.498 373.143C377.089 373.982 375.472 374.621 373.916 375.133C373.49 375.274 373.268 374.693 373.66 374.491L373.663 374.49Z" fill="#4F7589"/>
<path d="M457.574 292.221C455.826 289.016 454.061 285.546 452.845 282.099C452.744 281.814 453.167 281.534 453.334 281.822C455.174 285.007 456.685 288.618 457.989 292.054C458.094 292.331 457.709 292.466 457.574 292.221Z" fill="#FFCAC2"/>
<path d="M451.329 288.599C454.271 288.076 456.711 286.779 459.26 285.279C459.575 285.093 459.859 285.473 459.6 285.725C457.398 287.876 454.414 288.888 451.407 289.286C450.964 289.344 450.896 288.677 451.329 288.599Z" fill="#FFCAC2"/>
</g>
<defs>
<linearGradient id="paint0_linear_91_49" x1="242" y1="0" x2="242" y2="624" gradientUnits="userSpaceOnUse">
<stop stop-color="#040404"/>
<stop offset="1" stop-color="#131515"/>
</linearGradient>
<linearGradient id="paint1_linear_91_49" x1="-23.9429" y1="60.0352" x2="553.794" y2="272.242" gradientUnits="userSpaceOnUse">
<stop stop-color="#A4E7EA"/>
<stop offset="1" stop-color="#DEF3F5"/>
</linearGradient>
<radialGradient id="paint2_radial_91_49" cx="0" cy="0" r="1" gradientUnits="userSpaceOnUse" gradientTransform="translate(150.354 48.9597) rotate(57.5416) scale(545.272 503.135)">
<stop/>
<stop offset="1" stop-color="#322C2E"/>
</radialGradient>
<linearGradient id="paint3_linear_91_49" x1="242" y1="-6.10352e-05" x2="242" y2="654" gradientUnits="userSpaceOnUse">
<stop stop-color="#2C4857"/>
<stop offset="1" stop-color="#36768A"/>
</linearGradient>
</defs>
</svg>
