<svg width="1600" height="55" viewBox="0 0 1600 55" fill="none" xmlns="http://www.w3.org/2000/svg">
<mask id="mask0_5570_2" style="mask-type:alpha" maskUnits="userSpaceOnUse" x="0" y="0" width="1600" height="55">
<rect width="1600" height="55" fill="url(#paint0_linear_5570_2)"/>
</mask>
<g mask="url(#mask0_5570_2)">
<rect width="1600" height="55" fill="url(#paint1_linear_5570_2)"/>
<mask id="mask1_5570_2" style="mask-type:alpha" maskUnits="userSpaceOnUse" x="1296" y="0" width="289" height="55">
<rect x="1296" width="288.556" height="54.6667" fill="#D9D9D9"/>
</mask>
<g mask="url(#mask1_5570_2)">
<path fill-rule="evenodd" clip-rule="evenodd" d="M1565.74 23.126L1582.61 35.7562H1585.99L1576.6 16.5416H1553.35L1549.4 8.44568H1540.42L1531.27 1.58789L1522.11 8.44568H1513.14L1509.19 16.5416H1498.71L1489.93 34.5181H1550.56L1565.74 23.126ZM1519.21 28.0382H1517.32V24.6535H1519.21V28.0382ZM1519.21 24.1551H1517.32V20.7704H1519.21V24.1551ZM1521.6 28.0382H1519.71V24.6535H1521.6V28.0382ZM1521.6 24.1551H1519.71V20.7704H1521.6V24.1551ZM1524.67 28.0382H1522.85V24.6535H1524.67V28.0382ZM1524.67 24.1551H1522.85V20.7704H1524.67V24.1551ZM1527.13 28.0382H1525.16V27.7247V24.6535H1527.12H1527.13V28.0382ZM1527.13 24.1551H1525.16V20.7704H1527.13V24.1551ZM1509.82 20.8267L1509.15 21.3251L1508.78 20.8267L1508.41 20.3282L1531.28 3.20385L1554.15 20.3282L1553.79 20.8267L1553.42 21.3251L1552.75 20.8267L1531.27 4.76354L1509.82 20.8267ZM1537.3 28.0382H1535.41V24.6535H1537.3V28.0382ZM1537.3 24.1551H1535.41V20.7704H1537.3V24.1551ZM1539.68 28.0382H1537.79V24.6535H1539.68V28.0382ZM1539.68 24.1551H1537.79V20.7704H1539.68V24.1551ZM1542.75 28.0382H1540.94V24.6535H1542.75V28.0382ZM1545.22 28.0382H1543.25V24.6535H1545.22V28.0382ZM1545.22 24.1551H1543.25V20.7865H1542.75V24.1631H1540.94V20.7784H1545.22V24.1551ZM1582.31 36.7772L1565.73 24.364L1550.96 35.4507H1492.99V52.1731H1489.34V45.2751C1489.34 44.8088 1488.96 44.4309 1488.5 44.4309H1478.48V38.4494L1454.79 21.2527L1431.04 38.6504V50.5491H1428.03H1428.01H1426.68V37.1792H1413.29V36.1903H1427.23L1429.14 38.8032L1454.78 20.0387L1480.65 38.8112L1483.65 34.6789H1488.84C1488.84 31.5354 1486.29 28.9868 1483.15 28.9868H1480.61V22.9491H1468.47L1454.77 13.0041L1441.18 22.9491H1437.88V19.4197H1432.61V22.9491H1428.28V27.4432H1419.62V23.4958H1414.57V27.4432H1401.81L1389.52 18.5192L1377.33 27.4432H1367.35V34.7593L1364.98 36.4797L1368.02 40.6442L1389.54 24.9027L1411.45 40.805L1410.87 41.609L1389.54 26.1327L1369.2 41.0221V50.5491H1368.15V48.1211L1362.19 42.1637H1358.55V25.7629L1350.3 19.7734L1346.36 16.9113L1342.43 19.7734L1334.26 25.7549V29.3727L1321.58 25.4896L1297.65 32.8699L1299.16 37.7821L1321.58 30.8681L1337.81 35.8366L1337.52 36.7852L1321.59 31.8972L1301.07 38.2243V49.1582H1299.4V54.6493H1367.85V54.6653H1428.02H1428.04H1489.24H1489.36H1585.72V52.1731H1582.33V36.7772H1582.31ZM1317.62 46.5292H1311.79V42.63H1317.62V46.5292ZM1317.62 41.6412H1311.79V41.4964C1311.79 38.5941 1314.13 36.2466 1317.04 36.2466H1317.63V41.6412H1317.62ZM1324.75 46.5292H1318.61V42.63H1324.75V46.5292ZM1324.75 41.6412H1318.61V36.2466H1324.75V41.6412ZM1331.58 46.5292H1325.74V42.63H1331.58V46.5292ZM1331.58 41.6412H1325.74V36.2466H1326.34C1329.23 36.2466 1331.59 38.5941 1331.59 41.4964V41.6412H1331.58ZM1345.87 42.5175H1342.93V38.3288H1345.87V42.5175ZM1345.87 37.34H1342.93V33.1513H1345.87V37.34ZM1345.91 27.5879C1344.6 27.3869 1343.56 26.3659 1343.35 25.0554H1345.91V27.5879ZM1345.91 24.0746H1343.35C1343.56 22.7722 1344.6 21.7431 1345.91 21.5421V24.0746ZM1346.89 21.5502C1348.17 21.7753 1349.18 22.7883 1349.39 24.0746H1346.89V21.5502ZM1346.89 25.0635H1349.39C1349.18 26.3498 1348.17 27.3628 1346.89 27.5799V25.0635ZM1349.8 42.5175H1346.86V38.3288H1349.8V42.5175ZM1349.8 37.34H1346.86V33.1513H1349.8V37.34ZM1367.15 51.4012H1364.28V48.6517H1360.81V45.9102H1358.54V43.1526H1361.77L1367.15 48.5311V51.4012ZM1378.15 47.5664H1375.39V44.5435H1378.15V47.5664ZM1378.15 43.5626H1375.39V43.4018C1375.39 41.7698 1376.58 40.4111 1378.15 40.178V43.5626ZM1381.92 47.5664H1379.14V44.5435H1381.92V47.5664ZM1381.92 43.5626H1379.14V40.178C1379.85 40.2825 1380.48 40.6121 1380.96 41.0945C1381.55 41.6894 1381.92 42.5014 1381.92 43.4018V43.5626ZM1389.01 47.5664H1386.25V43.8521H1389.01V47.5664ZM1389.01 42.8712H1386.25V38.6102H1389.01V42.8712ZM1389.01 37.6214H1386.25V35.7642C1386.25 34.1322 1387.45 32.7735 1389.01 32.5403V37.6214ZM1392.78 47.5664H1390.01V43.8521H1392.78V47.5664ZM1392.78 42.8712H1390.01V38.6102H1392.78V42.8712ZM1392.78 37.6214H1390.01V32.5403C1390.72 32.6448 1391.35 32.9745 1391.83 33.4568C1392.41 34.0518 1392.78 34.8638 1392.78 35.7642V37.6214H1392.78ZM1400.11 47.5664H1397.34V44.5435H1400.11V47.5664ZM1400.11 43.5626H1397.34V43.4018C1397.34 41.7698 1398.54 40.4111 1400.11 40.178V43.5626ZM1403.88 47.5664H1401.11V44.5435H1403.88V47.5664ZM1403.88 43.5626H1401.11V40.178C1401.81 40.2825 1402.44 40.6121 1402.92 41.0945C1403.51 41.6894 1403.88 42.5014 1403.88 43.4018V43.5626ZM1422.7 50.6134H1416.23V39.165H1422.7V50.6134ZM1441.29 46.9955H1437.89V43.2893H1441.29V46.9955ZM1441.29 42.3004H1437.89V42.011C1437.89 40.0252 1439.37 38.3851 1441.29 38.1439V42.3004ZM1445.68 46.9955H1442.28V43.2893H1445.68V46.9955ZM1445.68 42.3004H1442.28V38.1439C1443.15 38.2565 1443.94 38.6585 1444.54 39.2534C1445.25 39.9609 1445.69 40.9337 1445.69 42.011V42.3004H1445.68ZM1454.26 46.9955H1450.86V42.4692H1454.26V46.9955ZM1454.26 41.4723H1450.86V36.1903H1454.26V41.4723ZM1454.26 35.2014H1450.86V32.886C1450.86 30.9002 1452.35 29.2602 1454.26 29.019V35.2014ZM1458.65 46.9955H1455.25V42.4692H1458.65V46.9955ZM1458.65 41.4723H1455.25V36.1903H1458.65V41.4723ZM1458.65 35.2014H1455.25V29.019C1456.13 29.1315 1456.92 29.5335 1457.51 30.1284C1458.22 30.8359 1458.65 31.8087 1458.65 32.886V35.2014ZM1467.51 46.9955H1464.11V43.2893H1467.51V46.9955ZM1467.51 42.3004H1464.11V42.011C1464.11 40.0252 1465.6 38.3851 1467.51 38.1439V42.3004ZM1471.91 46.9955H1468.5V43.2893H1471.91V46.9955ZM1471.9 42.3004H1468.5V38.1439C1469.38 38.2565 1470.17 38.6585 1470.76 39.2534C1471.47 39.9609 1471.9 40.9337 1471.9 42.011V42.3004ZM1488.35 50.5491H1478.48V45.4198H1488.35V50.5491ZM1513.19 52.1731H1496.62V36.5119H1513.19V52.1731ZM1545.28 52.1731H1517.24V36.5119H1545.28V52.1731ZM1556.5 52.1731H1550.12V39.173H1556.5V52.1731ZM1561.77 46.1996H1559.16V43.2089H1561.77V46.1996ZM1561.77 42.7185H1559.16V40.0011H1561.77V42.7185ZM1561.77 39.5026H1559.16V36.5119H1561.77V39.5026ZM1565.09 46.1996H1562.28V43.2089H1565.09V46.1996ZM1565.09 42.7185H1562.28V40.0011H1565.09V42.7185ZM1565.09 39.5026H1562.28V36.5119H1565.09V39.5026ZM1569.05 46.1996H1566.34V43.2089H1569.05V46.1996ZM1569.05 42.7185H1566.34V40.0011H1569.05V42.7185ZM1569.05 39.5026H1566.34V36.5119H1569.05V39.5026ZM1572.25 46.1996H1569.55V43.2089H1572.26V46.1996H1572.25ZM1572.25 42.7185H1569.55V40.0011H1572.26V42.7185H1572.25ZM1572.25 39.5026H1569.55V36.5119H1572.26V39.5026H1572.25ZM1498.83 37.123H1497.37V38.9561H1498.83V37.123ZM1500.1 37.123H1501.56V38.9561H1500.1V37.123ZM1504.28 37.123H1502.81V38.9561H1504.28V37.123ZM1505.54 37.123H1507V38.9561H1505.54V37.123ZM1509.72 37.123H1508.26V38.9561H1509.72V37.123ZM1510.98 37.123H1512.45V38.9561H1510.98V37.123ZM1519.71 37.123H1518.25V38.9561H1519.71V37.123ZM1520.97 37.123H1522.43V38.9561H1520.97V37.123ZM1525.16 37.123H1523.69V38.9561H1525.16V37.123ZM1526.42 37.123H1527.88V38.9561H1526.42V37.123ZM1530.6 37.123H1529.14V38.9561H1530.6V37.123ZM1531.85 37.123H1533.32V38.9561H1531.85V37.123ZM1536.11 37.123H1534.64V38.9561H1536.11V37.123ZM1537.37 37.123H1538.83V38.9561H1537.37V37.123ZM1544.27 37.123H1542.81V38.9561H1544.27V37.123ZM1540.05 37.123H1541.52V38.9561H1540.05V37.123ZM1552.99 39.9531H1550.84V41.7862H1552.99V39.9531ZM1553.63 39.9531H1555.77V41.7862H1553.63V39.9531ZM1552.99 42.4933H1550.84V44.3344H1552.99V42.4933ZM1553.63 42.4933H1555.77V44.3344H1553.63V42.4933ZM1346.34 15.6885L1341.04 19.5635L1332.03 26.1641L1329.11 22.1684L1346.32 9.57031L1363.68 22.1603L1360.77 26.1641L1351.94 19.7565L1346.34 15.6885Z" fill="url(#paint2_linear_5570_2)"/>
</g>
<g opacity="0.3">
<mask id="mask2_5570_2" style="mask-type:alpha" maskUnits="userSpaceOnUse" x="45" y="0" width="289" height="55">
<rect x="45" width="288.556" height="54.6667" fill="#D9D9D9"/>
</mask>
<g mask="url(#mask2_5570_2)">
<path fill-rule="evenodd" clip-rule="evenodd" d="M314.74 23.126L331.607 35.7562H334.992L325.602 16.5416H302.351L298.396 8.44568H289.423L280.266 1.58789L271.109 8.44568H262.137L258.189 16.5416H247.706L238.927 34.5181H299.561L314.74 23.126ZM268.207 28.0382H266.318V24.6535H268.207V28.0382ZM268.207 24.1551H266.318V20.7704H268.207V24.1551ZM270.603 28.0382H268.705V24.6535H270.603V28.0382ZM270.603 24.1551H268.705V20.7704H270.603V24.1551ZM273.666 28.0382H271.849V24.6535H273.666V28.0382ZM273.666 24.1551H271.849V20.7704H273.666V24.1551ZM276.126 28.0382H274.156V27.7247V24.6535H276.118H276.126V28.0382ZM276.126 24.1551H274.156V20.7704H276.126V24.1551ZM258.817 20.8267L258.149 21.3251L257.779 20.8267L257.41 20.3282L280.282 3.20385L303.155 20.3282L302.785 20.8267L302.415 21.3251L301.748 20.8267L280.266 4.76354L258.817 20.8267ZM286.296 28.0382H284.407V24.6535H286.296V28.0382ZM286.296 24.1551H284.407V20.7704H286.296V24.1551ZM288.684 28.0382H286.794V24.6535H288.684V28.0382ZM288.684 24.1551H286.794V20.7704H288.684V24.1551ZM291.755 28.0382H289.938V24.6535H291.755V28.0382ZM294.223 28.0382H292.253V24.6535H294.223V28.0382ZM294.223 24.1551H292.253V20.7865H291.755V24.1631H289.938V20.7784H294.223V24.1551ZM331.311 36.7772L314.733 24.364L299.964 35.4507H241.991V52.1731H238.341V45.2751C238.341 44.8088 237.963 44.4309 237.496 44.4309H227.479V38.4494L203.786 21.2527L180.037 38.6504V50.5491H177.03H177.014H175.68V37.1792H162.286V36.1903H176.227L178.14 38.8032L203.778 20.0387L229.65 38.8112L232.649 34.6789H237.842C237.842 31.5354 235.294 28.9868 232.15 28.9868H229.61V22.9491H217.47L203.77 13.0041L190.183 22.9491H186.879V19.4197H181.613V22.9491H177.28V27.4432H168.621V23.4958H163.572V27.4432H150.813L138.521 18.5192L126.333 27.4432H116.348V34.7593L113.976 36.4797L117.023 40.6442L138.537 24.9027L160.453 40.805L159.874 41.609L138.545 26.1327L118.205 41.0221V50.5491H117.151V48.1211L111.194 42.1637H107.552V25.7629L99.2955 19.7734L95.3561 16.9113L91.4327 19.7734L83.2645 25.7549V29.3727L70.578 25.4896L46.6521 32.8699L48.1635 37.7821L70.578 30.8681L86.81 35.8366L86.5205 36.7852L70.586 31.8972L50.0689 38.2243V49.1582H48.4047V54.6493H116.854V54.6653H177.022H177.039H238.244H238.357H334.719V52.1731H331.327V36.7772H331.311ZM66.6225 46.5292H60.7857V42.63H66.6225V46.5292ZM66.6225 41.6412H60.7857V41.4964C60.7857 38.5941 63.1333 36.2466 66.0356 36.2466H66.6305V41.6412H66.6225ZM73.7456 46.5292H67.6114V42.63H73.7456V46.5292ZM73.7456 41.6412H67.6114V36.2466H73.7456V41.6412ZM80.5793 46.5292H74.7425V42.63H80.5793V46.5292ZM80.5793 41.6412H74.7425V36.2466H75.3374C78.2317 36.2466 80.5873 38.5941 80.5873 41.4964V41.6412H80.5793ZM94.8737 42.5175H91.9312V38.3288H94.8737V42.5175ZM94.8737 37.34H91.9312V33.1513H94.8737V37.34ZM94.9059 27.5879C93.5954 27.3869 92.5583 26.3659 92.3493 25.0554H94.9059V27.5879ZM94.9059 24.0746H92.3493C92.5583 22.7722 93.5954 21.7431 94.9059 21.5421V24.0746ZM95.8947 21.5502C97.173 21.7753 98.178 22.7883 98.387 24.0746H95.8947V21.5502ZM95.8947 25.0635H98.387C98.178 26.3498 97.173 27.3628 95.8947 27.5799V25.0635ZM98.8051 42.5175H95.8626V38.3288H98.8051V42.5175ZM98.8051 37.34H95.8626V33.1513H98.8051V37.34ZM116.147 51.4012H113.276V48.6517H109.811V45.9102H107.536V43.1526H110.768L116.147 48.5311V51.4012ZM127.153 47.5664H124.387V44.5435H127.153V47.5664ZM127.153 43.5626H124.387V43.4018C124.387 41.7698 125.585 40.4111 127.153 40.178V43.5626ZM130.915 47.5664H128.142V44.5435H130.915V47.5664ZM130.915 43.5626H128.142V40.178C128.849 40.2825 129.476 40.6121 129.959 41.0945C130.553 41.6894 130.915 42.5014 130.915 43.4018V43.5626ZM138.014 47.5664H135.249V43.8521H138.014V47.5664ZM138.014 42.8712H135.249V38.6102H138.014V42.8712ZM138.014 37.6214H135.249V35.7642C135.249 34.1322 136.447 32.7735 138.014 32.5403V37.6214ZM141.777 47.5664H139.011V43.8521H141.777V47.5664ZM141.777 42.8712H139.011V38.6102H141.777V42.8712ZM141.777 37.6214H139.011V32.5403C139.719 32.6448 140.346 32.9745 140.828 33.4568C141.415 34.0518 141.785 34.8638 141.785 35.7642V37.6214H141.777ZM149.109 47.5664H146.343V44.5435H149.109V47.5664ZM149.109 43.5626H146.343V43.4018C146.343 41.7698 147.541 40.4111 149.109 40.178V43.5626ZM152.88 47.5664H150.106V44.5435H152.88V47.5664ZM152.88 43.5626H150.106V40.178C150.813 40.2825 151.44 40.6121 151.923 41.0945C152.51 41.6894 152.88 42.5014 152.88 43.4018V43.5626ZM171.7 50.6134H165.228V39.165H171.7V50.6134ZM190.288 46.9955H186.887V43.2893H190.288V46.9955ZM190.288 42.3004H186.887V42.011C186.887 40.0252 188.374 38.3851 190.288 38.1439V42.3004ZM194.677 46.9955H191.277V43.2893H194.677V46.9955ZM194.677 42.3004H191.277V38.1439C192.153 38.2565 192.941 38.6585 193.544 39.2534C194.251 39.9609 194.685 40.9337 194.685 42.011V42.3004H194.677ZM203.264 46.9955H199.863V42.4692H203.264V46.9955ZM203.264 41.4723H199.863V36.1903H203.264V41.4723ZM203.264 35.2014H199.863V32.886C199.863 30.9002 201.35 29.2602 203.264 29.019V35.2014ZM207.653 46.9955H204.253V42.4692H207.653V46.9955ZM207.653 41.4723H204.253V36.1903H207.653V41.4723ZM207.653 35.2014H204.253V29.019C205.129 29.1315 205.917 29.5335 206.512 30.1284C207.219 30.8359 207.653 31.8087 207.653 32.886V35.2014ZM216.513 46.9955H213.112V43.2893H216.513V46.9955ZM216.513 42.3004H213.112V42.011C213.112 40.0252 214.6 38.3851 216.513 38.1439V42.3004ZM220.911 46.9955H217.502V43.2893H220.911V46.9955ZM220.903 42.3004H217.502V38.1439C218.378 38.2565 219.166 38.6585 219.761 39.2534C220.469 39.9609 220.903 40.9337 220.903 42.011V42.3004ZM237.352 50.5491H227.479V45.4198H237.352V50.5491ZM262.194 52.1731H245.624V36.5119H262.194V52.1731ZM294.28 52.1731H266.238V36.5119H294.28V52.1731ZM305.495 52.1731H299.12V39.173H305.495V52.1731ZM310.769 46.1996H308.165V43.2089H310.769V46.1996ZM310.769 42.7185H308.165V40.0011H310.769V42.7185ZM310.769 39.5026H308.165V36.5119H310.769V39.5026ZM314.09 46.1996H311.276V43.2089H314.09V46.1996ZM314.09 42.7185H311.276V40.0011H314.09V42.7185ZM314.09 39.5026H311.276V36.5119H314.09V39.5026ZM318.053 46.1996H315.336V43.2089H318.053V46.1996ZM318.053 42.7185H315.336V40.0011H318.053V42.7185ZM318.053 39.5026H315.336V36.5119H318.053V39.5026ZM321.253 46.1996H318.552V43.2089H321.261V46.1996H321.253ZM321.253 42.7185H318.552V40.0011H321.261V42.7185H321.253ZM321.253 39.5026H318.552V36.5119H321.261V39.5026H321.253ZM247.834 37.123H246.371V38.9561H247.834V37.123ZM249.097 37.123H250.561V38.9561H249.097V37.123ZM253.278 37.123H251.815V38.9561H253.278V37.123ZM254.541 37.123H256.005V38.9561H254.541V37.123ZM258.721 37.123H257.257V38.9561H258.721V37.123ZM259.984 37.123H261.447V38.9561H259.984V37.123ZM268.714 37.123H267.25V38.9561H268.714V37.123ZM269.968 37.123H271.431V38.9561H269.968V37.123ZM274.158 37.123H272.694V38.9561H274.158V37.123ZM275.419 37.123H276.882V38.9561H275.419V37.123ZM279.6 37.123H278.137V38.9561H279.6V37.123ZM280.854 37.123H282.317V38.9561H280.854V37.123ZM285.106 37.123H283.643V38.9561H285.106V37.123ZM286.369 37.123H287.833V38.9561H286.369V37.123ZM293.274 37.123H291.811V38.9561H293.274V37.123ZM289.054 37.123H290.517V38.9561H289.054V37.123ZM301.99 39.9531H299.843V41.7862H301.99V39.9531ZM302.625 39.9531H304.772V41.7862H302.625V39.9531ZM301.99 42.4933H299.843V44.3344H301.99V42.4933ZM302.625 42.4933H304.772V44.3344H302.625V42.4933ZM95.3402 15.6885L90.0421 19.5635L81.0297 26.1641L78.1113 22.1684L95.3241 9.57031L112.682 22.1603L109.771 26.1641L100.936 19.7565L95.3402 15.6885Z" fill="url(#paint3_linear_5570_2)"/>
</g>
</g>
</g>
<defs>
<linearGradient id="paint0_linear_5570_2" x1="0" y1="27.5" x2="1600" y2="27.5" gradientUnits="userSpaceOnUse">
<stop stop-color="#FAD872"/>
<stop offset="1" stop-color="#FEFAD9"/>
</linearGradient>
<linearGradient id="paint1_linear_5570_2" x1="1481.5" y1="27" x2="130.5" y2="27" gradientUnits="userSpaceOnUse">
<stop stop-color="#D7F6EF"/>
<stop offset="1" stop-color="#6EC7B3"/>
</linearGradient>
<linearGradient id="paint2_linear_5570_2" x1="1451.85" y1="13.7277" x2="1451.85" y2="54.6493" gradientUnits="userSpaceOnUse">
<stop stop-color="#9EE4D4"/>
<stop offset="1" stop-color="#DBF7F0"/>
</linearGradient>
<linearGradient id="paint3_linear_5570_2" x1="200.851" y1="13.7277" x2="200.851" y2="54.6493" gradientUnits="userSpaceOnUse">
<stop offset="0.390468" stop-color="white"/>
<stop offset="0.971966" stop-color="#7ECEBC"/>
</linearGradient>
</defs>
</svg>
