<svg width="4010" height="303" viewBox="0 0 4010 303" fill="none" xmlns="http://www.w3.org/2000/svg">
<rect width="4010" height="303" fill="white"/>
<path d="M1814 25.9999C1814 40.3594 1802.36 52 1788 52L0 52.0002L-4.546e-06 -1.63237e-06L1788 -0.000157944C1802.36 -0.0001592 1814 11.6405 1814 25.9999V25.9999Z" fill="#EBFAFB"/>
<path fill-rule="evenodd" clip-rule="evenodd" d="M1772.05 69.7659L1740.23 69.766C1735.43 69.766 1731.55 65.8822 1731.55 61.0912C1731.55 56.3003 1735.43 52.4165 1740.23 52.4165L1772.71 52.4165C1771.86 52.1458 1770.95 51.9998 1770 51.9998L0.000242567 52L0.000244141 70.0002L1770 70C1770.7 70 1771.39 69.919 1772.05 69.7659Z" fill="#EBFAFB"/>
<path d="M2319 112.5C2319 135.972 2299.97 155 2276.5 155L0 155L-7.43095e-06 70L2276.5 69.9998C2299.97 69.9998 2319 89.0277 2319 112.5V112.5Z" fill="#EBFAFB"/>
<path d="M2454 252C2454 280.166 2431.17 303 2403 303L0 303L-8.91714e-06 201L2403 201C2431.17 201 2454 223.833 2454 252V252Z" fill="#EBFAFB"/>
<path fill-rule="evenodd" clip-rule="evenodd" d="M2173.4 200.997L2069.29 200.997C2056.51 200.997 2046.15 190.634 2046.15 177.85C2046.15 166.33 2054.56 156.775 2065.58 155L-4.02146e-06 155L0 201L2173 201C2173.13 201 2173.27 200.999 2173.4 200.997Z" fill="#EBFAFB"/>
</svg>
