<svg width="4010" height="549" viewBox="0 0 4010 549" fill="none" xmlns="http://www.w3.org/2000/svg">
<rect width="4010" height="549" fill="white"/>
<path fill-rule="evenodd" clip-rule="evenodd" d="M2006.5 472C1985.24 472 1968 489.237 1968 510.5C1968 531.763 1985.24 549 2006.5 549L4010 549L4010 471.999L2006.5 472ZM2006.5 76.9997C1985.24 76.9997 1968 59.7626 1968 38.4996C1968 17.2365 1985.24 -0.000524817 2006.5 -0.000522958L4010 -0.000347807L4010 76.9998L4010 103L4010 228L4010 296L1845 296C1844.05 296 1843.11 295.961 1842.17 295.884C1859.16 293.937 1872.35 279.513 1872.35 262.008C1872.35 244.473 1859.11 230.029 1842.09 228.123C1843.01 228.044 1843.94 228.003 1844.88 228L1822.5 228C1787.98 228 1760 200.017 1760 165.5C1760 130.982 1787.98 102.999 1822.5 102.999L2016.93 102.999C2015.76 102.993 2014.62 102.832 2013.55 102.536C2019.41 101.372 2023.82 96.2025 2023.82 90.0009C2023.82 83.7974 2019.4 78.6262 2013.54 77.465C2014.62 77.1674 2015.76 77.0058 2016.93 76.9997L2006.5 76.9997ZM2004.09 91.5649C2004.03 91.0517 2004 90.5294 2004 89.9996C2004 89.4698 2004.03 88.9474 2004.09 88.4342L2004.09 91.5649ZM1705 371C1705 412.421 1738.58 446 1780 446L4010 446L4010 296L1780 296C1738.58 296 1705 329.578 1705 371Z" fill="#EBFAFB"/>
</svg>
