<svg width="4010" height="346" viewBox="0 0 4010 346" fill="none" xmlns="http://www.w3.org/2000/svg">
<rect y="1.00049" width="4010" height="345" fill="white"/>
<path fill-rule="evenodd" clip-rule="evenodd" d="M1948 298C1934.75 298 1924 308.745 1924 322C1924 335.255 1934.75 346.001 1948 346.001L4010 346L4010 298L1948 298ZM1948 48.9828C1934.75 48.9828 1924 38.2376 1924 24.9827C1924 11.7278 1934.75 0.98259 1948 0.982591L4010 0.982771L4010 48.983L4010 65.983L4010 143.983L4010 186.983L4010 280.983L1806 280.983C1780.04 280.983 1759 259.94 1759 233.983C1759 208.025 1780.04 186.983 1806 186.983L1847.41 186.983C1846.76 186.98 1846.11 186.948 1845.47 186.888C1856.01 185.545 1864.16 176.541 1864.16 165.633C1864.16 154.26 1855.31 144.957 1844.11 144.248C1845.18 144.079 1846.28 143.988 1847.39 143.983L1833 143.983C1811.46 143.983 1794 126.522 1794 104.983C1794 83.4435 1811.46 65.9826 1833 65.9826L1955.45 65.9826C1954.45 65.9767 1953.48 65.7972 1952.59 65.4726C1956.43 64.8648 1959.36 61.5452 1959.36 57.5412C1959.36 53.4598 1956.31 50.0895 1952.37 49.5775C1953.32 49.2001 1954.36 48.9898 1955.44 48.9828L1948 48.9828Z" fill="#EBFAFB"/>
</svg>
