<svg width="4465" height="173" viewBox="0 0 4465 173" fill="none" xmlns="http://www.w3.org/2000/svg">
<mask id="mask0_264_2245" style="mask-type:alpha" maskUnits="userSpaceOnUse" x="0" y="0" width="4465" height="173">
<path d="M4464.27 0.412354H0V173H4464.27V0.412354Z" fill="url(#paint0_linear_264_2245)"/>
</mask>
<g mask="url(#mask0_264_2245)">
<path d="M4464.27 0.412354H0V173H4464.27V0.412354Z" fill="url(#paint1_linear_264_2245)"/>
<g opacity="0.46">
<path fill-rule="evenodd" clip-rule="evenodd" d="M646.957 45.3947C646.957 20.5517 626.818 0.412349 601.975 0.41235L-23.0111 0.412323L-23.0111 90.3771L-12.9443 90.3771L-12.9443 121.578L480.864 121.578C480.933 121.578 481.002 121.577 481.07 121.576C481.112 121.576 481.154 121.575 481.195 121.574L470.727 121.574C462.108 121.574 455.121 114.587 455.121 105.968C455.121 97.5822 461.735 90.7412 470.031 90.3771L601.975 90.3771C626.818 90.3771 646.957 70.2378 646.957 45.3947ZM545.14 147.295C545.14 133.099 533.632 121.591 519.436 121.591L-12.9492 121.591L-12.9492 172.999L519.436 172.999C533.632 172.999 545.14 161.491 545.14 147.295Z" fill="#9EE4D4"/>
<path fill-rule="evenodd" clip-rule="evenodd" d="M3819.94 45.3947C3819.94 20.5516 3840.08 0.412288 3864.92 0.412289L4489.91 0.412262L4489.91 90.377L4479.84 90.377L4479.84 121.578L3986.03 121.578C3985.92 121.578 3985.81 121.576 3985.7 121.574L3996.17 121.574C4004.79 121.574 4011.77 114.587 4011.77 105.968C4011.77 97.5822 4005.16 90.7412 3996.86 90.3771L3864.92 90.3771C3840.08 90.3771 3819.94 70.2378 3819.94 45.3947ZM3921.75 147.295C3921.75 133.099 3933.26 121.591 3947.46 121.591L4479.84 121.591L4479.84 172.999L3947.46 172.999C3933.26 172.999 3921.75 161.491 3921.75 147.295Z" fill="#6EC7B3"/>
</g>
</g>
<defs>
<linearGradient id="paint0_linear_264_2245" x1="4464.27" y1="86.7052" x2="83.7051" y2="86.7068" gradientUnits="userSpaceOnUse">
<stop stop-color="#131414"/>
<stop offset="1" stop-color="#020202"/>
</linearGradient>
<linearGradient id="paint1_linear_264_2245" x1="4464.27" y1="0.408888" x2="-10.1353" y2="162.812" gradientUnits="userSpaceOnUse">
<stop stop-color="#9EE4D4"/>
<stop offset="1" stop-color="#6EC7B3"/>
</linearGradient>
</defs>
</svg>
