<svg width="4010" height="611" viewBox="0 0 4010 611" fill="none" xmlns="http://www.w3.org/2000/svg">
<rect y="0.000488281" width="4010" height="611" fill="white"/>
<path fill-rule="evenodd" clip-rule="evenodd" d="M2031 86.0005C2054.75 86.0005 2074 66.7486 2074 43.0002C2074 19.2518 2054.75 -5.05964e-05 2031 -4.4368e-05L0 0.000488299L7.51843e-06 86.001L2031 86.0005ZM2031 525C2054.75 525 2074 544.252 2074 568C2074 591.749 2054.75 611 2031 611L5.34153e-05 611L4.5897e-05 525.001L2031 525ZM2047.95 509.279C2047.98 509.682 2048 510.089 2048 510.5C2048 510.912 2047.98 511.319 2047.95 511.722L2047.95 509.279ZM2397.5 357.001C2435.88 357.001 2467 388.117 2467 426.5C2467 464.884 2435.88 496 2397.5 496L4.33617e-05 496L3.121e-05 357.001L2397.5 357.001ZM2033.5 496.001C2034.73 496.001 2035.92 496.153 2037.06 496.44L2024.81 496.44C2016.96 496.44 2010.6 502.804 2010.6 510.653C2010.6 518.502 2016.96 524.866 2024.81 524.866L2035.48 524.866C2034.84 524.954 2034.17 525 2033.5 525L-0.000442384 525.001L-0.00044492 496.001L2033.5 496.001ZM2572 197.5C2572 151.385 2534.62 114 2488.5 114L9.96624e-06 114.001L2.45658e-05 281L2488.5 281C2534.62 281 2572 243.616 2572 197.5ZM2293.1 281.433L2338.76 281.433C2336.88 281.148 2334.96 281.001 2333 281.001L0.00148941 281.001L0.00149605 357.001L2288.49 357C2269.72 354.724 2255.18 338.738 2255.18 319.356C2255.18 298.412 2272.16 281.433 2293.1 281.433Z" fill="#EBFAFB"/>
</svg>
