<svg width="4010" height="507" viewBox="0 0 4010 507" fill="none" xmlns="http://www.w3.org/2000/svg">
<rect width="4010" height="507" fill="white"/>
<path fill-rule="evenodd" clip-rule="evenodd" d="M2805 0H0V172V173V243V244V340H2730.5C2757.29 340 2779 318.286 2779 291.5C2779 264.714 2757.29 243 2730.5 243H2665.25C2649.05 239.583 2636.9 225.209 2636.9 207.996C2636.9 190.795 2649.04 176.43 2665.21 173H2734C2773.21 173 2805 141.212 2805 102V0ZM0 359V507H2634C2674.87 507 2708 473.869 2708 433C2708 392.131 2674.87 359 2634 359L2615.91 359C2610.86 358.777 2606.84 354.615 2606.84 349.512C2606.84 344.266 2611.09 340.014 2616.33 340.014H2643.02C2642.85 340.005 2642.68 340 2642.5 340H0V359Z" fill="url(#paint0_linear_2005_10875)"/>
<mask id="mask0_2005_10875" style="mask-type:alpha" maskUnits="userSpaceOnUse" x="0" y="0" width="2805" height="507">
<path fill-rule="evenodd" clip-rule="evenodd" d="M2805 0H1205V172.221H0V243V243.769V340H1205V358.951H2615.29C2610.54 358.432 2606.84 354.403 2606.84 349.509C2606.84 344.264 2611.09 340.012 2616.33 340.012H2643.76L2643.67 340H2730.5C2757.29 340 2779 318.286 2779 291.5C2779 264.714 2757.29 243 2730.5 243H2620.62C2604.42 239.583 2592.27 225.209 2592.27 207.996C2592.27 191.518 2603.41 177.642 2618.57 173.49H2734C2773.21 173.49 2805 141.702 2805 102.49V0ZM2634 359H0V507H2634C2674.87 507 2708 473.869 2708 433C2708 392.131 2674.87 359 2634 359Z" fill="url(#paint1_linear_2005_10875)"/>
</mask>
<g mask="url(#mask0_2005_10875)">
<path d="M1863.05 66.8679L1860.02 66.9947L1858.41 69.4718L1857.35 66.7314L1854.41 66.0292L1856.78 64.2055L1856.58 61.2993L1859.1 62.9085L1861.92 61.8162L1861.11 64.6346L1863.05 66.8679Z" fill="white"/>
<path d="M2210.55 124.487L2207.85 124.604L2206.43 126.798L2205.48 124.37L2202.87 123.736L2204.98 122.127L2204.8 119.533L2207.04 120.966L2209.53 120.001L2208.82 122.497L2210.55 124.487Z" fill="white"/>
<path d="M1864.24 153.236L1863.25 153.275L1862.72 154.094L1862.37 153.197L1861.4 152.963L1862.19 152.358L1862.12 151.402L1862.95 151.929L1863.88 151.568L1863.61 152.495L1864.24 153.236Z" fill="white"/>
<path d="M2330.53 125.521L2328.97 125.589L2328.15 126.857L2327.61 125.453L2326.1 125.092L2327.32 124.156L2327.21 122.664L2328.51 123.493L2329.95 122.937L2329.53 124.37L2330.53 125.521Z" fill="white"/>
<path d="M2015.73 85.5303L2014.17 85.5986L2013.35 86.8664L2012.81 85.462L2011.3 85.1012L2012.51 84.165L2012.41 82.6729L2013.71 83.5018L2015.14 82.9459L2014.73 84.3795L2015.73 85.5303Z" fill="white"/>
<path d="M1937.54 98.6362L1935.87 98.7142L1934.98 100.08L1934.39 98.5679L1932.76 98.1681L1934.07 97.1636L1933.95 95.5544L1935.35 96.4517L1936.91 95.847L1936.46 97.3976L1937.54 98.6362Z" fill="white"/>
<path d="M1230.7 88.1695L1227.75 88.7839L1226.58 91.4853L1225.06 88.9594L1222.05 88.7351L1224.07 86.5604L1223.35 83.7224L1226.13 84.9025L1228.71 83.3713L1228.4 86.2775L1230.7 88.1695Z" fill="white"/>
<path d="M1583.32 88.8409L1580.69 89.3773L1579.67 91.7763L1578.31 89.5333L1575.63 89.3382L1577.43 87.4073L1576.79 84.8814L1579.25 85.9347L1581.55 84.5791L1581.28 87.1537L1583.32 88.8409Z" fill="white"/>
<path d="M1246.94 173.124L1245.96 173.319L1245.57 174.217L1245.07 173.378L1244.08 173.31L1244.74 172.588L1244.51 171.652L1245.42 172.042L1246.27 171.544L1246.17 172.5L1246.94 173.124Z" fill="white"/>
<path d="M1701.79 70.4808L1700.27 70.7928L1699.67 72.1777L1698.89 70.8806L1697.34 70.7636L1698.39 69.6518L1698.01 68.1987L1699.44 68.8034L1700.77 68.0134L1700.6 69.5055L1701.79 70.4808Z" fill="white"/>
<path d="M2769.1 274.135L2766.47 274.671L2765.45 277.07L2764.09 274.827L2761.41 274.632L2763.21 272.701L2762.57 270.175L2765.03 271.228L2767.33 269.873L2767.06 272.447L2769.1 274.135Z" fill="white"/>
<path d="M2809 118.315L2806.37 118.861L2805.35 121.251L2803.99 119.008L2801.3 118.813L2803.11 116.882L2802.47 114.356L2804.93 115.409L2807.23 114.053L2806.96 116.628L2809 118.315Z" fill="white"/>
<path d="M2500.9 218.699L2499.38 219.011L2498.78 220.396L2498 219.099L2496.45 218.982L2497.5 217.87L2497.13 216.417L2498.55 217.021L2499.88 216.231L2499.71 217.724L2500.9 218.699Z" fill="white"/>
<path d="M2691.12 139.723L2689.6 140.035L2689 141.42L2688.22 140.123L2686.68 140.006L2687.72 138.894L2687.34 137.441L2688.77 138.046L2690.1 137.256L2689.94 138.748L2691.12 139.723Z" fill="white"/>
<path d="M2511.88 95.8355L2510.36 96.1476L2509.77 97.5324L2508.99 96.2354L2507.44 96.1183L2508.48 95.0066L2508.11 93.5535L2509.53 94.1581L2510.86 93.3682L2510.7 94.8603L2511.88 95.8355Z" fill="white"/>
<path d="M2666.21 38.9986L2663.58 39.5447L2662.56 41.9438L2661.2 39.7008L2658.52 39.496L2660.32 37.565L2659.68 35.0489L2662.14 36.0924L2664.44 34.7368L2664.17 37.3212L2666.21 38.9986Z" fill="white"/>
<path d="M2629.58 207.822L2628.4 208.066L2627.95 209.139L2627.34 208.134L2626.13 208.046L2626.94 207.178L2626.66 206.047L2627.75 206.525L2628.79 205.911L2628.66 207.071L2629.58 207.822Z" fill="white"/>
<path fill-rule="evenodd" clip-rule="evenodd" d="M2266.06 240.677C2247.25 240.677 2232 255.929 2232 274.742C2232 293.556 2247.25 308.808 2266.06 308.808H2282.95V308.819H2287.18C2292.59 308.819 2296.97 313.2 2296.97 318.604C2296.97 324.008 2292.59 328.388 2287.18 328.388H2276.4C2276.14 328.388 2275.88 328.378 2275.62 328.357C2269.42 329.217 2264.64 334.54 2264.64 340.979C2264.64 348.017 2270.35 353.722 2277.39 353.722L3053 353.722L3053 328.236H3053L3053 308.807H3053L3053 240.677L2266.06 240.677ZM3053 353.722L2608.79 353.723V353.725H2611.34C2616.56 353.725 2620.8 357.962 2620.8 363.188C2620.8 368.34 2616.68 372.53 2611.56 372.648L3053 372.648L3053 353.722ZM2611.4 372.65L3053 372.65L3053 396.622L2580.5 396.622C2573.88 396.622 2568.51 391.256 2568.51 384.636C2568.51 378.016 2573.88 372.65 2580.5 372.65L2599.94 372.65C2599.96 372.65 2599.98 372.65 2600 372.65H2611.34C2611.36 372.65 2611.38 372.65 2611.4 372.65Z" fill="#9EE4D4"/>
<path fill-rule="evenodd" clip-rule="evenodd" d="M1458.5 179C1475.9 179 1490 193.103 1490 210.5C1490 227.897 1475.9 242 1458.5 242L1442 242V242.306H1438.45C1433.4 242.306 1429.3 246.399 1429.3 251.447C1429.3 256.496 1433.4 260.588 1438.45 260.588H1448.52C1449.28 260.588 1450.03 260.494 1450.74 260.315C1456.05 261.556 1460 266.316 1460 272C1460 278.627 1454.63 284 1448 284L5.28766e-06 284L8.54162e-06 260L0 242L8.54162e-06 242V179L1458.5 179Z" fill="#9EE4D4"/>
</g>
<defs>
<linearGradient id="paint0_linear_2005_10875" x1="2005" y1="0" x2="2005" y2="427.788" gradientUnits="userSpaceOnUse">
<stop stop-color="#6EC7B3"/>
<stop offset="1" stop-color="#9EE4D4"/>
</linearGradient>
<linearGradient id="paint1_linear_2005_10875" x1="2005" y1="0" x2="2005" y2="427.788" gradientUnits="userSpaceOnUse">
<stop stop-color="#6EC7B3"/>
<stop offset="1" stop-color="#9EE4D4"/>
</linearGradient>
</defs>
</svg>
