<svg width="4012" height="567" viewBox="0 0 4012 567" fill="none" xmlns="http://www.w3.org/2000/svg">
<rect y="1" width="4012" height="565" fill="white"/>
<mask id="mask0_2858_6" style="mask-type:alpha" maskUnits="userSpaceOnUse" x="1210" y="0" width="2802" height="567">
<rect x="4012" y="567" width="2802" height="567" transform="rotate(180 4012 567)" fill="#D9D9D9"/>
</mask>
<g mask="url(#mask0_2858_6)">
<path fill-rule="evenodd" clip-rule="evenodd" d="M1771.48 -31.3635C1744.43 -31.3635 1722.5 -53.2907 1722.5 -80.3392C1722.5 -107.388 1744.43 -129.315 1771.48 -129.315L2376.8 -129.315L2376.8 -31.3634L1771.48 -31.3635ZM1640.5 470C1613.71 470 1592 491.714 1592 518.5C1592 545.286 1613.71 567 1640.5 567L4012 567L4012 470L4012 437L4012 278L4012 192L4012 1.99953L1306 1.99979C1253.53 1.9998 1211 44.5328 1211 96.9999C1211 149.467 1253.53 192 1306 192L1496.88 192C1519.09 193.835 1536.54 212.443 1536.54 235.127C1536.54 257.015 1520.29 275.107 1499.2 278L1398.5 278C1354.59 278 1319 313.593 1319 357.5C1319 401.407 1354.59 437 1398.5 437L1730.5 437C1729.61 437 1728.75 437.07 1727.9 437.204L1785.78 437.204C1794.74 437.204 1802 444.465 1802 453.423C1802 462.38 1794.74 469.642 1785.78 469.642L1727.06 469.642C1728.13 469.869 1729.24 469.992 1730.38 470L1640.5 470Z" fill="url(#paint0_linear_2858_6)"/>
<path d="M1915.21 40.7907L1912.37 40.9297L1910.86 43.645L1909.86 40.641L1907.11 39.8713L1909.33 37.8722L1909.14 34.6865L1911.51 36.4504L1914.15 35.2531L1913.39 38.3426L1915.21 40.7907Z" fill="white"/>
<path d="M2241.34 103.95L2238.81 104.078L2237.47 106.483L2236.59 103.821L2234.13 103.127L2236.11 101.363L2235.94 98.519L2238.05 100.091L2240.39 99.0322L2239.71 101.769L2241.34 103.95Z" fill="white"/>
<path d="M1916.33 135.465L1915.4 135.508L1914.91 136.406L1914.57 135.422L1913.66 135.166L1914.4 134.503L1914.34 133.455L1915.12 134.032L1915.99 133.637L1915.73 134.652L1916.33 135.465Z" fill="white"/>
<path d="M2353.95 105.083L2352.49 105.158L2351.72 106.548L2351.2 105.009L2349.79 104.613L2350.94 103.587L2350.83 101.951L2352.05 102.86L2353.4 102.25L2353.01 103.822L2353.95 105.083Z" fill="white"/>
<path d="M2058.51 61.247L2057.04 61.3218L2056.27 62.7116L2055.76 61.1722L2054.34 60.7766L2055.48 59.7504L2055.39 58.1147L2056.61 59.0234L2057.96 58.4141L2057.57 59.9855L2058.51 61.247Z" fill="white"/>
<path d="M1985.11 75.6125L1983.55 75.698L1982.71 77.1947L1982.16 75.5377L1980.63 75.0994L1981.86 73.9983L1981.75 72.2344L1983.06 73.2179L1984.53 72.5551L1984.11 74.2548L1985.11 75.6125Z" fill="white"/>
<path d="M1321.75 64.141L1318.98 64.8145L1317.88 67.7757L1316.46 65.0069L1313.62 64.761L1315.53 62.3771L1314.85 59.2662L1317.45 60.5597L1319.88 58.8813L1319.58 62.0671L1321.75 64.141Z" fill="white"/>
<path d="M1652.69 64.8762L1650.21 65.4642L1649.25 68.094L1647.98 65.6353L1645.46 65.4214L1647.15 63.3048L1646.56 60.536L1648.87 61.6905L1651.02 60.2046L1650.77 63.0268L1652.69 64.8762Z" fill="white"/>
<path d="M1336.98 157.266L1336.06 157.48L1335.7 158.464L1335.23 157.544L1334.3 157.47L1334.92 156.679L1334.7 155.652L1335.56 156.08L1336.36 155.535L1336.26 156.582L1336.98 157.266Z" fill="white"/>
<path d="M1763.87 44.752L1762.45 45.0941L1761.89 46.6121L1761.15 45.1903L1759.7 45.062L1760.68 43.8433L1760.33 42.2505L1761.67 42.9133L1762.91 42.0474L1762.76 43.683L1763.87 44.752Z" fill="white"/>
<path d="M1305.22 248.635L1302.75 249.233L1301.79 251.863L1300.52 249.404L1298 249.18L1299.69 247.063L1299.09 244.305L1301.4 245.449L1303.56 243.963L1303.3 246.796L1305.22 248.635Z" fill="white"/>
<path d="M2765.55 267.992L2763.08 268.58L2762.12 271.21L2760.85 268.751L2758.33 268.538L2760.02 266.421L2759.42 263.652L2761.73 264.807L2763.89 263.321L2763.63 266.143L2765.55 267.992Z" fill="white"/>
<path d="M2803 97.1848L2800.53 97.7835L2799.57 100.403L2798.3 97.9439L2795.78 97.73L2797.47 95.6134L2796.87 92.8446L2799.18 93.9991L2801.34 92.5132L2801.08 95.3354L2803 97.1848Z" fill="white"/>
<path d="M2513.84 207.224L2512.42 207.566L2511.86 209.084L2511.12 207.662L2509.67 207.534L2510.65 206.315L2510.31 204.722L2511.64 205.385L2512.88 204.519L2512.73 206.155L2513.84 207.224Z" fill="white"/>
<path d="M2692.37 120.653L2690.94 120.995L2690.38 122.513L2689.65 121.092L2688.2 120.963L2689.17 119.745L2688.82 118.152L2690.16 118.815L2691.41 117.949L2691.26 119.584L2692.37 120.653Z" fill="white"/>
<path d="M2726.43 21.7508L2723.96 22.3494L2723 24.9792L2721.73 22.5205L2719.21 22.296L2720.9 20.1793L2720.3 17.4212L2722.61 18.5651L2724.77 17.0791L2724.51 19.912L2726.43 21.7508Z" fill="white"/>
<path d="M2634.6 195.299L2633.5 195.567L2633.07 196.743L2632.5 195.641L2631.37 195.545L2632.13 194.594L2631.87 193.354L2632.89 193.878L2633.86 193.204L2633.75 194.476L2634.6 195.299Z" fill="white"/>
</g>
<defs>
<linearGradient id="paint0_linear_2858_6" x1="214.746" y1="294.206" x2="414.055" y2="-458.789" gradientUnits="userSpaceOnUse">
<stop offset="0.528" stop-color="#36768A"/>
<stop offset="1" stop-color="#2C4857"/>
</linearGradient>
</defs>
</svg>
