<svg width="4010" height="350" viewBox="0 0 4010 350" fill="none" xmlns="http://www.w3.org/2000/svg">
<mask id="mask0_4773_136" style="mask-type:alpha" maskUnits="userSpaceOnUse" x="0" y="0" width="4010" height="350">
<rect width="4010" height="350" fill="#D9D9D9"/>
</mask>
<g mask="url(#mask0_4773_136)">
<mask id="mask1_4773_136" style="mask-type:alpha" maskUnits="userSpaceOnUse" x="-319" y="0" width="2190" height="350">
<path fill-rule="evenodd" clip-rule="evenodd" d="M1871 273.5C1871 315.75 1836.75 350 1794.5 350L-35 350L-35 216H-73L-73 134H-57V97.0001H-108V54L-319 54.0001L-319 0L1493 -0.00012207C1507.91 -0.00012207 1520 12.0882 1520 26.9999C1520 41.9117 1507.91 54 1493 53.9999V95.9999L1781.5 95.9999C1797.24 95.9999 1810 108.76 1810 124.5C1810 140.24 1797.24 153 1781.5 153H1776V197H1794.5C1836.75 197 1871 231.25 1871 273.5Z" fill="url(#paint0_linear_4773_136)"/>
</mask>
<g mask="url(#mask1_4773_136)">
<path fill-rule="evenodd" clip-rule="evenodd" d="M2048 273.5C2048 315.75 2013.75 350 1971.5 350L-241 350L-241 197L-57 197V153H-92V95.9999L-111 96V53.0005H-325L-325 0.000427246L1395.5 0.000305176C1410.14 0.000305176 1422 11.8648 1422 26.5004C1422 41.136 1410.14 53.0004 1395.5 53.0004L1348 52.9998V95.9999L1958.5 95.9998C1974.24 95.9998 1987 108.76 1987 124.5C1987 140.24 1974.24 153 1958.5 153H1953V197H1971.5C2013.75 197 2048 231.25 2048 273.5Z" fill="url(#paint1_linear_4773_136)"/>
<path d="M-173 -19L2056 -18.9998L2056 264C2056 319.229 2011.23 364 1956 364L-173 364L-173 -19Z" fill="url(#paint2_linear_4773_136)"/>
</g>
<rect width="57" height="44" rx="22" transform="matrix(-1 -6.81558e-08 -1.12136e-07 1 1807 153)" fill="white"/>
<rect width="56" height="42" rx="21" transform="matrix(-1 -6.81558e-08 -1.12136e-07 1 1515 54)" fill="white"/>
</g>
<defs>
<linearGradient id="paint0_linear_4773_136" x1="1623.89" y1="195.277" x2="1365.22" y2="447.655" gradientUnits="userSpaceOnUse">
<stop stop-color="#00506E"/>
<stop offset="1" stop-color="#36768A"/>
</linearGradient>
<linearGradient id="paint1_linear_4773_136" x1="1645.35" y1="45.4409" x2="1358.04" y2="404.324" gradientUnits="userSpaceOnUse">
<stop stop-color="#CAF1F3"/>
<stop offset="1" stop-color="#CAF1F3"/>
</linearGradient>
<linearGradient id="paint2_linear_4773_136" x1="941.5" y1="-18.9999" x2="896.43" y2="574.657" gradientUnits="userSpaceOnUse">
<stop stop-color="#EDFFF1"/>
<stop offset="1" stop-color="#9EE4D4"/>
</linearGradient>
</defs>
</svg>
