<svg width="4012" height="579" viewBox="0 0 4012 579" fill="none" xmlns="http://www.w3.org/2000/svg">
<rect y="1" width="4012" height="578" fill="white"/>
<path opacity="0.76" fill-rule="evenodd" clip-rule="evenodd" d="M4012 579H1450.5C1376.22 579 1316 518.782 1316 444.5C1316 370.217 1376.22 310 1450.5 310H4012V579ZM4012 309.979H1384L1383.8 309.979H1448C1471.2 309.979 1490 291.175 1490 267.979C1490 244.857 1471.32 226.1 1448.22 225.979H1339C1292.61 225.979 1255 188.371 1255 141.979V130.979C1255 84.5876 1292.61 46.9795 1339 46.9795H2536.05C2538.81 45.6118 2540.71 42.7652 2540.71 39.4753C2540.71 36.1921 2538.82 33.3505 2536.07 31.9795H2451.5C2442.94 31.9795 2436 25.0399 2436 16.4795C2436 7.91907 2442.94 0.979492 2451.5 0.979492H4012V30.9796V31.9795V46.9795V47.9796V223.979V225.979V309.979Z" fill="url(#paint0_linear_2858_4)"/>
<mask id="mask0_2858_4" style="mask-type:alpha" maskUnits="userSpaceOnUse" x="2339" y="360" width="91" height="20">
<rect width="89.7503" height="18.6897" transform="matrix(-1 -8.74228e-08 -8.74228e-08 1 2429.75 360.979)" fill="#D9D9D9"/>
</mask>
<g mask="url(#mask0_2858_4)">
<path fill-rule="evenodd" clip-rule="evenodd" d="M2383.42 380.917C2385.69 381.995 2388.38 382.619 2391.28 382.619C2394.28 382.619 2397.07 381.948 2399.39 380.796C2401.2 381.932 2403.54 382.616 2406.09 382.616C2407.94 382.616 2409.67 382.26 2411.17 381.635C2412.36 382.257 2413.81 382.623 2415.37 382.623C2417.26 382.623 2418.97 382.094 2420.27 381.225C2421.2 382.077 2422.62 382.622 2424.22 382.622C2427.03 382.622 2429.3 380.934 2429.3 378.851C2429.3 376.769 2427.03 375.08 2424.22 375.08C2423.52 375.08 2422.85 375.186 2422.24 375.377C2421.25 373.343 2418.66 371.876 2415.6 371.806C2413.99 369.096 2410.34 367.205 2406.09 367.205C2405.57 367.205 2405.05 367.234 2404.55 367.29C2402.24 363.565 2397.17 360.979 2391.28 360.979C2385.41 360.979 2380.35 363.547 2378.04 367.25C2377.67 367.22 2377.29 367.205 2376.91 367.205C2375.5 367.205 2374.16 367.413 2372.93 367.79C2370.89 366.41 2368.18 365.569 2365.2 365.569C2359.92 365.569 2355.47 368.208 2354.12 371.805C2354.05 371.804 2353.99 371.803 2353.92 371.803C2350.76 371.803 2348.07 373.292 2347.06 375.376C2346.45 375.186 2345.78 375.08 2345.08 375.08C2342.27 375.08 2339.99 376.769 2339.99 378.851C2339.99 380.934 2342.27 382.622 2345.08 382.622C2346.67 382.622 2348.1 382.078 2349.03 381.227C2350.32 382.095 2352.04 382.623 2353.92 382.623C2355.82 382.623 2357.55 382.085 2358.85 381.202C2360.67 382.097 2362.85 382.619 2365.2 382.619C2367.4 382.619 2369.47 382.157 2371.22 381.357C2372.85 382.153 2374.81 382.616 2376.91 382.616C2379.37 382.616 2381.64 381.98 2383.42 380.917Z" fill="white"/>
</g>
<mask id="mask1_2858_4" style="mask-type:alpha" maskUnits="userSpaceOnUse" x="1565" y="62" width="144" height="31">
<rect x="1565" y="62.979" width="143.044" height="29.7876" fill="#D9D9D9"/>
</mask>
<g mask="url(#mask1_2858_4)">
<path fill-rule="evenodd" clip-rule="evenodd" d="M1638.83 94.7571C1635.21 96.4741 1630.92 97.4695 1626.3 97.4695C1621.52 97.4695 1617.08 96.4001 1613.39 94.5662C1610.5 96.3761 1606.77 97.4673 1602.7 97.4673C1599.75 97.4673 1596.99 96.8979 1594.6 95.8996C1592.7 96.8902 1590.39 97.4721 1587.9 97.4721C1584.9 97.4721 1582.17 96.6296 1580.1 95.2463C1578.62 96.6041 1576.35 97.4718 1573.81 97.4718C1569.33 97.4718 1565.71 94.7811 1565.71 91.462C1565.71 88.1429 1569.33 85.4522 1573.81 85.4522C1574.93 85.4522 1575.99 85.6201 1576.96 85.9237C1578.54 82.6806 1582.66 80.3403 1587.54 80.2306C1590.11 75.9165 1595.93 72.9055 1602.7 72.9055C1603.53 72.9055 1604.36 72.9515 1605.16 73.0402C1608.83 67.1024 1616.92 62.9786 1626.3 62.9786C1635.66 62.9786 1643.72 67.0731 1647.41 72.9768C1648 72.9297 1648.6 72.9055 1649.21 72.9055C1651.45 72.9055 1653.59 73.2365 1655.54 73.8362C1658.8 71.6357 1663.13 70.294 1667.88 70.294C1676.29 70.294 1683.38 74.4992 1685.53 80.2298C1685.64 80.2277 1685.74 80.2266 1685.85 80.2266C1690.88 80.2266 1695.17 82.6015 1696.79 85.9237C1697.76 85.6201 1698.82 85.4522 1699.94 85.4522C1704.41 85.4522 1708.04 88.1429 1708.04 91.462C1708.04 94.7811 1704.41 97.4718 1699.94 97.4718C1697.4 97.4718 1695.13 96.604 1693.64 95.2463C1691.58 96.6296 1688.85 97.4721 1685.85 97.4721C1682.82 97.4721 1680.07 96.6148 1678 95.2098C1675.1 96.6372 1671.62 97.4687 1667.88 97.4687C1664.36 97.4687 1661.07 96.7335 1658.28 95.459C1655.68 96.7287 1652.56 97.4673 1649.21 97.4673C1645.28 97.4673 1641.67 96.4525 1638.83 94.7571Z" fill="white"/>
</g>
<mask id="mask2_2858_4" style="mask-type:alpha" maskUnits="userSpaceOnUse" x="2582" y="204" width="163" height="35">
<rect x="2582" y="204.902" width="163" height="33.9432" fill="#D9D9D9"/>
</mask>
<g mask="url(#mask2_2858_4)">
<path fill-rule="evenodd" clip-rule="evenodd" d="M2666.12 241.114C2662 243.07 2657.11 244.204 2651.85 244.204C2646.41 244.204 2641.34 242.985 2637.13 240.895C2633.84 242.958 2629.59 244.201 2624.95 244.201C2621.6 244.201 2618.45 243.553 2615.72 242.415C2613.56 243.544 2610.93 244.207 2608.09 244.207C2604.67 244.207 2601.56 243.248 2599.21 241.672C2597.51 243.218 2594.93 244.206 2592.03 244.206C2586.93 244.206 2582.8 241.14 2582.8 237.358C2582.8 233.576 2586.93 230.51 2592.03 230.51C2593.31 230.51 2594.52 230.701 2595.62 231.047C2597.42 227.352 2602.12 224.686 2607.68 224.561C2610.61 219.644 2617.24 216.213 2624.95 216.213C2625.9 216.213 2626.84 216.266 2627.76 216.367C2631.94 209.601 2641.16 204.902 2651.85 204.902C2662.51 204.902 2671.7 209.567 2675.9 216.294C2676.57 216.241 2677.26 216.213 2677.95 216.213C2680.5 216.213 2682.94 216.591 2685.17 217.275C2688.88 214.767 2693.81 213.238 2699.23 213.238C2708.81 213.238 2716.89 218.029 2719.34 224.559C2719.46 224.557 2719.58 224.556 2719.7 224.556C2725.44 224.556 2730.33 227.262 2732.17 231.048C2733.27 230.701 2734.49 230.51 2735.76 230.51C2740.86 230.51 2745 233.576 2745 237.358C2745 241.14 2740.86 244.206 2735.76 244.206C2732.87 244.206 2730.28 243.218 2728.59 241.67C2726.24 243.247 2723.12 244.207 2719.7 244.207C2716.26 244.207 2713.11 243.23 2710.76 241.63C2707.45 243.256 2703.49 244.203 2699.23 244.203C2695.22 244.203 2691.47 243.365 2688.29 241.912C2685.32 243.36 2681.77 244.201 2677.95 244.201C2673.47 244.201 2669.36 243.045 2666.12 241.114Z" fill="white"/>
</g>
<mask id="mask3_2858_4" style="mask-type:alpha" maskUnits="userSpaceOnUse" x="1316" y="164" width="134" height="29">
<rect width="133.078" height="27.7123" transform="matrix(-1 -8.74228e-08 -8.74228e-08 1 1449.08 164.979)" fill="#D9D9D9"/>
</mask>
<g mask="url(#mask3_2858_4)">
<path fill-rule="evenodd" clip-rule="evenodd" d="M1380.39 194.543C1383.76 196.141 1387.75 197.067 1392.04 197.067C1396.49 197.067 1400.62 196.072 1404.06 194.366C1406.75 196.049 1410.22 197.064 1414 197.064C1416.74 197.064 1419.32 196.533 1421.55 195.604C1423.31 196.525 1425.45 197.066 1427.77 197.066C1430.56 197.066 1433.11 196.281 1435.03 194.994C1436.41 196.256 1438.52 197.063 1440.88 197.063C1445.05 197.063 1448.42 194.56 1448.42 191.472C1448.42 188.384 1445.05 185.881 1440.88 185.881C1439.84 185.881 1438.85 186.037 1437.95 186.32C1436.48 183.303 1432.64 181.127 1428.1 181.025C1425.71 177.013 1420.3 174.213 1414 174.213C1413.23 174.213 1412.46 174.256 1411.72 174.338C1408.3 168.815 1400.78 164.979 1392.04 164.979C1383.34 164.979 1375.84 168.788 1372.41 174.279C1371.86 174.236 1371.3 174.213 1370.74 174.213C1368.65 174.213 1366.66 174.522 1364.84 175.081C1361.81 173.035 1357.79 171.787 1353.37 171.787C1345.54 171.787 1338.95 175.696 1336.95 181.025C1336.85 181.023 1336.75 181.022 1336.65 181.022C1331.97 181.022 1327.98 183.231 1326.47 186.321C1325.57 186.038 1324.58 185.881 1323.54 185.881C1319.37 185.881 1316 188.384 1316 191.472C1316 194.56 1319.37 197.063 1323.54 197.063C1325.9 197.063 1328.01 196.256 1329.4 194.993C1331.31 196.281 1333.86 197.066 1336.65 197.066C1339.46 197.066 1342.02 196.27 1343.95 194.965C1346.65 196.294 1349.88 197.069 1353.37 197.069C1356.64 197.069 1359.7 196.384 1362.3 195.197C1364.72 196.377 1367.62 197.064 1370.74 197.064C1374.39 197.064 1377.75 196.12 1380.39 194.543Z" fill="white"/>
</g>
<defs>
<linearGradient id="paint0_linear_2858_4" x1="2384.4" y1="416.867" x2="2385.23" y2="0.879881" gradientUnits="userSpaceOnUse">
<stop stop-color="#D0F1F2" stop-opacity="0.4"/>
<stop offset="1" stop-color="#CAF1F3" stop-opacity="0.15"/>
</linearGradient>
</defs>
</svg>
