<svg width="4010" height="506" viewBox="0 0 4010 506" fill="none" xmlns="http://www.w3.org/2000/svg">
<mask id="mask0_4773_139" style="mask-type:alpha" maskUnits="userSpaceOnUse" x="0" y="0" width="4010" height="506">
<rect width="4010" height="506" fill="#D9D9D9"/>
</mask>
<g mask="url(#mask0_4773_139)">
<rect x="-578" width="5166" height="506" fill="url(#paint0_linear_4773_139)"/>
<circle cx="193.5" cy="193.5" r="193.5" transform="matrix(-1 0 0 1 2873 -143)" fill="white" fill-opacity="0.3"/>
<ellipse cx="59.5" cy="59" rx="59.5" ry="59" transform="matrix(-1 0 0 1 2798 344)" fill="#9EE4D4"/>
<ellipse cx="123.5" cy="123.5" rx="123.5" ry="123.5" transform="matrix(1 -8.74228e-08 -8.74228e-08 -1 1241 605)" fill="#9EE4D4"/>
<path opacity="0.3" fill-rule="evenodd" clip-rule="evenodd" d="M1497.54 27C1508.71 27 1517.77 36.0556 1517.77 47.2262C1517.77 58.3969 1508.71 67.4524 1497.54 67.4524H1470.12C1466.37 67.5994 1463.38 70.6817 1463.38 74.4626C1463.38 78.3272 1466.5 81.4619 1470.37 81.4782H1381V81.4785H1505.76C1512.14 81.4785 1517.31 86.6519 1517.31 93.0337C1517.31 99.4155 1512.14 104.589 1505.76 104.589H1381V105L-248 105V64.0001L1294.22 64.0002C1296.81 62.9509 1298.65 60.4045 1298.65 57.4298C1298.65 53.518 1295.48 50.3468 1291.56 50.3468L1274.04 50.3468V50.3368L1380.3 50.3368V50.0003L-168 50.0002V27.0001L1380.3 27.0002V27H1497.54Z" fill="white"/>
<path opacity="0.3" fill-rule="evenodd" clip-rule="evenodd" d="M2566 389.815C2566 379.976 2573.98 372 2583.81 372L4057 372V414L2583.81 414C2573.98 414 2566 406.024 2566 396.185V389.815ZM2619 440C2619 433.373 2624.37 428 2631 428H2651.96C2651.68 427.998 2651.4 427.98 2651.13 427.947L2659.74 427.947C2663.7 427.947 2666.9 424.741 2666.9 420.788C2666.9 417.632 2664.86 414.953 2662.02 414L4128 414V428L4033 428V452L2631 452C2624.37 452 2619 446.627 2619 440Z" fill="#6EC7B3"/>
<path opacity="0.2" fill-rule="evenodd" clip-rule="evenodd" d="M1451 468.185C1451 478.024 1443.02 486 1433.19 486L-323 486L-323 445L-129 445L-129 430L-143 430L-143 407L1385.5 407C1391.85 407 1397 412.149 1397 418.5C1397 424.851 1391.85 430 1385.5 430L1364.55 430C1365.28 430.005 1365.99 430.114 1366.65 430.314L1356.85 430.314C1352.9 430.314 1349.69 433.519 1349.69 437.473C1349.69 441.427 1352.9 444.632 1356.85 444.632L1366.83 444.632C1366.11 444.866 1365.34 444.995 1364.55 445L1433.19 445C1443.02 445 1451 452.976 1451 462.814L1451 468.185Z" fill="white"/>
</g>
<defs>
<linearGradient id="paint0_linear_4773_139" x1="2005" y1="0" x2="2005" y2="506" gradientUnits="userSpaceOnUse">
<stop stop-color="#9EE4D4"/>
<stop offset="1" stop-color="#9EE4D4" stop-opacity="0.4"/>
</linearGradient>
</defs>
</svg>
