<svg width="1164" height="200" viewBox="0 0 1164 200" fill="none" xmlns="http://www.w3.org/2000/svg">
<path fill-rule="evenodd" clip-rule="evenodd" d="M0 23.0548C0 10.322 10.322 0 23.0548 0H1140.95C1153.68 0 1164 10.322 1164 23.0548C1164 35.7875 1153.68 46.1095 1140.95 46.1095H983.054C967.655 46.1566 955.187 58.6539 955.187 74.0633C955.187 89.4427 967.607 101.921 982.964 102.017H1014.57C1041.63 102.017 1063.56 123.951 1063.56 151.008C1063.56 178.065 1041.63 199.999 1014.57 199.999H132.39C105.333 199.999 83.3985 178.065 83.3985 151.008C83.3985 123.951 105.333 102.017 132.39 102.017H200.141C215.498 101.921 227.918 89.4427 227.918 74.0633C227.918 58.6539 215.45 46.1566 200.051 46.1095H23.0548C10.3221 46.1095 0 35.7875 0 23.0548Z" fill="url(#paint0_linear_3462_4)"/>
<defs>
<linearGradient id="paint0_linear_3462_4" x1="677.954" y1="0" x2="677.954" y2="199.999" gradientUnits="userSpaceOnUse">
<stop stop-color="#DEF3F5"/>
<stop offset="1" stop-color="#CAF1F3"/>
</linearGradient>
</defs>
</svg>
