<svg width="1300" height="450" viewBox="0 0 1300 450" fill="none" xmlns="http://www.w3.org/2000/svg">
<mask id="mask0_8_270" style="mask-type:alpha" maskUnits="userSpaceOnUse" x="0" y="0" width="1300" height="450">
<rect width="1300" height="450" rx="40" fill="#D9D9D9"/>
</mask>
<g mask="url(#mask0_8_270)">
<rect width="1300" height="450" rx="40" fill="#D9D9D9"/>
<rect x="-18" y="-24" width="1338" height="491" rx="40" fill="white"/>
<rect x="-37" y="-28" width="1440" height="506" fill="#D7F6EF"/>
<path fill-rule="evenodd" clip-rule="evenodd" d="M1060.88 216.107C1049.68 216.107 1040.61 225.182 1040.61 236.376C1040.61 247.57 1049.68 256.645 1060.88 256.645H1313.48V216.107H1060.88ZM849.316 348.747C849.316 329.152 865.201 313.268 884.795 313.268H1088.43V313.159L1314.89 313.159V353.95L1090.45 353.95V353.95L1276.84 353.95V353.968H1246.46C1239.4 353.968 1233.68 359.69 1233.68 366.749C1233.68 372.922 1238.05 378.072 1243.87 379.268H1323.33V449.596L1088.43 449.596V449.367H870.382C859.188 449.367 850.113 440.292 850.113 429.098C850.113 417.903 859.188 408.829 870.382 408.829H932.646C939.335 408.704 944.718 403.243 944.718 396.525C944.718 389.873 939.441 384.454 932.845 384.226H884.796C865.201 384.226 849.316 368.341 849.316 348.747Z" fill="white" fill-opacity="0.5"/>
<path fill-rule="evenodd" clip-rule="evenodd" d="M-32.1924 385.937C-13.6892 385.937 1.31064 370.937 1.31064 352.434C1.31063 333.93 -13.6892 318.931 -32.1924 318.931L-449.724 318.931L-449.724 385.937L-32.1924 385.937ZM317.498 166.695C317.498 199.083 291.242 225.339 258.854 225.339L-77.7388 225.339L-77.7388 225.518L-452.051 225.518L-452.051 158.095L-389.161 158.095L-389.161 158.064L-338.94 158.064C-327.273 158.064 -317.815 148.606 -317.815 136.939C-317.815 126.736 -325.049 118.222 -334.668 116.246L-466 116.246L-466 0.000312636L-77.7381 0.000248176L-77.7381 0.379063L282.68 0.379031C301.183 0.37903 316.183 15.3788 316.183 33.8821C316.183 52.3853 301.183 67.3852 282.68 67.3852L179.77 67.3852C168.709 67.5854 159.804 76.6143 159.804 87.723C159.804 98.7169 168.526 107.674 179.428 108.052L258.854 108.052C291.242 108.052 317.498 134.307 317.498 166.695Z" fill="white" fill-opacity="0.5"/>
</g>
</svg>
