<svg width="4010" height="55" viewBox="0 0 4010 55" fill="none" xmlns="http://www.w3.org/2000/svg">
<rect width="4010" height="55" fill="white"/>
<rect width="4010" height="55" fill="#36768A"/>
<path fill-rule="evenodd" clip-rule="evenodd" d="M1283.51 16.297C1283.17 15.2838 1282.21 14.5546 1281.08 14.5546C1280.38 14.5546 1279.75 14.8337 1279.29 15.2864C1279.34 14.9794 1279.37 14.6634 1279.37 14.3407C1279.37 11.3863 1276.97 8.99131 1274.02 8.99131C1271.94 8.99131 1270.14 10.1771 1269.25 11.9091C1268.75 11.6841 1268.19 11.559 1267.6 11.559C1267.53 11.559 1267.46 11.5609 1267.38 11.5646C1267.39 11.4916 1267.39 11.4184 1267.39 11.345C1267.39 6.73617 1263.65 3 1259.04 3C1255.73 3 1252.87 4.93045 1251.52 7.72781C1250.8 7.43861 1250.02 7.27941 1249.2 7.27941C1245.77 7.27941 1242.99 10.0576 1242.99 13.4846C1242.99 13.9184 1243.04 14.3418 1243.12 14.7504C1242.82 14.6243 1242.49 14.5546 1242.14 14.5546C1240.88 14.5546 1239.83 15.4578 1239.61 16.6506C1239.45 16.7809 1239.21 16.8884 1238.95 17.0078C1238.11 17.3926 1237 17.9001 1237 19.69C1237 20.4847 1254.37 20.1896 1270.24 19.92C1275.99 19.8223 1281.54 19.728 1286 19.69C1284.79 19.3275 1284.54 18.419 1284.32 17.6197C1284.15 17.0345 1284.01 16.5079 1283.51 16.297Z" fill="white"/>
<path fill-rule="evenodd" clip-rule="evenodd" d="M1422.75 46.1C1422.3 44.7767 1421.05 43.8244 1419.58 43.8244C1418.66 43.8244 1417.84 44.1889 1417.23 44.7801C1417.3 44.379 1417.34 43.9661 1417.34 43.5444C1417.34 39.6856 1414.21 36.5575 1410.35 36.5575C1407.64 36.5575 1405.28 38.1065 1404.13 40.3691C1403.47 40.0751 1402.74 39.9117 1401.97 39.9117C1401.87 39.9117 1401.78 39.9142 1401.69 39.9191C1401.69 39.8237 1401.69 39.728 1401.69 39.632C1401.69 33.6123 1396.81 28.7324 1390.79 28.7324C1386.46 28.7324 1382.72 31.2538 1380.96 34.9074C1380.03 34.5296 1379.01 34.3216 1377.93 34.3216C1373.46 34.3216 1369.83 37.9503 1369.83 42.4264C1369.83 42.9932 1369.89 43.5463 1370 44.0803C1369.6 43.9154 1369.17 43.8244 1368.71 43.8244C1367.07 43.8244 1365.7 45.004 1365.41 46.5619C1365.19 46.732 1364.89 46.8725 1364.55 47.0283C1363.45 47.5309 1362 48.1938 1362 50.5317C1362 51.5697 1384.69 51.1842 1405.42 50.832C1412.93 50.7044 1420.18 50.5812 1426 50.5317C1424.42 50.0582 1424.09 48.8716 1423.8 47.8276C1423.59 47.0633 1423.4 46.3754 1422.75 46.1Z" fill="white"/>
<path fill-rule="evenodd" clip-rule="evenodd" d="M1929.44 12.2746C1929.2 11.5679 1928.53 11.0594 1927.75 11.0594C1927.26 11.0594 1926.82 11.254 1926.49 11.5698C1926.53 11.3556 1926.55 11.135 1926.55 10.9098C1926.55 8.8492 1924.88 7.17872 1922.82 7.17872C1921.37 7.17872 1920.11 8.00592 1919.5 9.21419C1919.14 9.05719 1918.75 8.96993 1918.34 8.96993C1918.29 8.96993 1918.24 8.97126 1918.19 8.97388C1918.19 8.92293 1918.19 8.87183 1918.19 8.82057C1918.19 5.60596 1915.59 3 1912.37 3C1910.06 3 1908.07 4.34644 1907.13 6.29754C1906.63 6.0958 1906.08 5.98473 1905.51 5.98473C1903.12 5.98473 1901.18 7.92249 1901.18 10.3128C1901.18 10.6155 1901.21 10.9109 1901.27 11.196C1901.06 11.108 1900.83 11.0594 1900.58 11.0594C1899.71 11.0594 1898.98 11.6893 1898.82 12.5213C1898.71 12.6121 1898.54 12.6871 1898.36 12.7703C1897.77 13.0388 1897 13.3927 1897 14.6412C1897 15.1955 1909.12 14.9897 1920.18 14.8016C1924.2 14.7335 1928.07 14.6677 1931.18 14.6412C1930.33 14.3883 1930.16 13.7547 1930 13.1972C1929.89 12.789 1929.79 12.4217 1929.44 12.2746Z" fill="white"/>
<path fill-rule="evenodd" clip-rule="evenodd" d="M2329.77 45.2265C2329.29 43.8394 2327.98 42.8415 2326.43 42.8415C2325.48 42.8415 2324.61 43.2242 2323.97 43.8449C2324.05 43.4237 2324.09 42.9901 2324.09 42.5472C2324.09 38.4969 2320.8 35.2135 2316.75 35.2135C2313.9 35.2135 2311.43 36.8393 2310.22 39.214C2309.53 38.9054 2308.76 38.7338 2307.95 38.7338C2307.85 38.7338 2307.75 38.7364 2307.66 38.7416C2307.66 38.6416 2307.66 38.5413 2307.66 38.4407C2307.66 32.1222 2302.54 27 2296.22 27C2291.68 27 2287.75 29.6466 2285.91 33.4818C2284.92 33.0852 2283.85 32.8669 2282.72 32.8669C2278.03 32.8669 2274.22 36.6757 2274.22 41.3741C2274.22 41.9689 2274.28 42.5496 2274.39 43.11C2273.98 42.937 2273.52 42.8415 2273.04 42.8415C2271.32 42.8415 2269.89 44.0795 2269.58 45.7145C2269.35 45.8932 2269.03 46.0407 2268.67 46.2043C2267.52 46.7319 2266 47.4277 2266 49.8816C2270.5 49.9997 2310.2 50.0772 2333.18 49.8816C2333.01 49.5476 2332.86 49.2266 2332.71 48.9197C2331.84 47.0843 2331.2 45.7585 2329.77 45.2265Z" fill="white"/>
</svg>
