<svg width="1308" height="458" viewBox="0 0 1308 458" fill="none" xmlns="http://www.w3.org/2000/svg">
<g filter="url(#filter0_d_8_384)">
<mask id="mask0_8_384" style="mask-type:alpha" maskUnits="userSpaceOnUse" x="4" y="0" width="1300" height="450">
<rect x="4" width="1300" height="450" rx="40" fill="#D9D9D9"/>
</mask>
<g mask="url(#mask0_8_384)">
<rect x="4" width="1300" height="450" rx="40" fill="#D9D9D9"/>
<rect x="-14" y="-24" width="1338" height="491" rx="40" fill="white"/>
<rect x="0.926758" y="-9.98901" width="1339.41" height="470.654" rx="40" fill="url(#paint0_linear_8_384)"/>
<path d="M3.99999 553.187C4 608.312 43.21 653 91.578 653L94.2054 653C142.573 653 181.783 608.312 181.783 553.187L181.783 509.37C181.783 479.547 205.96 455.37 235.783 455.37L347.744 455.37C370.235 455.37 388.468 473.603 388.468 496.094C388.468 529.831 415.816 557.18 449.553 557.18L1129.48 557.179C1144.42 557.179 1156.53 543.376 1156.53 526.35C1156.53 509.323 1144.42 495.521 1129.48 495.521L945.69 495.521C934.603 495.521 925.615 486.533 925.615 475.445C925.615 464.358 934.603 455.37 945.69 455.37L1261.12 455.37C1285.09 455.37 1304.53 474.809 1304.53 498.789C1304.53 531.037 1327.47 557.179 1355.77 557.179C1384.06 557.179 1407 531.037 1407 498.789L1407 -9L3.99994 -8.99988L3.99999 553.187Z" fill="url(#paint1_linear_8_384)"/>
<mask id="mask1_8_384" style="mask-type:alpha" maskUnits="userSpaceOnUse" x="687" y="364" width="237" height="50">
<rect x="687" y="364" width="236.918" height="49.336" fill="#D9D9D9"/>
</mask>
<g mask="url(#mask1_8_384)">
<path fill-rule="evenodd" clip-rule="evenodd" d="M809.277 416.633C803.289 419.477 796.171 421.126 788.533 421.126C780.617 421.126 773.259 419.355 767.14 416.317C762.362 419.315 756.184 421.122 749.436 421.122C744.562 421.122 739.984 420.179 736.017 418.525C732.882 420.166 729.056 421.13 724.926 421.13C719.958 421.13 715.429 419.735 712.014 417.444C709.553 419.692 705.796 421.129 701.587 421.129C694.175 421.129 688.166 416.672 688.166 411.175C688.166 405.678 694.175 401.221 701.587 401.221C703.439 401.221 705.202 401.499 706.807 402.002C709.419 396.631 716.251 392.755 724.334 392.574C728.589 385.428 738.227 380.441 749.436 380.441C750.821 380.441 752.181 380.517 753.51 380.664C759.595 370.83 772.989 364 788.533 364C804.023 364 817.377 370.781 823.491 380.559C824.468 380.481 825.46 380.441 826.464 380.441C830.181 380.441 833.725 380.99 836.957 381.983C842.35 378.338 849.521 376.116 857.391 376.116C871.325 376.116 883.065 383.081 886.627 392.572C886.802 392.569 886.977 392.567 887.152 392.567C895.493 392.567 902.596 396.501 905.272 402.003C906.877 401.5 908.642 401.221 910.494 401.221C917.906 401.221 923.915 405.678 923.915 411.175C923.915 416.672 917.906 421.129 910.494 421.129C906.284 421.129 902.527 419.692 900.066 417.443C896.65 419.734 892.121 421.13 887.152 421.13C882.14 421.13 877.576 419.71 874.15 417.384C869.348 419.747 863.587 421.124 857.391 421.124C851.565 421.124 846.122 419.906 841.5 417.795C837.183 419.898 832.016 421.122 826.464 421.122C819.957 421.122 813.979 419.441 809.277 416.633Z" fill="white"/>
</g>
<mask id="mask2_8_384" style="mask-type:alpha" maskUnits="userSpaceOnUse" x="1181" y="41" width="96" height="20">
<rect x="1181" y="41" width="95.082" height="19.7999" fill="#D9D9D9"/>
</mask>
<g mask="url(#mask2_8_384)">
<path fill-rule="evenodd" clip-rule="evenodd" d="M1230.07 62.1233C1227.67 63.2646 1224.81 63.9263 1221.75 63.9263C1218.57 63.9263 1215.62 63.2154 1213.16 61.9965C1211.24 63.1994 1208.77 63.9246 1206.06 63.9246C1204.1 63.9246 1202.26 63.5461 1200.67 62.8825C1199.41 63.5411 1197.88 63.928 1196.22 63.928C1194.23 63.928 1192.41 63.368 1191.04 62.4485C1190.05 63.3508 1188.54 63.9274 1186.85 63.9274C1183.88 63.9274 1181.47 62.1389 1181.47 59.9327C1181.47 57.7265 1183.88 55.938 1186.85 55.938C1187.6 55.938 1188.3 56.0496 1188.95 56.2513C1190 54.0957 1192.74 52.5402 1195.98 52.4675C1197.69 49.5998 1201.56 47.5984 1206.06 47.5984C1206.61 47.5984 1207.16 47.6289 1207.69 47.6878C1210.13 43.741 1215.51 41 1221.75 41C1227.96 41 1233.32 43.7216 1235.78 47.6458C1236.17 47.6144 1236.57 47.5984 1236.97 47.5984C1238.46 47.5984 1239.88 47.8184 1241.18 48.2172C1243.35 46.7544 1246.22 45.8624 1249.38 45.8624C1254.97 45.8624 1259.69 48.6577 1261.12 52.4669C1261.19 52.4655 1261.26 52.4648 1261.33 52.4648C1264.67 52.4648 1267.52 54.0434 1268.6 56.2516C1269.24 56.0497 1269.95 55.938 1270.69 55.938C1273.67 55.938 1276.08 57.7265 1276.08 59.9327C1276.08 62.1389 1273.67 63.9274 1270.69 63.9274C1269 63.9274 1267.5 63.3506 1266.51 62.4481C1265.14 63.3678 1263.32 63.928 1261.33 63.928C1259.32 63.928 1257.48 63.3582 1256.11 62.4244C1254.18 63.373 1251.87 63.9256 1249.38 63.9256C1247.04 63.9256 1244.86 63.4368 1243.01 62.5895C1241.27 63.4336 1239.2 63.9246 1236.97 63.9246C1234.36 63.9246 1231.96 63.2502 1230.07 62.1233Z" fill="white"/>
</g>
<mask id="mask3_8_384" style="mask-type:alpha" maskUnits="userSpaceOnUse" x="65" y="34" width="201" height="42">
<rect x="65" y="34" width="200.729" height="41.7999" fill="#D9D9D9"/>
</mask>
<g mask="url(#mask3_8_384)">
<path fill-rule="evenodd" clip-rule="evenodd" d="M168.599 78.5937C163.526 81.0031 157.495 82.3999 151.024 82.3999C144.317 82.3999 138.083 80.8993 132.898 78.326C128.851 80.8654 123.616 82.3965 117.899 82.3965C113.769 82.3965 109.891 81.5975 106.53 80.1964C103.873 81.5868 100.632 82.4035 97.1331 82.4035C92.9236 82.4035 89.0864 81.2212 86.1924 79.28C84.1075 81.185 80.9248 82.4024 77.3586 82.4024C71.0784 82.4024 65.9873 78.6267 65.9873 73.9691C65.9873 69.3115 71.0784 65.5358 77.3586 65.5358C78.9273 65.5358 80.4217 65.7713 81.7811 66.1973C83.9945 61.6466 89.7823 58.3626 96.6313 58.2092C100.236 52.1551 108.402 47.9299 117.899 47.9299C119.072 47.9299 120.225 47.9944 121.351 48.1187C126.506 39.7867 137.854 34 151.024 34C164.148 34 175.462 39.7456 180.642 48.0299C181.469 47.9638 182.31 47.9299 183.16 47.9299C186.31 47.9299 189.312 48.3945 192.051 49.2363C196.62 46.1481 202.695 44.2652 209.364 44.2652C221.169 44.2652 231.116 50.1662 234.134 58.2079C234.282 58.205 234.43 58.2035 234.578 58.2035C241.646 58.2035 247.664 61.5361 249.931 66.1979C251.291 65.7716 252.786 65.5358 254.355 65.5358C260.635 65.5358 265.726 69.3115 265.726 73.9691C265.726 78.6267 260.635 82.4024 254.355 82.4024C250.788 82.4024 247.605 81.1847 245.52 79.2792C242.626 81.2209 238.788 82.4035 234.578 82.4035C230.332 82.4035 226.465 81.2006 223.563 79.2293C219.494 81.2319 214.613 82.3985 209.364 82.3985C204.428 82.3985 199.816 81.3666 195.9 79.578C192.242 81.3599 187.864 82.3965 183.16 82.3965C177.647 82.3965 172.583 80.9726 168.599 78.5937Z" fill="white"/>
</g>
<mask id="mask4_8_384" style="mask-type:alpha" maskUnits="userSpaceOnUse" x="-11" y="390" width="96" height="20">
<rect x="-11" y="390" width="95.082" height="19.7999" fill="#D9D9D9"/>
</mask>
<g mask="url(#mask4_8_384)">
<path fill-rule="evenodd" clip-rule="evenodd" d="M38.0731 411.123C35.6702 412.265 32.8135 412.926 29.7483 412.926C26.5713 412.926 23.6182 412.215 21.1624 410.996C19.2451 412.199 16.7655 412.925 14.0575 412.925C12.1012 412.925 10.2641 412.546 8.67204 411.882C7.41369 412.541 5.87827 412.928 4.22102 412.928C2.22705 412.928 0.409446 412.368 -0.961402 411.448C-1.94898 412.351 -3.45658 412.927 -5.14581 412.927C-8.12064 412.927 -10.5322 411.139 -10.5322 408.933C-10.5322 406.726 -8.12064 404.938 -5.14581 404.938C-4.40278 404.938 -3.6949 405.05 -3.05095 405.251C-2.00249 403.096 0.739069 401.54 3.98336 401.467C5.69067 398.6 9.55892 396.598 14.0575 396.598C14.6131 396.598 15.1591 396.629 15.6925 396.688C18.1344 392.741 23.5098 390 29.7483 390C35.9647 390 41.324 392.722 43.7779 396.646C44.1697 396.614 44.5677 396.598 44.9708 396.598C46.4625 396.598 47.8848 396.818 49.1821 397.217C51.3462 395.754 54.2241 394.862 57.3829 394.862C62.9749 394.862 67.6866 397.658 69.1161 401.467C69.1861 401.466 69.2562 401.465 69.3266 401.465C72.6743 401.465 75.5248 403.043 76.5987 405.252C77.2429 405.05 77.9511 404.938 78.6945 404.938C81.6693 404.938 84.0809 406.726 84.0809 408.933C84.0809 411.139 81.6693 412.927 78.6945 412.927C77.005 412.927 75.4972 412.351 74.5096 411.448C73.1387 412.368 71.3208 412.928 69.3266 412.928C67.3153 412.928 65.4835 412.358 64.1086 411.424C62.1815 412.373 59.8692 412.926 57.3829 412.926C55.0446 412.926 52.8602 412.437 51.0054 411.59C49.2725 412.434 47.1989 412.925 44.9708 412.925C42.3593 412.925 39.9603 412.25 38.0731 411.123Z" fill="white"/>
</g>
</g>
</g>
<defs>
<filter id="filter0_d_8_384" x="0" y="0" width="1308" height="458" filterUnits="userSpaceOnUse" color-interpolation-filters="sRGB">
<feFlood flood-opacity="0" result="BackgroundImageFix"/>
<feColorMatrix in="SourceAlpha" type="matrix" values="0 0 0 0 0 0 0 0 0 0 0 0 0 0 0 0 0 0 127 0" result="hardAlpha"/>
<feOffset dy="4"/>
<feGaussianBlur stdDeviation="2"/>
<feComposite in2="hardAlpha" operator="out"/>
<feColorMatrix type="matrix" values="0 0 0 0 0 0 0 0 0 0 0 0 0 0 0 0 0 0 0.25 0"/>
<feBlend mode="normal" in2="BackgroundImageFix" result="effect1_dropShadow_8_384"/>
<feBlend mode="normal" in="SourceGraphic" in2="effect1_dropShadow_8_384" result="shape"/>
</filter>
<linearGradient id="paint0_linear_8_384" x1="670.633" y1="-9.98901" x2="670.633" y2="460.665" gradientUnits="userSpaceOnUse">
<stop stop-color="#9EE4D4"/>
<stop offset="1" stop-color="#9EE4D4" stop-opacity="0.4"/>
</linearGradient>
<linearGradient id="paint1_linear_8_384" x1="1136.14" y1="681.232" x2="132.487" y2="134.411" gradientUnits="userSpaceOnUse">
<stop stop-color="#DEF3F5"/>
<stop offset="1" stop-color="#A4E7EA"/>
</linearGradient>
</defs>
</svg>
