<svg width="1300" height="450" viewBox="0 0 1300 450" fill="none" xmlns="http://www.w3.org/2000/svg">
<mask id="mask0_8_847" style="mask-type:alpha" maskUnits="userSpaceOnUse" x="0" y="0" width="1300" height="450">
<rect width="1300" height="450" rx="40" fill="#D9D9D9"/>
</mask>
<g mask="url(#mask0_8_847)">
<rect width="1300" height="450" rx="40" fill="#D9D9D9"/>
<rect x="-18" y="-24" width="1338" height="491" rx="40" fill="white"/>
<rect x="-3.07324" y="-9.98901" width="1339.41" height="470.654" rx="40" fill="url(#paint0_linear_8_847)"/>
<path d="M-8.72593e-06 553.187C-3.90673e-06 608.312 39.21 653 87.578 653L90.2054 653C138.573 653 177.783 608.312 177.783 553.187L177.783 509.37C177.783 479.547 201.96 455.37 231.783 455.37L343.744 455.37C366.235 455.37 384.468 473.603 384.468 496.094C384.468 529.831 411.816 557.18 445.553 557.18L1125.48 557.179C1140.42 557.179 1152.53 543.376 1152.53 526.35C1152.53 509.323 1140.42 495.521 1125.48 495.521L941.69 495.521C930.603 495.521 921.615 486.533 921.615 475.445C921.615 464.358 930.603 455.37 941.69 455.37L1257.12 455.37C1281.09 455.37 1300.53 474.809 1300.53 498.789C1300.53 531.037 1323.47 557.179 1351.77 557.179C1380.06 557.179 1403 531.037 1403 498.789L1403 -9L-5.78739e-05 -8.99988L-8.72593e-06 553.187Z" fill="url(#paint1_linear_8_847)"/>
<mask id="mask1_8_847" style="mask-type:alpha" maskUnits="userSpaceOnUse" x="683" y="364" width="237" height="50">
<rect x="683" y="364" width="236.918" height="49.336" fill="#D9D9D9"/>
</mask>
<g mask="url(#mask1_8_847)">
<path fill-rule="evenodd" clip-rule="evenodd" d="M805.277 416.633C799.289 419.477 792.171 421.126 784.533 421.126C776.617 421.126 769.259 419.355 763.14 416.317C758.362 419.315 752.184 421.122 745.436 421.122C740.562 421.122 735.984 420.179 732.017 418.525C728.882 420.166 725.056 421.13 720.926 421.13C715.958 421.13 711.429 419.735 708.014 417.444C705.553 419.692 701.796 421.129 697.587 421.129C690.175 421.129 684.166 416.672 684.166 411.175C684.166 405.678 690.175 401.221 697.587 401.221C699.439 401.221 701.202 401.499 702.807 402.002C705.419 396.631 712.251 392.755 720.334 392.574C724.589 385.428 734.227 380.441 745.436 380.441C746.821 380.441 748.181 380.517 749.51 380.664C755.595 370.83 768.989 364 784.533 364C800.023 364 813.377 370.781 819.491 380.559C820.468 380.481 821.46 380.441 822.464 380.441C826.181 380.441 829.725 380.99 832.957 381.983C838.35 378.338 845.521 376.116 853.391 376.116C867.325 376.116 879.065 383.081 882.627 392.572C882.802 392.569 882.977 392.567 883.152 392.567C891.493 392.567 898.596 396.501 901.272 402.003C902.877 401.5 904.642 401.221 906.494 401.221C913.906 401.221 919.915 405.678 919.915 411.175C919.915 416.672 913.906 421.129 906.494 421.129C902.284 421.129 898.527 419.692 896.066 417.443C892.65 419.734 888.121 421.13 883.152 421.13C878.14 421.13 873.576 419.71 870.15 417.384C865.348 419.747 859.587 421.124 853.391 421.124C847.565 421.124 842.122 419.906 837.5 417.795C833.183 419.898 828.016 421.122 822.464 421.122C815.957 421.122 809.979 419.441 805.277 416.633Z" fill="white"/>
</g>
<mask id="mask2_8_847" style="mask-type:alpha" maskUnits="userSpaceOnUse" x="1177" y="41" width="96" height="20">
<rect x="1177" y="41" width="95.082" height="19.7999" fill="#D9D9D9"/>
</mask>
<g mask="url(#mask2_8_847)">
<path fill-rule="evenodd" clip-rule="evenodd" d="M1226.07 62.1233C1223.67 63.2646 1220.81 63.9263 1217.75 63.9263C1214.57 63.9263 1211.62 63.2154 1209.16 61.9965C1207.24 63.1994 1204.77 63.9246 1202.06 63.9246C1200.1 63.9246 1198.26 63.5461 1196.67 62.8825C1195.41 63.5411 1193.88 63.928 1192.22 63.928C1190.23 63.928 1188.41 63.368 1187.04 62.4485C1186.05 63.3508 1184.54 63.9274 1182.85 63.9274C1179.88 63.9274 1177.47 62.1389 1177.47 59.9327C1177.47 57.7265 1179.88 55.938 1182.85 55.938C1183.6 55.938 1184.3 56.0496 1184.95 56.2513C1186 54.0957 1188.74 52.5402 1191.98 52.4675C1193.69 49.5998 1197.56 47.5984 1202.06 47.5984C1202.61 47.5984 1203.16 47.6289 1203.69 47.6878C1206.13 43.741 1211.51 41 1217.75 41C1223.96 41 1229.32 43.7216 1231.78 47.6458C1232.17 47.6144 1232.57 47.5984 1232.97 47.5984C1234.46 47.5984 1235.88 47.8184 1237.18 48.2172C1239.35 46.7544 1242.22 45.8624 1245.38 45.8624C1250.97 45.8624 1255.69 48.6577 1257.12 52.4669C1257.19 52.4655 1257.26 52.4648 1257.33 52.4648C1260.67 52.4648 1263.52 54.0434 1264.6 56.2516C1265.24 56.0497 1265.95 55.938 1266.69 55.938C1269.67 55.938 1272.08 57.7265 1272.08 59.9327C1272.08 62.1389 1269.67 63.9274 1266.69 63.9274C1265 63.9274 1263.5 63.3506 1262.51 62.4481C1261.14 63.3678 1259.32 63.928 1257.33 63.928C1255.32 63.928 1253.48 63.3582 1252.11 62.4244C1250.18 63.373 1247.87 63.9256 1245.38 63.9256C1243.04 63.9256 1240.86 63.4368 1239.01 62.5895C1237.27 63.4336 1235.2 63.9246 1232.97 63.9246C1230.36 63.9246 1227.96 63.2502 1226.07 62.1233Z" fill="white"/>
</g>
<mask id="mask3_8_847" style="mask-type:alpha" maskUnits="userSpaceOnUse" x="61" y="34" width="201" height="42">
<rect x="61" y="34" width="200.729" height="41.7999" fill="#D9D9D9"/>
</mask>
<g mask="url(#mask3_8_847)">
<path fill-rule="evenodd" clip-rule="evenodd" d="M164.599 78.5937C159.526 81.0031 153.495 82.3999 147.024 82.3999C140.317 82.3999 134.083 80.8993 128.898 78.326C124.851 80.8654 119.616 82.3965 113.899 82.3965C109.769 82.3965 105.891 81.5975 102.53 80.1964C99.8732 81.5868 96.6317 82.4035 93.1331 82.4035C88.9236 82.4035 85.0864 81.2212 82.1924 79.28C80.1075 81.185 76.9248 82.4024 73.3586 82.4024C67.0784 82.4024 61.9873 78.6267 61.9873 73.9691C61.9873 69.3115 67.0784 65.5358 73.3586 65.5358C74.9273 65.5358 76.4217 65.7713 77.7811 66.1973C79.9945 61.6466 85.7823 58.3626 92.6313 58.2092C96.2357 52.1551 104.402 47.9299 113.899 47.9299C115.072 47.9299 116.225 47.9944 117.351 48.1187C122.506 39.7867 133.854 34 147.024 34C160.148 34 171.462 39.7456 176.642 48.0299C177.469 47.9638 178.31 47.9299 179.16 47.9299C182.31 47.9299 185.312 48.3945 188.051 49.2363C192.62 46.1481 198.695 44.2652 205.364 44.2652C217.169 44.2652 227.116 50.1662 230.134 58.2079C230.282 58.205 230.43 58.2035 230.578 58.2035C237.646 58.2035 243.664 61.5361 245.931 66.1979C247.291 65.7716 248.786 65.5358 250.355 65.5358C256.635 65.5358 261.726 69.3115 261.726 73.9691C261.726 78.6267 256.635 82.4024 250.355 82.4024C246.788 82.4024 243.605 81.1847 241.52 79.2792C238.626 81.2209 234.788 82.4035 230.578 82.4035C226.332 82.4035 222.465 81.2006 219.563 79.2293C215.494 81.2319 210.613 82.3985 205.364 82.3985C200.428 82.3985 195.816 81.3666 191.9 79.578C188.242 81.3599 183.864 82.3965 179.16 82.3965C173.647 82.3965 168.583 80.9726 164.599 78.5937Z" fill="white"/>
</g>
<mask id="mask4_8_847" style="mask-type:alpha" maskUnits="userSpaceOnUse" x="-15" y="390" width="96" height="20">
<rect x="-15" y="390" width="95.082" height="19.7999" fill="#D9D9D9"/>
</mask>
<g mask="url(#mask4_8_847)">
<path fill-rule="evenodd" clip-rule="evenodd" d="M34.0731 411.123C31.6702 412.265 28.8135 412.926 25.7483 412.926C22.5713 412.926 19.6182 412.215 17.1624 410.996C15.2451 412.199 12.7655 412.925 10.0575 412.925C8.10117 412.925 6.26406 412.546 4.67204 411.882C3.41369 412.541 1.87827 412.928 0.221019 412.928C-1.77295 412.928 -3.59055 412.368 -4.9614 411.448C-5.94898 412.351 -7.45658 412.927 -9.14581 412.927C-12.1206 412.927 -14.5322 411.139 -14.5322 408.933C-14.5322 406.726 -12.1206 404.938 -9.14581 404.938C-8.40278 404.938 -7.6949 405.05 -7.05095 405.251C-6.00249 403.096 -3.26093 401.54 -0.0166378 401.467C1.69067 398.6 5.55892 396.598 10.0575 396.598C10.6131 396.598 11.1591 396.629 11.6925 396.688C14.1344 392.741 19.5098 390 25.7483 390C31.9647 390 37.324 392.722 39.7779 396.646C40.1697 396.614 40.5677 396.598 40.9708 396.598C42.4625 396.598 43.8848 396.818 45.1821 397.217C47.3462 395.754 50.2241 394.862 53.3829 394.862C58.9749 394.862 63.6866 397.658 65.1161 401.467C65.1861 401.466 65.2562 401.465 65.3266 401.465C68.6743 401.465 71.5248 403.043 72.5987 405.252C73.2429 405.05 73.9511 404.938 74.6945 404.938C77.6693 404.938 80.0809 406.726 80.0809 408.933C80.0809 411.139 77.6693 412.927 74.6945 412.927C73.005 412.927 71.4972 412.351 70.5096 411.448C69.1387 412.368 67.3208 412.928 65.3266 412.928C63.3153 412.928 61.4835 412.358 60.1086 411.424C58.1815 412.373 55.8692 412.926 53.3829 412.926C51.0446 412.926 48.8602 412.437 47.0054 411.59C45.2725 412.434 43.1989 412.925 40.9708 412.925C38.3593 412.925 35.9603 412.25 34.0731 411.123Z" fill="white"/>
</g>
</g>
<defs>
<linearGradient id="paint0_linear_8_847" x1="666.633" y1="-9.98901" x2="666.633" y2="460.665" gradientUnits="userSpaceOnUse">
<stop stop-color="#9EE4D4"/>
<stop offset="1" stop-color="#9EE4D4" stop-opacity="0.4"/>
</linearGradient>
<linearGradient id="paint1_linear_8_847" x1="1132.14" y1="681.232" x2="128.487" y2="134.411" gradientUnits="userSpaceOnUse">
<stop stop-color="#DEF3F5"/>
<stop offset="1" stop-color="#A4E7EA"/>
</linearGradient>
</defs>
</svg>
