<svg width="1088" height="352" viewBox="0 0 1088 352" fill="none" xmlns="http://www.w3.org/2000/svg">
<path fill-rule="evenodd" clip-rule="evenodd" d="M15 37.138C15 16.9034 31.4034 0.5 51.638 0.5H1002.36C1022.6 0.5 1039 16.9034 1039 37.138C1039 57.3726 1022.6 73.7761 1002.36 73.7761H985.985C967.403 76.0652 953 92.3056 953 112C953 133.091 969.52 150.222 990 150.497V150.53C1044.35 151.857 1088 196.331 1088 251C1088 306.505 1043 351.5 987.5 351.5H100.5C44.9954 351.5 0 306.505 0 251C0 195.495 44.9954 150.5 100.5 150.5H228.2C245.273 146.505 258 131.008 258 112.5C258 92.5395 243.197 76.0814 224.105 73.7761H51.638C31.4034 73.7761 15 57.3726 15 37.138Z" fill="url(#paint0_linear_4101_2394)"/>
<defs>
<linearGradient id="paint0_linear_4101_2394" x1="1388.28" y1="-99.2708" x2="-229.859" y2="212.54" gradientUnits="userSpaceOnUse">
<stop stop-color="#035270"/>
<stop offset="1" stop-color="#36768A"/>
</linearGradient>
</defs>
</svg>
