<svg width="4010" height="571" viewBox="0 0 4010 571" fill="none" xmlns="http://www.w3.org/2000/svg">
<mask id="mask0_4185_1373" style="mask-type:alpha" maskUnits="userSpaceOnUse" x="0" y="0" width="4010" height="571">
<rect width="4010" height="571" fill="#D9D9D9"/>
</mask>
<g mask="url(#mask0_4185_1373)">
<path fill-rule="evenodd" clip-rule="evenodd" d="M2130 422C2130 504.29 2196.71 571 2279 571L4010 571L4010 273L4010 170L4010 -1.87506e-05L2424 -0.000157403C2377.06 -0.000161507 2339 38.0557 2339 84.9999C2339 131.944 2377.06 170 2424 170L2491.34 170C2489.55 170.005 2487.79 170.102 2486.05 170.285L2489.02 170.285C2517.52 170.285 2540.62 193.39 2540.62 221.892C2540.62 247.948 2521.31 269.494 2496.22 273L2279 273C2196.71 273 2130 339.709 2130 422Z" fill="#DEF3F5"/>
</g>
</svg>
