<svg width="4010" height="393" viewBox="0 0 4010 393" fill="none" xmlns="http://www.w3.org/2000/svg">
<mask id="mask0_4185_1401" style="mask-type:alpha" maskUnits="userSpaceOnUse" x="0" y="0" width="4010" height="393">
<rect width="4010" height="393" fill="#D9D9D9"/>
</mask>
<g mask="url(#mask0_4185_1401)">
<path fill-rule="evenodd" clip-rule="evenodd" d="M0 392.999L4010 392.999L4010 292.259L4010 185.998L4010.01 185.998L4010.01 -0.00183105L1496.01 -0.00205084L1496.01 0.000360053L1487.54 0.000359313C1422.2 0.0003536 1369.23 52.9724 1369.23 118.317L1369.23 153.873C1369.23 171.376 1355.04 185.564 1337.53 185.564L1201.15 185.564L1201.15 185.999L1.80965e-05 185.999L0 392.999Z" fill="url(#paint0_linear_4185_1401)"/>
<path d="M2317.56 106.517L2321.6 106.688L2323.75 110.043L2325.17 106.332L2329.1 105.381L2325.93 102.911L2326.2 98.9756L2322.83 101.155L2319.07 99.6755L2320.15 103.492L2317.56 106.517Z" fill="white"/>
<path d="M1853.38 184.543L1856.98 184.701L1858.89 187.673L1860.15 184.384L1863.64 183.526L1860.82 181.347L1861.07 177.834L1858.06 179.775L1854.74 178.468L1855.7 181.849L1853.38 184.543Z" fill="white"/>
<path d="M2315.96 223.473L2317.28 223.526L2317.99 224.635L2318.46 223.42L2319.76 223.103L2318.7 222.284L2318.8 220.99L2317.69 221.703L2316.44 221.215L2316.81 222.469L2315.96 223.473Z" fill="white"/>
<path d="M1693.11 185.942L1695.2 186.034L1696.29 187.751L1697.02 185.849L1699.04 185.361L1697.4 184.093L1697.55 182.072L1695.82 183.195L1693.9 182.442L1694.45 184.383L1693.11 185.942Z" fill="white"/>
<path d="M2113.61 131.78L2115.69 131.872L2116.79 133.589L2117.52 131.687L2119.54 131.199L2117.91 129.931L2118.05 127.91L2116.32 129.033L2114.4 128.28L2114.95 130.221L2113.61 131.78Z" fill="white"/>
<path d="M2379.9 327.359L2383.5 327.505L2385.4 330.489L2386.66 327.201L2390.15 326.342L2387.34 324.15L2387.58 320.65L2384.58 322.592L2381.25 321.284L2382.21 324.665L2379.9 327.359Z" fill="white"/>
<path d="M2218.06 149.531L2220.29 149.636L2221.48 151.485L2222.27 149.438L2224.44 148.897L2222.68 147.537L2222.85 145.357L2220.98 146.572L2218.9 145.754L2219.49 147.853L2218.06 149.531Z" fill="white"/>
<path d="M3162.21 135.362L3166.16 136.194L3167.71 139.852L3169.74 136.432L3173.77 136.128L3171.07 133.183L3172.03 129.34L3168.32 130.938L3164.87 128.864L3165.29 132.8L3162.21 135.362Z" fill="white"/>
<path d="M2901.14 230.526L2904.65 231.253L2906.02 234.501L2907.83 231.464L2911.42 231.2L2909.01 228.585L2909.86 225.164L2906.58 226.591L2903.51 224.755L2903.87 228.241L2901.14 230.526Z" fill="white"/>
<path d="M3140.52 250.402L3141.84 250.666L3142.35 251.881L3143.01 250.746L3144.34 250.653L3143.46 249.676L3143.77 248.408L3142.55 248.936L3141.42 248.263L3141.55 249.557L3140.52 250.402Z" fill="white"/>
<path d="M2532.96 111.405L2534.99 111.827L2535.79 113.703L2536.83 111.946L2538.9 111.788L2537.51 110.282L2538.01 108.314L2536.1 109.133L2534.33 108.063L2534.54 110.084L2532.96 111.405Z" fill="white"/>
<path d="M2956.81 126.87L2958.84 127.293L2959.63 129.168L2960.67 127.412L2962.75 127.266L2961.36 125.747L2961.84 123.78L2959.95 124.599L2958.18 123.542L2958.39 125.563L2956.81 126.87Z" fill="white"/>
<path d="M3185.73 363.281L3189.24 364.021L3190.61 367.269L3192.42 364.232L3196.01 363.955L3193.6 361.34L3194.45 357.932L3191.17 359.345L3188.1 357.51L3188.46 361.01L3185.73 363.281Z" fill="white"/>
<path d="M3056.73 161.471L3058.92 161.933L3059.77 163.954L3060.89 162.065L3063.12 161.894L3061.62 160.269L3062.15 158.143L3060.11 159.028L3058.2 157.879L3058.43 160.058L3056.73 161.471Z" fill="white"/>
<path d="M2002.98 351.328L2007.43 352.266L2009.16 356.36L2011.43 352.53L2015.96 352.187L2012.94 348.885L2014 344.566L2009.85 346.362L2005.98 344.038L2006.44 348.449L2002.98 351.328Z" fill="white"/>
<path d="M1107.3 387.197L1110.82 387.923L1112.18 391.172L1114 388.135L1117.58 387.871L1115.17 385.256L1116.02 381.835L1112.74 383.261L1109.67 381.426L1110.03 384.912L1107.3 387.197Z" fill="white"/>
<path d="M1054.01 176.183L1057.52 176.923L1058.89 180.159L1060.7 177.121L1064.29 176.857L1061.88 174.242L1062.73 170.822L1059.44 172.248L1056.37 170.412L1056.74 173.899L1054.01 176.183Z" fill="white"/>
<path d="M1465.55 312.12L1467.58 312.542L1468.38 314.418L1469.42 312.661L1471.49 312.503L1470.1 310.997L1470.58 309.029L1468.69 309.848L1466.92 308.778L1467.13 310.799L1465.55 312.12Z" fill="white"/>
<path d="M1211.46 205.171L1213.49 205.594L1214.29 207.469L1215.33 205.713L1217.4 205.554L1216.01 204.049L1216.51 202.081L1214.6 202.9L1212.83 201.83L1213.04 203.851L1211.46 205.171Z" fill="white"/>
<path d="M1450.87 145.742L1452.9 146.164L1453.7 148.04L1454.74 146.283L1456.81 146.125L1455.42 144.619L1455.92 142.651L1454.01 143.47L1452.24 142.4L1452.46 144.421L1450.87 145.742Z" fill="white"/>
<path d="M1244.74 68.7752L1248.26 69.5148L1249.62 72.7636L1251.44 69.7261L1255.02 69.4487L1252.61 66.8338L1253.46 63.4265L1250.18 64.8396L1247.11 63.0039L1247.47 66.5037L1244.74 68.7752Z" fill="white"/>
<path d="M1293.68 297.392L1295.25 297.722L1295.85 299.175L1296.67 297.815L1298.28 297.696L1297.19 296.521L1297.57 294.989L1296.11 295.636L1294.73 294.804L1294.89 296.375L1293.68 297.392Z" fill="white"/>
</g>
<defs>
<linearGradient id="paint0_linear_4185_1401" x1="1899.98" y1="392.538" x2="2175.61" y2="-306.585" gradientUnits="userSpaceOnUse">
<stop stop-color="#C9F5F7"/>
<stop offset="0.830342" stop-color="#D7F5F6"/>
</linearGradient>
</defs>
</svg>
