<svg width="4010" height="571" viewBox="0 0 4010 571" fill="none" xmlns="http://www.w3.org/2000/svg">
<mask id="mask0_4185_1402" style="mask-type:alpha" maskUnits="userSpaceOnUse" x="0" y="0" width="4010" height="571">
<rect width="4010" height="571" fill="#D9D9D9"/>
</mask>
<g mask="url(#mask0_4185_1402)">
<path fill-rule="evenodd" clip-rule="evenodd" d="M1885 422C1885 504.29 1818.29 571 1736 571L0 571L-2.6052e-05 273L-3.50565e-05 170L-4.99184e-05 -1.83135e-05L1591 -0.000157403C1637.94 -0.000161507 1676 38.0557 1676 84.9999C1676 131.944 1637.94 170 1591 170L1523.64 170C1524.45 170.002 1525.25 170.023 1526.05 170.062C1498.74 171.393 1477 193.961 1477 221.607C1477 248.508 1497.58 270.602 1523.86 272.999C1523.77 272.999 1523.68 273 1523.6 273L1736 273C1818.29 273 1885 339.709 1885 422Z" fill="#DEF3F5"/>
</g>
</svg>
