<svg width="4010" height="388" viewBox="0 0 4010 388" fill="none" xmlns="http://www.w3.org/2000/svg">
<mask id="mask0_4185_1399" style="mask-type:alpha" maskUnits="userSpaceOnUse" x="0" y="0" width="4010" height="388">
<rect width="4010" height="388" fill="#D9D9D9"/>
</mask>
<g mask="url(#mask0_4185_1399)">
<path fill-rule="evenodd" clip-rule="evenodd" d="M1350 303C1350 256.056 1388.06 218 1435 218H4010V388H1435C1388.06 388 1350 349.944 1350 303ZM4010 159.999V217.999H1556V217.677H1605.88C1621.7 217.677 1634.53 204.854 1634.53 189.036C1634.53 173.217 1621.7 160.394 1605.88 160.394H1556V160H1500C1481.77 160 1467 145.225 1467 127C1467 108.775 1481.77 94 1500 94L2086 94.0004V93.9457H2172.75C2188.35 93.9457 2201 81.2934 2201 65.6859C2201 50.0784 2188.35 37.4261 2172.75 37.4261H2086V37.0004H4010L4010 94L4010 159.999ZM2050 18.5C2050 28.7173 2058.28 37 2068.5 37H4010V0H2068.5C2058.28 0 2050 8.28275 2050 18.5Z" fill="url(#paint0_linear_4185_1399)"/>
<path d="M2144.34 318.303L2142.23 318.211L2141.1 316.416L2140.36 318.402L2138.31 318.911L2139.97 320.232L2139.83 322.338L2141.58 321.172L2143.55 321.963L2142.98 319.921L2144.34 318.303Z" fill="white"/>
<path d="M2386.68 276.557L2384.8 276.472L2383.8 274.882L2383.14 276.642L2381.32 277.101L2382.79 278.267L2382.66 280.146L2384.23 279.108L2385.97 279.807L2385.47 277.998L2386.68 276.557Z" fill="white"/>
<path d="M2145.17 255.726L2144.48 255.698L2144.11 255.104L2143.87 255.755L2143.19 255.924L2143.74 256.362L2143.69 257.055L2144.27 256.673L2144.92 256.935L2144.73 256.263L2145.17 255.726Z" fill="white"/>
<path d="M2470.35 275.808L2469.26 275.758L2468.69 274.839L2468.31 275.857L2467.26 276.118L2468.11 276.797L2468.03 277.878L2468.94 277.277L2469.94 277.68L2469.65 276.641L2470.35 275.808Z" fill="white"/>
<path d="M2250.81 304.786L2249.73 304.737L2249.15 303.818L2248.77 304.836L2247.72 305.097L2248.57 305.775L2248.5 306.856L2249.4 306.256L2250.4 306.659L2250.11 305.62L2250.81 304.786Z" fill="white"/>
<path d="M2111.79 200.144L2109.91 200.066L2108.92 198.469L2108.26 200.229L2106.44 200.688L2107.91 201.861L2107.78 203.733L2109.35 202.695L2111.09 203.394L2110.58 201.585L2111.79 200.144Z" fill="white"/>
<path d="M2196.28 295.289L2195.12 295.232L2194.5 294.243L2194.09 295.338L2192.95 295.628L2193.87 296.356L2193.78 297.521L2194.76 296.871L2195.85 297.31L2195.54 296.186L2196.28 295.289Z" fill="white"/>
<path d="M1703.36 302.871L1701.3 302.426L1700.49 300.469L1699.43 302.299L1697.32 302.461L1698.74 304.037L1698.24 306.093L1700.17 305.238L1701.97 306.348L1701.75 304.242L1703.36 302.871Z" fill="white"/>
<path d="M1839.66 251.953L1837.83 251.564L1837.11 249.826L1836.17 251.451L1834.29 251.593L1835.55 252.992L1835.11 254.822L1836.82 254.059L1838.43 255.041L1838.24 253.176L1839.66 251.953Z" fill="white"/>
<path d="M1714.68 241.318L1714 241.177L1713.73 240.527L1713.38 241.134L1712.69 241.184L1713.15 241.707L1712.99 242.385L1713.62 242.103L1714.21 242.463L1714.14 241.77L1714.68 241.318Z" fill="white"/>
<path d="M2031.88 315.689L2030.82 315.463L2030.41 314.459L2029.86 315.399L2028.78 315.484L2029.51 316.289L2029.25 317.342L2030.24 316.904L2031.17 317.477L2031.06 316.395L2031.88 315.689Z" fill="white"/>
<path d="M1810.59 307.415L1809.53 307.189L1809.13 306.185L1808.58 307.125L1807.49 307.203L1808.22 308.015L1807.97 309.068L1808.96 308.63L1809.88 309.195L1809.77 308.114L1810.59 307.415Z" fill="white"/>
<path d="M1691.08 180.924L1689.25 180.528L1688.53 178.79L1687.59 180.415L1685.71 180.563L1686.97 181.963L1686.53 183.786L1688.24 183.03L1689.85 184.012L1689.66 182.139L1691.08 180.924Z" fill="white"/>
<path d="M1758.43 288.901L1757.29 288.654L1756.84 287.573L1756.26 288.583L1755.09 288.675L1755.87 289.544L1755.6 290.682L1756.66 290.208L1757.66 290.823L1757.54 289.657L1758.43 288.901Z" fill="white"/>
<path d="M2308.57 187.319L2306.25 186.818L2305.35 184.627L2304.16 186.676L2301.79 186.86L2303.38 188.626L2302.82 190.937L2304.99 189.976L2307.01 191.22L2306.77 188.86L2308.57 187.319Z" fill="white"/>
<path d="M2776.19 168.127L2774.36 167.738L2773.64 166L2772.7 167.625L2770.83 167.767L2772.08 169.166L2771.64 170.996L2773.35 170.233L2774.96 171.215L2774.77 169.349L2776.19 168.127Z" fill="white"/>
<path d="M2804.02 281.029L2802.18 280.634L2801.47 278.902L2800.52 280.528L2798.65 280.669L2799.91 282.068L2799.46 283.898L2801.18 283.135L2802.78 284.117L2802.59 282.252L2804.02 281.029Z" fill="white"/>
<path d="M2589.16 208.297L2588.1 208.071L2587.68 207.068L2587.14 208.008L2586.06 208.092L2586.78 208.898L2586.53 209.951L2587.52 209.513L2588.44 210.085L2588.33 209.004L2589.16 208.297Z" fill="white"/>
<path d="M2721.81 265.519L2720.75 265.293L2720.34 264.289L2719.79 265.229L2718.71 265.314L2719.44 266.12L2719.18 267.172L2720.17 266.734L2721.1 267.307L2720.99 266.226L2721.81 265.519Z" fill="white"/>
<path d="M2596.82 297.317L2595.76 297.091L2595.34 296.087L2594.8 297.027L2593.72 297.112L2594.45 297.917L2594.18 298.97L2595.18 298.532L2596.11 299.104L2595.99 298.023L2596.82 297.317Z" fill="white"/>
<path d="M2704.44 338.498L2702.6 338.102L2701.89 336.364L2700.94 337.989L2699.07 338.138L2700.33 339.537L2699.88 341.36L2701.6 340.604L2703.2 341.586L2703.01 339.713L2704.44 338.498Z" fill="white"/>
<path d="M2678.89 216.177L2678.07 216L2677.75 215.223L2677.33 215.95L2676.49 216.014L2677.05 216.643L2676.86 217.463L2677.62 217.116L2678.34 217.562L2678.25 216.721L2678.89 216.177Z" fill="white"/>
<path d="M3325.62 318.303L3323.51 318.211L3322.39 316.416L3321.65 318.402L3319.6 318.911L3321.25 320.232L3321.11 322.338L3322.87 321.172L3324.83 321.963L3324.27 319.921L3325.62 318.303Z" fill="white"/>
<path d="M3567.96 276.557L3566.08 276.472L3565.09 274.882L3564.43 276.642L3562.61 277.101L3564.08 278.267L3563.95 280.146L3565.52 279.108L3567.25 279.807L3566.75 277.998L3567.96 276.557Z" fill="white"/>
<path d="M3326.46 255.726L3325.77 255.698L3325.4 255.104L3325.15 255.755L3324.47 255.924L3325.03 256.362L3324.98 257.055L3325.56 256.673L3326.2 256.935L3326.01 256.263L3326.46 255.726Z" fill="white"/>
<path d="M3651.64 275.808L3650.55 275.758L3649.98 274.839L3649.6 275.857L3648.54 276.118L3649.4 276.797L3649.32 277.878L3650.22 277.277L3651.23 277.68L3650.94 276.641L3651.64 275.808Z" fill="white"/>
<path d="M3432.1 304.786L3431.01 304.737L3430.44 303.818L3430.06 304.836L3429.01 305.097L3429.85 305.775L3429.78 306.856L3430.69 306.256L3431.69 306.659L3431.4 305.62L3432.1 304.786Z" fill="white"/>
<path d="M3293.08 200.144L3291.2 200.066L3290.2 198.469L3289.55 200.229L3287.72 200.688L3289.19 201.861L3289.07 203.733L3290.63 202.695L3292.37 203.394L3291.87 201.585L3293.08 200.144Z" fill="white"/>
<path d="M3377.57 295.289L3376.4 295.232L3375.78 294.243L3375.37 295.338L3374.24 295.628L3375.15 296.356L3375.07 297.521L3376.04 296.871L3377.13 297.31L3376.82 296.186L3377.57 295.289Z" fill="white"/>
<path d="M2884.65 302.871L2882.59 302.426L2881.77 300.469L2880.71 302.299L2878.61 302.461L2880.02 304.037L2879.52 306.093L2881.46 305.238L2883.26 306.348L2883.04 304.242L2884.65 302.871Z" fill="white"/>
<path d="M3020.95 251.953L3019.11 251.564L3018.4 249.826L3017.45 251.451L3015.58 251.593L3016.84 252.992L3016.39 254.822L3018.11 254.059L3019.71 255.041L3019.52 253.176L3020.95 251.953Z" fill="white"/>
<path d="M2895.97 241.318L2895.28 241.177L2895.01 240.527L2894.67 241.134L2893.97 241.184L2894.43 241.707L2894.27 242.385L2894.91 242.103L2895.5 242.463L2895.43 241.77L2895.97 241.318Z" fill="white"/>
<path d="M3213.17 315.689L3212.11 315.463L3211.69 314.459L3211.15 315.399L3210.07 315.484L3210.79 316.289L3210.53 317.342L3211.53 316.904L3212.45 317.477L3212.34 316.395L3213.17 315.689Z" fill="white"/>
<path d="M2991.88 307.415L2990.82 307.189L2990.41 306.185L2989.87 307.125L2988.78 307.203L2989.51 308.015L2989.25 309.068L2990.24 308.63L2991.17 309.195L2991.05 308.114L2991.88 307.415Z" fill="white"/>
<path d="M2872.37 180.924L2870.53 180.528L2869.82 178.79L2868.87 180.415L2867 180.563L2868.26 181.963L2867.81 183.786L2869.53 183.03L2871.13 184.012L2870.94 182.139L2872.37 180.924Z" fill="white"/>
<path d="M2939.72 288.901L2938.57 288.654L2938.13 287.573L2937.54 288.583L2936.38 288.675L2937.16 289.544L2936.88 290.682L2937.95 290.208L2938.95 290.823L2938.83 289.657L2939.72 288.901Z" fill="white"/>
<path d="M3489.86 187.319L3487.54 186.818L3486.63 184.627L3485.45 186.676L3483.08 186.86L3484.66 188.626L3484.1 190.937L3486.27 189.976L3488.29 191.22L3488.05 188.86L3489.86 187.319Z" fill="white"/>
<path d="M3957.48 168.127L3955.64 167.738L3954.93 166L3953.98 167.625L3952.11 167.767L3953.37 169.166L3952.92 170.996L3954.64 170.233L3956.24 171.215L3956.05 169.349L3957.48 168.127Z" fill="white"/>
<path d="M3985.3 281.029L3983.46 280.634L3982.75 278.902L3981.8 280.528L3979.93 280.669L3981.19 282.068L3980.75 283.898L3982.46 283.135L3984.06 284.117L3983.87 282.252L3985.3 281.029Z" fill="white"/>
<path d="M3770.44 208.297L3769.38 208.071L3768.97 207.068L3768.42 208.008L3767.34 208.092L3768.07 208.898L3767.81 209.951L3768.8 209.513L3769.73 210.085L3769.62 209.004L3770.44 208.297Z" fill="white"/>
<path d="M3903.1 265.519L3902.04 265.293L3901.62 264.289L3901.08 265.229L3900 265.314L3900.73 266.12L3900.46 267.172L3901.46 266.734L3902.38 267.307L3902.27 266.226L3903.1 265.519Z" fill="white"/>
<path d="M3778.1 297.317L3777.04 297.091L3776.63 296.087L3776.08 297.027L3775 297.112L3775.73 297.917L3775.47 298.97L3776.47 298.532L3777.39 299.104L3777.28 298.023L3778.1 297.317Z" fill="white"/>
<path d="M3885.72 338.498L3883.89 338.102L3883.17 336.364L3882.23 337.989L3880.36 338.138L3881.61 339.537L3881.17 341.36L3882.88 340.604L3884.49 341.586L3884.3 339.713L3885.72 338.498Z" fill="white"/>
<path d="M3860.17 216.177L3859.36 216L3859.04 215.223L3858.61 215.95L3857.77 216.014L3858.34 216.643L3858.14 217.463L3858.9 217.116L3859.62 217.562L3859.54 216.721L3860.17 216.177Z" fill="white"/>
</g>
<defs>
<linearGradient id="paint0_linear_4185_1399" x1="2805" y1="-36.6615" x2="2433.25" y2="450.059" gradientUnits="userSpaceOnUse">
<stop stop-color="#00506E"/>
<stop offset="0.493802" stop-color="#266B82"/>
<stop offset="1" stop-color="#36768A"/>
</linearGradient>
</defs>
</svg>
