<svg width="4010" height="391" viewBox="0 0 4010 391" fill="none" xmlns="http://www.w3.org/2000/svg">
<mask id="mask0_4185_1367" style="mask-type:alpha" maskUnits="userSpaceOnUse" x="0" y="0" width="4010" height="391">
<rect width="4010" height="391" fill="#D9D9D9"/>
</mask>
<g mask="url(#mask0_4185_1367)">
<path d="M1431 286C1431 343.99 1478.01 391 1536 391L4010 391L4010 181L1536 181C1478.01 181 1431 228.01 1431 286Z" fill="white"/>
<path d="M4010 0L1534 0.000429566C1510.25 0.000433686 1491 19.2521 1491 43.0002C1491 66.7483 1510.25 86 1534 86L4010 85.9996L4010 0Z" fill="white"/>
<path fill-rule="evenodd" clip-rule="evenodd" d="M4010 182.002L1535 182.002V181.002L1542.5 181.002C1568.73 181.002 1590 159.735 1590 133.502C1590 107.268 1568.73 86.0017 1542.5 86.0017H1535V85.0015L4010 85.0017L4010 182.002Z" fill="white"/>
</g>
</svg>
