<svg width="4010" height="622" viewBox="0 0 4010 622" fill="none" xmlns="http://www.w3.org/2000/svg">
<rect width="4010" height="622" fill="white"/>
<mask id="mask0_1042_11" style="mask-type:alpha" maskUnits="userSpaceOnUse" x="1301" y="4" width="2709" height="618">
<rect x="4010" y="622" width="2709" height="618" transform="rotate(180 4010 622)" fill="#D9D9D9"/>
</mask>
<g mask="url(#mask0_1042_11)">
<mask id="mask1_1042_11" style="mask-type:alpha" maskUnits="userSpaceOnUse" x="1339" y="4" width="2671" height="619">
<path fill-rule="evenodd" clip-rule="evenodd" d="M1339 139C1339 64.4418 1399.44 4.00018 1474 4.00017L4010 4V241L4010 274L4010 351L4010 385L4010 452L4010 452L4010 527H4010L4010 622L2490.5 622C2464.27 622 2443 600.734 2443 574.5C2443 548.267 2464.27 527 2490.5 527L2574 527V452L1496.5 452C1468.61 452 1446 429.391 1446 401.5C1446 373.61 1468.61 351 1496.5 351H1506V274H1474C1399.44 274 1339 213.559 1339 139Z" fill="url(#paint0_linear_1042_11)"/>
</mask>
<g mask="url(#mask1_1042_11)">
<path fill-rule="evenodd" clip-rule="evenodd" d="M1339 139C1339 64.4418 1399.44 4.00018 1474 4.00017L4010 4V273L4010 274L4010 351L4010 353L4010 452L4010 527L4010 527L4010 622L2489.5 622C2463.27 622 2442 600.734 2442 574.5C2442 548.267 2463.27 527 2489.5 527L2574 527V452L1496.5 452C1468.61 452 1446 429.391 1446 401.5C1446 373.61 1468.61 351 1496.5 351H1506V274H1474C1399.44 274 1339 213.559 1339 139Z" fill="#FAFBFD"/>
<path d="M2419.23 606.899L2422.03 606.77L2423.52 604.246L2424.5 607.038L2427.21 607.754L2425.02 609.612L2425.21 612.574L2422.88 610.934L2420.28 612.047L2421.03 609.175L2419.23 606.899Z" fill="white"/>
<path d="M2098.06 548.182L2100.55 548.063L2101.87 545.826L2102.74 548.301L2105.15 548.947L2103.21 550.587L2103.37 553.231L2101.3 551.77L2098.99 552.754L2099.66 550.209L2098.06 548.182Z" fill="white"/>
<path d="M2418.13 518.883L2419.05 518.843L2419.53 518.009L2419.86 518.923L2420.76 519.162L2420.03 519.778L2420.09 520.752L2419.33 520.215L2418.46 520.583L2418.72 519.639L2418.13 518.883Z" fill="white"/>
<path d="M1987.16 547.128L1988.6 547.059L1989.36 545.767L1989.87 547.198L1991.26 547.566L1990.13 548.52L1990.23 550.04L1989.03 549.196L1987.71 549.762L1988.09 548.301L1987.16 547.128Z" fill="white"/>
<path d="M2278.12 587.887L2279.56 587.817L2280.31 586.525L2280.82 587.957L2282.21 588.324L2281.09 589.278L2281.19 590.799L2279.99 589.954L2278.66 590.521L2279.04 589.06L2278.12 587.887Z" fill="white"/>
<path d="M2462.37 440.706L2464.86 440.597L2466.18 438.351L2467.05 440.825L2469.46 441.471L2467.51 443.121L2467.68 445.755L2465.61 444.294L2463.3 445.278L2463.97 442.733L2462.37 440.706Z" fill="white"/>
<path d="M2350.39 574.529L2351.93 574.45L2352.76 573.059L2353.3 574.599L2354.8 575.006L2353.59 576.03L2353.7 577.67L2352.41 576.756L2350.97 577.372L2351.38 575.792L2350.39 574.529Z" fill="white"/>
<path d="M3003.67 585.193L3006.4 584.567L3007.48 581.814L3008.88 584.388L3011.67 584.617L3009.8 586.833L3010.46 589.725L3007.9 588.523L3005.51 590.083L3005.8 587.121L3003.67 585.193Z" fill="white"/>
<path d="M2677.77 584.508L2680.2 583.961L2681.14 581.516L2682.4 583.802L2684.88 584.001L2683.21 585.969L2683.8 588.543L2681.53 587.469L2679.4 588.851L2679.66 586.227L2677.77 584.508Z" fill="white"/>
<path d="M2988.67 498.618L2989.57 498.42L2989.93 497.505L2990.39 498.36L2991.3 498.43L2990.7 499.165L2990.91 500.119L2990.07 499.722L2989.28 500.229L2989.38 499.255L2988.67 498.618Z" fill="white"/>
<path d="M2568.27 603.222L2569.68 602.904L2570.23 601.493L2570.95 602.814L2572.38 602.934L2571.42 604.067L2571.77 605.548L2570.45 604.931L2569.22 605.736L2569.37 604.216L2568.27 603.222Z" fill="white"/>
<path d="M2861.55 591.584L2862.95 591.266L2863.49 589.855L2864.21 591.177L2865.66 591.286L2864.69 592.429L2865.03 593.91L2863.72 593.294L2862.49 594.089L2862.64 592.568L2861.55 591.584Z" fill="white"/>
<path d="M3019.94 413.673L3022.38 413.116L3023.32 410.671L3024.57 412.957L3027.05 413.166L3025.39 415.134L3025.98 417.698L3023.7 416.635L3021.58 418.016L3021.83 415.382L3019.94 413.673Z" fill="white"/>
<path d="M2930.68 565.545L2932.2 565.197L2932.79 563.677L2933.57 565.098L2935.11 565.227L2934.07 566.449L2934.44 568.05L2933.02 567.384L2931.7 568.248L2931.86 566.608L2930.68 565.545Z" fill="white"/>
<path d="M2201.57 422.667L2204.65 421.962L2205.85 418.881L2207.42 421.763L2210.55 422.021L2208.46 424.506L2209.2 427.756L2206.32 426.404L2203.65 428.154L2203.97 424.834L2201.57 422.667Z" fill="white"/>
<path d="M1581.82 395.674L1584.25 395.128L1585.2 392.683L1586.45 394.969L1588.93 395.167L1587.27 397.135L1587.86 399.709L1585.58 398.636L1583.46 400.017L1583.71 397.394L1581.82 395.674Z" fill="white"/>
<path d="M1544.95 554.473L1547.38 553.917L1548.32 551.482L1549.58 553.767L1552.06 553.966L1550.39 555.934L1550.98 558.508L1548.71 557.435L1546.58 558.816L1546.84 556.192L1544.95 554.473Z" fill="white"/>
<path d="M1829.7 452.175L1831.11 451.857L1831.66 450.446L1832.38 451.767L1833.81 451.887L1832.85 453.02L1833.19 454.501L1831.88 453.884L1830.65 454.689L1830.8 453.169L1829.7 452.175Z" fill="white"/>
<path d="M1653.9 532.658L1655.3 532.34L1655.85 530.929L1656.57 532.25L1658 532.37L1657.04 533.503L1657.39 534.984L1656.07 534.367L1654.84 535.172L1654.99 533.652L1653.9 532.658Z" fill="white"/>
<path d="M1819.55 577.382L1820.95 577.064L1821.5 575.652L1822.22 576.974L1823.66 577.093L1822.69 578.226L1823.04 579.707L1821.72 579.091L1820.49 579.896L1820.64 578.376L1819.55 577.382Z" fill="white"/>
<path d="M1710.78 463.257L1711.86 463.008L1712.29 461.915L1712.85 462.939L1713.96 463.028L1713.21 463.913L1713.47 465.065L1712.46 464.578L1711.51 465.205L1711.62 464.022L1710.78 463.257Z" fill="white"/>
</g>
<rect width="99.475" height="77.5518" rx="38.7759" transform="matrix(1 6.81558e-08 1.12136e-07 -1 1452.49 351.597)" fill="white"/>
<rect width="99.2059" height="75" rx="37.5" transform="matrix(1 6.81558e-08 1.12136e-07 -1 2514.18 527)" fill="white"/>
</g>
<defs>
<linearGradient id="paint0_linear_1042_11" x1="2086.84" y1="276.815" x2="2542.95" y2="-168.193" gradientUnits="userSpaceOnUse">
<stop stop-color="#00506E"/>
<stop offset="1" stop-color="#36768A"/>
</linearGradient>
</defs>
</svg>
