<svg width="4010" height="408" viewBox="0 0 4010 408" fill="none" xmlns="http://www.w3.org/2000/svg">
<rect width="4010" height="408" fill="white"/>
<path fill-rule="evenodd" clip-rule="evenodd" d="M4010 408L1174 408L1174 404C1174 348.772 1218.77 304 1274 304L4010 304L4010 408ZM1311.01 219.072C1333.32 220.363 1351.01 238.865 1351.01 261.5C1351.01 284.135 1333.32 302.637 1311.01 303.928C1311.83 303.976 1312.66 304 1313.5 304L4010 304L4010 219L1313.5 219C1312.66 219 1311.83 219.024 1311.01 219.072ZM1616.05 120.5C1616.05 108.081 1605.99 98.0124 1593.57 98L4010 98.0002L4010 143L1593.64 143C1606.03 142.948 1616.05 132.894 1616.05 120.5ZM1250 219C1229.01 219 1212 201.987 1212 181C1212 160.013 1229.01 143 1250 143L4010 143L4010 219L1250 219ZM1446 1.99886e-05C1418.94 1.76228e-05 1397 21.938 1397 48.9999C1397 76.0618 1418.94 97.9998 1446 97.9998L4010 98L4010 0.000244141L1446 1.99886e-05Z" fill="url(#paint0_linear_1042_14)"/>
<mask id="mask0_1042_14" style="mask-type:alpha" maskUnits="userSpaceOnUse" x="1426" y="317" width="278" height="59">
<rect x="1426.5" y="317.996" width="277.504" height="57.7876" fill="#D9D9D9"/>
</mask>
<g mask="url(#mask0_1042_14)">
<path fill-rule="evenodd" clip-rule="evenodd" d="M1569.72 379.646C1562.71 382.977 1554.37 384.908 1545.42 384.908C1536.15 384.908 1527.53 382.833 1520.37 379.276C1514.77 382.787 1507.53 384.903 1499.63 384.903C1493.92 384.903 1488.56 383.799 1483.91 381.862C1480.24 383.784 1475.76 384.913 1470.92 384.913C1465.1 384.913 1459.8 383.279 1455.8 380.595C1452.91 383.229 1448.51 384.912 1443.58 384.912C1434.9 384.912 1427.86 379.692 1427.86 373.253C1427.86 366.814 1434.9 361.594 1443.58 361.594C1445.75 361.594 1447.82 361.919 1449.7 362.508C1452.76 356.217 1460.76 351.677 1470.23 351.465C1475.21 343.095 1486.5 337.254 1499.63 337.254C1501.25 337.254 1502.84 337.343 1504.4 337.515C1511.53 325.996 1527.22 317.996 1545.42 317.996C1563.57 317.996 1579.21 325.939 1586.37 337.392C1587.51 337.301 1588.68 337.254 1589.85 337.254C1594.21 337.254 1598.36 337.896 1602.14 339.06C1608.46 334.791 1616.86 332.188 1626.08 332.188C1642.4 332.188 1656.15 340.346 1660.32 351.463C1660.53 351.459 1660.73 351.457 1660.94 351.457C1670.71 351.457 1679.03 356.064 1682.16 362.509C1684.04 361.92 1686.11 361.594 1688.28 361.594C1696.96 361.594 1704 366.814 1704 373.253C1704 379.692 1696.96 384.912 1688.28 384.912C1683.35 384.912 1678.95 383.228 1676.06 380.594C1672.06 383.278 1666.76 384.913 1660.94 384.913C1655.07 384.913 1649.72 383.25 1645.71 380.525C1640.08 383.293 1633.33 384.906 1626.08 384.906C1619.25 384.906 1612.88 383.48 1607.47 381.007C1602.41 383.47 1596.36 384.903 1589.85 384.903C1582.23 384.903 1575.23 382.935 1569.72 379.646Z" fill="white"/>
</g>
<mask id="mask1_1042_14" style="mask-type:alpha" maskUnits="userSpaceOnUse" x="2559" y="85" width="278" height="59">
<rect x="2559.5" y="85.9961" width="277.504" height="57.7876" fill="#D9D9D9"/>
</mask>
<g mask="url(#mask1_1042_14)">
<path fill-rule="evenodd" clip-rule="evenodd" d="M2702.72 147.646C2695.71 150.977 2687.37 152.908 2678.42 152.908C2669.15 152.908 2660.53 150.833 2653.37 147.276C2647.77 150.787 2640.53 152.903 2632.63 152.903C2626.92 152.903 2621.56 151.799 2616.91 149.862C2613.24 151.784 2608.76 152.913 2603.92 152.913C2598.1 152.913 2592.8 151.279 2588.8 148.595C2585.91 151.229 2581.51 152.912 2576.58 152.912C2567.9 152.912 2560.86 147.692 2560.86 141.253C2560.86 134.814 2567.9 129.594 2576.58 129.594C2578.75 129.594 2580.82 129.919 2582.7 130.508C2585.76 124.217 2593.76 119.677 2603.23 119.465C2608.21 111.095 2619.5 105.254 2632.63 105.254C2634.25 105.254 2635.84 105.343 2637.4 105.515C2644.53 93.996 2660.22 85.9961 2678.42 85.9961C2696.57 85.9961 2712.21 93.9393 2719.37 105.392C2720.51 105.301 2721.68 105.254 2722.85 105.254C2727.21 105.254 2731.36 105.896 2735.14 107.06C2741.46 102.791 2749.86 100.188 2759.08 100.188C2775.4 100.188 2789.15 108.346 2793.32 119.463C2793.53 119.459 2793.73 119.457 2793.94 119.457C2803.71 119.457 2812.03 124.064 2815.16 130.509C2817.04 129.92 2819.11 129.594 2821.28 129.594C2829.96 129.594 2837 134.814 2837 141.253C2837 147.692 2829.96 152.912 2821.28 152.912C2816.35 152.912 2811.95 151.228 2809.06 148.594C2805.06 151.278 2799.76 152.913 2793.94 152.913C2788.07 152.913 2782.72 151.25 2778.71 148.525C2773.08 151.293 2766.33 152.906 2759.08 152.906C2752.25 152.906 2745.88 151.48 2740.47 149.007C2735.41 151.47 2729.36 152.903 2722.85 152.903C2715.23 152.903 2708.23 150.935 2702.72 147.646Z" fill="white"/>
</g>
<mask id="mask2_1042_14" style="mask-type:alpha" maskUnits="userSpaceOnUse" x="1280" y="157" width="134" height="29">
<rect width="133.078" height="27.7123" transform="matrix(-1 -8.74228e-08 -8.74228e-08 1 1413.12 157.996)" fill="#D9D9D9"/>
</mask>
<g mask="url(#mask2_1042_14)">
<path fill-rule="evenodd" clip-rule="evenodd" d="M1344.44 187.56C1347.8 189.158 1351.8 190.084 1356.09 190.084C1360.54 190.084 1364.67 189.089 1368.11 187.383C1370.79 189.066 1374.26 190.081 1378.05 190.081C1380.79 190.081 1383.36 189.551 1385.59 188.621C1387.35 189.542 1389.5 190.083 1391.82 190.083C1394.61 190.083 1397.15 189.299 1399.07 188.011C1400.46 189.274 1402.57 190.081 1404.93 190.081C1409.09 190.081 1412.47 187.577 1412.47 184.49C1412.47 181.402 1409.09 178.898 1404.93 178.898C1403.89 178.898 1402.9 179.055 1402 179.338C1400.53 176.321 1396.69 174.144 1392.15 174.043C1389.76 170.03 1384.35 167.23 1378.05 167.23C1377.27 167.23 1376.51 167.273 1375.76 167.356C1372.35 161.832 1364.82 157.996 1356.09 157.996C1347.39 157.996 1339.89 161.805 1336.46 167.297C1335.91 167.253 1335.35 167.23 1334.79 167.23C1332.7 167.23 1330.7 167.539 1328.89 168.098C1325.86 166.052 1321.83 164.805 1317.41 164.805C1309.59 164.805 1303 168.714 1300.99 174.042C1300.89 174.04 1300.8 174.039 1300.7 174.039C1296.01 174.039 1292.02 176.248 1290.52 179.338C1289.62 179.055 1288.63 178.898 1287.58 178.898C1283.42 178.898 1280.05 181.402 1280.05 184.489C1280.05 187.577 1283.42 190.081 1287.58 190.081C1289.95 190.081 1292.06 189.274 1293.44 188.011C1295.36 189.299 1297.9 190.083 1300.7 190.083C1303.51 190.083 1306.07 189.287 1307.99 187.982C1310.69 189.312 1313.93 190.086 1317.41 190.086C1320.69 190.086 1323.75 189.401 1326.34 188.214C1328.77 189.394 1331.67 190.081 1334.79 190.081C1338.44 190.081 1341.8 189.137 1344.44 187.56Z" fill="white"/>
</g>
<path d="M1899.82 222.676L1897.21 222.563L1895.83 220.363L1894.91 222.797L1892.38 223.42L1894.42 225.04L1894.25 227.621L1896.42 226.192L1898.85 227.162L1898.15 224.659L1899.82 222.676Z" fill="white"/>
<path d="M2199.3 171.506L2196.98 171.402L2195.75 169.454L2194.94 171.61L2192.69 172.173L2194.5 173.602L2194.35 175.906L2196.28 174.633L2198.43 175.491L2197.81 173.273L2199.3 171.506Z" fill="white"/>
<path d="M1900.85 145.974L1900 145.94L1899.55 145.212L1899.24 146.009L1898.4 146.217L1899.08 146.754L1899.02 147.603L1899.74 147.135L1900.54 147.455L1900.3 146.632L1900.85 145.974Z" fill="white"/>
<path d="M2302.71 170.588L2301.37 170.528L2300.66 169.402L2300.19 170.649L2298.89 170.969L2299.94 171.801L2299.85 173.126L2300.96 172.39L2302.2 172.883L2301.85 171.61L2302.71 170.588Z" fill="white"/>
<path d="M2031.41 206.107L2030.06 206.046L2029.36 204.92L2028.89 206.167L2027.59 206.488L2028.63 207.319L2028.55 208.645L2029.66 207.908L2030.9 208.402L2030.54 207.129L2031.41 206.107Z" fill="white"/>
<path d="M1859.6 77.8463L1857.28 77.751L1856.05 75.7936L1855.24 77.9502L1852.99 78.5132L1854.8 79.9509L1854.65 82.2461L1856.58 80.9729L1858.73 81.8304L1858.11 79.6131L1859.6 77.8463Z" fill="white"/>
<path d="M1964.02 194.466L1962.58 194.397L1961.81 193.184L1961.3 194.527L1959.9 194.882L1961.03 195.774L1960.93 197.203L1962.13 196.406L1963.48 196.943L1963.09 195.566L1964.02 194.466Z" fill="white"/>
<path d="M1354.86 203.76L1352.32 203.215L1351.31 200.815L1350 203.059L1347.4 203.258L1349.15 205.189L1348.53 207.71L1350.92 206.662L1353.14 208.021L1352.87 205.44L1354.86 203.76Z" fill="white"/>
<path d="M1658.75 203.164L1656.48 202.688L1655.6 200.557L1654.43 202.549L1652.12 202.723L1653.67 204.438L1653.12 206.681L1655.25 205.745L1657.23 206.949L1656.99 204.663L1658.75 203.164Z" fill="white"/>
<path d="M1368.85 128.315L1368.01 128.141L1367.67 127.345L1367.25 128.089L1366.39 128.15L1366.96 128.791L1366.76 129.623L1367.54 129.276L1368.28 129.718L1368.19 128.869L1368.85 128.315Z" fill="white"/>
<path d="M1760.85 219.471L1759.54 219.194L1759.02 217.964L1758.35 219.116L1757.02 219.22L1757.91 220.207L1757.59 221.498L1758.82 220.961L1759.97 221.662L1759.83 220.337L1760.85 219.471Z" fill="white"/>
<path d="M1487.38 209.329L1486.07 209.052L1485.57 207.822L1484.89 208.974L1483.55 209.069L1484.45 210.065L1484.14 211.356L1485.36 210.819L1486.5 211.512L1486.36 210.187L1487.38 209.329Z" fill="white"/>
<path d="M1339.69 54.2884L1337.42 53.8033L1336.54 51.6727L1335.37 53.6648L1333.05 53.8466L1334.61 55.5615L1334.06 57.7961L1336.18 56.8694L1338.16 58.0732L1337.92 55.7781L1339.69 54.2884Z" fill="white"/>
<path d="M1422.92 186.637L1421.5 186.334L1420.95 185.009L1420.23 186.248L1418.79 186.36L1419.76 187.426L1419.42 188.82L1420.74 188.24L1421.97 188.993L1421.82 187.564L1422.92 186.637Z" fill="white"/>
<path d="M2102.78 62.1253L2099.91 61.5104L2098.8 58.8255L2097.33 61.3372L2094.41 61.5624L2096.36 63.7276L2095.67 66.5598L2098.35 65.3819L2100.85 66.9063L2100.55 64.0135L2102.78 62.1253Z" fill="white"/>
<path d="M2680.67 38.6028L2678.4 38.1265L2677.52 35.9958L2676.35 37.9879L2674.04 38.1611L2675.59 39.876L2675.04 42.1192L2677.16 41.1838L2679.14 42.3877L2678.91 40.1012L2680.67 38.6028Z" fill="white"/>
<path d="M2715.06 176.99L2712.79 176.505L2711.91 174.383L2710.74 176.375L2708.43 176.548L2709.98 178.263L2709.43 180.506L2711.55 179.571L2713.53 180.774L2713.3 178.488L2715.06 176.99Z" fill="white"/>
<path d="M2449.53 87.841L2448.22 87.5638L2447.71 86.334L2447.03 87.4859L2445.7 87.5898L2446.6 88.5772L2446.28 89.8677L2447.51 89.3307L2448.65 90.0322L2448.51 88.7071L2449.53 87.841Z" fill="white"/>
<path d="M2613.46 157.977L2612.15 157.7L2611.64 156.47L2610.97 157.622L2609.63 157.726L2610.53 158.713L2610.21 160.003L2611.44 159.466L2612.58 160.168L2612.44 158.843L2613.46 157.977Z" fill="white"/>
<path d="M2459 196.952L2457.69 196.675L2457.18 195.445L2456.5 196.597L2455.17 196.701L2456.07 197.688L2455.74 198.979L2456.97 198.442L2458.12 199.144L2457.98 197.818L2459 196.952Z" fill="white"/>
<path d="M2592 247.429L2589.73 246.944L2588.85 244.813L2587.68 246.805L2585.37 246.987L2586.92 248.702L2586.37 250.937L2588.49 250.01L2590.47 251.214L2590.24 248.919L2592 247.429Z" fill="white"/>
<path d="M2560.42 97.4978L2559.41 97.2812L2559.02 96.3285L2558.5 97.2206L2557.46 97.2985L2558.16 98.0694L2557.91 99.0741L2558.85 98.6497L2559.74 99.1953L2559.64 98.1646L2560.42 97.4978Z" fill="white"/>
<defs>
<linearGradient id="paint0_linear_1042_14" x1="2592" y1="408" x2="2592" y2="63.7457" gradientUnits="userSpaceOnUse">
<stop stop-color="#CAF1F3"/>
<stop offset="1" stop-color="#DEF3F5"/>
</linearGradient>
</defs>
</svg>
