<svg width="1018" height="179" viewBox="0 0 1018 179" fill="none" xmlns="http://www.w3.org/2000/svg">
<path fill-rule="evenodd" clip-rule="evenodd" d="M987.476 2.57678e-05C1004.08 2.83911e-05 1017.55 13.4632 1017.55 30.0709C1017.55 46.6785 1004.08 60.1417 987.476 60.1417L791.688 60.1416V41.4156L776.504 41.4155V91.4157L771.018 91.4155V118.416L785.65 118.416V178.416L30.0001 178.416C13.4315 178.416 0 164.984 0 148.415C2.2533e-06 131.847 13.4315 118.415 30.0001 118.415H53.6874C53.0744 118.413 52.471 118.369 51.8799 118.288C58.2604 117.144 63.1026 111.566 63.1026 104.856C63.1026 98.2784 58.449 92.7877 52.2546 91.4967C52.7251 91.4451 53.2028 91.4176 53.6866 91.4155H46.0361C32.2289 91.4155 21.036 80.2226 21.036 66.4155C21.036 52.6083 32.229 41.4154 46.0361 41.4154L131.031 41.4154C133.77 41.091 135.895 38.761 135.895 35.9348C135.895 32.891 133.431 30.4226 130.388 30.4156L130.375 30.4156H126.455L113.778 30.4156C105.494 30.4156 98.7779 23.6998 98.7779 15.4155C98.7779 7.1312 105.494 0.415458 113.778 0.415459L791.688 0.415566V-5.1572e-06L987.476 2.57678e-05ZM996.668 112.487C996.668 98.6683 985.465 87.4656 971.646 87.4656H964.001C964.723 87.4626 965.432 87.4037 966.123 87.2928C959.521 86.3377 954.448 80.6551 954.448 73.7877C954.448 66.9571 959.466 61.2987 966.017 60.2983C965.341 60.1954 964.649 60.1421 963.944 60.1421L791.692 60.142V87.4657L791.685 87.4655V137.509L971.646 137.509C985.465 137.509 996.668 126.307 996.668 112.487ZM905.735 142.625C905.735 140.301 907.284 138.339 909.407 137.716C908.948 137.582 908.463 137.509 907.96 137.509L791.688 137.509V147.756H791.685V178.643L902.978 178.643C911.508 178.643 918.422 171.729 918.422 163.2C918.422 154.691 911.541 147.789 903.04 147.756H907.96C908.473 147.756 908.967 147.681 909.434 147.541C907.298 146.927 905.735 144.958 905.735 142.625ZM120.996 35.9154C120.996 35.9617 120.997 36.0078 120.998 36.0538V35.7771C120.997 35.8231 120.996 35.8692 120.996 35.9154Z" fill="url(#paint0_linear_940_11052)"/>
<defs>
<linearGradient id="paint0_linear_940_11052" x1="-18" y1="89" x2="985.922" y2="411.795" gradientUnits="userSpaceOnUse">
<stop offset="0.0264122" stop-color="#F78970"/>
<stop offset="1" stop-color="#FBCAAD"/>
</linearGradient>
</defs>
</svg>
