<svg width="1185" height="250" viewBox="0 0 1185 250" fill="none" xmlns="http://www.w3.org/2000/svg">
<path fill-rule="evenodd" clip-rule="evenodd" d="M90.7254 75.6272C69.8902 75.6272 53 58.737 53 37.9018C53 17.0667 69.8902 0.176407 90.7254 0.176407L186.999 0.176422V0.000274658L1126.1 0.000198364C1147.04 0.000183105 1164.02 16.9765 1164.02 37.9179C1164.02 57.5897 1149.04 73.7627 1129.86 75.6513C1130.76 75.7056 1131.63 75.8511 1132.46 76.0787L1094.59 76.0787C1087.64 76.0788 1082 81.7154 1082 88.6686C1082 94.7481 1086.31 99.821 1092.04 101L1111 101C1113.1 101 1115.18 101.087 1117.23 101.258L1131.55 101.258C1130.74 101.414 1129.91 101.496 1129.07 101.496H1119.62C1156.43 105.765 1185 137.045 1185 175C1185 215.869 1151.87 249 1111 249L940 249V249.164L73.834 249.164C33.0566 249.164 3.30734e-06 216.107 0 175.33C-3.30734e-06 134.553 33.0566 101.496 73.834 101.496H87.834C87.4351 101.493 87.0405 101.472 86.651 101.433L92.6289 101.433C99.5821 101.434 105.219 95.7968 105.219 88.8436C105.219 81.8905 99.5821 76.2538 92.6289 76.2538L83.947 76.2537C85.203 75.8472 86.5431 75.6274 87.9345 75.6274L186.999 75.6275V75.6273L90.7254 75.6272Z" fill="#F8FDFD"/>
</svg>
