<svg width="4010" height="622" viewBox="0 0 4010 622" fill="none" xmlns="http://www.w3.org/2000/svg">
<rect width="4010" height="622" fill="white"/>
<mask id="mask0_1042_12" style="mask-type:alpha" maskUnits="userSpaceOnUse" x="0" y="4" width="2709" height="618">
<rect width="2709" height="618" transform="matrix(1 0 0 -1 0 622)" fill="#D9D9D9"/>
</mask>
<g mask="url(#mask0_1042_12)">
<mask id="mask1_1042_12" style="mask-type:alpha" maskUnits="userSpaceOnUse" x="0" y="3" width="2671" height="619">
<path fill-rule="evenodd" clip-rule="evenodd" d="M2671 139C2671 64.4417 2610.56 4.00006 2536 4.00005L0.000254794 3.99988V241L0.000224517 274L0.000254794 351L0.000238646 385L0.000243468 452L0.000132723 452L0.000124313 527H1.0653e-05L0 622L1519.5 622C1545.73 622 1567 600.734 1567 574.5C1567 548.266 1545.73 527 1519.5 527L1436 527V452L2513.5 452C2541.39 452 2564 429.39 2564 401.5C2564 373.61 2541.39 351 2513.5 351H2504V274H2536C2610.56 274 2671 213.559 2671 139Z" fill="url(#paint0_linear_1042_12)"/>
</mask>
<g mask="url(#mask1_1042_12)">
<path fill-rule="evenodd" clip-rule="evenodd" d="M2671 139C2671 64.4417 2610.56 4.00006 2536 4.00005L3.02768e-05 3.99988V273L0 274L3.02768e-05 351L2.13059e-05 353L1.89511e-05 452L2.18666e-05 527L0.000274417 527L0.000263765 622L1520.5 622C1546.73 622 1568 600.734 1568 574.5C1568 548.267 1546.73 527 1520.5 527L1436 527V452L2513.5 452C2541.39 452 2564 429.39 2564 401.5C2564 373.61 2541.39 351 2513.5 351H2504V274H2536C2610.56 274 2671 213.559 2671 139Z" fill="#FAFBFD"/>
<path d="M1590.77 606.899L1587.97 606.77L1586.48 604.245L1585.5 607.038L1582.79 607.754L1584.98 609.612L1584.79 612.574L1587.12 610.934L1589.72 612.047L1588.97 609.175L1590.77 606.899Z" fill="white"/>
<path d="M1911.94 548.182L1909.45 548.062L1908.13 545.826L1907.26 548.301L1904.85 548.947L1906.79 550.587L1906.63 553.23L1908.7 551.769L1911.01 552.753L1910.34 550.209L1911.94 548.182Z" fill="white"/>
<path d="M1591.87 518.883L1590.95 518.843L1590.47 518.008L1590.14 518.923L1589.24 519.161L1589.97 519.777L1589.91 520.751L1590.67 520.215L1591.54 520.583L1591.28 519.638L1591.87 518.883Z" fill="white"/>
<path d="M2022.84 547.128L2021.4 547.059L2020.64 545.767L2020.13 547.198L2018.74 547.566L2019.87 548.52L2019.77 550.04L2020.97 549.196L2022.29 549.762L2021.91 548.301L2022.84 547.128Z" fill="white"/>
<path d="M1731.88 587.887L1730.44 587.817L1729.69 586.525L1729.18 587.956L1727.79 588.324L1728.91 589.278L1728.81 590.799L1730.01 589.954L1731.34 590.521L1730.96 589.06L1731.88 587.887Z" fill="white"/>
<path d="M1547.63 440.706L1545.14 440.596L1543.82 438.35L1542.95 440.825L1540.54 441.471L1542.49 443.121L1542.32 445.755L1544.39 444.294L1546.7 445.278L1546.03 442.733L1547.63 440.706Z" fill="white"/>
<path d="M1659.61 574.529L1658.07 574.45L1657.24 573.058L1656.7 574.599L1655.2 575.006L1656.41 576.03L1656.3 577.67L1657.59 576.756L1659.03 577.372L1658.62 575.792L1659.61 574.529Z" fill="white"/>
<path d="M1006.33 585.193L1003.6 584.567L1002.52 581.814L1001.12 584.388L998.332 584.617L1000.2 586.833L999.539 589.725L1002.1 588.523L1004.49 590.083L1004.2 587.121L1006.33 585.193Z" fill="white"/>
<path d="M1332.23 584.508L1329.8 583.961L1328.86 581.516L1327.6 583.802L1325.12 584.001L1326.79 585.969L1326.2 588.543L1328.47 587.469L1330.6 588.851L1330.34 586.227L1332.23 584.508Z" fill="white"/>
<path d="M1021.33 498.618L1020.43 498.42L1020.07 497.505L1019.61 498.36L1018.7 498.43L1019.3 499.165L1019.09 500.119L1019.93 499.722L1020.72 500.229L1020.62 499.255L1021.33 498.618Z" fill="white"/>
<path d="M1441.73 603.222L1440.32 602.904L1439.77 601.493L1439.05 602.814L1437.62 602.934L1438.58 604.067L1438.23 605.547L1439.55 604.931L1440.78 605.736L1440.63 604.216L1441.73 603.222Z" fill="white"/>
<path d="M1148.45 591.584L1147.05 591.266L1146.51 589.855L1145.79 591.176L1144.34 591.286L1145.31 592.429L1144.97 593.909L1146.28 593.293L1147.51 594.088L1147.36 592.568L1148.45 591.584Z" fill="white"/>
<path d="M990.058 413.673L987.625 413.116L986.68 410.671L985.425 412.957L982.945 413.166L984.611 415.134L984.022 417.698L986.296 416.634L988.42 418.016L988.168 415.382L990.058 413.673Z" fill="white"/>
<path d="M1079.32 565.545L1077.8 565.197L1077.21 563.676L1076.43 565.098L1074.89 565.227L1075.93 566.449L1075.56 568.049L1076.98 567.383L1078.3 568.248L1078.14 566.608L1079.32 565.545Z" fill="white"/>
<path d="M1808.43 422.667L1805.35 421.962L1804.15 418.881L1802.58 421.763L1799.45 422.021L1801.54 424.506L1800.8 427.756L1803.68 426.404L1806.35 428.153L1806.03 424.834L1808.43 422.667Z" fill="white"/>
<path d="M2428.18 395.674L2425.75 395.127L2424.8 392.682L2423.55 394.968L2421.07 395.167L2422.73 397.135L2422.14 399.709L2424.42 398.636L2426.54 400.017L2426.29 397.393L2428.18 395.674Z" fill="white"/>
<path d="M2465.05 554.473L2462.62 553.916L2461.68 551.481L2460.42 553.767L2457.94 553.966L2459.61 555.934L2459.02 558.508L2461.29 557.435L2463.42 558.816L2463.16 556.192L2465.05 554.473Z" fill="white"/>
<path d="M2180.3 452.175L2178.89 451.857L2178.34 450.445L2177.62 451.767L2176.19 451.887L2177.15 453.02L2176.81 454.5L2178.12 453.884L2179.35 454.689L2179.2 453.169L2180.3 452.175Z" fill="white"/>
<path d="M2356.1 532.658L2354.7 532.34L2354.15 530.929L2353.43 532.25L2352 532.37L2352.96 533.503L2352.61 534.984L2353.93 534.367L2355.16 535.172L2355.01 533.652L2356.1 532.658Z" fill="white"/>
<path d="M2190.45 577.382L2189.05 577.063L2188.5 575.652L2187.78 576.974L2186.34 577.093L2187.31 578.226L2186.96 579.707L2188.28 579.091L2189.51 579.896L2189.36 578.375L2190.45 577.382Z" fill="white"/>
<path d="M2299.22 463.256L2298.14 463.008L2297.71 461.915L2297.15 462.938L2296.04 463.028L2296.79 463.912L2296.53 465.065L2297.54 464.578L2298.49 465.204L2298.38 464.022L2299.22 463.256Z" fill="white"/>
</g>
<rect x="2557.51" y="351.597" width="99.475" height="77.5518" rx="38.7759" transform="rotate(180 2557.51 351.597)" fill="white"/>
<rect x="1495.82" y="527" width="99.2059" height="75" rx="37.5" transform="rotate(180 1495.82 527)" fill="white"/>
</g>
<defs>
<linearGradient id="paint0_linear_1042_12" x1="1923.16" y1="276.815" x2="1467.05" y2="-168.193" gradientUnits="userSpaceOnUse">
<stop stop-color="#00506E"/>
<stop offset="1" stop-color="#36768A"/>
</linearGradient>
</defs>
</svg>
