<svg width="4010" height="561" viewBox="0 0 4010 561" fill="none" xmlns="http://www.w3.org/2000/svg">
<rect y="1" width="4010" height="560" fill="white"/>
<mask id="mask0_991_641" style="mask-type:alpha" maskUnits="userSpaceOnUse" x="1151" y="426" width="203" height="57">
<rect x="1151" y="426" width="203" height="57" fill="#D9D9D9"/>
</mask>
<g mask="url(#mask0_991_641)">
<path fill-rule="evenodd" clip-rule="evenodd" d="M1255.77 486.812C1250.64 490.096 1244.54 492 1238 492C1231.22 492 1224.91 489.954 1219.67 486.447C1215.58 489.911 1210.28 492 1204.5 492C1200.32 492 1196.4 490.909 1193 488.996C1190.31 490.888 1187.03 492 1183.5 492C1179.24 492 1175.36 490.388 1172.44 487.74C1170.33 490.339 1167.11 492 1163.5 492C1157.15 492 1152 486.851 1152 480.5C1152 474.149 1157.15 469 1163.5 469C1165.09 469 1166.6 469.321 1167.97 469.903C1170.21 463.695 1176.07 459.215 1183 459.008C1186.64 450.757 1194.9 445 1204.5 445C1205.69 445 1206.85 445.088 1207.99 445.257C1213.2 433.893 1224.68 426 1238 426C1251.27 426 1262.72 433.837 1267.96 445.136C1268.79 445.046 1269.64 445 1270.5 445C1273.68 445 1276.72 445.633 1279.49 446.781C1284.11 442.568 1290.25 440 1297 440C1308.94 440 1318.99 448.044 1322.05 459.006C1322.2 459.002 1322.35 459 1322.5 459C1329.65 459 1335.73 463.545 1338.03 469.903C1339.4 469.321 1340.91 469 1342.5 469C1348.85 469 1354 474.149 1354 480.5C1354 486.851 1348.85 492 1342.5 492C1338.89 492 1335.67 490.339 1333.56 487.74C1330.64 490.388 1326.76 492 1322.5 492C1318.21 492 1314.3 490.361 1311.36 487.675C1307.25 490.408 1302.31 492 1297 492C1292.01 492 1287.35 490.593 1283.39 488.155C1279.69 490.586 1275.26 492 1270.5 492C1264.92 492 1259.8 490.057 1255.77 486.812Z" fill="white"/>
</g>
<mask id="mask1_991_641" style="mask-type:alpha" maskUnits="userSpaceOnUse" x="1511" y="79" width="87" height="25">
<rect width="87" height="24.4286" transform="matrix(-1 0 0 1 1598 79)" fill="#D9D9D9"/>
</mask>
<g mask="url(#mask1_991_641)">
<path fill-rule="evenodd" clip-rule="evenodd" d="M1553.1 105.061C1555.3 106.469 1557.91 107.285 1560.71 107.285C1563.62 107.285 1566.32 106.408 1568.57 104.905C1570.32 106.389 1572.59 107.285 1575.07 107.285C1576.86 107.285 1578.54 106.817 1580 105.997C1581.15 106.808 1582.56 107.285 1584.07 107.285C1585.89 107.285 1587.56 106.593 1588.81 105.459C1589.72 106.572 1591.1 107.284 1592.64 107.284C1595.36 107.284 1597.57 105.077 1597.57 102.355C1597.57 99.6335 1595.36 97.4269 1592.64 97.4269C1591.96 97.4269 1591.31 97.5647 1590.72 97.8138C1589.76 95.1537 1587.26 93.2341 1584.29 93.145C1582.72 89.6091 1579.19 87.1417 1575.07 87.1417C1574.56 87.1417 1574.06 87.1794 1573.57 87.252C1571.34 82.3817 1566.42 78.9991 1560.71 78.9991C1555.02 78.9991 1550.12 82.3577 1547.88 87.2001C1547.52 87.1615 1547.15 87.1417 1546.78 87.1417C1545.42 87.1417 1544.12 87.4131 1542.93 87.9049C1540.95 86.0998 1538.32 84.9991 1535.43 84.9991C1530.31 84.9991 1526 88.4462 1524.69 93.1443C1524.63 93.1426 1524.56 93.1417 1524.5 93.1417C1521.44 93.1417 1518.83 95.0893 1517.84 97.8138C1517.26 97.5647 1516.61 97.4269 1515.93 97.4269C1513.21 97.4269 1511 99.6335 1511 102.355C1511 105.077 1513.21 107.284 1515.93 107.284C1517.47 107.284 1518.85 106.572 1519.76 105.459C1521.01 106.593 1522.67 107.285 1524.5 107.285C1526.34 107.285 1528.01 106.582 1529.27 105.431C1531.04 106.603 1533.15 107.285 1535.43 107.285C1537.57 107.285 1539.57 106.682 1541.26 105.637C1542.85 106.679 1544.75 107.285 1546.78 107.285C1549.17 107.285 1551.37 106.452 1553.1 105.061Z" fill="white"/>
</g>
<mask id="mask2_991_641" style="mask-type:alpha" maskUnits="userSpaceOnUse" x="2083" y="103" width="269" height="76">
<rect x="2083" y="103" width="269" height="75.532" fill="#D9D9D9"/>
</mask>
<g mask="url(#mask2_991_641)">
<path fill-rule="evenodd" clip-rule="evenodd" d="M2221.83 183.583C2215.04 187.935 2206.95 190.458 2198.28 190.458C2189.3 190.458 2180.95 187.747 2174 183.099C2168.57 187.69 2161.56 190.458 2153.89 190.458C2148.35 190.458 2143.15 189.012 2138.65 186.477C2135.09 188.985 2130.75 190.458 2126.07 190.458C2120.42 190.458 2115.28 188.322 2111.4 184.813C2108.61 188.257 2104.34 190.458 2099.56 190.458C2091.15 190.458 2084.32 183.635 2084.32 175.219C2084.32 166.803 2091.15 159.98 2099.56 159.98C2101.67 159.98 2103.67 160.406 2105.49 161.176C2108.46 152.95 2116.22 147.015 2125.4 146.739C2130.23 135.806 2141.17 128.177 2153.89 128.177C2155.46 128.177 2157.01 128.294 2158.52 128.518C2165.42 113.459 2180.63 103 2198.28 103C2215.87 103 2231.04 113.385 2237.98 128.358C2239.09 128.239 2240.21 128.177 2241.35 128.177C2245.57 128.177 2249.59 129.016 2253.26 130.537C2259.39 124.955 2267.53 121.552 2276.47 121.552C2292.28 121.552 2305.61 132.21 2309.66 146.737C2309.86 146.732 2310.06 146.729 2310.26 146.729C2319.73 146.729 2327.79 152.752 2330.83 161.176C2332.65 160.406 2334.66 159.98 2336.76 159.98C2345.18 159.98 2352 166.803 2352 175.219C2352 183.635 2345.18 190.458 2336.76 190.458C2331.98 190.458 2327.71 188.257 2324.92 184.813C2321.04 188.322 2315.9 190.458 2310.26 190.458C2304.57 190.458 2299.39 188.287 2295.5 184.728C2290.05 188.349 2283.5 190.458 2276.47 190.458C2269.85 190.458 2263.67 188.594 2258.43 185.363C2253.52 188.584 2247.66 190.458 2241.35 190.458C2233.96 190.458 2227.17 187.884 2221.83 183.583Z" fill="white"/>
</g>
<mask id="mask3_991_641" style="mask-type:alpha" maskUnits="userSpaceOnUse" x="2381" y="336" width="129" height="37">
<rect width="129" height="36.2217" transform="matrix(-1 0 0 1 2510 336)" fill="#D9D9D9"/>
</mask>
<g mask="url(#mask3_991_641)">
<path fill-rule="evenodd" clip-rule="evenodd" d="M2443.42 374.644C2446.68 376.731 2450.56 377.941 2454.71 377.941C2459.02 377.941 2463.03 376.641 2466.36 374.412C2468.96 376.613 2472.33 377.94 2476 377.94C2478.66 377.94 2481.15 377.247 2483.31 376.032C2485.02 377.235 2487.1 377.941 2489.35 377.941C2492.05 377.941 2494.52 376.917 2496.38 375.234C2497.72 376.886 2499.76 377.941 2502.06 377.941C2506.09 377.941 2509.36 374.669 2509.36 370.633C2509.36 366.597 2506.09 363.325 2502.06 363.325C2501.05 363.325 2500.09 363.53 2499.21 363.899C2497.79 359.954 2494.07 357.108 2489.67 356.975C2487.35 351.732 2482.1 348.073 2476 348.073C2475.25 348.073 2474.51 348.129 2473.78 348.237C2470.47 341.015 2463.18 336 2454.71 336C2446.28 336 2439.01 340.98 2435.68 348.16C2435.15 348.103 2434.61 348.073 2434.06 348.073C2432.04 348.073 2430.11 348.476 2428.35 349.205C2425.41 346.529 2421.51 344.897 2417.22 344.897C2409.64 344.897 2403.24 350.008 2401.3 356.975C2401.21 356.972 2401.11 356.971 2401.02 356.971C2396.47 356.971 2392.61 359.859 2391.15 363.899C2390.28 363.53 2389.32 363.325 2388.31 363.325C2384.27 363.325 2381 366.597 2381 370.633C2381 374.669 2384.27 377.941 2388.31 377.941C2390.6 377.941 2392.65 376.886 2393.98 375.234C2395.84 376.917 2398.31 377.941 2401.02 377.941C2403.74 377.941 2406.23 376.9 2408.09 375.193C2410.71 376.93 2413.85 377.942 2417.22 377.942C2420.39 377.942 2423.36 377.048 2425.87 375.498C2428.22 377.042 2431.04 377.94 2434.06 377.94C2437.6 377.94 2440.86 376.706 2443.42 374.644Z" fill="white"/>
</g>
<path fill-rule="evenodd" clip-rule="evenodd" d="M0 0H2685V78C2685 133.228 2640.23 178 2585 178H2545.5C2546.35 178 2547.19 178.025 2548.02 178.073C2525.72 179.378 2508.04 197.874 2508.04 220.5C2508.04 243.126 2525.72 261.622 2548.02 262.927C2547.19 262.975 2546.35 263 2545.5 263H2583C2618.35 263 2647 291.654 2647 327C2647 362.346 2618.35 391 2583 391H2174.72C2162.3 391 2152.22 401.074 2152.22 413.5C2152.22 425.922 2162.29 435.993 2174.71 436H2291.5C2326.02 436 2354 463.982 2354 498.5C2354 533.018 2326.02 561 2291.5 561H0V436H0.00195312V391H0V263H0.00195312V178H0V0Z" fill="url(#paint0_linear_991_641)"/>
<path d="M1959.23 130.538L1961.84 130.651L1963.23 132.851L1964.14 130.417L1966.68 129.793L1964.63 128.174L1964.81 125.593L1962.64 127.022L1960.21 126.052L1960.91 128.555L1959.23 130.538Z" fill="white"/>
<path d="M1659.75 181.707L1662.07 181.811L1663.3 183.76L1664.12 181.604L1666.37 181.041L1664.55 179.611L1664.71 177.308L1662.77 178.581L1660.62 177.723L1661.24 179.941L1659.75 181.707Z" fill="white"/>
<path d="M1958.2 207.24L1959.06 207.274L1959.51 208.002L1959.81 207.205L1960.65 206.997L1959.97 206.46L1960.03 205.611L1959.32 206.079L1958.51 205.759L1958.75 206.581L1958.2 207.24Z" fill="white"/>
<path d="M1556.35 182.625L1557.69 182.686L1558.4 183.812L1558.87 182.565L1560.17 182.244L1559.11 181.413L1559.21 180.088L1558.09 180.824L1556.85 180.33L1557.21 181.603L1556.35 182.625Z" fill="white"/>
<path d="M1827.65 147.107L1828.99 147.168L1829.7 148.294L1830.17 147.047L1831.47 146.726L1830.42 145.895L1830.51 144.569L1829.39 145.306L1828.15 144.812L1828.51 146.085L1827.65 147.107Z" fill="white"/>
<path d="M1999.45 275.368L2001.77 275.463L2003 277.42L2003.81 275.264L2006.07 274.701L2004.25 273.263L2004.41 270.968L2002.47 272.241L2000.32 271.384L2000.94 273.601L1999.45 275.368Z" fill="white"/>
<path d="M1895.04 158.747L1896.48 158.817L1897.25 160.029L1897.75 158.687L1899.16 158.332L1898.02 157.44L1898.13 156.01L1896.92 156.807L1895.58 156.27L1895.96 157.647L1895.04 158.747Z" fill="white"/>
<path d="M2504.19 149.454L2506.74 150L2507.74 152.399L2509.05 150.156L2511.65 149.956L2509.91 148.025L2510.53 145.505L2508.14 146.553L2505.91 145.193L2506.18 147.774L2504.19 149.454Z" fill="white"/>
<path d="M2200.3 150.05L2202.57 150.526L2203.45 152.657L2204.62 150.665L2206.93 150.492L2205.38 148.777L2205.93 146.534L2203.81 147.469L2201.83 146.265L2202.06 148.552L2200.3 150.05Z" fill="white"/>
<path d="M2490.2 224.899L2491.05 225.073L2491.38 225.869L2491.81 225.124L2492.66 225.064L2492.1 224.423L2492.3 223.591L2491.51 223.938L2490.78 223.496L2490.87 224.345L2490.2 224.899Z" fill="white"/>
<path d="M2098.21 133.743L2099.52 134.02L2100.03 135.25L2100.7 134.098L2102.04 133.994L2101.14 133.007L2101.46 131.716L2100.23 132.253L2099.09 131.552L2099.23 132.877L2098.21 133.743Z" fill="white"/>
<path d="M2371.67 143.885L2372.98 144.162L2373.49 145.392L2374.16 144.24L2375.5 144.145L2374.61 143.149L2374.92 141.858L2373.7 142.395L2372.55 141.702L2372.69 143.027L2371.67 143.885Z" fill="white"/>
<path d="M2519.37 298.926L2521.64 299.411L2522.52 301.541L2523.69 299.549L2526 299.367L2524.45 297.652L2525 295.418L2522.88 296.345L2520.89 295.141L2521.13 297.436L2519.37 298.926Z" fill="white"/>
<path d="M2436.14 166.576L2437.55 166.879L2438.1 168.204L2438.83 166.966L2440.27 166.853L2439.3 165.788L2439.64 164.394L2438.32 164.974L2437.09 164.22L2437.24 165.649L2436.14 166.576Z" fill="white"/>
<path d="M1756.27 291.089L1759.14 291.703L1760.26 294.388L1761.72 291.877L1764.65 291.651L1762.69 289.486L1763.38 286.654L1760.7 287.832L1758.21 286.308L1758.5 289.2L1756.27 291.089Z" fill="white"/>
<path d="M1178.38 314.611L1180.65 315.088L1181.53 317.218L1182.7 315.226L1185.02 315.053L1183.46 313.338L1184.01 311.095L1181.89 312.03L1179.91 310.826L1180.15 313.113L1178.38 314.611Z" fill="white"/>
<path d="M1144 176.225L1146.27 176.71L1147.15 178.832L1148.32 176.84L1150.63 176.666L1149.08 174.951L1149.63 172.708L1147.5 173.644L1145.52 172.44L1145.76 174.726L1144 176.225Z" fill="white"/>
<path d="M1409.52 265.373L1410.83 265.65L1411.35 266.88L1412.02 265.728L1413.36 265.624L1412.46 264.637L1412.77 263.346L1411.55 263.883L1410.41 263.182L1410.55 264.507L1409.52 265.373Z" fill="white"/>
<path d="M1245.59 195.237L1246.9 195.514L1247.41 196.744L1248.09 195.592L1249.42 195.488L1248.52 194.501L1248.85 193.21L1247.62 193.747L1246.47 193.046L1246.61 194.371L1245.59 195.237Z" fill="white"/>
<path d="M1400.06 156.262L1401.36 156.539L1401.88 157.769L1402.55 156.617L1403.89 156.513L1402.99 155.526L1403.31 154.235L1402.08 154.772L1400.94 154.071L1401.08 155.396L1400.06 156.262Z" fill="white"/>
<path d="M1267.06 105.785L1269.32 106.27L1270.21 108.401L1271.37 106.408L1273.69 106.227L1272.13 104.512L1272.68 102.277L1270.56 103.204L1268.58 102L1268.82 104.295L1267.06 105.785Z" fill="white"/>
<path d="M1298.63 255.716L1299.64 255.933L1300.04 256.885L1300.56 255.993L1301.6 255.915L1300.9 255.145L1301.14 254.14L1300.2 254.564L1299.31 254.019L1299.42 255.049L1298.63 255.716Z" fill="white"/>
<path d="M1952.05 464.741L1951.07 464.783L1950.54 465.611L1950.2 464.695L1949.25 464.46L1950.01 463.851L1949.95 462.879L1950.77 463.417L1951.68 463.052L1951.42 463.994L1952.05 464.741Z" fill="white"/>
<path d="M2064.76 483.999L2063.89 484.038L2063.43 484.772L2063.12 483.96L2062.27 483.748L2062.96 483.21L2062.9 482.343L2063.63 482.822L2064.43 482.5L2064.2 483.334L2064.76 483.999Z" fill="white"/>
<path d="M1952.43 493.608L1952.11 493.621L1951.94 493.895L1951.83 493.595L1951.51 493.517L1951.77 493.315L1951.74 492.996L1952.01 493.172L1952.32 493.051L1952.23 493.361L1952.43 493.608Z" fill="white"/>
<path d="M2103.68 484.345L2103.17 484.368L2102.91 484.791L2102.73 484.322L2102.24 484.201L2102.64 483.888L2102.6 483.39L2103.02 483.667L2103.49 483.481L2103.36 483.96L2103.68 484.345Z" fill="white"/>
<path d="M2001.57 470.977L2001.07 470.999L2000.8 471.423L2000.62 470.954L2000.13 470.833L2000.53 470.52L2000.49 470.021L2000.91 470.299L2001.38 470.113L2001.25 470.592L2001.57 470.977Z" fill="white"/>
<path d="M1936.91 519.249L1936.04 519.285L1935.57 520.022L1935.27 519.21L1934.42 518.998L1935.11 518.457L1935.05 517.593L1935.78 518.072L1936.58 517.75L1936.35 518.584L1936.91 519.249Z" fill="white"/>
<path d="M1976.21 475.358L1975.67 475.384L1975.38 475.84L1975.19 475.335L1974.66 475.201L1975.09 474.865L1975.05 474.328L1975.5 474.628L1976.01 474.425L1975.86 474.944L1976.21 475.358Z" fill="white"/>
<path d="M1746.94 471.86L1745.99 472.065L1745.61 472.968L1745.12 472.124L1744.14 472.049L1744.79 471.322L1744.56 470.373L1745.46 470.768L1746.3 470.256L1746.2 471.227L1746.94 471.86Z" fill="white"/>
<path d="M1861.32 472.085L1860.47 472.264L1860.13 473.066L1859.69 472.316L1858.82 472.251L1859.41 471.605L1859.2 470.761L1860 471.113L1860.75 470.66L1860.66 471.521L1861.32 472.085Z" fill="white"/>
<path d="M1752.21 500.255L1751.89 500.32L1751.77 500.62L1751.61 500.34L1751.29 500.317L1751.5 500.076L1751.42 499.763L1751.72 499.893L1751.99 499.727L1751.96 500.046L1752.21 500.255Z" fill="white"/>
<path d="M1899.74 465.947L1899.25 466.051L1899.06 466.514L1898.8 466.08L1898.3 466.041L1898.64 465.67L1898.52 465.184L1898.98 465.386L1899.41 465.122L1899.36 465.621L1899.74 465.947Z" fill="white"/>
<path d="M1796.82 469.764L1796.33 469.868L1796.14 470.331L1795.88 469.897L1795.38 469.861L1795.72 469.487L1795.6 469.001L1796.06 469.203L1796.49 468.942L1796.44 469.441L1796.82 469.764Z" fill="white"/>
<path d="M1741.23 528.115L1740.38 528.298L1740.05 529.1L1739.61 528.35L1738.74 528.282L1739.32 527.636L1739.12 526.795L1739.91 527.144L1740.66 526.691L1740.57 527.555L1741.23 528.115Z" fill="white"/>
<path d="M1772.56 478.304L1772.03 478.418L1771.82 478.917L1771.55 478.451L1771 478.409L1771.37 478.008L1771.24 477.483L1771.74 477.701L1772.2 477.418L1772.14 477.955L1772.56 478.304Z" fill="white"/>
<path d="M2028.43 525.166L2027.35 525.397L2026.93 526.408L2026.38 525.462L2025.28 525.378L2026.02 524.563L2025.76 523.497L2026.77 523.94L2027.71 523.366L2027.59 524.455L2028.43 525.166Z" fill="white"/>
<path d="M2245.93 534.019L2245.08 534.198L2244.74 535L2244.3 534.25L2243.43 534.185L2244.02 533.54L2243.81 532.695L2244.61 533.047L2245.36 532.594L2245.27 533.455L2245.93 534.019Z" fill="white"/>
<path d="M2258.87 481.935L2258.02 482.118L2257.69 482.917L2257.25 482.167L2256.38 482.102L2256.96 481.456L2256.75 480.612L2257.55 480.964L2258.3 480.511L2258.21 481.372L2258.87 481.935Z" fill="white"/>
<path d="M2158.94 515.488L2158.45 515.592L2158.25 516.055L2158 515.621L2157.5 515.582L2157.83 515.211L2157.72 514.725L2158.18 514.927L2158.61 514.663L2158.55 515.162L2158.94 515.488Z" fill="white"/>
<path d="M2220.64 489.091L2220.14 489.195L2219.95 489.658L2219.7 489.224L2219.2 489.185L2219.53 488.814L2219.41 488.328L2219.88 488.53L2220.31 488.266L2220.25 488.765L2220.64 489.091Z" fill="white"/>
<path d="M2162.5 474.422L2162.01 474.526L2161.81 474.989L2161.56 474.556L2161.06 474.516L2161.4 474.145L2161.28 473.659L2161.74 473.861L2162.17 473.597L2162.12 474.096L2162.5 474.422Z" fill="white"/>
<path d="M2212.56 455.424L2211.7 455.607L2211.37 456.409L2210.93 455.659L2210.06 455.591L2210.65 454.945L2210.44 454.104L2211.24 454.453L2211.98 454L2211.9 454.864L2212.56 455.424Z" fill="white"/>
<path d="M2200.68 511.853L2200.29 511.934L2200.15 512.293L2199.95 511.957L2199.56 511.928L2199.82 511.638L2199.73 511.26L2200.08 511.419L2200.42 511.214L2200.38 511.602L2200.68 511.853Z" fill="white"/>
<path fill-rule="evenodd" clip-rule="evenodd" d="M1115.88 510.778C1108.6 514.233 1099.95 516.235 1090.67 516.235C1081.05 516.235 1072.11 514.084 1064.68 510.394C1058.87 514.038 1051.36 516.236 1043.15 516.236C1037.22 516.236 1031.66 515.088 1026.83 513.076C1023.03 515.066 1018.38 516.235 1013.37 516.235C1007.33 516.235 1001.82 514.539 997.671 511.753C994.68 514.487 990.113 516.235 984.996 516.235C975.987 516.235 968.684 510.818 968.684 504.137C968.684 497.456 975.987 492.039 984.996 492.039C987.247 492.039 989.392 492.378 991.343 492.989C994.518 486.459 1002.82 481.746 1012.65 481.528C1017.83 472.849 1029.54 466.793 1043.15 466.793C1044.84 466.793 1046.49 466.886 1048.1 467.064C1055.5 455.108 1071.78 446.805 1090.67 446.805C1109.5 446.805 1125.73 455.05 1133.16 466.936C1134.35 466.842 1135.55 466.793 1136.77 466.793C1141.29 466.793 1145.59 467.459 1149.52 468.666C1156.08 464.234 1164.79 461.531 1174.36 461.531C1191.29 461.531 1205.56 469.993 1209.89 481.526C1210.11 481.522 1210.32 481.52 1210.53 481.52C1220.67 481.52 1229.31 486.301 1232.56 492.989C1234.51 492.378 1236.65 492.039 1238.9 492.039C1247.91 492.039 1255.22 497.456 1255.22 504.137C1255.22 510.818 1247.91 516.235 1238.9 516.235C1233.79 516.235 1229.22 514.487 1226.23 511.753C1222.08 514.539 1216.57 516.235 1210.53 516.235C1204.45 516.235 1198.9 514.511 1194.74 511.685C1188.9 514.56 1181.89 516.234 1174.36 516.234C1167.28 516.234 1160.67 514.755 1155.05 512.19C1149.8 514.748 1143.52 516.236 1136.77 516.236C1128.86 516.236 1121.59 514.192 1115.88 510.778Z" fill="white"/>
<mask id="mask4_991_641" style="mask-type:alpha" maskUnits="userSpaceOnUse" x="2073" y="100" width="278" height="58">
<rect x="2073" y="100" width="277.504" height="57.7876" fill="#D9D9D9"/>
</mask>
<g mask="url(#mask4_991_641)">
<path fill-rule="evenodd" clip-rule="evenodd" d="M2216.22 161.65C2209.21 164.981 2200.87 166.912 2191.93 166.912C2182.66 166.912 2174.04 164.837 2166.87 161.28C2161.27 164.791 2154.04 166.907 2146.13 166.907C2140.42 166.907 2135.06 165.803 2130.42 163.866C2126.74 165.788 2122.26 166.917 2117.43 166.917C2111.61 166.917 2106.3 165.283 2102.3 162.599C2099.42 165.232 2095.02 166.915 2090.09 166.915C2081.41 166.915 2074.37 161.696 2074.37 155.257C2074.37 148.818 2081.41 143.598 2090.09 143.598C2092.26 143.598 2094.32 143.923 2096.2 144.512C2099.26 138.221 2107.26 133.681 2116.73 133.469C2121.71 125.099 2133 119.258 2146.13 119.258C2147.76 119.258 2149.35 119.347 2150.91 119.519C2158.03 108 2173.72 100 2191.93 100C2210.07 100 2225.71 107.943 2232.87 119.396C2234.02 119.305 2235.18 119.258 2236.36 119.258C2240.71 119.258 2244.86 119.9 2248.65 121.064C2254.96 116.795 2263.36 114.191 2272.58 114.191C2288.9 114.191 2302.65 122.35 2306.83 133.467C2307.03 133.463 2307.24 133.461 2307.44 133.461C2317.21 133.461 2325.53 138.068 2328.67 144.513C2330.55 143.924 2332.61 143.598 2334.78 143.598C2343.46 143.598 2350.5 148.818 2350.5 155.257C2350.5 161.696 2343.46 166.915 2334.78 166.915C2329.85 166.915 2325.45 165.232 2322.57 162.598C2318.57 165.282 2313.26 166.917 2307.44 166.917C2301.57 166.917 2296.22 165.254 2292.21 162.529C2286.59 165.297 2279.84 166.91 2272.58 166.91C2265.76 166.91 2259.38 165.483 2253.97 163.011C2248.91 165.474 2242.86 166.907 2236.36 166.907C2228.73 166.907 2221.73 164.939 2216.22 161.65Z" fill="white"/>
</g>
<defs>
<linearGradient id="paint0_linear_991_641" x1="1342.5" y1="0" x2="1342.5" y2="473.35" gradientUnits="userSpaceOnUse">
<stop stop-color="#CAF1F3"/>
<stop offset="1" stop-color="#DEF3F5"/>
</linearGradient>
</defs>
</svg>
