<svg width="4010" height="618" viewBox="0 0 4010 618" fill="none" xmlns="http://www.w3.org/2000/svg">
<mask id="mask0_4018_3123" style="mask-type:alpha" maskUnits="userSpaceOnUse" x="0" y="0" width="4010" height="618">
<rect width="4010" height="618" fill="#D9D9D9"/>
</mask>
<g mask="url(#mask0_4018_3123)">
<mask id="mask1_4018_3123" style="mask-type:alpha" maskUnits="userSpaceOnUse" x="0" y="0" width="2583" height="618">
<rect width="2583" height="618" transform="matrix(1 0 0 -1 0 618)" fill="#D9D9D9"/>
</mask>
<g mask="url(#mask1_4018_3123)">
<mask id="mask2_4018_3123" style="mask-type:alpha" maskUnits="userSpaceOnUse" x="0" y="0" width="2576" height="618">
<path fill-rule="evenodd" clip-rule="evenodd" d="M2576 135C2576 60.4418 2515.56 0.00017145 2441 0.000166368L3.02768e-05 0V237L0 270L3.02768e-05 347L1.41292e-05 381L1.89511e-05 448L0.000274417 448L0.000266007 523H3.02768e-05L1.96239e-05 618L1424.5 618C1450.73 618 1472 596.734 1472 570.5C1472 544.266 1450.73 523 1424.5 523L1341 523V448L2418.5 448C2446.39 448 2469 425.39 2469 397.5C2469 369.61 2446.39 347 2418.5 347H2409V270H2441C2515.56 270 2576 209.559 2576 135Z" fill="url(#paint0_linear_4018_3123)"/>
</mask>
<g mask="url(#mask2_4018_3123)">
<path fill-rule="evenodd" clip-rule="evenodd" d="M2576 135C2576 60.4418 2515.56 0.00017145 2441 0.000166368L3.02768e-05 0V237L0 270L3.02768e-05 347L1.41292e-05 381L1.89511e-05 448L0.000274417 448L0.000266007 523L0.000396488 523L0.000385835 618L1425.5 618C1451.73 618 1473 596.734 1473 570.5C1473 544.267 1451.73 523 1425.5 523L1341 523V448L2418.5 448C2446.39 448 2469 425.39 2469 397.5C2469 369.61 2446.39 347 2418.5 347H2409V270H2441C2515.56 270 2576 209.559 2576 135Z" fill="#FAFBFD"/>
<path d="M1495.77 602.899L1492.97 602.77L1491.48 600.246L1490.5 603.038L1487.79 603.754L1489.98 605.613L1489.79 608.574L1492.12 606.934L1494.72 608.047L1493.97 605.175L1495.77 602.899Z" fill="white"/>
<path d="M1816.94 544.182L1814.45 544.062L1813.13 541.826L1812.26 544.301L1809.85 544.947L1811.79 546.587L1811.63 549.23L1813.7 547.769L1816.01 548.753L1815.34 546.209L1816.94 544.182Z" fill="white"/>
<path d="M1496.87 514.885L1495.95 514.846L1495.47 514.011L1495.14 514.925L1494.24 515.164L1494.97 515.78L1494.91 516.754L1495.67 516.217L1496.54 516.585L1496.28 515.641L1496.87 514.885Z" fill="white"/>
<path d="M1927.84 543.131L1926.4 543.061L1925.64 541.769L1925.13 543.201L1923.74 543.568L1924.87 544.522L1924.77 546.043L1925.97 545.198L1927.29 545.765L1926.91 544.304L1927.84 543.131Z" fill="white"/>
<path d="M1636.88 583.889L1635.44 583.819L1634.69 582.527L1634.18 583.958L1632.79 584.326L1633.91 585.28L1633.81 586.801L1635.01 585.956L1636.34 586.523L1635.96 585.062L1636.88 583.889Z" fill="white"/>
<path d="M1452.63 436.709L1450.14 436.6L1448.82 434.354L1447.95 436.828L1445.54 437.474L1447.49 439.124L1447.32 441.758L1449.39 440.297L1451.7 441.281L1451.03 438.736L1452.63 436.709Z" fill="white"/>
<path d="M1564.61 570.531L1563.07 570.452L1562.24 569.06L1561.7 570.601L1560.2 571.008L1561.41 572.032L1561.3 573.672L1562.59 572.758L1564.03 573.374L1563.62 571.793L1564.61 570.531Z" fill="white"/>
<path d="M911.334 581.196L908.601 580.57L907.525 577.817L906.121 580.391L903.332 580.62L905.204 582.836L904.539 585.728L907.104 584.526L909.49 586.086L909.2 583.124L911.334 581.196Z" fill="white"/>
<path d="M1237.23 580.508L1234.8 579.962L1233.86 577.517L1232.6 579.803L1230.12 580.002L1231.79 581.969L1231.2 584.543L1233.47 583.47L1235.6 584.852L1235.34 582.228L1237.23 580.508Z" fill="white"/>
<path d="M926.335 494.62L925.427 494.422L925.071 493.507L924.612 494.362L923.695 494.432L924.304 495.167L924.088 496.121L924.931 495.724L925.717 496.23L925.623 495.256L926.335 494.62Z" fill="white"/>
<path d="M1346.73 599.224L1345.32 598.906L1344.77 597.494L1344.05 598.816L1342.62 598.936L1343.58 600.069L1343.23 601.549L1344.55 600.933L1345.78 601.738L1345.63 600.218L1346.73 599.224Z" fill="white"/>
<path d="M1053.45 587.585L1052.05 587.267L1051.51 585.856L1050.79 587.178L1049.34 587.287L1050.31 588.43L1049.97 589.911L1051.28 589.295L1052.51 590.09L1052.36 588.569L1053.45 587.585Z" fill="white"/>
<path d="M895.058 409.672L892.625 409.116L891.68 406.671L890.425 408.957L887.945 409.166L889.611 411.133L889.022 413.698L891.296 412.634L893.42 414.016L893.168 411.382L895.058 409.672Z" fill="white"/>
<path d="M984.317 561.547L982.801 561.199L982.212 559.678L981.435 561.099L979.891 561.229L980.929 562.451L980.564 564.051L981.978 563.385L983.297 564.25L983.138 562.61L984.317 561.547Z" fill="white"/>
<path d="M1713.43 418.67L1710.35 417.964L1709.15 414.884L1707.58 417.766L1704.45 418.024L1706.54 420.509L1705.8 423.759L1708.68 422.407L1711.35 424.156L1711.03 420.837L1713.43 418.67Z" fill="white"/>
<path d="M2333.18 391.676L2330.75 391.13L2329.8 388.685L2328.55 390.971L2326.07 391.169L2327.73 393.137L2327.14 395.711L2329.42 394.638L2331.54 396.02L2331.29 393.396L2333.18 391.676Z" fill="white"/>
<path d="M2370.05 550.473L2367.62 549.917L2366.68 547.482L2365.42 549.768L2362.94 549.966L2364.61 551.934L2364.02 554.508L2366.29 553.435L2368.42 554.816L2368.16 552.193L2370.05 550.473Z" fill="white"/>
<path d="M2085.3 448.177L2083.89 447.859L2083.34 446.448L2082.62 447.769L2081.19 447.889L2082.15 449.022L2081.81 450.503L2083.12 449.886L2084.35 450.691L2084.2 449.171L2085.3 448.177Z" fill="white"/>
<path d="M2261.1 528.657L2259.7 528.339L2259.15 526.928L2258.43 528.25L2257 528.369L2257.96 529.502L2257.61 530.983L2258.93 530.367L2260.16 531.172L2260.01 529.651L2261.1 528.657Z" fill="white"/>
<path d="M2095.45 573.384L2094.05 573.066L2093.5 571.655L2092.78 572.976L2091.34 573.096L2092.31 574.229L2091.96 575.71L2093.28 575.093L2094.51 575.898L2094.36 574.378L2095.45 573.384Z" fill="white"/>
<path d="M2204.22 459.259L2203.14 459.011L2202.71 457.917L2202.15 458.941L2201.04 459.03L2201.79 459.915L2201.53 461.068L2202.54 460.581L2203.49 461.207L2203.38 460.024L2204.22 459.259Z" fill="white"/>
</g>
<rect x="2462.51" y="347.598" width="99.475" height="77.5518" rx="38.7759" transform="rotate(180 2462.51 347.598)" fill="white"/>
<rect x="1400.82" y="523" width="99.2059" height="75" rx="37.5" transform="rotate(180 1400.82 523)" fill="white"/>
</g>
</g>
<defs>
<linearGradient id="paint0_linear_4018_3123" x1="1828.16" y1="272.815" x2="1372.05" y2="-172.193" gradientUnits="userSpaceOnUse">
<stop stop-color="#00506E"/>
<stop offset="1" stop-color="#36768A"/>
</linearGradient>
</defs>
</svg>
