<svg width="1268" height="416" viewBox="0 0 1268 416" fill="none" xmlns="http://www.w3.org/2000/svg">
<path fill-rule="evenodd" clip-rule="evenodd" d="M167 39C167 17.4609 184.461 0 206 0H1217C1238.54 0 1256 17.4609 1256 39C1256 60.5391 1238.54 78 1217 78H1147V78.4285C1146.83 78.427 1146.65 78.4263 1146.48 78.4263C1113.37 78.4263 1086.52 105.906 1086.52 139.803C1086.52 173.68 1113.33 201.147 1146.42 201.18H1146.54C1146.69 201.18 1146.85 201.179 1147 201.178V201.18H1160.59C1219.91 201.18 1268 249.269 1268 308.59C1268 367.911 1219.91 416 1160.59 416H107.41C48.0891 416 0 367.911 0 308.59C0 249.269 48.089 201.18 107.41 201.18H225.781C254.266 196.354 276 170.8 276 140C276 105.758 249.137 78 216 78H206C184.461 78 167 60.5391 167 39Z" fill="url(#paint0_linear_4018_3019)"/>
<path d="M837.935 253.37L839.289 253.438L840.009 254.777L840.484 253.296L841.797 252.916L840.737 251.93L840.828 250.359L839.701 251.229L838.442 250.639L838.804 252.162L837.935 253.37Z" fill="white"/>
<path d="M682.568 284.514L683.772 284.577L684.411 285.763L684.832 284.451L686 284.108L685.058 283.238L685.14 281.836L684.135 282.611L683.021 282.089L683.342 283.439L682.568 284.514Z" fill="white"/>
<path d="M837.4 300.058L837.843 300.079L838.079 300.521L838.237 300.036L838.672 299.91L838.319 299.583L838.35 299.066L837.979 299.351L837.563 299.156L837.685 299.657L837.4 300.058Z" fill="white"/>
<path d="M628.923 285.076L629.62 285.113L629.987 285.798L630.232 285.039L630.906 284.844L630.358 284.338L630.408 283.531L629.829 283.979L629.186 283.679L629.371 284.454L628.923 285.076Z" fill="white"/>
<path d="M769.669 263.459L770.367 263.496L770.733 264.181L770.978 263.422L771.652 263.227L771.109 262.721L771.154 261.914L770.575 262.362L769.932 262.062L770.118 262.837L769.669 263.459Z" fill="white"/>
<path d="M858.803 341.526L860.007 341.584L860.645 342.775L861.066 341.463L862.234 341.12L861.293 340.245L861.374 338.848L860.369 339.623L859.255 339.101L859.577 340.45L858.803 341.526Z" fill="white"/>
<path d="M804.633 270.541L805.38 270.583L805.778 271.321L806.041 270.504L806.77 270.288L806.181 269.745L806.235 268.875L805.611 269.36L804.913 269.033L805.112 269.871L804.633 270.541Z" fill="white"/>
<path d="M1120.66 264.883L1121.98 265.215L1122.5 266.675L1123.18 265.31L1124.53 265.189L1123.62 264.013L1123.94 262.479L1122.7 263.117L1121.55 262.289L1121.69 263.86L1120.66 264.883Z" fill="white"/>
<path d="M963.001 265.249L964.178 265.539L964.635 266.836L965.242 265.623L966.441 265.518L965.636 264.474L965.921 263.109L964.821 263.678L963.793 262.945L963.915 264.337L963.001 265.249Z" fill="white"/>
<path d="M1113.4 310.807L1113.84 310.913L1114.01 311.398L1114.23 310.944L1114.68 310.907L1114.38 310.517L1114.49 310.011L1114.08 310.222L1113.7 309.953L1113.74 310.47L1113.4 310.807Z" fill="white"/>
<path d="M910.036 255.322L910.715 255.491L910.982 256.239L911.331 255.538L912.023 255.475L911.557 254.874L911.725 254.088L911.086 254.415L910.493 253.988L910.566 254.795L910.036 255.322Z" fill="white"/>
<path d="M1051.91 261.493L1052.59 261.661L1052.85 262.41L1053.2 261.709L1053.89 261.651L1053.43 261.044L1053.59 260.259L1052.96 260.586L1052.36 260.164L1052.44 260.971L1051.91 261.493Z" fill="white"/>
<path d="M1128.53 355.866L1129.71 356.162L1130.16 357.458L1130.77 356.246L1131.97 356.135L1131.16 355.091L1131.45 353.731L1130.35 354.295L1129.32 353.562L1129.44 354.96L1128.53 355.866Z" fill="white"/>
<path d="M1085.35 275.309L1086.08 275.493L1086.37 276.3L1086.75 275.546L1087.49 275.478L1086.99 274.829L1087.17 273.98L1086.48 274.334L1085.84 273.875L1085.92 274.745L1085.35 275.309Z" fill="white"/>
<path d="M732.642 351.098L734.131 351.472L734.711 353.106L735.472 351.577L736.988 351.44L735.974 350.122L736.332 348.398L734.942 349.115L733.647 348.188L733.801 349.948L732.642 351.098Z" fill="white"/>
<path d="M432.84 365.413L434.018 365.703L434.475 367L435.081 365.787L436.281 365.682L435.475 364.638L435.761 363.273L434.66 363.842L433.633 363.109L433.755 364.501L432.84 365.413Z" fill="white"/>
<path d="M415.001 281.179L416.178 281.474L416.635 282.766L417.242 281.553L418.441 281.448L417.636 280.404L417.921 279.038L416.821 279.608L415.793 278.875L415.915 280.267L415.001 281.179Z" fill="white"/>
<path d="M552.751 335.443L553.43 335.612L553.697 336.36L554.046 335.659L554.738 335.596L554.272 334.995L554.435 334.21L553.801 334.536L553.208 334.109L553.28 334.916L552.751 335.443Z" fill="white"/>
<path d="M467.704 292.752L468.383 292.92L468.65 293.669L468.999 292.968L469.691 292.905L469.225 292.304L469.393 291.518L468.754 291.845L468.161 291.418L468.234 292.225L467.704 292.752Z" fill="white"/>
<path d="M547.841 269.029L548.52 269.198L548.787 269.946L549.135 269.245L549.828 269.182L549.362 268.581L549.529 267.795L548.891 268.122L548.298 267.695L548.37 268.502L547.841 269.029Z" fill="white"/>
<path d="M478.844 238.304L480.021 238.599L480.479 239.896L481.085 238.683L482.285 238.573L481.479 237.529L481.764 236.169L480.664 236.733L479.637 236L479.759 237.397L478.844 238.304Z" fill="white"/>
<path d="M495.222 329.565L495.748 329.696L495.951 330.276L496.223 329.733L496.762 329.686L496.4 329.217L496.526 328.605L496.037 328.863L495.576 328.531L495.63 329.159L495.222 329.565Z" fill="white"/>
<defs>
<linearGradient id="paint0_linear_4018_3019" x1="1474.14" y1="-66.4536" x2="-52.9851" y2="190.84" gradientUnits="userSpaceOnUse">
<stop stop-color="#055471"/>
<stop offset="1" stop-color="#36778B"/>
</linearGradient>
</defs>
</svg>
