<svg width="4010" height="618" viewBox="0 0 4010 618" fill="none" xmlns="http://www.w3.org/2000/svg">
<mask id="mask0_4018_3121" style="mask-type:alpha" maskUnits="userSpaceOnUse" x="0" y="0" width="4010" height="618">
<rect width="4010" height="618" fill="#D9D9D9"/>
</mask>
<g mask="url(#mask0_4018_3121)">
<mask id="mask1_4018_3121" style="mask-type:alpha" maskUnits="userSpaceOnUse" x="1398" y="0" width="2612" height="618">
<rect x="4010" y="618" width="2612" height="618" transform="rotate(180 4010 618)" fill="#D9D9D9"/>
</mask>
<g mask="url(#mask1_4018_3121)">
<mask id="mask2_4018_3121" style="mask-type:alpha" maskUnits="userSpaceOnUse" x="1436" y="0" width="2574" height="618">
<path fill-rule="evenodd" clip-rule="evenodd" d="M1436 135C1436 60.4418 1496.44 0.000171314 1571 0.000166232L4010 0V237L4010 270L4010 347L4010 381L4010 448L4010 448L4010 523H4010L4010 618L2587.5 618C2561.27 618 2540 596.734 2540 570.5C2540 544.266 2561.27 523 2587.5 523L2671 523V448L1593.5 448C1565.61 448 1543 425.39 1543 397.5C1543 369.61 1565.61 347 1593.5 347H1603V270H1571C1496.44 270 1436 209.559 1436 135Z" fill="url(#paint0_linear_4018_3121)"/>
</mask>
<g mask="url(#mask2_4018_3121)">
<path fill-rule="evenodd" clip-rule="evenodd" d="M1436 135C1436 60.4418 1496.44 0.000170019 1571 0.000164937L4010 0V237L4010 270L4010 347L4010 381L4010 448L4010 448L4010 523L4010 523L4010 618L2586.5 618C2560.27 618 2539 596.734 2539 570.5C2539 544.267 2560.27 523 2586.5 523L2671 523V448L1593.5 448C1565.61 448 1543 425.39 1543 397.5C1543 369.61 1565.61 347 1593.5 347H1603V270H1571C1496.44 270 1436 209.559 1436 135Z" fill="#FAFBFD"/>
<path d="M2516.23 602.899L2519.03 602.77L2520.52 600.246L2521.5 603.038L2524.21 603.754L2522.02 605.613L2522.21 608.574L2519.88 606.934L2517.28 608.047L2518.03 605.175L2516.23 602.899Z" fill="white"/>
<path d="M2195.06 544.182L2197.55 544.062L2198.87 541.826L2199.74 544.301L2202.15 544.947L2200.21 546.587L2200.37 549.23L2198.3 547.769L2195.99 548.753L2196.66 546.209L2195.06 544.182Z" fill="white"/>
<path d="M2515.13 514.885L2516.05 514.846L2516.53 514.011L2516.86 514.925L2517.76 515.164L2517.03 515.78L2517.09 516.754L2516.33 516.217L2515.46 516.585L2515.72 515.641L2515.13 514.885Z" fill="white"/>
<path d="M2084.16 543.131L2085.6 543.061L2086.36 541.769L2086.87 543.201L2088.26 543.568L2087.13 544.522L2087.23 546.043L2086.03 545.198L2084.71 545.765L2085.09 544.304L2084.16 543.131Z" fill="white"/>
<path d="M2375.12 583.889L2376.56 583.819L2377.31 582.527L2377.82 583.958L2379.21 584.326L2378.09 585.28L2378.19 586.801L2376.99 585.956L2375.66 586.523L2376.04 585.062L2375.12 583.889Z" fill="white"/>
<path d="M2559.37 436.709L2561.86 436.6L2563.18 434.354L2564.05 436.828L2566.46 437.474L2564.51 439.124L2564.68 441.758L2562.61 440.297L2560.3 441.281L2560.97 438.736L2559.37 436.709Z" fill="white"/>
<path d="M2447.39 570.531L2448.93 570.452L2449.76 569.06L2450.3 570.601L2451.8 571.008L2450.59 572.032L2450.7 573.672L2449.41 572.758L2447.97 573.374L2448.38 571.793L2447.39 570.531Z" fill="white"/>
<path d="M3100.67 581.196L3103.4 580.57L3104.48 577.817L3105.88 580.391L3108.67 580.62L3106.8 582.836L3107.46 585.728L3104.9 584.526L3102.51 586.086L3102.8 583.124L3100.67 581.196Z" fill="white"/>
<path d="M2774.77 580.508L2777.2 579.962L2778.14 577.517L2779.4 579.803L2781.88 580.002L2780.21 581.969L2780.8 584.543L2778.53 583.47L2776.4 584.852L2776.66 582.228L2774.77 580.508Z" fill="white"/>
<path d="M3085.67 494.62L3086.57 494.422L3086.93 493.507L3087.39 494.362L3088.3 494.432L3087.7 495.167L3087.91 496.121L3087.07 495.724L3086.28 496.23L3086.38 495.256L3085.67 494.62Z" fill="white"/>
<path d="M2665.27 599.224L2666.68 598.906L2667.23 597.494L2667.95 598.816L2669.38 598.936L2668.42 600.069L2668.77 601.549L2667.45 600.933L2666.22 601.738L2666.37 600.218L2665.27 599.224Z" fill="white"/>
<path d="M2958.55 587.585L2959.95 587.267L2960.49 585.856L2961.21 587.178L2962.66 587.287L2961.69 588.43L2962.03 589.911L2960.72 589.295L2959.49 590.09L2959.64 588.569L2958.55 587.585Z" fill="white"/>
<path d="M3116.94 409.672L3119.38 409.116L3120.32 406.671L3121.57 408.957L3124.05 409.166L3122.39 411.133L3122.98 413.698L3120.7 412.634L3118.58 414.016L3118.83 411.382L3116.94 409.672Z" fill="white"/>
<path d="M3027.68 561.547L3029.2 561.199L3029.79 559.678L3030.57 561.099L3032.11 561.229L3031.07 562.451L3031.44 564.051L3030.02 563.385L3028.7 564.25L3028.86 562.61L3027.68 561.547Z" fill="white"/>
<path d="M2298.57 418.67L2301.65 417.964L2302.85 414.884L2304.42 417.766L2307.55 418.024L2305.46 420.509L2306.2 423.759L2303.32 422.407L2300.65 424.156L2300.97 420.837L2298.57 418.67Z" fill="white"/>
<path d="M1678.82 391.676L1681.25 391.13L1682.2 388.685L1683.45 390.971L1685.93 391.169L1684.27 393.137L1684.86 395.711L1682.58 394.638L1680.46 396.02L1680.71 393.396L1678.82 391.676Z" fill="white"/>
<path d="M1641.95 550.473L1644.38 549.917L1645.32 547.482L1646.58 549.768L1649.06 549.966L1647.39 551.934L1647.98 554.508L1645.71 553.435L1643.58 554.816L1643.84 552.193L1641.95 550.473Z" fill="white"/>
<path d="M1926.7 448.177L1928.11 447.859L1928.66 446.448L1929.38 447.769L1930.81 447.889L1929.85 449.022L1930.19 450.503L1928.88 449.886L1927.65 450.691L1927.8 449.171L1926.7 448.177Z" fill="white"/>
<path d="M1750.9 528.657L1752.3 528.339L1752.85 526.928L1753.57 528.25L1755 528.369L1754.04 529.502L1754.39 530.983L1753.07 530.367L1751.84 531.172L1751.99 529.651L1750.9 528.657Z" fill="white"/>
<path d="M1916.55 573.384L1917.95 573.066L1918.5 571.655L1919.22 572.976L1920.66 573.096L1919.69 574.229L1920.04 575.71L1918.72 575.093L1917.49 575.898L1917.64 574.378L1916.55 573.384Z" fill="white"/>
<path d="M1807.78 459.259L1808.86 459.011L1809.29 457.917L1809.85 458.941L1810.96 459.03L1810.21 459.915L1810.47 461.068L1809.46 460.581L1808.51 461.207L1808.62 460.024L1807.78 459.259Z" fill="white"/>
</g>
<rect width="99.475" height="77.5518" rx="38.7759" transform="matrix(1 6.81558e-08 1.12136e-07 -1 1549.49 347.598)" fill="white"/>
<rect width="99.2059" height="75" rx="37.5" transform="matrix(1 6.81558e-08 1.12136e-07 -1 2611.18 523)" fill="white"/>
</g>
</g>
<defs>
<linearGradient id="paint0_linear_4018_3121" x1="2183.84" y1="272.815" x2="2639.95" y2="-172.193" gradientUnits="userSpaceOnUse">
<stop stop-color="#00506E"/>
<stop offset="1" stop-color="#36768A"/>
</linearGradient>
</defs>
</svg>
