<svg width="1300" height="450" viewBox="0 0 1300 450" fill="none" xmlns="http://www.w3.org/2000/svg">
<mask id="mask0_8_30" style="mask-type:alpha" maskUnits="userSpaceOnUse" x="0" y="0" width="1300" height="450">
<rect width="1300" height="450" rx="40" fill="#D9D9D9"/>
</mask>
<g mask="url(#mask0_8_30)">
<rect width="1300" height="450" rx="40" fill="#D9D9D9"/>
<rect x="-18" y="-24" width="1338" height="491" rx="40" fill="white"/>
<rect x="-3.07324" y="-9.98901" width="1339.41" height="470.654" rx="40" fill="url(#paint0_linear_8_30)"/>
<circle cx="179.983" cy="179.983" r="179.983" transform="matrix(-1 0 0 1 1474 -143)" fill="white" fill-opacity="0.3"/>
<ellipse cx="55.3438" cy="54.8787" rx="55.3438" ry="54.8787" transform="matrix(-1 0 0 1 1404.24 309.982)" fill="#9EE4D4"/>
<ellipse cx="114.873" cy="114.873" rx="114.873" ry="114.873" transform="matrix(1 -8.74228e-08 -8.74228e-08 -1 -44 552.75)" fill="#9EE4D4"/>
<path opacity="0.3" fill-rule="evenodd" clip-rule="evenodd" d="M194.619 15.125C205.01 15.125 213.433 23.548 213.433 33.9384C213.433 44.3287 205.01 52.7517 194.619 52.7517H169.111C165.628 52.8884 162.846 55.7554 162.846 59.2722C162.846 62.8652 165.749 65.78 169.338 65.7978H86.367C86.3669 65.7978 86.3668 65.7978 86.3668 65.7979C86.3668 65.7979 86.3669 65.798 86.367 65.798H202.263C208.199 65.798 213.011 70.61 213.011 76.546C213.011 82.482 208.199 87.2941 202.263 87.2941H86.4276C86.394 87.2941 86.3668 87.3213 86.3668 87.3548C86.3668 87.3884 86.3396 87.4156 86.3061 87.4156L5.49057 87.4156C-4.89009 87.4156 -13.3053 79.0004 -13.3053 68.6197V65.8013C-13.3053 56.9772 -6.15195 49.8238 2.67212 49.8238C3.96909 49.8238 5.31096 49.748 6.42252 49.0797C8.33894 47.9276 9.62109 45.8282 9.62109 43.4292C9.62109 39.8024 6.69038 36.86 3.06796 36.8411H-2.55099C-8.49045 36.8411 -13.3053 32.0262 -13.3053 26.0868C-13.3053 20.1473 -8.49046 15.3324 -2.55101 15.3324L85.4629 15.3324C85.5202 15.3324 85.5666 15.286 85.5666 15.2287C85.5666 15.1714 85.6131 15.125 85.6703 15.125H194.619Z" fill="white"/>
<path opacity="0.3" fill-rule="evenodd" clip-rule="evenodd" d="M1188.01 352.931C1188.01 343.779 1195.43 336.36 1204.58 336.36H1331.27C1341.87 336.36 1350.47 344.953 1350.47 355.553C1350.47 366.154 1341.87 374.747 1331.27 374.747H1204.58C1195.43 374.747 1188.01 367.328 1188.01 358.176V352.931ZM1238.05 399.032C1238.05 392.974 1242.96 388.064 1249.02 388.064H1275.69C1279.34 388.036 1282.3 385.066 1282.3 381.405C1282.3 377.745 1279.34 374.774 1275.69 374.747H1343.81C1347.49 374.747 1350.47 377.728 1350.47 381.406V388.063C1350.47 388.064 1350.47 388.064 1350.47 388.064C1350.47 388.064 1350.47 388.065 1350.47 388.066V399.032C1350.47 405.089 1345.56 409.999 1339.5 409.999H1249.02C1242.96 409.999 1238.05 405.089 1238.05 399.032Z" fill="#6EC7B3"/>
<path opacity="0.2" fill-rule="evenodd" clip-rule="evenodd" d="M151.393 425.4C151.393 434.551 143.974 441.97 134.822 441.97L8.12459 441.97C-2.47548 441.97 -11.0685 433.377 -11.0685 422.777C-11.0685 412.177 -2.4755 403.584 8.12457 403.584L134.822 403.584C143.974 403.584 151.393 411.003 151.393 420.154L151.393 425.4ZM101.35 379.299C101.35 385.356 96.44 390.266 90.3828 390.266L63.7277 390.266C60.0646 390.283 57.1003 393.258 57.1003 396.925C57.1003 400.586 60.0547 403.557 63.7094 403.584L-4.41123 403.584C-8.08881 403.584 -11.0701 400.603 -11.0701 396.925L-11.0701 390.268C-11.0701 390.267 -11.0694 390.266 -11.0685 390.266C-11.0677 390.266 -11.067 390.266 -11.067 390.265L-11.067 379.299C-11.067 373.242 -6.15671 368.331 -0.0996006 368.331L90.3828 368.331C96.44 368.331 101.35 373.242 101.35 379.299Z" fill="white"/>
</g>
<defs>
<linearGradient id="paint0_linear_8_30" x1="666.633" y1="-9.98901" x2="666.633" y2="460.665" gradientUnits="userSpaceOnUse">
<stop stop-color="#9EE4D4"/>
<stop offset="1" stop-color="#9EE4D4" stop-opacity="0.4"/>
</linearGradient>
</defs>
</svg>
