<svg width="484" height="624" viewBox="0 0 484 624" fill="none" xmlns="http://www.w3.org/2000/svg">
<mask id="mask0_37_3" style="mask-type:alpha" maskUnits="userSpaceOnUse" x="0" y="0" width="484" height="624">
<rect width="484" height="624" fill="#040404"/>
</mask>
<g mask="url(#mask0_37_3)">
<path d="M484 -1H0V624H484V-1Z" fill="url(#paint0_linear_37_3)"/>
<path fill-rule="evenodd" clip-rule="evenodd" d="M296.456 462.625L292.758 462.494C291.603 458.132 290.089 453.872 288.231 449.76C289.611 453.897 290.652 458.139 291.344 462.444C287.845 462.324 284.334 462.222 280.81 462.139C282.624 455.366 284.77 448.655 287.248 442.006C284.072 448.572 281.229 455.266 278.718 462.089L275.331 462.021C275.499 455.638 275.953 449.243 276.713 442.872C275.351 449.193 274.274 455.565 273.482 461.989C269.522 461.915 265.549 461.865 261.565 461.84C263.474 454.523 265.76 447.31 268.414 440.23C265.007 447.266 261.968 454.475 259.311 461.827H254.181C250.221 461.827 246.277 461.844 242.351 461.877C239.107 456.834 235.374 452.124 231.206 447.815C234.714 452.202 237.791 456.918 240.396 461.896C234.585 461.962 228.797 462.071 223.031 462.22C223.538 454.479 224.391 446.743 225.59 439.014C223.66 446.693 222.07 454.439 220.821 462.251L216.251 462.395C216.666 458.567 217.179 454.749 217.789 450.938C216.826 454.749 215.95 458.586 215.161 462.451C211.426 462.575 207.723 462.717 204.054 462.875C201.783 458.068 199.118 453.458 196.084 449.093C198.656 453.517 200.859 458.145 202.672 462.931C197.591 463.155 192.54 463.413 187.517 463.704C186.954 457.102 186.747 450.475 186.895 443.851C186.208 450.477 185.875 457.135 185.898 463.797C179.876 464.159 173.896 464.574 167.961 465.044C162.622 457.596 156.537 450.714 149.799 444.506C155.919 450.815 161.388 457.725 166.124 465.131C155.274 465.962 144.569 466.957 134.01 468.117C129.867 460.072 124.707 452.595 118.656 445.871C124.102 452.74 128.642 460.281 132.167 468.31C128.975 468.667 125.795 469.035 122.628 469.413C117.468 462.338 111.629 455.785 105.195 449.847C111.055 455.918 116.318 462.539 120.91 469.619C110.873 470.845 101.001 472.195 91.2921 473.67C90.9123 465.991 91.5349 458.181 92.1575 450.545V450.464C90.9123 458.081 89.6982 465.729 89.4554 473.49V473.976C85.3046 474.616 81.1954 475.283 77.1276 475.977C74.5563 467.307 70.7928 459.037 65.9455 451.406C70.2489 459.207 73.4367 467.574 75.4154 476.263C72.8295 476.708 70.2581 477.159 67.7012 477.616C61.2726 467.737 53.2818 458.971 44.0419 451.661C52.5711 459.233 59.817 468.139 65.4972 478.034C47.7028 481.283 30.5768 484.969 14.119 489.091L12.1329 485.351L13.5898 489.253C7.68741 490.728 1.87634 492.26 -3.84342 493.847C-4.47848 486.816 -4.89356 479.766 -5.08864 472.698C-5.42486 479.858 -5.54316 487.038 -5.44354 494.24C-10.3497 495.615 -15.1812 497.028 -19.938 498.478C-18.7303 489.779 -16.8188 481.193 -14.2224 472.804C-17.4676 481.334 -19.9959 490.12 -21.7809 499.07L-25.3112 500.167C-28.9789 494.095 -33.2736 488.425 -38.1246 483.251C-33.6708 488.597 -29.7933 494.399 -26.5564 500.56C-34.2229 502.991 -41.6735 505.518 -48.9083 508.14C-49.2881 507.092 -49.6554 506.039 -50.0227 504.986C-50.388 499.966 -50.6412 494.938 -50.7823 489.901C-50.9691 493.828 -51.0916 497.759 -51.1497 501.695C-53.5364 494.63 -55.6865 487.489 -57.6 480.271C-55.8317 489.297 -53.6941 498.268 -51.187 507.186C-51.187 507.809 -51.187 508.376 -51.187 508.969C-55.3087 510.477 -59.3537 512.019 -63.3218 513.594C-64.567 504.551 -65.3557 495.461 -65.6877 486.324C-65.887 495.619 -65.6089 504.907 -64.8534 514.186C-144.069 545.9 -192.95 589.395 -193 637.44C-193.1 734.702 6.94651 813.756 253.813 813.999C500.68 814.243 700.894 735.618 701 638.362C701.043 593.203 657.946 551.965 587.061 520.724C592.084 516.982 597.409 513.665 602.982 510.807C596.896 513.379 591.039 516.463 585.474 520.026C581.165 518.148 576.757 516.307 572.249 514.504C574.063 511.898 575.91 509.309 577.791 506.737C580.547 505.013 583.392 503.396 586.327 501.888C583.766 502.968 581.252 504.136 578.787 505.391C580.966 502.449 583.195 499.54 585.474 496.664C582.394 499.943 579.376 503.267 576.421 506.637C573.134 508.408 569.948 510.327 566.864 512.397C560.04 509.754 553.004 507.2 545.757 504.736C547.961 502.451 550.259 500.234 552.649 498.086C549.972 500.113 547.38 502.231 544.873 504.437C518.375 495.486 489.199 487.695 457.881 481.331C458.662 471.757 457.895 462.119 455.609 452.789C457.141 462.092 457.177 471.58 455.715 480.895C446.583 479.062 437.277 477.352 427.797 475.765C428.892 473.184 430.113 470.635 431.458 468.117C429.677 470.523 428.017 472.999 426.477 475.547C419.985 474.466 413.414 473.448 406.765 472.492C408.758 461.946 409.242 451.168 408.203 440.485C408.461 451.17 407.203 461.837 404.467 472.168C402.039 471.823 399.605 471.487 397.164 471.158C398.126 464.435 399.864 457.846 402.344 451.524C399.286 457.699 396.946 464.206 395.371 470.915C378.183 468.646 360.542 466.777 342.449 465.305C344.357 457.966 346.643 450.73 349.297 443.627C345.912 450.642 342.89 457.828 340.245 465.156C338.47 465.019 336.689 464.882 334.909 464.757C334.233 457.037 333.984 449.286 334.162 441.539C333.25 449.194 332.756 456.892 332.68 464.601C327.724 464.252 322.743 463.932 317.737 463.641C319.476 455.368 321.388 447.136 323.471 438.946C320.628 447.086 317.947 455.274 315.427 463.51C313.273 463.39 311.112 463.278 308.946 463.174C308.703 462.507 308.448 461.84 308.186 461.179C309.431 452.478 310.303 443.751 310.801 435C309.631 442.43 308.197 449.814 306.499 457.153C303.467 450.433 299.668 444.087 295.18 438.241C299.682 445.697 303.091 453.762 305.303 462.189L305.254 462.376L305.179 462.688L305.104 462.987L300.204 462.775C296.862 452.812 291.89 443.475 285.492 435.143C290.626 443.64 294.331 452.925 296.456 462.625ZM568.676 513.114C570.543 511.68 572.411 510.29 574.397 508.962C573.028 510.55 571.672 512.152 570.332 513.768L568.676 513.114Z" fill="#94C4CE"/>
</g>
<defs>
<linearGradient id="paint0_linear_37_3" x1="1004.45" y1="311.553" x2="9.07509" y2="311.553" gradientUnits="userSpaceOnUse">
<stop stop-color="#96C6D0"/>
<stop offset="0.896067" stop-color="#C7EEF0"/>
</linearGradient>
</defs>
</svg>
