<svg width="4010" height="680" viewBox="0 0 4010 680" fill="none" xmlns="http://www.w3.org/2000/svg">
<mask id="mask0_873_392" style="mask-type:alpha" maskUnits="userSpaceOnUse" x="0" y="0" width="4010" height="680">
<rect width="4010" height="680" fill="white"/>
</mask>
<g mask="url(#mask0_873_392)">
<path fill-rule="evenodd" clip-rule="evenodd" d="M2805 0H0V137V138V201H2668.09C2652.74 198.6 2641 185.322 2641 169.303C2641 154.012 2651.7 141.219 2666.02 138H2721C2767.39 138 2805 100.392 2805 54V0ZM0 596V638V680H1163C1186.2 680 1205 661.196 1205 638C1205 614.804 1223.8 596 1247 596H2586C2631.84 596 2669 558.84 2669 513C2669 467.16 2631.84 430 2586 430H2276.5C2277.68 430 2278.85 429.952 2280 429.858C2258.17 428.078 2241 409.794 2241 387.5C2241 365.206 2258.17 346.922 2280 345.142C2278.85 345.048 2277.68 345 2276.5 345H2699C2738.76 345 2771 312.764 2771 273C2771 233.236 2738.76 201 2699 201H0V345V430V596Z" fill="url(#paint0_linear_873_392)"/>
<path d="M2222.36 181.331L2224.31 181.415L2225.35 183.06L2226.03 181.241L2227.92 180.775L2226.4 179.564L2226.53 177.635L2224.9 178.703L2223.09 177.978L2223.61 179.849L2222.36 181.331Z" fill="white"/>
<path d="M1998.51 219.579L2000.24 219.657L2001.16 221.114L2001.77 219.502L2003.45 219.081L2002.1 218.013L2002.21 216.291L2000.77 217.242L1999.16 216.601L1999.62 218.259L1998.51 219.579Z" fill="white"/>
<path d="M2221.59 238.664L2222.23 238.69L2222.57 239.233L2222.8 238.638L2223.42 238.482L2222.91 238.081L2222.96 237.447L2222.42 237.796L2221.82 237.557L2222 238.172L2221.59 238.664Z" fill="white"/>
<path d="M1921.21 220.265L1922.22 220.311L1922.75 221.152L1923.1 220.22L1924.07 219.981L1923.28 219.359L1923.35 218.369L1922.52 218.919L1921.59 218.55L1921.86 219.502L1921.21 220.265Z" fill="white"/>
<path d="M2124 193.716L2125.01 193.761L2125.54 194.603L2125.89 193.67L2126.86 193.431L2126.08 192.809L2126.14 191.819L2125.31 192.369L2124.38 192L2124.65 192.952L2124 193.716Z" fill="white"/>
<path d="M2252.42 289.587L2254.16 289.658L2255.08 291.121L2255.68 289.509L2257.37 289.088L2256.01 288.014L2256.13 286.298L2254.68 287.25L2253.08 286.609L2253.54 288.266L2252.42 289.587Z" fill="white"/>
<path d="M2174.37 202.417L2175.45 202.469L2176.02 203.375L2176.4 202.372L2177.45 202.106L2176.61 201.44L2176.68 200.371L2175.78 200.967L2174.78 200.566L2175.07 201.595L2174.37 202.417Z" fill="white"/>
<path d="M2629.7 195.47L2631.6 195.878L2632.36 197.671L2633.33 195.994L2635.28 195.846L2633.97 194.402L2634.44 192.518L2632.65 193.301L2630.99 192.285L2631.19 194.214L2629.7 195.47Z" fill="white"/>
<path d="M2402.55 195.916L2404.25 196.273L2404.91 197.865L2405.78 196.376L2407.51 196.247L2406.35 194.965L2406.76 193.288L2405.17 193.987L2403.69 193.087L2403.87 194.796L2402.55 195.916Z" fill="white"/>
<path d="M2619.24 251.863L2619.88 251.993L2620.12 252.588L2620.44 252.032L2621.08 251.986L2620.66 251.507L2620.81 250.886L2620.22 251.145L2619.67 250.814L2619.74 251.449L2619.24 251.863Z" fill="white"/>
<path d="M2326.24 183.727L2327.22 183.934L2327.6 184.853L2328.1 183.992L2329.1 183.914L2328.43 183.176L2328.67 182.212L2327.75 182.613L2326.9 182.089L2327 183.079L2326.24 183.727Z" fill="white"/>
<path d="M2530.64 191.307L2531.62 191.514L2532 192.433L2532.5 191.572L2533.51 191.501L2532.84 190.757L2533.07 189.792L2532.16 190.193L2531.3 189.676L2531.41 190.666L2530.64 191.307Z" fill="white"/>
<path d="M2641.04 307.196L2642.74 307.558L2643.4 309.151L2644.27 307.662L2646 307.526L2644.84 306.244L2645.25 304.574L2643.66 305.267L2642.18 304.367L2642.36 306.082L2641.04 307.196Z" fill="white"/>
<path d="M2578.83 208.269L2579.89 208.496L2580.3 209.486L2580.84 208.56L2581.92 208.476L2581.19 207.68L2581.45 206.638L2580.46 207.071L2579.54 206.508L2579.65 207.576L2578.83 208.269Z" fill="white"/>
<path d="M2070.65 301.337L2072.8 301.797L2073.63 303.804L2074.73 301.926L2076.91 301.758L2075.45 300.14L2075.97 298.023L2073.97 298.903L2072.1 297.764L2072.32 299.926L2070.65 301.337Z" fill="white"/>
<path d="M1638.7 318.92L1640.4 319.276L1641.06 320.869L1641.93 319.38L1643.66 319.25L1642.5 317.968L1642.91 316.292L1641.32 316.991L1639.84 316.091L1640.02 317.8L1638.7 318.92Z" fill="white"/>
<path d="M1613 215.481L1614.7 215.843L1615.35 217.429L1616.23 215.94L1617.96 215.811L1616.8 214.529L1617.21 212.852L1615.62 213.551L1614.14 212.652L1614.32 214.361L1613 215.481Z" fill="white"/>
<path d="M1811.47 282.116L1812.45 282.324L1812.84 283.243L1813.34 282.382L1814.34 282.304L1813.66 281.566L1813.9 280.602L1812.99 281.003L1812.13 280.479L1812.24 281.469L1811.47 282.116Z" fill="white"/>
<path d="M1688.93 229.691L1689.91 229.899L1690.3 230.818L1690.8 229.957L1691.8 229.879L1691.13 229.141L1691.37 228.176L1690.45 228.578L1689.59 228.053L1689.7 229.044L1688.93 229.691Z" fill="white"/>
<path d="M1804.39 200.559L1805.37 200.766L1805.76 201.685L1806.26 200.824L1807.26 200.746L1806.59 200.008L1806.83 199.044L1805.91 199.445L1805.05 198.921L1805.16 199.911L1804.39 200.559Z" fill="white"/>
<path d="M1704.98 162.829L1706.68 163.192L1707.33 164.784L1708.21 163.295L1709.94 163.159L1708.78 161.877L1709.19 160.207L1707.6 160.9L1706.12 160L1706.3 161.716L1704.98 162.829Z" fill="white"/>
<path d="M1728.58 274.898L1729.34 275.06L1729.63 275.772L1730.02 275.105L1730.8 275.047L1730.28 274.471L1730.46 273.72L1729.76 274.037L1729.09 273.629L1729.17 274.399L1728.58 274.898Z" fill="white"/>
<path d="M2075.54 527.464L2074.4 527.514L2073.8 528.474L2073.4 527.411L2072.29 527.139L2073.18 526.432L2073.11 525.304L2074.06 525.929L2075.12 525.505L2074.81 526.598L2075.54 527.464Z" fill="white"/>
<path d="M2206.35 549.814L2205.34 549.859L2204.8 550.71L2204.44 549.768L2203.46 549.523L2204.25 548.898L2204.19 547.892L2205.03 548.448L2205.97 548.074L2205.7 549.042L2206.35 549.814Z" fill="white"/>
<path d="M2076 560.965L2075.62 560.98L2075.43 561.298L2075.29 560.95L2074.93 560.859L2075.22 560.625L2075.2 560.254L2075.51 560.458L2075.86 560.318L2075.76 560.678L2076 560.965Z" fill="white"/>
<path d="M2251.51 550.215L2250.93 550.241L2250.62 550.733L2250.41 550.188L2249.84 550.048L2250.3 549.685L2250.26 549.106L2250.75 549.428L2251.29 549.212L2251.14 549.768L2251.51 550.215Z" fill="white"/>
<path d="M2133.02 534.701L2132.43 534.728L2132.12 535.219L2131.92 534.675L2131.35 534.535L2131.81 534.172L2131.77 533.593L2132.25 533.914L2132.8 533.699L2132.64 534.255L2133.02 534.701Z" fill="white"/>
<path d="M2057.98 590.721L2056.97 590.763L2056.43 591.618L2056.07 590.676L2055.09 590.43L2055.88 589.802L2055.81 588.8L2056.66 589.356L2057.6 588.981L2057.33 589.95L2057.98 590.721Z" fill="white"/>
<path d="M2103.58 539.785L2102.96 539.816L2102.62 540.345L2102.4 539.759L2101.79 539.604L2102.28 539.214L2102.23 538.59L2102.76 538.938L2103.35 538.704L2103.18 539.305L2103.58 539.785Z" fill="white"/>
<path d="M1837.52 535.726L1836.41 535.964L1835.97 537.012L1835.4 536.033L1834.27 535.946L1835.03 535.102L1834.76 534.001L1835.8 534.459L1836.77 533.865L1836.66 534.992L1837.52 535.726Z" fill="white"/>
<path d="M1970.25 535.987L1969.26 536.195L1968.88 537.126L1968.37 536.256L1967.36 536.18L1968.03 535.431L1967.79 534.451L1968.72 534.86L1969.59 534.334L1969.48 535.333L1970.25 535.987Z" fill="white"/>
<path d="M1843.63 568.678L1843.26 568.754L1843.12 569.102L1842.93 568.777L1842.56 568.75L1842.81 568.47L1842.72 568.107L1843.06 568.258L1843.38 568.065L1843.34 568.436L1843.63 568.678Z" fill="white"/>
<path d="M2014.85 528.864L2014.27 528.985L2014.05 529.522L2013.76 529.019L2013.17 528.974L2013.56 528.543L2013.42 527.979L2013.96 528.213L2014.46 527.907L2014.4 528.486L2014.85 528.864Z" fill="white"/>
<path d="M1895.4 533.294L1894.83 533.415L1894.61 533.952L1894.32 533.449L1893.73 533.407L1894.12 532.972L1893.99 532.408L1894.52 532.643L1895.02 532.34L1894.96 532.919L1895.4 533.294Z" fill="white"/>
<path d="M1830.9 601.011L1829.91 601.222L1829.52 602.153L1829.01 601.283L1828 601.203L1828.68 600.454L1828.44 599.478L1829.36 599.883L1830.23 599.357L1830.13 600.36L1830.9 601.011Z" fill="white"/>
<path d="M1867.25 543.205L1866.63 543.337L1866.39 543.916L1866.07 543.375L1865.45 543.326L1865.87 542.861L1865.72 542.252L1866.3 542.505L1866.83 542.176L1866.77 542.8L1867.25 543.205Z" fill="white"/>
<path d="M2164.19 597.588L2162.94 597.856L2162.45 599.029L2161.81 597.932L2160.54 597.834L2161.39 596.888L2161.09 595.651L2162.26 596.165L2163.35 595.5L2163.22 596.763L2164.19 597.588Z" fill="white"/>
<path d="M2416.59 607.862L2415.6 608.07L2415.22 609L2414.71 608.13L2413.7 608.055L2414.37 607.306L2414.13 606.326L2415.06 606.734L2415.93 606.208L2415.82 607.207L2416.59 607.862Z" fill="white"/>
<path d="M2431.61 547.419L2430.62 547.631L2430.24 548.558L2429.72 547.688L2428.71 547.612L2429.39 546.863L2429.15 545.883L2430.08 546.292L2430.94 545.766L2430.84 546.765L2431.61 547.419Z" fill="white"/>
<path d="M2315.64 586.356L2315.07 586.477L2314.84 587.014L2314.55 586.511L2313.96 586.466L2314.36 586.034L2314.22 585.471L2314.75 585.705L2315.25 585.399L2315.19 585.978L2315.64 586.356Z" fill="white"/>
<path d="M2387.24 555.723L2386.67 555.844L2386.44 556.381L2386.15 555.878L2385.57 555.832L2385.96 555.401L2385.82 554.837L2386.36 555.072L2386.85 554.766L2386.79 555.344L2387.24 555.723Z" fill="white"/>
<path d="M2319.77 538.699L2319.2 538.821L2318.98 539.358L2318.68 538.855L2318.1 538.809L2318.49 538.378L2318.35 537.814L2318.89 538.049L2319.39 537.742L2319.33 538.321L2319.77 538.699Z" fill="white"/>
<path d="M2377.87 516.653L2376.87 516.865L2376.49 517.796L2375.98 516.925L2374.97 516.846L2375.65 516.097L2375.41 515.121L2376.33 515.526L2377.2 515L2377.1 516.002L2377.87 516.653Z" fill="white"/>
<path d="M2364.07 582.138L2363.63 582.232L2363.46 582.649L2363.23 582.259L2362.78 582.225L2363.08 581.888L2362.98 581.449L2363.39 581.635L2363.78 581.396L2363.73 581.847L2364.07 582.138Z" fill="white"/>
</g>
<defs>
<linearGradient id="paint0_linear_873_392" x1="1205" y1="38.9149" x2="2719.5" y2="383.375" gradientUnits="userSpaceOnUse">
<stop stop-color="#DEF3F5"/>
<stop offset="1" stop-color="#CBF1F3"/>
</linearGradient>
</defs>
</svg>
