<svg xmlns="http://www.w3.org/2000/svg" width="175" height="28" viewBox="0 0 175 28" fill="none"><path d="M149.2 17.264C149.932 17.456 150.496 17.816 150.892 18.344C151.3 18.872 151.504 19.532 151.504 20.324C151.504 21.44 151.138 22.298 150.406 22.898C149.674 23.486 148.636 23.78 147.292 23.78H142.756C142.528 23.78 142.342 23.714 142.198 23.582C142.066 23.45 142 23.276 142 23.06V11.81C142 11.594 142.066 11.42 142.198 11.288C142.342 11.156 142.528 11.09 142.756 11.09H147.094C148.402 11.09 149.416 11.378 150.136 11.954C150.856 12.53 151.216 13.346 151.216 14.402C151.216 15.086 151.036 15.674 150.676 16.166C150.328 16.658 149.836 17.024 149.2 17.264ZM143.458 16.724H146.878C147.826 16.724 148.54 16.532 149.02 16.148C149.512 15.764 149.758 15.206 149.758 14.474C149.758 13.034 148.798 12.314 146.878 12.314H143.458V16.724ZM147.148 22.556C148.144 22.556 148.876 22.376 149.344 22.016C149.824 21.644 150.064 21.068 150.064 20.288C150.064 18.728 149.092 17.948 147.148 17.948H143.458V22.556H147.148ZM154.111 23.87C153.895 23.87 153.715 23.81 153.571 23.69C153.439 23.558 153.373 23.378 153.373 23.15V11.72C153.373 11.492 153.439 11.318 153.571 11.198C153.715 11.066 153.895 11 154.111 11C154.315 11 154.483 11.066 154.615 11.198C154.759 11.318 154.831 11.492 154.831 11.72V23.15C154.831 23.378 154.759 23.558 154.615 23.69C154.483 23.81 154.315 23.87 154.111 23.87ZM160.653 23.906C159.825 23.906 159.093 23.72 158.457 23.348C157.833 22.976 157.347 22.448 156.999 21.764C156.663 21.068 156.495 20.264 156.495 19.352C156.495 18.44 156.663 17.642 156.999 16.958C157.347 16.262 157.833 15.728 158.457 15.356C159.093 14.984 159.825 14.798 160.653 14.798C161.481 14.798 162.213 14.984 162.849 15.356C163.485 15.728 163.971 16.262 164.307 16.958C164.655 17.642 164.829 18.44 164.829 19.352C164.829 20.264 164.655 21.068 164.307 21.764C163.971 22.448 163.485 22.976 162.849 23.348C162.213 23.72 161.481 23.906 160.653 23.906ZM160.653 22.7C161.517 22.7 162.177 22.418 162.633 21.854C163.101 21.278 163.335 20.444 163.335 19.352C163.335 18.284 163.101 17.462 162.633 16.886C162.165 16.298 161.505 16.004 160.653 16.004C159.801 16.004 159.141 16.298 158.673 16.886C158.205 17.462 157.971 18.284 157.971 19.352C157.971 20.432 158.199 21.26 158.655 21.836C159.123 22.412 159.789 22.7 160.653 22.7ZM173.571 14.834C173.799 14.834 173.979 14.9 174.111 15.032C174.243 15.164 174.309 15.338 174.309 15.554V23.186C174.309 24.494 173.973 25.478 173.301 26.138C172.629 26.81 171.633 27.146 170.313 27.146C169.029 27.146 167.961 26.894 167.109 26.39C166.677 26.15 166.461 25.874 166.461 25.562C166.461 25.394 166.503 25.256 166.587 25.148C166.683 25.04 166.803 24.986 166.947 24.986C167.067 24.986 167.283 25.07 167.595 25.238C168.015 25.454 168.429 25.628 168.837 25.76C169.245 25.892 169.731 25.958 170.295 25.958C171.147 25.958 171.789 25.73 172.221 25.274C172.653 24.83 172.869 24.176 172.869 23.312V21.764C172.617 22.328 172.227 22.76 171.699 23.06C171.183 23.36 170.571 23.51 169.863 23.51C169.095 23.51 168.411 23.33 167.811 22.97C167.223 22.61 166.761 22.1 166.425 21.44C166.101 20.78 165.939 20.018 165.939 19.154C165.939 18.29 166.101 17.528 166.425 16.868C166.761 16.208 167.223 15.698 167.811 15.338C168.411 14.978 169.095 14.798 169.863 14.798C170.559 14.798 171.165 14.948 171.681 15.248C172.197 15.548 172.587 15.974 172.851 16.526V15.554C172.851 15.338 172.911 15.164 173.031 15.032C173.163 14.9 173.343 14.834 173.571 14.834ZM170.151 22.304C170.991 22.304 171.651 22.028 172.131 21.476C172.611 20.912 172.851 20.138 172.851 19.154C172.851 18.182 172.611 17.42 172.131 16.868C171.663 16.304 171.003 16.022 170.151 16.022C169.299 16.022 168.627 16.304 168.135 16.868C167.655 17.42 167.415 18.182 167.415 19.154C167.415 20.138 167.655 20.912 168.135 21.476C168.627 22.028 169.299 22.304 170.151 22.304Z" fill="#124657"></path><path d="M41.3353 0.75122C38.6586 -0.760076 35.2496 0.0825863 33.6163 2.6179L19.6974 26.2252V26.2271H19.6993C19.7124 26.2344 19.7236 26.2417 19.7348 26.249C22.4115 27.7603 25.8205 26.9177 27.4538 24.3824L27.5625 24.1973L41.3727 0.773203C41.3727 0.773203 41.3465 0.758548 41.3353 0.75122Z" fill="#F34F36"></path><path d="M26.1951 9.74926C23.5184 8.23797 20.1094 9.08063 18.4761 11.6159L18.3674 11.8009L9.83179 26.2251V26.2269H9.83366C9.84677 26.2343 9.85801 26.2416 9.86925 26.2489C12.5459 27.7602 15.9549 26.9176 17.5882 24.3822L26.2325 9.77308C26.2325 9.77125 26.2082 9.75659 26.1951 9.74926Z" fill="#F34F36"></path><path d="M11.0849 18.7696C11.0718 18.7623 11.0587 18.7549 11.0475 18.7476C8.37082 17.2363 4.9618 18.079 3.32847 20.6143L0 26.2217V26.2235H0.00187309C0.0149847 26.2308 0.0262232 26.2382 0.0374617 26.2455C2.7141 27.7568 6.12312 26.9141 7.75645 24.3788L11.0849 18.7696Z" fill="#F34F36"></path><path d="M97.6214 12.9735C98.2414 12.9735 98.8277 12.7226 99.2772 12.3031C99.9178 11.704 101.01 11.3377 102.119 11.3377C103.904 11.3377 104.962 11.988 104.962 12.7867C104.962 14.0287 103.117 14.3254 100.515 14.5618C97.067 14.8585 94.1318 15.7452 94.1318 19.1763C94.1318 22.4901 97.1569 24.1168 100.453 24.1168C102.632 24.1168 104.205 23.4665 105.234 22.4004C105.528 23.221 106.545 24.104 107.618 24.104H108.86C108.86 24.104 108.86 21.5375 108.86 21.3342V13.4095C108.86 12.1968 108.35 8.20337 102.027 8.20337C97.8986 8.20337 95.2594 10.3833 94.7743 12.9754L97.6214 12.9735ZM105.114 17.9068C105.114 19.8595 103.177 20.6582 100.789 20.6582C99.1854 20.6582 98.1571 20.0665 98.1571 19.2092C98.1571 18.0845 99.3634 17.6393 101.334 17.4635C103.497 17.2711 104.269 16.6757 105.116 16.1427L105.114 17.9068Z" fill="#322C2E"></path><path d="M71.6698 12.9736C71.106 12.9736 70.5553 12.7831 70.1376 12.4149C69.5982 11.9405 68.8059 11.6803 67.9311 11.6803C66.0955 11.6803 65.3425 12.327 65.3425 12.8876C65.3425 13.6826 66.4851 13.9464 68.4125 14.2413C72.2636 14.8586 75.032 15.683 75.032 18.9785C75.032 21.981 72.2036 24.0986 68.2308 24.0986C64.4996 24.0986 61.6844 22.2796 60.9857 19.3138H64.2692C64.7956 19.3138 65.3013 19.4915 65.719 19.8047C66.442 20.3488 67.4329 20.5668 68.2308 20.5668C69.8248 20.5668 71.0292 20.096 71.0292 19.213C71.0292 18.3594 70.4879 18.0058 67.7794 17.5936C65.011 17.1815 61.3098 16.4451 61.3098 13.0616C61.3098 10.6783 63.447 8.20532 67.9293 8.20532C71.2746 8.20532 73.6609 9.31543 74.6181 12.9718L71.6698 12.9736Z" fill="#322C2E"></path><path d="M80.9455 16.1811C80.9455 13.7557 82.7155 11.7901 84.8995 11.7901C85.6994 11.7901 86.4448 12.0539 87.0667 12.5101C87.475 12.8087 87.9695 12.9735 88.479 12.9735H92.199C90.9702 10.1634 88.1643 8.19971 84.8977 8.19971C80.4997 8.19971 76.9352 11.7608 76.9352 16.1537C76.9352 20.5465 80.4997 24.1077 84.8977 24.1077C88.1718 24.1077 90.9833 22.1347 92.2064 19.3155H88.5783C88.0519 19.3155 87.5443 19.4913 87.1285 19.8064C86.4935 20.29 85.7256 20.5721 84.8977 20.5721C82.7155 20.5721 80.9455 18.6065 80.9455 16.1811Z" fill="#322C2E"></path><path d="M114.989 2.8855C114.979 2.8855 114.97 2.8855 114.961 2.8855C112.966 2.8855 111.338 4.43344 111.261 6.36607V24.1334C111.271 24.1334 111.28 24.1334 111.289 24.1334C113.284 24.1334 114.912 22.5854 114.989 20.6528V2.8855Z" fill="#322C2E"></path><path d="M55.5631 19.3136C55.033 19.3136 54.5123 19.4803 54.1021 19.8101C53.3416 20.4219 52.0642 20.7297 51.2307 20.7297H51.2251C49.3613 20.7297 47.8591 19.5829 47.3478 17.7291L59.0396 17.7309C59.6108 11.7297 55.8253 8.20703 51.2569 8.20703C46.8982 8.20703 43.3225 11.8451 43.3225 16.2288C43.3225 20.6124 46.8982 24.0985 51.255 24.0985H51.2625C55.0293 24.0985 58.0712 22.3252 58.7548 19.3136H55.5631ZM47.4096 14.5526C47.9809 12.7885 49.4231 11.6692 51.2269 11.6692C53.1206 11.6692 54.6228 12.7867 55.1042 14.5526H47.4096Z" fill="#322C2E"></path><path d="M120.881 12.9735C121.501 12.9735 122.088 12.7226 122.537 12.3031C123.178 11.704 124.27 11.3377 125.379 11.3377C127.164 11.3377 128.222 11.988 128.222 12.7867C128.222 14.0287 126.377 14.3254 123.775 14.5618C120.327 14.8585 117.392 15.7452 117.392 19.1763C117.392 22.4901 120.417 24.1168 123.714 24.1168C125.892 24.1168 127.465 23.4665 128.494 22.4004C128.788 23.221 129.805 24.104 130.878 24.104H132.12C132.12 24.104 132.12 21.5375 132.12 21.3342V13.4095C132.12 12.1968 131.61 8.20337 125.287 8.20337C121.159 8.20337 118.519 10.3833 118.034 12.9754L120.881 12.9735ZM128.372 17.9068C128.372 19.8595 126.435 20.6582 124.047 20.6582C122.444 20.6582 121.415 20.0665 121.415 19.2092C121.415 18.0845 122.622 17.6393 124.592 17.4635C126.755 17.2711 127.527 16.6757 128.374 16.1427L128.372 17.9068Z" fill="#322C2E"></path></svg>