<svg xmlns="http://www.w3.org/2000/svg" width="107" height="23" viewBox="0 0 107 23" fill="none"><path d="M33.4031 0.619981C31.2415 -0.627396 28.4854 0.0682564 27.1644 2.16121L15.918 21.6455C15.93 21.6515 15.936 21.6575 15.948 21.6635C18.1096 22.9108 20.8657 22.2152 22.1867 20.1222L22.2767 19.9723L33.4331 0.637972C33.4331 0.637972 33.4091 0.625978 33.4031 0.619981Z" fill="white"></path><path d="M21.1653 8.05019C19.0037 6.80281 16.2476 7.49846 14.9266 9.59142L14.8365 9.74134L7.94336 21.6454C7.95537 21.6514 7.96137 21.6574 7.97338 21.6634C10.135 22.9108 12.8911 22.2151 14.2121 20.1222L21.1953 8.06818C21.1953 8.06818 21.1773 8.05618 21.1653 8.05019Z" fill="white"></path><path d="M8.95872 15.493C8.94671 15.487 8.94071 15.481 8.9287 15.475C6.76708 14.2276 4.01101 14.9232 2.69002 17.0162L0 21.6399C0.012009 21.6459 0.0180135 21.6519 0.0300225 21.6579C2.19164 22.9053 4.94771 22.2096 6.2687 20.1166L8.95872 15.493Z" fill="white"></path><path d="M78.8864 10.7071C79.3908 10.7071 79.8591 10.4972 80.2254 10.1554C80.7418 9.66364 81.6245 9.3578 82.5191 9.3578C83.9602 9.3578 84.8189 9.89752 84.8189 10.5512C84.8189 11.5767 83.3297 11.8226 81.2282 12.0145C78.4421 12.2603 76.0703 12.992 76.0703 15.8226C76.0703 18.5572 78.5141 19.9005 81.1801 19.9005C82.9395 19.9005 84.2124 19.3608 85.041 18.4852C85.2812 19.1629 86.0978 19.8945 86.9685 19.8945H87.9712C87.9712 19.8945 87.9712 17.7776 87.9712 17.6097V11.0669C87.9712 10.0654 87.5569 6.76709 82.4471 6.76709C79.1086 6.76709 76.977 8.56619 76.5867 10.7071H78.8864ZM84.939 14.7791C84.939 16.3923 83.3718 17.0519 81.4443 17.0519C80.1474 17.0519 79.3187 16.5662 79.3187 15.8585C79.3187 14.929 80.2915 14.5632 81.8827 14.4193C83.63 14.2573 84.2544 13.7716 84.939 13.3278V14.7791Z" fill="white"></path><path d="M57.9156 10.7069C57.4592 10.7069 57.0149 10.551 56.6787 10.2451C56.2463 9.85532 55.6039 9.63943 54.8953 9.63943C53.4122 9.63943 52.8058 10.1732 52.8058 10.6349C52.8058 11.2886 53.7304 11.5105 55.2856 11.7504C58.3959 12.2601 60.6356 12.9378 60.6356 15.6604C60.6356 18.1372 58.3479 19.8883 55.1415 19.8883C52.1272 19.8883 49.8515 18.3891 49.2871 15.9423H51.9411C52.3674 15.9423 52.7757 16.0862 53.112 16.3501C53.6944 16.7998 54.499 16.9798 55.1415 16.9798C56.4325 16.9798 57.4052 16.59 57.4052 15.8643C57.4052 15.1627 56.9669 14.8688 54.7812 14.527C52.5416 14.1852 49.5513 13.5795 49.5513 10.7849C49.5513 8.81784 51.2806 6.77885 54.9013 6.77885C57.6034 6.77885 59.5308 7.6964 60.3054 10.7129L57.9156 10.7069Z" fill="white"></path><path d="M65.4122 13.3581C65.4122 11.3551 66.8413 9.73596 68.6066 9.73596C69.2551 9.73596 69.8556 9.95185 70.3599 10.3297C70.6902 10.5755 71.0865 10.7135 71.5008 10.7135H74.509C73.5183 8.39263 71.2486 6.77344 68.6126 6.77344C65.0579 6.77344 62.1758 9.71197 62.1758 13.3342C62.1758 16.9563 65.0579 19.8949 68.6126 19.8949C71.2606 19.8949 73.5303 18.2697 74.5211 15.9369H71.5909C71.1645 15.9369 70.7562 16.0808 70.42 16.3447C69.9096 16.7465 69.2851 16.9743 68.6186 16.9743C66.8413 16.9803 65.4122 15.3551 65.4122 13.3581Z" fill="white"></path><path d="M92.9205 2.3833C92.9145 2.3833 92.9085 2.3833 92.8965 2.3833C91.2873 2.3833 89.9663 3.66066 89.9062 5.25587V19.9185C89.9123 19.9185 89.9183 19.9185 89.9303 19.9185C91.5395 19.9185 92.8605 18.6412 92.9205 17.046V2.3833Z" fill="white"></path><path d="M44.9014 15.9423C44.4751 15.9423 44.0488 16.0802 43.7185 16.3501C43.1061 16.8538 42.0733 17.1117 41.3948 17.1117H41.3888C39.8817 17.1117 38.6688 16.1641 38.2544 14.6349H47.6995C48.1619 9.68139 45.0996 6.77884 41.4128 6.77884C37.8942 6.77884 35 9.78334 35 13.3995C35 17.0157 37.8882 19.8943 41.4128 19.8943H41.4188C44.4631 19.8943 46.9189 18.431 47.4714 15.9483H44.9014V15.9423ZM38.3085 12.0142C38.7708 10.557 39.9357 9.63341 41.3948 9.63341C42.9259 9.63341 44.1389 10.557 44.5292 12.0142H38.3085Z" fill="white"></path><path d="M97.6813 10.7071C98.1857 10.7071 98.6541 10.4972 99.0204 10.1554C99.5367 9.66364 100.419 9.3578 101.314 9.3578C102.755 9.3578 103.614 9.89752 103.614 10.5512C103.614 11.5767 102.125 11.8226 100.023 12.0145C97.237 12.2603 94.8652 12.992 94.8652 15.8226C94.8652 18.5572 97.3091 19.9005 99.9751 19.9005C101.734 19.9005 103.007 19.3608 103.836 18.4852C104.076 19.1629 104.893 19.8945 105.763 19.8945H106.766C106.766 19.8945 106.766 17.7776 106.766 17.6097V11.0669C106.766 10.0654 106.352 6.76709 101.242 6.76709C97.9035 6.76709 95.7719 8.56619 95.3816 10.7071H97.6813ZM103.734 14.7791C103.734 16.3923 102.167 17.0519 100.239 17.0519C98.9423 17.0519 98.1137 16.5662 98.1137 15.8585C98.1137 14.929 99.0864 14.5632 100.678 14.4193C102.425 14.2573 103.049 13.7716 103.734 13.3278V14.7791Z" fill="white"></path></svg>